<svg width="197" height="200" viewBox="0 0 197 200" fill="none" xmlns="http://www.w3.org/2000/svg">
<path d="M196.045 131.025C196.261 131.149 196.45 131.313 196.602 131.51C196.754 131.707 196.865 131.931 196.93 132.171C196.995 132.411 197.011 132.661 196.979 132.908C196.947 133.154 196.866 133.392 196.741 133.607C194.631 137.324 191.78 140.569 188.363 143.138C184.946 145.707 181.038 147.546 176.881 148.541C169.199 150.435 159.663 149.975 148.201 145.857L147.965 145.744C142.844 143.071 140.795 141.965 136.002 139.168L134.404 138.236L131.874 136.741C132.74 136.068 133.53 135.302 134.23 134.457C134.353 134.303 134.476 134.16 134.578 134.006C135.457 132.864 136.082 131.548 136.412 130.145C136.838 128.251 136.732 126.276 136.104 124.439C135.361 122.378 134.292 120.448 132.939 118.724C132.407 118.007 131.864 117.3 131.28 116.604C139.01 121.854 147.18 126.426 155.699 130.267C158.94 131.446 162.359 132.066 165.808 132.101C171.312 132.132 176.686 130.434 181.172 127.246C185.199 124.413 188.279 120.433 190.012 115.825C190.743 113.833 191.127 111.73 191.149 109.608C191.315 106.198 190.419 102.822 188.584 99.943C186.749 97.0645 184.067 94.8262 180.906 93.537C178.42 92.4847 175.749 91.938 173.05 91.9289C168.836 91.8323 164.722 93.217 161.424 95.8416C160.549 96.5894 159.79 97.4627 159.171 98.433L159.109 98.5354C158.413 99.5959 157.865 100.747 157.481 101.957V101.957L157.389 102.356C157.153 104.191 157.534 106.053 158.472 107.648C159.41 109.242 160.853 110.48 162.572 111.165L162.92 111.257C163.977 111.482 165.069 111.482 166.126 111.257C167.197 111.037 168.196 110.555 169.035 109.854C169.723 109.296 170.211 108.531 170.428 107.672C170.54 107.173 170.54 106.655 170.428 106.156C170.093 105.165 169.477 104.293 168.656 103.647C167.959 103.073 167.089 102.751 166.187 102.735C165.808 102.727 165.439 102.605 165.13 102.385C164.821 102.164 164.586 101.856 164.455 101.499C164.325 101.143 164.305 100.755 164.398 100.387C164.491 100.019 164.694 99.6878 164.979 99.4368V99.4368C165.278 99.1728 165.593 98.9266 165.921 98.6993L166.023 98.6174C166.402 98.3625 166.799 98.1366 167.211 97.9414C169.423 96.9972 171.882 96.7959 174.218 97.3678C177.045 97.9516 179.667 99.4163 180.763 100.84C182.258 102.781 183.139 105.124 183.293 107.57C183.422 110.282 182.794 112.977 181.48 115.354C180.21 117.711 178.445 119.766 176.307 121.377C174.11 123.11 171.462 124.177 168.676 124.45C154.541 126.006 141.676 115.17 130.471 105.736L129.252 104.712C130.325 105.2 131.458 105.545 132.622 105.736C133.787 105.906 134.975 105.84 136.114 105.541C145.968 113.736 156.989 121.93 168.318 120.68H168.42C170.476 120.471 172.428 119.675 174.043 118.386C175.739 117.107 177.137 115.475 178.14 113.603C179.13 111.843 179.606 109.842 179.513 107.826C179.406 106.116 178.789 104.479 177.741 103.124C176.551 102.022 175.054 101.308 173.449 101.076C172.685 100.919 171.905 100.847 171.124 100.861C172.499 102.075 173.518 103.64 174.074 105.388C174.296 106.4 174.296 107.448 174.074 108.461C173.68 110.131 172.757 111.629 171.442 112.732C170.128 113.842 168.558 114.606 166.873 114.955C165.297 115.293 163.667 115.293 162.09 114.955C161.872 114.91 161.656 114.852 161.445 114.78V114.78C158.821 113.882 156.612 112.062 155.227 109.659C153.712 107.264 153.149 104.388 153.65 101.598V101.598C153.65 101.414 153.752 101.188 153.834 100.912C154.306 99.3574 154.995 97.8779 155.883 96.5176L155.944 96.4152C156.787 95.1178 157.815 93.9514 158.997 92.9531C162.983 89.7674 167.958 88.0753 173.06 88.1698C176.287 88.18 179.48 88.8311 182.453 90.0852C186.299 91.6637 189.565 94.3884 191.808 97.8886C194.052 101.389 195.162 105.495 194.99 109.649C194.964 112.203 194.507 114.735 193.638 117.136C193.032 118.793 192.264 120.385 191.343 121.889V134.948C192.124 133.935 192.835 132.871 193.474 131.763C193.594 131.545 193.755 131.353 193.95 131.198C194.144 131.043 194.367 130.928 194.606 130.859C194.845 130.791 195.095 130.77 195.342 130.799C195.589 130.827 195.828 130.904 196.045 131.025V131.025ZM187.554 138.933V126.754C186.439 127.911 185.234 128.976 183.948 129.94V141.575C185.222 140.797 186.428 139.913 187.554 138.933V138.933ZM180.169 143.511V132.347C179.12 132.896 178.043 133.389 176.942 133.822V144.618C178.038 144.312 179.116 143.943 180.169 143.511V143.511ZM173.152 145.437V135.01C170.756 135.597 168.296 135.886 165.829 135.87C161.92 135.843 158.044 135.15 154.367 133.822L154.234 133.771L152.585 133.023V143.378C160.554 145.806 167.375 146.318 173.152 145.437V145.437ZM148.805 141.924V131.179C147.556 130.554 146.327 129.929 145.128 129.294V139.957C146.306 140.602 147.535 141.258 148.805 141.924V141.924ZM141.215 137.827V127.164C140.191 126.611 139.269 126.058 138.327 125.494V136.157C139.259 136.69 140.222 137.243 141.215 137.796V137.827Z" fill="#0F7657"/>
<path d="M193.597 72.6521L191.098 72.7647C190.156 50.6814 175.211 43.5729 174.576 43.2758L175.601 41.002C176.297 41.3092 192.583 48.9811 193.597 72.6521Z" fill="#4C8BCA"/>
<path d="M193.084 175.94H7.28064V178.439H193.084V175.94Z" fill="#179E6C"/>
<path d="M191.744 155.157L192.942 157.329C184.165 162.298 174.256 164.926 164.17 164.96C141.902 164.96 125.913 152.074 125.688 151.89L127.286 149.975C127.573 150.21 157.318 174.117 191.744 155.157Z" fill="#4C8BCA"/>
<path d="M192.84 188.528V191.017H188.712V189.768H186.213V191.017H181.952V189.768H179.463V191.017H175.202V189.768H172.702V191.017H168.441V189.768H165.952V191.017H161.702V189.768H159.203V191.017H154.942V189.768H152.453V191.017H148.192V189.768H145.692V191.017H141.431V189.768H138.942V191.017H134.681V189.768H132.182V191.017H128.536V189.768H126.047V191.017H121.786V189.768H119.286V191.017H115.026V189.768H112.526V191.017H108.276V189.768H105.776V191.017H101.526V189.768H99.0263V191.017H94.7756V189.768H92.2763V191.017H88.0154V189.768H85.5161V191.017H81.2551V189.768H78.7662V191.017H74.5052V189.768H72.0059V191.017H68.3185V189.768H65.8296V191.017H61.5686V189.768H59.0693V191.017H54.8084V189.768H52.3194V191.017H48.0584V189.768H45.5591V191.017H41.2982V189.768H38.8092V191.017H34.5584V189.768H32.0592V191.017H27.7982V189.768H25.299V191.017H21.0482V189.768H18.549V191.017H14.288V189.768H11.799V191.017H7.72241V188.528H192.84Z" fill="#A92819"/>
<path d="M192.84 182.044H7.04626V184.543H192.84V182.044Z" fill="#179E6C"/>
<path d="M191.281 26.6927L191.496 29.1817C190.216 29.2943 188.997 29.3456 187.809 29.3456C180.239 29.3456 174.493 27.1741 170.56 22.8824C163.277 14.8418 165.438 2.39687 165.561 1.854L168.02 2.31493C168.02 2.4276 165.971 14.1043 172.414 21.2231C176.326 25.5762 182.687 27.3994 191.281 26.6927Z" fill="#2A3277"/>
<path d="M182.975 0.860357C184.828 0.858331 186.639 1.40593 188.18 2.43385C189.722 3.46177 190.923 4.92379 191.633 6.63487C192.343 8.34594 192.529 10.2292 192.168 12.0461C191.807 13.8631 190.915 15.5322 189.606 16.8421C188.296 18.152 186.627 19.0438 184.81 19.4047C182.993 19.7656 181.109 19.5794 179.398 18.8695C177.687 18.1597 176.225 16.9581 175.197 15.417C174.169 13.8759 173.622 12.0645 173.624 10.212C173.629 7.73345 174.616 5.35796 176.369 3.60537C178.121 1.85277 180.497 0.865769 182.975 0.860357V0.860357ZM189.838 10.212C189.838 8.85469 189.436 7.52787 188.682 6.39931C187.927 5.27075 186.856 4.39115 185.602 3.87173C184.348 3.35232 182.968 3.21641 181.637 3.48121C180.305 3.74601 179.083 4.39961 178.123 5.35937C177.163 6.31913 176.509 7.54193 176.245 8.87316C175.98 10.2044 176.116 11.5842 176.635 12.8382C177.155 14.0922 178.034 15.164 179.163 15.9181C180.291 16.6722 181.618 17.0746 182.975 17.0746C184.795 17.0719 186.539 16.348 187.825 15.0616C189.111 13.7752 189.835 12.0312 189.838 10.212V10.212Z" fill="#179E6C"/>
<path d="M188.71 191.017H186.211V200H188.71V191.017Z" fill="#A92819"/>
<path d="M188.71 189.768H186.211V191.017H188.71V189.768Z" fill="#A92819"/>
<path d="M182.975 12.4658C184.219 12.4658 185.228 11.4569 185.228 10.2124C185.228 8.96787 184.219 7.95898 182.975 7.95898C181.73 7.95898 180.721 8.96787 180.721 10.2124C180.721 11.4569 181.73 12.4658 182.975 12.4658Z" fill="#2A3277"/>
<path d="M181.961 191.017H179.462V200H181.961V191.017Z" fill="#A92819"/>
<path d="M181.961 189.768H179.462V191.017H181.961V189.768Z" fill="#A92819"/>
<path d="M180.272 74.5777L177.783 74.7826C175.919 52.2485 151.766 43.9006 151.521 43.8187L152.309 41.4424C152.576 41.5346 178.264 50.3741 180.272 74.5777Z" fill="#4C8BCA"/>
<path d="M175.201 191.017H172.701V200H175.201V191.017Z" fill="#A92819"/>
<path d="M175.201 189.768H172.701V191.017H175.201V189.768Z" fill="#A92819"/>
<path d="M168.452 191.017H165.953V200H168.452V191.017Z" fill="#A92819"/>
<path d="M168.452 189.768H165.953V191.017H168.452V189.768Z" fill="#A92819"/>
<path d="M162.982 138.308C163.473 138.306 163.954 138.45 164.363 138.722C164.772 138.993 165.092 139.38 165.281 139.834C165.47 140.287 165.519 140.786 165.424 141.268C165.329 141.75 165.093 142.192 164.745 142.54C164.398 142.887 163.955 143.123 163.474 143.218C162.992 143.314 162.493 143.264 162.039 143.075C161.586 142.886 161.199 142.567 160.927 142.158C160.656 141.748 160.512 141.268 160.514 140.777C160.514 140.122 160.774 139.494 161.237 139.031C161.7 138.568 162.328 138.308 162.982 138.308V138.308Z" fill="#A92819"/>
<path d="M161.7 191.017H159.201V200H161.7V191.017Z" fill="#A92819"/>
<path d="M161.7 189.768H159.201V191.017H161.7V189.768Z" fill="#A92819"/>
<path d="M159.979 74.5675C160.373 76.8757 159.98 79.2495 158.862 81.3072C158.322 82.4134 157.706 83.4812 157.019 84.503C156.568 85.2097 156.076 85.8857 155.626 86.5515C154.601 88.2108 153.577 89.7985 152.358 91.3861C150.431 94.0522 148.298 96.5626 145.977 98.894C144.021 100.858 141.833 102.578 139.463 104.015C138.428 104.642 137.311 105.121 136.144 105.439C135.058 104.538 133.983 103.626 132.928 102.735L131.904 101.885C132.866 102.217 133.894 102.31 134.9 102.156C135.907 102.003 136.861 101.607 137.68 101.004C139.808 99.7038 141.771 98.1529 143.529 96.3845C145.717 94.1712 147.734 91.7949 149.562 89.2761C150.689 87.7499 151.672 86.2033 152.686 84.6361C153.147 83.9089 153.639 83.2124 154.11 82.4954C154.711 81.593 155.258 80.6559 155.749 79.6889C156.519 78.2837 156.807 76.6643 156.568 75.0796C156.237 73.6515 155.562 72.326 154.601 71.2181C153.988 70.4065 153.256 69.6918 152.43 69.0979C151.363 68.3262 150.034 68.006 148.732 68.2067C147.76 68.3988 146.851 68.832 146.09 69.4666C145.394 69.9698 144.767 70.5621 144.226 71.2283C143.761 71.8358 143.426 72.5314 143.239 73.2728C143.053 74.0141 143.019 74.7857 143.14 75.5405C143.323 76.5355 143.605 77.5099 143.98 78.4495C143.611 78.7875 143.181 79.105 142.802 79.4021C141.778 80.2215 140.692 81.0511 139.647 81.8911C138.582 82.7256 137.579 83.6362 136.646 84.6156C135.898 85.4658 135.213 86.3696 134.597 87.3197C134.541 87.3915 134.49 87.4668 134.444 87.5451C133.911 86.869 133.368 86.1111 132.856 85.4965C131.586 83.9908 130.203 82.5773 128.892 81.1228C127.868 79.9347 126.844 78.6953 125.758 77.4969C125.026 76.6218 124.202 75.8284 123.3 75.1308C122.615 74.6294 121.872 74.2132 121.087 73.8915L120.852 73.7993C121.793 73.3277 122.597 72.6223 123.187 71.7507C123.972 70.7434 124.658 69.6629 125.235 68.5243C125.896 67.1845 126.408 65.7762 126.762 64.3247C127.178 62.8392 127.279 61.2833 127.059 59.7565C126.801 58.2432 126.139 56.8276 125.143 55.6594C124.377 54.747 123.467 53.9653 122.449 53.3445C120.201 51.8618 117.477 51.2803 114.819 51.7159C113.303 51.99 111.872 52.6143 110.64 53.5391C109.627 54.3233 108.769 55.2889 108.11 56.3866C107.473 57.3793 107.044 58.4909 106.85 59.654C106.689 60.7495 106.662 61.8604 106.768 62.9624C106.856 63.6964 106.884 64.4364 106.85 65.1749C106.75 65.8523 106.571 66.5157 106.317 67.1517C106.207 67.4737 106.077 67.7885 105.928 68.0941H105.856C105.321 68.2421 104.772 68.3348 104.217 68.3706C103.388 68.3706 102.558 68.2272 101.718 68.2067C100.624 68.2162 99.5335 68.3294 98.4609 68.5447C97.0679 68.7598 95.6749 69.0057 94.2819 69.1491C92.8889 69.2925 91.2091 69.3744 89.6522 69.3949C88.0953 69.4154 86.5793 69.3949 84.9917 69.5178C83.6918 69.6064 82.4046 69.8296 81.1507 70.1836C79.997 70.4952 78.9103 71.0159 77.9447 71.72C76.7634 72.6759 75.8554 73.9267 75.3123 75.3459C74.384 77.4013 73.5735 79.5079 72.8848 81.6555C72.516 82.7412 72.178 83.8474 71.8605 84.9434L68.8491 83.0382C69.1052 82.2291 69.3613 81.4199 69.6276 80.6107C70.3659 78.3441 71.2241 76.1183 72.1985 73.9427C72.9749 72.0058 74.2465 70.3069 75.8859 69.0159C77.1863 68.0821 78.6432 67.3883 80.1878 66.9674C81.6743 66.5133 83.2063 66.2247 84.7561 66.107C86.3642 65.9841 87.9826 66.0045 89.6009 65.9738C91.0349 65.9738 92.4894 65.8919 93.9234 65.7382C95.3574 65.5846 96.5763 65.3695 97.8976 65.1544C99.1743 64.914 100.47 64.7906 101.769 64.7857C102.322 64.7857 102.855 64.7857 103.388 64.8778C103.388 64.4374 103.316 63.7819 103.296 63.3722C103.163 62.0074 103.198 60.6315 103.398 59.2751C103.68 57.682 104.268 56.1586 105.129 54.7887C106.008 53.3274 107.155 52.0451 108.509 51.0091C110.175 49.7472 112.116 48.8978 114.173 48.5304C117.682 47.9357 121.286 48.6894 124.262 50.6404C125.576 51.4768 126.751 52.5136 127.745 53.7132C129.115 55.3308 130.033 57.2811 130.408 59.3672C130.686 61.3493 130.557 63.3672 130.029 65.2978C129.614 66.9957 129.009 68.6414 128.226 70.2041C127.674 71.3012 127.041 72.3557 126.331 73.3588C127.016 74.003 127.663 74.6871 128.267 75.4074C129.292 76.5956 130.316 77.8247 131.34 79.0026C132.364 80.1805 133.307 81.1228 134.28 82.1881C135.267 81.1829 136.317 80.2421 137.424 79.3713C138.244 78.7056 139.084 78.05 139.924 77.3842C139.812 76.9775 139.73 76.5633 139.678 76.1449C139.504 74.9436 139.576 73.7195 139.889 72.5469C140.203 71.3743 140.751 70.2775 141.501 69.3232C142.216 68.4011 143.058 67.584 144 66.8957C145.206 65.9276 146.63 65.27 148.149 64.9803C150.338 64.6119 152.584 65.1156 154.407 66.3835C155.52 67.1618 156.505 68.1087 157.326 69.19C158.65 70.7298 159.563 72.5797 159.979 74.5675V74.5675Z" fill="#A92819"/>
<path d="M156.59 75.1514C156.829 76.7361 156.541 78.3555 155.771 79.7606C155.28 80.7277 154.733 81.6648 154.132 82.5672C153.661 83.2842 153.169 83.9807 152.708 84.7079C151.684 86.2955 150.659 87.7807 149.584 89.3479C147.756 91.8667 145.739 94.243 143.551 96.4563C141.793 98.2247 139.83 99.7756 137.702 101.076C136.883 101.679 135.929 102.075 134.922 102.228C133.916 102.381 132.888 102.288 131.925 101.957C126.405 97.3577 121.252 93.3835 116.561 91.0994C116.664 90.7204 116.735 90.3824 116.817 90.0751C116.959 89.3392 117.171 88.6188 117.452 87.9241C117.657 87.5349 117.893 87.371 118.231 87.4734C118.915 87.8668 119.525 88.3763 120.034 88.9791C121.058 90.0034 122.656 91.591 124.192 93.0045C125.542 94.2668 126.983 95.4274 128.504 96.4768C129.493 97.13 130.538 97.6922 131.628 98.1566C132.251 98.4705 132.912 98.7013 133.595 98.8429C134.456 98.8964 135.305 98.622 135.971 98.0747C137.836 96.9181 139.555 95.5426 141.093 93.9776C143.145 91.8794 145.045 89.6374 146.777 87.2686C148.283 85.22 149.143 83.8065 149.768 82.8335C150.393 81.8604 150.793 81.338 151.223 80.6415C151.744 79.8681 152.213 79.0605 152.626 78.2242C153.075 77.4804 153.266 76.609 153.169 75.7455C152.925 74.8788 152.492 74.0774 151.899 73.3999C151.492 72.8654 151.012 72.3897 150.475 71.9864C150.31 71.8522 150.12 71.7523 149.916 71.6925C149.712 71.6327 149.498 71.6142 149.287 71.6381C148.862 71.7506 148.469 71.9611 148.14 72.2527C147.69 72.5669 147.287 72.9427 146.941 73.3692C146.746 73.6064 146.604 73.8828 146.524 74.1796C146.445 74.4764 146.43 74.7868 146.48 75.0899C146.671 75.9641 146.935 76.8206 147.269 77.6506C147.507 78.1952 147.568 78.8007 147.443 79.3817C147.251 79.8926 146.938 80.3495 146.532 80.7132C145.999 81.2159 145.438 81.6878 144.852 82.1267C144.012 82.7823 142.803 83.7246 141.779 84.5747C140.847 85.3038 139.967 86.0979 139.147 86.9511C138.497 87.6944 137.895 88.4778 137.344 89.2966C136.893 90 136.371 90.6555 135.787 91.253C135.6 91.4269 135.378 91.559 135.136 91.6402C134.894 91.7215 134.638 91.7501 134.384 91.7242C133.743 91.6614 133.15 91.3575 132.724 90.874C132.069 90.2287 131.301 89.0918 130.164 87.8012C129.027 86.5106 127.541 84.9332 126.261 83.5197C124.981 82.1062 123.916 80.7952 123.096 79.8631C122.524 79.1711 121.882 78.5395 121.181 77.9784C120.71 77.6433 120.201 77.3648 119.665 77.1487C119.112 76.9132 118.477 76.6571 117.801 76.4113C117.125 76.1654 116.387 75.9503 115.895 75.7865C115.552 75.7164 115.232 75.5614 114.963 75.3358C114.789 75.1309 114.697 74.8339 114.861 74.1271C115.097 73.2974 115.402 72.4888 115.773 71.7098C116.07 71.085 116.233 70.9519 116.572 70.8802C117.021 70.8376 117.474 70.8376 117.924 70.8802C118.354 70.9593 118.794 70.9593 119.224 70.8802C119.603 70.7675 119.921 70.4602 120.392 69.8559C121.032 69.0139 121.594 68.1157 122.072 67.1723C122.62 66.0607 123.046 64.8931 123.342 63.6898C123.638 62.6625 123.725 61.5863 123.598 60.5248C123.424 59.6297 123.018 58.7961 122.42 58.1075C121.876 57.464 121.233 56.9108 120.515 56.4686C119.833 55.9991 119.073 55.6525 118.272 55.4443C117.307 55.2015 116.303 55.1597 115.322 55.3214C114.347 55.4984 113.428 55.9019 112.638 56.4994C111.968 57.0276 111.399 57.6731 110.958 58.4045C110.554 59.0259 110.278 59.7227 110.149 60.4531C110.056 61.2835 110.056 62.1218 110.149 62.9523C110.25 63.8808 110.274 64.8161 110.221 65.7486C110.095 66.717 109.851 67.6664 109.494 68.5756C109.23 69.4534 108.791 70.2687 108.203 70.9724C107.674 71.4334 107.008 71.707 106.308 71.7508C105.579 71.8577 104.843 71.9056 104.106 71.8942C103.328 71.8942 102.457 71.7303 101.679 71.7201C100.787 71.733 99.8991 71.829 99.0257 72.0069C97.8785 72.2015 96.2806 72.4678 94.652 72.6419C93.0234 72.8161 91.3539 72.8775 89.7355 72.9082C88.1171 72.939 86.5398 72.9082 85.2594 73.0312C84.1909 73.0711 83.1299 73.2256 82.0944 73.4921C81.3379 73.7027 80.6263 74.0498 79.9946 74.5164C79.2687 75.1307 78.7234 75.9308 78.4173 76.8312C77.7822 78.2037 76.9116 80.4367 76.1229 82.7925C75.662 84.1753 75.2318 85.599 74.8323 86.8896L71.8209 84.9435C72.1589 83.8475 72.4969 82.7413 72.8452 81.6556C73.534 79.508 74.3444 77.4014 75.2727 75.346C75.8158 73.9268 76.7239 72.676 77.9051 71.7201C78.8707 71.016 79.9574 70.4952 81.1111 70.1837C82.365 69.8296 83.6522 69.6065 84.9521 69.5179C86.509 69.4155 88.025 69.4257 89.6126 69.395C91.2002 69.3642 92.6854 69.313 94.2423 69.1492C95.7992 68.9853 97.0283 68.7599 98.4213 68.5448C99.494 68.3295 100.585 68.2163 101.679 68.2068C102.518 68.2068 103.348 68.3502 104.178 68.3707C104.705 68.3914 105.234 68.3605 105.755 68.2785H105.827C105.976 67.9729 106.106 67.6582 106.216 67.3362C106.47 66.7001 106.649 66.0367 106.749 65.3593C106.783 64.6209 106.755 63.8808 106.667 63.1469C106.561 62.0448 106.588 60.934 106.749 59.8385C106.943 58.6753 107.372 57.5638 108.009 56.571C108.668 55.4733 109.526 54.5078 110.539 53.7236C111.771 52.7988 113.202 52.1745 114.718 51.9004C117.375 51.4648 120.1 52.0462 122.348 53.529C123.366 54.1497 124.276 54.9315 125.042 55.8438C126.038 57.0121 126.7 58.4276 126.958 59.9409C127.178 61.4677 127.076 63.0237 126.661 64.5092C126.307 65.9607 125.795 67.369 125.134 68.7087C124.557 69.8474 123.871 70.9278 123.086 71.9352C122.496 72.8068 121.692 73.5121 120.751 73.9837L120.986 74.0759C121.771 74.3977 122.514 74.8139 123.199 75.3153C124.121 75.98 124.97 76.7423 125.729 77.5892C126.753 78.7876 127.777 80.027 128.863 81.2151C130.174 82.6696 131.557 84.0831 132.827 85.5888C133.339 86.1726 133.851 86.9306 134.414 87.6373C134.461 87.559 134.512 87.4838 134.568 87.412C135.184 86.4618 135.869 85.558 136.617 84.7079C137.55 83.7284 138.553 82.8179 139.618 81.9833C140.642 81.1434 141.717 80.3138 142.772 79.4943C143.151 79.1973 143.582 78.8798 143.95 78.5418C143.58 77.5713 143.309 76.5658 143.141 75.5406C143.032 74.7872 143.076 74.0193 143.271 73.2835C143.467 72.5476 143.809 71.8589 144.278 71.2592C144.82 70.593 145.447 70.0007 146.142 69.4974C146.904 68.8628 147.813 68.4296 148.785 68.2375C150.087 68.0368 151.415 68.357 152.483 69.1287C153.309 69.7226 154.041 70.4373 154.654 71.2489C155.609 72.3717 156.274 73.7117 156.59 75.1514V75.1514Z" fill="white"/>
<path d="M154.951 191.017H152.452V200H154.951V191.017Z" fill="#A92819"/>
<path d="M154.951 189.768H152.452V191.017H154.951V189.768Z" fill="#A92819"/>
<path d="M153.209 75.7758C153.306 76.6393 153.116 77.5107 152.666 78.2546C152.253 79.0873 151.784 79.8915 151.263 80.6616C150.802 81.3581 150.423 81.8805 149.809 82.8536C149.194 83.8266 148.324 85.2504 146.818 87.2887C145.071 89.6518 143.158 91.887 141.092 93.9772C139.555 95.5422 137.835 96.9177 135.971 98.0743C135.305 98.6056 134.465 98.8687 133.615 98.8118C132.932 98.6702 132.271 98.4394 131.648 98.1255C130.558 97.6611 129.513 97.0988 128.524 96.4457C127.003 95.3963 125.562 94.2357 124.212 92.9734C122.676 91.5599 121.078 89.9006 120.054 88.948C119.545 88.3452 118.935 87.8357 118.251 87.4423C117.913 87.3399 117.677 87.5038 117.472 87.893C117.191 88.5877 116.979 89.3081 116.837 90.044C116.755 90.3513 116.684 90.6893 116.581 91.0683C116.131 90.8532 115.68 90.6381 115.229 90.4537C113.459 89.6021 111.57 89.0221 109.626 88.7329C106.687 88.1491 103.542 89.1016 100.408 90.423C100.408 90.1874 100.316 89.9416 100.254 89.6957C99.9982 88.569 99.6193 87.3501 99.4144 86.2337C99.2451 85.2178 99.1527 84.1906 99.1378 83.1609C99.142 82.475 99.0906 81.7899 98.9842 81.1123C98.9654 80.9437 98.905 80.7825 98.8084 80.6431C98.7119 80.5036 98.5822 80.3903 98.4311 80.3134C98.0504 80.1349 97.6323 80.0506 97.2122 80.0675C96.371 80.0516 95.5296 80.0858 94.6925 80.17C93.7297 80.2621 92.7361 80.3953 91.6197 80.4465C90.5032 80.4977 89.1307 80.4465 87.8196 80.4465C86.5085 80.4465 85.2487 80.2826 84.5419 80.2212C83.8352 80.1597 83.6713 80.1597 83.5176 80.2212C83.3618 80.3467 83.2504 80.5191 83.2001 80.7128C83.0977 80.9791 82.9953 81.3889 82.8006 82.0649C82.5629 82.9839 82.2582 83.8842 81.889 84.7587C81.329 85.9781 80.6821 87.1556 79.9532 88.2822L79.0416 89.706L74.8318 86.879C75.2313 85.5372 75.6615 84.1134 76.1224 82.7819C76.9111 80.426 77.7817 78.1931 78.4168 76.8206C78.7229 75.9202 79.2682 75.12 79.9941 74.5057C80.6258 74.0392 81.3374 73.6921 82.0939 73.4814C83.1171 73.1963 84.1678 73.0212 85.2282 72.9591C86.5085 72.8669 88.0757 72.8771 89.7043 72.8362C91.3329 72.7952 92.9922 72.744 94.6208 72.5698C96.2494 72.3957 97.8473 72.1294 98.9944 71.9348C99.8679 71.757 100.756 71.6609 101.647 71.648C102.426 71.648 103.296 71.7812 104.075 71.8221C104.809 71.8228 105.542 71.7646 106.267 71.648C106.967 71.6042 107.633 71.3306 108.162 70.8695C108.749 70.1659 109.188 69.3506 109.452 68.4727C109.809 67.5636 110.053 66.6142 110.18 65.6457C110.233 64.7133 110.209 63.778 110.108 62.8495C110.014 62.019 110.014 61.1807 110.108 60.3502C110.237 59.6199 110.512 58.9231 110.917 58.3017C111.357 57.5703 111.926 56.9248 112.597 56.3965C113.387 55.799 114.306 55.3955 115.28 55.2186C116.262 55.0569 117.266 55.0987 118.23 55.3415C119.032 55.5497 119.791 55.8963 120.474 56.3658C121.191 56.808 121.834 57.3612 122.379 58.0046C122.976 58.6933 123.383 59.5269 123.557 60.4219C123.684 61.4835 123.596 62.5597 123.3 63.5869C123.004 64.7903 122.578 65.9579 122.03 67.0695C121.553 68.0129 120.99 68.9111 120.351 69.7531C119.879 70.3676 119.562 70.6749 119.183 70.7774C118.753 70.8565 118.312 70.8565 117.882 70.7774C117.432 70.7348 116.98 70.7348 116.53 70.7774C116.192 70.8491 116.028 70.9822 115.731 71.607C115.36 72.386 115.056 73.1946 114.82 74.0243C114.656 74.7311 114.748 75.0486 114.922 75.233C115.19 75.4586 115.511 75.6136 115.854 75.6836C116.346 75.8475 117.073 76.0626 117.759 76.3084C118.445 76.5543 119.07 76.8103 119.623 77.0459C120.159 77.262 120.668 77.5405 121.139 77.8756C121.84 78.4367 122.482 79.0682 123.055 79.7603C123.874 80.6923 124.939 81.9932 126.22 83.4169C127.5 84.8407 128.995 86.3668 130.122 87.6984C131.249 89.03 132.027 90.1771 132.683 90.7712C133.108 91.2547 133.701 91.5585 134.342 91.6214C134.596 91.6473 134.853 91.6187 135.095 91.5374C135.337 91.4561 135.559 91.3241 135.745 91.1502C136.33 90.5527 136.851 89.8972 137.302 89.1938C137.854 88.375 138.456 87.5916 139.105 86.8482C139.925 85.9951 140.805 85.201 141.737 84.4719C142.762 83.6218 144.011 82.6794 144.81 82.0239C145.397 81.585 145.957 81.1131 146.49 80.6104C146.897 80.2467 147.21 79.7898 147.402 79.2788C147.526 78.6978 147.465 78.0924 147.228 77.5478C146.894 76.7178 146.63 75.8612 146.439 74.9871C146.388 74.684 146.403 74.3736 146.483 74.0768C146.562 73.78 146.705 73.5036 146.9 73.2663C147.245 72.8399 147.648 72.4641 148.098 72.1499C148.427 71.8583 148.82 71.6478 149.245 71.5353C149.457 71.5114 149.671 71.5299 149.875 71.5897C150.079 71.6495 150.269 71.7494 150.434 71.8836C150.971 72.2869 151.45 72.7626 151.857 73.2971C152.497 74.005 152.961 74.8544 153.209 75.7758Z" fill="#A92819"/>
<path d="M153.096 17.689H106.379V20.1882H153.096V17.689Z" fill="#179E6C"/>
<path d="M153.006 1.54639H106.289V4.04562H153.006V1.54639Z" fill="#179E6C"/>
<path d="M151.094 28.7515L144.901 35.6348L146.759 37.3064L152.952 30.4232L151.094 28.7515Z" fill="#2A3277"/>
<path d="M152.79 9.37207H106.073V11.8713H152.79V9.37207Z" fill="#A92819"/>
<path d="M148.19 191.017H145.691V200H148.19V191.017Z" fill="#A92819"/>
<path d="M148.19 189.768H145.691V191.017H148.19V189.768Z" fill="#A92819"/>
<path d="M142.393 28.744L136.196 35.624L138.053 37.2967L144.25 30.4166L142.393 28.744Z" fill="#2A3277"/>
<path d="M141.43 191.017H138.93V200H141.43V191.017Z" fill="#A92819"/>
<path d="M141.43 189.768H138.93V191.017H141.43V189.768Z" fill="#A92819"/>
<path d="M136.124 124.44C136.752 126.276 136.858 128.251 136.432 130.145C136.102 131.548 135.477 132.864 134.598 134.006L134.414 133.863V123.456H134.946C133.157 122.336 131.392 121.196 129.651 120.035C128.114 118.049 126.459 116.157 124.693 114.371C122.939 112.577 121.06 110.91 119.07 109.383C117.667 108.358 116.233 107.334 114.737 106.433L113.795 105.859C113.795 105.798 113.856 105.736 113.897 105.675C116.327 106.384 118.607 107.53 120.627 109.055C123.7 111.267 127.203 113.859 131.279 116.604C131.863 117.3 132.406 118.007 132.939 118.724C134.299 120.447 135.374 122.377 136.124 124.44Z" fill="#A92819"/>
<path d="M134.947 123.456H134.394V133.862L131.608 132.172C132.307 131.341 132.805 130.36 133.062 129.304C133.338 128.016 133.256 126.678 132.827 125.433C132.189 123.732 131.294 122.14 130.174 120.711C130.01 120.485 129.836 120.25 129.651 120.035C131.406 121.202 133.171 122.343 134.947 123.456Z" fill="#A92819"/>
<path d="M132.879 28.7486L126.686 35.6318L128.544 37.3035L134.737 30.4202L132.879 28.7486Z" fill="#2A3277"/>
<path d="M136.147 105.511C135.007 105.809 133.819 105.875 132.654 105.705C131.49 105.514 130.357 105.169 129.284 104.681C125.865 101.664 122.252 98.8754 118.468 96.3331C118.863 95.3275 119.205 94.3018 119.492 93.2603C120.26 94.0182 121.038 94.7762 121.837 95.5034C123.313 96.8912 124.891 98.1649 126.559 99.3137C127.719 100.066 128.938 100.72 130.206 101.27C130.751 101.524 131.312 101.743 131.886 101.926L132.91 102.776C133.985 103.698 135.061 104.609 136.147 105.511Z" fill="#A92819"/>
<path d="M134.681 191.017H132.182V200H134.681V191.017Z" fill="#A92819"/>
<path d="M134.681 189.768H132.182V191.017H134.681V189.768Z" fill="#A92819"/>
<path d="M134.6 134.006C134.497 134.16 134.374 134.303 134.251 134.457C133.552 135.302 132.762 136.067 131.895 136.741C130.769 136.058 129.693 135.402 128.669 134.774C129.765 134.075 130.746 133.212 131.578 132.213L134.364 133.903L134.6 134.006Z" fill="#A92819"/>
<path d="M132.9 125.433C133.329 126.678 133.411 128.017 133.135 129.304C132.878 130.36 132.38 131.341 131.681 132.172C130.657 131.537 129.632 130.923 128.721 130.329C128.812 130.239 128.897 130.143 128.977 130.042C129.36 129.608 129.634 129.088 129.776 128.526C129.928 127.844 129.878 127.132 129.632 126.477C129.112 125.128 128.386 123.867 127.481 122.739C125.901 120.64 124.19 118.642 122.36 116.757C120.718 115.081 118.959 113.523 117.095 112.097C115.508 110.888 114.104 110.048 112.998 109.331L112.353 108.942C113.596 109.291 114.808 109.74 115.979 110.284C120.547 113.592 125.054 116.88 129.714 120.014C129.899 120.229 130.073 120.465 130.237 120.69C131.363 122.125 132.261 123.725 132.9 125.433V125.433Z" fill="white"/>
<path d="M131.628 132.172C130.795 133.17 129.814 134.034 128.719 134.733C127.571 134.026 126.486 133.34 125.472 132.684L126.609 131.988C127.382 131.511 128.092 130.936 128.719 130.277C129.6 130.923 130.593 131.537 131.628 132.172Z" fill="white"/>
<path d="M131.873 136.741C131.372 137.14 130.849 137.519 130.286 137.878C127.788 139.419 125.163 140.746 122.44 141.842C118.425 143.562 114.246 145.109 110.302 146.891C108.614 147.601 106.998 148.472 105.478 149.493C104.576 150.118 103.696 150.784 102.794 151.419C102.057 151.931 101.299 152.443 100.551 152.904C99.8303 153.367 99.1456 153.884 98.5025 154.45C97.5736 155.288 96.717 156.203 95.9418 157.185C95.8825 157.252 95.8341 157.328 95.7984 157.411C95.7315 157.561 95.6734 157.715 95.6243 157.872C95.2759 158.843 94.7969 159.763 94.2006 160.606C93.3777 161.746 92.238 162.619 90.9232 163.116C89.6083 163.613 88.1764 163.713 86.8053 163.403C85.7928 163.162 84.8389 162.72 83.9998 162.104C83.1606 161.489 82.4533 160.711 81.9195 159.818C81.2666 158.661 80.8325 157.393 80.6392 156.079C80.487 155.193 80.4116 154.295 80.4138 153.395C80.4007 152.363 80.5003 151.333 80.7109 150.323C80.9911 149.005 81.4934 147.744 82.1961 146.594C82.6263 145.918 83.1179 145.324 83.5584 144.669C83.7286 144.405 83.8695 144.123 83.9783 143.829C82.0117 145.816 80.0246 147.782 78.0887 149.81C76.3317 151.591 74.6798 153.472 73.1415 155.444C71.9533 157.011 70.8369 158.63 69.6487 160.207C69.1161 160.934 68.5527 161.631 67.9689 162.255C68.489 163.466 68.6768 164.793 68.513 166.1C68.3491 167.407 67.8395 168.647 67.0368 169.692C66.1857 170.75 65.0849 171.58 63.8333 172.108C62.5818 172.635 61.2188 172.843 59.8669 172.713C58.0235 172.593 56.2405 172.008 54.684 171.013C52.9034 169.88 51.5129 168.228 50.6996 166.281C49.8248 164.232 49.5376 161.98 49.8699 159.777C50.0387 158.86 50.2714 157.957 50.5664 157.073C50.3701 156.35 50.2263 155.614 50.1362 154.87C49.9757 153.407 50.1116 151.927 50.5357 150.517C51.0751 148.817 52.1137 147.318 53.5164 146.215C54.3176 145.604 55.2002 145.108 56.1385 144.74C56.5175 144.576 56.8965 144.433 57.2857 144.29L57.7773 144.095L57.9207 143.911C58.3304 143.388 58.7299 142.835 59.0987 142.272C59.4674 141.708 59.8259 141.073 60.1229 140.449C60.6453 139.424 61.1472 138.482 61.6389 137.499C62.1305 136.515 62.7348 135.45 63.3289 134.426C63.9595 133.368 64.6432 132.342 65.3775 131.353C66.0945 130.39 66.8422 129.468 67.6104 128.577C68.6248 127.36 69.7919 126.279 71.0827 125.361C71.8816 124.808 73.0698 124.193 73.6741 123.702C73.8625 123.433 74.027 123.149 74.1658 122.852C75.19 123.538 76.0914 124.173 77.0337 124.746C76.7712 125.264 76.4252 125.735 76.0094 126.139C75.1798 126.856 73.9609 127.471 73.0493 128.116C71.9916 128.869 71.0377 129.757 70.212 130.759C69.4848 131.589 68.7985 132.439 68.1635 133.32C67.4995 134.222 66.8841 135.159 66.3198 136.126C65.7564 137.079 65.2341 138.062 64.7219 139.056C64.2098 140.049 63.6976 141.104 63.1855 142.046C62.8065 142.763 62.4071 143.46 61.9666 144.095C61.5262 144.73 61.096 145.365 60.6248 145.98C60.4087 146.263 60.1725 146.53 59.9181 146.779C59.8162 146.869 59.7025 146.945 59.5801 147.004L59.2113 147.168L58.5046 147.444C58.1461 147.578 57.7978 147.711 57.4803 147.854C56.8272 148.108 56.2133 148.452 55.6571 148.878C54.7868 149.559 54.1497 150.493 53.8339 151.552C53.5415 152.52 53.4509 153.538 53.5676 154.543C53.6664 155.318 53.8378 156.083 54.0797 156.827L54.1514 157.062C53.9158 158.179 53.4651 159.111 53.2808 160.309C53.0424 161.884 53.2445 163.493 53.8646 164.96C54.4085 166.264 55.3375 167.372 56.5277 168.135C57.5974 168.804 58.8134 169.205 60.0717 169.302C60.8606 169.376 61.6555 169.256 62.3874 168.952C63.1192 168.649 63.7659 168.171 64.2712 167.561C64.8047 166.836 65.0847 165.956 65.068 165.057C65.0514 164.157 64.739 163.288 64.1791 162.583C64.0369 162.393 63.8756 162.218 63.6976 162.061C63.7131 161.958 63.7442 161.858 63.7898 161.764C63.9841 161.454 64.2183 161.172 64.4863 160.924C65.3225 160.012 66.1122 159.058 66.8524 158.066C68.0406 156.489 69.157 154.85 70.3554 153.283C71.9699 151.207 73.7002 149.223 75.5383 147.342C78.4779 144.269 81.5303 141.299 84.5212 138.267C85.9142 136.864 87.2457 135.409 88.6183 134.006C89.8372 132.777 91.1277 131.599 92.4081 130.421C93.2685 129.622 94.1391 128.844 94.9995 128.055C97.8675 127.348 100.633 126.314 105.242 124.982C105.846 124.696 106.483 124.483 107.137 124.347L108.704 125.115C109.38 125.433 110.067 125.75 110.753 126.058C109.234 126.951 107.779 127.951 106.4 129.048C105.181 129.96 103.962 130.872 102.804 131.855C101.883 132.633 101.022 133.473 100.121 134.272C99.4551 134.866 98.7688 135.419 98.0723 135.962C97.5295 136.372 96.9764 136.771 96.4028 137.14C96.1736 137.297 95.9259 137.424 95.6653 137.519C95.1019 137.652 94.3747 137.693 93.7909 137.786C92.9111 137.881 92.0593 138.151 91.2854 138.581C90.5115 139.01 89.8311 139.589 89.2841 140.285C88.4108 141.623 87.7411 143.083 87.297 144.617C87.0619 145.27 86.7562 145.895 86.3853 146.482C85.9654 147.096 85.4942 147.67 85.0948 148.315C84.6005 149.125 84.2537 150.016 84.0705 150.947C83.9094 151.719 83.8338 152.505 83.8452 153.293C83.8467 154.007 83.9049 154.719 84.0193 155.424C84.1452 156.315 84.4334 157.176 84.8694 157.964C85.1624 158.471 85.5547 158.914 86.0229 159.266C86.491 159.618 87.0254 159.872 87.594 160.012C88.322 160.18 89.0834 160.126 89.7805 159.858C90.4777 159.589 91.0788 159.119 91.5067 158.507C91.9351 157.926 92.2799 157.288 92.531 156.612C92.7009 156.062 92.9642 155.546 93.3095 155.086C94.2068 153.919 95.2116 152.838 96.3106 151.859C97.0635 151.169 97.872 150.542 98.7279 149.985C99.4551 149.503 100.172 149.042 100.889 148.54C101.79 147.905 102.682 147.24 103.583 146.615C105.287 145.474 107.094 144.497 108.981 143.696C112.986 141.913 117.175 140.367 121.16 138.625C123.7 137.605 126.15 136.372 128.483 134.938L128.719 134.784C129.709 135.413 130.76 136.065 131.873 136.741ZM103.941 126.652L102.723 125.955L102.589 125.863C101.47 126.901 100.35 127.925 99.2298 128.936L94.7434 133.033L93.1661 134.498C93.6065 134.416 94.0777 134.375 94.5181 134.313C95.0098 134.006 95.4809 133.658 95.9418 133.289C96.5769 132.808 97.1915 132.265 97.7855 131.773C98.7074 130.954 99.5883 130.103 100.531 129.304C101.473 128.506 102.825 127.522 103.962 126.652H103.941Z" fill="#A92819"/>
<path d="M131.927 101.956C131.353 101.774 130.792 101.555 130.247 101.301C128.979 100.751 127.76 100.096 126.6 99.3446C124.932 98.1958 123.354 96.922 121.878 95.5343C121.079 94.807 120.301 94.0491 119.533 93.2911C119.246 94.3327 118.904 95.3584 118.508 96.3639C117.52 95.7416 116.493 95.1806 115.436 94.6841C115.894 93.5263 116.274 92.3389 116.573 91.1299C121.254 93.3833 126.406 97.3575 131.927 101.956Z" fill="white"/>
<path d="M129.581 126.498C129.827 127.152 129.877 127.864 129.724 128.546C129.583 129.108 129.309 129.628 128.926 130.062C128.846 130.163 128.761 130.259 128.669 130.349C125.156 128.126 122.309 126.252 119.922 124.613C114.883 121.325 111.052 120.516 107.631 120.772C107.037 120.475 106.709 120.301 106.299 120.055C105.734 119.697 105.187 119.311 104.66 118.898C103.954 118.345 103.032 117.556 102.612 117.167C102.192 116.777 102.141 116.767 101.588 117.29C101.034 117.812 99.9692 118.847 98.7299 120.004C97.4905 121.161 96.0872 122.472 94.6328 123.814L93.7007 124.654C92.3866 124.894 91.0517 125 89.7162 124.972C89.0197 124.91 88.3335 124.818 87.6677 124.695C86.1092 124.426 84.5772 124.022 83.0892 123.486C82.659 123.333 82.239 123.159 81.8088 122.964C82.1776 122.216 82.5566 121.438 82.9253 120.711C83.755 119.041 84.4924 117.576 85.3016 116.132C85.783 115.292 86.3259 114.463 86.7254 113.633C99.4776 117.372 101.065 105.961 112.332 108.983L112.978 109.372C114.002 110.038 115.436 110.929 117.075 112.138C118.938 113.564 120.697 115.121 122.339 116.798C124.17 118.683 125.88 120.681 127.461 122.78C128.353 123.904 129.068 125.158 129.581 126.498V126.498Z" fill="#A92819"/>
<path d="M129.282 104.68L128.872 104.496C127.417 103.877 126.022 103.126 124.703 102.253C123.388 101.366 122.133 100.394 120.944 99.344C120.135 101.157 119.223 102.929 118.332 104.691C119.295 105.326 120.237 105.992 121.17 106.739C123.296 108.368 125.305 110.144 127.182 112.055C128.585 113.499 129.989 115.046 131.279 116.644C127.182 113.899 123.659 111.308 120.627 109.095C118.607 107.57 116.327 106.425 113.897 105.715C114.225 105.049 114.594 104.394 114.921 103.81C116.161 101.393 117.431 98.9343 118.455 96.4248C122.241 98.9371 125.857 101.695 129.282 104.68V104.68Z" fill="#A92819"/>
<path d="M128.669 134.774L128.433 134.927C126.1 136.361 123.65 137.595 121.109 138.615C117.074 140.356 112.915 141.903 108.931 143.685C107.044 144.487 105.237 145.464 103.533 146.604C102.632 147.229 101.74 147.895 100.839 148.53C100.122 149.032 99.4051 149.493 98.6779 149.974C97.822 150.531 97.0135 151.158 96.2606 151.848C95.1616 152.828 94.1568 153.908 93.2594 155.075C92.9142 155.535 92.6509 156.051 92.481 156.601C92.2299 157.278 91.8851 157.915 91.4567 158.496C91.0246 159.114 90.4161 159.587 89.7107 159.854C89.0054 160.121 88.236 160.169 87.503 159.991C86.9344 159.851 86.4 159.597 85.9319 159.245C85.4637 158.893 85.0714 158.45 84.7784 157.943C84.3424 157.155 84.0542 156.294 83.9283 155.403C83.8139 154.698 83.7557 153.986 83.7542 153.272C83.7428 152.484 83.8184 151.698 83.9795 150.927C84.1627 149.996 84.5095 149.104 85.0038 148.294C85.4032 147.649 85.8744 147.075 86.2944 146.461C86.6652 145.874 86.9709 145.249 87.206 144.597C87.6501 143.062 88.3198 141.602 89.1931 140.264C89.7401 139.568 90.4205 138.989 91.1944 138.56C91.9683 138.131 92.8201 137.86 93.6999 137.765C94.2837 137.673 95.011 137.632 95.5743 137.498C95.8349 137.403 96.0826 137.276 96.3118 137.119C96.8854 136.751 97.4385 136.351 97.9814 135.941C98.6984 135.399 99.3846 134.846 100.03 134.251C100.931 133.453 101.792 132.613 102.714 131.834C103.871 130.81 105.09 129.939 106.309 129.028C107.688 127.93 109.143 126.931 110.662 126.037C109.965 125.729 109.279 125.412 108.613 125.094L107.046 124.326C111.276 123.404 115.138 125.945 117.391 127.471C115.981 127.655 114.603 128.03 113.294 128.587C111.566 129.473 109.935 130.537 108.429 131.762C107.015 132.838 105.95 133.647 104.987 134.446C104.025 135.245 103.174 136.095 102.375 136.822C101.577 137.55 100.788 138.154 100.091 138.687C99.3949 139.219 98.7496 139.711 98.1657 140.028C97.6429 140.384 97.0649 140.65 96.4552 140.817C95.8201 140.991 95.0827 141.032 94.2735 141.165C93.8274 141.197 93.3922 141.318 92.9943 141.522C92.5965 141.726 92.2441 142.009 91.9586 142.353C91.3125 143.434 90.8098 144.595 90.4632 145.805C90.1376 146.703 89.7079 147.559 89.1828 148.356C88.7526 149.021 88.2917 149.564 87.9639 150.087C87.6645 150.568 87.4529 151.099 87.3391 151.654C87.2322 152.183 87.1807 152.722 87.1855 153.262C87.1938 153.79 87.2383 154.317 87.3186 154.839C87.3812 155.303 87.5197 155.753 87.7284 156.171C87.7868 156.281 87.8683 156.378 87.9673 156.454C88.0662 156.53 88.1804 156.583 88.302 156.611C88.4658 156.611 88.5375 156.611 88.6809 156.447C88.9108 156.131 89.1065 155.791 89.2648 155.433C89.5322 154.582 89.9483 153.784 90.4939 153.078C91.5394 151.713 92.7049 150.445 93.9764 149.288C94.8627 148.474 95.8113 147.731 96.8137 147.065C97.5716 146.573 98.176 146.194 98.8622 145.693C99.5485 145.191 100.44 144.535 101.587 143.746C103.447 142.461 105.439 141.376 107.528 140.51C110.887 139.014 116.162 136.966 119.747 135.388C121.688 134.59 123.582 133.683 125.422 132.674C126.436 133.381 127.521 134.067 128.669 134.774Z" fill="white"/>
<path d="M128.545 191.017H126.046V200H128.545V191.017Z" fill="#A92819"/>
<path d="M128.545 189.768H126.046V191.017H128.545V189.768Z" fill="#A92819"/>
<path d="M119.92 124.593C122.307 126.191 125.154 128.106 128.668 130.329C128.041 130.987 127.332 131.562 126.558 132.039L125.421 132.736C122.43 130.82 119.941 129.151 117.821 127.727C117.708 127.655 117.606 127.573 117.483 127.502L117.862 127.43C118.625 127.351 119.371 127.154 120.074 126.846C120.392 126.631 120.299 126.416 119.787 126.099C118.945 125.655 118.076 125.265 117.186 124.931C116.049 124.49 114.748 124.019 113.539 123.517C112.331 123.015 111.204 122.493 110.18 122.022C109.155 121.551 108.285 121.09 107.68 120.772C111.05 120.475 114.881 121.305 119.92 124.593Z" fill="#A92819"/>
<path d="M124.705 114.371C126.47 116.157 128.126 118.049 129.662 120.035C125.002 116.901 120.495 113.613 115.927 110.304C114.756 109.76 113.544 109.311 112.301 108.963C111.584 108.522 111.072 108.225 110.703 107.989C110.334 107.754 109.996 107.498 109.904 107.18C109.83 106.684 109.908 106.176 110.13 105.726C110.201 105.531 110.304 105.306 110.427 105.04C111.606 105.135 112.772 105.348 113.909 105.675C113.909 105.736 113.848 105.798 113.807 105.859L114.749 106.433C116.244 107.354 117.678 108.327 119.082 109.382C121.072 110.91 122.951 112.577 124.705 114.371Z" fill="white"/>
<path d="M117.822 127.778C119.942 129.202 122.431 130.851 125.422 132.787C123.582 133.797 121.688 134.703 119.747 135.502C116.162 137.048 110.887 139.097 107.528 140.623C105.439 141.489 103.448 142.574 101.587 143.86C100.44 144.648 99.5385 145.294 98.8624 145.806C98.1864 146.318 97.5309 146.687 96.8139 147.178C95.8155 147.808 94.8669 148.513 93.9767 149.288C92.7225 150.424 91.5709 151.668 90.5351 153.006C89.9895 153.713 89.5734 154.511 89.306 155.362C89.1686 155.742 88.99 156.107 88.7733 156.448C88.6299 156.632 88.5582 156.653 88.3944 156.612C88.2728 156.584 88.1586 156.53 88.0597 156.454C87.9607 156.378 87.8792 156.282 87.8208 156.171C87.6121 155.753 87.4736 155.303 87.411 154.84C87.3307 154.318 87.2862 153.791 87.2779 153.262C87.2731 152.723 87.3246 152.184 87.4315 151.654C87.5453 151.099 87.7569 150.568 88.0563 150.087C88.3841 149.565 88.845 149.063 89.2752 148.356C89.8003 147.559 90.23 146.703 90.5556 145.806C90.9022 144.595 91.4049 143.435 92.051 142.354C92.3365 142.01 92.6889 141.727 93.0867 141.523C93.4846 141.319 93.9198 141.197 94.3659 141.166C95.1751 141.033 95.9125 140.992 96.5476 140.817C97.1573 140.651 97.7353 140.384 98.2581 140.029C98.842 139.67 99.477 139.22 100.184 138.687C100.891 138.154 101.648 137.54 102.468 136.823C103.287 136.106 104.117 135.276 105.08 134.447C106.043 133.617 107.128 132.838 108.521 131.763C110.028 130.538 111.659 129.473 113.387 128.588C114.695 128.031 116.074 127.655 117.484 127.471C117.607 127.574 117.709 127.656 117.822 127.778Z" fill="#A92819"/>
<path d="M123.369 28.7442L117.176 35.6274L119.033 37.2991L125.227 30.4158L123.369 28.7442Z" fill="#2A3277"/>
<path d="M121.784 191.017H119.285V200H121.784V191.017Z" fill="#A92819"/>
<path d="M121.784 189.768H119.285V191.017H121.784V189.768Z" fill="#A92819"/>
<path d="M119.788 126.099C120.3 126.416 120.392 126.631 120.074 126.846C119.372 127.154 118.625 127.351 117.862 127.43L117.483 127.502C115.23 125.976 111.337 123.405 107.138 124.357L106.114 123.835C105.581 123.559 105.089 123.272 104.546 122.954C103.966 122.603 103.405 122.22 102.867 121.807C104.419 121.269 106.033 120.925 107.67 120.783C107.67 120.783 107.67 120.783 107.67 120.783C108.275 121.1 109.166 121.551 110.17 122.032C111.173 122.514 112.31 123.057 113.529 123.528C114.748 123.999 116.039 124.552 117.176 124.941C118.07 125.272 118.942 125.658 119.788 126.099V126.099Z" fill="white"/>
<path d="M118.467 96.3331C117.443 98.8426 116.173 101.301 114.933 103.718C114.636 104.302 114.268 104.957 113.909 105.623C112.772 105.297 111.606 105.084 110.427 104.988C110.703 104.353 111.144 103.503 111.84 102.141C112.864 100.225 114.329 97.2959 115.261 95.0322L115.425 94.6021C116.474 95.1162 117.49 95.6943 118.467 96.3331V96.3331Z" fill="white"/>
<path d="M115.22 90.4846C115.671 90.6689 116.121 90.884 116.572 91.0991C116.29 92.3069 115.928 93.4943 115.486 94.6534C114.974 94.4178 114.462 94.2027 113.981 94.0286C108.931 91.2118 104.762 92.1337 100.757 93.8135C100.773 93.5337 100.773 93.2533 100.757 92.9736C100.736 92.1274 100.644 91.2845 100.481 90.4538C103.554 89.1325 106.719 88.18 109.699 88.7638C111.615 89.0609 113.475 89.6408 115.22 90.4846V90.4846Z" fill="#A92819"/>
<path d="M113.835 28.7396L107.638 35.6196L109.495 37.2923L115.692 30.4122L113.835 28.7396Z" fill="#2A3277"/>
<path d="M115.486 94.6534L115.322 95.0836C114.39 97.3473 112.894 100.277 111.901 102.192C111.204 103.554 110.764 104.405 110.487 105.04C106.513 104.712 101.658 105.685 96.3523 109.71C94.3037 111.339 91.2309 111.073 88.1581 110.13C88.4141 109.27 88.5883 108.45 88.7931 107.692C89.0728 106.577 89.5182 105.51 90.1145 104.527C90.5944 103.773 91.2089 103.113 91.9274 102.581C92.6054 102.107 93.3336 101.708 94.0989 101.393C94.9081 101.024 95.8606 100.656 96.7825 100.185C97.6855 99.7408 98.5147 99.1603 99.2407 98.4637C99.8448 97.8423 100.248 97.0536 100.398 96.2001C100.56 95.4144 100.649 94.6155 100.664 93.8135C104.628 92.1337 108.859 91.2119 113.888 94.0286C114.461 94.2027 114.922 94.4178 115.486 94.6534Z" fill="#A92819"/>
<path d="M115.035 191.017H112.536V200H115.035V191.017Z" fill="#A92819"/>
<path d="M115.035 189.768H112.536V191.017H115.035V189.768Z" fill="#A92819"/>
<path d="M110.713 107.989C111.081 108.225 111.594 108.522 112.311 108.962C101.044 105.941 99.456 117.351 86.7037 113.612C87.0282 113.024 87.3222 112.419 87.5846 111.8C87.8009 111.255 87.9823 110.697 88.1275 110.13C91.2003 111.072 94.2731 111.339 96.3217 109.71C101.627 105.685 106.482 104.712 110.457 105.039C110.334 105.306 110.231 105.531 110.16 105.726C109.938 106.176 109.86 106.684 109.934 107.18C110.006 107.498 110.242 107.692 110.713 107.989Z" fill="#A92819"/>
<path d="M108.275 191.017H105.775V200H108.275V191.017Z" fill="#A92819"/>
<path d="M108.275 189.768H105.775V191.017H108.275V189.768Z" fill="#A92819"/>
<path d="M106.104 123.835L107.129 124.358C106.474 124.493 105.838 124.706 105.234 124.993C100.676 126.314 97.9102 127.348 94.991 128.065L96.8859 126.345C98.2789 125.075 99.6719 123.804 101.044 122.504L101.219 122.35C101.751 122.166 102.243 121.981 102.796 121.817C103.335 122.23 103.895 122.613 104.476 122.965C105.049 123.272 105.572 123.559 106.104 123.835Z" fill="#A92819"/>
<path d="M106.329 120.035C106.739 120.281 107.067 120.455 107.661 120.752C106.024 120.894 104.41 121.238 102.857 121.776L102.57 121.551C102.473 121.486 102.381 121.414 102.294 121.336C101.966 121.664 101.618 121.991 101.27 122.36C98.8165 123.349 96.2798 124.117 93.6899 124.654L94.622 123.815C96.097 122.473 97.5002 121.172 98.7191 120.004C99.938 118.837 101.034 117.802 101.577 117.29C102.12 116.778 102.109 116.768 102.601 117.167C103.093 117.566 103.974 118.345 104.65 118.898C105.19 119.305 105.751 119.685 106.329 120.035Z" fill="white"/>
<path d="M102.571 121.633L102.857 121.858C102.335 122.022 101.833 122.206 101.28 122.39C101.618 122.073 101.966 121.745 102.304 121.366C102.386 121.461 102.475 121.55 102.571 121.633V121.633Z" fill="#A92819"/>
<path d="M101.526 191.017H99.0265V200H101.526V191.017Z" fill="#A92819"/>
<path d="M101.526 189.768H99.0265V191.017H101.526V189.768Z" fill="#A92819"/>
<path d="M101.278 122.339L101.104 122.493C99.7314 123.794 98.3384 125.064 96.9454 126.334L95.0504 128.055C93.5842 128.406 92.0955 128.656 90.5948 128.803C90.1544 128.803 89.6935 128.803 89.2428 128.7L90.1237 127.881L93.6984 124.634C96.2883 124.096 98.8249 123.328 101.278 122.339V122.339Z" fill="white"/>
<path d="M100.716 92.9528C100.731 93.2326 100.731 93.513 100.716 93.7927C99.4864 94.3151 98.2777 94.899 97.0793 95.4828C97.0793 95.4828 97.0793 95.4828 97.0793 95.4213C97.233 94.6356 97.2949 93.8348 97.2637 93.0348C97.2602 92.665 97.2363 92.2957 97.192 91.9286C98.2163 91.4267 99.343 90.9043 100.439 90.4434C100.601 91.2706 100.694 92.1101 100.716 92.9528Z" fill="white"/>
<path d="M100.704 93.8135C100.689 94.6155 100.6 95.4144 100.438 96.2C100.288 97.0536 99.8846 97.8422 99.2806 98.4637C98.5545 99.1603 97.7253 99.7407 96.8223 100.184C95.9005 100.656 94.9479 101.024 94.1387 101.393C93.3593 101.705 92.6172 102.104 91.9263 102.581C91.182 103.107 90.5428 103.767 90.0416 104.527C89.4453 105.51 88.9999 106.577 88.7203 107.692C88.5154 108.45 88.3413 109.27 88.0852 110.13C86.9881 109.784 85.911 109.377 84.8588 108.911C85.0534 108.205 85.2173 107.477 85.4119 106.781C85.7832 105.335 86.3702 103.954 87.1531 102.684C87.8936 101.565 88.8347 100.592 89.9289 99.8157C90.796 99.2106 91.7226 98.6958 92.6945 98.2793C93.5344 97.9106 94.3948 97.5726 95.2039 97.1629C95.7673 96.8942 96.2911 96.5495 96.7608 96.1386C96.9079 95.9803 97.0011 95.7795 97.0272 95.565C98.2665 94.9197 99.4752 94.3359 100.704 93.8135Z" fill="white"/>
<path d="M100.285 89.7262C100.346 89.972 100.387 90.2179 100.439 90.4534C99.3426 90.9246 98.2672 91.4777 97.1917 91.9386C97.1312 91.4532 97.0457 90.9711 96.9356 90.4944C96.659 89.2858 96.2801 88.1079 96.0547 86.889C95.8724 85.7914 95.7663 84.6825 95.7372 83.5703H95.0304C93.9345 83.6727 92.859 83.8161 91.7528 83.8674C90.3905 83.9288 89.0077 83.8674 87.6557 83.8161L85.9042 83.7342C85.6627 84.5433 85.3719 85.3369 85.0335 86.1105C84.4109 87.4816 83.685 88.8033 82.8621 90.0642L81.9095 91.5597C81.0901 91.027 80.2092 90.4432 79.1747 89.7467L79.0415 89.6648L79.9531 88.241C80.6803 87.1276 81.3272 85.9638 81.889 84.7585C82.2651 83.8845 82.5767 82.9842 82.8211 82.0646C83.0157 81.3886 83.1181 80.9789 83.2205 80.7126C83.2709 80.5189 83.3822 80.3465 83.5381 80.2209C83.661 80.1595 83.8146 80.2209 84.5623 80.2209C85.3101 80.2209 86.5392 80.3848 87.84 80.4463C89.1409 80.5077 90.4827 80.5487 91.6401 80.4463C92.7975 80.3439 93.7911 80.2619 94.7129 80.1697C95.55 80.0855 96.3914 80.0513 97.2326 80.0673C97.6528 80.0503 98.0708 80.1346 98.4515 80.3131C98.6027 80.3901 98.7323 80.5034 98.8288 80.6428C98.9254 80.7823 98.9858 80.9435 99.0046 81.1121C99.1111 81.7896 99.1625 82.4747 99.1583 83.1606C99.1731 84.1904 99.2655 85.2176 99.4348 86.2334C99.6499 87.3806 100.029 88.5995 100.285 89.7262Z" fill="white"/>
<path d="M97.9086 36.9456L95.7474 38.2055C95.5835 37.9392 78.898 10.2325 42.2085 2.43778L42.7616 0C80.5266 8.03032 97.7345 36.6178 97.9086 36.9456Z" fill="#4C8BCA"/>
<path d="M97.274 93.0554C97.2917 93.857 97.2161 94.6579 97.0487 95.442C97.0487 95.442 97.0487 95.442 97.0487 95.5035C93.689 97.1218 90.3909 98.5763 86.8059 97.972C87.1746 97.6544 87.5741 97.3369 87.9838 97.0399C89.0439 96.299 90.1764 95.6676 91.3639 95.1552C92.1321 94.8172 92.9311 94.5099 93.6788 94.1309L93.8427 94.0387C93.8427 93.8544 93.8427 93.6495 93.8427 93.4651C94.9387 93.0145 96.0551 92.4409 97.2023 91.9492C97.2465 92.3164 97.2705 92.6857 97.274 93.0554V93.0554Z" fill="#A92819"/>
<path d="M96.9359 90.4949C97.0457 90.9682 97.1312 91.4469 97.192 91.9289C96.0448 92.4615 94.9283 92.9532 93.8324 93.4448V93.1888C93.814 92.5566 93.7281 91.9283 93.5763 91.3144C93.2895 90.0443 92.9105 88.8356 92.6749 87.545C92.6749 87.4836 92.6749 87.4119 92.6749 87.3402C92.4394 87.3402 92.1935 87.3402 91.9477 87.3402C90.7288 87.3402 89.5099 87.3402 88.291 87.3402C88.2743 87.4026 88.2466 87.4616 88.2091 87.5143C87.5102 89.0438 86.6988 90.5194 85.7816 91.9289C85.4743 92.4206 85.1568 92.902 84.829 93.3834C83.8047 92.7688 82.9238 92.185 81.92 91.5397L82.8726 90.0443C83.6956 88.7833 84.4215 87.4616 85.0441 86.0906C85.3782 85.3234 85.6656 84.5367 85.9045 83.7347L87.6355 83.8474C89.008 83.9191 90.3908 83.9601 91.7326 83.8986C92.8388 83.8474 93.9143 83.704 95.0103 83.6016H95.717C95.7442 84.7033 95.8468 85.8018 96.0243 86.8895C96.2804 88.1084 96.6594 89.2863 96.9359 90.4949Z" fill="#A92819"/>
<path d="M97.0485 95.5035C97.0225 95.718 96.9292 95.9188 96.7822 96.0771C96.3124 96.488 95.7886 96.8326 95.2253 97.1014C94.4161 97.5111 93.5557 97.8491 92.7158 98.2178C91.744 98.6343 90.8173 99.1491 89.9503 99.7542C88.8561 100.531 87.915 101.503 87.1745 102.622C86.3915 103.893 85.8045 105.274 85.4332 106.719C85.2386 107.416 85.0747 108.143 84.8801 108.85C83.1171 108.043 81.4066 107.126 79.7587 106.105C80.1722 105.559 80.5162 104.964 80.783 104.333C81.1506 103.398 81.3584 102.407 81.3976 101.403C81.4354 100.34 81.2065 99.2832 80.7318 98.3305C80.3831 97.687 79.9714 97.0796 79.5027 96.5175C79.431 96.4151 79.3695 96.3229 79.2876 96.2205C79.2056 96.118 79.3593 96.0668 79.39 95.9951C79.5823 95.5406 79.7977 95.0962 80.0353 94.6636C81.3771 95.4523 82.7599 96.2205 83.7841 96.8146C84.3298 97.869 84.677 99.0147 84.8084 100.195C85.4096 99.3669 86.0962 98.6047 86.857 97.9208C90.4112 98.5968 93.7094 97.1218 97.0485 95.5035Z" fill="#A92819"/>
<path d="M94.7739 191.017H92.2747V200H94.7739V191.017Z" fill="#A92819"/>
<path d="M94.7739 189.768H92.2747V191.017H94.7739V189.768Z" fill="#A92819"/>
<path d="M95.0521 128.055C94.1918 128.844 93.3211 129.622 92.4607 130.421C91.1804 131.599 89.8898 132.777 88.6709 134.006C87.2779 135.409 85.9463 136.864 84.5738 138.267C81.5829 141.34 78.5306 144.269 75.5909 147.342C73.7564 149.223 72.0294 151.207 70.4183 153.283C69.2199 154.85 68.1035 156.489 66.9153 158.066C66.1751 159.058 65.3854 160.012 64.5492 160.924C64.2812 161.172 64.047 161.454 63.8527 161.764C63.807 161.858 63.776 161.958 63.7605 162.061C63.9385 162.218 64.0998 162.393 64.2419 162.583C64.8018 163.288 65.1142 164.157 65.1309 165.057C65.1476 165.956 64.8676 166.837 64.3341 167.561C63.8225 168.164 63.1718 168.632 62.4383 168.927C61.7048 169.221 60.9106 169.333 60.1244 169.251C58.8661 169.154 57.6501 168.753 56.5804 168.084C55.3902 167.321 54.4611 166.213 53.9172 164.908C53.2971 163.442 53.095 161.832 53.3334 160.258C53.5178 159.06 53.9685 158.128 54.204 157.011L54.1323 156.776C53.8905 156.032 53.719 155.267 53.6202 154.491C53.5035 153.487 53.5942 152.469 53.8865 151.501C54.2023 150.442 54.8395 149.508 55.7097 148.827C56.266 148.401 56.8798 148.056 57.5329 147.803C57.8709 147.66 58.2192 147.526 58.5572 147.393L59.264 147.117L59.6327 146.953C59.7551 146.893 59.8688 146.818 59.9707 146.727C60.2251 146.478 60.4613 146.211 60.6775 145.929C61.1486 145.314 61.6096 144.689 62.0193 144.044C62.429 143.399 62.8592 142.671 63.2382 141.995C63.7605 140.971 64.2624 139.998 64.7746 139.004C65.2867 138.011 65.7988 137.028 66.3724 136.075C66.9367 135.107 67.5521 134.171 68.2161 133.269C68.8614 132.388 69.5477 131.537 70.2647 130.708C71.0903 129.706 72.0442 128.818 73.1019 128.065C74.0238 127.42 75.2324 126.805 76.0621 126.088C76.4778 125.683 76.8239 125.213 77.0864 124.695C78.0585 125.295 79.0639 125.838 80.0977 126.324C79.6662 127.217 79.0683 128.02 78.336 128.69C77.2805 129.465 76.1865 130.186 75.0583 130.851C74.2352 131.439 73.4886 132.127 72.8356 132.9C72.2108 133.637 71.5553 134.446 70.9509 135.256C70.3466 136.065 69.814 136.905 69.3019 137.765C68.7897 138.625 68.2776 139.527 67.8064 140.531C67.3352 141.534 66.7821 142.651 66.2495 143.552C65.7169 144.454 65.3584 145.171 64.8668 145.918C64.3751 146.666 63.8425 147.444 63.3611 148.028C63.0272 148.503 62.6463 148.942 62.2241 149.339C61.928 149.597 61.6012 149.817 61.2511 149.995C61.0151 150.121 60.7723 150.234 60.5238 150.333L59.7659 150.609L58.8338 150.988C58.4702 151.124 58.1259 151.307 57.8095 151.531C57.4811 151.79 57.2472 152.15 57.1437 152.556C57.0028 153.076 56.9577 153.617 57.0106 154.153C57.0952 154.717 57.2289 155.272 57.41 155.813C57.6384 156.428 57.6881 157.096 57.5534 157.738C57.3793 158.578 56.8774 159.736 56.7135 160.811C56.577 161.75 56.6937 162.708 57.0515 163.587C57.325 164.258 57.8013 164.828 58.4138 165.216C58.987 165.582 59.6409 165.804 60.319 165.861C60.5447 165.895 60.7752 165.88 60.9945 165.816C61.2138 165.752 61.4167 165.642 61.5891 165.492C61.6601 165.372 61.6905 165.233 61.6758 165.094C61.661 164.956 61.6018 164.826 61.5071 164.724C61.3168 164.547 61.1149 164.383 60.9028 164.232C60.7131 164.072 60.558 163.876 60.447 163.654C60.3361 163.432 60.2716 163.189 60.2575 162.942C60.2031 162.103 60.3397 161.262 60.657 160.483C60.9796 159.787 61.4355 159.161 61.9988 158.64C62.7614 157.818 63.4762 156.953 64.1395 156.048C65.0921 154.778 66.3417 152.976 67.6733 151.234C69.3606 149.049 71.1804 146.969 73.1224 145.007C75.8163 142.19 79.7904 138.277 82.136 135.891C84.4816 133.504 85.2089 132.695 86.2331 131.63C87.0628 130.79 88.128 129.786 89.2547 128.741C89.7054 128.741 90.1663 128.823 90.6068 128.844C92.1049 128.683 93.5902 128.42 95.0521 128.055Z" fill="white"/>
<path d="M93.8327 93.455C93.8327 93.6394 93.8327 93.8443 93.8327 94.0286L93.6688 94.1208C92.9211 94.51 92.1221 94.8173 91.3539 95.1451C90.1621 95.6634 89.0261 96.3017 87.9636 97.0503C87.5539 97.3473 87.1544 97.6648 86.7857 97.9823C86.0297 97.8609 85.2906 97.6512 84.5835 97.3575L83.7333 96.8454C83.5793 96.5457 83.4083 96.255 83.2212 95.9748C83.2826 95.8723 83.3441 95.7597 83.4056 95.6675C83.8665 94.9095 84.3479 94.1618 84.8293 93.4243L85.3005 93.7214C87.5436 95.5446 90.5243 94.8481 93.8327 93.455Z" fill="#A92819"/>
<path d="M93.7005 124.634L90.1258 127.881L89.2449 128.7C88.4972 128.629 87.7597 128.536 87.012 128.403C85.2309 128.088 83.4799 127.622 81.7779 127.01C81.1927 126.8 80.6184 126.561 80.0571 126.293C80.1903 126.068 80.3132 125.832 80.4464 125.576C80.8458 124.808 81.3067 123.886 81.7881 122.944C82.2183 123.138 82.6383 123.313 83.0685 123.466C84.5556 124.012 86.0876 124.427 87.647 124.706C88.3333 124.829 89.0195 124.921 89.6956 124.982C91.0389 125.002 92.3808 124.885 93.7005 124.634V124.634Z" fill="#A92819"/>
<path d="M88.0161 191.017H85.5168V200H88.0161V191.017Z" fill="#A92819"/>
<path d="M88.0161 189.768H85.5168V191.017H88.0161V189.768Z" fill="#A92819"/>
<path d="M87.0104 128.403C87.7581 128.536 88.4956 128.628 89.2433 128.7C88.1166 129.724 87.0514 130.749 86.2217 131.588C85.1974 132.613 84.4497 133.473 82.1246 135.849C79.7995 138.226 75.8048 142.149 73.111 144.965C71.1689 146.928 69.3491 149.008 67.6618 151.193C66.3303 152.934 65.0806 154.737 64.1281 156.007C63.4648 156.911 62.75 157.777 61.9873 158.599C61.424 159.12 60.9682 159.746 60.6455 160.442C60.3283 161.221 60.1917 162.061 60.2461 162.901C60.2602 163.148 60.3246 163.39 60.4356 163.612C60.5466 163.834 60.7016 164.031 60.8914 164.191C61.1035 164.341 61.3054 164.506 61.4957 164.683C61.5904 164.785 61.6495 164.915 61.6643 165.053C61.6791 165.192 61.6487 165.331 61.5776 165.451C61.4052 165.601 61.2024 165.711 60.9831 165.775C60.7638 165.839 60.5333 165.854 60.3075 165.82C59.6295 165.763 58.9756 165.541 58.4024 165.174C57.7898 164.787 57.3136 164.217 57.0401 163.546C56.6822 162.667 56.5655 161.709 56.7021 160.77C56.866 159.746 57.3679 158.547 57.542 157.697C57.6766 157.055 57.6269 156.387 57.3986 155.772C57.2174 155.231 57.0838 154.676 56.9991 154.112C56.9463 153.576 56.9914 153.035 57.1323 152.514C57.2357 152.109 57.4697 151.749 57.798 151.49C58.1144 151.265 58.4588 151.083 58.8223 150.947L59.7544 150.568L60.5124 150.292C60.7609 150.193 61.0037 150.08 61.2396 149.954C61.5897 149.776 61.9166 149.556 62.2127 149.298C62.6445 148.909 63.0357 148.476 63.3803 148.008C63.831 147.424 64.4046 146.645 64.886 145.898C65.3674 145.15 65.7771 144.443 66.2688 143.532C66.7605 142.62 67.2931 141.483 67.8257 140.51C68.3583 139.537 68.85 138.605 69.3211 137.744C69.7923 136.884 70.3454 136.054 70.9702 135.235C71.595 134.415 72.2301 133.617 72.8549 132.879C73.5078 132.107 74.2545 131.418 75.0776 130.831C76.1923 130.158 77.2725 129.43 78.3143 128.649C79.0466 127.979 79.6445 127.176 80.076 126.283C80.6373 126.55 81.2116 126.79 81.7968 127C83.4918 127.614 85.2359 128.084 87.0104 128.403V128.403Z" fill="#A92819"/>
<path d="M88.1275 110.131C87.9823 110.698 87.8009 111.256 87.5846 111.8C87.3222 112.419 87.0282 113.024 86.7037 113.613C85.5939 113.282 84.506 112.882 83.4465 112.415C83.8015 111.801 84.1163 111.164 84.3889 110.509C84.5917 109.988 84.7628 109.454 84.901 108.912C85.9532 109.377 87.0303 109.784 88.1275 110.131V110.131Z" fill="white"/>
<path d="M86.7033 113.612C86.2629 114.442 85.761 115.272 85.2796 116.112C84.4704 117.556 83.7329 119.021 82.9033 120.69C82.5345 121.417 82.1556 122.196 81.7868 122.944C80.7282 122.46 79.7018 121.91 78.714 121.294L79.7383 119.144C80.527 117.556 81.3259 115.968 82.1965 114.422C82.5653 113.776 82.975 113.1 83.354 112.373C84.4425 112.858 85.5613 113.272 86.7033 113.612V113.612Z" fill="white"/>
<path d="M84.5837 53.9485L82.4532 55.2186C82.3303 55.0548 70.9199 36.3003 48.3654 28.7718L49.154 26.416C63.6892 31.4127 76.1521 41.0976 84.5837 53.9485V53.9485Z" fill="#4C8BCA"/>
<path d="M84.8998 108.912C84.7616 109.454 84.5906 109.988 84.3877 110.509C84.1152 111.164 83.8004 111.801 83.4454 112.415C82.4805 111.818 81.4818 111.277 80.4545 110.796L80.772 110.212C80.5935 110.377 80.4054 110.531 80.2087 110.673C78.9808 110.074 77.7965 109.39 76.6647 108.625C76.9359 108.541 77.1997 108.435 77.4534 108.307C78.1951 107.869 78.8482 107.296 79.379 106.617L79.758 106.136C81.4117 107.169 83.1291 108.096 84.8998 108.912Z" fill="#A92819"/>
<path d="M84.8177 93.4238C84.3363 94.1612 83.8549 94.909 83.394 95.6669C83.3325 95.7591 83.2711 95.8718 83.2096 95.9742C83.3968 96.2544 83.5677 96.5451 83.7217 96.8449C82.6975 96.2508 81.3147 95.4826 79.9729 94.6939C80.1265 94.4071 80.2802 94.1203 80.4543 93.8437C80.9152 93.0755 81.4171 92.3278 81.9088 91.5801C82.9126 92.2254 83.8242 92.8092 84.8177 93.4238Z" fill="#A92819"/>
<path d="M83.4352 112.414C83.0562 113.101 82.6465 113.777 82.2778 114.463C81.4071 116.009 80.6082 117.597 79.8195 119.185L78.7952 121.336C77.8631 120.762 76.9106 120.117 75.9375 119.41L76.7774 117.72C77.6071 116.071 78.4265 114.432 79.3278 112.834C79.6863 112.199 80.1063 111.523 80.4853 110.786C81.4989 111.272 82.4838 111.815 83.4352 112.414V112.414Z" fill="#A92819"/>
<path d="M80.6608 98.3612C81.1355 99.3139 81.3644 100.37 81.3266 101.434C81.2874 102.438 81.0796 103.428 80.712 104.363C80.4452 104.994 80.1012 105.589 79.6877 106.135C79.1141 105.777 78.7351 105.521 78.6634 105.429L78.5713 105.357L76.9222 104.22C77.1644 103.903 77.3706 103.559 77.5367 103.196C77.7506 102.639 77.8683 102.05 77.885 101.455C77.9323 100.921 77.8294 100.386 77.588 99.9079C77.3276 99.4567 77.0295 99.0284 76.6968 98.6275C76.4185 98.2757 76.1685 97.9024 75.9491 97.5111C75.7321 97.161 75.6218 96.7552 75.6316 96.3434C75.7203 95.7637 75.8964 95.2007 76.154 94.6738C76.4154 94.061 76.7094 93.4627 77.0348 92.8813V92.8813C77.844 93.4345 78.8888 94.049 79.9335 94.6738C79.7092 95.1139 79.5075 95.5652 79.3292 96.0259C79.3292 96.0976 79.2575 96.1693 79.2268 96.2512C79.1961 96.3332 79.3702 96.4458 79.4419 96.5483C79.9071 97.1108 80.3154 97.7181 80.6608 98.3612V98.3612Z" fill="white"/>
<path d="M81.2642 191.017H78.765V200H81.2642V191.017Z" fill="#A92819"/>
<path d="M81.2642 189.768H78.765V191.017H81.2642V189.768Z" fill="#A92819"/>
<path d="M81.9109 91.5805C81.4192 92.3282 80.8866 93.0759 80.4564 93.8441C80.2823 94.1207 80.1286 94.4075 79.975 94.6943C78.9507 94.0695 77.9264 93.4549 77.0763 92.9018C77.2094 92.6457 77.3733 92.3692 77.5475 92.0824C77.9777 91.3756 78.5717 90.546 79.0736 89.7061L79.2068 89.788C80.2106 90.464 81.0915 91.0479 81.9109 91.5805Z" fill="white"/>
<path d="M80.7617 110.212L80.4442 110.796L80.1984 110.673C80.3951 110.53 80.5832 110.377 80.7617 110.212V110.212Z" fill="#070006"/>
<path d="M81.7887 122.944C81.3072 123.886 80.8463 124.808 80.4469 125.576C80.3137 125.832 80.1908 126.068 80.0576 126.293C79.0248 125.821 78.0194 125.291 77.0463 124.705C77.1692 124.47 77.2818 124.234 77.3945 124.029C77.8554 123.138 78.3061 122.237 78.7568 121.335C79.7324 121.935 80.7451 122.472 81.7887 122.944V122.944Z" fill="white"/>
<path d="M76.6559 108.655C77.7877 109.42 78.972 110.105 80.1999 110.704C79.2165 111.468 78.0673 111.99 76.845 112.228C75.6227 112.467 74.3615 112.415 73.1631 112.076C71.9636 111.745 70.8353 111.197 69.8342 110.458C68.9167 109.775 68.0814 108.988 67.3452 108.112C66.5026 107.168 65.7611 106.138 65.1328 105.039C64.2346 103.542 63.685 101.862 63.5247 100.123C63.5247 99.8975 63.5247 99.6824 63.5247 99.457C64.9382 100.379 66.28 101.29 67.5705 102.161C67.7304 102.568 67.9222 102.962 68.1441 103.339C68.6705 104.219 69.2811 105.046 69.9673 105.808C70.5342 106.477 71.177 107.079 71.8827 107.6C72.551 108.095 73.3044 108.463 74.1054 108.686C74.9409 108.921 75.8263 108.91 76.6559 108.655V108.655Z" fill="#A92819"/>
<path d="M79.7485 106.166L79.3695 106.648C78.8368 107.319 78.1838 107.885 77.4439 108.317C77.1902 108.445 76.9264 108.551 76.6552 108.635L76.4503 108.491L76.3376 108.409C73.7769 106.545 70.8475 104.404 67.5391 102.12C67.2189 101.376 67.025 100.583 66.9655 99.7747C66.9104 98.953 66.9795 98.1277 67.1704 97.3267C68.2902 98.0641 69.3657 98.7914 70.3968 99.5084C70.4743 100.234 70.7123 100.934 71.0934 101.557C71.5069 102.239 71.9836 102.88 72.5171 103.472C72.9181 103.945 73.3679 104.374 73.8589 104.753C74.1902 105.004 74.5653 105.191 74.9651 105.306C75.1051 105.355 75.2537 105.375 75.4017 105.364C75.5496 105.354 75.6939 105.313 75.8255 105.244C76.1683 105.034 76.4674 104.759 76.7064 104.435C76.7837 104.344 76.8556 104.248 76.9215 104.148L78.6115 105.388L78.7037 105.459C78.7959 105.552 79.1749 105.808 79.7485 106.166Z" fill="white"/>
<path d="M78.7551 121.295C78.3045 122.196 77.8538 123.098 77.3929 123.989C77.2802 124.194 77.1675 124.429 77.0446 124.665C76.1023 124.091 75.1497 123.456 74.1766 122.77C74.1766 122.657 74.2893 122.555 74.3303 122.473C74.8629 121.448 75.3546 120.424 75.8974 119.4C76.8705 120.076 77.8231 120.721 78.7551 121.295Z" fill="#A92819"/>
<path d="M77.5867 99.9082C77.8099 100.363 77.9089 100.868 77.8735 101.373C77.8569 101.969 77.7391 102.558 77.5253 103.114C77.3591 103.477 77.153 103.821 76.9107 104.138C74.9338 102.694 72.8136 101.127 70.3861 99.478C70.3572 98.7534 70.4685 98.03 70.7138 97.3475C70.9319 96.6362 71.2237 95.9497 71.5845 95.299C71.9692 94.7559 72.3116 94.184 72.6087 93.5885C73.0191 92.5885 73.3613 91.5618 73.633 90.5156C74.8621 91.3248 75.9786 92.0725 76.9926 92.7588C76.6672 93.3401 76.3732 93.9385 76.1118 94.5513C75.8542 95.0782 75.6781 95.6411 75.5894 96.2208C75.5796 96.6326 75.6899 97.0384 75.9069 97.3885C76.1263 97.7798 76.3763 98.1532 76.6546 98.505C77.0075 98.9433 77.3195 99.413 77.5867 99.9082V99.9082Z" fill="#A92819"/>
<path d="M79.0408 89.6859C78.4979 90.5258 77.9448 91.3555 77.5146 92.0622C77.3405 92.349 77.1766 92.6256 77.0435 92.8816C76.0192 92.1954 74.913 91.4476 73.6838 90.6385C73.8068 90.2902 73.9092 89.9112 74.0321 89.5118C74.2779 88.7128 74.5442 87.8115 74.831 86.8589L79.0408 89.6859Z" fill="#A92819"/>
<path d="M76.9212 104.22C76.8553 104.32 76.7835 104.416 76.7061 104.507C76.4672 104.831 76.1681 105.105 75.8253 105.316C75.6937 105.385 75.5494 105.425 75.4014 105.436C75.2534 105.446 75.1049 105.427 74.9649 105.377C74.5651 105.263 74.19 105.076 73.8587 104.824C73.3676 104.446 72.9179 104.017 72.5169 103.544C71.9833 102.952 71.5067 102.31 71.0931 101.629C70.712 101.006 70.4741 100.306 70.3966 99.5801C72.7729 101.147 74.9444 102.745 76.9212 104.22Z" fill="#A92819"/>
<path d="M76.4503 108.512L76.6551 108.655C75.813 108.906 74.916 108.906 74.0739 108.655C73.2729 108.432 72.5196 108.064 71.8513 107.569C71.1455 107.048 70.5028 106.446 69.9359 105.777C69.2496 105.015 68.639 104.188 68.1127 103.308C67.8907 102.931 67.699 102.537 67.5391 102.13C70.8475 104.415 73.7769 106.555 76.3376 108.419L76.4503 108.512Z" fill="white"/>
<path d="M66.4947 111.789C69.7929 114.585 72.9477 117.238 75.8976 119.369C75.3752 120.393 74.8733 121.417 74.3304 122.442C74.3304 122.524 74.228 122.626 74.1768 122.739C70.9708 120.465 67.601 117.617 64.0672 114.647C53.4352 105.726 41.2156 95.4418 28.6478 96.845H28.5453C26.486 97.0524 24.5301 97.849 22.9118 99.1394C21.2212 100.424 19.8243 102.055 18.8147 103.923C17.8242 105.681 17.3485 107.683 17.4422 109.7C17.535 111.429 18.1492 113.089 19.2039 114.463C20.3908 115.569 21.889 116.284 23.4957 116.511C24.2593 116.676 25.0396 116.752 25.8208 116.736C24.4477 115.512 23.4229 113.947 22.8504 112.199C22.6397 111.185 22.6397 110.14 22.8504 109.126C23.238 107.456 24.1628 105.959 25.4828 104.865C26.7933 103.754 28.3597 102.987 30.0408 102.632C31.6173 102.294 33.2476 102.294 34.8241 102.632C35.0457 102.678 35.2645 102.736 35.4797 102.806V102.806C38.1028 103.773 40.3114 105.616 41.7318 108.024C43.1522 110.432 43.6971 113.256 43.2744 116.019C43.2744 116.224 43.1617 116.45 43.09 116.716C42.6077 118.263 41.9186 119.737 41.0415 121.1C40.1995 122.434 39.1639 123.635 37.9687 124.664C33.9844 127.86 29.0015 129.55 23.8951 129.437C20.6676 129.434 17.4736 128.783 14.5025 127.522C11.4719 126.255 8.78609 124.286 6.66682 121.776C3.47953 117.86 1.82008 112.922 1.99612 107.876C2.02359 105.325 2.48424 102.797 3.35841 100.399C3.95977 98.7347 4.7285 97.1355 5.65278 95.6262V82.5974C4.87257 83.6106 4.16082 84.6748 3.52229 85.7829C3.39787 85.9974 3.23241 86.1853 3.03536 86.3359C2.83831 86.4865 2.61352 86.5969 2.37384 86.6606C2.13415 86.7243 1.88426 86.7402 1.63844 86.7073C1.39261 86.6745 1.15566 86.5935 0.941118 86.4691C0.726575 86.3447 0.53864 86.1792 0.388042 85.9822C0.237444 85.7851 0.127133 85.5604 0.0634077 85.3207C-0.000317815 85.081 -0.0162101 84.8311 0.0166384 84.5853C0.0494868 84.3395 0.130433 84.1025 0.254854 83.888C2.36231 80.1683 5.2134 76.9226 8.63039 74.3532C12.0474 71.7839 15.957 69.946 20.1156 68.954C27.7874 67.0489 37.3234 67.52 48.7953 71.6376L49.0206 71.74C57.2148 76.0625 63.6985 79.8318 68.8198 83.0071C68.4306 84.2567 68.0619 85.5063 67.6931 86.7662C66.3821 85.9365 64.9788 85.0761 63.4834 84.1645V94.9296L64.1594 95.3701C63.7312 96.6939 63.5101 98.0759 63.5039 99.4672C56.4297 94.8156 48.9974 90.733 41.2771 87.2578C38.0359 86.0752 34.6174 85.4517 31.1675 85.4141C25.6608 85.383 20.2845 87.0891 15.8034 90.2897C11.7556 93.0905 8.655 97.0556 6.91264 101.659C6.17279 103.657 5.78465 105.767 5.76546 107.897C5.61009 111.304 6.51057 114.677 8.34386 117.553C10.1772 120.43 12.8538 122.67 16.0082 123.968C18.5217 125.024 21.2199 125.571 23.9463 125.576C28.1709 125.669 32.2937 124.273 35.5924 121.633C36.4931 120.854 37.2732 119.946 37.9072 118.939C38.5885 117.867 39.116 116.705 39.4744 115.487V115.487L39.5768 115.108C39.8055 113.271 39.4202 111.41 38.4809 109.815C37.5416 108.22 36.1011 106.98 34.3837 106.289L34.0355 106.197C32.9792 105.966 31.8857 105.966 30.8295 106.197C29.7602 106.421 28.7617 106.903 27.9205 107.6C27.2273 108.157 26.7376 108.928 26.5275 109.792C26.4254 110.289 26.4254 110.801 26.5275 111.298C26.8776 112.28 27.4905 113.148 28.2995 113.807C28.9955 114.38 29.8665 114.698 30.768 114.708C31.0164 114.712 31.2615 114.765 31.4894 114.865C31.7172 114.964 31.9231 115.107 32.0954 115.286C32.2677 115.465 32.4029 115.676 32.4933 115.907C32.5837 116.139 32.6274 116.386 32.622 116.634C32.6185 116.895 32.5602 117.152 32.4507 117.388C32.3413 117.624 32.1833 117.835 31.9869 118.007V118.007C31.6627 118.301 31.3206 118.574 30.9626 118.826C30.586 119.081 30.1925 119.311 29.7847 119.512C27.5694 120.457 25.1077 120.658 22.7684 120.086C19.9517 119.502 17.3295 118.037 16.2233 116.603C14.7301 114.657 13.8494 112.311 13.6933 109.864C13.5705 107.185 14.187 104.523 15.4756 102.171C16.746 99.8147 18.5104 97.7602 20.6482 96.1485C22.8452 94.4148 25.4937 93.3483 28.279 93.0757C42.4243 91.5291 55.2892 102.356 66.4947 111.789ZM59.6833 92.6045V81.9316C58.5361 81.2658 57.3275 80.5693 56.0779 79.883V90.4945C57.3172 91.191 58.5156 91.9285 59.6833 92.6045ZM52.288 88.4153V77.773C51.1613 77.1482 49.9834 76.5234 48.785 75.8781V86.6125C49.9322 87.2066 51.1511 87.8314 52.288 88.4153ZM44.9952 84.7586V74.3315C36.6883 71.6888 29.5696 71.1357 23.6186 72.0883V82.5359C26.0899 81.9151 28.6297 81.6088 31.1777 81.6243C35.0802 81.6512 38.9495 82.344 42.6189 83.6729L42.7623 83.7343L44.9952 84.7586ZM19.8288 83.7343V72.9282C18.6644 73.2719 17.522 73.6857 16.4077 74.1676V85.4346C17.5118 84.7976 18.6543 84.2298 19.8288 83.7343V83.7343ZM12.6588 87.8314V76.1752C11.5266 76.9052 10.4515 77.7202 9.4426 78.6129V90.7404C10.4293 89.6915 11.4942 88.7191 12.6281 87.8314H12.6588Z" fill="#0F7657"/>
<path d="M74.5034 191.017H72.0042V200H74.5034V191.017Z" fill="#A92819"/>
<path d="M74.5034 189.768H72.0042V191.017H74.5034V189.768Z" fill="#A92819"/>
<path d="M74.8325 86.8582C74.5457 87.8108 74.2794 88.7122 74.0336 89.5111C73.9107 89.9106 73.8082 90.2896 73.6853 90.6378L70.6944 88.6712C70.6901 88.6201 70.6901 88.5687 70.6944 88.5176L71.7699 84.9121L74.8325 86.8582Z" fill="white"/>
<path d="M73.6845 90.6379C73.4128 91.6842 73.0706 92.7108 72.6602 93.7108C72.3631 94.3064 72.0207 94.8782 71.6359 95.4213C71.2752 96.072 70.9834 96.7586 70.7653 97.4699C70.5219 98.1284 70.4038 98.8267 70.417 99.5287C69.3791 98.8458 68.3036 98.1186 67.1906 97.347C67.2725 97.0192 67.3647 96.6812 67.4671 96.3227C67.7598 95.3712 68.1547 94.4542 68.645 93.5879C68.9216 93.1167 69.2801 92.6865 69.5054 92.1949C69.9831 91.0334 70.3868 89.8428 70.7141 88.6304L73.6845 90.6379Z" fill="white"/>
<path d="M71.8212 84.9125L70.7457 88.5179C70.7414 88.569 70.7414 88.6204 70.7457 88.6716C69.7932 88.0672 68.7996 87.4219 67.7344 86.7664C68.1031 85.5066 68.4719 84.2569 68.8611 83.0073L71.8212 84.9125Z" fill="#A92819"/>
<path d="M69.8961 63.6075L68.2982 65.5331C68.0831 65.359 46.3889 47.8234 7.53817 53.5901L7.16943 51.1216C47.1879 45.1808 68.9845 62.8495 69.8961 63.6075Z" fill="#4C8BCA"/>
<path d="M70.6948 88.6718C70.3675 89.8843 69.9638 91.0748 69.4861 92.2363C69.2608 92.7279 68.9023 93.1581 68.6257 93.6293C68.1354 94.4957 67.7405 95.4126 67.4478 96.3641C67.3454 96.6816 67.2532 97.0197 67.1713 97.3884C66.147 96.7329 65.1944 96.0671 64.1497 95.4115C64.5255 94.2002 65.0303 93.0326 65.6553 91.929C65.8807 91.5603 66.1265 91.2325 66.3518 90.9047C66.7826 89.8327 67.1452 88.7345 67.4376 87.6168C67.5195 87.3505 67.6015 87.0739 67.6834 86.8179C68.7487 87.4222 69.7422 88.0675 70.6948 88.6718Z" fill="#A92819"/>
<path d="M68.3286 191.017H65.8293V200H68.3286V191.017Z" fill="#A92819"/>
<path d="M68.3286 189.768H65.8293V191.017H68.3286V189.768Z" fill="#A92819"/>
<path d="M66.9669 99.7954C67.0264 100.604 67.2203 101.396 67.5405 102.141C66.2499 101.27 64.9081 100.359 63.4946 99.4369C63.5009 98.0456 63.722 96.6636 64.1502 95.3398C65.1744 95.9954 66.1987 96.6612 67.1718 97.3167C66.9778 98.1277 66.9087 98.9636 66.9669 99.7954Z" fill="#A92819"/>
<path d="M61.5677 191.017H59.0685V200H61.5677V191.017Z" fill="#A92819"/>
<path d="M61.5677 189.768H59.0685V191.017H61.5677V189.768Z" fill="#A92819"/>
<path d="M54.8189 191.017H52.3197V200H54.8189V191.017Z" fill="#A92819"/>
<path d="M54.8189 189.768H52.3197V191.017H54.8189V189.768Z" fill="#A92819"/>
<path d="M50.9562 125.371L53.1686 126.529C43.7863 144.576 24.4684 147.239 14.0823 147.239C11.7569 147.256 9.43307 147.112 7.12744 146.809L7.52691 144.341C7.85468 144.351 38.6649 149.042 50.9562 125.371Z" fill="#4C8BCA"/>
<path d="M48.0581 191.017H45.5588V200H48.0581V191.017Z" fill="#A92819"/>
<path d="M48.0581 189.768H45.5588V191.017H48.0581V189.768Z" fill="#A92819"/>
<path d="M39.8541 156.766L41.4007 158.722C34.7224 163.997 27.0609 165.441 20.5772 165.441C15.9551 165.456 11.3577 164.765 6.94409 163.393L7.75327 161.037C7.93764 161.057 26.518 167.295 39.8541 156.766Z" fill="#2A3277"/>
<path d="M41.3064 191.017H38.8071V200H41.3064V191.017Z" fill="#A92819"/>
<path d="M41.3064 189.768H38.8071V191.017H41.3064V189.768Z" fill="#A92819"/>
<path d="M34.0161 74.2293C34.5045 74.2374 34.9796 74.3896 35.3818 74.6669C35.784 74.9441 36.0954 75.334 36.2767 75.7876C36.458 76.2411 36.5013 76.7382 36.4011 77.2163C36.3009 77.6944 36.0616 78.1322 35.7134 78.4748C35.3652 78.8174 34.9235 79.0494 34.4438 79.1418C33.9641 79.2341 33.4678 79.1827 33.0173 78.994C32.5667 78.8052 32.182 78.4875 31.9114 78.0809C31.6408 77.6742 31.4964 77.1966 31.4963 76.7081C31.4963 76.3791 31.5617 76.0534 31.6889 75.75C31.816 75.4465 32.0022 75.1714 32.2368 74.9407C32.4713 74.71 32.7494 74.5283 33.0549 74.4061C33.3604 74.284 33.6871 74.2239 34.0161 74.2293V74.2293Z" fill="#A92819"/>
<path d="M35.2838 2.56055C36.0623 11.9634 33.942 19.0002 28.9845 23.4967C24.027 27.9933 17.4 28.8742 12.9136 28.8742C11.2468 28.8839 9.58187 28.7572 7.93567 28.4952L8.38635 26.0369C8.49902 26.0369 20.1758 28.0855 27.3047 21.6428C31.6476 17.6993 33.4504 11.4 32.7743 2.7654L35.2838 2.56055Z" fill="#2A3277"/>
<path d="M34.5576 191.017H32.0583V200H34.5576V191.017Z" fill="#A92819"/>
<path d="M34.5576 189.768H32.0583V191.017H34.5576V189.768Z" fill="#A92819"/>
<path d="M27.8087 191.017H25.3094V200H27.8087V191.017Z" fill="#A92819"/>
<path d="M27.8087 189.768H25.3094V191.017H27.8087V189.768Z" fill="#A92819"/>
<path d="M16.317 1.68999C18.1686 1.69811 19.9762 2.25511 21.5112 3.29054C23.0462 4.32597 24.2397 5.79333 24.9408 7.50707C25.6419 9.22081 25.819 11.104 25.4498 12.9184C25.0807 14.7328 24.1817 16.397 22.8668 17.7005C21.5518 19.0041 19.8798 19.8884 18.0622 20.2417C16.2446 20.595 14.3631 20.4013 12.6555 19.6853C10.948 18.9692 9.49113 17.7629 8.46917 16.2189C7.44722 14.6749 6.90607 12.8625 6.91415 11.0109C6.9277 8.52881 7.92532 6.15346 9.68811 4.40603C11.4509 2.6586 13.8349 1.68182 16.317 1.68999V1.68999ZM23.1796 11.0109C23.1817 9.6507 22.78 8.32049 22.0256 7.18868C21.2712 6.05687 20.1979 5.17436 18.9416 4.6529C17.6854 4.13144 16.3026 3.99447 14.9684 4.25934C13.6343 4.5242 12.4087 5.17899 11.4469 6.1408C10.4851 7.1026 9.8303 8.32818 9.56544 9.66234C9.30057 10.9965 9.43754 12.3793 9.959 13.6355C10.4805 14.8918 11.363 15.9651 12.4948 16.7195C13.6266 17.4739 14.9568 17.8756 16.317 17.8735C18.1363 17.8708 19.8802 17.1469 21.1666 15.8605C22.453 14.5741 23.1769 12.8302 23.1796 11.0109V11.0109Z" fill="#179E6C"/>
<path d="M21.0479 191.017H18.5487V200H21.0479V191.017Z" fill="#A92819"/>
<path d="M21.0479 189.768H18.5487V191.017H21.0479V189.768Z" fill="#A92819"/>
<path d="M16.3159 13.3056C17.5604 13.3056 18.5693 12.2968 18.5693 11.0522C18.5693 9.80771 17.5604 8.79883 16.3159 8.79883C15.0714 8.79883 14.0625 9.80771 14.0625 11.0522C14.0625 12.2968 15.0714 13.3056 16.3159 13.3056Z" fill="#2A3277"/>
<path d="M14.2871 191.017H11.7878V200H14.2871V191.017Z" fill="#A92819"/>
<path d="M14.2871 189.768H11.7878V191.017H14.2871V189.768Z" fill="#A92819"/>
</svg>
