<svg width="183" height="200" viewBox="0 0 183 200" fill="none" xmlns="http://www.w3.org/2000/svg">
<path d="M182.124 106.514H164.871V109.818H182.124V106.514Z" fill="#179E6C"/>
<path d="M182.09 90.5H164.838V93.8044H182.09V90.5Z" fill="#179E6C"/>
<path d="M182.006 98.2632H164.754V101.568H182.006V98.2632Z" fill="#A92819"/>
<path d="M181.348 180.746H43.771V184.05H181.348V180.746Z" fill="#179E6C"/>
<path d="M180.915 27.0704L181.19 30.3642C179.92 30.4595 178.691 30.5231 177.505 30.5231C169.869 30.5231 164.012 28.3307 160.083 23.9778C152.669 15.844 154.925 3.29367 155.02 2.7959L158.272 3.38899C158.272 3.50549 156.259 14.8908 162.508 21.8067C166.363 25.9901 172.538 27.7694 180.915 27.0704Z" fill="#2A3277"/>
<path d="M176.889 190.616H174.411V199.534H176.889V190.616Z" fill="#A92819"/>
<path d="M176.889 189.377H174.411V190.616H176.889V189.377Z" fill="#A92819"/>
<path d="M173.598 77.7273C175.095 77.7273 176.309 76.5134 176.309 75.016C176.309 73.5186 175.095 72.3047 173.598 72.3047C172.1 72.3047 170.886 73.5186 170.886 75.016C170.886 76.5134 172.1 77.7273 173.598 77.7273Z" fill="#2A3277"/>
<path d="M173.162 128.119C174.659 128.119 175.873 126.905 175.873 125.408C175.873 123.91 174.659 122.696 173.162 122.696C171.665 122.696 170.451 123.91 170.451 125.408C170.451 126.905 171.665 128.119 173.162 128.119Z" fill="#2A3277"/>
<path d="M172.74 13.3659C173.974 13.3659 174.974 12.3654 174.974 11.1312C174.974 9.89699 173.974 8.89648 172.74 8.89648C171.505 8.89648 170.505 9.89699 170.505 11.1312C170.505 12.3654 171.505 13.3659 172.74 13.3659Z" fill="#2A3277"/>
<path d="M170.186 190.616H167.707V199.534H170.186V190.616Z" fill="#A92819"/>
<path d="M170.186 189.377H167.707V190.616H170.186V189.377Z" fill="#A92819"/>
<path d="M166.121 75.0265C166.121 73.5477 166.559 72.102 167.381 70.8724C168.203 69.6428 169.37 68.6844 170.737 68.1185C172.103 67.5526 173.606 67.4045 175.057 67.693C176.507 67.9815 177.84 68.6936 178.885 69.7393C179.931 70.7851 180.643 72.1174 180.932 73.5678C181.22 75.0183 181.072 76.5217 180.506 77.888C179.94 79.2542 178.982 80.422 177.752 81.2436C176.523 82.0652 175.077 82.5038 173.598 82.5038C171.616 82.501 169.716 81.7123 168.314 80.3107C166.912 78.909 166.124 77.0088 166.121 75.0265ZM173.598 70.0276C172.609 70.0276 171.643 70.3208 170.821 70.8701C169.999 71.4194 169.358 72.2001 168.98 73.1135C168.601 74.027 168.502 75.0321 168.695 76.0018C168.888 76.9715 169.364 77.8622 170.063 78.5613C170.762 79.2604 171.653 79.7365 172.623 79.9294C173.593 80.1223 174.598 80.0233 175.511 79.645C176.425 79.2666 177.205 78.6259 177.755 77.8038C178.304 76.9817 178.597 76.0152 178.597 75.0265C178.594 73.7016 178.067 72.4317 177.13 71.4948C176.193 70.558 174.923 70.0304 173.598 70.0276Z" fill="#179E6C"/>
<path d="M173.162 120.472C172.174 120.472 171.207 120.766 170.385 121.315C169.563 121.864 168.922 122.645 168.544 123.558C168.166 124.472 168.067 125.477 168.259 126.447C168.452 127.416 168.928 128.307 169.628 129.006C170.327 129.705 171.217 130.181 172.187 130.374C173.157 130.567 174.162 130.468 175.075 130.09C175.989 129.711 176.769 129.071 177.319 128.249C177.868 127.427 178.161 126.46 178.161 125.471C178.161 124.146 177.635 122.874 176.697 121.937C175.76 120.999 174.488 120.472 173.162 120.472V120.472ZM180.64 125.471C180.64 126.95 180.201 128.396 179.379 129.625C178.558 130.855 177.39 131.813 176.024 132.379C174.657 132.945 173.154 133.093 171.704 132.805C170.253 132.516 168.921 131.804 167.875 130.759C166.829 129.713 166.117 128.381 165.829 126.93C165.54 125.48 165.688 123.976 166.254 122.61C166.82 121.244 167.779 120.076 169.008 119.254C170.238 118.433 171.683 117.994 173.162 117.994C175.135 118 177.025 118.782 178.425 120.172C179.824 121.561 180.62 123.446 180.64 125.418V125.471Z" fill="#179E6C"/>
<path d="M167.423 167.179C167.753 167.58 167.915 168.094 167.873 168.612C167.832 169.129 167.591 169.611 167.201 169.954C167.011 170.122 166.79 170.25 166.55 170.33C166.309 170.41 166.055 170.441 165.803 170.42C165.551 170.399 165.305 170.327 165.081 170.209C164.857 170.091 164.66 169.928 164.5 169.732L154.142 157.149L143.774 169.71C143.617 169.908 143.421 170.072 143.199 170.192C142.977 170.313 142.732 170.386 142.481 170.409C142.229 170.432 141.976 170.403 141.735 170.325C141.495 170.247 141.273 170.121 141.083 169.954C140.692 169.607 140.45 169.122 140.409 168.601C140.367 168.079 140.53 167.562 140.861 167.158L151.611 154.11L148.105 149.873C147.774 149.471 147.613 148.955 147.654 148.436C147.696 147.916 147.937 147.433 148.328 147.088C148.518 146.921 148.74 146.793 148.981 146.714C149.221 146.635 149.475 146.605 149.728 146.627C149.98 146.649 150.226 146.722 150.449 146.841C150.673 146.96 150.87 147.123 151.028 147.321L152.087 148.645V55.3278L145.076 46.9927C144.751 46.5913 144.596 46.078 144.646 45.5636C144.695 45.0492 144.945 44.5748 145.341 44.2427C145.737 43.9106 146.247 43.7475 146.762 43.7884C147.278 43.8293 147.756 44.0711 148.095 44.4615L152.087 49.2063V41.0406C152.138 40.5534 152.367 40.1022 152.731 39.7742C153.095 39.4462 153.568 39.2646 154.057 39.2646C154.547 39.2646 155.02 39.4462 155.384 39.7742C155.747 40.1022 155.977 40.5534 156.027 41.0406V49.1745L160.031 44.4085C160.365 44.0069 160.845 43.7544 161.365 43.7068C161.886 43.6591 162.404 43.8201 162.806 44.1544C163.207 44.4886 163.46 44.9688 163.507 45.4891C163.555 46.0095 163.394 46.5275 163.06 46.9292L156.027 55.2961V148.74L157.214 147.31C157.372 147.113 157.569 146.95 157.793 146.83C158.016 146.711 158.262 146.638 158.514 146.617C158.766 146.595 159.021 146.624 159.261 146.704C159.502 146.783 159.724 146.91 159.914 147.077C160.302 147.424 160.542 147.907 160.584 148.426C160.625 148.944 160.465 149.459 160.137 149.863L156.61 154.099L167.423 167.179Z" fill="#0F7657"/>
<path d="M165.928 11.1311C165.93 12.4775 166.331 13.7931 167.081 14.9116C167.83 16.0301 168.894 16.9013 170.139 17.4151C171.384 17.9289 172.752 18.0623 174.073 17.7983C175.393 17.5344 176.606 16.8849 177.557 15.9321C178.508 14.9793 179.156 13.7659 179.418 12.4451C179.68 11.1244 179.544 9.75571 179.028 8.51196C178.513 7.26821 177.64 6.20526 176.52 5.45744C175.4 4.70961 174.084 4.31048 172.738 4.31048C171.843 4.31047 170.956 4.48697 170.129 4.82987C169.302 5.17276 168.551 5.67533 167.919 6.30882C167.286 6.94231 166.785 7.69429 166.443 8.52174C166.101 9.34919 165.926 10.2359 165.928 11.1311V11.1311ZM163.449 11.1311C163.449 9.29401 163.994 7.49822 165.015 5.97077C166.035 4.44332 167.486 3.25281 169.183 2.54981C170.88 1.8468 172.748 1.66286 174.55 2.02125C176.352 2.37964 178.007 3.26426 179.306 4.56325C180.605 5.86224 181.489 7.51726 181.848 9.31901C182.206 11.1208 182.022 12.9883 181.319 14.6855C180.616 16.3827 179.425 17.8334 177.898 18.854C176.371 19.8746 174.575 20.4193 172.738 20.4193C170.275 20.4165 167.914 19.4371 166.173 17.6958C164.432 15.9545 163.452 13.5936 163.449 11.1311V11.1311Z" fill="#179E6C"/>
<path d="M164.086 190.616H161.608V199.534H164.086V190.616Z" fill="#A92819"/>
<path d="M164.086 189.377H161.608V190.616H164.086V189.377Z" fill="#A92819"/>
<path d="M157.382 190.616H154.904V199.534H157.382V190.616Z" fill="#A92819"/>
<path d="M157.382 189.377H154.904V190.616H157.382V189.377Z" fill="#A92819"/>
<path d="M150.678 190.616H148.2V199.534H150.678V190.616Z" fill="#A92819"/>
<path d="M150.678 189.377H148.2V190.616H150.678V189.377Z" fill="#A92819"/>
<path d="M141.232 35.8818L144.409 36.6444C142.206 45.8903 137.515 52.6262 130.472 56.6613C124.911 59.6593 118.666 61.1593 112.35 61.0142C107.602 61.0134 102.875 60.3758 98.2963 59.1184L99.26 55.9411C99.4295 56.0047 116.343 60.9719 128.851 53.8229C135.089 50.222 139.252 44.2169 141.232 35.8818Z" fill="#4C8BCA"/>
<path d="M143.984 190.616H141.505V199.534H143.984V190.616Z" fill="#A92819"/>
<path d="M143.984 189.377H141.505V190.616H143.984V189.377Z" fill="#A92819"/>
<path d="M138.255 90.6904H81.6466V93.9948H138.255V90.6904Z" fill="#179E6C"/>
<path d="M138.126 137.852H81.5175V141.156H138.126V137.852Z" fill="#179E6C"/>
<path d="M137.577 157.541C137.756 157.69 137.905 157.873 138.013 158.08C138.121 158.286 138.188 158.512 138.208 158.744C138.229 158.977 138.204 159.211 138.133 159.433C138.063 159.656 137.95 159.862 137.8 160.04L130.619 168.587L130.545 168.672C130.555 169.093 130.397 169.501 130.106 169.806C129.962 169.957 129.789 170.078 129.598 170.163C129.407 170.247 129.202 170.293 128.993 170.298C128.572 170.307 128.164 170.15 127.859 169.859C127.554 169.568 127.377 169.167 127.367 168.746L127.304 168.683L120.123 160.125C119.974 159.947 119.861 159.741 119.791 159.52C119.721 159.298 119.695 159.065 119.715 158.833C119.735 158.601 119.801 158.376 119.908 158.17C120.015 157.963 120.162 157.78 120.34 157.631C120.518 157.481 120.724 157.368 120.946 157.298C121.167 157.228 121.401 157.203 121.632 157.223C121.864 157.243 122.089 157.309 122.296 157.416C122.502 157.523 122.685 157.67 122.834 157.848L127.346 163.228V159.659L122.506 153.876C122.344 153.699 122.22 153.491 122.141 153.265C122.062 153.039 122.029 152.799 122.045 152.559C122.06 152.32 122.124 152.086 122.233 151.872C122.341 151.659 122.492 151.469 122.675 151.314C122.859 151.16 123.072 151.045 123.301 150.975C123.53 150.905 123.772 150.882 124.01 150.907C124.249 150.933 124.479 151.007 124.689 151.124C124.898 151.241 125.081 151.399 125.228 151.589L127.346 154.131V150.688C127.308 150.458 127.321 150.222 127.384 149.997C127.446 149.772 127.557 149.564 127.708 149.386C127.859 149.208 128.047 149.065 128.259 148.967C128.471 148.869 128.701 148.818 128.935 148.818C129.168 148.818 129.399 148.869 129.611 148.967C129.823 149.065 130.011 149.208 130.162 149.386C130.313 149.564 130.424 149.772 130.486 149.997C130.548 150.222 130.561 150.458 130.524 150.688V154.173L132.737 151.557C133.04 151.197 133.474 150.973 133.943 150.933C134.412 150.894 134.877 151.042 135.236 151.345C135.596 151.648 135.82 152.082 135.86 152.551C135.9 153.02 135.752 153.485 135.448 153.845L130.555 159.659V163.228L135.088 157.837C135.231 157.653 135.409 157.499 135.612 157.384C135.815 157.269 136.039 157.195 136.271 157.168C136.502 157.14 136.737 157.159 136.961 157.223C137.186 157.287 137.395 157.395 137.577 157.541V157.541Z" fill="#0F7657"/>
<path d="M137.841 98.2632H81.2319V101.568H137.841V98.2632Z" fill="#A92819"/>
<path d="M136.074 122.252C136.658 122.291 137.205 122.551 137.605 122.979C138.004 123.407 138.226 123.97 138.226 124.555C138.226 125.141 138.004 125.704 137.605 126.132C137.205 126.559 136.658 126.819 136.074 126.859C135.758 126.88 135.442 126.837 135.144 126.731C134.845 126.625 134.572 126.458 134.341 126.242C134.11 126.026 133.926 125.765 133.8 125.475C133.674 125.185 133.609 124.872 133.609 124.555C133.609 124.239 133.674 123.926 133.8 123.636C133.926 123.346 134.11 123.084 134.341 122.868C134.572 122.652 134.845 122.486 135.144 122.38C135.442 122.274 135.758 122.23 136.074 122.252V122.252Z" fill="#2A3277"/>
<path d="M137.757 106.492H81.1478V109.797H137.757V106.492Z" fill="#179E6C"/>
<path d="M137.195 74.9313L137.47 78.2145C134.579 78.4687 131.804 78.5852 129.135 78.5852C92.0665 78.5852 76.1801 56.1535 75.4387 55.1262L78.1076 53.2939C78.3301 53.5587 96.1758 78.5111 137.195 74.9313Z" fill="#4C8BCA"/>
<path d="M137.28 190.616H134.802V199.534H137.28V190.616Z" fill="#A92819"/>
<path d="M137.28 189.377H134.802V190.616H137.28V189.377Z" fill="#A92819"/>
<path d="M130.576 190.616H128.098V199.534H130.576V190.616Z" fill="#A92819"/>
<path d="M130.576 189.377H128.098V190.616H130.576V189.377Z" fill="#A92819"/>
<path d="M128.11 116.744C128.566 116.746 129.011 116.883 129.39 117.138C129.768 117.393 130.062 117.755 130.235 118.177C130.408 118.599 130.453 119.063 130.362 119.51C130.272 119.957 130.051 120.367 129.728 120.689C129.405 121.011 128.993 121.23 128.546 121.318C128.098 121.406 127.634 121.36 127.213 121.185C126.792 121.01 126.432 120.714 126.179 120.335C125.925 119.955 125.79 119.509 125.79 119.053C125.79 118.749 125.85 118.448 125.967 118.167C126.084 117.886 126.255 117.631 126.47 117.417C126.686 117.202 126.942 117.032 127.223 116.917C127.504 116.801 127.806 116.743 128.11 116.744V116.744Z" fill="#2A3277"/>
<path d="M128.11 127.558C128.566 127.56 129.011 127.697 129.39 127.952C129.768 128.207 130.062 128.568 130.235 128.99C130.408 129.412 130.453 129.876 130.362 130.323C130.272 130.771 130.051 131.181 129.728 131.503C129.405 131.825 128.993 132.043 128.546 132.132C128.098 132.22 127.634 132.174 127.213 131.999C126.792 131.823 126.432 131.528 126.179 131.148C125.925 130.769 125.79 130.323 125.79 129.866C125.79 129.562 125.85 129.261 125.967 128.98C126.084 128.7 126.255 128.445 126.47 128.23C126.686 128.016 126.942 127.846 127.223 127.73C127.504 127.615 127.806 127.556 128.11 127.558V127.558Z" fill="#2A3277"/>
<path d="M123.873 190.616H121.394V199.534H123.873V190.616Z" fill="#A92819"/>
<path d="M123.873 189.377H121.394V190.616H123.873V189.377Z" fill="#A92819"/>
<path d="M123.026 167.888C123.319 168.251 123.461 168.713 123.424 169.178C123.386 169.643 123.172 170.076 122.824 170.387C122.653 170.538 122.454 170.652 122.238 170.723C122.021 170.793 121.793 170.82 121.566 170.8C121.34 170.78 121.119 170.715 120.919 170.607C120.718 170.5 120.541 170.353 120.399 170.176L109.882 157.466L99.3971 170.176C99.253 170.352 99.0749 170.498 98.8734 170.605C98.6719 170.711 98.451 170.776 98.2239 170.796C97.9968 170.816 97.7681 170.79 97.5512 170.72C97.3343 170.649 97.1337 170.537 96.9612 170.387C96.6133 170.074 96.3985 169.639 96.3611 169.172C96.3237 168.706 96.4664 168.242 96.76 167.877L107.626 154.692L104.004 150.307C103.713 149.943 103.572 149.48 103.611 149.015C103.651 148.55 103.867 148.118 104.216 147.807C104.386 147.657 104.585 147.542 104.801 147.47C105.017 147.398 105.245 147.371 105.472 147.39C105.698 147.409 105.919 147.473 106.12 147.58C106.321 147.686 106.498 147.832 106.641 148.009L109.882 151.959L113.144 147.998C113.287 147.822 113.465 147.676 113.665 147.57C113.866 147.463 114.086 147.398 114.312 147.378C114.538 147.359 114.766 147.385 114.982 147.455C115.198 147.525 115.398 147.638 115.57 147.786C115.919 148.098 116.136 148.532 116.175 148.999C116.215 149.466 116.074 149.93 115.781 150.296L112.159 154.692L123.026 167.888Z" fill="#0F7657"/>
<path d="M119.846 122.252C120.304 122.25 120.752 122.384 121.133 122.637C121.514 122.89 121.812 123.25 121.988 123.672C122.164 124.095 122.211 124.56 122.122 125.009C122.033 125.457 121.813 125.87 121.49 126.193C121.166 126.517 120.754 126.737 120.305 126.826C119.856 126.915 119.391 126.868 118.969 126.692C118.546 126.516 118.186 126.218 117.933 125.837C117.68 125.456 117.546 125.008 117.548 124.55C117.548 123.941 117.79 123.356 118.221 122.925C118.652 122.494 119.237 122.252 119.846 122.252Z" fill="#2A3277"/>
<path d="M117.178 190.616H114.699V199.534H117.178V190.616Z" fill="#A92819"/>
<path d="M117.178 189.377H114.699V190.616H117.178V189.377Z" fill="#A92819"/>
<path d="M111.671 146.314C111.671 146.664 111.568 147.006 111.373 147.297C111.179 147.588 110.903 147.814 110.58 147.948C110.256 148.082 109.901 148.117 109.558 148.049C109.215 147.981 108.899 147.812 108.652 147.565C108.405 147.317 108.236 147.002 108.168 146.659C108.1 146.316 108.135 145.96 108.269 145.637C108.403 145.314 108.629 145.038 108.92 144.843C109.211 144.649 109.553 144.545 109.903 144.545C110.372 144.545 110.822 144.732 111.153 145.063C111.485 145.395 111.671 145.845 111.671 146.314Z" fill="#A92819"/>
<path d="M110.474 190.616H107.996V199.534H110.474V190.616Z" fill="#A92819"/>
<path d="M110.474 189.377H107.996V190.616H110.474V189.377Z" fill="#A92819"/>
<path d="M104.332 190.616H101.854V199.534H104.332V190.616Z" fill="#A92819"/>
<path d="M104.332 189.377H101.854V190.616H104.332V189.377Z" fill="#A92819"/>
<path d="M100.115 122.347C100.572 122.347 101.019 122.482 101.399 122.737C101.779 122.991 102.075 123.352 102.249 123.774C102.424 124.197 102.469 124.662 102.379 125.11C102.289 125.558 102.068 125.969 101.744 126.292C101.42 126.614 101.008 126.833 100.559 126.921C100.111 127.009 99.6462 126.962 99.2245 126.786C98.8028 126.609 98.4429 126.312 98.1905 125.931C97.9381 125.549 97.8044 125.102 97.8065 124.645C97.8093 124.034 98.0538 123.45 98.4865 123.019C98.9192 122.588 99.5049 122.347 100.115 122.347V122.347Z" fill="#2A3277"/>
<path d="M99.3963 157.541C99.7561 157.844 99.9815 158.276 100.023 158.745C100.065 159.213 99.9195 159.679 99.6187 160.04L92.4381 168.587L92.3639 168.672C92.3945 168.895 92.3776 169.122 92.3143 169.338C92.251 169.554 92.1428 169.755 91.9968 169.926C91.8507 170.098 91.6701 170.236 91.4668 170.333C91.2634 170.43 91.0419 170.482 90.8168 170.488C90.5917 170.493 90.3679 170.451 90.1603 170.363C89.9527 170.276 89.7658 170.146 89.6119 169.982C89.458 169.817 89.3406 169.622 89.2673 169.409C89.194 169.196 89.1665 168.97 89.1866 168.746L89.1231 168.683L81.9424 160.125C81.7718 159.949 81.6393 159.741 81.5532 159.511C81.467 159.282 81.4291 159.038 81.4417 158.793C81.4543 158.549 81.5173 158.31 81.6266 158.091C81.7359 157.872 81.8892 157.678 82.0769 157.521C82.2647 157.363 82.4828 157.247 82.7177 157.178C82.9526 157.109 83.1992 157.089 83.442 157.12C83.6849 157.151 83.9188 157.231 84.1291 157.357C84.3394 157.482 84.5216 157.649 84.6643 157.848L89.176 163.228V159.659L84.336 153.876C84.1743 153.699 84.05 153.491 83.9707 153.265C83.8914 153.039 83.8586 152.799 83.8744 152.559C83.8902 152.32 83.9542 152.086 84.0626 151.872C84.1709 151.659 84.3214 151.469 84.505 151.314C84.6886 151.16 84.9015 151.045 85.1309 150.975C85.3603 150.905 85.6015 150.882 85.8399 150.907C86.0784 150.933 86.3092 151.007 86.5185 151.124C86.7278 151.241 86.9112 151.399 87.0579 151.589L89.176 154.131V150.688C89.1383 150.458 89.1511 150.222 89.2136 149.997C89.276 149.772 89.3867 149.564 89.5378 149.386C89.6889 149.208 89.8769 149.065 90.0888 148.967C90.3006 148.869 90.5313 148.818 90.7647 148.818C90.9981 148.818 91.2288 148.869 91.4406 148.967C91.6525 149.065 91.8405 149.208 91.9916 149.386C92.1427 149.564 92.2534 149.772 92.3158 149.997C92.3783 150.222 92.3911 150.458 92.3533 150.688V154.173L94.5669 151.557C94.7171 151.38 94.9007 151.234 95.1074 151.127C95.314 151.021 95.5396 150.956 95.7712 150.937C96.0028 150.918 96.2359 150.945 96.4572 151.015C96.6785 151.086 96.8837 151.2 97.061 151.35C97.2384 151.501 97.3844 151.684 97.4907 151.891C97.5971 152.098 97.6617 152.323 97.6809 152.555C97.7 152.786 97.6734 153.019 97.6025 153.241C97.5316 153.462 97.4178 153.667 97.2676 153.845L92.3639 159.659V163.228L96.8863 157.837C97.031 157.652 97.2109 157.498 97.4157 157.382C97.6205 157.267 97.8461 157.194 98.0795 157.166C98.3129 157.138 98.5494 157.157 98.7754 157.222C99.0014 157.286 99.2125 157.394 99.3963 157.541V157.541Z" fill="#0F7657"/>
<path d="M96.5999 13.302C97.6527 13.302 98.5062 12.4485 98.5062 11.3956C98.5062 10.3428 97.6527 9.48926 96.5999 9.48926C95.547 9.48926 94.6935 10.3428 94.6935 11.3956C94.6935 12.4485 95.547 13.302 96.5999 13.302Z" fill="#A92819"/>
<path d="M97.6376 190.616H95.1593V199.534H97.6376V190.616Z" fill="#A92819"/>
<path d="M97.6376 189.377H95.1593V190.616H97.6376V189.377Z" fill="#A92819"/>
<path d="M92.142 116.84C92.5991 116.838 93.0465 116.971 93.4276 117.224C93.8087 117.476 94.1062 117.836 94.2826 118.258C94.459 118.679 94.5062 119.144 94.4183 119.593C94.3304 120.041 94.1114 120.454 93.7889 120.778C93.4664 121.101 93.0551 121.322 92.6069 121.412C92.1588 121.502 91.694 121.457 91.2715 121.283C90.849 121.108 90.4878 120.812 90.2336 120.433C89.9794 120.053 89.8438 119.606 89.8438 119.149C89.8465 118.539 90.0892 117.955 90.5193 117.523C90.9494 117.091 91.5323 116.845 92.142 116.84V116.84Z" fill="#2A3277"/>
<path d="M92.1422 127.653C92.5975 127.651 93.0432 127.784 93.4233 128.035C93.8034 128.285 94.1009 128.643 94.2784 129.062C94.456 129.481 94.5056 129.943 94.4211 130.391C94.3366 130.838 94.1217 131.25 93.8035 131.576C93.4852 131.902 93.0779 132.126 92.6325 132.221C92.1872 132.315 91.7238 132.276 91.3007 132.108C90.8775 131.94 90.5135 131.651 90.2543 131.277C89.9951 130.902 89.8523 130.46 89.844 130.005C89.8398 129.699 89.896 129.396 90.0093 129.112C90.1227 128.828 90.291 128.57 90.5045 128.351C90.7181 128.133 90.9727 127.959 91.2537 127.839C91.5348 127.719 91.8367 127.656 92.1422 127.653V127.653Z" fill="#2A3277"/>
<path d="M92.6918 31.3815L91.7175 34.5588C77.748 30.2059 68.0572 47.1726 67.9619 47.395L65.0812 45.7323C65.1871 45.531 76.1911 26.2766 92.6918 31.3815Z" fill="#4C8BCA"/>
<path d="M91.0828 11.1739C91.4105 11.1718 91.7314 11.2672 92.0047 11.4479C92.278 11.6286 92.4914 11.8866 92.6178 12.1889C92.7441 12.4912 92.7777 12.8243 92.7143 13.1458C92.6509 13.4672 92.4933 13.7626 92.2616 13.9943C92.0299 14.226 91.7346 14.3836 91.4131 14.447C91.0916 14.5104 90.7585 14.4768 90.4562 14.3504C90.1539 14.2241 89.896 14.0107 89.7152 13.7373C89.5345 13.464 89.4391 13.1431 89.4412 12.8155C89.444 12.3809 89.6178 11.965 89.9251 11.6577C90.2323 11.3505 90.6483 11.1766 91.0828 11.1739V11.1739Z" fill="#A92819"/>
<path d="M90.9339 190.616H88.4556V199.534H90.9339V190.616Z" fill="#A92819"/>
<path d="M90.9339 189.377H88.4556V190.616H90.9339V189.377Z" fill="#A92819"/>
<path d="M87.184 14.6367C87.184 14.9274 87.0979 15.2116 86.9367 15.4535C86.7754 15.6954 86.5461 15.884 86.2777 15.9958C86.0093 16.1075 85.7138 16.1373 85.4286 16.0813C85.1433 16.0254 84.881 15.8862 84.6747 15.6814C84.4684 15.4766 84.3273 15.2152 84.2693 14.9304C84.2113 14.6455 84.239 14.3498 84.3488 14.0807C84.4586 13.8115 84.6456 13.5808 84.8863 13.4178C85.127 13.2548 85.4106 13.1667 85.7013 13.1646C85.8955 13.1632 86.0881 13.2002 86.2679 13.2736C86.4478 13.347 86.6113 13.4552 86.7491 13.592C86.8869 13.7288 86.9963 13.8916 87.071 14.0709C87.1456 14.2502 87.184 14.4425 87.184 14.6367V14.6367Z" fill="#A92819"/>
<path d="M83.9014 122.347C84.3585 122.347 84.8053 122.482 85.1852 122.737C85.5651 122.991 85.861 123.352 86.0355 123.774C86.2099 124.197 86.255 124.662 86.1651 125.11C86.0751 125.558 85.8541 125.969 85.5302 126.292C85.2062 126.614 84.7939 126.833 84.3453 126.921C83.8967 127.009 83.4322 126.962 83.0105 126.786C82.5888 126.609 82.2289 126.312 81.9765 125.931C81.7241 125.549 81.5905 125.102 81.5926 124.645C81.5954 124.034 81.8398 123.45 82.2725 123.019C82.7052 122.588 83.2909 122.347 83.9014 122.347V122.347Z" fill="#2A3277"/>
<path d="M84.2301 190.616H81.7518V199.534H84.2301V190.616Z" fill="#A92819"/>
<path d="M84.2301 189.377H81.7518V190.616H84.2301V189.377Z" fill="#A92819"/>
<path d="M77.5354 190.616H75.0571V199.534H77.5354V190.616Z" fill="#A92819"/>
<path d="M77.5354 189.377H75.0571V190.616H77.5354V189.377Z" fill="#A92819"/>
<path d="M70.8317 190.616H68.3534V199.534H70.8317V190.616Z" fill="#A92819"/>
<path d="M70.8317 189.377H68.3534V190.616H70.8317V189.377Z" fill="#A92819"/>
<path d="M66.2577 26.5726C66.2682 26.8653 66.1912 27.1545 66.0364 27.4032C65.8816 27.6519 65.6562 27.8488 65.3889 27.9687C65.1217 28.0886 64.8247 28.126 64.536 28.0762C64.2474 28.0263 63.9802 27.8915 63.7686 27.689C63.5569 27.4864 63.4106 27.2254 63.3481 26.9392C63.2857 26.653 63.3101 26.3546 63.4182 26.0824C63.5262 25.8101 63.7131 25.5763 63.9548 25.4108C64.1964 25.2453 64.482 25.1557 64.7749 25.1534C65.1582 25.1504 65.5275 25.2969 65.8044 25.562C66.0813 25.827 66.2439 26.1895 66.2577 26.5726V26.5726Z" fill="#A92819"/>
<path d="M65.782 0V3.30438C45.3838 3.30438 42.1006 19.5192 42.1006 19.6886L38.8491 19.0849C38.9233 18.8943 42.6725 0 65.782 0Z" fill="#4C8BCA"/>
<path d="M64.1279 190.616H61.6497V199.534H64.1279V190.616Z" fill="#A92819"/>
<path d="M64.1279 189.377H61.6497V190.616H64.1279V189.377Z" fill="#A92819"/>
<path d="M57.4242 190.616H54.9459V199.534H57.4242V190.616Z" fill="#A92819"/>
<path d="M57.4242 189.377H54.9459V190.616H57.4242V189.377Z" fill="#A92819"/>
<path d="M50.7295 190.616H48.2512V199.534H50.7295V190.616Z" fill="#A92819"/>
<path d="M50.7295 189.377H48.2512V190.616H50.7295V189.377Z" fill="#A92819"/>
<path d="M54.9445 189.377V190.616H50.7293V189.377H48.251V190.616H44.1947V188.138H182.343V190.616H176.889V189.377H174.411V190.616H170.185V189.377H167.707V190.616H164.085V189.377H161.606V190.616H157.38V189.377H154.902V190.616H150.676V189.377H148.198V190.616H143.983V189.377H141.505V190.616H137.279V189.377H134.8V190.616H130.575V189.377H128.096V190.616H123.871V189.377H121.392V190.616H117.177V189.377H114.699V190.616H110.473V189.377H107.995V190.616H104.33V189.377H101.852V190.616H97.6262V189.377H95.1479V190.616H90.9327V189.377H88.4544V190.616H84.2286V189.377H81.7503V190.616H77.5245V189.377H75.0568V190.616H70.831V189.377H68.3527V190.616H64.1269V189.377H61.6486V190.616H57.4228V189.377H54.9445Z" fill="#A92819"/>
<path d="M47.1076 39.5259C47.3088 39.5259 47.3406 39.5259 47.3724 39.5259C50.5497 31.4344 59.6685 21.4259 71.4351 13.8322C81.4012 7.41406 93.2948 2.65871 105.072 2.18211C112.941 1.85379 121.53 2.91289 128.181 6.09018C133.774 8.75911 138.021 12.9425 139.44 19.1171C140.499 23.3005 139.8 28.1936 136.337 33.0442C133.572 36.9099 128.997 40.7544 122.039 44.1647C121.92 44.2228 121.796 44.2689 121.668 44.3024C120.901 44.7204 120.112 45.0986 119.306 45.4357C115.994 46.8361 112.457 47.6255 108.864 47.7657C105.464 47.8716 102.392 47.2255 100.391 45.7746C99.0061 44.8108 97.9433 43.4528 97.3406 41.8771C96.8025 40.3016 96.7766 38.5963 97.2664 37.0052C97.753 35.3798 98.5278 33.8552 99.5541 32.5041C102.458 28.6626 106.354 25.6857 110.823 23.8936C113.189 23.0329 115.649 22.4604 118.152 22.1885C120.26 21.9317 122.398 22.0755 124.453 22.6121C124.909 22.7392 125.333 22.8769 125.735 23.0252C123.363 20.907 119.751 19.4136 115.345 18.6405C109.638 17.7643 103.825 17.8467 98.1455 18.8841C81.846 21.5954 63.1953 30.979 52.0748 48.3164C54.08 48.3806 56.0555 48.8188 57.8998 49.6085C59.3617 50.2307 60.6306 51.2327 61.5749 52.5104C62.4863 53.7779 62.8664 55.3513 62.634 56.8951C62.2022 59.0936 61.0097 61.0697 59.266 62.4765C58.2523 63.5218 57.0317 64.3442 55.6823 64.8913C54.3328 65.4384 52.8842 65.6981 51.4287 65.6538C50.0166 65.5328 48.6787 64.9695 47.6054 64.044C46.509 63.0843 45.7236 61.8195 45.3495 60.4113C44.714 57.7482 44.9554 54.9511 46.0379 52.4363C43.4637 53.126 40.9765 54.1067 38.6242 55.3594L38.137 55.6242C35.9498 56.81 33.8572 58.1626 31.8778 59.6699V60.0406H31.4012C31.1576 60.2312 30.914 60.4219 30.681 60.6231C28.7681 62.1762 26.9961 63.895 25.3855 65.7597C23.8633 67.5323 22.5155 69.4476 21.3609 71.4789C20.4922 72.9767 19.806 74.5732 19.3169 76.2342C18.9436 77.6939 18.769 79.1972 18.7979 80.7036H18.2895L17.8553 80.7566C17.5058 80.8201 17.1457 80.9048 16.7962 81.0002L16.2561 81.1802L16.0019 81.2861C15.778 81.3652 15.5618 81.4645 15.3558 81.5827L14.9428 81.7945L14.6039 81.9957C14.5192 82.0592 14.4132 82.1122 14.3285 82.1863C14.1925 81.5719 14.097 80.9492 14.0426 80.3223C13.9684 79.4115 13.8943 78.2041 13.8943 76.7532C13.8943 75.5988 13.8943 74.2855 14.0426 72.8451C14.1625 71.1684 14.3746 69.4995 14.678 67.8462C15.0295 65.9946 15.5288 64.1741 16.1713 62.4024C16.854 60.4908 17.7342 58.6557 18.7979 56.9269C19.9893 54.9959 21.412 53.2176 23.0343 51.6314C24.7502 49.9663 26.6189 48.4664 28.6157 47.1514C30.7536 45.7236 32.9985 44.4631 35.3304 43.381C37.3013 42.4807 39.3243 41.6991 41.3885 41.0404C43.2207 40.4685 44.6928 40.0978 45.6778 39.8542C46.3344 39.653 46.7369 39.5788 47.1076 39.5259ZM133.456 30.9896C136.241 27.0815 136.792 23.2158 135.998 19.9538C134.854 14.9654 131.327 11.5445 126.656 9.36279C122.879 7.66523 118.852 6.59218 114.731 6.1855V15.1878C115.123 15.2514 115.525 15.3043 115.907 15.3785C121.403 16.3317 125.904 18.3545 128.775 21.3518C130.213 22.8157 131.258 24.619 131.813 26.5944C132.368 28.5699 132.416 30.6535 131.952 32.6523C131.936 32.7923 131.908 32.9305 131.867 33.0654C132.44 32.4075 132.97 31.7142 133.456 30.9896V30.9896ZM128.584 31.911C128.705 31.2749 128.775 30.6305 128.796 29.9834C128.281 29.0538 127.615 28.2163 126.826 27.5051C125.855 26.7282 124.722 26.1782 123.511 25.8953C121.868 25.4771 120.162 25.3693 118.48 25.5776C116.268 25.8335 114.093 26.3453 111.998 27.1027C108.162 28.6511 104.82 31.2138 102.329 34.5164C101.546 35.5404 100.951 36.695 100.571 37.9267C100.284 38.8439 100.284 39.8267 100.571 40.7439C100.942 41.6769 101.589 42.4748 102.424 43.0315C103.79 44.0271 106.131 44.4507 108.779 44.366C111.946 44.248 115.065 43.5517 117.982 42.3113C118.681 42.0148 119.37 41.6865 120.026 41.3264C120.162 41.2128 120.312 41.1168 120.471 41.0404L121.213 40.6803C122.648 39.8071 123.975 38.7653 125.163 37.5772C126.822 36.055 128.01 34.0884 128.584 31.911V31.911ZM111.998 14.7854V5.836C111.024 5.76186 110.05 5.73009 109.075 5.69832V14.6371C110.029 14.6689 111.003 14.7112 111.998 14.7854ZM106.311 14.6477V5.70891H105.252C104.659 5.70891 104.066 5.77245 103.483 5.80423V14.7748C104.384 14.7324 105.337 14.6795 106.269 14.6477H106.311ZM100.698 15.0819V6.09018C94.259 7.04604 88.0068 8.99313 82.1637 11.8623V19.8585C87.1274 17.8664 92.2898 16.4107 97.563 15.5162C98.6115 15.3467 99.6388 15.1984 100.656 15.0819H100.698ZM79.3465 21.0552V13.3026C78.4675 13.7686 77.5884 14.2558 76.7305 14.7536V22.2944C77.599 21.8601 78.4781 21.4471 79.3465 21.0552ZM73.9557 23.7242V16.427L73.352 16.8188C72.653 17.2637 71.9646 17.7191 71.2974 18.1851V25.2598C72.1764 24.7303 73.0661 24.2219 73.9557 23.7242ZM68.5755 27.0074V20.1762C66.0615 22.0597 63.6636 24.0933 61.3948 26.266V32.4723C63.6707 30.501 66.069 28.6757 68.5755 27.0074V27.0074ZM59.2448 56.4185C59.346 55.7283 59.1751 55.0258 58.7683 54.4592C58.177 53.6719 57.3825 53.0605 56.47 52.6905C54.4382 51.8474 52.2323 51.5095 50.0413 51.7055C48.4103 54.8828 48.082 57.5306 48.6221 59.4052C48.816 60.1723 49.2324 60.865 49.8189 61.3963C50.3561 61.8516 51.0232 62.1258 51.7253 62.18C52.698 62.1843 53.6613 61.9892 54.5558 61.6067C55.4502 61.2241 56.2566 60.6623 56.9254 59.9559C58.0798 59.0762 58.8984 57.8279 59.2448 56.4185V56.4185ZM58.567 35.0247V29.0832C57.6244 30.0893 56.756 31.1167 55.9405 32.1228V37.7148C56.8089 36.804 57.6774 35.8932 58.567 35.0247V35.0247ZM53.1762 40.9451V35.9673C52.1879 37.4937 51.3474 39.1108 50.6662 40.7968C50.6231 40.9228 50.5737 41.0466 50.5179 41.1675V44.5037C51.3758 43.2645 52.2548 42.0995 53.1762 40.9451V40.9451ZM47.7536 48.56V42.9997H47.6795C47.3618 43.0633 46.9699 43.1162 46.5145 43.2327C45.5507 43.4763 44.1103 43.8364 42.4687 44.3554C41.166 44.779 39.6939 45.298 38.1688 45.944V51.7373C40.6111 50.5139 43.1832 49.5689 45.8367 48.9201C46.4827 48.7718 47.1182 48.6553 47.7536 48.56ZM34.7797 53.5907V47.5539C33.8053 48.0516 32.831 48.613 31.8778 49.2166V55.4335C32.8204 54.8087 33.7841 54.1732 34.7797 53.5907ZM28.4251 57.986V51.5466C27.4323 52.3101 26.4846 53.1305 25.5867 54.0038V60.5278C26.5187 59.6805 27.4613 58.8226 28.4781 57.986H28.4251ZM22.187 64.224V58.0919C22.0493 58.3143 21.9117 58.5367 21.7634 58.7591C20.8033 60.3025 20.0082 61.9425 19.391 63.6521C18.8291 65.2557 18.4005 66.9029 18.1095 68.5769C17.9506 69.4666 17.8129 70.335 17.7176 71.1823C17.9436 70.7375 18.1872 70.2821 18.4484 69.8161C19.5557 67.8506 20.8239 65.9802 22.24 64.224H22.187Z" fill="#0F7657"/>
<path d="M44.6421 47.31C44.6442 47.6037 44.559 47.8914 44.3974 48.1367C44.2357 48.3819 44.0049 48.5736 43.7341 48.6874C43.4634 48.8013 43.1649 48.8322 42.8766 48.7762C42.5883 48.7201 42.3231 48.5798 42.1147 48.3728C41.9063 48.1659 41.764 47.9017 41.7059 47.6138C41.6478 47.3259 41.6766 47.0272 41.7885 46.7557C41.9004 46.4841 42.0904 46.2519 42.3345 46.0885C42.5785 45.9251 42.8656 45.8379 43.1593 45.8379C43.5508 45.8379 43.9263 45.9926 44.2041 46.2684C44.4818 46.5442 44.6393 46.9186 44.6421 47.31V47.31Z" fill="#A92819"/>
<path d="M41.3669 28.7544L41.78 32.027C11.5745 35.8503 8.12184 59.6695 7.99475 60.6862L4.71155 60.2625C4.74332 59.9872 8.55607 32.8955 41.3669 28.7544Z" fill="#4C8BCA"/>
<path d="M29.9949 1.3877C30.7786 10.856 28.6286 17.952 23.6403 22.5061C18.6519 27.0602 11.8949 27.9499 7.37253 27.9499C5.70501 27.9651 4.03937 27.834 2.39478 27.558L2.98787 24.3172C3.10437 24.3172 14.4897 26.3189 21.4056 20.0808C25.642 16.2574 27.4001 10.0723 26.7011 1.70542L29.9949 1.3877Z" fill="#2A3277"/>
<path d="M21.9752 177.865C29.3888 186.009 27.133 198.56 27.0377 199.047L25.3749 198.846L23.7545 198.549C23.7545 198.432 25.7561 187.037 19.5181 180.121C15.6947 175.884 9.50959 174.126 1.14272 174.825L0.793213 171.489C10.3251 170.695 17.3999 172.845 21.9752 177.865Z" fill="#2A3277"/>
<path d="M21.0223 89.8856C20.7142 89.4709 20.3817 89.0748 20.0268 88.6994C19.9555 88.603 19.8631 88.5242 19.7566 88.4691C19.6501 88.414 19.5323 88.3841 19.4125 88.3817C19.2409 88.3505 19.0651 88.3505 18.8935 88.3817C18.7803 88.4108 18.6746 88.4636 18.5833 88.5367C18.492 88.6097 18.4172 88.7013 18.364 88.8053C18.277 89.153 18.277 89.5167 18.364 89.8644C18.4639 90.4236 18.6237 90.9704 18.8406 91.4954C19.0643 92.0092 19.3337 92.5019 19.6455 92.9676C19.8641 93.2991 20.1239 93.6016 20.4186 93.8678C20.7534 94.1464 21.1073 94.4012 21.4777 94.6304L22.1979 95.0964C22.3609 95.1975 22.4899 95.345 22.5686 95.52C22.6979 95.8925 22.7763 96.2809 22.8016 96.6744C22.8969 97.3734 23.024 98.4749 23.204 100.011C23.3841 101.546 23.6383 103.495 23.9348 105.306C24.2314 107.117 24.5703 108.589 24.8245 109.542C24.9303 110.127 25.1421 110.687 25.4493 111.195C25.599 111.427 25.8024 111.619 26.0424 111.756C26.2299 111.877 26.4285 111.98 26.6355 112.063C26.8882 112.203 27.1726 112.276 27.4616 112.275C28.0425 112.238 28.6159 112.124 29.1668 111.936C30.2013 111.636 31.2194 111.283 32.217 110.877C33.4998 110.364 34.7548 109.784 35.9768 109.14C37.1947 108.494 38.275 107.816 39.0905 107.414C39.6309 107.099 40.2356 106.911 40.8592 106.863C41.2721 106.84 41.6822 106.943 42.0348 107.159C42.504 107.493 42.9004 107.918 43.1998 108.409C43.77 109.245 44.2763 110.123 44.7143 111.036C45.2488 112.082 45.6883 113.173 46.0276 114.298C46.2949 115.219 46.367 116.186 46.2394 117.136C46.0956 118.151 45.8141 119.142 45.4027 120.08C44.8954 121.167 44.3334 122.228 43.7188 123.258C42.9668 124.624 41.9924 126.488 41.2723 128.024C40.6384 129.36 40.0728 130.728 39.5777 132.122C39.0799 133.499 38.5186 135.077 38.2115 136.285C37.9043 137.492 37.7137 138.403 37.4913 139.345C37.2326 140.59 36.8347 141.801 36.3051 142.957C35.6273 144.461 34.5258 146.346 33.7844 148.252C33.0743 150.13 32.6114 152.091 32.4076 154.088C32.1746 156.037 32.1428 157.986 31.9204 159.437C31.796 160.518 31.4614 161.565 30.9355 162.519C30.6523 162.974 30.2942 163.379 29.8764 163.715C29.5586 164.012 29.3256 164.308 28.8173 164.774C28.2418 165.309 27.7236 165.901 27.271 166.543C26.9206 167.062 26.7359 167.675 26.7414 168.301C26.7414 168.672 27.0592 168.682 27.8005 168.704C28.5419 168.725 29.7069 168.704 30.5542 168.704C31.093 168.716 31.631 168.656 32.1534 168.524C32.2496 168.498 32.3379 168.449 32.41 168.38C32.4822 168.312 32.536 168.226 32.5665 168.132C32.6406 167.92 32.7253 167.634 32.8418 167.274C32.9583 166.914 33.1066 166.448 33.2761 166.035C33.4745 165.606 33.6512 165.168 33.8056 164.721C33.9645 164.213 34.1022 163.599 34.2928 162.836C34.5943 161.697 34.9984 160.588 35.5002 159.521C36.2521 157.88 37.4807 155.486 38.3915 153.294C39.1659 151.4 39.803 149.454 40.2979 147.469C40.6004 145.983 41.073 144.536 41.7065 143.158C42.6078 141.499 43.6161 139.9 44.7249 138.371C45.784 136.867 46.5783 135.639 47.648 134.008C48.7177 132.377 50.0522 130.343 50.963 129.168C51.8738 127.992 52.3716 127.717 52.7529 127.674C53.1341 127.632 53.4519 127.833 54.1297 128.659C54.8075 129.485 55.8454 130.926 57.0634 132.557C58.2814 134.188 59.6794 135.988 60.7491 137.333C61.8187 138.678 62.5601 139.6 63.0367 140.246C63.453 140.766 63.7137 141.394 63.7887 142.057C63.8946 142.819 63.9158 143.921 63.9899 145.234C64.0732 146.772 64.25 148.303 64.5194 149.82C64.8266 151.462 65.3138 153.167 65.6739 154.448C65.9832 155.493 66.2377 156.554 66.4364 157.625C66.6098 158.611 66.6737 159.613 66.627 160.612C66.5937 161.411 66.4402 162.2 66.1716 162.953C65.9466 163.414 65.7486 163.888 65.5785 164.372C65.4528 164.887 65.4528 165.424 65.5785 165.939C65.695 166.31 65.9492 166.374 66.3411 166.575C66.819 166.827 67.2667 167.132 67.6756 167.486C68.0161 167.785 68.2995 168.144 68.5122 168.545C68.7029 168.905 68.8088 169.265 69.0947 169.424C69.5025 169.568 69.9423 169.598 70.3657 169.509C70.8952 169.509 71.5201 169.424 71.9649 169.36C72.4097 169.297 72.6851 169.265 72.7169 168.937C72.675 168.451 72.5268 167.981 72.2826 167.56C72.0417 167.096 71.7618 166.653 71.4459 166.236C71.1146 165.769 70.8139 165.281 70.5457 164.774C70.3003 164.289 70.1357 163.767 70.0585 163.228C69.9507 162.31 69.9507 161.382 70.0585 160.464C70.1327 159.055 70.3657 156.99 70.5139 155.041C70.6622 153.093 70.7363 151.281 70.7681 149.746C70.8168 148.333 70.785 146.919 70.6728 145.509C70.5457 144.058 70.2809 142.438 70.0691 141.273C69.9357 140.315 69.7123 139.372 69.4019 138.456C69.1053 137.672 68.6711 136.899 68.1416 135.84C67.612 134.781 66.9871 133.404 66.2246 131.889C65.462 130.375 64.5512 128.712 63.5133 126.933C62.4754 125.154 61.3316 123.332 60.336 121.701C59.403 120.317 58.6151 118.841 57.9848 117.295C57.6072 116.087 57.4952 114.812 57.6565 113.556C57.7518 112.053 57.9319 110.072 58.0272 108.261C58.1569 106.59 58.1569 104.912 58.0272 103.241C57.8683 101.832 57.54 100.784 57.3811 99.9152C57.2174 99.2329 57.2431 98.5188 57.4553 97.85C57.815 97.1779 58.3088 96.5867 58.9062 96.1131C59.7535 95.3082 61.0244 94.1008 62.0835 93.1264C63.1426 92.1521 63.8204 91.4001 64.5936 90.7541C65.3667 90.108 66.1716 89.5361 67.0719 88.7206C68.0724 87.781 68.9902 86.757 69.8149 85.6598C70.6834 84.516 71.4248 83.3086 72.1344 82.4084C72.6811 81.7141 73.2987 81.0787 73.9772 80.5126C74.3071 80.2278 74.6615 79.9726 75.0363 79.75C75.3439 79.6113 75.6382 79.4447 75.9153 79.2523C76.169 79.0265 76.3805 78.7576 76.5402 78.4579C76.663 78.2492 76.7457 78.0193 76.7838 77.7801C76.7838 77.5365 76.7838 77.2506 76.8579 76.9222C76.926 76.638 76.9545 76.3458 76.9427 76.0538C76.9427 75.9055 76.6991 75.9902 76.5402 76.1173C76.3561 76.3013 76.2119 76.5212 76.1166 76.7634C76.0013 77.0906 75.8484 77.4034 75.6612 77.6954C75.4917 77.8754 75.3328 77.7907 75.2481 77.5789C75.1629 77.2683 75.1202 76.9477 75.121 76.6257C75.0899 76.2344 75.0899 75.8413 75.121 75.4501C75.1168 75.2957 75.1589 75.1435 75.242 75.0133C75.325 74.883 75.4452 74.7806 75.587 74.7193C75.9471 74.5287 76.5508 74.3698 76.8897 74.1792C77.2286 73.9885 77.2604 73.7767 77.1015 73.5861C76.8384 73.3283 76.4849 73.1839 76.1166 73.1836C75.6027 73.1621 75.0881 73.194 74.5809 73.279C74.2128 73.3056 73.8532 73.4026 73.5218 73.5649C73.2393 73.757 72.986 73.9888 72.7698 74.2533C72.5716 74.4717 72.4009 74.7136 72.2614 74.9735C72.1451 75.2298 72.0837 75.5076 72.0814 75.789C72.0814 76.1279 72.0814 76.5622 72.0814 76.9434C72.0814 77.3247 72.0814 77.6318 72.0814 78.0025C72.1173 78.464 71.994 78.9238 71.7319 79.3052C71.2451 79.8956 70.6825 80.4191 70.0585 80.8621C69.3807 81.3705 68.6605 81.9212 67.8662 82.4507C67.0719 82.9803 66.1928 83.7217 65.515 84.3253C64.9436 84.8113 64.4123 85.3426 63.9263 85.914C63.5133 86.4012 63.185 86.8778 62.8673 87.259C62.4625 87.7244 61.9915 88.1277 61.4692 88.4558C60.4505 89.1722 59.3894 89.8265 58.2919 90.4152C57.1375 90.9977 56.1738 91.3683 55.1782 91.792C54.2859 92.179 53.4461 92.6771 52.6787 93.2747C52.0115 93.836 51.5455 94.4715 51.0689 94.9163C50.6994 95.2788 50.2738 95.5792 49.8086 95.806C49.554 95.9809 49.2486 96.0665 48.9401 96.0495C48.599 95.956 48.279 95.7978 47.9975 95.5835C47.6072 95.3386 47.251 95.043 46.9384 94.7045C46.5765 94.3614 46.3319 93.913 46.2394 93.423C46.2175 92.8819 46.3497 92.3456 46.6207 91.8767C46.9708 91.3114 47.188 90.6741 47.2562 90.0127C47.2145 89.2574 46.9283 88.5363 46.4406 87.958C45.8619 87.2233 45.1889 86.5681 44.439 86.0093C43.6839 85.4078 42.8455 84.919 41.9501 84.5583C41.2661 84.3348 40.5348 84.2982 39.8319 84.4524C39.1748 84.5826 38.5513 84.8457 37.9996 85.2256C37.4338 85.6074 36.9599 86.1103 36.6122 86.6977C36.2746 87.2339 36.0344 87.8255 35.9026 88.4452C35.7856 89.0147 35.7856 89.6021 35.9026 90.1716C36.0196 90.9229 36.2861 91.6432 36.6864 92.2897C37.137 92.9197 37.7097 93.4528 38.3703 93.8572C38.9237 94.1948 39.5006 94.4921 40.0967 94.7469L41.3993 95.3929C41.77 95.5657 42.1244 95.7712 42.4584 96.0072C42.7361 96.2304 42.982 96.4905 43.1892 96.7803C43.4326 97.075 43.6324 97.4031 43.7823 97.7547C43.8957 97.979 43.9343 98.2337 43.8924 98.4815C43.8505 98.7292 43.7302 98.9571 43.5493 99.1315C42.8628 99.7628 42.0705 100.268 41.2087 100.625C40.5858 100.882 39.9494 101.104 39.3023 101.292C38.7727 101.463 38.2751 101.72 37.8302 102.055C37.2592 102.476 36.7145 102.933 36.1992 103.421C35.5955 103.972 34.9177 104.575 34.081 105.19C33.272 105.809 32.4306 106.386 31.5603 106.916C30.8847 107.327 30.1762 107.681 29.4421 107.975C28.9549 108.155 28.7855 108.102 28.6054 107.858C28.3202 107.386 28.1229 106.866 28.0229 106.323C27.8111 105.454 27.5569 104.152 27.1015 102.616C26.6461 101.08 26.0424 99.2904 25.5552 97.9453C25.205 96.9495 24.9254 95.9303 24.7186 94.8951C24.609 94.2475 24.5488 93.5925 24.5385 92.9358C24.5589 92.6467 24.5589 92.3565 24.5385 92.0673C24.4833 91.8068 24.4054 91.5517 24.3055 91.3048C24.2197 91.0984 24.0937 90.9112 23.9348 90.7541C23.7442 90.5422 23.4265 90.2563 23.2146 90.0445C23.0028 89.8326 22.8863 89.6844 22.7804 89.5573C22.6884 89.4384 22.5816 89.3316 22.4627 89.2396C22.4227 89.2103 22.3745 89.1945 22.325 89.1945C22.2755 89.1945 22.2273 89.2103 22.1873 89.2396C22.1589 89.301 22.1441 89.3678 22.1441 89.4355C22.1441 89.5032 22.1589 89.57 22.1873 89.6314C22.2254 89.8378 22.2932 90.0376 22.3885 90.2245C22.4945 90.4575 22.6321 90.7541 22.738 90.9447C22.844 91.1353 22.9075 91.2201 22.8651 91.2518C22.8228 91.2836 22.6957 91.2518 22.5156 91.1671C22.2772 91.0499 22.0562 90.9002 21.859 90.7223C21.5519 90.4731 21.2715 90.1927 21.0223 89.8856V89.8856ZM80.014 71.1713C80.476 71.7336 80.7787 72.4095 80.8904 73.1286C81.0022 73.8476 80.919 74.5835 80.6495 75.2595C80.7863 75.9589 80.7863 76.6782 80.6495 77.3777C80.6495 77.653 80.6495 77.9496 80.5648 78.2249C80.4645 78.9317 80.2347 79.6139 79.8869 80.2372C79.4952 80.9576 78.9705 81.5973 78.3407 82.1224C77.8872 82.4825 77.3931 82.7882 76.8685 83.0332C76.7179 83.13 76.5762 83.2399 76.4449 83.3616C75.9698 83.7573 75.5368 84.2009 75.1528 84.6854C74.3585 85.7445 73.67 86.8036 72.8757 87.8627C71.9245 89.1443 70.8612 90.3387 69.6984 91.4319C68.8511 92.1944 67.9615 92.8299 67.1142 93.5501C66.267 94.2703 65.5468 95.0116 64.7842 95.753C63.7251 96.8121 62.666 97.7653 61.6069 98.7714L61.1621 99.2904C61.3845 100.498 61.7022 101.578 61.8399 102.828C62.0146 104.708 62.0359 106.6 61.9035 108.483C61.7976 110.273 61.6387 112.063 61.5222 113.853C61.4207 114.606 61.4638 115.372 61.6493 116.109C62.176 117.347 62.8216 118.532 63.5768 119.646C64.6359 121.415 65.7586 123.162 66.7541 124.942C67.7497 126.721 68.6923 128.363 69.5713 130.121C70.228 131.434 70.8423 132.768 71.4989 134.082C71.9861 135.077 72.558 136.03 72.9181 137.058C73.3145 138.2 73.6017 139.377 73.776 140.574C74.0301 142.089 74.2737 143.624 74.4114 145.16C74.5455 146.713 74.5844 148.273 74.5279 149.831C74.5279 151.673 74.4114 153.516 74.2631 155.348C74.1149 157.181 73.9136 158.918 73.8077 160.707C73.7337 161.348 73.7337 161.995 73.8077 162.635C73.8202 162.786 73.8597 162.933 73.9242 163.069C74.1135 163.415 74.3258 163.748 74.5597 164.065C74.9505 164.638 75.3042 165.236 75.6188 165.855C76.2188 166.914 76.5019 168.123 76.4343 169.339C76.3232 170.365 75.8471 171.316 75.0927 172.02C74.3383 172.724 73.356 173.133 72.325 173.173C71.7425 173.237 71.1706 173.29 70.5881 173.321C69.3953 173.516 68.1716 173.315 67.1036 172.749C66.1448 172.193 65.3993 171.332 64.9854 170.303C64.8208 170.166 64.6435 170.046 64.4559 169.943C63.8306 169.686 63.2693 169.294 62.8118 168.797C62.3543 168.299 62.0117 167.707 61.8082 167.062C61.4849 165.858 61.4849 164.591 61.8082 163.387C62.0041 162.767 62.2448 162.161 62.5283 161.576C62.6501 161.187 62.7248 160.786 62.7507 160.379C62.7797 159.67 62.7299 158.959 62.6025 158.261C62.4253 157.335 62.199 156.42 61.9247 155.518C61.4692 153.887 61.0138 152.245 60.6961 150.572C60.3923 148.895 60.1942 147.201 60.103 145.499C60.103 144.577 60.103 143.518 59.9441 142.618L59.8488 142.491C59.1816 141.548 58.3979 140.627 57.7306 139.706C56.4703 138.106 55.2206 136.528 53.992 134.865C53.579 134.315 53.1765 133.806 52.7635 133.182C52.0962 134.156 51.4608 135.173 50.8253 136.126C49.8509 137.598 48.8554 139.081 47.8598 140.542C46.8727 141.913 45.9741 143.346 45.1697 144.832C44.6735 145.983 44.2973 147.183 44.0471 148.411C43.4849 150.575 42.7773 152.698 41.9289 154.766C41.0392 156.884 39.959 159.002 38.9952 161.121C38.586 161.985 38.2563 162.886 38.0102 163.811C37.8302 164.52 37.6819 165.23 37.4595 165.929C37.2371 166.628 37.0465 166.988 36.8346 167.517C36.7075 167.825 36.6016 168.142 36.4957 168.471C36.3898 168.799 36.2945 169.148 36.178 169.53C35.9603 170.176 35.5953 170.764 35.112 171.245C34.6286 171.727 34.04 172.089 33.3926 172.305C32.5008 172.56 31.5769 172.684 30.6495 172.675C29.6751 172.675 28.6902 172.675 27.7158 172.675C25.3328 172.622 23.31 171.521 22.9816 168.947C22.852 167.456 23.2248 165.965 24.0407 164.711C24.628 163.824 25.3137 163.007 26.0848 162.275C26.4767 161.883 26.8368 161.47 27.2498 161.089C27.3976 160.969 27.5357 160.838 27.6628 160.697C27.9096 160.179 28.0705 159.625 28.1394 159.055C28.383 157.35 28.4042 155.55 28.6054 153.823C28.8501 151.502 29.3874 149.221 30.2047 147.035C30.9566 145.118 31.9734 143.391 32.8207 141.527C33.2386 140.616 33.5513 139.66 33.7527 138.678C33.9962 137.566 34.2187 136.496 34.5364 135.406C34.9494 133.933 35.4472 132.44 35.9662 130.989C36.4851 129.538 37.1312 127.886 37.862 126.372C38.6563 124.688 39.5247 123.014 40.4144 121.373C40.9227 120.472 41.537 119.498 41.9501 118.566C42.2134 117.953 42.395 117.309 42.4902 116.649C42.5516 116.198 42.5155 115.74 42.3843 115.304C42.1113 114.415 41.7568 113.554 41.3252 112.73C41.0472 112.154 40.7396 111.592 40.4038 111.046C39.5353 111.512 38.6775 112.105 37.809 112.508C36.4507 113.223 35.0541 113.863 33.6256 114.425C32.5029 114.87 31.3591 115.272 30.2047 115.611C29.3136 115.898 28.3867 116.058 27.451 116.088C26.6147 116.091 25.7887 115.902 25.0363 115.537C24.6723 115.383 24.3186 115.206 23.9772 115.007C23.2944 114.585 22.7066 114.026 22.2509 113.366C21.6946 112.494 21.2999 111.529 21.0859 110.517C20.6728 109.023 20.3763 107.445 20.1115 105.91C19.8149 104.12 19.5819 102.309 19.3595 100.498C19.2536 99.5552 19.1371 98.602 19.0312 97.6488C18.6261 97.3757 18.2404 97.0749 17.8768 96.7485C17.3442 96.2697 16.8744 95.7252 16.4788 95.1281C16.0267 94.4608 15.6401 93.7515 15.3244 93.0099C15.0082 92.2415 14.7705 91.4432 14.6148 90.627C14.345 89.5498 14.4078 88.4163 14.7948 87.3755C15.0592 86.7373 15.4641 86.1668 15.9793 85.7066C16.4946 85.2463 17.1069 84.9082 17.7709 84.7172C18.3891 84.5365 19.0361 84.4754 19.6773 84.5372C20.5241 84.5976 21.3378 84.8908 22.0284 85.3844C22.8536 85.345 23.6719 85.5515 24.3796 85.9775C24.8628 86.2827 25.2922 86.6656 25.6506 87.1108C25.7159 87.1998 25.7866 87.2846 25.8624 87.3649C26.1272 87.6191 26.4025 87.8733 26.6567 88.1487C27.1133 88.6338 27.4728 89.2018 27.7158 89.8221C27.9847 90.3319 28.191 90.8725 28.3301 91.4319C28.3946 91.9056 28.4229 92.3836 28.4148 92.8617C28.4251 93.3335 28.4676 93.8042 28.5419 94.2703C28.7151 95.1236 28.9523 95.9626 29.2515 96.7803C29.781 98.3901 30.3635 99.9576 30.8295 101.578C30.9355 101.949 31.0414 102.309 31.1261 102.637L31.8145 102.139C32.45 101.642 33.0537 101.08 33.6467 100.561C34.275 99.9701 34.9362 99.4149 35.6273 98.8985C36.2684 98.4665 36.958 98.111 37.6819 97.8394C37.2193 97.6191 36.7702 97.3716 36.3369 97.0981C35.2244 96.438 34.2727 95.5386 33.551 94.4652C32.8292 93.3917 32.3555 92.171 32.164 90.8917C31.9521 89.8432 31.9521 88.7629 32.164 87.7144C32.3808 86.6552 32.7862 85.6436 33.3608 84.7278C33.9875 83.7026 34.8207 82.8189 35.8073 82.133C36.7892 81.4654 37.8947 81.0009 39.0587 80.7668C40.4346 80.4669 41.8662 80.5475 43.1998 80.9998C44.4913 81.4879 45.699 82.1739 46.7796 83.0332C47.8061 83.7961 48.7252 84.6938 49.512 85.7022C50.4069 86.8277 50.9552 88.1892 51.0901 89.6208C51.8667 89.1144 52.6811 88.6682 53.526 88.2864C54.5004 87.8521 55.5065 87.492 56.4597 86.9943C57.4219 86.4928 58.349 85.9267 59.2345 85.2997C59.476 85.1574 59.6969 84.9828 59.8912 84.7808C60.2513 84.3465 60.5902 83.8805 60.9503 83.4357C61.5597 82.7133 62.2255 82.0405 62.9414 81.4234C63.7675 80.6926 64.6571 80.0148 65.5362 79.3582C66.2564 78.8286 66.9871 78.2991 67.6544 77.7907L68.1521 77.4094V77.0387C68.1258 76.5201 68.1258 76.0005 68.1521 75.4819C68.197 74.7197 68.3838 73.9726 68.7029 73.279C68.9916 72.7223 69.3473 72.203 69.762 71.7327C70.2613 71.0876 70.8891 70.5532 71.6055 70.1631C72.3219 69.773 73.1114 69.5357 73.9242 69.4662C74.7253 69.3324 75.5393 69.2933 76.3496 69.3497C77.0527 69.3854 77.741 69.5656 78.3715 69.879C79.0019 70.1924 79.5611 70.6323 80.014 71.1713Z" fill="white"/>
<path d="M20.0285 80.7245C21.136 80.8008 22.2166 81.0998 23.2058 81.6036C24.3266 81.7336 25.4084 82.0942 26.3831 82.6627C27.2268 83.1812 27.9754 83.8403 28.5966 84.6114V84.6114L28.9038 84.908C29.2163 84.1028 29.5991 83.3267 30.0476 82.5885C30.9867 81.154 32.204 79.9224 33.6273 78.9664C35.038 78.0171 36.6271 77.3649 38.298 77.0495C40.3435 76.6058 42.4715 76.7303 44.4513 77.4096C46.137 78.0286 47.7135 78.9116 49.1219 80.0255C50.4194 80.9915 51.5807 82.1279 52.5746 83.4041C52.7913 83.6788 52.9928 83.9652 53.1783 84.2619C53.6972 84.0501 54.2374 83.8383 54.714 83.5841C55.522 83.1508 56.3036 82.6698 57.0546 82.1437H57.1393C57.4358 81.773 57.7112 81.3812 58.0289 81.0211C58.7623 80.1447 59.5664 79.33 60.4331 78.5852C61.3333 77.7908 62.3077 77.0389 63.2715 76.3187C63.6316 76.0433 64.0023 75.7891 64.3306 75.5244C64.3253 75.4362 64.3253 75.3478 64.3306 75.2596C64.4059 74.0116 64.7186 72.7894 65.252 71.6587C65.6815 70.7938 66.2227 69.989 66.8618 69.2651C67.6462 68.3321 68.5847 67.5404 69.6367 66.9245C70.8126 66.2622 72.1088 65.841 73.4494 65.6853C74.5451 65.509 75.6574 65.4593 76.7644 65.5371C77.9734 65.6274 79.1515 65.9621 80.2274 66.521C81.3033 67.0798 82.2546 67.8513 83.0236 68.7885C83.7815 69.7253 84.3141 70.8237 84.5803 71.9989C84.8466 73.1741 84.8394 74.3947 84.5593 75.5667C84.5971 76.332 84.5509 77.0991 84.4216 77.8544C84.4216 78.1721 84.4217 78.4792 84.3263 78.797C84.177 79.9604 83.8182 81.0871 83.2672 82.1225C82.6376 83.266 81.8008 84.2823 80.7995 85.1198C80.2331 85.5797 79.6188 85.9774 78.9673 86.306V86.306C78.6975 86.5298 78.4525 86.7819 78.2365 87.0579C77.4528 88.0535 76.7644 89.1761 75.9912 90.2352C74.8845 91.6997 73.6512 93.0642 72.3056 94.3128C71.4371 95.1177 70.5051 95.7849 69.6155 96.5475C68.8847 97.1723 68.1751 97.9031 67.4973 98.5809C66.8195 99.2587 66.1204 99.9048 65.3791 100.561C65.4956 101.144 65.6121 101.726 65.6862 102.362C65.8751 104.45 65.8999 106.55 65.7604 108.642C65.6544 110.443 65.4956 112.243 65.3791 114.044C65.363 114.337 65.363 114.63 65.3791 114.923C65.8236 115.853 66.3369 116.749 66.9148 117.602C67.9739 119.392 69.1177 121.161 70.1874 122.972C71.2571 124.783 72.1997 126.53 73.1211 128.363C73.7883 129.676 74.4026 131.021 75.0486 132.334C75.6344 133.417 76.1612 134.531 76.6267 135.671C77.1124 137.046 77.467 138.465 77.6858 139.907C77.9612 141.527 78.2153 143.158 78.3636 144.789C78.5046 146.487 78.5505 148.191 78.5013 149.894C78.5013 151.811 78.3636 153.718 78.2259 155.613C78.0882 157.509 77.8764 159.151 77.7599 160.909C77.7599 161.089 77.7599 161.396 77.7599 161.65C77.8108 161.717 77.8568 161.788 77.8976 161.862C78.3739 162.572 78.7986 163.315 79.1685 164.086C80.0934 165.801 80.5087 167.745 80.3653 169.689C80.1745 171.573 79.3274 173.329 77.9721 174.652C76.6168 175.974 74.8396 176.778 72.9516 176.922L71.077 177.102C69.1169 177.36 67.1256 176.989 65.3897 176.043C64.0743 175.331 62.9791 174.273 62.223 172.983C60.3262 171.945 58.9145 170.203 58.2937 168.132C57.7431 166.247 57.7211 164.246 58.2302 162.349C58.4301 161.619 58.6997 160.91 59.0351 160.231C59.0351 160.231 59.0351 160.157 59.0351 160.114C59.0384 159.681 58.9994 159.248 58.9186 158.822C58.7657 158.032 58.5713 157.251 58.3361 156.482C57.8489 154.745 57.3723 152.997 57.044 151.186C56.704 149.349 56.4846 147.492 56.3873 145.626C56.3873 145.086 56.3873 144.493 56.3238 143.921C55.8154 143.275 55.2647 142.618 54.7669 141.983C54.2691 141.347 53.5913 140.468 53.0088 139.716C52.3628 140.691 51.7061 141.644 51.0495 142.608C50.1425 143.842 49.3148 145.134 48.5712 146.473C48.1981 147.386 47.9144 148.333 47.7239 149.301C47.1291 151.626 46.3789 153.908 45.4786 156.132C44.5572 158.335 43.4663 160.422 42.492 162.582C42.1672 163.262 41.9083 163.971 41.7188 164.7C41.5176 165.474 41.3482 166.247 41.1046 167.009C40.861 167.772 40.6386 168.227 40.3844 168.863C40.291 169.079 40.2131 169.302 40.1514 169.53C40.0243 169.911 39.9078 170.292 39.7807 170.684C39.3722 171.861 38.7012 172.929 37.8185 173.808C36.9359 174.687 35.8648 175.354 34.6864 175.757C33.4257 176.155 32.111 176.355 30.789 176.35C29.7299 176.35 28.7237 176.35 27.6858 176.35C23.3965 176.255 19.8273 173.756 19.213 169.297C18.9609 166.93 19.5211 164.547 20.8017 162.54C21.5387 161.408 22.4021 160.363 23.3753 159.426C23.7142 159.087 24.0319 158.738 24.3602 158.367C24.3602 158.367 24.3602 158.314 24.3602 158.282C24.5932 156.63 24.6144 154.851 24.8051 153.177C25.0883 150.532 25.7075 147.934 26.6479 145.446C27.4316 143.434 28.4695 141.665 29.3486 139.727C29.655 139.049 29.8824 138.338 30.0264 137.609C30.2806 136.444 30.5242 135.3 30.8525 134.145C31.2973 132.578 31.8269 130.968 32.3776 129.475C32.9283 127.981 33.585 126.298 34.3263 124.688C35.1524 122.93 36.0633 121.182 37.0059 119.477C37.4295 118.693 38.065 117.804 38.3721 116.977C38.4678 116.767 38.5389 116.547 38.5839 116.321C37.4295 116.903 36.2327 117.433 35.0253 117.92C33.7894 118.422 32.5272 118.857 31.2444 119.223C30.0109 119.618 28.7266 119.832 27.4316 119.858C26.0469 119.859 24.6794 119.551 23.4282 118.958C22.9299 118.753 22.4453 118.516 21.9773 118.248C20.8495 117.552 19.8791 116.629 19.1283 115.537C18.3152 114.303 17.7304 112.932 17.402 111.491C16.9783 109.881 16.65 108.198 16.3429 106.556C16.0357 104.692 15.8027 102.828 15.5697 100.964C15.5168 100.53 15.4744 100.106 15.4214 99.6824L15.3367 99.6082C14.5622 98.9137 13.8789 98.1236 13.3033 97.257C12.7094 96.3779 12.2056 95.4411 11.7993 94.461C11.3803 93.4624 11.0679 92.4222 10.8673 91.3579C10.4573 89.5523 10.5899 87.6657 11.2486 85.9353C11.9255 84.3256 13.0833 82.9643 14.5636 82.0378L14.9025 81.8366C15.0357 81.7577 15.1737 81.6869 15.3155 81.6248C15.5215 81.5066 15.7377 81.4073 15.9616 81.3282L16.2158 81.2223L16.7559 81.0423C17.1054 80.9469 17.4655 80.8622 17.815 80.7987L18.2492 80.7457H18.7576C19.1804 80.7128 19.6048 80.7057 20.0285 80.7245ZM80.6513 75.2596C80.9208 74.5836 81.004 73.8478 80.8922 73.1287C80.7804 72.4096 80.4778 71.7337 80.0158 71.1715C79.5677 70.6375 79.0153 70.2005 78.3925 69.8873C77.7697 69.5741 77.0896 69.3912 76.3937 69.3498C75.5835 69.2934 74.7694 69.3325 73.9684 69.4663C73.1539 69.5384 72.3634 69.7789 71.6468 70.1728C70.9303 70.5666 70.3035 71.105 69.8061 71.754C69.3914 72.2244 69.0358 72.7436 68.747 73.3003C68.4279 73.9939 68.2411 74.741 68.1963 75.5032C68.17 76.0218 68.17 76.5414 68.1963 77.0601V77.4307L67.6985 77.812C66.9889 78.3522 66.2581 78.8711 65.5803 79.3795C64.7013 80.0361 63.8116 80.7139 62.9855 81.4447C62.2571 82.0432 61.5771 82.6983 60.952 83.4041C60.592 83.8489 60.253 84.3149 59.893 84.7491C59.6987 84.9511 59.4778 85.1257 59.2363 85.2681C58.3508 85.895 57.4237 86.4612 56.4615 86.9626C55.5083 87.4604 54.5021 87.8205 53.5278 88.2547C52.6829 88.6366 51.8685 89.0827 51.0919 89.5892C50.951 88.1686 50.4031 86.819 49.5138 85.7023C48.7317 84.6872 47.8162 83.7823 46.7919 83.0122C45.7113 82.1528 44.5036 81.4668 43.2122 80.9787C41.8786 80.5264 40.447 80.4458 39.0711 80.7457C37.9071 80.9799 36.8016 81.4444 35.8197 82.1119C34.833 82.7979 33.9999 83.6815 33.3732 84.7067C32.7985 85.6226 32.3932 86.6342 32.1764 87.6934C31.9644 88.7419 31.9644 89.8222 32.1764 90.8707C32.3678 92.15 32.8416 93.3706 33.5633 94.4441C34.2851 95.5176 35.2367 96.417 36.3492 97.077C36.7825 97.3505 37.2316 97.5981 37.6943 97.8184C36.9704 98.09 36.2808 98.4454 35.6396 98.8775C34.9363 99.41 34.2644 99.9829 33.6273 100.593C33.0342 101.123 32.4306 101.652 31.7951 102.171L31.1067 102.669C31.022 102.309 30.916 101.949 30.8101 101.61C30.3441 100 29.751 98.4326 29.2321 96.8122C28.9329 95.9945 28.6957 95.1555 28.5225 94.3022C28.4482 93.8361 28.4057 93.3654 28.3954 92.8936C28.4121 92.4055 28.3909 91.9168 28.3318 91.432C28.2342 90.8745 28.0706 90.3305 27.8447 89.8116C27.6016 89.1913 27.2421 88.6233 26.7856 88.1382C26.5314 87.8629 26.256 87.6087 25.9912 87.3545C25.9155 87.2742 25.8447 87.1893 25.7794 87.1003C25.4211 86.6552 24.9916 86.2723 24.5085 85.9671C23.8008 85.541 22.9825 85.3346 22.1573 85.374C21.4666 84.8803 20.6529 84.5871 19.8061 84.5267C19.165 84.4649 18.518 84.526 17.8997 84.7067C17.2358 84.8977 16.6234 85.2359 16.1082 85.6961C15.5929 86.1563 15.1881 86.7268 14.9237 87.3651C14.5366 88.4058 14.4739 89.5394 14.7436 90.6165C14.8993 91.4327 15.1371 92.2311 15.4532 92.9995C15.769 93.741 16.1556 94.4504 16.6076 95.1177C17.0033 95.7147 17.473 96.2592 18.0056 96.7381C18.3692 97.0644 18.755 97.3652 19.1601 97.6383C19.266 98.5915 19.3825 99.5447 19.4884 100.487C19.7108 102.298 19.9438 104.109 20.2403 105.899C20.5051 107.435 20.8017 109.013 21.2147 110.506C21.4288 111.518 21.8234 112.483 22.3797 113.355C22.8355 114.016 23.4233 114.575 24.106 114.997C24.4474 115.196 24.8012 115.373 25.1651 115.526C25.9176 115.892 26.7435 116.08 27.5799 116.077C28.5155 116.048 29.4425 115.887 30.3335 115.601C31.488 115.262 32.6318 114.859 33.7544 114.414C35.1686 113.851 36.551 113.211 37.8955 112.497C38.764 112.042 39.6218 111.502 40.4903 111.036C40.8261 111.581 41.1337 112.143 41.4117 112.72C41.8433 113.543 42.1978 114.405 42.4708 115.293C42.602 115.729 42.6381 116.188 42.5767 116.639C42.4815 117.298 42.2999 117.943 42.0366 118.555C41.6235 119.488 40.9775 120.462 40.5009 121.362C39.6112 123.004 38.7428 124.677 37.9485 126.361C37.26 127.823 36.6775 129.284 36.1268 130.799C35.5761 132.313 35.0677 133.743 34.697 135.215C34.3793 136.274 34.1569 137.333 33.9133 138.488C33.7119 139.47 33.3992 140.426 32.9813 141.337C32.134 143.201 31.1173 144.927 30.3653 146.844C29.5481 149.03 29.0107 151.311 28.7661 153.633C28.5648 155.359 28.5437 157.16 28.3001 158.865C28.2312 159.434 28.0702 159.989 27.8235 160.506C27.6963 160.648 27.5582 160.779 27.4104 160.898C26.9974 161.279 26.6373 161.693 26.2454 162.084C25.4366 162.814 24.7151 163.635 24.0955 164.531C23.2795 165.785 22.9067 167.277 23.0364 168.767C23.3647 171.341 25.3876 172.442 27.7705 172.495C28.7449 172.495 29.7299 172.495 30.7042 172.495C31.6317 172.505 32.5556 172.38 33.4473 172.125C34.0947 171.909 34.6833 171.547 35.1667 171.065C35.6501 170.584 36.015 169.996 36.2327 169.35C36.3492 169.021 36.4445 168.683 36.5504 168.291C36.6564 167.899 36.7623 167.645 36.8894 167.338C37.1012 166.797 37.3342 166.278 37.5142 165.749C37.6943 165.219 37.8849 164.361 38.065 163.631C38.311 162.706 38.6407 161.806 39.0499 160.941C40.0137 158.822 41.094 156.757 41.9836 154.586C42.832 152.518 43.5397 150.395 44.1018 148.231C44.3466 147.066 44.7049 145.927 45.1715 144.832C45.9953 143.333 46.9151 141.89 47.9252 140.511C48.9207 139.049 49.9163 137.566 50.8906 136.094C51.5261 135.141 52.1615 134.124 52.8288 133.15C53.2418 133.722 53.6443 134.283 54.0573 134.834C55.2859 136.454 56.5356 138.075 57.7959 139.674C58.5161 140.595 59.2999 141.517 59.9141 142.459L60.0095 142.586C60.126 143.487 60.126 144.546 60.1683 145.467C60.2595 147.169 60.4576 148.863 60.7614 150.54C61.0791 152.214 61.5346 153.855 61.99 155.486C62.2644 156.388 62.4906 157.304 62.6678 158.229C62.7952 158.928 62.845 159.638 62.8161 160.347C62.7901 160.754 62.7155 161.156 62.5937 161.544C62.3101 162.13 62.0694 162.735 61.8735 163.355C61.5502 164.559 61.5502 165.827 61.8735 167.03C62.077 167.675 62.4196 168.267 62.8771 168.765C63.3347 169.263 63.8959 169.654 64.5212 169.911C64.7088 170.014 64.8862 170.135 65.0508 170.271C65.4646 171.3 66.2101 172.161 67.169 172.718C68.2369 173.283 69.4606 173.484 70.6534 173.29C71.2359 173.29 71.8078 173.205 72.3903 173.141C73.4213 173.102 74.4036 172.693 75.158 171.989C75.9124 171.285 76.3886 170.333 76.4996 169.307C76.5672 168.092 76.2841 166.882 75.6841 165.823C75.3695 165.204 75.0158 164.607 74.625 164.033C74.3912 163.716 74.1789 163.383 73.9895 163.038C73.925 162.901 73.8855 162.754 73.873 162.603C73.8022 161.977 73.8022 161.345 73.873 160.718C73.979 158.928 74.1908 157.138 74.3285 155.359C74.4661 153.58 74.5509 151.684 74.5932 149.841C74.6497 148.283 74.6108 146.724 74.4767 145.171C74.339 143.635 74.0955 142.099 73.8413 140.585C73.667 139.388 73.3798 138.211 72.9834 137.069C72.5915 136.009 72.0514 135.088 71.5642 134.092C70.9076 132.779 70.2933 131.445 69.6367 130.131C68.7576 128.373 67.8044 126.647 66.8195 124.952C65.8345 123.258 64.7013 121.426 63.6422 119.657C62.8869 118.543 62.2413 117.358 61.7146 116.12C61.5291 115.383 61.486 114.617 61.5875 113.864C61.704 112.074 61.8629 110.284 61.9688 108.494C62.1012 106.61 62.0799 104.719 61.9052 102.838C61.7676 101.589 61.4498 100.508 61.2274 99.3011L61.6616 98.9092C62.7207 97.8501 63.7798 96.9075 64.8389 95.8908C65.6015 95.1494 66.364 94.3657 67.169 93.6879C67.9739 93.0101 68.9059 92.3217 69.7532 91.5697C70.9159 90.4765 71.9792 89.2821 72.9304 88.0005C73.7248 86.9414 74.4132 85.8082 75.2075 84.8232C75.5564 84.3101 75.9575 83.8346 76.4043 83.4041C76.5356 83.2823 76.6773 83.1725 76.8279 83.0757C77.3525 82.8307 77.8466 82.525 78.3001 82.1649C78.9299 81.6398 79.4546 81.0001 79.8463 80.2797C80.1941 79.6563 80.4239 78.9742 80.5242 78.2674C80.5242 77.9921 80.5242 77.6955 80.6089 77.4201C80.7653 76.7098 80.7797 75.9755 80.6513 75.2596V75.2596Z" fill="#A92819"/>
<path d="M18.3648 88.7945C18.4181 88.6904 18.4928 88.5988 18.5841 88.5258C18.6754 88.4528 18.7811 88.4 18.8943 88.3708C19.0659 88.3396 19.2417 88.3396 19.4133 88.3708C19.5332 88.3733 19.6509 88.4032 19.7574 88.4583C19.8639 88.5134 19.9563 88.5921 20.0276 88.6886C20.3839 89.0776 20.7163 89.4879 21.0231 89.9171C21.249 90.2205 21.5044 90.5008 21.7857 90.7538C21.9829 90.9318 22.2039 91.0815 22.4423 91.1986C22.6224 91.2939 22.76 91.3151 22.7918 91.2834C22.8236 91.2516 22.7918 91.1669 22.6647 90.9762C22.5376 90.7856 22.4211 90.489 22.3152 90.256C22.2198 90.0691 22.1521 89.8693 22.114 89.6629C22.0855 89.6015 22.0708 89.5347 22.0708 89.467C22.0708 89.3993 22.0855 89.3325 22.114 89.2711C22.1539 89.2418 22.2022 89.226 22.2517 89.226C22.3012 89.226 22.3494 89.2418 22.3894 89.2711C22.5083 89.3631 22.615 89.4699 22.7071 89.5888C22.813 89.7159 22.9295 89.8536 23.1413 90.076C23.3531 90.2984 23.6709 90.5738 23.8615 90.7856C24.0204 90.9427 24.1464 91.1299 24.2322 91.3363C24.3321 91.5832 24.41 91.8383 24.4652 92.0989C24.4856 92.388 24.4856 92.6782 24.4652 92.9673C24.4769 93.6385 24.5406 94.3077 24.6558 94.969C24.8626 96.0042 25.1422 97.0234 25.4925 98.0192C25.9373 99.3643 26.5516 101.197 27.0388 102.69C27.526 104.183 27.7484 105.528 27.9602 106.397C28.0602 106.94 28.2575 107.46 28.5427 107.932C28.7228 108.176 28.8922 108.229 29.3794 108.049C30.1135 107.755 30.8219 107.401 31.4976 106.99C32.3679 106.46 33.2093 105.883 34.0182 105.263C34.802 104.649 35.4798 104.045 36.1364 103.495C36.6518 103.007 37.1964 102.55 37.7675 102.129C38.2124 101.794 38.7099 101.537 39.2396 101.366C39.8867 101.178 40.5231 100.955 41.146 100.699C42.0078 100.342 42.8001 99.8367 43.4866 99.2054C43.6675 99.0309 43.7877 98.8031 43.8297 98.5553C43.8716 98.3075 43.833 98.0528 43.7196 97.8286C43.5697 97.477 43.3699 97.1488 43.1265 96.8542C42.9193 96.5644 42.6734 96.3043 42.3957 96.0811C42.0617 95.8451 41.7073 95.6395 41.3366 95.4668L40.0339 94.8207C39.4379 94.5659 38.861 94.2686 38.3076 93.9311C37.647 93.5267 37.0743 92.9936 36.6236 92.3636C36.2234 91.7171 35.9569 90.9968 35.8399 90.2454C35.7229 89.6759 35.7229 89.0886 35.8399 88.5191C35.9717 87.8994 36.2119 87.3078 36.5495 86.7716C36.8972 86.1842 37.3711 85.6813 37.9369 85.2995C38.4959 84.8917 39.1347 84.6066 39.8115 84.4628C40.5144 84.3086 41.2457 84.3451 41.9297 84.5687C42.8252 84.9294 43.6635 85.4181 44.4186 86.0196C45.1685 86.5785 45.8416 87.2337 46.4203 87.9684C46.9079 88.5466 47.1942 89.2678 47.2358 90.023C47.1677 90.6844 46.9504 91.3218 46.6003 91.887C46.3092 92.3318 46.1478 92.8489 46.1343 93.3804C46.2269 93.8704 46.4714 94.3188 46.8333 94.6619C47.1459 95.0004 47.5021 95.296 47.8924 95.5409C48.1739 95.7551 48.4939 95.9133 48.835 96.0069C49.1435 96.0239 49.4489 95.9382 49.7035 95.7633C50.1687 95.5365 50.5943 95.2361 50.9638 94.8737C51.4404 94.4289 51.9064 93.8146 52.5736 93.2321C53.341 92.6345 54.1808 92.1363 55.0731 91.7494C56.0157 91.3257 57.0324 90.955 58.1869 90.3725C59.2843 89.7838 60.3454 89.1295 61.3641 88.4132C61.8864 88.0851 62.3574 87.6818 62.7622 87.2164C63.0799 86.8351 63.4082 86.3586 63.8213 85.8714C64.3072 85.3 64.8385 84.7687 65.4099 84.2827C66.0877 83.679 66.9562 82.9906 67.7611 82.4081C68.566 81.8256 69.2756 81.349 69.9534 80.8195C70.5774 80.3765 71.14 79.853 71.6268 79.2626C71.8889 78.8811 72.0123 78.4213 71.9763 77.9599C71.9763 77.5786 71.9763 77.2609 71.9763 76.9008C71.9763 76.5407 71.9763 76.0853 71.9763 75.7464C71.9786 75.465 72.04 75.1871 72.1564 74.9309C72.2958 74.671 72.4665 74.4291 72.6647 74.2107C72.8809 73.9462 73.1342 73.7144 73.4167 73.5223C73.7481 73.36 74.1077 73.2629 74.4758 73.2363C74.9764 73.1564 75.4839 73.128 75.9903 73.1516C76.3586 73.1518 76.7122 73.2963 76.9752 73.5541C77.1341 73.7447 77.0812 73.9671 76.7634 74.1472C76.4457 74.3272 75.8208 74.4967 75.4607 74.6873C75.3189 74.7486 75.1988 74.851 75.1157 74.9812C75.0327 75.1115 74.9905 75.2636 74.9947 75.4181C74.9636 75.8093 74.9636 76.2024 74.9947 76.5937C74.9939 76.9157 75.0367 77.2363 75.1218 77.5469C75.2066 77.7587 75.3654 77.8434 75.5349 77.6634C75.7222 77.3713 75.875 77.0586 75.9903 76.7313C76.0857 76.4892 76.2299 76.2693 76.4139 76.0853C76.5728 75.9582 76.7634 75.8735 76.8164 76.0218C76.8282 76.3138 76.7997 76.606 76.7317 76.8902C76.7317 77.2185 76.7317 77.5045 76.6575 77.7481C76.6194 77.9873 76.5368 78.2172 76.4139 78.4259C76.2543 78.7256 76.0427 78.9945 75.7891 79.2202C75.5119 79.4127 75.2176 79.5793 74.91 79.718C74.5353 79.9406 74.1808 80.1957 73.8509 80.4806C73.1999 81.0405 72.6073 81.6651 72.0822 82.3446C71.3726 83.2448 70.6313 84.4628 69.7628 85.596C68.94 86.7078 68.0222 87.7461 67.0197 88.6992C66.1195 89.5147 65.3146 90.076 64.5414 90.7326C63.7683 91.3893 63.0375 92.1306 62.0314 93.105C61.0252 94.0794 59.7543 95.2867 58.8541 96.0917C58.2364 96.5629 57.7241 97.1582 57.3502 97.8392C57.138 98.508 57.1123 99.2221 57.276 99.9044C57.4349 100.773 57.7632 101.821 57.9221 103.23C58.0518 104.901 58.0518 106.579 57.9221 108.25C57.8268 110.114 57.6467 112.095 57.5514 113.546C57.4226 114.812 57.5708 116.091 57.9856 117.295C58.6026 118.779 59.3654 120.198 60.2627 121.531C61.3218 123.162 62.3809 125.005 63.44 126.763C64.4991 128.521 65.3781 130.205 66.1513 131.72C66.9244 133.234 67.5387 134.6 68.0682 135.67C68.5978 136.74 69.032 137.502 69.3286 138.286C69.639 139.202 69.8624 140.145 69.9958 141.103C70.2076 142.321 70.4724 143.942 70.5995 145.34C70.7117 146.749 70.7435 148.163 70.6948 149.576C70.6948 151.122 70.5889 152.944 70.4406 154.872C70.2923 156.799 70.0593 158.886 69.9852 160.294C69.8774 161.212 69.8774 162.14 69.9852 163.058C70.0624 163.597 70.2269 164.119 70.4724 164.605C70.7406 165.111 71.0413 165.599 71.3726 166.066C71.6885 166.483 71.9684 166.926 72.2093 167.39C72.4534 167.812 72.6017 168.282 72.6435 168.767C72.6435 169.095 72.3364 169.138 71.8916 169.191C71.4468 169.244 70.8325 169.296 70.2923 169.339C69.869 169.428 69.4292 169.399 69.0214 169.254C68.7355 169.095 68.6296 168.735 68.4389 168.375C68.2262 167.974 67.9427 167.616 67.6022 167.316C67.1934 166.963 66.7457 166.657 66.2678 166.405C65.8759 166.204 65.6217 166.14 65.5052 165.77C65.3795 165.255 65.3795 164.717 65.5052 164.202C65.6753 163.718 65.8733 163.244 66.0983 162.783C66.3669 162.03 66.5204 161.241 66.5537 160.442C66.6258 159.474 66.5938 158.502 66.4584 157.54C66.2597 156.469 66.0052 155.408 65.6959 154.363C65.3358 153.082 64.8486 151.377 64.5414 149.735C64.272 148.218 64.0952 146.687 64.0119 145.149C63.9378 143.804 63.9166 142.703 63.8107 141.972C63.7357 141.309 63.475 140.681 63.0587 140.161C62.5821 139.515 61.8407 138.604 60.7711 137.248C59.7014 135.893 58.3034 134.071 57.0854 132.472C55.8674 130.872 54.8189 129.4 54.1517 128.574C53.4845 127.748 53.1773 127.515 52.7749 127.589C52.3724 127.663 51.8958 127.928 50.985 129.083C50.0742 130.237 48.7503 132.26 47.67 133.923C46.5897 135.585 45.7742 136.782 44.7469 138.286C43.6381 139.815 42.6298 141.414 41.7285 143.073C41.095 144.451 40.6224 145.898 40.3199 147.384C39.825 149.369 39.1879 151.315 38.4135 153.209C37.5027 155.401 36.2953 157.795 35.5222 159.436C35.0156 160.53 34.6114 161.668 34.3148 162.836C34.1242 163.599 33.9865 164.213 33.8276 164.721C33.6732 165.168 33.4965 165.606 33.2981 166.034C33.1286 166.448 32.9803 166.892 32.8638 167.274C32.7473 167.655 32.6626 167.92 32.5885 168.131C32.5661 168.24 32.5135 168.341 32.4367 168.422C32.3599 168.502 32.2621 168.559 32.1542 168.587C31.6318 168.719 31.0938 168.78 30.555 168.767C29.7077 168.767 28.5321 168.767 27.8013 168.767C27.0706 168.767 26.8164 168.767 26.7422 168.364C26.7367 167.738 26.9214 167.125 27.2718 166.606C27.7172 165.962 28.2283 165.366 28.7969 164.827C29.2629 164.361 29.4959 164.065 29.856 163.768C30.2739 163.432 30.6319 163.027 30.9151 162.571C31.4411 161.618 31.7757 160.571 31.9001 159.489C32.1225 158.038 32.1542 156.09 32.3872 154.141C32.5911 152.144 33.0539 150.182 33.7641 148.305C34.5054 146.388 35.6069 144.503 36.2847 143.01C36.8143 141.854 37.2122 140.643 37.4709 139.398C37.6933 138.413 37.8522 137.555 38.1911 136.337C38.53 135.119 39.0596 133.552 39.5573 132.175C40.0452 130.778 40.6037 129.406 41.2307 128.066C41.9509 126.53 42.9253 124.666 43.6772 123.3C44.2919 122.27 44.8539 121.209 45.3612 120.123C45.7726 119.184 46.0541 118.193 46.1979 117.178C46.3255 116.228 46.2533 115.261 45.9861 114.34C45.6467 113.215 45.2072 112.124 44.6728 111.078C44.2366 110.151 43.7303 109.259 43.1583 108.409C42.8588 107.918 42.4624 107.492 41.9933 107.159C41.6407 106.943 41.2306 106.84 40.8177 106.863C40.1941 106.91 39.5894 107.099 39.049 107.413C38.2335 107.816 37.1532 108.473 35.9352 109.14C34.7132 109.784 33.4582 110.364 32.1754 110.877C31.1778 111.283 30.1597 111.636 29.1252 111.936C28.5743 112.124 28.0009 112.238 27.4201 112.275C27.1311 112.276 26.8466 112.203 26.594 112.063C26.387 111.98 26.1884 111.877 26.0009 111.756C25.7609 111.619 25.5574 111.426 25.4078 111.194C25.1006 110.686 24.8888 110.126 24.7829 109.542C24.5287 108.568 24.1898 107.032 23.8933 105.306C23.5967 103.579 23.3531 101.599 23.1625 100.01C22.9719 98.4217 22.8554 97.3732 22.76 96.6742C22.7348 96.2806 22.6564 95.8923 22.527 95.5197C22.4484 95.3448 22.3193 95.1973 22.1564 95.0961L21.4362 94.6301C21.0658 94.401 20.7119 94.1462 20.3771 93.8675C20.0824 93.6013 19.8226 93.2988 19.6039 92.9673C19.2922 92.5016 19.0228 92.009 18.799 91.4952C18.5821 90.9702 18.4224 90.4233 18.3224 89.8642C18.2475 89.5096 18.262 89.142 18.3648 88.7945V88.7945Z" fill="#A92819"/>
<path d="M16.0866 121.436L18.639 123.554C18.5119 123.65 6.08871 139.144 10.9923 153.304L7.87858 154.363C2.3501 138.477 15.5253 122.124 16.0866 121.436Z" fill="#4C8BCA"/>
<path d="M18.2377 80.7456L17.8035 80.7986L18.2377 80.7456Z" fill="#1D1D1B"/>
<path d="M15.3049 81.6245C15.163 81.6867 15.0251 81.7574 14.8918 81.8363L15.3049 81.6245Z" fill="#1D1D1B"/>
<path d="M10.7594 12.0739C11.9935 12.0739 12.9941 11.0734 12.9941 9.83919C12.9941 8.605 11.9935 7.60449 10.7594 7.60449C9.52517 7.60449 8.52466 8.605 8.52466 9.83919C8.52466 11.0734 9.52517 12.0739 10.7594 12.0739Z" fill="#2A3277"/>
<path d="M9.28694 192.946C10.5211 192.946 11.5216 191.946 11.5216 190.712C11.5216 189.478 10.5211 188.477 9.28694 188.477C8.05275 188.477 7.05225 189.478 7.05225 190.712C7.05225 191.946 8.05275 192.946 9.28694 192.946Z" fill="#2A3277"/>
<path d="M10.7592 16.6805C12.1056 16.6847 13.4231 16.2897 14.5451 15.5453C15.667 14.801 16.5432 13.7407 17.0628 12.4986C17.5824 11.2565 17.7221 9.88818 17.4643 8.56666C17.2065 7.24513 16.5628 6.02969 15.6144 5.07392C14.666 4.11816 13.4556 3.46497 12.1361 3.19691C10.8167 2.92884 9.44732 3.05793 8.20118 3.56787C6.95505 4.0778 5.88804 4.94569 5.135 6.06185C4.38196 7.17801 3.97668 8.49235 3.97039 9.83877C3.96621 10.734 4.13857 11.6212 4.47761 12.4497C4.81665 13.2782 5.31571 14.0318 5.94625 14.6672C6.57679 15.3027 7.32643 15.8076 8.15229 16.1531C8.97815 16.4985 9.86401 16.6778 10.7592 16.6805V16.6805ZM1.46033 9.83877C1.45824 7.99918 2.00183 6.20029 3.02233 4.66971C4.04282 3.13912 5.49438 1.94561 7.19334 1.24018C8.8923 0.534745 10.7623 0.349085 12.5668 0.706687C14.3713 1.06429 16.0292 1.94909 17.3308 3.24913C18.6323 4.54918 19.519 6.20606 19.8786 8.01016C20.2383 9.81425 20.0548 11.6845 19.3513 13.3843C18.6478 15.084 17.4559 16.5369 15.9265 17.5592C14.3971 18.5814 12.5988 19.1271 10.7592 19.1271C8.29483 19.1271 5.93123 18.1488 4.18765 16.4072C2.44408 14.6656 1.46314 12.3031 1.46033 9.83877V9.83877Z" fill="#179E6C"/>
<path d="M16.0983 190.722C16.0983 189.376 15.6994 188.06 14.9521 186.941C14.2047 185.822 13.1424 184.949 11.8992 184.433C10.6561 183.917 9.28793 183.78 7.9675 184.042C6.64707 184.303 5.43361 184.949 4.48038 185.899C3.52715 186.85 2.87689 188.061 2.61174 189.381C2.34659 190.7 2.47843 192.069 2.99062 193.314C3.5028 194.558 4.37236 195.623 5.48947 196.374C6.60657 197.125 7.92113 197.528 9.26711 197.532C10.1632 197.535 11.051 197.361 11.8797 197.02C12.7084 196.679 13.4616 196.178 14.0962 195.545C14.7308 194.912 15.2343 194.161 15.5779 193.333C15.9214 192.506 16.0983 191.618 16.0983 190.722V190.722ZM6.01346e-06 190.722C-0.00208545 188.884 0.54142 187.086 1.56169 185.557C2.58197 184.028 4.03312 182.835 5.73138 182.131C7.42964 181.427 9.29863 181.243 11.1017 181.602C12.9047 181.961 14.5606 182.847 15.8598 184.148C17.159 185.448 18.043 187.105 18.3999 188.909C18.7568 190.712 18.5704 192.581 17.8645 194.278C17.1585 195.976 15.9647 197.426 14.4343 198.444C12.9038 199.463 11.1055 200.004 9.26711 200C6.80921 199.994 4.45374 199.015 2.71673 197.276C0.979716 195.537 0.00280226 193.18 6.01346e-06 190.722V190.722Z" fill="#179E6C"/>
</svg>
