<svg width="187" height="200" viewBox="0 0 187 200" fill="none" xmlns="http://www.w3.org/2000/svg">
<path d="M185.038 58.7075H165.418V62.1113H185.038V58.7075Z" fill="#179E6C"/>
<path d="M185.038 49.6377H165.418V53.0415H185.038V49.6377Z" fill="#A92819"/>
<path d="M184.945 40.8555H165.324V44.2592H184.945V40.8555Z" fill="#179E6C"/>
<path d="M183.619 172.606L183.156 175.115C183.033 175.115 171.104 173.058 163.824 179.619C159.381 183.65 157.499 190.128 158.229 198.9L155.679 199.106C154.887 189.501 157.047 182.303 162.117 177.716C170.343 170.271 183.074 172.503 183.619 172.606Z" fill="#2A3277"/>
<path d="M183.147 27.3328L183.435 30.7263C182.119 30.8394 180.854 30.8908 179.63 30.8908C171.763 30.8908 165.747 28.6285 161.686 24.1553C154.096 15.7744 156.379 2.8277 156.482 2.29297L159.824 2.90997C159.824 3.02308 157.768 14.7666 164.226 21.8827C168.154 26.2222 174.56 28.0526 183.147 27.3328Z" fill="#2A3277"/>
<path d="M174.763 71.8394C175.596 72.6723 195.021 92.663 182.208 128.531L179.01 127.39C191.062 93.6297 173.118 75.0169 172.347 74.2456L174.763 71.8394Z" fill="#4C8BCA"/>
<path d="M182.579 152.645L167.257 167.967L151.935 152.645L167.257 137.333L182.579 152.645ZM167.257 164.358L178.97 152.645L167.257 140.943L155.555 152.645L167.257 164.358Z" fill="#179E6C"/>
<path d="M175.073 180.873C176.964 180.875 178.812 181.438 180.383 182.49C181.954 183.542 183.178 185.036 183.901 186.784C184.623 188.532 184.811 190.454 184.441 192.309C184.071 194.163 183.159 195.866 181.821 197.203C180.483 198.539 178.779 199.449 176.924 199.817C175.069 200.185 173.147 199.995 171.4 199.271C169.653 198.547 168.16 197.321 167.11 195.749C166.059 194.176 165.499 192.328 165.499 190.437C165.502 187.899 166.511 185.467 168.306 183.673C170.102 181.88 172.535 180.873 175.073 180.873V180.873ZM182.086 190.437C182.088 189.047 181.677 187.687 180.906 186.531C180.135 185.374 179.039 184.472 177.755 183.939C176.471 183.406 175.058 183.267 173.695 183.537C172.331 183.808 171.079 184.477 170.096 185.46C169.113 186.443 168.444 187.695 168.173 189.059C167.903 190.422 168.042 191.835 168.575 193.119C169.108 194.403 170.01 195.499 171.167 196.27C172.323 197.041 173.683 197.452 175.073 197.45C176.932 197.447 178.714 196.707 180.029 195.393C181.343 194.078 182.083 192.296 182.086 190.437Z" fill="#179E6C"/>
<path d="M174.723 1.34717C176.617 1.34514 178.469 1.9049 180.044 2.95564C181.62 4.00638 182.849 5.50089 183.575 7.25008C184.301 8.99928 184.492 10.9246 184.124 12.7824C183.756 14.6402 182.845 16.347 181.506 17.687C180.168 19.0269 178.462 19.9397 176.604 20.31C174.747 20.6802 172.822 20.4912 171.072 19.7669C169.322 19.0426 167.826 17.8155 166.773 16.2409C165.721 14.6663 165.159 12.8149 165.159 10.9209C165.162 8.38443 166.17 5.95244 167.963 4.15789C169.755 2.36335 172.186 1.35262 174.723 1.34717V1.34717ZM181.756 10.9209C181.756 9.53385 181.345 8.17791 180.574 7.0246C179.804 5.87128 178.709 4.97238 177.427 4.44157C176.146 3.91075 174.735 3.77187 173.375 4.04247C172.015 4.31308 170.765 4.98102 169.784 5.96184C168.803 6.94265 168.135 8.19229 167.865 9.55272C167.594 10.9132 167.733 12.3233 168.264 13.6048C168.795 14.8863 169.694 15.9816 170.847 16.7522C172 17.5228 173.356 17.9341 174.743 17.9341C176.602 17.9314 178.385 17.1917 179.699 15.877C181.014 14.5624 181.754 12.7801 181.756 10.9209V10.9209Z" fill="#179E6C"/>
<path d="M175.074 192.74C176.346 192.74 177.377 191.708 177.377 190.436C177.377 189.164 176.346 188.133 175.074 188.133C173.802 188.133 172.771 189.164 172.771 190.436C172.771 191.708 173.802 192.74 175.074 192.74Z" fill="#2A3277"/>
<path d="M174.722 13.2241C175.995 13.2241 177.026 12.1928 177.026 10.9206C177.026 9.64848 175.995 8.61719 174.722 8.61719C173.45 8.61719 172.419 9.64848 172.419 10.9206C172.419 12.1928 173.45 13.2241 174.722 13.2241Z" fill="#2A3277"/>
<path d="M172.257 152.646L167.259 157.643L162.271 152.646L167.259 147.658L172.257 152.646Z" fill="#2A3277"/>
<path d="M162.488 74.3379C172.267 87.2845 174.827 105.445 170.19 128.305L166.858 127.626C171.321 105.784 168.915 88.5494 159.804 76.4151C148.029 60.805 128.779 59.1391 128.594 59.1186L128.851 55.7354C129.694 55.7971 149.767 57.4938 162.488 74.3379Z" fill="#4C8BCA"/>
<path d="M148.985 172.338L151.782 174.271C142.28 188.03 130.341 192.041 119.595 192.041C104.849 192.041 92.5087 184.462 92.2927 184.328L94.1026 181.449C100.209 184.978 106.93 187.316 113.908 188.339C128.511 190.282 140.305 184.904 148.985 172.338Z" fill="#4C8BCA"/>
<path d="M145.191 99.3369V116.479H132.686L129.776 117.024C129.146 115.603 128.265 114.307 127.174 113.199H141.91V102.576H41.2779V113.168H55.7979C54.392 114.642 53.3097 116.393 52.6204 118.31L49.8645 117.497C49.9981 117.168 50.1421 116.829 50.2964 116.469H38.0078V99.3369H145.191Z" fill="#A92819"/>
<path d="M144.356 153.036C144.726 158.97 141.271 167.854 132.726 173.603C128.797 176.318 120.55 179.269 111.285 177.171C104.763 175.62 98.809 172.267 94.1016 167.494L96.3022 165.304C100.465 169.365 105.61 172.277 111.234 173.757C120.036 175.752 126.144 173.757 130.36 171.279C138.926 166.209 141.672 157.664 141.035 152.522C140.779 149.344 139.696 146.288 137.891 143.659C136.087 141.03 133.625 138.92 130.751 137.539C128.799 136.63 126.718 136.03 124.581 135.76L124.005 135.678C127.098 133.827 129.396 130.897 130.455 127.452C131.515 124.008 131.261 120.293 129.743 117.024L132.654 116.479C134.13 119.324 134.689 122.556 134.257 125.731C133.824 128.907 132.42 131.871 130.237 134.218C137.127 135.822 143.41 142.773 144.356 153.036Z" fill="#A92819"/>
<path d="M135.944 17.4503C141.94 19.3116 142.865 25.5433 142.001 27.7336C140.808 32.0423 140.706 32.4434 139.513 36.7521C138.867 38.9017 137.41 40.7156 135.45 41.8097C133.491 42.9037 131.182 43.1921 129.014 42.6136C124.9 41.4001 124.283 41.2459 120.098 40.0119C117.957 39.3714 116.141 37.9378 115.021 36.0037C113.901 34.0696 113.562 31.7811 114.072 29.6052C115.306 25.0188 115.398 24.6898 116.653 20.2885C117.389 18.168 118.925 16.4194 120.933 15.4164C122.941 14.4133 125.262 14.2354 127.399 14.9206L135.944 17.4503ZM138.567 27.8982C138.833 27.148 138.939 26.3505 138.878 25.5569C138.818 24.7632 138.592 23.9911 138.215 23.2899C137.838 22.5888 137.319 21.9742 136.691 21.4857C136.062 20.9971 135.339 20.6454 134.566 20.4531L127.255 18.2524C124.684 17.3578 121.352 17.7588 119.851 21.4403C118.823 25.0086 118.473 26.2426 117.476 29.9651C117.107 31.3197 117.252 32.7626 117.882 34.017C118.512 35.2714 119.583 36.2491 120.89 36.7624C124.283 37.7907 126.443 38.3974 129.816 39.3846C131.173 39.7046 132.601 39.5081 133.821 38.8333C135.041 38.1585 135.967 37.0537 136.417 35.734C137.374 32.2789 137.631 31.3945 138.567 27.8982Z" fill="#A92819"/>
<path d="M141.91 102.576V113.168H127.174L124.52 114.279C124.233 113.96 123.903 113.62 123.585 113.333C123.26 113.036 122.917 112.762 122.556 112.51C122.176 112.242 121.734 111.955 121.394 111.739C121.099 111.544 120.794 111.365 120.479 111.204C120.146 111.03 119.802 110.875 119.451 110.741C119.122 110.607 118.854 110.525 118.556 110.433C118.258 110.34 117.908 110.237 117.528 110.145C117.147 110.052 116.798 109.99 116.448 109.929H116.263H138.639V105.887H44.5575V109.929H66.718H66.5329C66.1833 109.99 65.8131 110.062 65.4532 110.145C65.0932 110.227 64.7539 110.33 64.4248 110.433C64.0958 110.535 63.8592 110.607 63.5199 110.741C63.1805 110.875 62.7898 111.039 62.4916 111.204C62.1933 111.368 61.926 111.523 61.5866 111.739C61.2473 111.955 60.8051 112.242 60.4246 112.51C60.0624 112.759 59.7188 113.034 59.3963 113.333C59.0672 113.62 58.7484 113.96 58.4502 114.279C58.1739 114.584 57.9131 114.903 57.6687 115.235C57.4453 115.525 57.2425 115.831 57.062 116.15C56.8769 116.459 56.7123 116.767 56.5478 117.096C56.3833 117.425 56.2085 117.754 56.0645 118.125C55.9205 118.495 55.8074 118.772 55.7046 119.153C55.5889 119.511 55.4927 119.875 55.4166 120.243C55.317 120.718 55.2449 121.199 55.2007 121.683C55.2007 122.197 55.139 122.711 55.2007 123.369C55.2169 124.025 55.2857 124.678 55.4064 125.323C55.5375 125.996 55.7267 126.657 55.9719 127.297C56.1855 127.842 56.4363 128.371 56.7226 128.881C56.9688 129.312 57.2365 129.731 57.5247 130.135C57.7818 130.506 58.0492 130.835 58.3063 131.164C58.5787 131.483 58.8706 131.785 59.1803 132.069C59.5094 132.367 59.9104 132.686 60.3012 132.974C60.6637 133.255 61.0413 133.516 61.4324 133.755C62.3181 134.256 63.2606 134.65 64.2397 134.927C64.9557 135.088 65.6862 135.174 66.4198 135.185C67.8591 135.224 69.2817 134.868 70.5331 134.156C71.1541 133.807 71.7192 133.367 72.2093 132.85C72.6585 132.379 73.0424 131.85 73.3507 131.277C73.6299 130.775 73.8441 130.239 73.9883 129.683C74.1349 129.154 74.1974 128.606 74.1734 128.058C74.1646 127.382 74.0465 126.712 73.8238 126.074C73.637 125.546 73.3774 125.048 73.0525 124.593L75.428 124.181C78.6569 128.531 76.9602 134.917 70.9547 137.313C73.6359 138.198 75.9126 140.011 77.374 142.427C78.8354 144.842 79.3852 147.701 78.9243 150.486L76.3535 150.075C76.4806 149.16 76.4423 148.23 76.2403 147.329C75.9186 145.89 75.2792 144.541 74.3688 143.38C73.5148 142.295 72.4692 141.375 71.2838 140.666C70.0443 139.897 68.7005 139.312 67.2939 138.928C65.7031 138.5 64.0665 138.265 62.4196 138.228C61.3882 138.202 60.3563 138.26 59.3346 138.403L58.9541 135.678C57.0293 134.471 55.4012 132.846 54.1906 130.923C52.98 129 52.2181 126.83 51.9615 124.572C51.7022 122.509 51.9135 120.414 52.5796 118.444C53.2456 116.474 54.3492 114.681 55.8074 113.199H41.2771V102.576H141.91Z" fill="white"/>
<path d="M141.035 152.522C141.631 157.663 138.927 166.209 130.361 171.279C126.145 173.726 120.077 175.752 111.234 173.757C103.029 171.657 95.9539 166.465 91.4898 159.268C87.4297 165.459 81.5267 170.218 74.6149 172.872C68.6281 175.075 62.0573 175.1 56.0536 172.944C51.6729 171.474 42.3562 164.965 41.9037 155.339C41.7941 151.991 42.53 148.669 44.0433 145.68C45.5566 142.691 47.7986 140.132 50.5623 138.238C53.079 136.639 55.983 135.754 58.9637 135.678L59.3442 138.403C58.8187 138.463 58.2969 138.553 57.7812 138.67C56.4774 138.95 55.2108 139.382 54.0072 139.956C52.9021 140.469 51.8657 141.118 50.9222 141.889C49.9556 142.673 49.0795 143.563 48.3102 144.542C47.7219 145.332 47.2154 146.179 46.7986 147.072C46.4695 147.781 46.2639 148.306 46.089 148.768C45.9142 149.231 45.7908 149.642 45.688 150.033C45.5852 150.424 45.5235 150.794 45.4515 151.164C45.3795 151.535 45.3178 151.884 45.2664 152.244C45.215 152.604 45.1738 152.954 45.1533 153.355C45.1327 153.756 45.1533 154.208 45.1533 154.62C45.1525 155.008 45.1731 155.396 45.215 155.782C45.2487 156.178 45.3036 156.573 45.3795 156.964C45.4618 157.386 45.5749 157.849 45.7086 158.311C45.8361 158.761 45.9871 159.204 46.161 159.638C46.3199 160.065 46.5089 160.481 46.7266 160.882C46.9426 161.283 47.2099 161.694 47.4567 162.085C47.7035 162.476 47.9503 162.846 48.2383 163.227C48.5262 163.607 48.8553 164.019 49.2049 164.43C49.5545 164.841 49.935 165.232 50.2332 165.582C50.5314 165.931 50.9325 166.25 51.2615 166.517C51.5539 166.773 51.8594 167.013 52.1768 167.237C52.4853 167.463 52.804 167.669 53.1023 167.854C53.4005 168.039 53.6576 168.214 53.9455 168.379C54.2334 168.543 54.5419 168.728 54.871 168.893C55.2001 169.057 55.5394 169.232 55.8993 169.386C56.2592 169.541 56.5472 169.674 56.866 169.798C57.1847 169.921 57.5035 170.034 57.8943 170.137L58.9226 170.446C59.3134 170.548 59.735 170.651 60.1772 170.744C60.6194 170.836 61.0718 170.919 61.5243 170.991L62.8097 171.155L63.9306 171.248C64.2905 171.248 64.6299 171.248 65.0309 171.248C65.4319 171.248 65.9153 171.248 66.3472 171.248C66.7791 171.248 67.1904 171.196 67.5503 171.155L68.5786 171.042L69.607 170.898C69.9258 170.836 70.224 170.785 70.5633 170.703C70.9027 170.62 71.314 170.528 71.715 170.415C72.1161 170.302 72.5583 170.178 73.0005 170.024C73.4426 169.87 73.9157 169.705 74.4504 169.489C74.9851 169.273 75.5919 168.985 76.0854 168.749C76.579 168.512 76.9493 168.307 77.3606 168.08C77.7719 167.854 78.2038 167.587 78.6563 167.299C79.1087 167.011 79.5921 166.702 80.1268 166.322C80.6615 165.942 81.2271 165.489 81.8133 165.006C82.3994 164.522 83.0164 163.977 83.5614 163.525C84.1064 163.072 84.5897 162.497 85.1553 161.931C85.7209 161.365 86.3276 160.635 86.9138 159.874C87.4999 159.113 88.0552 158.394 88.5282 157.725C89.0013 157.057 89.3612 156.491 89.7006 155.936C90.0399 155.381 90.3278 154.908 90.6158 154.332L91.4179 152.789L91.5413 152.532L91.6647 152.789C91.9115 153.29 92.1788 153.804 92.4668 154.332C92.7547 154.856 93.0426 155.36 93.382 155.936C93.7213 156.512 94.0915 157.067 94.5543 157.725C95.017 158.383 95.5826 159.155 96.1687 159.874C96.7549 160.594 97.3719 161.304 97.9272 161.931C98.4825 162.558 98.9555 163.021 99.5108 163.525C100.066 164.029 100.673 164.553 101.259 165.006C101.845 165.458 102.431 165.942 102.956 166.322C103.48 166.702 103.984 167.011 104.416 167.299C104.848 167.587 105.311 167.854 105.722 168.08C106.133 168.307 106.503 168.502 106.997 168.749C107.491 168.996 108.097 169.263 108.632 169.489C109.167 169.715 109.66 169.88 110.072 170.024C110.483 170.168 110.946 170.302 111.357 170.415C111.769 170.528 112.17 170.631 112.509 170.703C112.848 170.775 113.157 170.836 113.476 170.898L114.504 171.042L115.532 171.155C115.892 171.155 116.293 171.227 116.725 171.248C117.157 171.268 117.64 171.248 118.052 171.248C118.463 171.248 118.792 171.248 119.142 171.248L120.263 171.155C120.674 171.155 121.106 171.052 121.558 170.991C122.011 170.929 122.463 170.836 122.905 170.744C123.348 170.651 123.769 170.548 124.15 170.446L125.178 170.137C125.507 170.034 125.826 169.921 126.145 169.798C126.463 169.674 126.792 169.53 127.173 169.386C127.553 169.242 127.841 169.068 128.201 168.893C128.561 168.718 128.839 168.553 129.127 168.379C129.415 168.204 129.672 168.05 129.97 167.854C130.268 167.659 130.587 167.463 130.895 167.237C131.204 167.011 131.492 166.785 131.811 166.517C132.169 166.223 132.513 165.911 132.839 165.582C133.199 165.232 133.579 164.831 133.929 164.43C134.279 164.029 134.608 163.617 134.896 163.227C135.184 162.836 135.42 162.476 135.667 162.085C135.914 161.694 136.181 161.283 136.407 160.882C136.625 160.481 136.814 160.065 136.973 159.638C137.137 159.216 137.292 158.764 137.425 158.311C137.559 157.859 137.672 157.386 137.754 156.964C137.83 156.573 137.885 156.178 137.919 155.782C137.919 155.401 137.981 155.031 137.981 154.62C137.981 154.208 137.981 153.756 137.981 153.355C137.981 152.954 137.909 152.594 137.857 152.244C137.806 151.895 137.744 151.535 137.682 151.164C137.621 150.794 137.549 150.424 137.446 150.033C137.343 149.642 137.209 149.241 137.035 148.768C136.829 148.19 136.592 147.624 136.325 147.072C135.916 146.177 135.413 145.329 134.824 144.542C134.054 143.563 133.178 142.673 132.212 141.889C131.268 141.118 130.232 140.469 129.127 139.956C127.873 139.372 126.555 138.94 125.199 138.67C124.88 138.598 124.551 138.536 124.17 138.485L124.54 135.76C126.677 136.03 128.758 136.63 130.71 137.539C133.592 138.914 136.062 141.022 137.874 143.651C139.686 146.281 140.776 149.339 141.035 152.522Z" fill="white"/>
<path d="M134.598 20.4537C135.368 20.6495 136.088 21.0037 136.713 21.4938C137.338 21.9838 137.853 22.5989 138.227 23.2996C138.601 24.0004 138.824 24.7714 138.883 25.5633C138.941 26.3552 138.834 27.1507 138.568 27.8988C137.601 31.3951 137.344 32.2795 136.387 35.7758C135.937 37.0955 135.011 38.2002 133.791 38.875C132.571 39.5498 131.143 39.7464 129.786 39.4264C126.413 38.398 124.253 37.8119 120.86 36.8041C119.544 36.3003 118.461 35.3267 117.821 34.0713C117.181 32.8159 117.029 31.3678 117.394 30.0069C118.423 26.2843 118.741 25.0503 119.77 21.482C121.271 17.8006 124.603 17.3687 127.174 18.2942L134.598 20.4537ZM135.082 27.0144C135.266 26.3586 135.183 25.6565 134.852 25.0613C134.52 24.466 133.967 24.0259 133.313 23.8369L126.114 21.7185C125.474 21.5446 124.79 21.6306 124.212 21.958C123.635 22.2854 123.21 22.8276 123.029 23.4667C122.371 25.9038 121.754 28.0325 121.086 30.521C120.997 30.868 120.98 31.2296 121.037 31.5834C121.093 31.9371 121.222 32.2755 121.415 32.5773C121.608 32.8792 121.861 33.1382 122.158 33.3382C122.455 33.5381 122.79 33.6748 123.143 33.7397L129.827 35.7347C130.155 35.8589 130.505 35.9133 130.855 35.8945C131.205 35.8756 131.547 35.7839 131.86 35.6251C132.173 35.4664 132.449 35.2441 132.671 34.9726C132.892 34.7011 133.055 34.3862 133.148 34.0482C133.8 31.6899 134.444 29.3453 135.082 27.0144V27.0144Z" fill="white"/>
<path d="M138.64 105.887V109.929H116.264H116.449C116.799 109.99 117.169 110.062 117.529 110.145C117.889 110.227 118.228 110.33 118.557 110.433C118.886 110.535 119.123 110.607 119.452 110.741C119.803 110.875 120.146 111.03 120.48 111.204C120.795 111.365 121.1 111.543 121.395 111.739C121.735 111.954 122.177 112.242 122.557 112.51C122.917 112.761 123.261 113.036 123.586 113.332C123.904 113.62 124.233 113.96 124.521 114.278C124.804 114.581 125.068 114.901 125.313 115.235C125.537 115.525 125.739 115.831 125.92 116.15C126.105 116.459 126.269 116.767 126.434 117.096C126.599 117.425 126.773 117.754 126.907 118.124C127.041 118.495 127.164 118.772 127.277 119.153C127.393 119.511 127.489 119.874 127.565 120.243C127.666 120.718 127.735 121.198 127.771 121.682C127.808 122.244 127.808 122.807 127.771 123.369C127.763 124.025 127.698 124.679 127.575 125.323C127.441 125.996 127.248 126.657 127 127.297C126.795 127.845 126.543 128.375 126.249 128.881C126.01 129.314 125.745 129.733 125.457 130.135C125.19 130.506 124.933 130.835 124.665 131.164C124.399 131.485 124.111 131.788 123.802 132.069C123.472 132.367 123.061 132.686 122.681 132.974C122.316 133.257 121.935 133.518 121.539 133.755C120.656 134.261 119.713 134.655 118.732 134.927C118.016 135.088 117.285 135.174 116.552 135.184C115.859 135.2 115.168 135.124 114.495 134.958C113.775 134.78 113.083 134.503 112.438 134.136C110.747 133.152 109.507 131.547 108.983 129.662C108.847 129.132 108.784 128.585 108.798 128.038C108.814 126.601 109.33 125.216 110.258 124.12C110.733 123.51 111.333 123.009 112.017 122.649C112.669 122.26 113.441 122.124 114.187 122.269C114.45 122.378 114.678 122.558 114.847 122.788C115.016 123.018 115.118 123.29 115.143 123.575C115.16 123.773 115.125 123.973 115.04 124.154C114.955 124.334 114.824 124.489 114.66 124.603C114.403 124.819 114.115 124.973 113.868 125.21C113.607 125.454 113.382 125.735 113.199 126.043C113.036 126.31 112.904 126.597 112.809 126.896C112.72 127.166 112.669 127.446 112.654 127.729C112.628 127.972 112.628 128.216 112.654 128.459C112.683 128.709 112.742 128.954 112.829 129.189C112.91 129.413 113.017 129.627 113.148 129.827C113.248 129.987 113.365 130.135 113.498 130.269C113.644 130.42 113.806 130.555 113.981 130.67C114.192 130.82 114.416 130.95 114.649 131.061C114.926 131.185 115.216 131.279 115.513 131.338C115.852 131.399 116.197 131.423 116.541 131.41C116.888 131.392 117.232 131.344 117.57 131.267C117.951 131.167 118.32 131.026 118.67 130.845C119.108 130.627 119.519 130.357 119.894 130.043C120.332 129.674 120.722 129.253 121.056 128.788C121.463 128.249 121.808 127.666 122.084 127.05C122.323 126.456 122.485 125.834 122.568 125.199C122.644 124.668 122.662 124.13 122.619 123.595C122.569 123.126 122.466 122.663 122.31 122.217C122.171 121.815 121.996 121.426 121.786 121.055C121.559 120.651 121.29 120.272 120.984 119.924C120.537 119.397 120.006 118.948 119.411 118.597C118.448 118.082 117.405 117.735 116.326 117.569C114.963 117.348 113.574 117.348 112.212 117.569C110.724 117.797 109.274 118.23 107.904 118.855C106.8 119.383 105.764 120.042 104.819 120.819C104.09 121.397 103.403 122.026 102.762 122.701C102.165 123.328 101.641 123.965 101.137 124.582C100.633 125.199 100.109 125.816 99.6049 126.546C99.0538 127.306 98.5457 128.095 98.083 128.912C97.6472 129.665 97.2724 130.453 96.9621 131.267C96.653 132.074 96.3887 132.898 96.1703 133.735C95.9543 134.506 95.8103 135.164 95.6972 135.791C95.5779 136.365 95.492 136.945 95.4401 137.529C95.3784 138.115 95.3682 138.742 95.3579 139.38C95.3476 140.018 95.3579 140.645 95.4504 141.529C95.5588 142.566 95.7236 143.596 95.944 144.614C96.1821 145.718 96.5265 146.796 96.9724 147.833C97.4875 149.019 98.0677 150.176 98.7102 151.298C99.2549 152.202 99.8595 153.067 100.52 153.89C101.146 154.734 101.834 155.532 102.577 156.276C103.272 156.982 104.006 157.648 104.777 158.27C105.518 158.877 106.238 159.412 106.988 159.916C107.735 160.43 108.518 160.887 109.333 161.283C110.198 161.698 111.096 162.042 112.017 162.312C112.894 162.558 113.787 162.74 114.69 162.857C115.431 162.949 116.176 162.994 116.922 162.991C117.609 162.986 118.296 162.945 118.979 162.867C119.633 162.782 120.282 162.659 120.922 162.497C121.531 162.348 122.132 162.166 122.722 161.952C123.31 161.739 123.88 161.481 124.429 161.181C124.942 160.903 125.434 160.586 125.899 160.235C126.341 159.914 126.767 159.57 127.174 159.206C127.583 158.805 127.955 158.368 128.285 157.9C128.637 157.44 128.95 156.952 129.221 156.44C129.451 156.008 129.644 155.558 129.797 155.093C129.973 154.585 130.117 154.066 130.229 153.54C130.331 153.05 130.386 152.55 130.393 152.049C130.402 151.571 130.374 151.093 130.311 150.62C130.239 150.147 130.136 149.674 130.023 149.231C129.909 148.788 129.744 148.36 129.529 147.956C129.232 147.439 128.888 146.95 128.501 146.496C127.543 145.229 126.26 144.245 124.789 143.648C123.751 143.234 122.661 142.967 121.549 142.856C120.294 142.729 119.027 142.746 117.775 142.907C116.714 143.055 115.677 143.342 114.69 143.761C113.947 144.076 113.254 144.498 112.634 145.015C112.092 145.457 111.636 145.994 111.287 146.599C110.946 147.147 110.721 147.76 110.629 148.398C110.583 148.944 110.664 149.493 110.865 150.003C111.018 150.47 111.271 150.898 111.605 151.257C111.944 151.579 112.347 151.824 112.788 151.977C113.207 152.13 113.648 152.213 114.094 152.224C114.543 152.226 114.988 152.149 115.41 151.998C115.827 151.837 116.208 151.596 116.531 151.288C116.783 150.975 117.09 150.71 117.436 150.507C117.631 150.447 117.836 150.429 118.038 150.454C118.24 150.479 118.434 150.546 118.608 150.651C118.8 150.749 118.964 150.896 119.083 151.076C119.202 151.256 119.272 151.464 119.287 151.679C119.302 152.43 119.043 153.162 118.557 153.736C117.787 154.746 116.701 155.47 115.472 155.792C113.843 156.181 112.131 156.014 110.608 155.319C109.096 154.586 107.893 153.34 107.215 151.802C107.067 151.47 106.947 151.126 106.855 150.774C106.587 149.638 106.587 148.455 106.855 147.319C107.184 145.88 107.827 144.532 108.736 143.37C109.59 142.284 110.636 141.364 111.821 140.655C113.06 139.885 114.404 139.3 115.811 138.917C117.402 138.488 119.039 138.254 120.686 138.218C121.911 138.187 123.137 138.273 124.347 138.475C124.676 138.527 125.005 138.588 125.375 138.66C126.678 138.942 127.945 139.373 129.149 139.946C130.254 140.459 131.29 141.108 132.234 141.879C133.2 142.663 134.077 143.553 134.846 144.532C135.435 145.319 135.938 146.167 136.347 147.062C136.614 147.614 136.851 148.18 137.057 148.758C137.231 149.231 137.365 149.632 137.468 150.023C137.571 150.414 137.633 150.784 137.705 151.154C137.777 151.525 137.828 151.874 137.879 152.234C137.931 152.594 137.972 152.944 138.003 153.345C138.034 153.746 138.003 154.198 138.003 154.61C138.003 155.021 138.003 155.391 137.941 155.772C137.907 156.168 137.852 156.563 137.777 156.954C137.694 157.376 137.571 157.839 137.447 158.301C137.324 158.764 137.16 159.206 136.995 159.628C136.836 160.055 136.647 160.471 136.429 160.872C136.203 161.273 135.946 161.685 135.689 162.075C135.432 162.466 135.206 162.836 134.918 163.217C134.63 163.597 134.301 164.009 133.951 164.42C133.601 164.831 133.221 165.222 132.861 165.572C132.535 165.901 132.191 166.213 131.833 166.507C131.514 166.775 131.226 167.011 130.918 167.227C130.609 167.443 130.28 167.659 129.992 167.844C129.704 168.029 129.437 168.204 129.149 168.369C128.861 168.533 128.552 168.718 128.223 168.883C127.894 169.047 127.555 169.222 127.195 169.376C126.835 169.531 126.537 169.664 126.167 169.788C125.796 169.911 125.529 170.024 125.2 170.127L124.172 170.436C123.791 170.538 123.359 170.641 122.927 170.734C122.496 170.826 122.022 170.909 121.58 170.981C121.138 171.053 120.696 171.104 120.285 171.145L119.164 171.238C118.814 171.238 118.475 171.238 118.074 171.238C117.673 171.238 117.189 171.238 116.747 171.238C116.305 171.238 115.914 171.186 115.554 171.145L114.526 171.032L113.498 170.888C113.179 170.826 112.881 170.775 112.531 170.693C112.181 170.61 111.791 170.518 111.379 170.405C110.968 170.292 110.546 170.168 110.094 170.014C109.641 169.86 109.189 169.695 108.654 169.479C108.119 169.263 107.513 168.975 107.019 168.739C106.526 168.502 106.145 168.297 105.744 168.07C105.343 167.844 104.901 167.577 104.438 167.289C103.975 167.001 103.502 166.692 102.978 166.312C102.453 165.932 101.877 165.479 101.281 164.996C100.685 164.512 100.088 163.967 99.5329 163.515C98.9776 163.062 98.5046 162.487 97.9493 161.921C97.394 161.355 96.777 160.625 96.1908 159.864C95.6047 159.103 95.0391 158.384 94.5763 157.715C94.1136 157.047 93.7434 156.481 93.4041 155.926C93.0647 155.371 92.7768 154.898 92.4888 154.322C92.2009 153.746 91.9335 153.293 91.6867 152.779L91.5633 152.522L91.4399 152.779L90.6378 154.322C90.3499 154.846 90.0517 155.35 89.7226 155.926C89.3936 156.502 89.0131 157.057 88.5503 157.715C88.0876 158.373 87.522 159.145 86.9359 159.864C86.3497 160.584 85.7327 161.294 85.1774 161.921C84.6221 162.548 84.1491 163.011 83.5835 163.515C83.0179 164.019 82.4318 164.543 81.8353 164.996C81.2389 165.448 80.6733 165.932 80.1489 166.312C79.6244 166.692 79.1205 167.001 78.6784 167.289C78.2362 167.577 77.794 167.844 77.3827 168.07C76.9713 168.297 76.6011 168.492 76.1075 168.739C75.6139 168.986 75.0072 169.253 74.4725 169.479C73.9378 169.706 73.4442 169.87 73.0225 170.014C72.6009 170.158 72.1485 170.292 71.7371 170.405C71.3258 170.518 70.935 170.621 70.5854 170.693C70.2358 170.765 69.9478 170.826 69.629 170.888L68.6007 171.032L67.5724 171.145C67.209 171.186 66.808 171.217 66.3692 171.238C65.9373 171.238 65.4643 171.238 65.053 171.238C64.6416 171.238 64.3126 171.238 63.9527 171.238L62.8318 171.145L61.5464 170.981C61.0939 170.909 60.6414 170.826 60.1993 170.734C59.7571 170.641 59.3355 170.538 58.9447 170.436L57.9164 170.127C57.577 170.024 57.2685 169.911 56.888 169.788C56.5075 169.664 56.2505 169.52 55.9214 169.376C55.5923 169.232 55.253 169.058 54.8931 168.883C54.5332 168.708 54.2555 168.543 53.9676 168.369C53.6796 168.194 53.4123 168.04 53.1243 167.844C52.8364 167.649 52.5073 167.453 52.1988 167.227C51.8815 167.003 51.576 166.763 51.2836 166.507C50.9648 166.24 50.6255 165.932 50.2553 165.572C49.8851 165.212 49.5252 164.821 49.227 164.42C48.9288 164.019 48.538 163.608 48.2603 163.217C47.9827 162.826 47.7359 162.466 47.4788 162.075C47.2217 161.685 46.9646 161.273 46.7487 160.872C46.5309 160.471 46.3419 160.055 46.1831 159.628C46.0092 159.194 45.8582 158.751 45.7306 158.301C45.597 157.839 45.4838 157.376 45.4016 156.954C45.3257 156.563 45.2708 156.168 45.237 155.772C45.1952 155.386 45.1746 154.998 45.1753 154.61C45.1753 154.198 45.1753 153.746 45.1753 153.345C45.1753 152.944 45.237 152.584 45.2885 152.234C45.3399 151.885 45.4119 151.525 45.4736 151.154C45.5353 150.784 45.6072 150.414 45.7101 150.023C45.8129 149.632 45.9466 149.231 46.1111 148.758C46.2757 148.285 46.4916 147.73 46.8207 147.062C47.2375 146.169 47.744 145.322 48.3323 144.532C49.1016 143.553 49.9776 142.663 50.9443 141.879C51.8878 141.108 52.9242 140.459 54.0293 139.946C55.2329 139.372 56.4995 138.94 57.8032 138.66C58.319 138.543 58.8408 138.453 59.3663 138.393C60.3881 138.25 61.4199 138.191 62.4513 138.218C64.0983 138.254 65.7348 138.489 67.3256 138.917C68.7128 139.297 70.0389 139.871 71.2641 140.624C72.4496 141.333 73.4951 142.253 74.3491 143.339C75.2595 144.499 75.8989 145.849 76.2206 147.288C76.4226 148.189 76.4609 149.119 76.3338 150.034C76.1601 151.16 75.7145 152.228 75.0354 153.143C74.3562 154.059 73.4642 154.795 72.4364 155.288C70.9094 155.983 69.1943 156.15 67.5621 155.761C66.3345 155.436 65.2495 154.713 64.4771 153.705C63.995 153.13 63.7391 152.398 63.7573 151.648C63.7704 151.433 63.8388 151.226 63.956 151.046C64.0731 150.866 64.235 150.719 64.4257 150.62C64.6001 150.515 64.7945 150.448 64.9965 150.423C65.1985 150.398 65.4034 150.416 65.598 150.476C65.9477 150.675 66.2551 150.94 66.5029 151.257C66.832 151.563 67.2157 151.804 67.6341 151.967C68.0563 152.118 68.5018 152.195 68.9504 152.193C69.3927 152.181 69.8302 152.098 70.246 151.946C70.6913 151.796 71.0984 151.55 71.4389 151.226C71.7707 150.866 72.0199 150.438 72.169 149.972C72.3699 149.462 72.4509 148.913 72.4055 148.368C72.3167 147.729 72.0961 147.117 71.7577 146.568C71.4052 145.965 70.9492 145.429 70.4106 144.984C69.7903 144.468 69.0973 144.045 68.3539 143.73C67.3677 143.311 66.3304 143.024 65.2689 142.876C64.017 142.715 62.7508 142.698 61.495 142.825C60.3835 142.936 59.2932 143.203 58.2557 143.617C57.4273 143.956 56.6543 144.417 55.9625 144.984C55.4322 145.42 54.9558 145.917 54.5434 146.465C54.1608 146.923 53.8168 147.411 53.5151 147.925C53.304 148.33 53.1417 148.758 53.0318 149.201C52.9082 149.657 52.812 150.121 52.7439 150.589C52.6806 151.063 52.6531 151.54 52.6616 152.018C52.6697 152.519 52.7213 153.018 52.8158 153.509C52.9257 154.037 53.0735 154.556 53.258 155.062C53.4111 155.527 53.6038 155.977 53.8339 156.409C54.1052 156.921 54.4182 157.409 54.7697 157.869C55.0953 158.322 55.4601 158.745 55.8597 159.134C56.2636 159.498 56.6858 159.842 57.1245 160.163C57.5939 160.514 58.0889 160.831 58.6053 161.109C59.1537 161.409 59.7244 161.667 60.3124 161.88C60.9015 162.095 61.5023 162.277 62.112 162.425C62.7517 162.588 63.4007 162.711 64.0555 162.795C64.7383 162.873 65.4249 162.914 66.1122 162.919C66.8615 162.922 67.6103 162.877 68.3539 162.785C69.257 162.667 70.1506 162.485 71.0276 162.24C71.9485 161.97 72.8461 161.626 73.7115 161.211C74.5261 160.815 75.3098 160.358 76.0561 159.844C76.7965 159.34 77.5266 158.815 78.2567 158.198C79.0323 157.581 79.7674 156.915 80.4574 156.204C81.2001 155.459 81.8875 154.662 82.514 153.818C83.164 152.932 83.7548 152.005 84.2828 151.041C84.9213 149.917 85.5013 148.76 86.0206 147.576C86.4623 146.537 86.8065 145.46 87.049 144.357C87.2713 143.339 87.4327 142.309 87.5323 141.272C87.6093 140.558 87.6402 139.841 87.6248 139.123C87.6248 138.485 87.6248 137.858 87.5528 137.272C87.501 136.688 87.4151 136.108 87.2958 135.534C87.1826 134.927 87.0284 134.269 86.8227 133.477C86.6043 132.641 86.34 131.817 86.0309 131.009C85.7206 130.196 85.3458 129.408 84.91 128.655C84.4436 127.841 83.9356 127.051 83.3881 126.289C82.8637 125.559 82.3598 124.953 81.8559 124.325C81.352 123.698 80.8276 123.071 80.2209 122.443C79.5783 121.771 78.8912 121.142 78.1642 120.562C77.2185 119.785 76.1827 119.126 75.0792 118.597C73.6825 117.991 72.2081 117.583 70.6985 117.384C69.3363 117.163 67.9474 117.163 66.5852 117.384C65.5237 117.555 64.4983 117.903 63.5516 118.412C62.9537 118.764 62.4185 119.212 61.968 119.739C61.6684 120.09 61.4033 120.469 61.1762 120.87C60.9631 121.24 60.7841 121.629 60.6414 122.032C60.4897 122.479 60.3897 122.941 60.3432 123.41C60.2607 124.587 60.4435 125.768 60.878 126.865C61.1506 127.483 61.4958 128.067 61.9063 128.603C62.2396 129.065 62.6262 129.486 63.058 129.858C63.4365 130.172 63.8507 130.442 64.292 130.66C64.6414 130.842 65.0106 130.984 65.3923 131.081C65.7303 131.159 66.0744 131.207 66.4207 131.225C66.765 131.238 67.1097 131.214 67.449 131.153C67.7464 131.093 68.0362 131 68.3128 130.876C68.5441 130.761 68.7674 130.63 68.9812 130.485C69.1546 130.367 69.3164 130.233 69.4645 130.084C69.5937 129.95 69.7075 129.801 69.8039 129.642C69.934 129.44 70.0443 129.227 70.1329 129.004C70.2172 128.768 70.2725 128.523 70.2975 128.274C70.3236 128.031 70.3236 127.787 70.2975 127.544C70.2733 127.262 70.2216 126.983 70.1432 126.711C70.0481 126.41 69.9132 126.123 69.7422 125.857C69.5669 125.548 69.3449 125.267 69.084 125.025C68.8269 124.788 68.5493 124.634 68.2819 124.418C68.1212 124.302 67.9932 124.146 67.9104 123.966C67.8275 123.786 67.7926 123.587 67.8089 123.389C67.8339 123.105 67.9363 122.833 68.1049 122.603C68.2734 122.373 68.5018 122.193 68.7653 122.084C69.5107 121.939 70.2832 122.074 70.935 122.464C71.6178 122.821 72.2144 123.323 72.6832 123.935C72.8052 124.078 72.9186 124.23 73.0225 124.387C73.3474 124.842 73.607 125.341 73.7938 125.868C74.0165 126.506 74.1346 127.176 74.1434 127.852C74.1674 128.4 74.1049 128.949 73.9583 129.477C73.8141 130.033 73.5999 130.569 73.3208 131.071C73.0124 131.644 72.6285 132.173 72.1793 132.644C71.6892 133.161 71.1242 133.602 70.5031 133.95C69.2518 134.663 67.8291 135.018 66.3898 134.979C65.6562 134.968 64.9257 134.882 64.2097 134.722C63.2306 134.444 62.2881 134.051 61.4024 133.549C61.0114 133.31 60.6337 133.049 60.2712 132.768C59.8805 132.48 59.4794 132.161 59.1504 131.863C58.8406 131.58 58.5487 131.277 58.2763 130.958C58.0192 130.65 57.7518 130.32 57.4947 129.93C57.2065 129.525 56.9388 129.106 56.6926 128.675C56.4064 128.165 56.1556 127.636 55.942 127.091C55.6967 126.451 55.5075 125.79 55.3764 125.117C55.2557 124.472 55.1869 123.819 55.1707 123.163C55.1707 122.546 55.1707 121.991 55.1707 121.477C55.2149 120.993 55.287 120.512 55.3867 120.037C55.4628 119.669 55.5589 119.305 55.6746 118.947C55.7774 118.608 55.9008 118.289 56.0345 117.919C56.1682 117.549 56.343 117.25 56.5178 116.89C56.6926 116.531 56.8469 116.253 57.032 115.944C57.2126 115.625 57.4153 115.32 57.6387 115.029C57.8831 114.698 58.1439 114.378 58.4202 114.073C58.7185 113.754 59.0372 113.415 59.3663 113.127C59.6888 112.828 60.0325 112.553 60.3946 112.304C60.7751 112.037 61.207 111.749 61.5567 111.533C61.9063 111.317 62.1428 111.163 62.4616 110.998C62.7804 110.834 63.1917 110.659 63.4899 110.535C63.7881 110.412 64.0863 110.319 64.3948 110.227C64.7033 110.134 65.0427 110.031 65.4232 109.939C65.8037 109.846 66.1533 109.785 66.5029 109.723H66.688H44.5583V105.682L138.64 105.887ZM110.639 110.001H110.927H72.0559H72.3438L73.1768 110.155C73.4442 110.217 73.7321 110.268 74.0509 110.361C74.3697 110.453 74.7501 110.556 75.182 110.71C75.6139 110.864 76.1384 111.05 76.7554 111.327C77.3724 111.605 78.0922 111.975 78.884 112.427C79.6758 112.88 80.5294 113.456 81.2081 113.929C81.8867 114.402 82.4112 114.793 82.8842 115.163C83.3573 115.533 83.7892 115.893 84.2725 116.335C84.7558 116.777 85.3008 117.302 85.8355 117.857C86.3703 118.412 86.8639 119.019 87.5734 119.831C88.283 120.644 89.0028 121.662 89.6301 122.618C90.2247 123.531 90.7704 124.475 91.2651 125.446L91.4811 125.888L91.697 125.446C92.1794 124.461 92.7221 123.506 93.3218 122.587C93.9593 121.631 94.7203 120.613 95.3784 119.801C96.0366 118.988 96.5919 118.392 97.1266 117.826C97.6613 117.261 98.1549 116.798 98.6794 116.304C99.2038 115.811 99.5946 115.512 100.078 115.132C100.561 114.752 101.106 114.371 101.744 113.898C102.381 113.425 103.286 112.87 104.078 112.397C104.769 111.995 105.479 111.627 106.207 111.296C106.824 111.019 107.338 110.834 107.77 110.679C108.202 110.525 108.582 110.412 108.911 110.33C109.24 110.247 109.508 110.186 109.785 110.124L110.639 110.001Z" fill="#A92819"/>
<path d="M135.843 69.834C140.903 73.5463 139.751 79.7368 138.219 81.557C135.689 85.2384 135.463 85.5881 132.933 89.2798C131.623 91.1058 129.653 92.3496 127.442 92.747C125.23 93.1444 122.95 92.6642 121.087 91.4084C117.539 88.9096 117.056 88.5805 113.498 86.0508C111.681 84.7504 110.429 82.8059 109.997 80.6141C109.565 78.4222 109.986 76.1481 111.174 74.2558C113.837 70.3071 114.032 70.0397 116.655 66.2863C118.036 64.519 120.055 63.3627 122.279 63.0648C124.502 62.7669 126.754 63.3511 128.552 64.6924L135.843 69.834ZM134.949 80.5698C135.443 79.9474 135.802 79.2283 136.002 78.4589C136.202 77.6894 136.239 76.8866 136.11 76.102C135.982 75.3174 135.69 74.5685 135.254 73.9035C134.819 73.2384 134.249 72.6719 133.581 72.2403L127.257 67.7876C125.118 66.1115 121.827 65.4019 119.215 68.4046C117.086 71.4896 116.346 72.518 114.197 75.6955C113.404 76.8579 113.071 78.273 113.26 79.6671C113.45 81.0612 114.15 82.3355 115.225 83.2435C118.105 85.3001 119.935 86.5958 122.814 88.6216C124.002 89.3963 125.438 89.6923 126.835 89.45C128.232 89.2077 129.485 88.445 130.342 87.3156L134.949 80.5698Z" fill="#A92819"/>
<path d="M133.581 72.2402C134.249 72.6718 134.819 73.2383 135.254 73.9034C135.69 74.5685 135.982 75.3174 136.11 76.1019C136.239 76.8865 136.202 77.6893 136.002 78.4588C135.802 79.2283 135.443 79.9473 134.949 80.5697L130.342 87.3156C129.488 88.4176 128.255 89.1619 126.882 89.4034C125.509 89.6449 124.096 89.3661 122.917 88.6216C120.038 86.5649 118.207 85.3 115.328 83.2434C114.253 82.3354 113.553 81.0612 113.363 79.667C113.173 78.2729 113.507 76.8579 114.3 75.6954C116.449 72.4973 117.189 71.4381 119.318 68.4046C121.93 65.4018 125.221 66.1114 127.36 67.7876L133.581 72.2402ZM131.915 78.5953C132.3 78.0345 132.448 77.345 132.329 76.6755C132.21 76.006 131.832 75.4103 131.278 75.0167L125.108 70.6669C124.835 70.4722 124.526 70.3341 124.199 70.2607C123.872 70.1873 123.534 70.1801 123.204 70.2395C122.875 70.2989 122.56 70.4238 122.279 70.6067C121.999 70.7896 121.758 71.0268 121.57 71.3045C120.151 73.3611 118.876 75.2018 117.457 77.3408C117.26 77.6403 117.127 77.9771 117.066 78.3303C117.005 78.6835 117.017 79.0455 117.102 79.3937C117.187 79.7419 117.343 80.0689 117.559 80.3544C117.776 80.6399 118.049 80.8777 118.362 81.053L124.12 85.1664C124.391 85.3889 124.706 85.5526 125.043 85.6472C125.381 85.7418 125.734 85.7652 126.082 85.7159C126.429 85.6666 126.762 85.5456 127.06 85.3607C127.358 85.1759 127.614 84.9311 127.812 84.6419L131.915 78.5953Z" fill="white"/>
<path d="M133.314 23.8372C133.968 24.0262 134.521 24.4663 134.853 25.0615C135.184 25.6568 135.267 26.3588 135.082 27.0147C134.445 29.3456 133.8 31.6833 133.149 34.0279C133.058 34.3678 132.897 34.6848 132.676 34.9587C132.455 35.2325 132.18 35.4571 131.867 35.6179C131.554 35.7787 131.211 35.8722 130.86 35.8923C130.508 35.9125 130.157 35.8589 129.828 35.7349L123.061 33.7605C122.709 33.6956 122.374 33.559 122.076 33.359C121.779 33.159 121.526 32.9001 121.333 32.5982C121.14 32.2963 121.012 31.958 120.955 31.6042C120.899 31.2505 120.915 30.8888 121.005 30.5419C121.673 28.0533 122.29 25.9247 122.948 23.4875C123.128 22.8484 123.553 22.3062 124.131 21.9788C124.709 21.6515 125.392 21.5654 126.033 21.7394L133.314 23.8372Z" fill="#0F7657"/>
<path d="M134.455 0.57565L133.971 3.93829C133.755 3.93829 112.088 0.997266 98.0928 13.0184C90.2363 19.754 86.2258 29.9551 86.123 43.3336H82.7192C82.8735 28.937 87.3262 17.8619 95.9436 10.4271C111.081 -2.59161 133.508 0.431684 134.455 0.57565Z" fill="#4C8BCA"/>
<path d="M131.278 75.0169C131.832 75.4105 132.21 76.0063 132.329 76.6757C132.448 77.3452 132.3 78.0347 131.915 78.5955L127.802 84.601C127.601 84.8786 127.346 85.1126 127.053 85.2887C126.759 85.4648 126.432 85.5794 126.093 85.6256C125.753 85.6717 125.408 85.6484 125.078 85.5572C124.748 85.4659 124.44 85.3085 124.172 85.0946L118.413 80.9813C118.101 80.8059 117.828 80.5681 117.611 80.2826C117.394 79.9971 117.239 79.6701 117.154 79.3219C117.069 78.9737 117.056 78.6117 117.117 78.2585C117.179 77.9054 117.312 77.5685 117.508 77.269C118.948 75.1301 120.223 73.3202 121.622 71.2327C121.809 70.9551 122.05 70.7178 122.331 70.5349C122.612 70.352 122.926 70.2271 123.256 70.1677C123.586 70.1083 123.924 70.1155 124.251 70.1889C124.578 70.2623 124.887 70.4004 125.159 70.5951L131.278 75.0169Z" fill="#0F7657"/>
<path d="M130.342 150.62C130.406 151.093 130.433 151.571 130.425 152.049C130.418 152.55 130.363 153.05 130.26 153.54C130.149 154.066 130.005 154.585 129.828 155.093C129.675 155.558 129.482 156.008 129.252 156.44C128.981 156.952 128.668 157.44 128.317 157.9C127.974 158.348 127.592 158.764 127.175 159.145C126.768 159.509 126.342 159.852 125.9 160.173C125.434 160.525 124.943 160.841 124.429 161.119C123.881 161.419 123.31 161.677 122.722 161.89C122.133 162.104 121.532 162.286 120.923 162.435C120.283 162.597 119.634 162.721 118.979 162.805C118.296 162.883 117.61 162.924 116.923 162.929C116.177 162.932 115.431 162.887 114.691 162.795C113.788 162.679 112.894 162.497 112.017 162.25C111.097 161.98 110.199 161.636 109.334 161.222C108.519 160.825 107.735 160.368 106.989 159.854C106.238 159.35 105.518 158.826 104.778 158.209C104.007 157.586 103.272 156.92 102.577 156.214C101.834 155.47 101.147 154.673 100.521 153.828C99.8672 152.945 99.2762 152.017 98.752 151.052C98.1094 149.929 97.5293 148.772 97.0141 147.586C96.5682 146.549 96.2238 145.471 95.9858 144.367C95.7654 143.349 95.6006 142.319 95.4922 141.282C95.4099 140.398 95.3997 139.761 95.3997 139.133C95.3997 138.506 95.3997 137.868 95.4819 137.282C95.5338 136.698 95.6197 136.118 95.739 135.544C95.8521 134.938 95.9961 134.28 96.212 133.488C96.4305 132.651 96.6948 131.827 97.0039 131.02C97.3142 130.206 97.689 129.419 98.1247 128.665C98.5875 127.849 99.0956 127.059 99.6467 126.3C100.171 125.57 100.675 124.963 101.179 124.336C101.683 123.708 102.207 123.081 102.804 122.454C103.444 121.779 104.132 121.15 104.86 120.572C105.806 119.796 106.842 119.136 107.945 118.608C109.316 117.983 110.765 117.551 112.254 117.322C113.616 117.102 115.005 117.102 116.367 117.322C117.446 117.488 118.49 117.836 119.452 118.351C120.047 118.702 120.579 119.15 121.026 119.677C121.332 120.025 121.601 120.404 121.828 120.808C122.037 121.179 122.213 121.568 122.352 121.97C122.507 122.416 122.611 122.879 122.661 123.348C122.703 123.883 122.686 124.421 122.609 124.953C122.527 125.587 122.365 126.209 122.126 126.804C121.849 127.42 121.504 128.003 121.098 128.541C120.764 129.006 120.373 129.428 119.936 129.796C119.561 130.11 119.15 130.38 118.712 130.598C118.362 130.779 117.993 130.92 117.612 131.02C117.274 131.097 116.93 131.146 116.583 131.164C116.239 131.177 115.894 131.153 115.555 131.092C115.258 131.032 114.968 130.939 114.691 130.814C114.457 130.704 114.234 130.573 114.023 130.423C113.847 130.308 113.685 130.173 113.539 130.022C113.407 129.888 113.29 129.74 113.19 129.58C113.059 129.381 112.952 129.167 112.871 128.942C112.784 128.707 112.725 128.462 112.696 128.212C112.67 127.97 112.67 127.725 112.696 127.482C112.71 127.199 112.762 126.919 112.85 126.649C112.946 126.35 113.077 126.064 113.241 125.796C113.423 125.488 113.648 125.207 113.91 124.963C114.156 124.726 114.444 124.572 114.701 124.356C114.866 124.243 114.997 124.088 115.082 123.907C115.166 123.726 115.202 123.527 115.185 123.328C115.16 123.044 115.057 122.772 114.889 122.541C114.72 122.311 114.492 122.131 114.228 122.022C113.483 121.877 112.71 122.013 112.059 122.402C111.375 122.762 110.775 123.263 110.3 123.873L107.781 123.523C108.231 122.993 108.738 122.514 109.292 122.094C96.6028 129.107 95.3688 144.347 105.179 153.674C104.72 152.886 104.374 152.038 104.151 151.154L106.814 150.609C106.906 150.961 107.027 151.305 107.174 151.638C107.852 153.175 109.055 154.422 110.568 155.155C112.091 155.85 113.803 156.016 115.432 155.628C116.66 155.305 117.746 154.581 118.517 153.571C119.002 152.997 119.262 152.266 119.247 151.514C119.232 151.299 119.161 151.091 119.042 150.911C118.923 150.731 118.76 150.585 118.568 150.486C118.394 150.381 118.199 150.314 117.997 150.289C117.795 150.264 117.59 150.282 117.396 150.342C117.049 150.545 116.742 150.81 116.491 151.124C116.167 151.431 115.786 151.672 115.37 151.833C114.948 151.985 114.502 152.061 114.054 152.059C113.608 152.048 113.167 151.965 112.748 151.813C112.307 151.66 111.903 151.414 111.565 151.093C111.23 150.733 110.977 150.305 110.825 149.838C110.624 149.329 110.543 148.78 110.588 148.234C110.681 147.595 110.905 146.982 111.246 146.434C111.595 145.829 112.052 145.293 112.593 144.851C113.214 144.334 113.907 143.911 114.65 143.596C115.636 143.177 116.674 142.89 117.735 142.743C118.987 142.581 120.253 142.564 121.509 142.691C122.62 142.803 123.711 143.069 124.748 143.483C126.22 144.08 127.503 145.065 128.46 146.332C128.847 146.786 129.191 147.275 129.489 147.792C129.703 148.196 129.869 148.624 129.982 149.067C130.116 149.674 130.219 150.147 130.342 150.62ZM126.136 153.324C126.408 152.377 126.433 151.376 126.208 150.416C125.983 149.457 125.516 148.571 124.851 147.843C123.73 146.465 121.386 145.437 118.095 145.787C117.478 145.9 115.01 146.414 113.982 148.409C113.883 148.561 113.843 148.745 113.87 148.925C113.896 149.104 113.986 149.269 114.125 149.387C114.263 149.505 114.439 149.569 114.621 149.567C114.803 149.564 114.977 149.497 115.113 149.375C115.652 148.767 116.374 148.349 117.169 148.183C117.646 148.083 118.138 148.086 118.612 148.192C119.087 148.298 119.534 148.503 119.923 148.795C120.313 149.087 120.635 149.459 120.87 149.885C121.104 150.311 121.245 150.783 121.283 151.268C121.787 155.967 116.429 159.33 113.334 158.795C115.207 159.302 117.168 159.397 119.082 159.073C121.324 158.764 125.201 157.15 126.085 153.324H126.136ZM119.514 125.693C119.731 125.17 119.822 124.603 119.779 124.039C119.737 123.474 119.561 122.927 119.267 122.443C118.903 121.905 118.421 121.456 117.858 121.13C117.295 120.804 116.666 120.61 116.018 120.562C116.779 121.302 118.074 122.33 117.797 124.305C117.691 124.835 117.47 125.335 117.148 125.768C116.826 126.202 116.412 126.559 115.935 126.814C115.092 127.503 115.935 128.418 116.964 128.202C117.536 127.988 118.056 127.653 118.487 127.22C118.918 126.787 119.251 126.266 119.463 125.693H119.514Z" fill="white"/>
<path d="M129.776 117.024C131.294 120.293 131.548 124.008 130.488 127.452C129.428 130.897 127.131 133.827 124.038 135.678L124.614 135.76L124.244 138.485C123.035 138.283 121.809 138.197 120.583 138.228C118.936 138.264 117.299 138.499 115.709 138.927C114.301 139.31 112.957 139.895 111.719 140.665C110.533 141.374 109.488 142.294 108.634 143.38C107.724 144.542 107.082 145.89 106.752 147.329C106.485 148.465 106.485 149.648 106.752 150.784L104.089 151.329C103.364 148.432 103.761 145.367 105.201 142.751C106.641 140.134 109.017 138.159 111.852 137.22C105.682 134.752 104.047 128.048 107.739 123.698L110.259 124.047C109.331 125.144 108.814 126.529 108.798 127.965C108.785 128.513 108.847 129.06 108.983 129.59C109.498 131.479 110.741 133.088 112.439 134.063C113.083 134.431 113.775 134.708 114.495 134.886C115.168 135.052 115.859 135.128 116.552 135.112C117.286 135.102 118.016 135.016 118.732 134.855C119.713 134.583 120.656 134.189 121.539 133.683C121.935 133.446 122.317 133.185 122.681 132.901C123.061 132.613 123.473 132.295 123.802 131.996C124.111 131.716 124.399 131.413 124.665 131.091C124.933 130.783 125.19 130.454 125.457 130.063C125.746 129.661 126.01 129.242 126.249 128.809C126.544 128.303 126.795 127.773 127 127.225C127.248 126.585 127.441 125.924 127.576 125.251C127.698 124.606 127.764 123.953 127.771 123.297C127.809 122.735 127.809 122.172 127.771 121.61C127.735 121.126 127.666 120.645 127.565 120.171C127.489 119.802 127.393 119.438 127.277 119.081C127.164 118.741 127.051 118.422 126.907 118.052C126.763 117.682 126.599 117.384 126.434 117.024C126.27 116.664 126.105 116.386 125.92 116.078C125.739 115.759 125.537 115.453 125.313 115.163C125.068 114.829 124.804 114.509 124.522 114.206L127.175 113.096C128.276 114.234 129.157 115.566 129.776 117.024V117.024Z" fill="white"/>
<path d="M124.799 147.822C125.464 148.55 125.931 149.436 126.156 150.395C126.381 151.355 126.356 152.356 126.085 153.303C125.149 157.129 121.324 158.743 119.123 159.134C117.209 159.458 115.248 159.364 113.375 158.856C116.46 159.391 121.827 156.029 121.324 151.329C121.286 150.844 121.145 150.373 120.91 149.946C120.676 149.52 120.353 149.149 119.964 148.857C119.575 148.565 119.128 148.359 118.653 148.254C118.178 148.148 117.686 148.145 117.21 148.244C116.414 148.41 115.693 148.829 115.154 149.437C115.018 149.558 114.843 149.626 114.662 149.628C114.48 149.63 114.304 149.566 114.165 149.448C114.027 149.33 113.937 149.166 113.91 148.986C113.884 148.806 113.924 148.623 114.022 148.47C115.051 146.475 117.519 145.961 118.136 145.848C121.334 145.437 123.678 146.465 124.799 147.822Z" fill="#0F7657"/>
<path d="M119.215 122.443C119.509 122.927 119.685 123.474 119.727 124.039C119.77 124.603 119.679 125.17 119.462 125.693C119.248 126.268 118.912 126.791 118.478 127.224C118.043 127.657 117.519 127.991 116.943 128.202C115.832 128.418 115.04 127.503 115.914 126.814C116.391 126.559 116.805 126.202 117.127 125.768C117.449 125.334 117.67 124.835 117.776 124.305C118.043 122.33 116.747 121.302 115.997 120.562C116.64 120.614 117.263 120.811 117.82 121.136C118.377 121.462 118.854 121.909 119.215 122.443V122.443Z" fill="#0F7657"/>
<path d="M117.734 46.1821C119.242 47.8449 120.044 50.0286 119.971 52.2718C119.898 54.515 118.956 56.6419 117.343 58.2033C114.156 61.1443 113.734 61.5557 110.526 64.4967C108.873 66.0146 106.701 66.8414 104.458 66.807C102.214 66.7725 100.069 65.8795 98.4633 64.3116C95.1521 60.8872 94.9258 60.6404 91.81 57.2984C90.3698 55.5779 89.6602 53.3619 89.8332 51.1249C90.0062 48.8878 91.0479 46.8073 92.7355 45.3286C96.1393 42.1819 95.8205 42.4184 99.286 39.282C103.965 35.0967 109.785 37.5236 111.235 39.4054C114.361 42.6447 114.649 42.9326 117.734 46.1821ZM114.999 55.8484C115.971 54.8511 116.536 53.5278 116.586 52.1363C116.635 50.7448 116.165 49.3848 115.266 48.321L109.641 42.3876C109.135 41.7735 108.506 41.2721 107.794 40.9156C107.082 40.5591 106.304 40.3554 105.509 40.3177C104.714 40.2799 103.919 40.4089 103.177 40.6963C102.435 40.9837 101.761 41.4232 101.199 41.9865L95.5428 47.2104C93.4862 48.9586 92.0774 52.023 94.5145 55.2006C97.0442 57.9154 97.9183 58.8511 100.592 61.6276C101.57 62.6425 102.89 63.258 104.296 63.3549C105.702 63.4518 107.094 63.0232 108.202 62.1521C110.803 59.7664 112.407 58.2342 114.999 55.8484V55.8484Z" fill="#A92819"/>
<path d="M115.266 48.3213C116.164 49.385 116.635 50.7451 116.585 52.1366C116.536 53.5281 115.97 54.8514 114.998 55.8487C112.407 58.2344 110.762 59.7666 108.15 62.1524C107.042 63.0234 105.65 63.4521 104.244 63.3552C102.838 63.2583 101.518 62.6428 100.54 61.6279C97.8664 58.8514 96.9923 57.9156 94.4626 55.2009C92.0769 52.0233 93.4343 48.9589 95.4909 47.2107L101.147 41.9868C101.709 41.4235 102.383 40.984 103.125 40.6966C103.868 40.4091 104.662 40.2802 105.457 40.318C106.252 40.3557 107.03 40.5594 107.742 40.9159C108.454 41.2723 109.083 41.7737 109.589 42.3879L115.266 48.3213ZM111.831 53.936C112.108 53.7191 112.336 53.4467 112.501 53.1364C112.666 52.826 112.764 52.4846 112.789 52.134C112.815 51.7834 112.766 51.4314 112.647 51.1006C112.528 50.7699 112.341 50.4677 112.098 50.2135L107.07 44.9895C106.6 44.4966 105.956 44.2076 105.275 44.1845C104.594 44.1615 103.932 44.4062 103.43 44.8661L97.8972 50.0078C97.6506 50.2338 97.4517 50.5069 97.3122 50.811C97.1726 51.1151 97.0953 51.444 97.0848 51.7784C97.0742 52.1128 97.1307 52.4459 97.2508 52.7582C97.3709 53.0704 97.5522 53.3555 97.7841 53.5967C99.522 55.4168 101.034 57.0416 102.823 58.8926C103.075 59.1476 103.377 59.3482 103.71 59.4819C104.043 59.6156 104.399 59.6797 104.758 59.67C105.116 59.6604 105.469 59.5773 105.794 59.4259C106.12 59.2745 106.41 59.0579 106.648 58.7897L111.831 53.936Z" fill="white"/>
<path d="M112.088 50.2137C112.331 50.4673 112.519 50.7689 112.639 51.0992C112.759 51.4296 112.808 51.7814 112.784 52.1319C112.76 52.4825 112.662 52.8242 112.498 53.1349C112.334 53.4456 112.107 53.7186 111.831 53.9363L106.689 58.718C106.451 58.9862 106.161 59.2027 105.835 59.3542C105.51 59.5056 105.157 59.5887 104.799 59.5983C104.44 59.6079 104.084 59.5439 103.751 59.4102C103.418 59.2765 103.116 59.0759 102.864 58.8209C101.075 56.9699 99.563 55.3451 97.8251 53.5249C97.5932 53.2838 97.4119 52.9987 97.2918 52.6865C97.1717 52.3742 97.1152 52.0411 97.1258 51.7067C97.1363 51.3723 97.2136 51.0434 97.3531 50.7393C97.4927 50.4352 97.6916 50.1621 97.9382 49.9361L103.471 44.7944C103.973 44.3345 104.635 44.0898 105.316 44.1128C105.997 44.1359 106.641 44.4249 107.111 44.9178L112.088 50.2137Z" fill="#0F7657"/>
<path d="M110.928 109.929H110.64L109.807 110.083C109.529 110.145 109.251 110.196 108.933 110.289C108.614 110.381 108.233 110.484 107.791 110.638C107.349 110.793 106.845 110.978 106.228 111.255C105.501 111.586 104.79 111.953 104.099 112.356C103.308 112.818 102.454 113.384 101.765 113.857C101.076 114.33 100.572 114.721 100.099 115.091C99.6262 115.461 99.184 115.821 98.7007 116.263C98.2174 116.705 97.6724 117.23 97.1479 117.785C96.6235 118.34 96.0579 119.029 95.3792 119.801C94.7005 120.572 93.9601 121.631 93.3225 122.587C92.7193 123.506 92.1733 124.461 91.6875 125.446L91.4716 125.888L91.2556 125.446C90.7619 124.465 90.2161 123.511 89.6206 122.587C88.983 121.631 88.2117 120.613 87.5639 119.801C86.9161 118.988 86.3607 118.392 85.826 117.826C85.2913 117.261 84.7977 116.798 84.263 116.304C83.7282 115.811 83.3477 115.513 82.8747 115.132C82.4017 114.752 81.8464 114.371 81.1985 113.898C80.5507 113.425 79.6663 112.87 78.8745 112.397C78.0827 111.924 77.3629 111.574 76.7459 111.296C76.1289 111.019 75.6147 110.834 75.1725 110.679C74.7303 110.525 74.3704 110.412 74.0414 110.33C73.7123 110.247 73.4346 110.186 73.1673 110.124L72.3343 109.97H72.0464L110.928 109.929ZM98.4642 113.209H84.592C87.3254 115.224 89.6703 117.719 91.5127 120.572C93.3791 117.728 95.7323 115.236 98.4642 113.209V113.209Z" fill="white"/>
<path d="M109.27 122.269C108.716 122.689 108.209 123.168 107.759 123.698C104.118 128.048 105.702 134.752 111.872 137.22C109.036 138.159 106.661 140.134 105.221 142.751C103.781 145.368 103.383 148.432 104.108 151.329C104.332 152.213 104.678 153.061 105.136 153.849C95.3774 144.522 96.5806 129.313 109.27 122.269Z" fill="#0F7657"/>
<path d="M84.5913 113.209H98.4635C95.7426 115.238 93.4 117.731 91.5428 120.572C89.6913 117.716 87.3358 115.221 84.5913 113.209V113.209Z" fill="#0F7657"/>
<path d="M95.0682 67.3661C100.837 69.248 103.418 78.8629 96.3433 82.7911C92.0758 84.3953 91.2839 84.7449 86.9547 86.4005C87.4688 88.2104 83.5303 93.5166 77.2781 91.7067L74.3782 90.7401L62.3673 95.0282C55.4158 97.7842 50.8603 92.7145 51.4361 87.6345C45.9346 89.321 40.6901 84.858 41.2454 78.6366C33.8311 73.495 40.1245 61.6486 48.7419 64.6308C54.6959 66.6257 57.1434 67.4381 62.3159 69.1554C70.3471 67.8803 72.7637 67.2222 80.8258 65.9676C86.0806 64.8776 87.8288 67.0782 88.7645 67.8392C90.235 67.2941 92.3945 66.3584 95.0682 67.3661ZM94.3484 80.0352C100.2 77.125 96.405 68.8675 91.2634 70.3689C89.8134 70.8213 89.2067 71.2429 87.7979 71.6851C87.3991 70.7428 86.6831 69.9698 85.774 69.5002C84.8649 69.0306 83.82 68.8941 82.8208 69.1143C75.6225 70.2352 69.3805 71.2944 62.1616 72.4358C56.7937 70.7802 52.9992 69.3508 47.6313 67.6746C41.8212 66.708 38.8185 74.5439 44.6594 76.8679C42.8393 80.9812 46.1094 85.5367 50.3153 84.8169C53.4002 84.3747 53.9144 84.2513 56.7937 83.7886C51.5081 86.0303 55.6934 94.5141 61.0613 92.0872L74.3268 87.3466C75.5916 87.7682 76.3114 88.1384 77.4118 88.488C83.0367 90.2362 84.8877 85.1665 84.281 83.6549L94.3484 80.0352Z" fill="#A92819"/>
<path d="M96.3019 165.304L94.1012 167.453C93.1745 166.517 92.3024 165.528 91.4893 164.492C87.1343 169.984 81.2742 174.09 74.6246 176.307C69.5447 178.271 60.4337 178.652 53.6673 175.444C49.0603 173.901 39.1061 165.613 38.6125 155.484C38.2526 145.509 44.0627 136.562 52.7006 134.218C49.6876 130.598 46.7877 125.158 49.8624 117.487L52.6184 118.299C51.9409 120.316 51.7127 122.457 51.95 124.572C52.2066 126.83 52.9685 129 54.1791 130.923C55.3897 132.846 57.0178 134.471 58.9426 135.678C55.9618 135.754 53.0579 136.639 50.5411 138.239C47.7813 140.134 45.5433 142.695 44.0336 145.684C42.524 148.672 41.7913 151.993 41.9032 155.34C42.3762 164.965 51.6929 171.474 56.0736 172.945C62.0773 175.1 68.6481 175.075 74.6349 172.873C81.5467 170.218 87.4497 165.459 91.5098 159.268C92.8687 161.458 94.4767 163.484 96.3019 165.304V165.304Z" fill="#A92819"/>
<path d="M91.1825 70.3688C96.4064 68.8674 100.17 77.1249 94.2675 80.0351L84.2824 83.6548C84.8891 85.1664 83.0381 90.2361 77.4543 88.4571C76.3128 88.1075 75.593 87.7373 74.3693 87.3156L61.1038 92.0562C55.7359 94.4831 51.5506 85.9994 56.8362 83.7576C53.9569 84.2512 53.3913 84.3746 50.3578 84.7859C46.1519 85.5058 42.8818 80.9194 44.7019 76.837C38.9022 74.5129 41.8637 66.677 47.5915 67.6437C52.9594 69.2993 56.754 70.7287 62.1219 72.4049C69.3202 71.2634 75.5621 70.2042 82.781 69.0833C83.7829 68.8785 84.8248 69.0306 85.7263 69.5133C86.6278 69.9959 87.3321 70.7788 87.717 71.7262C89.1361 71.2428 89.7325 70.8212 91.1825 70.3688ZM93.0232 77.0735C95.3061 76.2508 93.9487 72.8367 91.7481 73.6286C85.5678 75.8395 79.9531 77.8961 74.2253 79.9528L69.423 78.3486C74.5647 77.5362 79.5726 76.7444 84.1076 76.0451C86.5036 75.6749 85.8249 72.0655 83.5111 72.4254C75.8398 73.6183 68.9397 74.7289 61.8339 75.8395C57.0316 74.2661 52.1882 72.6516 47.0465 70.9035C44.7534 70.1322 43.5708 73.6183 45.792 74.3587C48.3731 75.2328 51.129 76.148 53.9672 77.094L49.2883 77.8242C46.8923 78.1944 47.4476 81.8346 49.7613 81.4644L61.5666 79.6237L68.6415 82.0095C65.5565 83.1303 62.4098 84.2718 59.1088 85.4544C56.8362 86.2667 58.0805 89.7322 60.2709 88.9404L74.2562 83.881L78.75 85.3927C81.0534 86.1639 82.1126 82.647 79.8914 81.8963H79.7886C84.4058 80.179 88.9304 78.5337 93.0232 77.0735V77.0735Z" fill="white"/>
<path d="M91.7487 73.6287C93.9493 72.8369 95.3067 76.251 93.0238 77.0736C88.9105 78.5339 84.4064 80.1586 79.8098 81.8451H79.9126C82.1338 82.5958 81.0746 86.1127 78.7711 85.3414L74.2773 83.8606L60.292 88.92C58.0914 89.7118 56.8574 86.2463 59.13 85.434C62.4721 84.2514 65.5571 83.1099 68.6421 82.0096L61.5055 79.6445L49.7208 81.4646C47.4071 81.8348 46.8518 78.1945 49.2478 77.8243L53.9267 77.0942C51.0885 76.1481 48.3326 75.2329 45.7515 74.3588C43.5303 73.6184 44.7231 70.1324 47.006 70.9036C52.1477 72.6518 57.0322 74.2663 61.8345 75.8499C68.9403 74.729 75.8404 73.6184 83.5118 72.4461C85.8255 72.0862 86.5042 75.6957 84.1082 76.0659C79.5732 76.7651 74.5241 77.557 69.4236 78.3693L74.2259 79.953C79.9537 77.8963 85.5684 75.8396 91.7487 73.6287Z" fill="#A92819"/>
<path d="M89.495 191.29L90.7084 194.468C84.1823 197.062 77.2361 198.439 70.2138 198.53C63.5822 198.578 57.031 197.076 51.0823 194.145C45.1336 191.213 39.9518 186.933 35.9498 181.645C30.7571 175.045 27.5697 167.092 26.7668 158.733L30.1501 158.415C30.9049 166.099 33.8294 173.41 38.5824 179.495L38.7263 179.68C39.3947 180.729 55.3236 204.288 89.495 191.29Z" fill="#4C8BCA"/>
<path d="M87.6037 139.174C87.6191 139.892 87.5882 140.61 87.5112 141.324C87.4116 142.361 87.2502 143.391 87.0279 144.409C86.7854 145.511 86.4412 146.589 85.9995 147.627C85.4803 148.812 84.9002 149.968 84.2617 151.093C83.7337 152.056 83.1429 152.984 82.4929 153.869C81.8664 154.714 81.179 155.511 80.4363 156.255C79.7463 156.967 79.0112 157.633 78.2357 158.25C77.5055 158.857 76.7754 159.391 76.035 159.895C75.2887 160.409 74.505 160.866 73.6904 161.263C72.825 161.678 71.9274 162.022 71.0065 162.291C70.1295 162.537 69.236 162.719 68.3328 162.836C67.5892 162.929 66.8404 162.973 66.0911 162.97C65.4038 162.966 64.7173 162.925 64.0344 162.847C63.3796 162.763 62.7306 162.639 62.0909 162.476C61.4812 162.329 60.8804 162.147 60.2913 161.931C59.7033 161.719 59.1326 161.461 58.5843 161.16C58.0732 160.865 57.5851 160.531 57.124 160.163C56.6852 159.842 56.2631 159.498 55.8592 159.134C55.4426 158.754 55.0607 158.338 54.7177 157.89C54.3662 157.43 54.0532 156.942 53.782 156.43C53.5518 155.998 53.3592 155.547 53.2061 155.083C53.0215 154.576 52.8737 154.058 52.7639 153.53C52.6694 153.038 52.6178 152.539 52.6097 152.039C52.6012 151.561 52.6287 151.083 52.6919 150.61C52.7601 150.141 52.8562 149.678 52.9799 149.221C53.0898 148.779 53.252 148.351 53.4632 147.946C53.7649 147.432 54.1088 146.943 54.4915 146.486C54.9038 145.938 55.3802 145.44 55.9106 145.005C56.6024 144.437 57.3753 143.976 58.2038 143.637C59.2412 143.224 60.3316 142.957 61.443 142.846C62.6988 142.719 63.9651 142.736 65.217 142.897C66.2784 143.044 67.3157 143.331 68.302 143.751C69.0454 144.066 69.7384 144.488 70.3586 145.005C70.9055 145.451 71.3687 145.991 71.7263 146.599C72.0647 147.148 72.2853 147.76 72.3742 148.399C72.4195 148.944 72.3386 149.493 72.1377 150.003C71.9885 150.469 71.7393 150.897 71.4075 151.257C71.067 151.581 70.6599 151.827 70.2147 151.977C69.7989 152.129 69.3613 152.212 68.919 152.224C68.4704 152.226 68.025 152.149 67.6027 151.998C67.1844 151.835 66.8006 151.594 66.4715 151.288C66.2238 150.971 65.9163 150.706 65.5666 150.507C65.3721 150.447 65.1671 150.429 64.9651 150.454C64.7632 150.479 64.5687 150.546 64.3943 150.651C64.2036 150.75 64.0418 150.897 63.9246 151.077C63.8075 151.257 63.739 151.464 63.7259 151.679C63.7077 152.429 63.9636 153.16 64.4457 153.736C65.2181 154.744 66.3031 155.467 67.5307 155.792C69.1629 156.181 70.878 156.014 72.405 155.319C73.4328 154.826 74.3249 154.09 75.004 153.174C75.6831 152.259 76.1288 151.191 76.3024 150.065L78.8732 150.476C78.6765 151.661 78.2653 152.801 77.6598 153.838C87.5112 144.512 86.2772 129.272 73.5465 122.258C74.235 122.777 74.8476 123.39 75.3666 124.079L72.9912 124.49C72.8872 124.332 72.7739 124.181 72.6518 124.037C72.183 123.426 71.5864 122.924 70.9037 122.567C70.2519 122.177 69.4793 122.042 68.7339 122.186C68.4704 122.296 68.2421 122.476 68.0735 122.706C67.9049 122.936 67.8026 123.208 67.7775 123.492C67.7612 123.69 67.7961 123.889 67.879 124.069C67.9619 124.249 68.0899 124.405 68.2506 124.521C68.5179 124.737 68.7956 124.891 69.0527 125.128C69.3135 125.37 69.5355 125.651 69.7108 125.96C69.8819 126.226 70.0167 126.513 70.1118 126.814C70.1902 127.086 70.2419 127.365 70.2661 127.647C70.2922 127.89 70.2922 128.134 70.2661 128.377C70.2411 128.626 70.1858 128.871 70.1016 129.107C70.0129 129.33 69.9027 129.543 69.7725 129.745C69.6761 129.904 69.5623 130.053 69.4331 130.187C69.285 130.335 69.1232 130.47 68.9498 130.588C68.7361 130.733 68.5128 130.864 68.2814 130.979C68.0048 131.103 67.715 131.196 67.4176 131.256C67.0784 131.317 66.7336 131.341 66.3893 131.328C66.043 131.31 65.6989 131.262 65.361 131.184C64.9792 131.086 64.61 130.945 64.2606 130.763C63.8193 130.545 63.4051 130.275 63.0266 129.961C62.5948 129.589 62.2083 129.168 61.8749 128.706C61.4644 128.17 61.1192 127.586 60.8466 126.968C60.4121 125.871 60.2294 124.69 60.3119 123.513C60.3583 123.044 60.4583 122.581 60.6101 122.135C60.7527 121.732 60.9317 121.343 61.1448 120.973C61.3719 120.571 61.637 120.193 61.9366 119.842C62.3776 119.302 62.9059 118.84 63.4997 118.474C64.4464 117.965 65.4718 117.617 66.5332 117.446C67.8955 117.225 69.2843 117.225 70.6466 117.446C72.1351 117.674 73.585 118.107 74.9553 118.731C76.0588 119.26 77.0946 119.919 78.0403 120.695C78.7672 121.276 79.4543 121.905 80.0969 122.577C80.7036 123.205 81.2178 123.842 81.732 124.459C82.2461 125.076 82.7603 125.693 83.2642 126.423C83.8117 127.185 84.3197 127.974 84.7861 128.788C85.2218 129.542 85.5967 130.33 85.907 131.143C86.2161 131.951 86.4804 132.775 86.6988 133.611C86.9045 134.382 87.0587 135.041 87.1718 135.668C87.2912 136.242 87.377 136.822 87.4289 137.406C87.5832 137.91 87.6037 138.568 87.6037 139.174ZM69.4846 158.877C66.3996 159.412 61.0317 156.049 61.5458 151.35C61.5838 150.865 61.7247 150.394 61.959 149.967C62.1934 149.541 62.516 149.17 62.9051 148.878C63.2943 148.586 63.7412 148.38 64.2161 148.274C64.691 148.169 65.1829 148.166 65.6592 148.265C66.4556 148.43 67.1772 148.848 67.7158 149.458C67.8513 149.579 68.0261 149.647 68.2078 149.649C68.3895 149.651 68.5658 149.587 68.704 149.469C68.8421 149.351 68.9328 149.187 68.9591 149.007C68.9854 148.827 68.9455 148.644 68.847 148.491C67.8187 146.496 65.3507 145.982 64.7337 145.869C61.443 145.468 59.0984 146.496 57.9878 147.926C57.3206 148.652 56.8511 149.537 56.6242 150.497C56.3973 151.457 56.4207 152.458 56.6921 153.407C57.6382 157.232 61.4636 158.846 63.6539 159.237C65.6003 159.547 67.591 159.424 69.4846 158.877V158.877ZM65.9163 128.202C67.0268 128.418 67.8187 127.503 66.9446 126.814C66.4693 126.558 66.0562 126.2 65.7346 125.767C65.4129 125.333 65.1906 124.834 65.0833 124.305C64.8159 122.33 66.1116 121.302 66.8623 120.562C66.2141 120.611 65.5854 120.806 65.0229 121.132C64.4604 121.458 63.9784 121.906 63.6128 122.444C63.3235 122.929 63.1507 123.476 63.1079 124.039C63.065 124.603 63.1534 125.169 63.366 125.693C63.586 126.27 63.9276 126.793 64.3677 127.226C64.8077 127.659 65.3359 127.992 65.9163 128.202Z" fill="white"/>
<path d="M78.9243 150.486C79.4109 147.69 78.877 144.813 77.4199 142.378C75.9627 139.943 73.6793 138.113 70.9856 137.22C76.991 134.824 78.6878 128.439 75.4588 124.089C74.9399 123.4 74.3272 122.788 73.6387 122.269C86.3283 129.282 87.5623 144.522 77.752 153.849C78.3432 152.808 78.7404 151.669 78.9243 150.486Z" fill="#0F7657"/>
<path d="M75.1706 1.32666H71.7668V27.436H75.1706V1.32666Z" fill="#179E6C"/>
<path d="M75.09 49.8638H1.25586V53.2675H75.09V49.8638Z" fill="#179E6C"/>
<path d="M74.8317 41.2666H0.997559V44.6704H74.8317V41.2666Z" fill="#A92819"/>
<path d="M74.5854 32.6699H0.751221V36.0737H74.5854V32.6699Z" fill="#179E6C"/>
<path d="M61.5457 151.349C61.0315 156.049 66.3892 159.412 69.4844 158.877C67.6109 159.384 65.6497 159.479 63.7361 159.154C61.5457 158.764 57.7203 157.098 56.7743 153.324C56.4991 152.373 56.4738 151.367 56.7007 150.403C56.9277 149.439 57.3993 148.551 58.07 147.822C59.1806 146.444 61.5251 145.416 64.8158 145.766C65.4328 145.879 67.9008 146.393 68.9291 148.388C69.0277 148.541 69.0675 148.724 69.0412 148.904C69.0149 149.083 68.9243 149.248 68.7861 149.366C68.648 149.484 68.4717 149.548 68.2899 149.546C68.1082 149.544 67.9334 149.476 67.798 149.354C67.2593 148.745 66.5377 148.327 65.7413 148.162C65.2513 148.048 64.7422 148.043 64.2503 148.149C63.7584 148.254 63.2957 148.466 62.8952 148.771C62.4946 149.075 62.1661 149.464 61.9328 149.91C61.6996 150.355 61.5674 150.847 61.5457 151.349V151.349Z" fill="#0F7657"/>
<path d="M66.9746 126.814C67.8178 127.503 67.026 128.418 65.9463 128.202C65.3716 127.988 64.8495 127.653 64.4149 127.22C63.9804 126.787 63.6435 126.267 63.4268 125.693C63.2143 125.169 63.1259 124.603 63.1687 124.039C63.2115 123.475 63.3844 122.929 63.6736 122.443C64.0392 121.906 64.5212 121.458 65.0838 121.132C65.6463 120.806 66.275 120.611 66.9232 120.562C66.1622 121.302 64.8665 122.33 65.1442 124.305C65.248 124.831 65.4656 125.328 65.7818 125.762C66.098 126.195 66.5051 126.554 66.9746 126.814Z" fill="#0F7657"/>
<path d="M63.8276 1.32666H60.4238V27.6828H63.8276V1.32666Z" fill="#2A3277"/>
<path d="M48.6101 8.28858C49.9106 8.28655 51.1824 8.67046 52.2646 9.39172C53.3468 10.113 54.1906 11.1391 54.6892 12.3402C55.1878 13.5414 55.3188 14.8634 55.0656 16.139C54.8124 17.4146 54.1864 18.5864 53.2668 19.506C52.3472 20.4256 51.1754 21.0517 49.8998 21.3049C48.6242 21.5581 47.3021 21.4271 46.101 20.9285C44.8999 20.4299 43.8737 19.586 43.1525 18.5039C42.4312 17.4217 42.0473 16.1498 42.0493 14.8493C42.0493 13.1093 42.7405 11.4406 43.9709 10.2102C45.2013 8.9798 46.8701 8.28858 48.6101 8.28858V8.28858ZM52.6206 14.8493C52.6185 14.0566 52.3816 13.2822 51.9397 12.624C51.4978 11.9659 50.8707 11.4534 50.1377 11.1515C49.4047 10.8495 48.5987 10.7715 47.8214 10.9274C47.0441 11.0833 46.3305 11.4661 45.7706 12.0274C45.2108 12.5887 44.8298 13.3033 44.6759 14.081C44.522 14.8587 44.602 15.6645 44.9059 16.3967C45.2097 17.1289 45.7237 17.7547 46.383 18.1949C47.0423 18.6351 47.8173 18.8701 48.6101 18.8701C49.6747 18.8674 50.6947 18.4426 51.4465 17.6888C52.1984 16.9351 52.6206 15.9139 52.6206 14.8493V14.8493Z" fill="#179E6C"/>
<path d="M48.6106 17.1523C49.8828 17.1523 50.914 16.121 50.914 14.8489C50.914 13.5767 49.8828 12.5454 48.6106 12.5454C47.3384 12.5454 46.3071 13.5767 46.3071 14.8489C46.3071 16.121 47.3384 17.1523 48.6106 17.1523Z" fill="#2A3277"/>
<path d="M37.1345 1.32666H33.741V27.0555H37.1345V1.32666Z" fill="#2A3277"/>
<path d="M35.6505 78.431L36.3703 81.7628C33.8075 82.333 31.1908 82.626 28.5653 82.6369C8.90364 82.6369 1.53051 64.7542 1.44824 64.528L3.03187 63.9007L4.6155 63.2734C4.99598 64.2401 13.0478 83.3259 35.6505 78.431Z" fill="#4C8BCA"/>
<path d="M31.6828 106.546L16.3607 121.868L1.04883 106.546L16.3607 91.2646L31.6828 106.546ZM16.3607 118.258L28.0734 106.546L16.3607 94.8432L4.65827 106.546L16.3607 118.258Z" fill="#179E6C"/>
<path d="M29.4526 127.821H26.0488V147.442H29.4526V127.821Z" fill="#179E6C"/>
<path d="M28.9459 0.894531C29.748 10.4991 27.5782 17.6975 22.5086 22.2838C17.4389 26.8702 10.6725 27.7854 6.05527 27.7854C4.35694 27.7989 2.66066 27.6648 0.985596 27.3843L1.44834 24.8752C1.57174 24.8752 13.5004 26.9936 20.781 20.3814C25.2233 16.3503 27.1052 9.86157 26.3751 1.1002L28.9459 0.894531Z" fill="#2A3277"/>
<path d="M23.3947 176.698C30.9837 185.079 28.7009 198.005 28.6083 198.55L25.2559 197.944C25.2559 197.82 27.3126 186.087 20.865 178.971C16.9265 174.631 10.5817 172.801 1.93341 173.51L1.65576 170.127C11.3529 169.315 18.6746 171.526 23.3947 176.698Z" fill="#2A3277"/>
<path d="M21.3581 106.546L16.3604 111.543L11.373 106.546L16.3604 101.558L21.3581 106.546Z" fill="#2A3277"/>
<path d="M17.8628 127.821H14.459V147.442H17.8628V127.821Z" fill="#A92819"/>
<path d="M10.3152 180.369C12.2053 180.365 14.0543 180.921 15.6286 181.967C17.2028 183.014 18.4318 184.503 19.1603 186.247C19.8888 187.991 20.0841 189.912 19.7215 191.767C19.359 193.622 18.4549 195.328 17.1234 196.67C15.7919 198.011 14.0927 198.928 12.2404 199.304C10.3881 199.681 8.46578 199.5 6.71622 198.785C4.96666 198.069 3.4683 196.852 2.41039 195.285C1.35247 193.719 0.782433 191.874 0.772267 189.984C0.764067 187.444 1.76455 185.005 3.5539 183.202C5.34325 181.399 7.77511 180.38 10.3152 180.369V180.369ZM17.3387 189.933C17.3407 188.543 16.9305 187.184 16.16 186.028C15.3895 184.871 14.2933 183.97 13.0101 183.436C11.7269 182.903 10.3144 182.763 8.95127 183.033C7.58817 183.302 6.33574 183.971 5.35246 184.952C4.36918 185.934 3.69923 187.186 3.42739 188.548C3.15556 189.911 3.29404 191.324 3.82533 192.608C4.35662 193.892 5.25683 194.989 6.41206 195.761C7.56729 196.534 8.92562 196.946 10.3152 196.946C12.1673 196.946 13.9444 196.214 15.2599 194.911C16.5753 193.607 17.3224 191.836 17.3387 189.984V189.933Z" fill="#179E6C"/>
<path d="M9.56347 0C11.455 0 13.304 0.560888 14.8767 1.61174C16.4494 2.66258 17.6751 4.15619 18.399 5.90369C19.1228 7.65119 19.3122 9.57408 18.9432 11.4292C18.5742 13.2843 17.6633 14.9884 16.3259 16.3259C14.9884 17.6633 13.2843 18.5742 11.4292 18.9432C9.57408 19.3122 7.65119 19.1228 5.90369 18.399C4.15619 17.6751 2.66258 16.4494 1.61174 14.8767C0.560888 13.304 0 11.455 0 9.56347C0.00272202 7.02792 1.01117 4.59699 2.80408 2.80408C4.59699 1.01117 7.02792 0.00272202 9.56347 0V0ZM16.5767 9.56347C16.5767 8.17639 16.1654 6.82046 15.3947 5.66714C14.6241 4.51382 13.5288 3.61492 12.2473 3.08411C10.9658 2.5533 9.55569 2.41441 8.19526 2.68502C6.83483 2.95562 5.5852 3.62357 4.60438 4.60438C3.62357 5.5852 2.95562 6.83483 2.68502 8.19526C2.41441 9.55569 2.5533 10.9658 3.08411 12.2473C3.61492 13.5288 4.51382 14.6241 5.66714 15.3947C6.82046 16.1654 8.17639 16.5767 9.56347 16.5767C11.4227 16.574 13.2049 15.8342 14.5196 14.5196C15.8342 13.2049 16.574 11.4227 16.5767 9.56347V9.56347Z" fill="#179E6C"/>
<path d="M10.3142 192.236C11.5864 192.236 12.6177 191.205 12.6177 189.932C12.6177 188.66 11.5864 187.629 10.3142 187.629C9.04204 187.629 8.01074 188.66 8.01074 189.932C8.01074 191.205 9.04204 192.236 10.3142 192.236Z" fill="#2A3277"/>
<path d="M9.56323 11.8667C10.8354 11.8667 11.8667 10.8354 11.8667 9.56323C11.8667 8.29106 10.8354 7.25977 9.56323 7.25977C8.29106 7.25977 7.25977 8.29106 7.25977 9.56323C7.25977 10.8354 8.29106 11.8667 9.56323 11.8667Z" fill="#2A3277"/>
<path d="M6.51849 127.924H3.125V147.535H6.51849V127.924Z" fill="#179E6C"/>
<path d="M4.61854 63.2935L3.03491 63.9208L4.60826 63.2832L4.61854 63.2935Z" fill="#1D1D1B"/>
</svg>
