<svg width="207" height="200" viewBox="0 0 207 200" fill="none" xmlns="http://www.w3.org/2000/svg">
<path d="M205.836 83.8838L206.419 88.2233C199.565 89.1676 194.876 92.722 192.488 98.7803C191.29 101.898 190.808 105.245 191.077 108.573L186.717 108.998C186.445 105.921 186.722 102.821 187.534 99.8413C187.674 99.8997 187.809 99.9708 187.937 100.054L190.186 96.287C189.817 96.0707 189.434 95.8793 189.04 95.714C189.324 95.1074 189.639 94.5159 189.984 93.9421C190.193 94.0918 190.388 94.2586 190.568 94.4408L193.751 91.4063C193.399 91.022 193.015 90.6671 192.605 90.3453C193.178 89.7221 193.791 89.1373 194.441 88.5947V88.5947C194.858 88.9534 195.216 89.376 195.502 89.8467L199.3 87.6504C198.978 87.1007 198.602 86.5852 198.175 86.1119C200.589 84.954 203.177 84.2012 205.836 83.8838V83.8838Z" fill="#179E6C"/>
<path d="M205.357 188.159V190.737H200.763V189.443H198.196V190.737H193.379V189.443H190.811V190.737H185.994V189.443H183.426V190.737H178.609V189.443H176.042V190.737H171.225V189.443H168.657V190.737H163.84V189.443H161.273V190.737H156.466V189.443H153.888V190.737H149.082V189.443H146.503V190.737H141.686V189.443H139.119V190.737H134.97V189.443H132.392V190.737H127.586V189.443H125.018V190.737H120.201V189.443H117.633V190.737H112.816V189.443H110.249V190.737H105.432V189.443H102.854V190.737H98.0472V189.443H95.4689V190.737H90.6626V189.443H88.0843V190.737H83.278V189.443H80.6997V190.737H75.8933V189.443H73.3257V190.737H69.1347V189.443H66.5565V190.737H61.7501V189.443H59.1719V190.737H54.3549V189.443H51.7873V190.737H46.9703V189.443H44.4026V190.737H39.5857V189.443H37.018V190.737H32.2011V189.443H29.6334V190.737H24.8271V189.443H22.2488V190.737H17.4424V189.443H14.8642V190.737H10.0472V189.443H7.47959V190.737H2.93848V188.159H205.357Z" fill="#A92819"/>
<path d="M204.839 154.249H185.051V156.827H204.839V154.249Z" fill="#179E6C"/>
<path d="M204.744 142.812H184.956V145.39H204.744V142.812Z" fill="#A92819"/>
<path d="M204.744 131.119H184.956V133.697H204.744V131.119Z" fill="#179E6C"/>
<path d="M204.382 27.0559L204.594 29.613C203.278 29.7191 202.016 29.7827 200.796 29.7827C192.987 29.7827 187.003 27.5546 183.013 23.1196C175.491 14.8225 177.708 1.98434 177.857 1.43262L180.392 1.89946C180.392 2.02678 178.27 14.0586 184.923 21.4114C188.997 25.8888 195.544 27.788 204.382 27.0559Z" fill="#2A3277"/>
<path d="M203.851 181.475H2.93848V184.053H203.851V181.475Z" fill="#179E6C"/>
<path d="M195.849 0.403076C197.759 0.403077 199.626 0.969612 201.214 2.03101C202.803 3.0924 204.04 4.60096 204.77 6.36583C205.501 8.1307 205.692 10.0726 205.318 11.9458C204.945 13.819 204.024 15.5394 202.673 16.8892C201.321 18.2391 199.6 19.1578 197.726 19.5292C195.853 19.9005 193.911 19.7078 192.147 18.9754C190.383 18.243 188.876 17.0038 187.816 15.4146C186.756 13.8255 186.192 11.9577 186.194 10.0476C186.197 7.48876 187.215 5.03566 189.026 3.22726C190.836 1.41886 193.29 0.403075 195.849 0.403076V0.403076ZM202.926 10.0476C202.924 8.64841 202.507 7.2812 201.728 6.1188C200.949 4.95641 199.843 4.05099 198.55 3.51698C197.257 2.98297 195.834 2.84434 194.462 3.1186C193.09 3.39286 191.83 4.06771 190.841 5.05786C189.853 6.048 189.18 7.30901 188.908 8.6815C188.635 10.054 188.776 11.4764 189.312 12.7689C189.848 14.0614 190.755 15.1661 191.919 15.9432C193.082 16.7204 194.45 17.1352 195.849 17.1352C197.727 17.1324 199.527 16.3844 200.854 15.0555C202.181 13.7267 202.926 11.9255 202.926 10.0476V10.0476Z" fill="#179E6C"/>
<path d="M200.775 190.737H198.197V200H200.775V190.737Z" fill="#A92819"/>
<path d="M200.775 189.443H198.197V190.727H200.775V189.443Z" fill="#A92819"/>
<path d="M199.344 87.7028L195.546 89.9203C195.26 89.4496 194.902 89.0271 194.485 88.6683C195.642 87.6951 196.91 86.8618 198.262 86.1855C198.672 86.6541 199.035 87.1623 199.344 87.7028V87.7028Z" fill="#179E6C"/>
<path d="M195.853 7.73489C196.313 7.73699 196.761 7.87532 197.142 8.13239C197.523 8.38945 197.819 8.75371 197.993 9.17909C198.167 9.60447 198.211 10.0719 198.119 10.5222C198.028 10.9725 197.804 11.3855 197.478 11.709C197.151 12.0325 196.736 12.2519 196.285 12.3395C195.834 12.4271 195.367 12.3789 194.943 12.2011C194.52 12.0233 194.158 11.7238 193.905 11.3406C193.651 10.9573 193.517 10.5074 193.519 10.0479C193.52 9.74274 193.582 9.44086 193.7 9.15948C193.818 8.8781 193.99 8.62273 194.207 8.40795C194.424 8.19316 194.681 8.02318 194.963 7.90769C195.245 7.79221 195.548 7.73349 195.853 7.73489V7.73489Z" fill="#2A3277"/>
<path d="M196.871 57.5065H190.155C189.809 52.8029 187.743 48.3914 184.351 45.1139C181.008 41.8943 176.547 40.0955 171.906 40.0955C167.264 40.0955 162.803 41.8943 159.46 45.1139C156.041 48.3798 153.948 52.7927 153.582 57.5065H146.855C147.242 50.9921 150.05 44.8576 154.728 40.3076C159.305 35.8156 165.461 33.2991 171.874 33.2991C178.287 33.2991 184.443 35.8156 189.02 40.3076C193.688 44.8627 196.487 50.9958 196.871 57.5065V57.5065ZM194.017 53.6657C194.049 53.4867 194.049 53.3035 194.017 53.1245C193.949 52.868 193.809 52.6362 193.614 52.4561C193.416 52.2865 193.173 52.1794 192.914 52.1484C192.656 52.1051 192.39 52.15 192.16 52.2757C191.926 52.3957 191.733 52.5845 191.609 52.8169C191.477 53.0489 191.418 53.3149 191.439 53.5808C191.456 53.845 191.548 54.0988 191.704 54.3129C191.863 54.5264 192.08 54.6887 192.33 54.7797C192.579 54.8593 192.846 54.8593 193.094 54.7797C193.262 54.728 193.419 54.6491 193.561 54.5463C193.698 54.4371 193.811 54.2996 193.89 54.1431C193.966 53.9949 194.009 53.8321 194.017 53.6657V53.6657ZM191.694 48.7108C191.809 48.47 191.853 48.2013 191.821 47.9362C191.784 47.6708 191.674 47.421 191.503 47.2147C191.332 47.0165 191.107 46.8726 190.855 46.8009C190.607 46.7214 190.34 46.7214 190.092 46.8009C189.844 46.8916 189.628 47.0497 189.466 47.2572C189.309 47.475 189.217 47.7324 189.2 47.9999C189.18 48.2657 189.239 48.5316 189.37 48.7638V48.7638C189.449 48.9207 189.566 49.0556 189.71 49.1564C189.842 49.267 189.998 49.3468 190.166 49.3898C190.336 49.4329 190.515 49.4329 190.686 49.3898C190.859 49.3687 191.025 49.3108 191.174 49.22C191.39 49.1007 191.57 48.9247 191.694 48.7108ZM188.426 43.5012C188.426 43.3201 188.393 43.1404 188.33 42.9707C188.265 42.8045 188.168 42.653 188.044 42.5251C187.922 42.3956 187.774 42.2942 187.609 42.228C187.449 42.1554 187.275 42.1192 187.099 42.1219C186.923 42.1252 186.75 42.1649 186.59 42.2386C186.425 42.3041 186.279 42.4099 186.166 42.5463C186.043 42.6722 185.946 42.8217 185.882 42.9858C185.819 43.1499 185.789 43.3252 185.794 43.5012C185.796 43.8534 185.932 44.1916 186.176 44.4455C186.416 44.6945 186.744 44.8393 187.089 44.8487C187.26 44.8488 187.43 44.8151 187.588 44.7495C187.747 44.684 187.891 44.5879 188.012 44.4667C188.145 44.3455 188.249 44.1971 188.32 44.0317C188.381 43.8612 188.417 43.6823 188.426 43.5012V43.5012ZM183.779 40.6365C183.958 40.3329 184.011 39.971 183.927 39.6285C183.844 39.283 183.632 38.9828 183.333 38.7903C183.185 38.6963 183.019 38.6337 182.845 38.6063C182.672 38.5789 182.495 38.5874 182.325 38.6312C181.985 38.727 181.696 38.9516 181.519 39.2572C181.333 39.5779 181.279 39.9587 181.37 40.3182C181.411 40.4908 181.485 40.6537 181.589 40.7976C181.693 40.9414 181.824 41.0633 181.975 41.1564C182.124 41.2457 182.29 41.3035 182.463 41.3261C182.631 41.3633 182.804 41.3633 182.972 41.3261C183.14 41.2765 183.298 41.1975 183.439 41.0927C183.586 40.9687 183.702 40.8126 183.779 40.6365ZM178.718 38.0795C178.749 37.9076 178.749 37.7315 178.718 37.5596C178.697 37.3813 178.643 37.2085 178.558 37.0503C178.466 36.8996 178.352 36.7637 178.219 36.6471C178.08 36.5414 177.921 36.4655 177.752 36.4243C177.504 36.3394 177.236 36.3394 176.988 36.4243C176.739 36.5151 176.521 36.6771 176.363 36.8902C176.204 37.1033 176.112 37.3581 176.097 37.6232C176.078 37.8923 176.137 38.1611 176.267 38.3978C176.395 38.6309 176.591 38.8195 176.829 38.9389C177.061 39.0572 177.325 39.0981 177.582 39.0556C177.843 39.0256 178.088 38.9142 178.283 38.7373C178.489 38.5659 178.641 38.3369 178.718 38.0795V38.0795ZM173.094 37.4959C173.151 37.3244 173.183 37.1458 173.19 36.9654C173.187 36.6951 173.11 36.4307 172.967 36.2015C172.826 35.9814 172.623 35.8079 172.383 35.7028C172.141 35.6045 171.876 35.5787 171.619 35.6285C171.362 35.676 171.127 35.8065 170.951 35.9999C170.762 36.1891 170.632 36.43 170.58 36.6924C170.527 36.9548 170.553 37.2269 170.654 37.4747C170.743 37.7196 170.906 37.9309 171.121 38.0795C171.336 38.2293 171.59 38.314 171.853 38.3235C172.032 38.3253 172.209 38.2892 172.373 38.2174C172.532 38.1509 172.676 38.0535 172.797 37.9309C172.92 37.8038 173.021 37.6567 173.094 37.4959V37.4959ZM167.418 38.3871C167.606 38.0671 167.659 37.6855 167.566 37.3261C167.499 37.0666 167.355 36.8336 167.153 36.6577C166.963 36.4777 166.722 36.3625 166.463 36.3288C166.205 36.2958 165.943 36.3401 165.71 36.4561C165.477 36.5822 165.284 36.7717 165.155 37.0027C165.025 37.2337 164.964 37.4967 164.977 37.7612C164.99 38.0264 165.082 38.2816 165.243 38.4932C165.394 38.7093 165.609 38.8726 165.858 38.9601C166.107 39.0338 166.373 39.0338 166.622 38.9601C166.935 38.8683 167.203 38.6643 167.375 38.3871H167.418ZM162.389 40.2757C162.439 40.0988 162.452 39.9135 162.429 39.7311C162.405 39.5487 162.344 39.373 162.251 39.2147C162.119 38.9872 161.923 38.8029 161.688 38.6842C161.455 38.5682 161.193 38.5239 160.935 38.5569C160.677 38.5934 160.436 38.7082 160.245 38.8858C160.046 39.0627 159.906 39.2958 159.842 39.5543C159.762 39.8063 159.762 40.0768 159.842 40.3288C159.922 40.5807 160.074 40.8035 160.28 40.9695C160.486 41.1355 160.736 41.2374 160.999 41.2625C161.259 41.2772 161.517 41.2144 161.741 41.0821V41.0821C161.902 40.9956 162.043 40.8764 162.155 40.732C162.262 40.5964 162.341 40.4414 162.389 40.2757V40.2757ZM157.943 43.4588C157.943 43.2776 157.911 43.098 157.848 42.9283C157.783 42.7621 157.685 42.6106 157.561 42.4826C157.443 42.3566 157.298 42.2587 157.137 42.1962C156.977 42.1236 156.803 42.0874 156.627 42.0901C156.452 42.0894 156.279 42.1255 156.118 42.1962C155.962 42.2616 155.821 42.3592 155.704 42.4826C155.578 42.611 155.477 42.7622 155.407 42.9283C155.344 43.0943 155.311 43.2705 155.312 43.4482C155.31 43.6259 155.343 43.8023 155.407 43.968C155.48 44.1326 155.58 44.2834 155.704 44.4137C155.826 44.5336 155.966 44.6338 156.118 44.7108C156.281 44.7731 156.453 44.8054 156.627 44.8062C156.802 44.8074 156.975 44.775 157.137 44.7108C157.294 44.6366 157.438 44.5361 157.561 44.4137C157.684 44.2847 157.781 44.1335 157.848 43.968C157.916 43.8074 157.949 43.6335 157.943 43.4588V43.4588ZM154.325 48.7638C154.51 48.4423 154.559 48.0608 154.463 47.7028C154.368 47.354 154.145 47.0543 153.837 46.8646C153.688 46.7762 153.523 46.7193 153.351 46.6974C153.18 46.6755 153.006 46.6891 152.84 46.7373C152.67 46.7835 152.513 46.8638 152.376 46.9732C152.239 47.0827 152.126 47.2191 152.044 47.3739C151.859 47.6954 151.81 48.0769 151.906 48.4349C151.998 48.7822 152.223 49.0795 152.532 49.2625C152.679 49.3506 152.842 49.4074 153.012 49.4293C153.182 49.4512 153.354 49.4378 153.519 49.3898C153.69 49.3385 153.849 49.2541 153.987 49.1412C154.126 49.0283 154.24 48.8892 154.325 48.732V48.7638ZM152.288 53.793C152.325 53.6181 152.325 53.4373 152.288 53.2625C152.267 53.0842 152.213 52.9114 152.129 52.7532C152.042 52.6014 151.927 52.468 151.789 52.3606C151.651 52.258 151.497 52.1791 151.333 52.1272C151.161 52.0957 150.985 52.0957 150.813 52.1272C150.64 52.1553 150.474 52.2165 150.325 52.3076C150.174 52.3914 150.044 52.5073 149.943 52.6471C149.832 52.7877 149.752 52.9505 149.71 53.1245C149.618 53.4828 149.667 53.8626 149.848 54.1856C150.019 54.4937 150.305 54.7223 150.643 54.8222C150.81 54.8679 150.983 54.8803 151.155 54.8584C151.326 54.8365 151.491 54.7809 151.641 54.6948C151.81 54.5952 151.955 54.4601 152.067 54.2989C152.178 54.1377 152.254 53.9543 152.288 53.7611V53.793Z" fill="#A92819"/>
<path d="M198.218 86.1648C196.865 86.841 195.598 87.6744 194.44 88.6475V88.6475C194.06 88.2957 193.584 88.0646 193.072 87.9834C192.56 87.9022 192.036 87.9746 191.565 88.1913L189.793 84.1701C191.224 83.5465 192.819 83.4038 194.338 83.7635C195.857 84.1231 197.218 84.9657 198.218 86.1648V86.1648Z" fill="#179E6C"/>
<path d="M193.741 91.4054L190.558 94.4399C190.377 94.2577 190.182 94.0909 189.974 93.9412C190.715 92.6704 191.59 91.4823 192.584 90.3975C192.996 90.7019 193.383 91.039 193.741 91.4054V91.4054Z" fill="#179E6C"/>
<path d="M193.39 190.737H190.812V200H193.39V190.737Z" fill="#A92819"/>
<path d="M193.39 189.443H190.812V190.727H193.39V189.443Z" fill="#A92819"/>
<path d="M192.595 90.3979C191.601 91.4828 190.726 92.6708 189.985 93.9417C189.487 93.4908 188.849 93.223 188.178 93.1825C187.507 93.142 186.842 93.3312 186.293 93.7189L183.619 90.2387C184.916 89.2545 186.507 88.735 188.135 88.7638C189.763 88.7927 191.334 89.3682 192.595 90.3979V90.3979Z" fill="#179E6C"/>
<path d="M190.184 96.2863L187.934 100.053C187.807 99.9701 187.672 99.8991 187.531 99.8407C187.775 98.9373 188.069 98.0482 188.412 97.1776C188.592 96.7001 188.815 96.2121 189.038 95.7134C189.432 95.8787 189.815 96.0701 190.184 96.2863V96.2863Z" fill="#179E6C"/>
<path d="M189.039 95.7138C188.816 96.2125 188.594 96.7005 188.413 97.178C188.07 98.0486 187.776 98.9377 187.533 99.8411C186.716 99.4804 184.827 98.8862 183.617 100.488L180.105 97.8358C181.122 96.5064 182.566 95.569 184.194 95.1823C185.822 94.7956 187.534 94.9834 189.039 95.7138V95.7138Z" fill="#179E6C"/>
<path d="M186.007 190.737H183.429V200H186.007V190.737Z" fill="#A92819"/>
<path d="M186.007 189.443H183.429V190.727H186.007V189.443Z" fill="#A92819"/>
<path d="M184.35 120.403C184.425 120.678 184.425 120.967 184.35 121.241C184.318 121.42 184.251 121.591 184.153 121.744C184.055 121.897 183.927 122.029 183.777 122.133C183.469 122.348 183.088 122.436 182.716 122.377C175.905 120.584 172.308 124.976 167.724 130.557C161.464 138.154 153.518 147.809 134.409 148.976C134.231 148.577 134.026 148.19 133.793 147.82C133.793 147.098 133.793 146.43 133.708 145.698C135.573 144.307 137.345 142.798 139.014 141.178C140.795 139.448 142.418 137.563 143.862 135.544C145.243 133.601 146.44 131.533 147.438 129.369C150.271 123.183 150.186 117.04 150.101 111.714V109.592C150.071 109.31 150.025 109.03 149.963 108.753C149.56 106.905 148.601 105.224 147.215 103.936C146.075 102.813 144.568 102.138 142.971 102.037C142.587 102.021 142.202 102.054 141.825 102.133H141.708C140.309 102.36 139.04 103.092 138.144 104.191C137.612 104.817 137.202 105.537 136.934 106.313C136.691 107.087 136.615 107.905 136.711 108.711C136.955 110.182 137.738 111.509 138.907 112.435C139.39 112.753 139.944 112.946 140.52 112.997C141.235 113.076 141.959 113 142.642 112.775C143.179 112.492 143.627 112.066 143.937 111.544C144.158 111.076 144.193 110.54 144.032 110.048C143.995 109.882 143.938 109.722 143.862 109.57C143.759 109.378 143.609 109.214 143.427 109.093C143.378 109.088 143.328 109.088 143.279 109.093C143.229 109.087 143.18 109.087 143.13 109.093H143.045C142.92 109.157 142.825 109.267 142.78 109.401V109.623C142.908 109.965 142.908 110.342 142.78 110.684C142.636 111.03 142.368 111.31 142.028 111.469C141.689 111.628 141.303 111.654 140.945 111.544C140.591 111.428 140.293 111.186 140.106 110.865C139.736 110.115 139.675 109.25 139.937 108.456C140.245 107.651 140.812 106.972 141.549 106.525H141.708C141.925 106.416 142.152 106.33 142.388 106.271C143.199 106.038 144.069 106.138 144.807 106.546C145.504 106.941 146.066 107.536 146.419 108.255C146.618 108.584 146.765 108.942 146.854 109.316C147.183 110.434 147.108 111.632 146.642 112.7V112.796C146.06 113.907 145.148 114.812 144.032 115.385L143.703 115.523C142.629 115.886 141.49 116.02 140.361 115.915C139.213 115.796 138.116 115.379 137.178 114.706C135.446 113.299 134.309 111.291 133.995 109.082C133.837 107.852 133.953 106.602 134.334 105.422C134.684 104.252 135.273 103.169 136.064 102.239C137.424 100.583 139.347 99.4875 141.464 99.1618C142.049 99.0545 142.642 99.0047 143.236 99.0133C145.528 99.1576 147.692 100.117 149.337 101.719C149.646 102.001 149.936 102.302 150.207 102.621V95.809L145.963 90.9708C145.743 90.6586 145.646 90.2767 145.689 89.8973C145.732 89.518 145.912 89.1676 146.197 88.9125C146.487 88.6526 146.868 88.5157 147.258 88.5305C147.653 88.5294 148.033 88.6815 148.319 88.9549L150.144 91.2043V86.9602C150.101 86.7644 150.101 86.5619 150.144 86.3661C150.197 86.1748 150.291 85.9974 150.419 85.8462C150.552 85.6965 150.714 85.5771 150.897 85.4961C151.077 85.4018 151.277 85.3544 151.48 85.3581C151.68 85.357 151.876 85.4044 152.053 85.4961C152.237 85.5743 152.401 85.6942 152.531 85.8462C152.659 85.9974 152.753 86.1748 152.807 86.3661C152.854 86.5613 152.854 86.765 152.807 86.9602V91.2043L154.663 89.0823C154.94 88.8062 155.307 88.6393 155.697 88.612C156.086 88.5847 156.473 88.6989 156.785 88.9337C157.063 89.2211 157.232 89.5963 157.263 89.9947C157.272 90.3782 157.148 90.7529 156.913 91.0557L152.764 95.7984V98.1963C152.934 97.9629 153.136 97.6976 153.327 97.4748C154.42 96.2017 155.757 95.1594 157.258 94.4088C158.759 93.6582 160.395 93.2145 162.069 93.1035C164.655 92.8087 167.266 93.3756 169.496 94.7162C171.725 96.0342 173.422 98.0914 174.292 100.531C175.29 103.21 175.29 106.159 174.292 108.838C173.778 110.158 172.985 111.35 171.967 112.334C170.949 113.317 169.729 114.068 168.393 114.536C166.29 115.257 163.999 115.204 161.931 114.387C160.634 113.879 159.524 112.987 158.748 111.83C158.037 110.823 157.558 109.671 157.348 108.456C157.125 107.243 157.22 105.993 157.624 104.828C158.005 103.716 158.724 102.751 159.682 102.069C160.341 101.589 161.098 101.263 161.899 101.114C162.434 101.04 162.977 101.04 163.512 101.114C164.117 101.161 164.708 101.323 165.252 101.592C165.824 101.871 166.333 102.265 166.748 102.748C167.262 103.311 167.626 103.993 167.809 104.732C167.968 105.474 167.916 106.246 167.661 106.96C167.49 107.437 167.218 107.871 166.865 108.233C166.512 108.604 166.086 108.897 165.613 109.093C165.429 109.172 165.23 109.212 165.029 109.212C164.829 109.212 164.63 109.172 164.446 109.093C164.072 108.937 163.774 108.639 163.618 108.265C163.54 108.081 163.499 107.882 163.499 107.682C163.499 107.481 163.54 107.283 163.618 107.098C163.77 106.722 164.063 106.421 164.435 106.26C164.527 106.23 164.611 106.179 164.679 106.111C164.748 106.045 164.802 105.966 164.838 105.878C164.892 105.698 164.892 105.506 164.838 105.326C164.807 105.083 164.719 104.851 164.584 104.647C164.432 104.475 164.248 104.335 164.043 104.233C163.837 104.147 163.618 104.096 163.395 104.085C163.089 104.042 162.779 104.042 162.472 104.085C162.084 104.197 161.722 104.388 161.411 104.647C160.967 104.982 160.632 105.439 160.446 105.963C160.216 106.646 160.172 107.379 160.319 108.085C160.451 108.845 160.744 109.569 161.178 110.207C161.627 110.863 162.268 111.363 163.014 111.639C164.401 112.195 165.943 112.229 167.353 111.735C168.25 111.434 169.07 110.938 169.751 110.281C170.464 109.586 171.015 108.742 171.364 107.809C172.106 105.807 172.106 103.604 171.364 101.602C170.744 99.8226 169.515 98.3194 167.894 97.3581C166.236 96.3518 164.296 95.9124 162.366 96.1061C159.834 96.2705 157.464 97.4117 155.756 99.2891C154.019 101.572 153.09 104.368 153.114 107.236V111.618C153.114 117.273 153.295 123.788 150.197 130.589C149.584 131.926 148.9 133.229 148.149 134.493C152.987 133.103 156.637 129.029 160.075 125.21C160.913 124.255 161.687 123.321 162.589 122.44C165.176 119.504 168.531 117.347 172.276 116.212C176.011 115.279 180.032 116.032 183.947 119.767C184.033 119.847 184.112 119.936 184.181 120.032C184.22 120.093 184.255 120.157 184.287 120.223L184.35 120.403ZM177.305 119.172C175.881 118.812 174.39 118.812 172.966 119.172C169.744 120.206 166.867 122.104 164.647 124.658C163.841 125.517 163.035 126.44 162.175 127.395C157.878 132.233 153.21 137.485 145.899 138.005C144.458 139.89 142.876 141.663 141.167 143.31C140.425 144.032 139.65 144.732 138.865 145.432C153.719 143.31 160.403 135.056 165.793 128.456C169.433 124.021 172.679 120.18 177.252 119.172H177.305Z" fill="#0F7657"/>
<path d="M183.797 66.8117C184.012 67.3315 184.012 67.9153 183.797 68.4351C183.688 68.6935 183.53 68.9279 183.33 69.1247L175.012 77.1884V84.9337H170.672V77.2733L162.067 69.3581C161.666 68.9741 161.431 68.4478 161.413 67.8922C161.395 67.3367 161.596 66.7964 161.972 66.3873C162.367 65.9792 162.905 65.7401 163.473 65.7204C164.041 65.7006 164.594 65.9016 165.017 66.2812L170.747 71.4908V65.6658L165.123 59.8515C164.739 59.4416 164.533 58.8959 164.55 58.3343C164.575 57.7758 164.819 57.2497 165.229 56.8701C165.649 56.4874 166.2 56.2821 166.768 56.2971C167.05 56.3011 167.329 56.3613 167.587 56.4742C167.846 56.5872 168.08 56.7506 168.274 56.955L170.683 59.4802V47.8091H175.033V59.7666L177.335 57.4749C177.748 57.083 178.294 56.863 178.863 56.8595C179.433 56.8586 179.981 57.0793 180.391 57.4749C180.78 57.8715 180.998 58.4048 180.998 58.9603C180.998 59.5157 180.78 60.049 180.391 60.4457L175.033 65.6764V71.2573L180.338 66.1221C180.75 65.7333 181.294 65.5168 181.861 65.5168C182.427 65.5168 182.971 65.7333 183.383 66.1221C183.562 66.3247 183.702 66.5584 183.797 66.8117V66.8117Z" fill="#F8B05E"/>
<path d="M161.369 147.958L182.345 177.602H17.7725L37.5072 148L40.5417 150.026L24.6266 173.931H175.29L158.356 150.08L161.369 147.958Z" fill="#0F7657"/>
<path d="M178.62 190.737H176.042V200H178.62V190.737Z" fill="#A92819"/>
<path d="M178.62 189.443H176.042V190.727H178.62V189.443Z" fill="#A92819"/>
<path d="M171.237 190.737H168.659V200H171.237V190.737Z" fill="#A92819"/>
<path d="M171.237 189.443H168.659V190.727H171.237V189.443Z" fill="#A92819"/>
<path d="M163.997 5.73999L164.103 11.5755C154.893 11.7559 148.188 15.7241 144.05 23.3633C141.973 27.2974 140.813 31.6498 140.655 36.0954L134.808 35.9787C134.943 31.8767 135.794 27.8298 137.323 24.0211C137.499 24.1214 137.669 24.2312 137.832 24.3501L141.387 19.7347C140.938 19.3836 140.462 19.0679 139.965 18.7904C140.432 18.0583 140.93 17.3156 141.482 16.5941C141.742 16.8189 141.977 17.0715 142.182 17.3474L146.84 13.8249C146.431 13.2879 145.981 12.7842 145.493 12.3182C146.348 11.5747 147.256 10.8939 148.209 10.2811C148.733 10.8194 149.16 11.4439 149.471 12.1273L154.777 9.79304C154.458 9.01275 154.056 8.26925 153.578 7.57553C156.927 6.39925 160.447 5.77921 163.997 5.73999V5.73999Z" fill="#179E6C"/>
<path d="M163.842 190.737H161.264V200H163.842V190.737Z" fill="#A92819"/>
<path d="M163.842 189.443H161.264V190.727H163.842V189.443Z" fill="#A92819"/>
<path d="M156.467 190.737H153.889V200H156.467V190.737Z" fill="#A92819"/>
<path d="M156.467 189.443H153.889V190.727H156.467V189.443Z" fill="#A92819"/>
<path d="M154.821 9.77148L149.516 12.1057C149.204 11.4223 148.777 10.7978 148.253 10.2595C149.921 9.16665 151.708 8.26614 153.579 7.5752C154.071 8.26029 154.487 8.99668 154.821 9.77148V9.77148Z" fill="#179E6C"/>
<path d="M149.084 190.737H146.506V200H149.084V190.737Z" fill="#A92819"/>
<path d="M149.084 189.443H146.506V190.727H149.084V189.443Z" fill="#A92819"/>
<path d="M153.582 7.57583C151.696 8.26384 149.895 9.16443 148.213 10.2602C147.759 9.73932 147.163 9.36172 146.498 9.17335C145.833 8.98498 145.128 8.99395 144.468 9.19917L142.749 3.61827C147.417 2.19652 151.322 4.42464 153.582 7.57583Z" fill="#179E6C"/>
<path d="M146.842 13.8037L142.184 17.3262C141.979 17.0503 141.744 16.7977 141.484 16.5729C142.663 15.0168 144.008 13.5937 145.494 12.3289C145.981 12.7846 146.432 13.2777 146.842 13.8037V13.8037Z" fill="#179E6C"/>
<path d="M145.496 12.2973C144.009 13.5621 142.664 14.9852 141.485 16.5413C140.896 15.8663 140.095 15.4122 139.214 15.254C138.332 15.0958 137.423 15.243 136.636 15.6713L133.644 10.6527C138.037 8.07444 142.546 9.54924 145.496 12.2973Z" fill="#179E6C"/>
<path d="M141.697 190.737H139.119V200H141.697V190.737Z" fill="#A92819"/>
<path d="M141.697 189.443H139.119V190.727H141.697V189.443Z" fill="#A92819"/>
<path d="M141.391 19.7138L137.836 24.3292C137.673 24.2103 137.503 24.1005 137.327 24.0003C137.79 22.8398 138.318 21.7063 138.908 20.6051C139.237 20.0003 139.587 19.3849 139.969 18.7695C140.467 19.0471 140.942 19.3628 141.391 19.7138V19.7138Z" fill="#179E6C"/>
<path d="M139.966 18.7692C139.584 19.3846 139.234 19.9999 138.905 20.6047C138.315 21.7059 137.787 22.8394 137.324 23.9999C136.263 23.3846 133.897 22.3023 132.019 24.2334L127.775 20.1803C131.478 16.4031 136.369 16.7108 139.966 18.7692Z" fill="#179E6C"/>
<path d="M135.693 154.939V158.376C135.651 159.541 135.502 160.699 135.247 161.835C134.929 163.164 134.383 164.428 133.634 165.57C133.032 166.511 132.32 167.376 131.512 168.148C130.253 169.316 128.703 170.122 127.024 170.483C125.881 170.726 124.709 170.801 123.544 170.705C122.678 170.66 121.816 170.55 120.966 170.376C119.855 170.194 118.781 169.836 117.783 169.315C116.798 168.79 115.931 168.067 115.237 167.193C114.544 166.33 114.029 165.338 113.719 164.276C113.452 163.268 113.317 162.23 113.316 161.188C113.308 160.112 113.451 159.041 113.741 158.005C114.002 157.114 114.388 156.264 114.886 155.48V152.636C114.94 151.679 114.94 150.719 114.886 149.761C114.856 149.044 114.745 148.332 114.558 147.639C114.222 146.502 113.829 145.383 113.38 144.286C112.945 143.225 112.542 142.27 112.191 141.22C111.937 140.435 111.756 139.607 111.512 138.843L111.332 138.514C111.13 138.217 110.833 137.888 110.6 137.602C110.176 137.04 109.751 136.445 109.369 135.841C109.231 136.583 109.093 137.326 108.902 138.09C108.414 140.074 107.703 141.994 107.152 143.968C106.986 144.496 106.858 145.035 106.77 145.581V145.729C107.072 146.548 107.323 147.384 107.523 148.233C107.823 149.45 108.028 150.688 108.138 151.936C108.308 153.497 108.017 155.074 107.303 156.473C106.588 157.871 105.481 159.031 104.117 159.809C103.619 160.106 103.13 160.392 102.621 160.647C101.968 160.974 101.286 161.241 100.584 161.443C99.7827 162.279 98.8466 162.975 97.8148 163.501C96.6553 164.095 95.4304 164.55 94.165 164.859C92.846 165.178 91.4892 165.314 90.1331 165.262C89.0633 165.211 87.999 165.076 86.9501 164.859C85.0493 164.473 83.3592 163.396 82.2074 161.835C81.9764 161.523 81.7706 161.193 81.592 160.849C82.9492 160.706 84.2847 160.403 85.5708 159.947C86.1633 160.578 86.9456 160.999 87.7989 161.146C88.6438 161.329 89.5028 161.439 90.3666 161.475C91.3755 161.551 92.3902 161.484 93.3798 161.273C94.3525 161.022 95.2952 160.666 96.1915 160.212C97.1802 159.736 98.0229 159.003 98.6318 158.09H98.8016C99.5839 158.009 100.342 157.771 101.03 157.39C101.462 157.181 101.883 156.951 102.292 156.7C103.039 156.272 103.641 155.629 104.019 154.856C104.397 154.082 104.535 153.213 104.414 152.361C104.329 151.326 104.159 150.301 103.905 149.294C103.714 148.509 103.481 147.83 103.226 147.066C103.13 146.758 103.046 146.451 102.971 146.132C102.961 145.991 102.961 145.849 102.971 145.708C103.057 144.801 103.235 143.905 103.502 143.034C104.054 141.114 104.743 139.225 105.242 137.262C105.625 135.679 105.856 134.062 105.932 132.435C105.934 131.724 105.991 131.015 106.101 130.313C106.335 129.4 106.759 128.392 107.035 127.459C107.523 125.846 107.894 124.276 108.372 122.62L108.552 121.984L108.849 122.875C109.284 124.233 109.709 125.591 110.112 126.96C110.314 127.692 110.547 128.477 110.717 129.199C110.886 129.92 111.024 130.578 111.268 131.268C111.565 132.049 111.946 132.796 112.404 133.496C112.807 134.122 113.221 134.727 113.677 135.321C114.01 135.71 114.321 136.118 114.611 136.541C114.835 136.922 115.013 137.328 115.141 137.75C115.406 138.451 115.502 139.087 115.82 140.074C116.138 141.061 116.573 142.005 116.945 142.949C117.422 144.148 117.868 145.39 118.239 146.62C118.526 147.579 118.718 148.563 118.812 149.559C118.905 150.618 118.905 151.684 118.812 152.742C118.706 153.75 118.812 154.865 118.706 155.926C118.675 156.227 118.618 156.525 118.536 156.817C118.465 156.931 118.387 157.04 118.303 157.146C117.921 157.699 117.634 158.312 117.454 158.96C117.259 159.65 117.166 160.365 117.178 161.082C117.165 161.798 117.25 162.512 117.433 163.204C117.596 163.792 117.878 164.341 118.26 164.817C118.644 165.284 119.116 165.67 119.65 165.952C120.277 166.3 120.948 166.561 121.645 166.727C122.346 166.854 123.055 166.932 123.767 166.96C124.579 167.045 125.399 167.002 126.197 166.833C127.214 166.611 128.155 166.124 128.924 165.422C129.536 164.876 130.077 164.255 130.536 163.575C131.024 162.797 131.383 161.944 131.597 161.05C131.789 160.124 131.903 159.184 131.937 158.239V155.055C131.926 154.112 131.808 153.172 131.587 152.254C131.481 151.868 131.35 151.488 131.194 151.119C132.255 150.429 133.199 149.729 134.186 148.997H134.345C134.706 149.719 134.99 150.476 135.194 151.257C135.512 152.459 135.68 153.696 135.693 154.939Z" fill="#A92819"/>
<path d="M134.969 190.737H132.391V200H134.969V190.737Z" fill="#A92819"/>
<path d="M134.969 189.443H132.391V190.727H134.969V189.443Z" fill="#A92819"/>
<path d="M134.376 148.976H134.217C133.23 149.698 132.243 150.398 131.225 151.098C131.036 150.623 130.805 150.165 130.535 149.73C130.387 149.486 130.047 149.348 130.047 149.008V148.403C131.108 147.682 132.233 146.897 133.23 146.069L133.644 145.751C133.644 146.441 133.708 147.109 133.729 147.873C133.97 148.225 134.186 148.594 134.376 148.976V148.976Z" fill="#A92819"/>
<path d="M133.678 145.74L133.264 146.058C132.203 146.886 131.142 147.671 130.081 148.393V147.947C130.018 146.271 129.901 144.764 129.774 142.886C129.646 141.008 129.498 139.119 129.233 137.263C129.02 135.654 128.585 134.083 127.938 132.594C127.382 131.487 126.744 130.423 126.028 129.411C125.683 128.926 125.434 128.378 125.296 127.798C124.936 126.023 124.691 124.226 124.564 122.419C124.31 119.682 124.087 116.955 123.758 114.249C123.504 111.928 123.057 109.632 122.421 107.385C121.784 105.114 120.904 102.897 120.172 100.658C119.494 98.4856 118.931 96.2792 118.485 94.0478C118.033 91.8637 117.728 89.6519 117.572 87.4271C117.36 84.7639 117.233 82.0159 117.233 79.3634C117.232 78.2502 117.296 77.1378 117.424 76.0319C117.604 74.5819 117.689 73.1216 117.678 71.6605C117.605 69.3432 117.36 67.0346 116.946 64.7533C116.649 63.0557 116.256 61.4006 115.885 59.7348H116.065C117.367 59.7236 118.661 59.5453 119.917 59.2043C121.19 58.8849 122.381 58.3001 123.412 57.4883C124.444 56.6765 125.292 55.6559 125.901 54.4934C126.514 53.3256 126.954 52.0746 127.206 50.7799C127.45 49.4684 127.45 48.1232 127.206 46.8117C126.988 45.3414 126.436 43.9404 125.593 42.7162C124.694 41.4321 123.538 40.3484 122.198 39.5332C121.712 39.2258 121.205 38.9528 120.681 38.7162V38.8011V38.5783C120.608 37.7068 120.37 36.8571 119.981 36.0743C119.637 35.3622 119.158 34.7243 118.569 34.1963C118.055 33.7468 117.493 33.3554 116.893 33.0292C116.833 32.0541 116.461 31.1241 115.832 30.3767C115.684 30.1963 115.524 30.0372 115.365 29.878C115.046 29.3019 114.617 28.7938 114.103 28.382C113.616 27.9615 113.078 27.6049 112.5 27.321H112.405C112.003 26.8704 111.512 26.5089 110.962 26.26C110.11 25.9064 109.171 25.8176 108.267 26.0053C107.2 26.1915 106.24 26.766 105.572 27.6181L105.413 27.8091L104.893 27.9045C104.31 28.0364 103.758 28.2815 103.27 28.626C102.785 28.976 102.38 29.4244 102.081 29.9417C101.914 30.2588 101.772 30.5888 101.657 30.9284C101.54 31.1725 101.434 31.4165 101.339 31.6711C101.243 31.9258 101.18 32.1592 101.116 32.4138C100.937 32.818 100.823 33.2475 100.776 33.687C100.682 34.3743 100.722 35.0732 100.893 35.7454C100.918 35.8857 100.954 36.024 100.999 36.1592C101.022 36.4462 101.072 36.7304 101.148 37.008C101.331 37.6802 101.648 38.3083 102.081 38.8541C102.421 39.2876 102.821 39.67 103.27 39.9894L103.62 40.2228V40.9868C103.408 42.886 103.047 44.7746 102.909 46.695C102.782 48.7124 102.782 50.7359 102.909 52.7533C102.909 53.8144 103.036 54.8754 103.036 55.9364V58.3024C102.773 58.0108 102.493 57.7344 102.198 57.4748C101.452 56.7689 100.572 56.2204 99.6093 55.8621C98.6097 55.5006 97.562 55.2896 96.5005 55.2361C95.3416 55.152 94.1771 55.2778 93.0628 55.6075C91.7061 56.0297 90.4864 56.8062 89.5297 57.8568C88.6987 58.88 88.1078 60.0764 87.8002 61.3581C87.4117 62.5444 87.2532 63.794 87.3334 65.0398C87.4418 66.399 87.7455 67.7355 88.2353 69.008C88.7037 70.1747 89.2423 71.3121 89.848 72.4138C90.2724 73.1353 90.6862 74.0053 91.1743 74.748C90.8135 74.9178 90.4634 75.1088 90.1132 75.3104C88.9897 76.0669 88.0945 77.1162 87.5244 78.3448C86.8124 79.7476 86.1714 81.1853 85.604 82.6525C85.1796 83.7135 84.84 84.6154 84.4262 85.8356C84.0125 87.0557 83.5881 88.2334 83.1955 89.443C82.9727 90.122 82.7605 90.8329 82.5377 91.565C81.6146 92.4138 80.6066 93.3157 79.8109 94.122C79.0151 94.9284 78.2512 95.6817 77.4873 96.4881C77.0416 96.9337 76.5748 97.3581 76.0761 97.7825L74.5589 99.1194L74.1133 99.5226C73.8734 99.4588 73.6285 99.4162 73.3812 99.3952C72.2874 99.3089 71.1901 99.5101 70.1981 99.9788C69.8355 100.137 69.4813 100.314 69.1371 100.509C68.772 100.578 68.416 100.688 68.0761 100.838C67.2049 101.206 66.473 101.842 65.9859 102.653C65.522 103.47 65.3358 104.415 65.4554 105.347C65.5298 105.997 65.7433 106.623 66.0814 107.183C66.1641 107.483 66.2742 107.774 66.4103 108.053C66.5367 108.328 66.6932 108.588 66.8772 108.828C67.027 109.173 67.2157 109.501 67.4395 109.804C68.1201 110.693 69.0873 111.319 70.1769 111.576C70.9708 111.745 71.7915 111.745 72.5854 111.576C72.9462 111.501 73.2645 111.395 73.6464 111.321C74.1203 111.257 74.584 111.133 75.0257 110.95C75.5752 110.69 76.0717 110.33 76.4899 109.889C77.0098 109.592 77.5509 109.337 78.1026 109.061C79.0384 108.576 79.9453 108.038 80.8188 107.448C82.4953 106.377 84.1171 105.223 85.6782 103.989C87.3228 102.663 88.8613 101.241 90.4209 99.809C91.5766 98.7584 92.5327 97.5075 93.2432 96.1167L94.5695 93.878C95.2591 95.3634 96.1822 96.8064 96.8719 98.3236C97.3711 99.2807 97.6366 100.342 97.6464 101.422C97.5335 102.606 97.2733 103.771 96.8719 104.891C96.0655 107.247 95.2591 109.496 94.6756 111.936C94.0488 114.587 93.6337 117.283 93.4342 120C93.275 122.048 93.2751 124.064 93.2751 126.09C93.3385 127.012 93.3385 127.937 93.2751 128.859C93.1953 129.495 93.0784 130.126 92.9249 130.748C92.608 131.944 92.374 133.16 92.2246 134.387C92.0583 136.08 91.991 137.78 92.0231 139.48C91.9488 141.496 91.8427 143.523 91.726 145.538C91.726 146.08 91.6729 146.695 91.5987 147.13C91.5987 147.024 91.5032 147.13 91.5032 147.13C91.1424 147.639 90.7392 148.117 90.3573 148.594C90.0258 149.03 89.6716 149.448 89.2963 149.846C88.9443 150.179 88.5644 150.48 88.161 150.748C87.5512 151.171 86.9797 151.647 86.4528 152.17C85.7566 152.916 85.2348 153.807 84.9249 154.78C84.7435 155.392 84.6296 156.021 84.5854 156.658C84.5748 156.796 84.5748 156.934 84.5854 157.072C83.369 157.493 82.1027 157.753 80.8188 157.846C80.7657 157.363 80.7657 156.876 80.8188 156.393C80.8871 153.877 81.8588 151.47 83.5562 149.613C84.2298 148.905 84.9808 148.275 85.7949 147.735C86.0531 147.559 86.2978 147.364 86.527 147.151C86.8029 146.875 87.0788 146.525 87.3334 146.217L87.8109 145.634V145.379C87.9382 143.406 88.0337 141.411 88.1079 139.427C88.0725 137.656 88.1469 135.884 88.3308 134.122C88.4874 132.726 88.7462 131.343 89.1053 129.984C89.2288 129.52 89.321 129.049 89.3811 128.573C89.4236 127.795 89.4236 127.016 89.3811 126.239C89.3811 124.117 89.3812 121.995 89.5403 119.777C89.7676 116.867 90.2253 113.979 90.909 111.141C91.5138 108.658 92.2883 106.292 93.031 103.82C93.1796 103.363 93.4342 102.61 93.5827 101.984C93.3756 102.209 93.1522 102.418 92.9143 102.61C91.3016 104.117 89.7313 105.602 87.9806 106.971C86.3042 108.307 84.5582 109.554 82.7499 110.706C81.7771 111.361 80.7713 111.967 79.7366 112.52C79.3334 112.732 78.9302 112.912 78.5164 113.103C77.8871 113.673 77.1707 114.139 76.3944 114.483C75.7114 114.766 75 114.976 74.2724 115.109C73.8692 115.204 73.5191 115.3 73.1371 115.374C71.8109 115.65 70.4421 115.65 69.1159 115.374C67.1877 114.895 65.4808 113.772 64.2777 112.191C63.969 111.771 63.6991 111.323 63.4714 110.854C63.0063 110.208 62.648 109.492 62.4103 108.732C61.8811 107.727 61.566 106.624 61.485 105.491C61.404 104.358 61.5589 103.221 61.9398 102.151C62.3207 101.081 62.9193 100.102 63.698 99.2749C64.4766 98.4481 65.4182 97.7918 66.4634 97.3475C66.8912 97.169 67.3308 97.0201 67.779 96.9019L68.5642 96.4987C69.8989 95.8941 71.3432 95.5692 72.8082 95.5438L73.5509 94.8966C73.9656 94.5682 74.359 94.2138 74.7286 93.8356C75.5244 93.0292 76.3414 92.2228 77.0841 91.3846C77.8268 90.5464 78.3573 90.1539 79.0576 89.443C79.1849 89.0398 79.291 88.6366 79.4183 88.2547C79.8215 87.0239 80.2671 85.8037 80.6809 84.5942C81.0947 83.3846 81.4766 82.3767 81.9223 81.4112C82.5486 79.8264 83.2569 78.2752 84.0443 76.7639C84.5784 75.694 85.2606 74.7046 86.0708 73.825C85.4737 72.7297 84.9354 71.6034 84.4581 70.451C83.8302 68.8303 83.4511 67.124 83.3334 65.3899C83.1921 63.6418 83.3939 61.8829 83.9276 60.2122C84.4851 58.4347 85.4146 56.7963 86.6544 55.4059C88.0683 53.8472 89.8748 52.6966 91.8851 52.0743C93.4562 51.6065 95.0989 51.4268 96.7339 51.5438C97.4849 51.5974 98.2323 51.693 98.9727 51.8303V51.8303C98.9727 50.0478 98.9727 48.2865 99.0788 46.5252C99.2061 44.9974 99.4607 43.5226 99.6411 42.0372C99.4395 41.8144 99.2273 41.5703 99.0363 41.3263C98.2809 40.3905 97.7314 39.3059 97.4236 38.1433C97.3214 37.7954 97.2434 37.4409 97.1902 37.0823V36.764C96.7529 35.0053 96.8602 33.1553 97.4979 31.4589C97.5933 31.1406 97.6994 30.8329 97.8055 30.5146C97.9116 30.1963 98.1026 29.878 98.2512 29.5597C98.6806 28.4199 99.3541 27.3878 100.225 26.5358C101.085 25.6781 102.125 25.0221 103.27 24.6154C104.482 23.5214 105.977 22.7901 107.585 22.505C109.193 22.2198 110.848 22.3923 112.363 23.0027C113.191 23.3729 113.954 23.8745 114.623 24.4881C115.255 24.8451 115.865 25.242 116.447 25.6764C117.154 26.2691 117.769 26.9627 118.272 27.7348L118.665 28.1592C119.34 28.9813 119.851 29.9248 120.172 30.939C120.352 31.0664 120.522 31.1937 120.702 31.3422C121.622 32.076 122.405 32.9668 123.015 33.9735C123.486 34.7196 123.843 35.5312 124.076 36.382C126.323 37.7732 128.172 39.7212 129.445 42.0372C130.453 43.9091 131.009 45.9912 131.068 48.1167C131.129 50.1485 130.827 52.1749 130.177 54.1008C129.477 56.1706 128.32 58.0563 126.792 59.6181C125.168 61.249 123.145 62.4268 120.925 63.0345L120.511 63.1512L120.691 64.0637C121.139 66.537 121.39 69.0416 121.445 71.5544C121.477 73.1712 121.392 74.7881 121.19 76.3926C121.076 77.3396 121.019 78.2928 121.02 79.2467C121.02 81.8356 121.148 84.4669 121.349 87.0345C121.495 89.1732 121.782 91.2998 122.209 93.4005C122.624 95.5064 123.162 97.586 123.821 99.6287C124.554 101.899 125.434 104.117 126.071 106.419C126.785 108.847 127.289 111.332 127.577 113.846C127.906 116.584 128.129 119.332 128.405 122.069C128.511 123.697 128.723 125.317 129.042 126.918V127.056L129.211 127.332C130.01 128.5 130.719 129.727 131.333 131.003C132.151 132.815 132.694 134.739 132.946 136.711C133.233 138.653 133.402 140.626 133.54 142.589C133.551 143.756 133.625 144.753 133.678 145.74Z" fill="#A92819"/>
<path d="M131.968 155.024V158.207C131.934 159.152 131.821 160.092 131.629 161.018C131.414 161.912 131.056 162.765 130.568 163.543C130.109 164.223 129.567 164.844 128.955 165.39C128.186 166.092 127.245 166.579 126.228 166.801C125.43 166.97 124.61 167.013 123.798 166.928C123.086 166.9 122.377 166.822 121.676 166.695C120.979 166.529 120.308 166.268 119.682 165.92C119.147 165.638 118.675 165.252 118.292 164.785C117.909 164.309 117.627 163.76 117.464 163.172C117.282 162.48 117.196 161.766 117.21 161.05C117.198 160.333 117.29 159.618 117.485 158.928C117.665 158.28 117.952 157.667 118.334 157.114C118.418 157.008 118.496 156.899 118.568 156.785C118.65 156.493 118.706 156.195 118.737 155.894C118.844 154.833 118.737 153.676 118.844 152.711C118.936 151.652 118.936 150.586 118.844 149.528C118.749 148.532 118.557 147.547 118.271 146.589C117.899 145.358 117.454 144.116 116.976 142.917C116.605 141.973 116.17 141.018 115.851 140.042C115.533 139.066 115.438 138.419 115.172 137.719C115.044 137.296 114.866 136.89 114.642 136.509C114.353 136.086 114.041 135.679 113.708 135.289C113.252 134.695 112.838 134.09 112.435 133.464C111.977 132.764 111.597 132.017 111.3 131.236C111.056 130.546 110.928 129.867 110.748 129.167C110.568 128.467 110.345 127.66 110.143 126.928C109.74 125.559 109.316 124.201 108.881 122.843L108.584 121.952L108.403 122.589C107.926 124.201 107.554 125.772 107.066 127.427C106.79 128.36 106.366 129.368 106.133 130.281C106.022 130.983 105.966 131.692 105.963 132.403C105.887 134.03 105.656 135.647 105.273 137.23C104.775 139.193 104.085 141.082 103.533 143.002C103.266 143.873 103.088 144.769 103.003 145.676C102.992 145.817 102.992 145.959 103.003 146.1C103.077 146.419 103.162 146.726 103.257 147.034C103.512 147.798 103.745 148.477 103.936 149.262C104.19 150.269 104.36 151.294 104.446 152.329C104.566 153.181 104.428 154.05 104.05 154.824C103.672 155.597 103.071 156.24 102.324 156.668C101.915 156.919 101.493 157.149 101.061 157.358C100.373 157.739 99.6153 157.977 98.8329 158.058H98.6631C98.0542 158.971 97.2115 159.704 96.2228 160.18C95.3265 160.634 94.3838 160.99 93.4112 161.241C92.4215 161.452 91.4068 161.519 90.3979 161.443C89.5342 161.407 88.6751 161.297 87.8303 161.114C86.9695 160.982 86.1756 160.572 85.5703 159.947C86.1544 159.751 86.7251 159.517 87.2785 159.246C87.603 159.044 87.8382 158.725 87.9364 158.355C88.0317 158.051 88.0317 157.725 87.9364 157.421L88.2547 157.284C88.2547 157.379 88.3714 157.421 88.5836 157.464C89.2154 157.599 89.8582 157.677 90.504 157.697C91.1572 157.735 91.8123 157.67 92.4456 157.506C93.1229 157.343 93.7809 157.108 94.4085 156.806C94.801 156.63 95.133 156.342 95.3634 155.978C95.565 155.671 95.6499 155.299 95.9151 154.917C96.1722 154.554 96.5008 154.247 96.8806 154.016C97.1355 153.837 97.4392 153.74 97.7507 153.74C97.8392 153.749 97.9236 153.782 97.9947 153.835C98.0706 153.881 98.1358 153.942 98.1857 154.016C98.1857 154.132 98.2918 154.207 98.4722 154.185C98.7594 154.132 99.0378 154.039 99.2997 153.909C99.6499 153.729 100.053 153.464 100.361 153.326C100.668 153.188 100.7 153.103 100.668 152.551C100.576 151.727 100.434 150.908 100.244 150.1C100.053 149.273 99.8196 148.689 99.6711 148.169C99.5033 147.721 99.372 147.26 99.2785 146.79C99.2043 146.301 99.2043 145.804 99.2785 145.315C99.3818 144.155 99.6094 143.01 99.9576 141.899C100.424 140.286 101.21 137.994 101.57 136.254C101.95 134.893 102.185 133.495 102.271 132.085C102.282 131.155 102.374 130.229 102.546 129.315C102.769 128.435 103.13 127.565 103.533 126.228C103.936 124.891 104.361 123.045 104.859 121.39C105.358 119.734 105.92 118.207 106.483 116.7C107.045 115.193 107.416 114.111 107.735 113.326C107.894 112.842 108.175 112.407 108.552 112.063C108.659 111.982 108.789 111.938 108.923 111.936C109.061 111.936 109.195 111.981 109.305 112.063C109.679 112.4 109.945 112.839 110.069 113.326C110.345 114.079 110.653 115.204 111.13 116.679C111.607 118.154 112.191 119.862 112.753 121.517C113.316 123.172 113.708 124.594 114.027 125.676C114.345 126.758 114.536 127.469 114.706 128.106C114.812 128.651 114.95 129.189 115.119 129.719C115.342 130.232 115.6 130.728 115.894 131.204C116.223 131.724 116.573 132.265 116.955 132.721C117.376 133.235 117.766 133.773 118.122 134.334C118.515 134.967 118.825 135.648 119.045 136.36C119.289 137.103 119.448 137.973 119.703 138.673C119.958 139.374 120.318 140.286 120.764 141.347C121.306 142.655 121.77 143.995 122.154 145.358C122.547 146.577 122.804 147.837 122.918 149.114C123.003 150.323 122.918 151.512 122.918 152.774C122.942 153.953 122.903 155.133 122.801 156.307C122.768 157.036 122.61 157.754 122.334 158.429C122.184 158.768 121.995 159.088 121.772 159.384C121.625 159.6 121.511 159.836 121.432 160.085C121.104 160.744 121.047 161.506 121.273 162.207C121.283 162.302 121.324 162.392 121.39 162.461C121.449 162.538 121.525 162.6 121.613 162.642C121.911 162.79 122.229 162.894 122.557 162.949C123.098 163.034 123.618 163.108 124.17 163.14C124.627 163.204 125.092 163.204 125.549 163.14C125.918 163.068 126.256 162.882 126.515 162.61C126.86 162.294 127.167 161.938 127.427 161.549C127.687 161.131 127.874 160.672 127.979 160.191C128.135 159.494 128.224 158.783 128.244 158.069V155.215C128.246 154.604 128.178 153.995 128.042 153.4C128.137 153.357 128.226 153.304 128.308 153.241C129.369 152.562 130.345 151.872 131.342 151.172C131.498 151.541 131.629 151.921 131.735 152.307C131.911 153.202 131.989 154.112 131.968 155.024V155.024Z" fill="#F4F4F4"/>
<path d="M130.535 149.719C130.805 150.154 131.035 150.612 131.224 151.088C130.227 151.788 129.209 152.477 128.19 153.157C128.108 153.219 128.019 153.273 127.925 153.316C127.92 153.273 127.92 153.231 127.925 153.188C127.786 152.67 127.568 152.176 127.278 151.724C127.022 151.362 126.791 150.983 126.588 150.589L129.569 148.711L130.068 148.393V148.997C130.047 149.337 130.386 149.475 130.535 149.719Z" fill="#F4F4F4"/>
<path d="M130.049 147.947V148.393L129.55 148.711L126.569 150.589L126.378 150.239C126.21 149.545 126.149 148.829 126.197 148.117C126.197 146.928 126.028 145.072 125.9 143.172C125.773 141.273 125.593 139.363 125.391 137.867C125.232 136.621 124.9 135.403 124.404 134.249C123.927 133.296 123.388 132.374 122.791 131.491C122.187 130.622 121.761 129.64 121.54 128.605C121.146 126.654 120.873 124.68 120.723 122.695C120.478 120.149 120.224 117.029 119.927 114.631C119.702 112.524 119.293 110.44 118.707 108.403C118.102 106.366 117.242 104.074 116.489 101.74C115.767 99.4386 115.165 97.1013 114.685 94.7375C114.2 92.3894 113.878 90.0106 113.72 87.6181C113.508 84.8383 113.38 81.3688 113.38 79.268C113.35 77.9983 113.421 76.7281 113.593 75.4696C113.755 74.1961 113.822 72.9123 113.794 71.6288C113.742 69.4928 113.522 67.3643 113.136 65.2627C112.723 62.8436 112.075 60.2017 111.693 58.5359C111.424 57.4972 111.303 56.4256 111.333 55.3529C111.333 54.5359 111.471 53.581 111.555 52.3715L111.619 51.2256C111.619 52.2866 111.619 53.3476 111.619 54.4086C111.484 55.2111 111.554 56.0349 111.823 56.803C112.092 57.5712 112.551 58.2586 113.158 58.8012C113.931 59.424 114.891 59.7679 115.884 59.7773C116.256 61.4431 116.648 63.0983 116.945 64.7959C117.359 67.0771 117.604 69.3858 117.677 71.703C117.688 73.1641 117.603 74.6244 117.423 76.0744C117.295 77.1803 117.232 78.2927 117.232 79.4059C117.232 82.0585 117.359 84.8065 117.571 87.4696C117.727 89.6944 118.032 91.9063 118.484 94.0903C118.93 96.3217 119.493 98.5281 120.171 100.7C120.903 102.939 121.784 105.157 122.42 107.427C123.056 109.674 123.503 111.97 123.757 114.292C124.086 116.997 124.309 119.724 124.563 122.462C124.69 124.269 124.935 126.066 125.295 127.841C125.434 128.421 125.682 128.968 126.028 129.454C126.743 130.465 127.381 131.529 127.937 132.637C128.584 134.125 129.019 135.696 129.232 137.305C129.497 139.162 129.646 141.05 129.773 142.928C129.9 144.806 129.985 146.271 130.049 147.947Z" fill="#F4F4F4"/>
<path d="M128.117 155.13V157.984C128.097 158.698 128.008 159.409 127.851 160.106C127.746 160.587 127.56 161.046 127.3 161.464C127.039 161.853 126.733 162.209 126.387 162.525C126.128 162.798 125.791 162.983 125.422 163.056C124.964 163.119 124.5 163.119 124.042 163.056C123.501 163.056 122.981 162.95 122.43 162.865C122.102 162.809 121.783 162.705 121.485 162.557C121.398 162.515 121.322 162.453 121.263 162.377C121.197 162.307 121.156 162.217 121.146 162.122C120.92 161.421 120.977 160.659 121.305 160C121.383 159.751 121.498 159.515 121.645 159.3C121.868 159.004 122.056 158.683 122.207 158.345C122.483 157.669 122.641 156.952 122.674 156.223C122.776 155.048 122.815 153.869 122.79 152.69C122.79 151.427 122.875 150.239 122.79 149.029C122.676 147.753 122.42 146.493 122.027 145.273C121.643 143.91 121.179 142.571 120.637 141.263C120.191 140.202 119.83 139.278 119.576 138.589C119.321 137.899 119.162 137.019 118.918 136.276C118.698 135.564 118.387 134.883 117.995 134.249C117.639 133.689 117.249 133.15 116.828 132.637C116.446 132.148 116.095 131.639 115.767 131.119C115.473 130.643 115.214 130.147 114.992 129.634C114.823 129.105 114.685 128.566 114.578 128.021C114.408 127.385 114.228 126.674 113.899 125.591C113.57 124.509 113.167 123.045 112.626 121.432C112.085 119.82 111.459 118.058 111.003 116.594C110.546 115.13 110.249 113.995 109.942 113.241C109.817 112.754 109.551 112.315 109.178 111.979C109.068 111.896 108.933 111.851 108.796 111.851C108.662 111.853 108.531 111.898 108.424 111.979C108.048 112.322 107.767 112.757 107.607 113.241C107.289 114.026 106.897 115.172 106.355 116.615C105.814 118.058 105.294 119.692 104.732 121.305C104.17 122.918 103.809 124.796 103.406 126.143C103.003 127.491 102.642 128.35 102.419 129.231C102.247 130.144 102.155 131.071 102.143 132C102.058 133.411 101.823 134.808 101.443 136.17C101.082 137.91 100.297 140.202 99.8302 141.814C99.4821 142.925 99.2544 144.071 99.1512 145.231C99.077 145.72 99.077 146.217 99.1512 146.706C99.2447 147.175 99.376 147.636 99.5438 148.085C99.6923 148.605 99.9257 149.146 100.117 150.016C100.307 150.824 100.449 151.642 100.541 152.467C100.541 153.018 100.541 153.093 100.233 153.241C99.9257 153.39 99.565 153.644 99.1724 153.825C98.9105 153.954 98.632 154.047 98.3448 154.101C98.1645 154.101 98.0583 154.101 98.0583 153.931C98.0084 153.858 97.9433 153.796 97.8674 153.751C97.7962 153.697 97.7119 153.664 97.6233 153.655C97.3119 153.656 97.0081 153.752 96.7533 153.931C96.3734 154.163 96.0449 154.47 95.7878 154.833C95.5225 155.194 95.4377 155.565 95.2361 155.894C95.0057 156.257 94.6737 156.545 94.2812 156.721C93.6536 157.024 92.9956 157.258 92.3183 157.422C91.6849 157.586 91.0299 157.65 90.3767 157.613C89.7308 157.593 89.0881 157.514 88.4562 157.379C88.244 157.379 88.1698 157.294 88.1273 157.199C88.1209 157.132 88.1209 157.064 88.1273 156.997C88.1379 156.639 88.1913 156.282 88.2865 155.936C88.4333 155.508 88.6723 155.117 88.9867 154.79C89.3419 154.436 89.733 154.119 90.1538 153.846C90.7209 153.476 91.2599 153.065 91.7666 152.615C92.2652 152.103 92.7363 151.565 93.1777 151.003C93.6552 150.451 94.1326 149.857 94.4934 149.379C94.7927 149.051 95.0396 148.679 95.2255 148.276C95.4624 147.588 95.626 146.876 95.7135 146.154C95.809 144.615 95.9257 142.037 96 139.957C96.0743 137.878 96.0849 136.371 96.2122 135.109C96.3373 134.035 96.5358 132.972 96.8064 131.926C97.0165 131.128 97.169 130.316 97.2626 129.496C97.3246 128.436 97.3246 127.373 97.2626 126.313C97.2626 124.838 97.2626 122.812 97.4111 120.509C97.6001 118.007 97.9868 115.523 98.5676 113.082C99.1724 110.557 99.9788 108.138 100.573 106.271C101.124 104.765 101.467 103.19 101.592 101.591C101.631 99.9063 101.244 98.2384 100.467 96.7427C99.565 94.7374 98.0159 92.1591 97.0716 90.0902C96.4582 88.6906 95.9993 87.2284 95.7029 85.7294C95.5544 84.9443 95.5013 84.9443 94.3979 86.7904L90.0477 94.1644C89.5537 95.242 88.8294 96.1982 87.9257 96.9655C86.992 97.8355 85.1671 99.5437 83.3952 100.965C81.9132 102.106 80.3727 103.169 78.7798 104.149C78.0053 104.668 77.1989 105.146 76.382 105.591C75.565 106.037 74.992 106.271 74.557 106.493C74.2987 106.616 74.0677 106.789 73.878 107.003C73.7812 107.147 73.645 107.262 73.4854 107.332C73.2798 107.406 73.0661 107.456 72.8488 107.48C72.5436 107.59 72.2268 107.665 71.9045 107.703C71.6516 107.777 71.3829 107.777 71.13 107.703C70.8937 107.668 70.6804 107.543 70.5358 107.353C70.415 107.164 70.3187 106.961 70.2493 106.748C70.1326 106.546 69.9523 106.43 69.8674 106.239C69.7825 106.048 69.7719 105.814 69.6658 105.538C69.4966 105.286 69.3644 105.011 69.2732 104.721C69.2684 104.599 69.2978 104.478 69.3581 104.371C69.4158 104.271 69.5054 104.192 69.6127 104.149C69.8249 104.042 70.0478 104.148 70.4403 103.947C70.8329 103.745 71.3104 103.469 71.7772 103.257C72.1654 103.065 72.5962 102.973 73.0292 102.992C73.3919 103.07 73.747 103.18 74.0902 103.321C74.4356 103.429 74.8058 103.429 75.1512 103.321C75.5155 103.166 75.8468 102.943 76.1273 102.663C76.435 102.366 76.7533 102.058 77.1883 101.687L78.6419 100.414C79.1194 99.9575 79.5968 99.5331 80.2546 98.8965C80.9125 98.2599 81.5915 97.4429 82.5252 96.5305C83.4589 95.618 84.5942 94.557 85.2095 93.984C85.8249 93.4111 85.9098 93.305 86.0584 92.8275C86.2069 92.3501 86.4828 91.4588 86.8541 90.3236C87.2255 89.1883 87.6923 87.862 88.0637 86.8116C88.435 85.7612 88.7109 85.0291 89.1883 83.809C89.6658 82.5888 90.3979 80.87 90.9284 79.8514C91.1885 79.2143 91.6177 78.6603 92.1698 78.2493C92.5305 78.0265 92.9337 77.8992 93.4642 77.5915C93.9947 77.2838 94.7162 76.8169 95.2997 76.4456C95.8833 76.0742 96.3607 75.8514 96.817 75.5756C97.1705 75.3347 97.4976 75.0573 97.7931 74.748C97.9019 74.6343 97.9883 74.5011 98.0477 74.3554C98.11 74.2081 98.1354 74.0479 98.122 73.8886C98.1053 73.5195 98.0113 73.158 97.8461 72.8276C97.7978 72.6937 97.7177 72.5736 97.6127 72.4774C97.5001 72.3795 97.3654 72.3103 97.2201 72.2758C96.9533 72.2537 96.688 72.3333 96.4774 72.4986C96.2103 72.6534 95.934 72.7916 95.6499 72.9124C95.4027 73.0189 95.1321 73.0591 94.8647 73.0292C94.6631 73.0292 94.4934 72.8276 94.2069 72.3819C93.9204 71.9363 93.5066 71.2042 93.0504 70.3236C92.5253 69.3744 92.061 68.3927 91.6605 67.3846C91.3081 66.4604 91.0797 65.4935 90.9814 64.5093C90.9368 63.7405 91.0376 62.9701 91.2785 62.2387C91.4813 61.5198 91.844 60.856 92.3395 60.2971C92.8343 59.7586 93.4645 59.3629 94.1645 59.1512C94.8539 58.9569 95.5734 58.8921 96.2865 58.9602C96.9588 58.9793 97.6243 59.101 98.2599 59.3209C98.7749 59.5224 99.244 59.8255 99.6393 60.2122C100.076 60.5956 100.461 61.0343 100.785 61.5172C101.139 62.0885 101.367 62.7288 101.454 63.3952C101.59 64.287 101.657 65.188 101.655 66.0902C101.653 66.7342 101.71 67.377 101.825 68.0106C101.947 68.4618 102.194 68.8698 102.536 69.1883C102.849 69.4925 103.207 69.7465 103.597 69.9416C103.876 70.0895 104.177 70.1933 104.488 70.2493H104.562C104.762 70.2917 104.968 70.2917 105.167 70.2493C105.373 70.1563 105.563 70.0309 105.729 69.878C105.964 69.6701 106.18 69.4429 106.377 69.1989C106.609 68.9212 106.766 68.5889 106.833 68.2334C106.886 67.4102 106.886 66.5844 106.833 65.7612C106.833 64.2016 106.939 61.5172 106.939 59.7135C106.939 57.9098 106.939 56.7321 106.939 55.7559C106.939 54.7798 106.79 53.9628 106.79 52.5729C106.695 50.7032 106.695 48.8299 106.79 46.9602C106.971 44.8382 107.363 42.7162 107.512 41.3369C107.634 40.6347 107.634 39.917 107.512 39.2148C108.244 39.7453 109.019 40.2759 109.836 40.817C110.154 41.0292 110.546 41.2414 110.897 41.4536L110.96 41.8461C111.141 43.4377 111.438 45.8674 111.554 47.7984C111.554 47.9045 111.554 48.0212 111.554 48.1273C111.565 48.3288 111.565 48.5306 111.554 48.7321C111.554 49.3687 111.554 49.9947 111.554 50.6207C111.554 50.8223 111.554 51.0239 111.554 51.2254L111.491 52.3713C111.406 53.5809 111.268 54.4933 111.268 55.3528C111.238 56.4255 111.359 57.497 111.629 58.5358C111.979 60.2016 112.69 62.8435 113.072 65.2626C113.457 67.3641 113.677 69.4927 113.729 71.6286C113.757 72.9121 113.69 74.1959 113.528 75.4695C113.356 76.728 113.285 77.9981 113.316 79.2679C113.316 81.3899 113.443 84.8382 113.655 87.618C113.813 90.0105 114.136 92.3892 114.621 94.7374C115.101 97.1011 115.703 99.4385 116.424 101.74C117.178 104.074 118.037 106.366 118.642 108.403C119.229 110.44 119.637 112.524 119.862 114.631C120.159 117.029 120.414 120.148 120.658 122.695C120.808 124.68 121.081 126.654 121.475 128.605C121.696 129.64 122.122 130.621 122.727 131.491C123.323 132.374 123.862 133.296 124.34 134.249C124.836 135.403 125.168 136.621 125.326 137.867C125.528 139.385 125.708 141.284 125.836 143.172C125.963 145.061 126.133 146.928 126.133 148.117C126.085 148.829 126.145 149.545 126.313 150.239L126.504 150.589L126.334 150.705C126.173 150.823 126.037 150.971 125.933 151.142C125.829 151.312 125.76 151.501 125.73 151.698C125.699 151.895 125.708 152.097 125.755 152.29C125.802 152.484 125.887 152.667 126.005 152.828C126.243 153.15 126.597 153.367 126.992 153.432C127.287 153.475 127.589 153.435 127.862 153.316C128.016 153.909 128.101 154.517 128.117 155.13V155.13Z" fill="#A92819"/>
<path d="M127.904 153.188C127.899 153.231 127.899 153.273 127.904 153.316C127.631 153.435 127.329 153.475 127.034 153.432C126.639 153.367 126.285 153.15 126.047 152.828C125.929 152.667 125.844 152.484 125.797 152.29C125.75 152.097 125.741 151.895 125.772 151.698C125.802 151.501 125.871 151.312 125.975 151.142C126.079 150.971 126.215 150.823 126.376 150.706L126.546 150.589C126.749 150.983 126.98 151.362 127.236 151.724C127.533 152.174 127.759 152.668 127.904 153.188Z" fill="#A92819"/>
<path d="M127.596 190.737H125.018V200H127.596V190.737Z" fill="#A92819"/>
<path d="M127.596 189.443H125.018V190.727H127.596V189.443Z" fill="#A92819"/>
<path d="M127.172 46.7693C127.416 48.0808 127.416 49.426 127.172 50.7375C126.919 52.0322 126.48 53.2832 125.867 54.451C125.256 55.6115 124.408 56.6301 123.376 57.44C122.345 58.25 121.155 58.8331 119.883 59.1513C118.627 59.4923 117.332 59.6706 116.031 59.6818H115.851C115.713 59.077 115.575 58.4616 115.448 57.8463C115.308 57.0548 115.279 56.2477 115.363 55.4484C115.363 55.2998 115.363 55.1301 115.363 54.9815C115.363 55.7667 115.469 55.8516 116.01 55.8516C116.967 55.8276 117.917 55.6923 118.843 55.4484C119.618 55.25 120.341 54.8882 120.965 54.3874C121.564 53.905 122.058 53.3058 122.418 52.6261C122.834 51.806 123.131 50.9307 123.299 50.0266C123.458 49.1461 123.458 48.2441 123.299 47.3635C123.162 46.4474 122.821 45.5737 122.302 44.8065C121.699 43.9545 120.93 43.2327 120.042 42.6845C119.276 42.2226 118.452 41.8658 117.591 41.6235C117.05 41.4431 116.997 41.4113 116.922 40.955C116.815 40.2735 116.747 39.5862 116.721 38.8967C116.703 38.4903 116.609 38.0909 116.445 37.7189C116.387 37.5925 116.312 37.4747 116.222 37.3688C116.562 36.6656 116.774 35.9075 116.848 35.1301C116.901 34.4875 116.901 33.8416 116.848 33.1991C116.853 33.1426 116.853 33.0858 116.848 33.0293C117.448 33.3555 118.01 33.7469 118.524 34.1964C119.088 34.7 119.552 35.3046 119.893 35.9789C120.283 36.7617 120.521 37.6114 120.593 38.4829V38.7057V38.6208C121.118 38.8574 121.625 39.1304 122.111 39.4378C123.45 40.2529 124.606 41.3367 125.506 42.6208C126.375 43.8558 126.946 45.2761 127.172 46.7693Z" fill="#F4F4F4"/>
<path d="M123.364 47.3949C123.523 48.2755 123.523 49.1775 123.364 50.0581C123.196 50.9621 122.899 51.8375 122.483 52.6575C122.123 53.3372 121.629 53.9365 121.03 54.4188C120.406 54.9196 119.683 55.2814 118.908 55.4798C117.982 55.7237 117.032 55.859 116.075 55.883C115.534 55.883 115.438 55.7981 115.428 55.013C115.417 54.2278 115.629 53.4215 115.629 52.6257C115.746 50.9372 115.746 49.2426 115.629 47.5541C115.523 45.4957 115.268 43.448 115.035 41.4109C114.92 40.7344 114.863 40.0493 114.865 39.3631C115.242 38.9548 115.596 38.5262 115.926 38.0793C116.069 37.8599 116.193 37.6292 116.298 37.3896C116.388 37.4955 116.463 37.6133 116.52 37.7398C116.688 38.1005 116.789 38.4888 116.818 38.8857C116.844 39.5752 116.912 40.2625 117.019 40.944C117.093 41.4003 117.146 41.4321 117.688 41.6125C118.548 41.8548 119.373 42.2116 120.139 42.6735C121.027 43.2217 121.795 43.9435 122.398 44.7955C122.912 45.5781 123.242 46.4667 123.364 47.3949V47.3949Z" fill="#0F7657"/>
<path d="M120.213 190.737H117.635V200H120.213V190.737Z" fill="#A92819"/>
<path d="M120.213 189.443H117.635V190.727H120.213V189.443Z" fill="#A92819"/>
<path d="M116.891 33.1991C116.944 33.8417 116.944 34.4876 116.891 35.1301C116.816 35.9076 116.604 36.6656 116.265 37.3689C116.179 37.2444 116.075 37.1336 115.957 37.04C115.555 36.7064 115.117 36.4182 114.652 36.1805L112.763 35.215C112.817 35.0464 112.849 34.8717 112.859 34.6951C112.901 34.2789 112.901 33.8594 112.859 33.4431C112.871 33.2404 112.814 33.0395 112.699 32.8723C112.584 32.7051 112.416 32.5811 112.222 32.5201C112.175 32.499 112.125 32.4881 112.074 32.4881C112.022 32.4881 111.972 32.499 111.925 32.5201H111.819C111.83 32.3328 111.83 32.145 111.819 31.9577C111.765 31.7156 111.621 31.5032 111.416 31.3636C111.122 31.1296 110.81 30.9202 110.482 30.7376C110.369 30.6152 110.241 30.5082 110.1 30.4193C110.009 30.398 109.915 30.398 109.824 30.4193H109.697C109.697 30.4193 109.697 30.4193 109.697 30.2601C109.719 30.1373 109.719 30.0116 109.697 29.8888C109.69 29.8228 109.664 29.7603 109.623 29.7084C109.587 29.6495 109.535 29.6018 109.474 29.5705C109.435 29.5657 109.396 29.5657 109.357 29.5705L109.421 29.2097C109.934 29.2779 110.435 29.4209 110.906 29.6341C111.538 29.8884 112.133 30.2236 112.678 30.6315C113.113 30.9604 113.548 31.2681 114.005 31.5545C114.811 32.0214 115.628 32.4033 116.477 32.8384L116.88 33.0612C116.887 33.1068 116.891 33.1529 116.891 33.1991V33.1991Z" fill="#F4F4F4"/>
<path d="M91.5427 147.13C91.617 146.695 91.6382 146.069 91.6701 145.538C91.7868 143.522 91.8929 141.496 91.9671 139.48C91.9351 137.78 92.0024 136.079 92.1687 134.387C92.3181 133.159 92.552 131.943 92.869 130.748C93.0224 130.126 93.1394 129.495 93.2191 128.859C93.2826 127.937 93.2826 127.012 93.2191 126.09C93.2191 124.063 93.2191 122.048 93.3783 120C93.5777 117.283 93.9928 114.587 94.6197 111.936C95.2032 109.496 96.0096 107.246 96.8159 104.891C97.2174 103.771 97.4776 102.606 97.5905 101.422C97.5806 100.342 97.3152 99.2805 96.8159 98.3234C96.1263 96.8062 95.2032 95.3632 94.5136 93.8778L93.1873 96.1165C92.4768 97.5073 91.5207 98.7582 90.365 99.8088C88.7523 101.241 87.2669 102.652 85.6754 103.989C84.1223 105.24 82.5076 106.412 80.8372 107.501C79.9637 108.091 79.0568 108.629 78.121 109.114C77.5905 109.39 77.06 109.644 76.5083 109.941C76.0901 110.383 75.5936 110.742 75.0441 111.002C74.6023 111.185 74.1387 111.31 73.6648 111.374C73.3146 111.448 72.9963 111.554 72.6038 111.628C71.8099 111.798 70.9891 111.798 70.1953 111.628C69.1056 111.372 68.1384 110.746 67.4579 109.857C67.234 109.554 67.0453 109.226 66.8955 108.88C66.7116 108.64 66.555 108.381 66.4287 108.106C66.2926 107.827 66.1825 107.535 66.0998 107.236C65.7617 106.676 65.5482 106.05 65.4738 105.4C65.3542 104.468 65.5403 103.523 66.0043 102.705C66.4724 101.891 67.1852 101.245 68.0414 100.859C68.3813 100.709 68.7373 100.599 69.1024 100.53C69.4466 100.335 69.8008 100.158 70.1634 99.9998C71.1554 99.5311 72.2527 99.3299 73.3465 99.4163C73.5937 99.4372 73.8387 99.4798 74.0786 99.5436L74.5242 99.1404L76.1263 97.7823C76.625 97.3579 77.0918 96.9335 77.5374 96.4879C78.3226 95.6815 79.0547 94.8751 79.8504 94.0688C80.6462 93.2624 81.6011 92.3606 82.4923 91.5118C82.7152 90.8009 82.9274 90.09 83.1502 89.3897C83.5427 88.1802 83.9565 86.9706 84.3809 85.7823C84.8053 84.594 85.1343 83.6603 85.5587 82.5993C86.1261 81.1321 86.767 79.6944 87.4791 78.2916C88.0492 77.063 88.9444 76.0136 90.0679 75.2571C90.4287 75.0555 90.7788 74.8645 91.1289 74.6948C90.6409 73.9521 90.2271 73.082 89.8027 72.3606C89.197 71.2588 88.6584 70.1215 88.19 68.9547C87.7002 67.6822 87.3964 66.3458 87.2881 64.9866C87.2283 63.7558 87.4011 62.5247 87.7974 61.3579C88.1049 60.0762 88.6959 58.8798 89.5268 57.8566C90.4953 56.7996 91.7303 56.0227 93.1024 55.6073C94.2166 55.2776 95.3812 55.1518 96.5401 55.2359C97.6016 55.2894 98.6493 55.5004 99.6488 55.8619C100.611 56.2203 101.492 56.7687 102.238 57.4746C102.533 57.7342 102.813 58.0106 103.076 58.3022V55.968C103.076 54.907 102.98 53.846 102.949 52.785C102.821 50.7675 102.821 48.7441 102.949 46.7266C103.086 44.8062 103.447 42.9176 103.659 41.0184V40.2545L103.309 40.0211C102.861 39.7016 102.461 39.3193 102.121 38.8858C101.688 38.34 101.37 37.7119 101.187 37.0396C101.111 36.762 101.062 36.4778 101.039 36.1908C100.993 36.0556 100.958 35.9173 100.933 35.777C100.743 35.0975 100.689 34.3873 100.774 33.6868C100.825 33.2654 100.939 32.8541 101.113 32.4667C101.177 32.212 101.251 31.968 101.336 31.724C101.421 31.48 101.537 31.2253 101.654 30.9813C101.769 30.6416 101.911 30.3117 102.079 29.9945C102.378 29.4772 102.783 29.0289 103.267 28.6789C103.755 28.3344 104.307 28.0892 104.89 27.9574L105.41 27.8619L105.569 27.6709C106.237 26.8188 107.197 26.2443 108.264 26.0582C109.168 25.8705 110.107 25.9592 110.959 26.3128C111.509 26.5618 112.001 26.9232 112.402 27.3739H112.498C113.075 27.6578 113.613 28.0143 114.1 28.4349C114.616 28.829 115.052 29.3189 115.384 29.8778C115.543 30.037 115.702 30.1961 115.85 30.3765C116.48 31.1239 116.852 32.0539 116.911 33.029L116.508 32.8062C115.659 32.3712 114.842 31.9892 114.036 31.5224C113.58 31.2359 113.145 30.9282 112.71 30.5993C112.165 30.1915 111.569 29.8562 110.938 29.602C110.466 29.3888 109.966 29.2458 109.453 29.1776C108.803 29.0974 108.144 29.1406 107.511 29.3049C106.382 29.643 105.412 30.3729 104.774 31.3632C104.504 31.7272 104.272 32.1183 104.084 32.5304C103.786 33.1057 103.599 33.732 103.532 34.3765C103.469 34.9383 103.531 35.507 103.712 36.0423C103.871 36.5856 104.138 37.091 104.498 37.5277C104.85 37.9685 105.291 38.33 105.792 38.5887C106.288 38.8558 106.833 39.0183 107.394 39.0662L107.522 39.151C107.643 39.8532 107.643 40.5709 107.522 41.2731C107.373 42.6948 106.98 44.8062 106.8 46.8964C106.705 48.7661 106.705 50.6394 106.8 52.5091C106.8 53.9415 106.917 54.7691 106.949 55.6921C106.98 56.6152 106.949 57.8142 106.949 59.6497C106.949 61.4852 106.864 64.1378 106.842 65.6974C106.895 66.5206 106.895 67.3464 106.842 68.1696C106.775 68.5251 106.618 68.8574 106.386 69.1351C106.19 69.3791 105.973 69.6063 105.739 69.8142C105.573 69.9671 105.383 70.0925 105.177 70.1855C104.977 70.2279 104.771 70.2279 104.572 70.1855H104.455C104.144 70.1295 103.843 70.0257 103.564 69.8778C103.174 69.6827 102.816 69.4287 102.503 69.1245C102.161 68.806 101.914 68.398 101.792 67.9468C101.677 67.3132 101.62 66.6703 101.622 66.0264C101.632 65.1462 101.575 64.2667 101.453 63.3951C101.35 62.7409 101.112 62.1155 100.752 61.5595C100.432 61.0617 100.046 60.6085 99.6064 60.212C99.2111 59.8253 98.742 59.5222 98.2271 59.3208C97.6021 59.1004 96.9476 58.9752 96.2854 58.9494C95.5717 58.8848 94.8522 58.9532 94.1634 59.151C93.4623 59.3658 92.832 59.7652 92.3385 60.3075C91.843 60.8665 91.4803 61.5302 91.2775 62.2492C91.0379 62.9772 90.9371 63.7438 90.9804 64.5091C91.0744 65.4965 91.2992 66.4669 91.6488 67.3951C92.0701 68.4048 92.5556 69.3864 93.1024 70.334C93.5587 71.2147 93.9618 71.9468 94.2589 72.3924C94.556 72.838 94.7151 72.9866 94.9167 73.0396C95.1649 73.0672 95.4161 73.0345 95.6488 72.9441C95.9329 72.8233 96.2093 72.6851 96.4764 72.5303C96.687 72.365 96.9523 72.2854 97.2191 72.3075C97.3644 72.342 97.4991 72.4112 97.6117 72.5091C97.7167 72.6052 97.7968 72.7254 97.8451 72.8592C98.0103 73.1897 98.1042 73.5512 98.121 73.9202C98.1344 74.0796 98.1089 74.2398 98.0467 74.3871C97.9873 74.5328 97.9009 74.666 97.7921 74.7797C97.4966 75.089 97.1694 75.3664 96.8159 75.6073C96.3703 75.8831 95.8823 76.1059 95.2987 76.4773C94.7152 76.8486 93.9937 77.3155 93.4632 77.6232C92.9327 77.9309 92.5295 78.0582 92.1687 78.281C91.6074 78.692 91.1704 79.2501 90.9061 79.8937C90.3756 80.9547 89.6541 82.6205 89.1661 83.8513C88.678 85.082 88.4128 85.8035 88.0414 86.8539C87.6701 87.9043 87.2032 89.2412 86.8319 90.3659C86.4605 91.4905 86.2059 92.3924 86.0361 92.8698C85.8663 93.3473 85.8027 93.4746 85.1873 94.0263C84.5719 94.5781 83.4366 95.6497 82.4923 96.5728C81.548 97.4958 80.8796 98.3128 80.2218 98.9388C79.564 99.5648 79.0865 99.9998 78.6091 100.456L77.1873 101.729C76.7735 102.101 76.4552 102.408 76.1263 102.705C75.8458 102.985 75.5145 103.208 75.1502 103.363C74.8048 103.472 74.4345 103.472 74.0892 103.363C73.7459 103.222 73.3909 103.112 73.0282 103.034C72.5951 103.016 72.1644 103.107 71.7762 103.3C71.3093 103.512 70.8213 103.841 70.4393 103.989C70.0573 104.138 69.8239 104.085 69.6117 104.191C69.5044 104.235 69.4147 104.313 69.3571 104.414C69.2968 104.52 69.2674 104.641 69.2722 104.764C69.3634 105.053 69.4956 105.329 69.6648 105.581C69.7709 105.857 69.7921 106.09 69.8664 106.281C69.9406 106.472 70.1316 106.589 70.2483 106.79C70.3177 107.003 70.414 107.206 70.5348 107.395C70.6794 107.585 70.8927 107.711 71.129 107.745C71.3818 107.819 71.6506 107.819 71.9035 107.745C72.2257 107.707 72.5426 107.632 72.8478 107.522C73.0651 107.498 73.2788 107.448 73.4844 107.374C73.644 107.304 73.7802 107.19 73.877 107.045C74.0667 106.831 74.2977 106.658 74.556 106.536C74.991 106.313 75.7125 105.984 76.3809 105.634C77.0494 105.284 78.0043 104.711 78.7788 104.191C80.3716 103.211 81.9122 102.148 83.3942 101.008C85.1661 99.586 86.991 97.8247 87.9247 97.0078C88.8284 96.2405 89.5527 95.2843 90.0467 94.2067L94.365 86.8433C95.426 84.9972 95.5215 84.9972 95.6701 85.7823C95.9664 87.2813 96.4254 88.7435 97.0388 90.1431C97.9831 92.2651 99.5321 94.7903 100.434 96.7956C101.214 98.2726 101.611 99.9213 101.59 101.591C101.44 103.145 101.083 104.673 100.529 106.132C99.9353 108 99.1289 110.376 98.5242 112.944C97.9434 115.385 97.5566 117.869 97.3677 120.371C97.1873 122.674 97.2191 124.7 97.2191 126.175C97.2811 127.235 97.2811 128.298 97.2191 129.358C97.1255 130.178 96.9731 130.99 96.7629 131.788C96.4923 132.834 96.2938 133.897 96.1687 134.971C96.0414 136.233 96.0414 137.729 95.9565 139.819C95.8717 141.91 95.7655 144.477 95.6701 146.016C95.5825 146.738 95.419 147.45 95.182 148.138C95.0364 148.576 94.8215 148.988 94.5454 149.358C94.1846 149.835 93.7072 150.419 93.2297 150.981C92.7883 151.543 92.3172 152.082 91.8186 152.594C91.312 153.043 90.7729 153.455 90.2059 153.825C89.7851 154.098 89.3939 154.415 89.0388 154.769C88.7244 155.095 88.4853 155.486 88.3385 155.915C88.2433 156.261 88.1899 156.617 88.1793 156.976C88.1729 157.043 88.1729 157.11 88.1793 157.177L87.861 157.315C87.837 157.257 87.8087 157.2 87.7762 157.146C87.6031 156.81 87.3122 156.549 86.9592 156.414C86.6161 156.291 86.2413 156.291 85.8982 156.414C85.4207 156.636 84.9433 156.827 84.4658 156.997C84.4553 156.859 84.4553 156.721 84.4658 156.583C84.51 155.947 84.6239 155.317 84.8053 154.705C85.1152 153.733 85.6371 152.842 86.3332 152.095C86.8601 151.572 87.4317 151.097 88.0414 150.674C88.4449 150.406 88.8247 150.104 89.1767 149.772C89.552 149.373 89.9062 148.955 90.2377 148.52C90.6197 148.042 91.0228 147.565 91.3836 147.055C91.4472 147.151 91.5427 147.024 91.5427 147.13Z" fill="#F4F4F4"/>
<path d="M115.955 37.04C116.073 37.1336 116.177 37.2445 116.262 37.3689C116.157 37.6085 116.033 37.8391 115.891 38.0586C115.561 38.5055 115.207 38.9341 114.83 39.3424C114.828 40.0286 114.884 40.7137 115 41.3902C115.233 43.4273 115.488 45.475 115.594 47.5334C115.711 49.2219 115.711 50.9165 115.594 52.605C115.594 53.4008 115.456 54.1965 115.392 54.9923C115.392 54.8331 115.392 54.6315 115.392 54.3981C115.392 53.0825 115.498 50.6103 115.392 48.5944C115.286 46.5785 115.201 45.0612 115.085 43.926C114.968 42.7907 114.894 42.0692 114.819 41.475C114.745 40.8809 114.819 40.414 114.735 40.0533C114.737 39.8423 114.686 39.6342 114.586 39.4485C114.485 39.2629 114.339 39.1059 114.162 38.9923C113.663 38.5891 112.697 38.0798 111.817 37.5281C111.689 37.4432 111.552 37.3583 111.414 37.2522L111.509 37.1249C111.817 36.6899 112.22 36.3822 112.453 35.9896C112.599 35.7508 112.703 35.4889 112.761 35.2151L114.65 36.1806C115.115 36.4183 115.553 36.7065 115.955 37.04V37.04Z" fill="#0F7657"/>
<path d="M115.446 57.8565C115.574 58.4718 115.711 59.0872 115.849 59.692C114.857 59.6826 113.896 59.3387 113.123 58.7159C112.516 58.1733 112.057 57.4859 111.788 56.7177C111.519 55.9496 111.449 55.1258 111.584 54.3233C111.584 53.2623 111.584 52.2013 111.584 51.1403C111.584 50.9387 111.584 50.7371 111.584 50.5355C111.584 49.7079 111.584 48.8803 111.52 48.0421C111.52 46.7901 111.372 45.57 111.245 44.3074C111.17 43.4798 111.075 42.6947 110.99 41.7928V41.4533L110.852 41.3684C110.73 40.4895 110.709 39.5996 110.788 38.7159C110.879 38.186 111.078 37.6804 111.372 37.2305C111.51 37.3366 111.648 37.4214 111.775 37.5063C112.656 38.0581 113.621 38.5673 114.12 38.9705C114.298 39.0841 114.444 39.2411 114.544 39.4268C114.644 39.6124 114.695 39.8206 114.693 40.0315C114.778 40.4029 114.693 40.8591 114.778 41.4533C114.863 42.0474 114.926 42.7795 115.043 43.9042C115.16 45.0289 115.234 46.5567 115.351 48.5726C115.467 50.5886 115.351 53.0607 115.351 54.3763C115.351 54.6098 115.351 54.8114 115.351 54.9705C115.351 55.1297 115.351 55.2888 115.351 55.4374C115.269 56.2442 115.301 57.0586 115.446 57.8565Z" fill="#F4F4F4"/>
<path d="M112.861 33.4428C112.903 33.8591 112.903 34.2786 112.861 34.6948C112.851 34.8714 112.819 35.0461 112.765 35.2147L112.055 34.8221C111.498 34.4975 110.96 34.1433 110.442 33.7611C110.139 33.5205 109.803 33.324 109.444 33.1776C109.161 33.0293 108.837 32.9771 108.521 33.029C108.31 33.1101 108.126 33.25 107.991 33.4322H107.927L108.055 33.2625C108.172 33.0555 108.234 32.8215 108.235 32.5834C108.214 32.2548 108.214 31.9252 108.235 31.5967C108.235 31.2359 108.362 30.8328 108.362 30.5357C108.381 30.311 108.45 30.0934 108.564 29.8991C108.678 29.7773 108.833 29.7018 108.999 29.6869C109.118 29.661 109.241 29.661 109.36 29.6869C109.398 29.6821 109.438 29.6821 109.476 29.6869C109.538 29.7182 109.589 29.7659 109.625 29.8248C109.666 29.8767 109.692 29.9392 109.699 30.0052C109.721 30.128 109.721 30.2537 109.699 30.3765C109.699 30.5357 109.699 30.5357 109.699 30.5357H109.826C109.917 30.5144 110.012 30.5144 110.102 30.5357C110.243 30.6246 110.371 30.7316 110.484 30.854C110.812 31.0366 111.124 31.246 111.418 31.48C111.623 31.6196 111.767 31.832 111.821 32.0741C111.832 32.2614 111.832 32.4492 111.821 32.6365H111.927C111.974 32.6154 112.025 32.6045 112.076 32.6045C112.127 32.6045 112.178 32.6154 112.224 32.6365C112.418 32.6975 112.586 32.8215 112.701 32.9887C112.816 33.1559 112.873 33.3568 112.861 33.5595V33.4428Z" fill="#A92819"/>
<path d="M112.826 190.737H110.248V200H112.826V190.737Z" fill="#A92819"/>
<path d="M112.826 189.443H110.248V190.727H112.826V189.443Z" fill="#A92819"/>
<path d="M112.761 35.2149C112.703 35.4887 112.599 35.7506 112.453 35.9895C112.22 36.382 111.817 36.6897 111.509 37.1247L111.414 37.2521C110.795 36.8412 110.203 36.3911 109.642 35.9046C109.293 35.6176 108.893 35.3981 108.464 35.2574H107.562C107.518 35.2474 107.476 35.2287 107.439 35.2024C107.403 35.1761 107.371 35.1427 107.348 35.1041C107.324 35.0655 107.308 35.0226 107.301 34.9779C107.294 34.9332 107.297 34.8875 107.308 34.8436V34.7481C107.35 34.526 107.425 34.3114 107.53 34.1115C107.62 33.8986 107.738 33.6988 107.881 33.5173C107.902 33.4593 107.939 33.408 107.987 33.3688C108.121 33.1865 108.305 33.0466 108.517 32.9656C108.833 32.9137 109.157 32.9658 109.44 33.1141C109.799 33.2605 110.134 33.457 110.438 33.6977C110.956 34.0799 111.494 34.4341 112.05 34.7587L112.761 35.2149Z" fill="#0F7657"/>
<path d="M111.565 48.0635C111.629 48.9017 111.639 49.7293 111.629 50.5568C111.629 49.9309 111.629 49.3049 111.629 48.6683C111.618 48.4657 111.597 48.2638 111.565 48.0635V48.0635Z" fill="#EFE7DC"/>
<path d="M111.566 48.0634C111.566 47.9573 111.566 47.8406 111.566 47.7345C111.45 45.8034 111.152 43.3737 110.972 41.7822L110.908 41.3896L111.046 41.4745V41.8141C111.131 42.7159 111.227 43.5011 111.301 44.3286C111.418 45.5912 111.545 46.8114 111.566 48.0634Z" fill="#EFE7DC"/>
<path d="M111.417 37.2522C111.122 37.7022 110.924 38.2077 110.833 38.7376C110.753 39.6213 110.775 40.5113 110.897 41.3901C110.536 41.1779 110.143 40.9657 109.836 40.7535C109.019 40.2442 108.244 39.6925 107.512 39.1514C107.512 38.9498 107.438 38.7482 107.385 38.536C107.245 38.1412 107.025 37.7799 106.738 37.475C106.589 37.2945 106.418 37.134 106.228 36.9976C106.089 36.9176 105.939 36.8569 105.783 36.8172C105.669 36.7857 105.561 36.7355 105.464 36.6687C105.325 36.5809 105.206 36.4653 105.114 36.3291C104.989 36.189 104.899 36.022 104.849 35.8411V35.3318C104.774 35.1438 104.721 34.9481 104.69 34.7482C104.658 34.5123 104.658 34.2733 104.69 34.0374C104.734 33.8692 104.794 33.7058 104.87 33.5493C104.908 33.3474 104.961 33.1487 105.029 32.9551C105.125 32.7323 105.252 32.5095 105.348 32.2867C105.457 32.1214 105.536 31.9383 105.581 31.7456C105.641 31.6299 105.744 31.5424 105.868 31.5015C105.984 31.4061 106.154 31.4061 106.154 31.5015C106.238 31.6307 106.279 31.7829 106.271 31.9366C106.292 32.1624 106.292 32.3898 106.271 32.6156C106.233 32.8348 106.18 33.051 106.112 33.2628C106.06 33.4107 106.024 33.5636 106.005 33.7191C105.996 33.761 105.996 33.8045 106.005 33.8464C106.021 33.8871 106.047 33.9235 106.08 33.9525H106.483C106.785 33.9275 107.081 33.8596 107.364 33.7509C107.572 33.6687 107.757 33.5377 107.905 33.3689H107.968C107.92 33.4082 107.884 33.4594 107.862 33.5175C107.719 33.6989 107.602 33.8988 107.512 34.1116C107.407 34.3116 107.331 34.5261 107.289 34.7482V34.8225C107.278 34.8664 107.276 34.9121 107.283 34.9568C107.29 35.0016 107.306 35.0445 107.329 35.083C107.353 35.1216 107.384 35.155 107.421 35.1813C107.458 35.2076 107.5 35.2263 107.544 35.2363H108.446C108.875 35.3771 109.275 35.5965 109.624 35.8835C110.191 36.3781 110.79 36.8353 111.417 37.2522V37.2522Z" fill="#A92819"/>
<path d="M109.422 29.1773L109.358 29.5381C109.239 29.5122 109.116 29.5122 108.997 29.5381C108.831 29.553 108.676 29.6285 108.562 29.7503C108.448 29.9446 108.379 30.1622 108.361 30.3869C108.361 30.7052 108.265 31.1083 108.233 31.4479C108.212 31.7764 108.212 32.106 108.233 32.4346C108.233 32.6727 108.171 32.9067 108.053 33.1136L107.926 33.2834C107.778 33.4522 107.593 33.5831 107.384 33.6654C107.102 33.7741 106.805 33.842 106.504 33.867H106.101C106.068 33.838 106.042 33.8016 106.026 33.7609C106.017 33.719 106.017 33.6754 106.026 33.6335C106.045 33.4781 106.081 33.3252 106.132 33.1773C106.2 32.9655 106.254 32.7493 106.292 32.5301C106.313 32.3042 106.313 32.0769 106.292 31.8511C106.299 31.6974 106.259 31.5452 106.175 31.416C106.175 31.3205 106.005 31.3205 105.888 31.416C105.765 31.4568 105.662 31.5444 105.602 31.6601C105.556 31.8527 105.477 32.0359 105.369 32.2012C105.273 32.424 105.146 32.6468 105.05 32.8696C104.982 33.0632 104.928 33.2619 104.891 33.4638C104.815 33.6203 104.755 33.7837 104.711 33.9518C104.679 34.1877 104.679 34.4268 104.711 34.6627C104.742 34.8625 104.795 35.0583 104.87 35.2463V35.8086C104.92 35.9895 105.01 36.1565 105.135 36.2967C105.227 36.4328 105.346 36.5484 105.485 36.6362C105.582 36.703 105.69 36.7532 105.804 36.7847C105.96 36.8245 106.109 36.8851 106.249 36.9651C106.439 37.1015 106.61 37.262 106.758 37.4426C107.046 37.7474 107.266 38.1088 107.406 38.5036C107.406 38.7158 107.501 38.9174 107.533 39.119L107.406 39.0341C106.845 38.9862 106.299 38.8237 105.804 38.5566C105.302 38.2979 104.861 37.9364 104.509 37.4956C104.149 37.0589 103.882 36.5535 103.724 36.0102C103.553 35.4725 103.502 34.9039 103.575 34.3444C103.642 33.6999 103.829 33.0736 104.127 32.4983C104.316 32.0862 104.547 31.6951 104.817 31.3312C105.45 30.3448 106.412 29.6153 107.533 29.2728C108.151 29.1258 108.791 29.0934 109.422 29.1773V29.1773Z" fill="#A92819"/>
<path d="M105.475 0V2.56764C76.4781 2.56764 71.8839 27.8727 71.6929 28.9443L69.1465 28.5305C69.1889 28.2334 74.2605 0 105.475 0Z" fill="#4C8BCA"/>
<path d="M105.443 190.737H102.865V200H105.443V190.737Z" fill="#A92819"/>
<path d="M105.443 189.443H102.865V190.727H105.443V189.443Z" fill="#A92819"/>
<path d="M104.903 12.2229L105.327 14.7481C98.5901 15.8728 93.7307 18.7481 90.8659 23.2998C85.4866 31.7879 88.7439 43.459 88.8076 43.6287L86.3354 44.3502C86.1869 43.8197 82.6962 31.4377 88.6697 21.9417C91.9482 16.711 97.4018 13.4643 104.903 12.2229Z" fill="#4C8BCA"/>
<path d="M98.0482 190.737H95.47V200H98.0482V190.737Z" fill="#A92819"/>
<path d="M98.0482 189.443H95.47V190.727H98.0482V189.443Z" fill="#A92819"/>
<path d="M90.6632 190.737H88.085V200H90.6632V190.737Z" fill="#A92819"/>
<path d="M90.6632 189.443H88.085V190.727H90.6632V189.443Z" fill="#A92819"/>
<path d="M87.8947 157.4C87.9901 157.704 87.9901 158.03 87.8947 158.334C87.7966 158.704 87.5614 159.023 87.2369 159.225C86.6834 159.496 86.1128 159.73 85.5287 159.926C85.4121 159.818 85.3088 159.697 85.221 159.565C84.6807 158.856 84.3965 157.984 84.4146 157.093C84.8921 156.923 85.3696 156.732 85.847 156.509C86.1901 156.387 86.5649 156.387 86.908 156.509C87.261 156.645 87.5519 156.905 87.725 157.241C87.7864 157.289 87.8432 157.342 87.8947 157.4V157.4Z" fill="#EFE7DC"/>
<path d="M85.2634 159.565C85.3511 159.697 85.4544 159.818 85.5711 159.926C84.2756 160.391 82.9292 160.701 81.5605 160.849C81.0649 159.912 80.7687 158.882 80.6904 157.825C81.9743 157.732 83.2406 157.471 84.457 157.05C84.4291 157.956 84.7138 158.844 85.2634 159.565V159.565Z" fill="#A92819"/>
<path d="M83.2782 190.737H80.7V200H83.2782V190.737Z" fill="#A92819"/>
<path d="M83.2782 189.443H80.7V190.727H83.2782V189.443Z" fill="#A92819"/>
<path d="M80.6879 157.825C80.7719 158.868 81.068 159.882 81.558 160.807C80.8546 160.9 80.1454 160.943 79.436 160.934C75.3921 160.917 71.4036 159.993 67.7649 158.228C67.2383 158.061 66.6989 157.937 66.1521 157.857C64.2408 157.581 62.2909 157.781 60.4758 158.44C59.1765 158.843 58.0209 159.611 57.1477 160.654C56.2744 161.696 55.7206 162.969 55.5527 164.318C55.5247 164.508 55.4637 164.691 55.3723 164.86C55.2822 165.024 55.1594 165.169 55.0116 165.284C54.8632 165.401 54.6927 165.486 54.5103 165.536C54.328 165.585 54.1376 165.597 53.9506 165.57C53.573 165.496 53.2395 165.276 53.0215 164.959C52.8034 164.642 52.718 164.252 52.7834 163.873C53.0366 161.981 53.8208 160.199 55.0452 158.734C56.2695 157.269 57.8839 156.182 59.7012 155.597C60.4817 155.31 61.2884 155.101 62.1097 154.971C61.4279 154.695 60.7155 154.503 59.9877 154.398C58.3638 154.166 56.7083 154.311 55.1495 154.822C53.6488 155.277 52.3304 156.194 51.3829 157.443C50.6939 158.313 50.2244 159.335 50.0142 160.425C49.99 160.614 49.9326 160.797 49.8445 160.966C49.7473 161.128 49.6215 161.272 49.4731 161.39C49.3258 161.514 49.1513 161.601 48.9638 161.645C48.6807 161.715 48.3822 161.691 48.114 161.576C47.8458 161.461 47.6226 161.262 47.4784 161.008C47.2674 160.697 47.1839 160.318 47.245 159.947C47.4642 158.378 48.0533 156.883 48.9638 155.586C50.2512 153.846 52.0561 152.557 54.1203 151.905C55.2873 151.523 56.501 151.301 57.7277 151.247C56.2644 150.501 54.6659 150.057 53.0275 149.942C51.802 149.847 50.5694 149.973 49.3882 150.313C48.3673 150.597 47.4241 151.108 46.6296 151.809C45.6754 152.665 45.0962 153.862 45.0169 155.141C45.0077 155.335 44.9608 155.526 44.8789 155.703C44.8015 155.876 44.6896 156.031 44.55 156.159C44.4094 156.293 44.2435 156.398 44.062 156.467C43.8813 156.53 43.6911 156.563 43.4996 156.563C43.1189 156.509 42.7731 156.312 42.5341 156.011C42.2904 155.713 42.1724 155.333 42.2052 154.95C42.3373 152.857 43.2769 150.898 44.8259 149.486C45.9224 148.499 47.2283 147.773 48.6455 147.364C50.1411 146.919 51.7044 146.747 53.2609 146.854C54.2604 146.924 55.2493 147.102 56.2105 147.385V147.215C54.8912 144.623 53.9957 141.836 53.558 138.96C53.3175 137.358 53.1828 135.742 53.1548 134.122C53.2118 131.29 52.3067 128.522 50.5872 126.271C48.8611 124.364 46.4499 123.22 43.8816 123.088C41.9566 122.881 40.0163 123.305 38.3538 124.297C36.7476 125.275 35.5235 126.773 34.8843 128.541C34.1305 130.549 34.1305 132.762 34.8843 134.769C35.2386 135.693 35.7888 136.529 36.497 137.22C37.185 137.876 38.0066 138.376 38.9055 138.685C40.318 139.17 41.8578 139.132 43.245 138.578C44.0022 138.242 44.6362 137.678 45.0593 136.966C45.502 136.33 45.8023 135.606 45.94 134.844C46.086 134.138 46.0421 133.405 45.8126 132.722C45.6367 132.213 45.3112 131.769 44.8789 131.448C44.5637 131.213 44.2021 131.046 43.8179 130.96C43.5146 130.929 43.2088 130.929 42.9055 130.96C42.5549 130.973 42.2172 131.096 41.94 131.311C41.6663 131.537 41.4728 131.846 41.3882 132.191C41.3457 132.373 41.3457 132.561 41.3882 132.743C41.4289 132.825 41.4826 132.901 41.5474 132.966C41.6165 133.036 41.6997 133.09 41.7914 133.125C41.9843 133.199 42.1583 133.315 42.3007 133.464C42.4523 133.603 42.5718 133.773 42.6508 133.963C42.7272 134.156 42.7668 134.361 42.7675 134.568C42.758 134.772 42.715 134.972 42.6402 135.162C42.5547 135.348 42.4361 135.517 42.2901 135.661C42.135 135.802 41.9551 135.913 41.7596 135.99C41.5694 136.059 41.3677 136.091 41.1654 136.085C40.9566 136.065 40.7524 136.011 40.5606 135.926C40.0894 135.723 39.6664 135.423 39.3193 135.045C38.9008 134.565 38.5996 133.994 38.4394 133.377C38.2793 132.76 38.2645 132.114 38.3962 131.491C38.5563 130.752 38.8951 130.063 39.3829 129.486C39.8076 129.014 40.3191 128.629 40.8896 128.35C41.4594 128.069 42.0802 127.907 42.7145 127.873C43.2502 127.809 43.7915 127.809 44.3272 127.873C45.1195 128.04 45.8701 128.364 46.5341 128.828C47.5119 129.503 48.2538 130.468 48.6561 131.586C49.1111 132.78 49.2393 134.073 49.0275 135.332C48.7929 136.56 48.2853 137.721 47.5421 138.727C46.7645 139.882 45.6545 140.774 44.3591 141.284C42.2916 142.101 40.0004 142.154 37.8975 141.433C36.5616 140.961 35.3423 140.208 34.3219 139.226C33.3042 138.244 32.5114 137.053 31.9983 135.735C30.9901 133.057 30.9901 130.105 31.9983 127.427C32.8678 124.972 34.583 122.908 36.8365 121.602C39.0629 120.251 41.6773 119.683 44.2636 119.99C45.9336 120.105 47.564 120.553 49.0595 121.305C50.555 122.057 51.8858 123.1 52.9744 124.372C53.176 124.605 53.3458 124.838 53.5262 125.082V122.663L49.2821 117.815C49.0366 117.517 48.9116 117.139 48.932 116.754C48.9594 116.345 49.1462 115.964 49.4519 115.693C49.741 115.43 50.1226 115.292 50.5129 115.311C50.9124 115.319 51.2929 115.483 51.5739 115.767L53.4943 117.963V113.825C53.4566 113.636 53.4566 113.441 53.4943 113.252C53.5557 113.065 53.653 112.892 53.7808 112.743C53.9137 112.599 54.0768 112.487 54.2582 112.414C54.4339 112.33 54.626 112.287 54.8206 112.287C55.0152 112.287 55.2073 112.33 55.3829 112.414C55.5626 112.485 55.7226 112.598 55.8498 112.743C55.9814 112.89 56.0791 113.064 56.1362 113.252C56.2003 113.436 56.222 113.632 56.1999 113.825V118.005L58.0354 115.883C58.2433 115.689 58.501 115.556 58.7798 115.5C59.0587 115.443 59.3477 115.465 59.6149 115.563C59.882 115.661 60.1168 115.831 60.2931 116.054C60.4695 116.277 60.5804 116.545 60.6137 116.828C60.6521 117.205 60.5501 117.582 60.3272 117.889L56.1787 122.727V129.411C56.417 129.134 56.6721 128.872 56.9426 128.626C58.6068 126.985 60.8152 126.011 63.1495 125.889C63.7506 125.879 64.3512 125.929 64.9426 126.037C67.0693 126.368 68.9994 127.471 70.3643 129.135C71.163 130.065 71.7625 131.148 72.1256 132.318C72.5008 133.507 72.6095 134.764 72.4439 136C72.1389 138.224 71.0013 140.249 69.2609 141.666C68.3282 142.35 67.229 142.772 66.0779 142.886C64.9372 143.002 63.7851 142.864 62.7039 142.483C62.5907 142.461 62.4827 142.418 62.3856 142.356C61.2319 141.796 60.2741 140.901 59.6376 139.788C59.1121 138.666 59.0177 137.389 59.3723 136.202C59.4698 135.81 59.616 135.432 59.8073 135.077C60.1538 134.348 60.7171 133.744 61.42 133.348C62.1688 132.938 63.0461 132.832 63.871 133.051C64.1103 133.127 64.3442 133.219 64.5712 133.326H64.741C65.4804 133.79 66.0471 134.483 66.3537 135.3C66.6073 136.098 66.5466 136.964 66.184 137.719C66.0917 137.897 65.9697 138.059 65.8232 138.196C65.6775 138.334 65.5038 138.439 65.3139 138.504C65.127 138.572 64.9291 138.604 64.7304 138.6C64.5292 138.592 64.3316 138.543 64.1494 138.458C63.9672 138.372 63.8039 138.251 63.6694 138.101C63.5351 137.953 63.4306 137.78 63.3617 137.592C63.2982 137.404 63.2659 137.207 63.2662 137.008C63.2779 136.809 63.3284 136.615 63.4147 136.435V136.234C63.3622 136.126 63.286 136.032 63.1919 135.958C63.1027 135.926 63.0053 135.926 62.9161 135.958C62.7369 136.064 62.5958 136.223 62.5129 136.414C62.4373 136.563 62.3768 136.72 62.3325 136.881C62.1885 137.36 62.2186 137.875 62.4174 138.334C62.7233 138.876 63.1856 139.312 63.7437 139.586C64.3901 139.812 65.0786 139.892 65.7596 139.82C66.3355 139.777 66.8908 139.587 67.3723 139.268C68.4789 138.316 69.1964 136.991 69.3882 135.544C69.4792 134.748 69.4033 133.943 69.1654 133.178C68.9033 132.403 68.5004 131.684 67.9771 131.056C67.1126 129.996 65.8967 129.28 64.55 129.04H64.4545C64.1019 129.002 63.7461 129.002 63.3935 129.04C61.7934 129.121 60.2806 129.794 59.1495 130.929C57.7736 132.227 56.8356 133.922 56.4651 135.777C56.4408 135.999 56.4018 136.219 56.3484 136.435C56.5684 139.804 57.4632 143.095 58.9797 146.112C61.0127 150.054 64.2297 153.259 68.1787 155.279C71.6594 157.113 75.5441 158.047 79.4784 157.995C79.8391 157.921 80.2635 157.91 80.6879 157.825Z" fill="#0F7657"/>
<path d="M75.903 190.737H73.3247V200H75.903V190.737Z" fill="#A92819"/>
<path d="M75.903 189.443H73.3247V190.727H75.903V189.443Z" fill="#A92819"/>
<path d="M54.1421 69.0082C49.1236 62.0374 42.471 58.9074 34.3543 59.6819L33.9299 55.3212C37.5105 54.8973 41.1406 55.2669 44.5623 56.4038C47.9839 57.5407 51.1134 59.417 53.7283 61.8994V55.353H55.9671L58.1633 55.4591V59.6077C61.9724 54.5679 67.8291 49.666 75.3304 49.666V54.048C66.8954 54.048 60.8901 62.3026 58.471 67.4803C62.124 73.1642 64.4921 79.5769 65.41 86.2708L61.0599 86.8331C60.1707 80.4346 57.8021 74.3314 54.1421 69.0082Z" fill="#2A3277"/>
<path d="M69.1342 190.737H66.5559V200H69.1342V190.737Z" fill="#A92819"/>
<path d="M69.1342 189.443H66.5559V190.727H69.1342V189.443Z" fill="#A92819"/>
<path d="M64.794 44.2971V48.6791C59.107 48.6791 58.2052 54.6525 58.1203 55.4695L55.9664 55.3528H53.7277C53.7277 53.5703 52.3378 48.6684 47.8604 48.6684V44.2971C49.9894 44.2655 52.0634 44.9743 53.7277 46.3024V42.9814H58.0885V46.5464C59.985 45.0231 62.3625 44.2256 64.794 44.2971V44.2971Z" fill="#2A3277"/>
<path d="M61.7511 190.737H59.1729V200H61.7511V190.737Z" fill="#A92819"/>
<path d="M61.7511 189.443H59.1729V190.727H61.7511V189.443Z" fill="#A92819"/>
<path d="M53.1146 1.12476L55.661 1.44306C53.3905 19.1407 46.791 32.0743 36.0324 39.8727C26.6107 46.7269 16.2022 48.0531 9.57089 48.0531C7.26867 48.0705 4.96899 47.8966 2.69556 47.5332L3.17301 44.9974C3.34277 44.9974 20.4038 48.0637 34.5576 37.7719C44.6796 30.3979 50.9396 18.0584 53.1146 1.12476Z" fill="#4C8BCA"/>
<path d="M54.3663 190.737H51.7881V200H54.3663V190.737Z" fill="#A92819"/>
<path d="M54.3663 189.443H51.7881V190.727H54.3663V189.443Z" fill="#A92819"/>
<path d="M50.0265 89.7715H43.3103C42.9511 85.0655 40.8697 80.6571 37.4642 77.3895C34.1209 74.1699 29.6601 72.3711 25.0186 72.3711C20.3771 72.3711 15.9162 74.1699 12.5729 77.3895C9.16739 80.6571 7.08597 85.0655 6.72679 89.7715H0C0.391847 83.2606 3.19473 77.129 7.86206 72.5726C12.4457 68.09 18.6021 65.5801 25.0132 65.5801C31.4244 65.5801 37.5808 68.09 42.1644 72.5726C46.8284 77.1314 49.6306 83.2616 50.0265 89.7715V89.7715ZM47.1724 85.9306C47.2096 85.7558 47.2096 85.575 47.1724 85.4001C47.0995 85.1456 46.9604 84.9149 46.7692 84.7317C46.5739 84.558 46.3309 84.4469 46.0718 84.4128C45.8126 84.3788 45.5492 84.4233 45.3156 84.5407C45.0809 84.6607 44.8884 84.8495 44.7639 85.0818C44.6344 85.3185 44.5755 85.5873 44.5941 85.8564C44.6067 86.1216 44.6991 86.3768 44.8594 86.5885C45.0161 86.8014 45.2347 86.9607 45.4854 87.0447C45.7346 87.119 46.0001 87.119 46.2493 87.0447C46.416 86.9995 46.5714 86.92 46.7055 86.8113C46.8416 86.695 46.9596 86.5591 47.0557 86.4081C47.1178 86.2555 47.1572 86.0947 47.1724 85.9306ZM44.8488 80.9863C44.9558 80.7431 44.9961 80.4758 44.9655 80.2118C44.9349 79.9466 44.828 79.696 44.6578 79.4903C44.484 79.2934 44.2605 79.1468 44.0106 79.0659C43.7614 78.9916 43.4959 78.9916 43.2467 79.0659C42.996 79.1499 42.7774 79.3093 42.6207 79.5222C42.4604 79.7338 42.3679 79.989 42.3554 80.2543C42.3356 80.5234 42.3946 80.7926 42.5252 81.0288V81.0288C42.6141 81.1818 42.729 81.3183 42.8647 81.432C43.0053 81.5367 43.1634 81.6157 43.3315 81.6654C43.4967 81.6921 43.6651 81.6921 43.8302 81.6654C44.0039 81.6407 44.1703 81.5792 44.3183 81.485C44.5385 81.372 44.7224 81.1992 44.8488 80.9863V80.9863ZM41.5809 75.7768C41.581 75.5957 41.5486 75.416 41.4854 75.2463C41.4194 75.0782 41.3181 74.9263 41.1883 74.8007C41.0676 74.6749 40.9234 74.574 40.7639 74.5036C40.6014 74.4284 40.4226 74.3956 40.244 74.4081C40.0732 74.408 39.904 74.4404 39.7453 74.5036C39.5843 74.5813 39.4373 74.6853 39.3103 74.8113C39.0777 75.075 38.9495 75.4146 38.9496 75.7662C38.9501 76.1216 39.0868 76.4633 39.3315 76.7211C39.4499 76.8439 39.5916 76.9418 39.7483 77.0092C39.9049 77.0766 40.0735 77.1121 40.244 77.1137C40.4176 77.1182 40.5903 77.0866 40.751 77.0209C40.9118 76.9551 41.0571 76.8567 41.1777 76.7317C41.424 76.4732 41.5674 76.1336 41.5809 75.7768V75.7768ZM36.9337 72.9439C37.1196 72.6231 37.1729 72.2424 37.0822 71.8829C36.9995 71.5374 36.7867 71.2372 36.488 71.0447C36.3373 70.9527 36.1694 70.8923 35.9946 70.867C35.8198 70.8418 35.6417 70.8523 35.4711 70.898C35.3005 70.9436 35.1409 71.0234 35.002 71.1325C34.8631 71.2416 34.7478 71.3778 34.6631 71.5328C34.5694 71.691 34.508 71.8663 34.4825 72.0484C34.457 72.2305 34.4679 72.4159 34.5146 72.5938C34.556 72.7675 34.6317 72.9312 34.7374 73.0752C34.8431 73.2191 34.9766 73.3404 35.13 73.432C35.2779 73.5243 35.4447 73.5823 35.618 73.6017C35.7858 73.6385 35.9595 73.6385 36.1273 73.6017C36.2972 73.5564 36.456 73.477 36.5941 73.3683C36.7286 73.2453 36.8431 73.1021 36.9337 72.9439V72.9439ZM31.8727 70.3763C31.9045 70.208 31.9045 70.0353 31.8727 69.867C31.8549 69.6867 31.7969 69.5126 31.7029 69.3577C31.6193 69.204 31.5058 69.0685 31.3692 68.9592C31.2325 68.8499 31.0755 68.769 30.9071 68.7211C30.655 68.642 30.3847 68.642 30.1326 68.7211C29.8887 68.807 29.6749 68.9618 29.5172 69.1667C29.3592 69.3845 29.2639 69.6413 29.2414 69.9094C29.2248 70.1797 29.2875 70.4489 29.4217 70.684C29.5564 70.9122 29.7508 71.0993 29.9841 71.2251C30.2172 71.3405 30.4792 71.3848 30.7374 71.3524C31.0007 71.3034 31.243 71.1758 31.4324 70.9864C31.6217 70.797 31.7494 70.5547 31.7984 70.2914L31.8727 70.3763ZM26.2599 69.7609C26.3317 69.5971 26.3679 69.4199 26.366 69.241C26.3689 68.9732 26.2913 68.7108 26.1432 68.4877C25.9985 68.2641 25.7921 68.0872 25.5491 67.9784C25.312 67.8751 25.0484 67.8491 24.7957 67.9041C24.5396 67.957 24.3039 68.0822 24.1167 68.2649C23.9294 68.4571 23.8038 68.701 23.756 68.9651C23.7005 69.2283 23.7264 69.5021 23.8302 69.7503C23.9224 69.9974 24.0874 70.2108 24.3033 70.3624C24.5192 70.5139 24.776 70.5964 25.0398 70.5991V70.5991C25.2105 70.5991 25.3798 70.5667 25.5384 70.5036C25.703 70.431 25.8538 70.3305 25.9841 70.2065C26.1039 70.0771 26.1975 69.9258 26.2599 69.7609ZM20.6048 70.6521C20.785 70.3292 20.8344 69.9494 20.7427 69.5911C20.6698 69.3366 20.5307 69.1059 20.3395 68.9227C20.1395 68.7527 19.8978 68.6391 19.6392 68.5938C19.3801 68.5653 19.1182 68.6133 18.8859 68.7317C18.6511 68.8503 18.4557 69.0346 18.3236 69.2622C18.2006 69.4978 18.1386 69.7604 18.1432 70.0261C18.1636 70.293 18.2552 70.5495 18.4085 70.7688C18.5691 70.9802 18.786 71.1421 19.0345 71.2357C19.2837 71.31 19.5492 71.31 19.7984 71.2357C20.1222 71.1427 20.4012 70.9354 20.5835 70.6521H20.6048ZM15.5438 72.5407C15.5809 72.3623 15.5809 72.1781 15.5438 71.9996C15.5211 71.8204 15.4634 71.6473 15.374 71.4903C15.2464 71.2603 15.0547 71.0724 14.8223 70.9492C14.5887 70.8234 14.3201 70.7787 14.0583 70.8219C13.801 70.854 13.5601 70.9652 13.3687 71.1402C13.1703 71.3175 13.0298 71.5504 12.9655 71.8086C12.8861 72.0679 12.8861 72.3451 12.9655 72.6044C13.051 72.8544 13.2055 73.0751 13.4111 73.241C13.6105 73.4099 13.8608 73.5071 14.122 73.5169C14.3811 73.5367 14.64 73.4775 14.8647 73.3471C15.0199 73.2567 15.1566 73.1379 15.2679 72.997C15.388 72.8638 15.4816 72.709 15.5438 72.5407ZM11.0981 75.7238C11.0983 75.5461 11.066 75.3699 11.0026 75.2039C10.9403 75.0389 10.8466 74.8876 10.7268 74.7582C10.6004 74.6344 10.4531 74.5339 10.2918 74.4612C10.1337 74.3946 9.96453 74.3586 9.7931 74.3551C9.618 74.3565 9.44491 74.3925 9.28381 74.4612C9.12107 74.5313 8.97337 74.6322 8.8488 74.7582C8.72583 74.8872 8.6286 75.0384 8.56233 75.2039C8.49804 75.3696 8.46564 75.546 8.46684 75.7238C8.46756 75.9013 8.49989 76.0774 8.56233 76.2436C8.63114 76.4077 8.72809 76.5585 8.8488 76.6893C8.97106 76.8155 9.11957 76.9133 9.28381 76.9757C9.44245 77.053 9.61666 77.0929 9.7931 77.0925C9.98371 77.0984 10.1729 77.0584 10.3448 76.9757C10.5077 76.9107 10.6557 76.8132 10.7798 76.6893V76.6893C10.9038 76.559 11.0043 76.4082 11.0769 76.2436C11.111 76.0725 11.1182 75.8971 11.0981 75.7238V75.7238ZM7.4801 81.0288C7.65369 80.7035 7.69911 80.3249 7.60742 79.9678C7.51558 79.6262 7.29504 79.3334 6.99204 79.1508C6.84415 79.0606 6.67929 79.0019 6.50771 78.9781C6.33613 78.9544 6.1615 78.9662 5.99469 79.0129C5.82494 79.0606 5.66631 79.1414 5.52791 79.2506C5.38952 79.3599 5.27411 79.4954 5.18833 79.6495C5.09815 79.8092 5.04048 79.9852 5.01862 80.1673C4.99677 80.3494 5.01118 80.534 5.06101 80.7105C5.14934 81.0565 5.37042 81.3539 5.67639 81.5381C5.97887 81.7109 6.33754 81.7567 6.67374 81.6654C6.84479 81.6141 7.00406 81.5297 7.14243 81.4168C7.28079 81.3039 7.39554 81.1648 7.4801 81.0076V81.0288ZM5.44297 86.0367C5.47503 85.8614 5.47503 85.6816 5.44297 85.5062C5.42249 85.3313 5.36846 85.162 5.28382 85.0076C5.20557 84.8594 5.10135 84.7264 4.97612 84.615C4.83855 84.503 4.67976 84.42 4.50928 84.371C4.34099 84.3393 4.16829 84.3393 4 84.371C3.82782 84.3953 3.66203 84.4529 3.51193 84.5407C3.35967 84.631 3.22635 84.7499 3.11936 84.8909C3.01781 85.0358 2.94241 85.1974 2.89655 85.3683C2.84672 85.5448 2.83232 85.7294 2.85417 85.9115C2.87602 86.0936 2.9337 86.2696 3.02387 86.4293C3.10966 86.5834 3.22507 86.7189 3.36346 86.8282C3.50185 86.9374 3.66049 87.0182 3.83024 87.0659C3.99705 87.1126 4.17167 87.1244 4.34325 87.1007C4.51483 87.0769 4.67969 87.0182 4.82758 86.928C4.98844 86.8327 5.12674 86.7037 5.23297 86.5498C5.3392 86.396 5.41084 86.2209 5.44297 86.0367V86.0367Z" fill="#A92819"/>
<path d="M46.9794 190.737H44.4011V200H46.9794V190.737Z" fill="#A92819"/>
<path d="M46.9794 189.443H44.4011V190.727H46.9794V189.443Z" fill="#A92819"/>
<path d="M39.5983 190.737H37.02V200H39.5983V190.737Z" fill="#A92819"/>
<path d="M39.5983 189.443H37.02V190.727H39.5983V189.443Z" fill="#A92819"/>
<path d="M35.9904 99.0875C36.0991 99.3426 36.1568 99.6165 36.1601 99.8938C36.1487 100.459 35.9208 100.998 35.5235 101.4L27.2158 109.496V117.209H22.8657V109.538L14.2397 101.591C13.8347 101.207 13.5976 100.678 13.5797 100.12C13.5618 99.5622 13.7647 99.0196 14.1442 98.61C14.543 98.2112 15.0788 97.9793 15.6425 97.9616C16.2063 97.9438 16.7556 98.1416 17.1787 98.5145L22.9187 103.713V97.931L17.2954 92.1167C16.9098 91.711 16.7001 91.1695 16.7118 90.61C16.718 90.3334 16.7804 90.0608 16.8953 89.8091C17.0102 89.5574 17.1753 89.3317 17.3803 89.1458C17.8021 88.7628 18.3557 88.5577 18.9252 88.5735C19.4947 88.5894 20.0361 88.8248 20.436 89.2307L22.8445 91.7453V80.0742H27.1946V92.0424L29.497 89.74C29.9104 89.3505 30.4569 89.1337 31.0248 89.1337C31.5928 89.1337 32.1393 89.3505 32.5527 89.74C32.9447 90.1371 33.1645 90.6727 33.1645 91.2307C33.1645 91.7887 32.9447 92.3243 32.5527 92.7214L27.1946 97.9416V103.522L32.4996 98.3978C32.9088 98.0043 33.4545 97.7844 34.0222 97.7844C34.5899 97.7844 35.1356 98.0043 35.5447 98.3978C35.7434 98.5911 35.8958 98.8269 35.9904 99.0875V99.0875Z" fill="#F8B05E"/>
<path d="M32.9231 2.66309C33.7295 12.3501 31.5438 19.6392 26.4298 24.244C21.3157 28.8487 14.4828 29.793 9.85684 29.793C8.14174 29.8237 6.42718 29.7065 4.73218 29.4429L5.20963 26.9177C5.32634 26.9177 17.3582 29.0397 24.7003 22.3766C29.1884 18.3129 31.0664 11.7665 30.3555 2.92834L32.9231 2.66309Z" fill="#2A3277"/>
<path d="M32.2113 190.737H29.6331V200H32.2113V190.737Z" fill="#A92819"/>
<path d="M32.2113 189.443H29.6331V190.727H32.2113V189.443Z" fill="#A92819"/>
<path d="M24.8282 190.737H22.25V200H24.8282V190.737Z" fill="#A92819"/>
<path d="M24.8282 189.443H22.25V190.727H24.8282V189.443Z" fill="#A92819"/>
<path d="M23.3626 154.345H3.56421V156.923H23.3626V154.345Z" fill="#179E6C"/>
<path d="M23.2587 142.907H3.47095V145.485H23.2587V142.907Z" fill="#A92819"/>
<path d="M23.2587 131.215H3.47095V133.793H23.2587V131.215Z" fill="#179E6C"/>
<path d="M13.3573 1.75049C15.2669 1.75049 17.1337 2.31675 18.7214 3.37768C20.3092 4.4386 21.5468 5.94653 22.2775 7.71078C23.0083 9.47504 23.1995 11.4164 22.827 13.2893C22.4544 15.1622 21.5349 16.8826 20.1846 18.2329C18.8343 19.5832 17.1139 20.5028 15.2409 20.8753C13.368 21.2479 11.4267 21.0566 9.66245 20.3259C7.89819 19.5951 6.39026 18.3576 5.32934 16.7698C4.26841 15.182 3.70215 13.3153 3.70215 11.4057C3.70775 8.84667 4.72679 6.3941 6.53627 4.58461C8.34576 2.77513 10.7983 1.75609 13.3573 1.75049V1.75049ZM20.4448 11.4057C20.4469 10.0034 20.0331 8.63208 19.2555 7.46515C18.478 6.29822 17.3718 5.38814 16.077 4.85007C14.7821 4.31201 13.3567 4.17014 11.9811 4.44241C10.6056 4.71468 9.34171 5.38887 8.34944 6.37965C7.35717 7.37044 6.68109 8.6333 6.40676 10.0084C6.13242 11.3836 6.27216 12.8092 6.80828 14.1049C7.34441 15.4006 8.25283 16.5081 9.4186 17.2874C10.5844 18.0666 11.9551 18.4826 13.3573 18.4826C15.2344 18.4798 17.0339 17.7336 18.3621 16.4073C19.6904 15.0811 20.4392 13.2827 20.4448 11.4057V11.4057Z" fill="#179E6C"/>
<path d="M17.4435 190.737H14.8652V200H17.4435V190.737Z" fill="#A92819"/>
<path d="M17.4435 189.443H14.8652V190.727H17.4435V189.443Z" fill="#A92819"/>
<path d="M13.3594 9.09304C13.8199 9.09094 14.2706 9.2257 14.6543 9.48022C15.038 9.73473 15.3375 10.0975 15.5147 10.5225C15.6919 10.9475 15.7388 11.4156 15.6495 11.8673C15.5601 12.3191 15.3386 12.7341 15.013 13.0597C14.6874 13.3853 14.2724 13.6068 13.8207 13.6961C13.369 13.7854 12.9009 13.7385 12.4759 13.5613C12.0509 13.3841 11.6881 13.0847 11.4336 12.7009C11.1791 12.3172 11.0443 11.8665 11.0464 11.406C11.0492 10.7935 11.2938 10.2068 11.727 9.77359C12.1601 9.34042 12.7468 9.09583 13.3594 9.09304Z" fill="#2A3277"/>
<path d="M10.0565 190.737H7.47827V200H10.0565V190.737Z" fill="#A92819"/>
<path d="M10.0565 189.443H7.47827V190.727H10.0565V189.443Z" fill="#A92819"/>
</svg>
