<svg width="189" height="200" viewBox="0 0 189 200" fill="none" xmlns="http://www.w3.org/2000/svg">
<path d="M188.75 74.68L171.678 82.0814C170.212 80.0184 168.415 78.2113 166.361 76.7331H161.937L161.875 79.6895C167.757 80.5313 169.379 84.2371 169.276 87.522C168.835 91.6282 166.299 94.6462 160.653 94.3485C159.379 94.161 158.183 93.6165 157.204 92.7779C155.962 91.197 157.553 89.842 158.867 90.5708C161.752 92.162 165.17 90.1397 165.273 87.6657C165.328 86.6611 164.994 85.6738 164.34 84.9091C163.687 84.1444 162.763 83.661 161.762 83.5596C160.551 84.7914 158.498 84.658 157.872 83.5596L158.036 76.7844H153.652C153.652 76.4046 153.581 76.0043 153.54 75.6142C153.642 74.7006 153.724 73.7972 153.786 72.9247H158.118L158.241 66.4678C158.674 65.9895 159.26 65.6759 159.898 65.5805C160.536 65.485 161.187 65.6136 161.742 65.9442C162.744 65.8452 163.67 65.363 164.326 64.598C164.982 63.833 165.318 62.8443 165.263 61.8381C165.16 59.3539 161.742 57.3316 158.857 58.9432C157.543 59.6618 155.952 58.3171 157.194 56.7362C158.172 55.8944 159.367 55.3463 160.643 55.1553C166.289 54.8576 168.855 57.8243 169.266 61.9818C169.369 65.2359 167.798 68.8801 162.08 69.7835L161.988 72.9452H165.581C167.991 71.4211 170.082 69.4445 171.74 67.1247L188.75 74.68Z" fill="#0F7657"/>
<path d="M186.871 175.835H0.246338V178.34H186.871V175.835Z" fill="#179E6C"/>
<path d="M186.624 181.974H0V184.479H186.624V181.974Z" fill="#179E6C"/>
<path d="M186.296 154.134H113.72V156.639H186.296V154.134Z" fill="#A92819"/>
<path d="M186.05 145.686H113.474V148.191H186.05V145.686Z" fill="#179E6C"/>
<path d="M185.505 127.126H170.24V129.631H185.505V127.126Z" fill="#179E6C"/>
<path d="M185.505 116.481H170.24V118.986H185.505V116.481Z" fill="#A92819"/>
<path d="M185.505 105.343H170.24V107.848H185.505V105.343Z" fill="#179E6C"/>
<path d="M181.182 161.89L174.961 168.804L176.823 170.479L183.044 163.565L181.182 161.89Z" fill="#4C8BCA"/>
<path d="M182.478 190.987H179.973V200H182.478V190.987Z" fill="#A92819"/>
<path d="M182.478 189.735H179.973V190.987H182.478V189.735Z" fill="#A92819"/>
<path d="M177.858 11.6818C179.11 11.6818 180.126 10.6661 180.126 9.41318C180.126 8.16024 179.11 7.14453 177.858 7.14453C176.605 7.14453 175.589 8.16024 175.589 9.41318C175.589 10.6661 176.605 11.6818 177.858 11.6818Z" fill="#2A3277"/>
<path d="M175.693 190.987H173.188V200H175.693V190.987Z" fill="#A92819"/>
<path d="M175.693 189.735H173.188V190.987H175.693V189.735Z" fill="#A92819"/>
<path d="M171.609 161.86L165.385 168.771L167.246 170.447L173.47 163.536L171.609 161.86Z" fill="#4C8BCA"/>
<path d="M187.262 9.41332C187.262 11.2731 186.71 13.0911 185.677 14.6374C184.644 16.1837 183.175 17.3889 181.457 18.1006C179.739 18.8123 177.848 18.9985 176.024 18.6357C174.2 18.2729 172.525 17.3773 171.21 16.0623C169.895 14.7473 168.999 13.0718 168.636 11.2478C168.273 9.42375 168.46 7.53311 169.171 5.81493C169.883 4.09674 171.088 2.62818 172.635 1.59496C174.181 0.561734 175.999 0.0102539 177.859 0.0102539C180.352 0.0102539 182.744 1.00093 184.508 2.76435C186.271 4.52777 187.262 6.91947 187.262 9.41332ZM177.859 16.3014C179.224 16.3034 180.559 15.9003 181.695 15.1431C182.831 14.3859 183.717 13.3086 184.24 12.0477C184.764 10.7868 184.901 9.39888 184.635 8.05979C184.369 6.72069 183.712 5.49058 182.747 4.52522C181.781 3.55985 180.551 2.90264 179.212 2.63679C177.873 2.37095 176.485 2.50842 175.224 3.03181C173.963 3.5552 172.886 4.44097 172.129 5.57696C171.372 6.71296 170.969 8.04809 170.971 9.41332C170.973 11.2393 171.7 12.9897 172.991 14.2809C174.282 15.5721 176.033 16.2987 177.859 16.3014Z" fill="#179E6C"/>
<path d="M168.905 190.987H166.4V200H168.905V190.987Z" fill="#A92819"/>
<path d="M168.905 189.735H166.4V190.987H168.905V189.735Z" fill="#A92819"/>
<path d="M167.224 20.4695C171.186 24.8322 177.571 26.6903 186.174 25.9614L186.389 28.4662C185.106 28.5688 183.885 28.6202 182.694 28.6202C175.077 28.6202 169.267 26.4439 165.366 22.1324C158.047 14.0536 160.233 1.54013 160.336 1.0166L162.81 1.45801C162.789 1.5812 160.746 13.3145 167.224 20.4695Z" fill="#4C8BCA"/>
<path d="M162.879 161.887L156.659 168.8L158.521 170.476L164.741 163.562L162.879 161.887Z" fill="#4C8BCA"/>
<path d="M162.12 190.987H159.615V200H162.12V190.987Z" fill="#A92819"/>
<path d="M162.12 189.735H159.615V190.987H162.12V189.735Z" fill="#A92819"/>
<path d="M154.154 161.858L147.93 168.769L149.791 170.445L156.015 163.534L154.154 161.858Z" fill="#4C8BCA"/>
<path d="M155.335 190.987H152.831V200H155.335V190.987Z" fill="#A92819"/>
<path d="M155.335 189.735H152.831V190.987H155.335V189.735Z" fill="#A92819"/>
<path d="M149.885 73.0073H153.776C153.714 73.8799 153.632 74.7832 153.529 75.6968C153.529 76.0869 153.611 76.4873 153.642 76.8671H149.741C149.741 76.5899 149.741 76.3128 149.669 76.0356C149.659 75.9126 149.659 75.789 149.669 75.666V75.666C149.653 75.5331 149.653 75.3987 149.669 75.2657C149.752 74.4753 149.823 73.7362 149.885 73.0073Z" fill="#0F7657"/>
<path d="M149.741 76.8671H146.005C146.005 76.2409 145.902 75.6045 145.83 74.9372C145.758 74.27 145.953 73.6335 145.994 73.0073H149.885C149.823 73.7362 149.752 74.4753 149.669 75.2452C149.653 75.3781 149.653 75.5126 149.669 75.6455C149.659 75.7685 149.659 75.8921 149.669 76.0151C149.7 76.3128 149.731 76.5899 149.741 76.8671Z" fill="#0F7657"/>
<path d="M148.55 190.987H146.046V200H148.55V190.987Z" fill="#A92819"/>
<path d="M148.55 189.735H146.046V190.987H148.55V189.735Z" fill="#A92819"/>
<path d="M145.421 161.892L139.201 168.806L141.063 170.481L147.283 163.567L145.421 161.892Z" fill="#4C8BCA"/>
<path d="M144.219 74.9885C144.219 73.962 144.383 73.0586 144.588 73.0586H145.995C145.995 73.6848 145.902 74.3315 145.83 74.9885C145.759 75.6455 145.964 76.2922 146.005 76.9184H144.588C144.434 76.9184 144.301 76.4359 144.25 75.7379C144.229 75.5018 144.219 75.2554 144.219 74.9885Z" fill="#0F7657"/>
<path d="M186.572 51.491C160.755 47.9906 148.498 34.1529 142.77 23.1997C138.988 16.0252 136.843 8.10224 136.487 0H138.992C139.379 7.72841 141.443 15.2802 145.038 22.1321C152.984 37.253 167.068 46.2968 186.942 49.0171L186.572 51.491Z" fill="#4C8BCA"/>
<path d="M94.093 87.8201C94.637 87.8201 95.1195 87.8201 95.7149 87.7585L124.201 117.107C126.111 112.796 128.934 109.49 131.808 106.092C137.536 99.3584 143.582 92.2445 142.022 75.9431L144.25 75.7378C144.25 76.4358 144.434 76.9183 144.588 76.9183H146.005C147.278 93.9075 140.872 101.453 134.775 108.618C131.869 112.036 129.047 115.352 127.373 119.591C127.3 119.771 127.203 119.94 127.086 120.094L129.58 122.661C131.213 120.546 133.101 118.555 135.062 116.389C142.771 108.053 151.774 98.3113 149.741 76.8875H153.642C155.695 99.7895 146.128 110.168 137.906 119.058C132.722 124.663 128.123 129.621 128.01 136.837C128.002 137.352 127.789 137.842 127.42 138.2C127.05 138.558 126.553 138.755 126.039 138.747C125.524 138.738 125.034 138.526 124.676 138.157C124.318 137.787 124.121 137.29 124.129 136.776C124.197 132.847 125.36 129.014 127.486 125.71L90.7362 87.8099C91.8551 87.8407 92.9741 87.8509 94.093 87.8201Z" fill="#0F7657"/>
<path d="M144.586 73.0587C144.381 73.0587 144.216 73.9313 144.216 74.9886C144.216 75.2555 144.216 75.5019 144.216 75.738L141.989 75.9433C141.989 75.7277 141.989 75.5224 141.927 75.3068C141.922 75.2248 141.922 75.1425 141.927 75.0605V75.0605C141.917 74.9204 141.917 74.7797 141.927 74.6396C143.59 57.9071 137.421 50.7521 131.59 43.9667C128.613 40.5175 125.708 37.1505 123.758 32.6748L94.953 64.8772H94.7477L90.8263 64.1279L126.817 23.9184C125.491 21.1127 124.479 18.1693 123.799 15.1416C123.741 14.8928 123.734 14.6353 123.776 14.3836C123.818 14.1319 123.909 13.8909 124.045 13.6745C124.318 13.2375 124.754 12.927 125.256 12.8113C125.759 12.6956 126.286 12.7842 126.723 13.0576C127.16 13.3309 127.471 13.7667 127.587 14.269C130.009 24.6268 135.306 30.3343 140.429 35.8263C148.117 44.1104 155.436 52.0147 153.773 72.9355H149.883C151.484 53.4314 144.75 46.0916 137.564 38.4337C134.176 35.0066 131.171 31.2203 128.603 27.1418L126.427 29.5644C126.703 29.7832 126.919 30.0695 127.053 30.3959C128.757 34.5944 131.6 37.9101 134.526 41.308C140.685 48.4321 147.132 55.9361 145.962 72.9253L144.586 73.0587Z" fill="#0F7657"/>
<path d="M141.765 190.987H139.261V200H141.765V190.987Z" fill="#A92819"/>
<path d="M141.765 189.735H139.261V190.987H141.765V189.735Z" fill="#A92819"/>
<path d="M135.861 161.852L129.636 168.762L131.498 170.439L137.722 163.528L135.861 161.852Z" fill="#4C8BCA"/>
<path d="M134.981 190.987H132.476V200H134.981V190.987Z" fill="#A92819"/>
<path d="M134.981 189.735H132.476V190.987H134.981V189.735Z" fill="#A92819"/>
<path d="M131.448 68.2746C132.279 68.6703 132.973 69.3042 133.443 70.0956C133.913 70.8871 134.136 71.8005 134.086 72.7195C134.089 73.3625 133.96 73.9994 133.707 74.5908C133.455 75.1822 133.084 75.7157 132.618 76.1584C132.583 76.3048 132.538 76.4489 132.484 76.5895C132.479 77.2449 132.335 77.8917 132.063 78.4878C131.79 79.0839 131.395 79.6159 130.903 80.0489C130.534 80.3774 130.175 80.5725 129.877 80.8086C128.913 81.9977 127.526 82.7667 126.007 82.954C124.343 83.0627 122.672 82.8821 121.069 82.4202C120.566 82.2868 119.786 82.0199 119.304 81.948C119.024 81.9518 118.745 81.9862 118.472 82.0507C117.446 82.2252 116.419 82.451 115.392 82.6358C113.76 82.9232 112.087 83.1696 110.445 83.3133C108.807 83.4263 107.165 83.4263 105.527 83.3133C103.895 83.2312 102.284 83.108 100.631 83.1491C98.4136 83.2107 96.1963 83.4673 93.9584 83.5186C93.168 83.5186 92.3776 83.5186 91.5974 83.5186L87.6863 79.4946C89.4827 79.587 91.7924 79.6897 93.8455 79.6383C96.2989 79.587 98.5265 79.3304 100.497 79.279C102.468 79.2277 104.172 79.3714 105.702 79.4433C107.159 79.5236 108.62 79.5065 110.075 79.392C111.615 79.2585 113.35 79.0019 114.674 78.7658C115.998 78.5297 116.953 78.3141 117.754 78.1704C118.428 78.0283 119.12 77.9868 119.807 78.0472C120.392 78.1293 120.967 78.3449 122.014 78.6118C123.151 78.9375 124.332 79.0864 125.514 79.0532C126.167 78.9327 126.748 78.565 127.136 78.0267C127.508 77.7126 127.899 77.4212 128.306 77.1541C128.413 77.066 128.495 76.9514 128.544 76.8216C128.592 76.6919 128.606 76.5517 128.583 76.415C128.534 76.1788 128.513 75.9376 128.522 75.6964C128.58 75.5332 128.675 75.3856 128.799 75.2653C128.84 75.1989 128.862 75.1225 128.862 75.0446C128.862 74.9666 128.84 74.8902 128.799 74.8239C128.737 74.6288 128.594 74.3722 128.553 74.1772C128.512 73.9821 128.553 73.8692 128.84 73.7563C129.196 73.6699 129.54 73.5424 129.867 73.3765C129.979 73.2864 130.067 73.1698 130.122 73.0371C130.178 72.9044 130.199 72.7599 130.185 72.6168C130.213 72.4462 130.186 72.271 130.106 72.1174C130.026 71.9638 129.899 71.8401 129.743 71.7648C129.079 71.5581 128.386 71.4577 127.69 71.4671C126.818 71.4671 125.853 71.4671 124.96 71.4671C124.067 71.4671 123.235 71.4671 122.619 71.5903C122.165 71.6079 121.721 71.7235 121.316 71.929C121.039 72.0997 120.79 72.3108 120.576 72.5552C120.365 72.7862 120.131 72.996 119.878 73.1814C119.591 73.4073 119.191 73.6639 117.887 73.6228C116.583 73.5818 114.386 73.2225 112.046 72.9966C109.822 72.7773 107.587 72.6984 105.353 72.7605C103.485 72.8324 102.273 73.0788 101.144 73.1609C100.045 73.2164 98.9422 73.144 97.8593 72.9453C96.5966 72.74 94.9747 72.4423 93.322 72.1241L89.2158 71.3337L92.2441 67.9563L94.0611 68.3054C95.5393 68.5825 97.0072 68.87 98.4854 69.0958C99.2761 69.2512 100.083 69.3098 100.888 69.2703C102.335 69.1779 103.721 68.9316 105.209 68.87C107.608 68.7985 110.008 68.8842 112.395 69.1266C114.171 69.2908 116.121 69.6501 117.877 69.722C118.32 69.2519 118.828 68.8475 119.386 68.5209C120.247 68.0588 121.194 67.7792 122.168 67.6997C123.05 67.5971 123.974 67.5765 124.878 67.556C125.781 67.5355 126.849 67.556 127.824 67.556C129.069 67.5401 130.303 67.7848 131.448 68.2746V68.2746Z" fill="white"/>
<path d="M128.594 74.1878C128.594 74.3828 128.779 74.6395 128.841 74.8345C128.882 74.9009 128.903 74.9773 128.903 75.0552C128.903 75.1332 128.882 75.2096 128.841 75.2759C128.716 75.3963 128.621 75.5439 128.564 75.7071C128.555 75.9482 128.576 76.1895 128.625 76.4256C128.648 76.5623 128.634 76.7026 128.586 76.8323C128.537 76.962 128.455 77.0767 128.348 77.1648C127.941 77.4318 127.55 77.7232 127.178 78.0373C126.79 78.5756 126.209 78.9433 125.556 79.0638C124.373 79.097 123.193 78.9482 122.055 78.6224C121.029 78.3555 120.433 78.14 119.848 78.0578C119.162 77.9975 118.47 78.039 117.795 78.181C117.025 78.3247 116.081 78.53 114.716 78.7764C113.35 79.0228 111.636 79.2692 110.117 79.4026C108.662 79.5171 107.201 79.5343 105.744 79.4539C104.214 79.3821 102.51 79.2281 100.539 79.2897C98.5683 79.3513 96.3407 79.5976 93.8873 79.649C91.8342 79.649 89.4937 79.5976 87.728 79.5053L84.6484 76.3435L89.1652 71.293L93.2713 72.0834C94.9241 72.4016 96.546 72.6993 97.8086 72.9046C98.8916 73.1033 99.9939 73.1757 101.094 73.1202C102.12 73.0381 103.434 72.7917 105.302 72.7199C107.536 72.6577 109.772 72.7366 111.995 72.956C114.336 73.1818 116.543 73.5308 117.836 73.5821C119.13 73.6335 119.54 73.3666 119.828 73.1407C120.08 72.9553 120.314 72.7455 120.526 72.5145C120.74 72.2701 120.989 72.059 121.265 71.8884C121.67 71.6828 122.115 71.5672 122.569 71.5496C123.185 71.4777 124.016 71.4367 124.909 71.4264C125.802 71.4162 126.767 71.4264 127.64 71.4264C128.336 71.417 129.028 71.5175 129.693 71.7241C129.849 71.7994 129.976 71.9231 130.055 72.0767C130.135 72.2303 130.163 72.4055 130.134 72.5761C130.149 72.7193 130.127 72.8637 130.072 72.9964C130.016 73.1291 129.928 73.2458 129.816 73.3358C129.49 73.5018 129.145 73.6292 128.789 73.7156C128.615 73.8798 128.553 73.9928 128.594 74.1878Z" fill="#A92819"/>
<path d="M128.205 190.987H125.7V200H128.205V190.987Z" fill="#A92819"/>
<path d="M128.205 189.735H125.7V190.987H128.205V189.735Z" fill="#A92819"/>
<path d="M126.296 161.891L120.075 168.805L121.937 170.48L128.158 163.566L126.296 161.891Z" fill="#4C8BCA"/>
<path d="M122.033 190.987H119.528V200H122.033V190.987Z" fill="#A92819"/>
<path d="M122.033 189.735H119.528V190.987H122.033V189.735Z" fill="#A92819"/>
<path d="M118.597 163.548L112.386 170.456L110.508 168.783L116.739 161.864L118.597 163.548Z" fill="#4C8BCA"/>
<path d="M115.248 190.987H112.743V200H115.248V190.987Z" fill="#A92819"/>
<path d="M115.248 189.735H112.743V190.987H115.248V189.735Z" fill="#A92819"/>
<path d="M114.612 19.3301H42.0463V21.8348H114.612V19.3301Z" fill="#179E6C"/>
<path d="M114.376 10.8813H41.7998V13.3861H114.376V10.8813Z" fill="#A92819"/>
<path d="M114.121 2.43311H41.5444V4.93785H114.121V2.43311Z" fill="#179E6C"/>
<path d="M106.612 31.2238L100.388 38.1343L102.249 39.8106L108.473 32.9001L106.612 31.2238Z" fill="#4C8BCA"/>
<path d="M108.463 190.987H105.958V200H108.463V190.987Z" fill="#A92819"/>
<path d="M108.463 189.735H105.958V190.987H108.463V189.735Z" fill="#A92819"/>
<path d="M101.678 190.987H99.1737V200H101.678V190.987Z" fill="#A92819"/>
<path d="M101.678 189.735H99.1737V190.987H101.678V189.735Z" fill="#A92819"/>
<path d="M97.8914 31.2323L91.6707 38.146L93.5326 39.8214L99.7534 32.9076L97.8914 31.2323Z" fill="#4C8BCA"/>
<path d="M94.9552 64.8769L92.204 67.9565L89.1244 67.3714L88.0979 67.1558L90.8387 64.0762L94.7601 64.8255L94.9552 64.8769Z" fill="#0F7657"/>
<path d="M94.9026 190.987H92.3978V200H94.9026V190.987Z" fill="#A92819"/>
<path d="M94.9026 189.735H92.3978V190.987H94.9026V189.735Z" fill="#A92819"/>
<path d="M94.0925 87.8199C92.9736 87.8199 91.8547 87.8199 90.7358 87.8199L86.4243 83.375H86.6912C88.3337 83.4571 89.9761 83.5392 91.6391 83.5598L95.7453 87.7583C95.2115 87.7891 94.6366 87.8199 94.0925 87.8199Z" fill="#0F7657"/>
<path d="M94.0001 83.5702C96.238 83.5702 98.4553 83.2622 100.673 83.2007C102.325 83.2007 103.937 83.2828 105.569 83.3649C107.206 83.4779 108.849 83.4779 110.486 83.3649C112.129 83.2212 113.802 82.9748 115.434 82.6874C116.461 82.5026 117.487 82.2768 118.514 82.1023C118.786 82.0378 119.065 82.0034 119.345 81.9996C119.828 82.0715 120.608 82.3384 121.111 82.4718C122.714 82.9337 124.384 83.1143 126.049 83.0056C127.556 82.8029 128.927 82.0272 129.878 80.8396C130.175 80.6035 130.535 80.4085 130.904 80.08C131.396 79.6469 131.791 79.115 132.063 78.5189C132.336 77.9228 132.48 77.2759 132.485 76.6206C132.539 76.4799 132.583 76.3359 132.618 76.1894C133.085 75.7467 133.456 75.2132 133.708 74.6218C133.961 74.0304 134.089 73.3936 134.086 72.7505C134.137 71.8315 133.913 70.9182 133.444 70.1267C132.974 69.3352 132.279 68.7013 131.448 68.3056C130.301 67.8299 129.066 67.5992 127.824 67.6281C126.798 67.6281 125.864 67.6281 124.878 67.6281C123.893 67.6281 123.051 67.6281 122.168 67.7718C121.194 67.8513 120.247 68.1309 119.386 68.593C118.83 68.9133 118.322 69.3108 117.877 69.7736C116.122 69.7017 114.172 69.3424 112.396 69.1782C110.009 68.9358 107.608 68.85 105.21 68.9215C103.721 68.9831 102.336 69.2295 100.888 69.3219C100.083 69.3613 99.2767 69.3027 98.4861 69.1474C97.0079 68.9215 95.5399 68.6341 94.0617 68.3569L92.2447 68.0079L94.9959 64.9283C96.3509 65.1849 97.7162 65.4518 99.102 65.6674C99.6057 65.767 100.118 65.8152 100.632 65.8111C102.11 65.6982 103.537 65.4518 105.066 65.4005C107.649 65.3046 110.236 65.3938 112.806 65.6674C114.018 65.7701 115.352 65.9856 116.625 66.1294C116.912 65.9343 117.21 65.7393 117.528 65.5545C118.842 64.8404 120.289 64.4036 121.778 64.2713C122.801 64.1569 123.829 64.0986 124.858 64.0968C125.884 64.0968 126.972 64.0968 128.04 64.0968C129.804 64.0733 131.553 64.4232 133.173 65.1233C134.68 65.8416 135.942 66.9879 136.802 68.4192C137.662 69.8505 138.081 71.5033 138.008 73.1714C137.993 75.0189 137.397 76.8149 136.304 78.3041C135.987 80.2483 135.017 82.0264 133.553 83.3444C133.193 83.6535 132.816 83.9414 132.423 84.2067C130.879 85.8715 128.795 86.9369 126.541 87.2144C124.396 87.3952 122.236 87.183 120.167 86.5882L119.14 86.2905C118.113 86.465 117.19 86.6806 116.214 86.8551C114.459 87.1733 112.673 87.43 110.907 87.5737C109.101 87.7293 107.287 87.7568 105.477 87.6558C103.937 87.5737 102.397 87.4402 100.868 87.4916C99.3381 87.5429 97.4903 87.6866 95.8068 87.7893L91.7007 83.5907C92.4193 83.5907 93.2097 83.5907 94.0001 83.5702Z" fill="#A92819"/>
<path d="M92.2035 67.9462L89.1752 71.3235L88.4053 71.1798C87.2248 70.9437 86.1162 70.7178 85.0691 70.5228L88.0871 67.1455L89.1136 67.3611L92.2035 67.9462Z" fill="#0F7657"/>
<path d="M89.1541 31.2326L82.9297 38.1431L84.7908 39.8194L91.0152 32.9089L89.1541 31.2326Z" fill="#4C8BCA"/>
<path d="M88.1178 190.987H85.613V200H88.1178V190.987Z" fill="#A92819"/>
<path d="M88.1178 189.735H85.613V190.987H88.1178V189.735Z" fill="#A92819"/>
<path d="M84.6572 76.3741L87.7368 79.5359H86.8848C85.5967 79.4372 84.3029 79.4372 83.0148 79.5359H82.6965L80.9104 77.7086L80.5511 77.3391C80.5504 76.9508 80.4986 76.5642 80.3971 76.1894C80.3971 76.0867 80.3355 75.9841 80.2944 75.8814L80.8693 75.2552L85.0678 70.5742C86.0944 70.7693 87.2236 70.9951 88.4041 71.2312L89.174 71.3749L84.6572 76.3741Z" fill="#0F7657"/>
<path d="M83.0045 79.4744C84.2926 79.3757 85.5864 79.3757 86.8745 79.4744H87.7266L91.6377 83.4984C89.9747 83.4984 88.3322 83.3958 86.6898 83.3137H86.4229L82.6863 79.5155L83.0045 79.4744Z" fill="#0F7657"/>
<path d="M80.4305 31.2372L74.2097 38.1509L76.0717 39.8262L82.2925 32.9125L80.4305 31.2372Z" fill="#4C8BCA"/>
<path d="M81.3329 190.987H78.8281V200H81.3329V190.987Z" fill="#A92819"/>
<path d="M81.3329 189.735H78.8281V190.987H81.3329V189.735Z" fill="#A92819"/>
<path d="M80.5435 77.3185L79.7325 76.487L80.2869 75.8608C80.2869 75.9635 80.3587 76.0661 80.3895 76.1688C80.4911 76.5436 80.5429 76.9302 80.5435 77.3185Z" fill="#0F7657"/>
<path d="M74.8233 85.757C75.5527 85.6791 76.2528 85.4279 76.8654 85.0243C77.4779 84.6207 77.985 84.0765 78.3443 83.437C78.5047 83.1693 78.6322 82.8832 78.7241 82.585L78.8781 82.4105C79.4941 81.636 79.8529 80.6886 79.9046 79.7004C80.3203 78.9759 80.5364 78.1541 80.5308 77.3188L80.8901 77.6884L82.6763 79.5156C82.064 79.6084 81.4752 79.8175 80.9414 80.1316C80.335 80.4981 79.8854 81.0757 79.6788 81.7535C79.4016 82.585 79.2579 83.8066 78.9397 85.4593C78.5527 87.3992 78.0661 89.3179 77.482 91.2079C76.8558 93.261 76.1065 95.1395 75.6958 96.8538C75.3313 98.33 75.1928 99.8529 75.2852 101.371C75.3512 102.637 75.7021 103.872 76.3118 104.984C77.0098 106.349 78.1801 108.064 79.4838 110.117C80.7875 112.17 82.2143 114.315 83.4359 116.276C84.6575 118.237 85.7046 120.084 86.69 121.973C87.6755 123.862 88.6405 125.843 89.2359 127.055C89.6804 127.74 90.0034 128.497 90.1905 129.292C90.2153 130.514 90.1501 131.735 89.9955 132.947C89.821 135.174 89.5849 138.829 89.3488 141.929C89.1127 145.029 88.9074 147.565 88.7021 149.371C88.4968 151.178 88.3222 152.246 88.2914 153.159C88.2237 153.951 88.3727 154.746 88.7226 155.459C89.0979 156.077 89.6242 156.589 90.2521 156.947C90.8988 157.368 91.6482 157.738 92.4489 158.2C93.2496 158.662 94.0914 159.226 94.8202 159.544C95.4477 159.795 96.0886 160.011 96.7398 160.191C97.2667 160.381 97.7752 160.618 98.2591 160.899C98.6018 161.071 98.8767 161.353 99.0393 161.7C99.1213 161.862 99.1436 162.047 99.1023 162.224C99.0609 162.4 98.9587 162.557 98.8134 162.665C98.1703 162.868 97.4953 162.952 96.822 162.911C95.7026 162.984 94.5789 162.953 93.4652 162.819C92.2026 162.634 90.8475 162.193 89.5336 162.049C88.4034 161.944 87.2643 161.989 86.146 162.183C85.3145 162.306 84.9347 162.419 84.4625 162.491C83.9403 162.579 83.409 162.6 82.8816 162.552C82.3443 162.535 81.8279 162.34 81.4136 161.998C81.2309 161.788 81.0966 161.54 81.0204 161.272C80.9441 161.004 80.9276 160.723 80.9722 160.448C81.082 159.726 81.322 159.03 81.6806 158.395C82.2136 157.586 82.5993 156.689 82.82 155.746C83.1722 153.791 83.2138 151.792 82.9432 149.823C82.6558 147.298 81.9167 144.29 81.5984 141.898C81.2607 139.968 81.2399 137.995 81.5368 136.057C81.8345 134.435 82.4197 132.978 81.9064 131.53C81.3931 130.083 79.7815 128.625 78.0158 126.726C76.2502 124.827 74.3408 122.507 72.5033 120.166C70.6658 117.826 68.9002 115.465 67.8531 114.069C66.806 112.673 66.4673 112.242 66.1696 112.108C65.8719 111.975 65.6358 112.108 64.9583 113.361C64.2808 114.613 63.1618 116.892 61.5912 119.52C59.9875 122.227 58.2186 124.832 56.2943 127.321C54.6005 129.467 53.2147 130.781 52.2498 132.126C51.3995 133.456 50.7103 134.883 50.1967 136.375C49.5277 138.121 48.7067 139.804 47.7433 141.405C46.3842 143.656 44.886 145.819 43.2573 147.883C41.7894 149.731 40.6499 150.87 39.7876 152.051C39.0252 153.09 38.4327 154.244 38.0322 155.469C37.7527 156.322 37.6377 157.221 37.6935 158.117C37.7965 158.955 37.8445 159.799 37.8372 160.643C37.8006 161.319 37.5727 161.97 37.1802 162.521C36.8517 162.911 36.4822 162.973 35.2914 162.983C34.1006 162.994 32.0783 162.983 30.5796 162.983C29.5907 163.058 28.5963 162.974 27.6334 162.737C27.1715 162.511 27.2331 162.049 27.5 161.608C27.9329 161 28.4398 160.448 29.009 159.965L31.7909 157.276C32.5863 156.574 33.2262 155.714 33.6695 154.75C34.3225 153.106 34.8744 151.422 35.3222 149.71C36.0613 147.246 37.0981 143.849 38.0938 141.169C38.8668 138.908 39.9591 136.768 41.3377 134.815C42.5359 133.292 43.8541 131.868 45.2796 130.555C46.3061 129.528 46.7783 129.025 47.6612 126.069C48.544 123.113 49.8682 117.754 51.3361 113.525C52.4216 110.185 53.9291 106.997 55.8221 104.04C57.2285 101.894 58.5732 100.621 59.2815 98.8145C59.9313 96.8303 60.1756 94.7358 60.0001 92.6553C59.9073 90.8819 59.6426 89.1217 59.2097 87.3994C58.8449 85.9584 58.3784 84.5451 57.8136 83.1701C57.5127 82.4392 57.1699 81.7263 56.7871 81.0349L58.7375 81.3429C60.2227 81.5663 61.6933 81.8782 63.1413 82.277C63.8573 82.4825 64.5464 82.7719 65.1944 83.1393C65.7282 83.4678 66.1183 83.8989 66.7137 84.2377C67.6498 84.7448 68.6741 85.0689 69.7317 85.1924C70.2244 85.254 70.7582 85.254 71.2509 85.3361C71.5589 85.3361 71.9285 85.5209 72.2775 85.603C73.1098 85.8075 73.9723 85.8597 74.8233 85.757V85.757Z" fill="#A92819"/>
<path d="M78.1196 73.1201C77.4492 72.6783 76.7201 72.3328 75.9536 72.0936C75.2659 71.8575 74.5473 71.6008 73.8287 71.4263C73.3337 71.3136 72.8274 71.2584 72.3197 71.2621H72.5763C73.6428 71.2381 74.7062 71.1386 75.7586 70.9644C77.0828 70.7283 78.6842 70.2663 80.0906 70.1124C81.4222 69.9953 82.7637 70.0714 84.0735 70.3382L85.1001 70.5024L80.84 75.2348L80.2651 75.861C79.8602 74.7421 79.1085 73.7818 78.1196 73.1201V73.1201Z" fill="#A92819"/>
<path d="M75.9339 76.3437C76.2524 76.5449 76.4973 76.8438 76.6319 77.1957C76.6622 77.3343 76.6574 77.4782 76.6179 77.6144C76.5785 77.7507 76.5057 77.8749 76.4061 77.9759C76.211 78.2017 75.9647 78.407 75.9133 78.6329C75.9106 78.8804 75.9487 79.1266 76.0263 79.3617C76.0421 79.4677 76.0346 79.5758 76.0045 79.6786C75.9744 79.7814 75.9222 79.8764 75.8517 79.9571C75.7126 80.0992 75.5653 80.2328 75.4103 80.3575C75.2743 80.4774 75.1837 80.6405 75.1537 80.8194C75.1224 81.0624 75.0603 81.3004 74.9689 81.5277C74.8991 81.6371 74.8038 81.7279 74.6912 81.7923C74.5785 81.8566 74.4519 81.8927 74.3222 81.8973C73.9431 81.9458 73.5587 81.9354 73.1828 81.8665C72.7824 81.7741 72.4129 81.6304 71.9406 81.5585C71.4684 81.4866 70.9141 81.4764 70.329 81.3943C69.7625 81.309 69.2164 81.1211 68.7173 80.8399C68.2759 80.5936 68.009 80.2343 67.3315 79.8134C66.3678 79.2458 65.3319 78.8107 64.2519 78.52C62.6481 78.0823 61.0199 77.7395 59.3758 77.4934C57.5178 77.1855 55.475 76.898 53.4733 76.549C51.4662 76.2276 49.4836 75.768 47.5399 75.1734C47.0369 75.0195 46.5133 74.845 46.0103 74.6602C44.6274 74.1717 43.2881 73.5673 42.0068 72.8535C40.9895 72.2081 40.0372 71.4656 39.1633 70.6362C38.4037 70.01 37.5722 69.548 37.408 68.9424C37.3824 68.7998 37.3824 68.6538 37.408 68.5112C37.5641 67.9785 37.8882 67.5104 38.3318 67.1767C38.8811 66.7612 39.5048 66.4545 40.1694 66.2734L40.929 66.0065H41.083C41.7605 65.8114 42.3559 65.6472 43.0847 65.4932C43.8373 65.3149 44.6133 65.256 45.3842 65.3187H45.4868C45.6235 65.3091 45.7607 65.3091 45.8974 65.3187C46.6133 65.4125 47.3204 65.5635 48.0121 65.7704C49.1388 66.0966 50.2402 66.5049 51.3073 66.992C52.5494 67.5566 53.9763 68.2751 55.7316 69.2811C57.487 70.2871 59.5504 71.5806 61.1107 72.4839C62.3236 73.2046 63.5981 73.816 64.9191 74.3112C66.1039 74.7436 67.333 75.0432 68.5839 75.2042C69.5534 75.2981 70.5297 75.2981 71.4992 75.2042C71.9814 75.1195 72.4747 75.1195 72.9569 75.2042C73.5414 75.3576 74.1171 75.5427 74.6815 75.7586C75.1227 75.8982 75.5437 76.0949 75.9339 76.3437V76.3437Z" fill="#A92819"/>
<path d="M74.548 190.987H72.0432V200H74.548V190.987Z" fill="#A92819"/>
<path d="M74.548 189.735H72.0432V190.987H74.548V189.735Z" fill="#A92819"/>
<path d="M70.8782 31.2381L64.6575 38.1519L66.5194 39.8272L72.7402 32.9135L70.8782 31.2381Z" fill="#4C8BCA"/>
<path d="M71.241 71.3546C71.6105 71.3546 71.9493 71.3032 72.2675 71.3032C71.8672 71.3238 71.5181 71.3546 71.241 71.3546Z" fill="white"/>
<path d="M69.0254 71.3749C68.0752 71.2456 67.1422 71.0115 66.2435 70.6769C65.1398 70.2576 64.0749 69.7424 63.0612 69.1371C62.5993 68.8805 62.1476 68.6136 61.6857 68.3364C62.3866 68.1758 63.0492 67.8794 63.6361 67.4638C64.2231 67.0235 64.7183 66.4725 65.0938 65.8419C65.4166 65.3442 65.5412 64.7435 65.4428 64.1584C65.2832 63.3928 65.053 62.6436 64.755 61.9205C64.4405 61.1195 64.1865 60.296 63.9954 59.4569C63.8232 58.5844 63.7339 57.6977 63.7285 56.8084C63.7037 56.0597 63.8258 55.3134 64.0878 54.6116C64.4169 53.9236 64.8772 53.3064 65.4428 52.7946C66.0113 52.1929 66.7151 51.7354 67.4959 51.4601C68.414 51.1667 69.3761 51.0347 70.3394 51.0701C71.4477 51.0721 72.5502 51.2311 73.614 51.5423C74.5564 51.856 75.4283 52.3512 76.1804 53C76.8197 53.5166 77.3001 54.2034 77.5662 54.9812C77.8809 55.9761 78.0198 57.0182 77.9768 58.0608C77.9212 59.3227 77.7702 60.5787 77.5251 61.8179C77.3095 62.9574 77.094 63.871 76.8476 64.723C76.6458 65.478 76.36 66.2079 75.9956 66.8992C75.7362 67.3923 75.3107 67.7777 74.7945 67.9874C74.3228 68.1056 73.8291 68.1056 73.3574 67.9874C72.8954 67.9155 72.4951 67.8231 72.1153 67.7718C71.9241 67.7122 71.7184 67.7194 71.5319 67.7922C71.3454 67.8649 71.1891 67.9989 71.0887 68.1722C70.8155 68.7946 70.6423 69.4563 70.5755 70.1328C70.4831 70.7385 70.4523 71.0773 70.7602 71.1594C70.9099 71.2057 71.0655 71.2299 71.2222 71.2312H71.1914C70.476 71.3511 69.7504 71.3992 69.0254 71.3749V71.3749Z" fill="#A92819"/>
<path d="M67.7601 190.987H65.2554V200H67.7601V190.987Z" fill="#A92819"/>
<path d="M67.7601 189.735H65.2554V190.987H67.7601V189.735Z" fill="#A92819"/>
<path d="M61.3085 31.2311L55.0841 38.1416L56.9452 39.8179L63.1696 32.9075L61.3085 31.2311Z" fill="#4C8BCA"/>
<path d="M61.5522 190.987H59.0475V200H61.5522V190.987Z" fill="#A92819"/>
<path d="M61.5522 189.735H59.0475V190.987H61.5522V189.735Z" fill="#A92819"/>
<path d="M56.8084 81.045C55.4841 80.8397 54.1599 80.6446 52.8357 80.4188C50.6549 80.0678 48.5009 79.567 46.389 78.92L45.5883 78.6531L44.7774 78.376C43.1397 77.81 41.5588 77.0917 40.0553 76.2305C38.8636 75.4709 37.7404 74.6088 36.6985 73.6539C35.4051 72.6274 34.2862 71.9396 33.7421 70.2663C33.7072 70.1763 33.6798 70.0836 33.66 69.9892C33.6587 69.9652 33.6587 69.9413 33.66 69.9173C33.6297 69.8274 33.6091 69.7345 33.5984 69.6401C33.5111 69.149 33.4904 68.6483 33.5368 68.1517C33.5368 68.0901 33.5368 68.0285 33.5368 67.9874C33.8149 66.4832 34.628 65.1304 35.826 64.179C36.7226 63.4761 37.7427 62.9469 38.8337 62.6186L39.6447 62.321L39.9629 62.2286C40.702 62.013 41.4514 61.8077 42.211 61.6537C43.3289 61.4053 44.4771 61.3223 45.6191 61.4073L46.3685 61.4792C47.2641 61.6012 48.1494 61.7899 49.0169 62.0438C50.3206 62.4287 51.5964 62.902 52.8357 63.4604C54.4635 64.2015 56.0532 65.0238 57.5988 65.9241C58.9436 66.7043 60.278 67.5358 61.6125 68.3262C61.5489 68.3481 61.4837 68.3652 61.4175 68.3775C60.7139 68.5091 59.9972 68.5573 59.2823 68.5212C58.6697 68.4947 58.0594 68.4296 57.4551 68.3262C56.5747 68.1991 55.7036 68.0139 54.8477 67.7719C53.8211 67.4742 52.6714 67.0225 51.1008 66.54C49.4744 66.0356 47.814 65.6479 46.1324 65.38H45.9373C45.8009 65.3653 45.6632 65.3653 45.5267 65.38H45.4241H45.2906C44.4438 65.3124 43.5917 65.3782 42.7653 65.5751C42.156 65.724 41.5562 65.9091 40.9689 66.1294C40.291 66.2918 39.6334 66.5293 39.0082 66.8377C38.3771 67.1216 37.86 67.6098 37.5403 68.2235C37.4891 68.355 37.4579 68.4934 37.4479 68.6341C37.4223 68.7767 37.4223 68.9227 37.4479 69.0653V69.0653C37.5023 69.3486 37.6337 69.6114 37.8277 69.8249C38.2281 70.2766 38.9056 70.5538 39.542 71.1286C40.5454 72.2242 41.7796 73.0833 43.1554 73.6436C43.9664 74.0029 44.9724 74.3827 46.0503 74.7831C48.1649 75.553 50.5568 76.3434 52.2095 77.0312C54.6732 78.0577 55.4225 78.879 56.0795 79.8645C56.3054 80.1724 56.562 80.5933 56.8084 81.045Z" fill="white"/>
<path d="M54.7644 190.987H52.2596V200H54.7644V190.987Z" fill="#A92819"/>
<path d="M54.7644 189.735H52.2596V190.987H54.7644V189.735Z" fill="#A92819"/>
<path d="M52.5323 31.461L46.301 38.3433L48.1545 40.0214L54.3858 33.1391L52.5323 31.461Z" fill="#4C8BCA"/>
<path d="M52.8364 80.419C54.1607 80.6448 55.4849 80.8398 56.8091 81.0451C57.192 81.7366 57.5348 82.4495 57.8357 83.1803C58.4004 84.5553 58.867 85.9687 59.2317 87.4097C59.6647 89.1319 59.9294 90.8921 60.0222 92.6655C60.1977 94.746 59.9533 96.8405 59.3036 98.8247C58.6056 100.631 57.2505 101.904 55.8544 104.091C53.9614 107.049 52.4539 110.236 51.3685 113.576C49.9005 117.805 48.5866 123.184 47.6935 126.12C46.8004 129.056 46.3487 129.59 45.3119 130.606C43.8864 131.919 42.5682 133.343 41.37 134.866C39.9914 136.819 38.8991 138.959 38.1262 141.221C37.0996 143.9 36.0731 147.298 35.3545 149.761C34.8947 151.457 34.3325 153.123 33.671 154.75C33.2157 155.677 32.5765 156.501 31.7924 157.173L29.0105 159.883C28.4413 160.366 27.9344 160.918 27.5015 161.526C27.2346 161.967 27.173 162.429 27.635 162.655C28.5813 162.909 29.5616 163.013 30.5401 162.963C32.0388 162.963 34.0611 162.963 35.2519 162.963C36.4426 162.963 36.8122 162.891 37.1407 162.501C37.5332 161.949 37.761 161.298 37.7977 160.622C37.8049 159.778 37.7569 158.935 37.654 158.097C37.5982 157.201 37.7132 156.302 37.9927 155.448C38.4017 154.218 39.0047 153.06 39.7789 152.02C40.6412 150.839 41.832 149.7 43.2486 147.852C44.8797 145.799 46.3813 143.646 47.7448 141.405C48.6917 139.795 49.4955 138.105 50.1469 136.355C50.6605 134.862 51.3497 133.435 52.2 132.105C53.2265 130.76 54.5507 129.446 56.2445 127.301C58.1688 124.812 59.9377 122.206 61.5414 119.499C63.112 116.851 64.231 114.541 64.9085 113.34C65.586 112.139 65.8324 111.954 66.1198 112.088C66.4072 112.221 66.7563 112.652 67.8033 114.048C68.8504 115.444 70.616 117.795 72.4535 120.146C74.291 122.497 76.2004 124.817 77.966 126.705C79.7317 128.594 81.3536 130.062 81.8566 131.51C82.3596 132.957 81.7847 134.415 81.487 136.037C81.1901 137.974 81.2109 139.947 81.5486 141.878C81.8977 144.269 82.5752 147.277 82.8934 149.803C83.164 151.771 83.1224 153.77 82.7702 155.726C82.5495 156.669 82.1638 157.565 81.6308 158.374C81.2723 159.01 81.0323 159.706 80.9224 160.427C80.8779 160.702 80.8943 160.983 80.9706 161.251C81.0468 161.519 81.1811 161.767 81.3639 161.977C81.7781 162.32 82.2945 162.515 82.8318 162.532C83.3592 162.579 83.8906 162.558 84.4127 162.47C84.8849 162.398 85.2647 162.285 86.0962 162.162C87.2145 161.968 88.3536 161.923 89.4838 162.029C90.7977 162.172 92.1527 162.614 93.4154 162.798C94.5291 162.933 95.6528 162.964 96.7722 162.891C97.4455 162.931 98.1205 162.848 98.7636 162.644C98.9089 162.536 99.0111 162.38 99.0525 162.203C99.0938 162.027 99.0715 161.841 98.9895 161.68C98.8269 161.333 98.552 161.05 98.2093 160.879C97.7254 160.597 97.2169 160.36 96.69 160.171C96.0388 159.99 95.3979 159.774 94.7704 159.524C94.0416 159.185 93.1896 158.631 92.3991 158.179C91.6087 157.727 90.8491 157.348 90.2023 156.927C89.5744 156.568 89.0481 156.056 88.6728 155.438C88.3229 154.725 88.1739 153.93 88.2416 153.139C88.2416 152.225 88.4572 151.158 88.6523 149.351C88.8473 147.544 89.0731 144.998 89.299 141.908C89.5248 138.819 89.7712 135.154 89.9457 132.926C90.1003 131.715 90.1655 130.493 90.1407 129.272C89.9536 128.477 89.6306 127.719 89.1861 127.034C88.5907 125.823 87.636 123.841 86.6403 121.953C85.6445 120.064 84.5872 118.267 83.3861 116.255C82.1851 114.243 80.7274 112.036 79.434 110.096C78.1405 108.156 76.96 106.38 76.262 104.963C75.6523 103.852 75.3014 102.616 75.2354 101.35C75.1652 99.8361 75.3244 98.3202 75.7076 96.8538C76.1183 95.1395 76.8676 93.2096 77.4938 91.2078C78.0779 89.3179 78.5645 87.3992 78.9515 85.4593C79.2697 83.8065 79.4134 82.5849 79.6906 81.7535C79.8972 81.0757 80.3468 80.4981 80.9532 80.1315C81.487 79.8175 82.0758 79.6084 82.6881 79.5156L86.4247 83.3651C85.4373 83.2884 84.4454 83.2884 83.458 83.3651H83.2732C83.0576 84.2069 82.9242 85.4182 82.7599 86.1984C82.3632 88.2798 81.8457 90.3363 81.2099 92.3576C80.6555 94.154 79.9164 95.971 79.4853 97.7674C79.2193 98.8514 79.1156 99.9687 79.1773 101.083C79.2051 101.804 79.4058 102.509 79.7625 103.136C80.5837 104.727 81.7437 106.349 82.7291 107.858C84.0944 109.911 85.4392 112.047 86.7429 114.171C87.9337 116.101 89.0731 118.072 90.1202 120.084C91.0133 121.778 91.8448 123.503 92.7071 125.217C93.3569 126.287 93.8057 127.466 94.0313 128.697C94.1149 130.187 94.0599 131.682 93.8671 133.162C93.631 136.15 93.4359 139.147 93.2203 142.124C93.0356 144.649 92.8405 147.195 92.5634 149.71C92.4402 150.839 92.2143 152.102 92.1733 153.221C92.1681 153.306 92.1681 153.392 92.1733 153.478C92.2266 153.522 92.2852 153.56 92.3478 153.59C92.9842 154.011 93.7028 154.36 94.4009 154.74C95.0989 155.12 95.7662 155.602 96.4539 155.921C96.9613 156.116 97.4787 156.284 98.004 156.424C98.8223 156.707 99.6071 157.079 100.345 157.532C101.415 158.134 102.248 159.083 102.706 160.222C103.126 161.234 103.174 162.363 102.839 163.406C102.504 164.45 101.809 165.341 100.878 165.919C99.6814 166.544 98.3346 166.825 96.9877 166.73C95.6386 166.812 94.2848 166.771 92.9432 166.607C91.6703 166.412 90.3871 165.991 89.1553 165.858C88.3637 165.789 87.5666 165.823 86.784 165.96C86.2296 166.042 85.6856 166.176 85.1312 166.268C84.2727 166.407 83.4003 166.438 82.5341 166.361C81.1018 166.266 79.7475 165.674 78.7051 164.687C78.1171 164.072 77.6723 163.334 77.4026 162.526C77.1329 161.719 77.0448 160.862 77.1448 160.017C77.2964 158.768 77.6904 157.562 78.3048 156.465C78.6522 155.97 78.9093 155.417 79.0644 154.833C79.321 153.298 79.3417 151.733 79.126 150.193C78.7873 147.565 78.12 144.988 77.7607 142.432C77.3604 140.053 77.3604 137.625 77.7607 135.246C77.8531 134.733 78.3048 133.07 78.2945 132.731C77.3649 131.495 76.3349 130.338 75.2149 129.272C73.1618 127.106 71.3038 124.776 69.4868 122.456C68.4603 121.183 67.5159 119.9 66.5304 118.616C66.0377 119.551 65.5039 120.485 64.9803 121.419C63.2975 124.276 61.4286 127.019 59.3857 129.631C58.1641 131.181 56.5833 132.711 55.4746 134.292C54.788 135.362 54.2299 136.509 53.8116 137.71C53.0496 139.662 52.1331 141.55 51.0708 143.356C49.6255 145.764 48.0241 148.076 46.2769 150.275C45.2503 151.619 43.9056 152.933 42.9098 154.309C42.3938 155.009 41.9887 155.785 41.7088 156.608C41.5716 157.011 41.5191 157.437 41.5548 157.861C41.6674 158.883 41.712 159.912 41.6882 160.94C41.5985 162.438 41.0502 163.871 40.1176 165.047C38.8139 166.607 37.2433 166.864 35.3135 166.894C33.7121 166.894 32.1107 166.894 30.499 166.894C28.9261 167.024 27.3442 166.799 25.8693 166.237C25.2936 165.949 24.7856 165.542 24.3789 165.043C23.9722 164.544 23.676 163.965 23.5101 163.343C23.3442 162.721 23.3122 162.07 23.4163 161.435C23.5204 160.8 23.7582 160.194 24.1139 159.657C24.7203 158.738 25.449 157.906 26.2799 157.183C27.2038 156.3 28.1174 155.407 29.0311 154.514C29.4664 154.15 29.8347 153.712 30.1192 153.221C30.7065 151.73 31.1901 150.2 31.5666 148.643C32.4392 145.696 33.3528 142.719 34.4204 139.845C35.3229 137.242 36.5914 134.781 38.1878 132.536C39.5073 130.849 40.9593 129.27 42.53 127.814C43.2846 127.039 43.7796 126.049 43.9466 124.981C45.2195 120.752 46.2153 116.481 47.6524 112.293C48.855 108.641 50.5104 105.155 52.5798 101.915C53.4215 100.662 55.1256 98.7221 55.6594 97.3876C56.0923 95.9132 56.2455 94.3708 56.1111 92.84C56.0343 91.326 55.8074 89.8233 55.4336 88.3541C55.1182 87.0916 54.7134 85.8532 54.2222 84.6483C53.85 83.6967 53.3822 82.7852 52.8262 81.928C52.2642 81.2521 51.5138 80.7589 50.6704 80.5113C49.0177 79.8133 47.2931 79.259 45.5891 78.6533L46.3898 78.9202C48.5017 79.5672 50.6557 80.068 52.8364 80.419V80.419Z" fill="white"/>
<path d="M57.6696 65.9346C56.1241 65.0343 54.5344 64.212 52.9065 63.4709C51.6673 62.9125 50.3914 62.4392 49.0878 62.0543C48.2203 61.8004 47.335 61.6117 46.4393 61.4897H46.5728C48.4755 61.7778 50.3529 62.2137 52.1879 62.7934C53.43 63.1732 54.6516 63.6454 55.8835 64.0047C56.5758 64.2068 57.2828 64.3543 57.9981 64.4461C58.4637 64.5256 58.9331 64.5804 59.4045 64.6104C59.8465 64.6396 60.2903 64.6224 60.7287 64.559C60.9469 64.5249 61.1543 64.4406 61.3344 64.3127L61.4678 64.1997C61.3549 63.861 61.2009 63.5017 61.1085 63.2451C60.739 62.2888 60.4372 61.3077 60.2052 60.3092C59.9679 59.1747 59.8475 58.019 59.8459 56.86C59.8073 55.5817 60.0345 54.3093 60.5131 53.1234C61.0133 51.9678 61.7352 50.9215 62.6381 50.0438C63.6137 49.0392 64.8031 48.2672 66.118 47.7854C67.497 47.3453 68.9418 47.1473 70.3884 47.2003C71.8958 47.1996 73.3946 47.4281 74.8333 47.8778C76.2587 48.3399 77.5803 49.0756 78.7239 50.0438C79.8748 51.0039 80.741 52.2606 81.2286 53.6777C81.7244 55.1508 81.9403 56.7036 81.8651 58.2561C81.8091 59.7255 81.634 61.188 81.3416 62.6291C81.1443 63.7363 80.8908 64.8327 80.5819 65.9141C80.5819 66.027 80.5101 66.1296 80.4793 66.2425C81.8965 66.1905 83.3151 66.2972 84.7086 66.5608C85.8378 66.7455 86.967 66.9611 88.0859 67.187L85.0679 70.5745L84.0413 70.4103C82.7315 70.1434 81.39 70.0674 80.0584 70.1844C78.652 70.3384 77.0506 70.8004 75.7264 71.0365C74.674 71.2107 73.6106 71.3102 72.5441 71.3342H72.2875C71.959 71.3342 71.6203 71.3342 71.261 71.3855C71.1043 71.3841 70.9487 71.3599 70.799 71.3136C70.4911 71.1802 70.5219 70.8414 70.6143 70.2871C70.6811 69.6106 70.8543 68.9489 71.1275 68.3264C71.2279 68.1532 71.3841 68.0192 71.5707 67.9464C71.7572 67.8737 71.9629 67.8665 72.1541 67.9261C72.5339 67.9261 72.9342 68.0698 73.3962 68.1416C73.8679 68.2598 74.3616 68.2598 74.8333 68.1416C75.3495 67.932 75.7749 67.5466 76.0344 67.0535C76.3988 66.3622 76.6846 65.6322 76.8864 64.8773C77.1328 64.0355 77.3483 63.1116 77.5639 61.9722C77.809 60.733 77.96 59.477 78.0156 58.215C78.0586 57.1724 77.9197 56.1303 77.605 55.1354C77.3389 54.3577 76.8585 53.6709 76.2191 53.1542C75.4786 52.4577 74.606 51.9166 73.6528 51.5631C72.5768 51.2411 71.4602 51.0752 70.3371 51.0703C69.3477 51.0187 68.357 51.1438 67.4115 51.4399C66.6307 51.7151 65.9269 52.1726 65.3584 52.7744C64.8149 53.2917 64.3758 53.9085 64.065 54.5914C63.8029 55.2932 63.6809 56.0395 63.7057 56.7881C63.7111 57.6774 63.8004 58.5642 63.9726 59.4366C64.1637 60.2757 64.4177 61.0992 64.7322 61.9003C65.0384 62.6293 65.2755 63.3854 65.4405 64.1587C65.5359 64.745 65.4076 65.3458 65.0812 65.8422C64.7121 66.4829 64.2202 67.0445 63.6338 67.4949C63.0469 67.9104 62.3843 68.2069 61.6834 68.3675C60.3078 67.5462 59.0144 66.7148 57.6696 65.9346Z" fill="white"/>
<path d="M54.7965 67.7512C55.6525 67.9933 56.5235 68.1784 57.4039 68.3055C58.0248 68.418 58.6523 68.49 59.2825 68.5211C60.037 68.5774 60.7957 68.5394 61.5408 68.4082C61.607 68.3959 61.6722 68.3788 61.7359 68.3569C62.1978 68.634 62.6495 68.9009 63.1114 69.1576C64.1252 69.7628 65.19 70.2781 66.2937 70.6974C67.1924 71.032 68.1254 71.2661 69.0756 71.3954C69.7958 71.4673 70.5214 71.4673 71.2416 71.3954H71.2929C71.5701 71.3954 71.9191 71.3954 72.3195 71.3441C72.8271 71.3404 73.3335 71.3956 73.8285 71.5083C74.5471 71.6829 75.2656 71.9395 75.9534 72.1756C76.7199 72.4148 77.449 72.7603 78.1194 73.2021C79.1159 73.8606 79.8751 74.8212 80.2854 75.943L79.7311 76.5692L80.542 77.4007C80.5476 78.2359 80.3315 79.0577 79.9158 79.7822C79.8641 80.7704 79.5053 81.7178 78.8893 82.4923L78.7353 82.6668C78.6434 82.965 78.5159 83.2511 78.3555 83.5188C77.9962 84.1583 77.4891 84.7025 76.8766 85.1061C76.264 85.5097 75.5639 85.7609 74.8345 85.8388C73.9977 85.9399 73.1495 85.8912 72.3297 85.6951C72.0115 85.6129 71.642 85.4795 71.3032 85.4282C70.8105 85.346 70.2767 85.346 69.7839 85.2845C68.7264 85.1609 67.7021 84.8369 66.7659 84.3298C66.1705 83.991 65.7394 83.5599 65.2466 83.2314C64.5987 82.864 63.9095 82.5745 63.1936 82.3691C61.7455 81.9703 60.275 81.6584 58.7897 81.4349L56.8393 81.127C56.5929 80.6753 56.3363 80.2544 56.0694 79.8541C55.4124 78.8275 54.6631 78.0576 52.1994 77.0208C50.5672 76.3331 48.1753 75.5426 46.0402 74.7727C46.5432 74.9575 47.0667 75.132 47.5697 75.286C49.5135 75.8806 51.496 76.3402 53.5031 76.6615C55.5561 77.0106 57.5476 77.298 59.4057 77.606C61.0498 77.852 62.6779 78.1948 64.2817 78.6325C65.3617 78.9233 66.3976 79.3583 67.3613 79.9259C68.0388 80.3365 68.3057 80.6958 68.7471 80.9525C69.2517 81.2051 69.7976 81.3651 70.3588 81.4247C70.9337 81.5068 71.4982 81.5171 71.9705 81.5889C72.4427 81.6608 72.8122 81.8045 73.2126 81.8969C73.5859 81.983 73.9702 82.0107 74.352 81.979C74.4817 81.9744 74.6083 81.9384 74.721 81.874C74.8336 81.8096 74.9289 81.7188 74.9987 81.6095C75.0902 81.3822 75.1522 81.1441 75.1835 80.9011C75.2135 80.7223 75.3041 80.5592 75.4401 80.4392C75.5951 80.3146 75.7425 80.1809 75.8816 80.0389C75.9521 79.9582 76.0042 79.8632 76.0343 79.7604C76.0644 79.6575 76.0719 79.5494 76.0561 79.4435C75.9786 79.2084 75.9404 78.9621 75.9432 78.7146C75.9432 78.4888 76.2408 78.2835 76.4359 78.0576C76.5355 77.9567 76.6083 77.8324 76.6477 77.6962C76.6872 77.56 76.692 77.416 76.6617 77.2775C76.5271 76.9256 76.2822 76.6266 75.9637 76.4254C75.565 76.167 75.1334 75.9633 74.6805 75.8198C74.1161 75.6039 73.5404 75.4188 72.9559 75.2655C72.4737 75.1807 71.9804 75.1807 71.4982 75.2655C70.5287 75.3594 69.5524 75.3594 68.5829 75.2655C67.332 75.1044 66.1029 74.8048 64.9182 74.3724C63.5971 73.8772 62.3226 73.2658 61.1097 72.5451C59.5494 71.6418 57.4758 70.3484 55.7307 69.3423C53.9855 68.3363 52.5484 67.6178 51.3063 67.0532C50.2334 66.5547 49.1251 66.1361 47.9906 65.8008C47.319 65.5971 46.6326 65.4461 45.9375 65.3491H46.112C47.7904 65.6209 49.4474 66.012 51.0702 66.5194C52.6202 67.0018 53.77 67.4946 54.7965 67.7512Z" fill="white"/>
<path d="M47.9795 190.987H45.4747V200H47.9795V190.987Z" fill="#A92819"/>
<path d="M47.9795 189.735H45.4747V190.987H47.9795V189.735Z" fill="#A92819"/>
<path d="M45.9365 65.3494C45.7998 65.3398 45.6626 65.3398 45.5259 65.3494C45.6624 65.3347 45.8 65.3347 45.9365 65.3494V65.3494Z" fill="white"/>
<path d="M43.8506 31.2326L37.6262 38.1431L39.4873 39.8194L45.7117 32.9089L43.8506 31.2326Z" fill="#4C8BCA"/>
<path d="M45.692 61.4177C44.55 61.3326 43.4017 61.4157 42.2839 61.6641C41.5242 61.8181 40.7749 62.0234 40.0358 62.2389L39.7175 62.3313C40.4092 62.0748 41.1153 61.8589 41.8322 61.6846C43.0384 61.399 44.2816 61.3021 45.5175 61.3972L45.692 61.4177Z" fill="white"/>
<path d="M43.0932 65.4415C42.3644 65.5955 41.769 65.7597 41.0915 65.9548H40.9375C41.5256 65.7483 42.1255 65.577 42.7339 65.4415C43.5603 65.2446 44.4124 65.1788 45.2592 65.2465H45.3927C44.6207 65.1905 43.8447 65.2563 43.0932 65.4415V65.4415Z" fill="#050007"/>
<path d="M41.1947 190.987H38.6899V200H41.1947V190.987Z" fill="#A92819"/>
<path d="M41.1947 189.735H38.6899V190.987H41.1947V189.735Z" fill="#A92819"/>
<path d="M40.9369 66.0269L40.1773 66.2938C39.5128 66.4749 38.8891 66.7816 38.3398 67.1971C37.8961 67.5308 37.572 67.9989 37.4159 68.5316C37.4259 68.3909 37.4571 68.2525 37.5083 68.121C37.828 67.5072 38.3451 67.0191 38.9762 66.7352C39.6014 66.4268 40.259 66.1892 40.9369 66.0269Z" fill="white"/>
<path d="M39.6655 62.3618L38.8545 62.6595C37.7635 62.9878 36.7434 63.5169 35.8468 64.2198C34.6489 65.1712 33.8357 66.524 33.5576 68.0283C33.6071 67.562 33.7247 67.1054 33.9066 66.6733C34.5626 65.1969 35.7237 64.003 37.1813 63.3062C37.9742 62.9058 38.8068 62.5893 39.6655 62.3618V62.3618Z" fill="white"/>
<path d="M42.0267 72.8843C43.3083 73.5946 44.6476 74.1955 46.0302 74.6807C44.9524 74.2803 43.9772 73.9005 43.1354 73.5412C41.7595 72.9809 40.5253 72.1218 39.522 71.0262C38.8855 70.4514 38.208 70.1742 37.8077 69.7225C37.6137 69.509 37.4823 69.2462 37.4279 68.9629C37.5921 69.5685 38.4544 69.9894 39.1832 70.6567C40.0566 71.4896 41.0089 72.2357 42.0267 72.8843Z" fill="white"/>
<path d="M35.0504 31.399L28.8191 38.2812L30.6726 39.9594L36.9039 33.0771L35.0504 31.399Z" fill="#4C8BCA"/>
<path d="M35.1573 72.6274C35.7733 73.2126 36.3276 73.4281 36.9127 73.9517C38.2353 75.3022 39.8077 76.3829 41.5424 77.1339C42.5689 77.6061 43.6878 78.0168 44.776 78.4068L45.5869 78.684C47.291 79.2897 49.0053 79.8543 50.658 80.5523C51.5014 80.7999 52.2518 81.2931 52.8138 81.9689C53.3698 82.8262 53.8376 83.7376 54.2098 84.6892C54.701 85.8942 55.1058 87.1326 55.4212 88.395C55.795 89.8642 56.0219 91.3669 56.0987 92.881C56.2331 94.4118 56.0799 95.9541 55.647 97.4286C55.1235 98.7631 53.4194 100.703 52.5674 101.956C50.498 105.196 48.8426 108.682 47.64 112.334C46.2029 116.522 45.2071 120.793 43.9342 125.022C43.7738 126.083 43.2898 127.069 42.5484 127.845C40.9777 129.301 39.5257 130.88 38.2061 132.567C36.6098 134.812 35.3413 137.273 34.4388 139.876C33.4122 142.75 32.4575 145.727 31.585 148.673C31.2049 150.203 30.7213 151.705 30.1376 153.169C29.8531 153.661 29.4848 154.099 29.0494 154.463C28.1358 155.356 27.2222 156.249 26.2983 157.132C25.4674 157.854 24.7387 158.687 24.1323 159.606C23.7766 160.142 23.5388 160.748 23.4347 161.384C23.3306 162.019 23.3626 162.669 23.5285 163.291C23.6944 163.913 23.9905 164.493 24.3973 164.992C24.804 165.491 25.312 165.898 25.8877 166.186C27.3626 166.748 28.9445 166.972 30.5174 166.843C32.1291 166.843 33.7304 166.894 35.3318 166.843C37.2617 166.843 38.8323 166.555 40.136 164.995C41.0685 163.82 41.6169 162.386 41.7066 160.889C41.7304 159.861 41.6858 158.832 41.5732 157.809C41.5375 157.386 41.59 156.959 41.7272 156.557C42.007 155.733 42.4121 154.958 42.9282 154.258C43.9547 152.882 45.2174 151.568 46.2952 150.223C48.0336 148.04 49.6281 145.746 51.0686 143.356C52.1009 141.56 52.9899 139.686 53.7274 137.751C54.1456 136.55 54.7038 135.403 55.3904 134.333C56.499 132.762 58.0799 131.253 59.3015 129.672C61.3443 127.06 63.2132 124.317 64.8961 121.46C65.4401 120.526 65.9226 119.591 66.4462 118.657C67.4727 119.94 68.4068 121.224 69.4026 122.497C71.2195 124.817 73.1084 127.147 75.1306 129.313C76.2506 130.379 77.2807 131.536 78.2103 132.772C78.2103 133.111 77.7688 134.774 77.6765 135.287C77.3079 137.657 77.3357 140.071 77.7586 142.432C78.1384 145.039 78.7851 147.626 79.0931 150.244C79.3088 151.785 79.288 153.349 79.0315 154.884C78.8764 155.468 78.6192 156.021 78.2718 156.516C77.6575 157.613 77.2634 158.82 77.1119 160.068C77.0119 160.913 77.0999 161.77 77.3697 162.578C77.6394 163.385 78.0842 164.123 78.6722 164.739C79.7145 165.725 81.0689 166.317 82.5012 166.412C83.3674 166.489 84.2398 166.458 85.0983 166.319C85.6526 166.227 86.1967 166.094 86.751 166.011C87.5337 165.875 88.3308 165.84 89.1223 165.909C90.3542 166.042 91.6373 166.463 92.9103 166.658C94.2519 166.822 95.6057 166.864 96.9548 166.781C98.3017 166.876 99.6485 166.595 100.845 165.97C101.776 165.392 102.471 164.501 102.806 163.458C103.141 162.414 103.093 161.285 102.673 160.273C102.215 159.134 101.382 158.185 100.312 157.584C99.583 157.139 98.8087 156.774 98.0019 156.495C97.4766 156.356 96.9591 156.188 96.4518 155.992C95.764 155.674 95.0557 155.192 94.3987 154.812C93.7417 154.432 93.0026 154.083 92.3457 153.662C92.283 153.632 92.2244 153.594 92.1711 153.549C92.166 153.464 92.166 153.378 92.1711 153.293C92.1711 152.174 92.438 150.911 92.5612 149.782C92.8384 147.267 93.0334 144.721 93.2182 142.196C93.4338 139.219 93.6288 136.221 93.8649 133.234C94.0578 131.754 94.1128 130.259 94.0292 128.769C93.8036 127.538 93.3548 126.358 92.7049 125.289C91.8426 123.574 91.0112 121.85 90.1181 120.156C89.0915 118.103 87.9315 116.173 86.7408 114.243C85.4371 112.118 84.0923 110.014 82.727 107.93C81.7005 106.421 80.5815 104.85 79.7603 103.208C79.4037 102.58 79.203 101.876 79.1752 101.155C79.1134 100.04 79.2172 98.9231 79.4832 97.8392C79.9143 96.0427 80.6534 94.2258 81.2077 92.4293C81.8435 90.4081 82.3611 88.3515 82.7578 86.2701C82.9221 85.5002 83.0555 84.2786 83.2711 83.4369H83.4559C84.4433 83.3602 85.4351 83.3602 86.4225 83.4369L90.734 87.8818C89.3276 87.8818 87.9213 87.7688 86.5149 87.7073C86.1026 89.7938 85.5783 91.8567 84.9443 93.887C84.4208 95.5808 83.7022 97.3464 83.2916 99.0197C83.1129 99.7235 83.0402 100.45 83.076 101.175C83.0654 101.25 83.0654 101.326 83.076 101.401C83.1134 101.512 83.1615 101.618 83.2197 101.719C84.0617 103.226 84.98 104.689 85.9709 106.103C87.367 108.228 88.7425 110.363 90.077 112.529C91.2986 114.582 92.4791 116.573 93.5775 118.688C94.4809 120.402 95.3123 122.148 96.1849 123.872C97.0434 125.33 97.6246 126.935 97.8992 128.604C98.0308 130.36 97.9826 132.125 97.7555 133.871C97.5194 136.858 97.3244 139.835 97.1088 142.832C96.9137 145.399 96.729 147.965 96.4415 150.552C96.4415 150.921 96.3389 151.332 96.2773 151.753C96.8316 152.071 97.4578 152.502 97.9608 152.779C98.4638 153.057 98.782 153.026 99.1926 153.169C100.271 153.533 101.304 154.019 102.272 154.617C104.061 155.668 105.45 157.281 106.224 159.205C106.974 161.072 107.04 163.143 106.411 165.053C105.781 166.963 104.497 168.59 102.786 169.645C101.031 170.638 99.0307 171.115 97.0164 171.021C95.4267 171.112 93.8321 171.053 92.2533 170.846C91.0522 170.672 89.7588 170.251 88.6091 170.118C88.1591 170.089 87.7074 170.116 87.2643 170.2C86.7202 170.292 86.2378 170.415 85.6424 170.508C84.4555 170.708 83.2473 170.749 82.0495 170.631C79.7316 170.447 77.5518 169.455 75.8903 167.828C74.8923 166.813 74.1331 165.587 73.6678 164.241C73.2026 162.895 73.0431 161.463 73.2008 160.047C73.3974 158.275 73.949 156.561 74.8227 155.007C74.9459 154.781 75.0793 154.555 75.2128 154.329C75.3616 153.236 75.3616 152.128 75.2128 151.034C74.9253 148.478 74.2786 145.902 73.8988 143.346C73.4471 140.578 73.4471 137.757 73.8988 134.99C73.8988 134.712 74.0117 134.435 74.0836 134.148C73.4985 133.511 72.8004 132.865 72.3385 132.362C70.4496 130.309 68.6737 128.184 66.9594 126.018C65.5568 128.251 64.0389 130.409 62.4119 132.485C61.2416 133.963 59.6607 135.503 58.6137 136.981C58.1179 137.801 57.7117 138.671 57.4024 139.578C56.5899 141.706 55.6082 143.766 54.4665 145.737C52.9208 148.305 51.2062 150.767 49.3338 153.108C48.3073 154.412 47.0138 155.705 46.0591 157.019C45.8054 157.367 45.5983 157.746 45.4432 158.148C45.5725 159.303 45.6136 160.467 45.5664 161.628C45.4143 163.928 44.5577 166.125 43.113 167.921C41.0599 170.384 38.473 171.113 35.3626 171.154C33.751 171.154 32.1085 171.154 30.4763 171.154C28.2282 171.154 26.2265 171.154 24.1323 170.128C23.0808 169.602 22.1509 168.862 21.4025 167.955C20.654 167.049 20.1036 165.995 19.7865 164.863C19.4694 163.731 19.3926 162.545 19.5612 161.382C19.7298 160.218 20.1399 159.103 20.7653 158.107C21.5448 156.871 22.4991 155.754 23.5985 154.791C24.5122 153.909 25.4155 153.036 26.3189 152.143L26.6884 151.784C27.1401 150.757 27.5302 149.074 27.8484 148.016C28.7517 144.998 29.6859 141.939 30.7843 138.983C31.8097 136.033 33.2548 133.246 35.0752 130.709C36.5137 128.872 38.0998 127.155 39.8178 125.576C39.9718 125.196 40.095 124.745 40.1976 124.406C41.4911 120.136 42.4868 115.824 43.9445 111.584C45.2516 107.608 47.0591 103.813 49.3235 100.293C50.2804 99.0728 51.1747 97.8051 52.0028 96.4944C52.2115 95.5306 52.2772 94.5414 52.1978 93.5585C52.1336 92.2974 51.9445 91.0457 51.6332 89.8219C51.3592 88.7404 51.0163 87.6775 50.6067 86.6397C50.3587 86.0393 50.0706 85.4563 49.7444 84.8945C49.5443 84.791 49.3387 84.6984 49.1285 84.6174C46.131 83.3445 42.9693 82.5027 39.941 81.158C37.8699 80.2661 35.9858 78.9914 34.3874 77.4008C34.1 77.2058 33.8331 77.021 33.5765 76.826H34.7057C35.0034 76.826 35.2395 75.9432 35.2395 74.8653C35.2395 73.7874 35.0034 72.9149 34.7057 72.9149L35.1573 72.6274Z" fill="#A92819"/>
<path d="M34.7169 72.7607C35.0146 72.7607 35.2507 73.6333 35.2507 74.7112C35.2507 75.789 35.0146 76.6718 34.7169 76.6718H33.6185C33.0362 76.2653 32.5024 75.7934 32.0274 75.2655C31.3765 74.5328 30.8463 73.7011 30.4568 72.8018L34.7169 72.7607Z" fill="#A92819"/>
<path d="M36.9134 73.9206C36.3283 73.3971 35.774 73.1815 35.1581 72.5964L34.9014 72.3192C34.3756 71.7267 33.9866 71.0258 33.762 70.2661C34.306 71.9599 35.425 72.6271 36.6979 73.6537C37.734 74.6005 38.8503 75.4557 40.0341 76.2098C41.5376 77.0709 43.1185 77.7892 44.7562 78.3552C43.668 77.9651 42.5799 77.5545 41.5226 77.0823C39.7969 76.3351 38.2318 75.2615 36.9134 73.9206V73.9206Z" fill="white"/>
<path d="M34.7172 72.7606L30.4263 72.8119C29.9211 71.6702 29.6499 70.4387 29.6288 69.1904C29.6076 67.9421 29.8369 66.7022 30.3031 65.544C31.3115 63.2226 33.1075 61.3321 35.3742 60.206C36.5242 59.6313 37.732 59.1805 38.9773 58.8613C39.8088 58.6252 40.6403 58.3993 41.4821 58.2248C43.3163 57.8249 45.2068 57.7519 47.0664 58.0092C49.1835 58.3173 51.2712 58.8015 53.3078 59.4566C54.3343 59.7441 55.2479 60.0931 56.2129 60.4113C56.0484 59.3584 55.9626 58.2947 55.9562 57.2291C55.9133 55.4566 56.2408 53.6948 56.9179 52.0562C57.5949 50.4176 58.6064 48.9383 59.8879 47.7131C61.2715 46.2945 62.9601 45.2097 64.8255 44.5411C66.6378 43.9394 68.5425 43.6648 70.4509 43.7301C72.3492 43.7366 74.2355 44.0308 76.0456 44.6027C77.9591 45.2308 79.7308 46.2283 81.2604 47.5386C82.9353 48.9223 84.2081 50.7303 84.9456 52.7739C85.5816 54.6779 85.8702 56.6807 85.7976 58.6867C85.743 60.1469 85.5852 61.6014 85.3254 63.0393H85.387C86.9166 63.2959 88.4666 63.5936 89.9448 63.9016L90.8687 64.0761L88.1279 67.1557C87.009 66.9298 85.8798 66.7143 84.7506 66.5295C83.3571 66.2659 81.9385 66.1592 80.5212 66.2113C80.5212 66.0983 80.5828 65.9957 80.6239 65.8828C80.9328 64.8014 81.1863 63.705 81.3835 62.5979C81.6605 61.1657 81.8219 59.7136 81.866 58.2556C81.9323 56.7271 81.7165 55.1995 81.2296 53.7491C80.7536 52.3059 79.8865 51.023 78.7248 50.0433C77.5838 49.0641 76.2621 48.3178 74.8342 47.8465C73.3955 47.3968 71.8967 47.1683 70.3893 47.169C68.9428 47.116 67.4979 47.314 66.119 47.7541C64.8011 48.2449 63.6114 49.0275 62.639 50.0433C61.7361 50.921 61.0142 51.9673 60.5141 53.1229C60.041 54.2961 59.8139 55.5539 59.8468 56.8185C59.8456 57.9912 59.966 59.1608 60.2061 60.3087C60.4353 61.3281 60.7372 62.3298 61.1094 63.3062C61.2018 63.5628 61.3558 63.9221 61.4687 64.2608L61.3353 64.3738C61.1552 64.5017 60.9479 64.586 60.7296 64.6201C60.2912 64.6835 59.8474 64.7007 59.4054 64.6715C58.9324 64.6109 58.4629 64.5253 57.999 64.4148C57.2837 64.3231 56.5767 64.1755 55.8844 63.9734C54.6525 63.6141 53.431 63.1419 52.1889 62.7621C50.3538 62.1824 48.4764 61.7465 46.5737 61.4584H46.4403L45.6909 61.3865H45.5369C44.301 61.2914 43.0578 61.3884 41.8516 61.674C41.1278 61.8475 40.4149 62.0634 39.7164 62.3207V62.3207C38.8577 62.5482 38.0252 62.8647 37.2322 63.2651C35.7747 63.9618 34.6135 65.1558 33.9576 66.6321C33.7756 67.0643 33.658 67.5209 33.6086 67.9872C33.6086 67.9872 33.6086 68.0898 33.6086 68.1514C33.5335 68.6519 33.5369 69.161 33.6188 69.6604C33.6295 69.7547 33.6502 69.8476 33.6804 69.9376C33.6791 69.9615 33.6791 69.9855 33.6804 70.0094C33.6983 70.1044 33.7258 70.1973 33.7625 70.2866C33.9871 71.0463 34.3762 71.7472 34.902 72.3397L35.1586 72.6168L34.7172 72.7606Z" fill="#A92819"/>
<path d="M34.4098 190.987H31.905V200H34.4098V190.987Z" fill="#A92819"/>
<path d="M34.4098 189.735H31.905V190.987H34.4098V189.735Z" fill="#A92819"/>
<path d="M33.6809 70.0098C33.7007 70.1042 33.7282 70.1969 33.763 70.2869C33.7263 70.1976 33.6988 70.1047 33.6809 70.0098V70.0098Z" fill="white"/>
<path d="M33.5364 68.1719C33.4967 68.6695 33.5243 69.1701 33.6185 69.6603C33.5148 69.1714 33.4871 68.6693 33.5364 68.1719V68.1719Z" fill="white"/>
<path d="M32.018 76.8873C30.623 76.9396 29.2416 77.1814 27.9118 77.6059C26.0247 78.1695 24.3255 79.2337 22.9947 80.6855C22.0221 81.708 21.4753 83.0623 21.4652 84.4734C21.4894 84.8221 21.5549 85.1667 21.6602 85.5C21.7391 85.7426 21.7694 85.9984 21.7494 86.2528C21.7294 86.5072 21.6595 86.7551 21.5437 86.9824C21.4278 87.2098 21.2684 87.4121 21.0744 87.5778C20.8804 87.7435 20.6556 87.8694 20.413 87.9483C20.1703 88.0271 19.9145 88.0574 19.6602 88.0374C19.4058 88.0174 19.1579 87.9475 18.9305 87.8317C18.4714 87.5978 18.124 87.1911 17.9647 86.701C17.7498 86.0118 17.6255 85.2974 17.5951 84.5761C17.5598 82.1829 18.4455 79.8676 20.0691 78.1089C20.4868 77.611 20.9508 77.1538 21.4549 76.7436H19.1555H18.9399C17.5451 76.7975 16.164 77.0392 14.8338 77.4622C12.9481 78.029 11.2497 79.0927 9.91665 80.5418C8.94805 81.5701 8.40516 82.9273 8.39738 84.34C8.41335 84.6888 8.47548 85.034 8.58216 85.3665C8.66229 85.6092 8.6937 85.8652 8.6746 86.12C8.65549 86.3748 8.58625 86.6233 8.47083 86.8513C8.35542 87.0793 8.19611 87.2822 8.00206 87.4484C7.80801 87.6146 7.58303 87.7409 7.34005 87.8199C6.86288 87.9825 6.34158 87.956 5.88333 87.746C5.42508 87.536 5.06473 87.1583 4.87636 86.6908C4.66118 86.0051 4.53694 85.2941 4.50681 84.5761C4.47308 82.1801 5.35837 79.8621 6.98076 78.0987C7.34865 77.6673 7.74657 77.2626 8.17154 76.8873L1.33481 76.9489C1.04738 76.9489 0.811279 76.0661 0.811279 74.9882C0.811279 73.9104 1.04738 73.0378 1.33481 73.0378L7.87385 72.9865C7.3257 72.5308 6.82058 72.0256 6.36484 71.4775C4.78001 69.6831 3.93928 67.3518 4.01407 64.959C4.05341 64.2386 4.19158 63.5271 4.42469 62.8443C4.50759 62.603 4.63721 62.3804 4.80615 62.1892C4.97509 61.998 5.18004 61.8419 5.40929 61.7299C5.63854 61.6179 5.88761 61.5522 6.14227 61.5364C6.39693 61.5207 6.6522 61.5552 6.89351 61.6381C7.13481 61.721 7.35742 61.8507 7.54863 62.0196C7.73984 62.1886 7.8959 62.3935 8.0079 62.6227C8.11991 62.852 8.18566 63.1011 8.20141 63.3557C8.21716 63.6104 8.18259 63.8657 8.09969 64.107C7.98335 64.4383 7.91087 64.7834 7.88411 65.1335C7.86966 66.5468 8.39463 67.9125 9.35206 68.9522C10.6554 70.4252 12.3333 71.5178 14.2076 72.1139C15.3882 72.5224 16.6164 72.7777 17.862 72.8736H20.7774C20.3079 72.4795 19.8655 72.0542 19.4532 71.6007C17.8674 69.8069 17.0266 67.4752 17.1024 65.0822C17.1433 64.3629 17.2779 63.652 17.5028 62.9675C17.5754 62.713 17.6991 62.476 17.8663 62.2708C18.0335 62.0656 18.2407 61.8966 18.4753 61.7741C18.7099 61.6516 18.967 61.5781 19.2309 61.5581C19.4948 61.5381 19.76 61.572 20.0104 61.6578C20.2608 61.7436 20.4911 61.8794 20.6873 62.0571C20.8835 62.2347 21.0415 62.4504 21.1517 62.6911C21.2618 62.9317 21.3219 63.1923 21.3281 63.4569C21.3344 63.7215 21.2867 63.9846 21.188 64.2301C21.0717 64.5615 20.9992 64.9066 20.9724 65.2567C20.9585 66.6669 21.4836 68.0291 22.4404 69.0651C23.739 70.5458 25.4182 71.6428 27.2959 72.2371C28.0851 72.504 28.8955 72.7032 29.7185 72.8325H30.4268C30.8164 73.7319 31.3465 74.5635 31.9974 75.2962C32.4803 75.8368 33.0246 76.3191 33.6194 76.7334H32.8084C32.5596 76.8425 32.2896 76.8951 32.018 76.8873V76.8873Z" fill="#0F7657"/>
<path d="M29.5131 0.882812C30.3036 10.3269 28.1684 17.3998 23.1897 21.9063C18.211 26.4128 11.5796 27.3161 7.08333 27.3161C5.41282 27.324 3.74441 27.197 2.09436 26.9363L2.54604 24.4623C2.66922 24.4623 14.3923 26.5154 21.5472 20.0482C25.91 16.0858 27.768 9.71102 27.0495 1.09839L29.5131 0.882812Z" fill="#4C8BCA"/>
<path d="M27.6339 190.987H25.1292V200H27.6339V190.987Z" fill="#A92819"/>
<path d="M27.6339 189.735H25.1292V190.987H27.6339V189.735Z" fill="#A92819"/>
<path d="M25.5603 31.2336L19.3359 38.144L21.197 39.8204L27.4214 32.9099L25.5603 31.2336Z" fill="#4C8BCA"/>
<path d="M20.8491 190.987H18.3444V200H20.8491V190.987Z" fill="#A92819"/>
<path d="M20.8491 189.735H18.3444V190.987H20.8491V189.735Z" fill="#A92819"/>
<path d="M18.5692 102.849L27.4076 94.3697L38.0528 103.67L36.4103 105.559L27.4897 97.7676L18.5076 106.37L10.1105 97.8394L2.32935 105.508L0.573975 103.721L10.131 94.2876L18.5692 102.849Z" fill="#4C8BCA"/>
<path d="M18.1893 116.964L27.038 108.484L37.6832 117.785L36.0304 119.674L27.1099 111.882L18.1379 120.474L9.7306 111.954L1.95972 119.612L0.204346 117.826L9.7614 108.402L18.1893 116.964Z" fill="#4C8BCA"/>
<path d="M15.9893 31.2391L9.76855 38.1528L11.6305 39.8282L17.8513 32.9145L15.9893 31.2391Z" fill="#4C8BCA"/>
<path d="M14.0643 190.987H11.5596V200H14.0643V190.987Z" fill="#A92819"/>
<path d="M14.0643 189.735H11.5596V190.987H14.0643V189.735Z" fill="#A92819"/>
<path d="M10.4916 7.14455C10.9407 7.14252 11.3803 7.27385 11.7547 7.52189C12.1292 7.76993 12.4215 8.12353 12.5948 8.53789C12.7681 8.95225 12.8145 9.40872 12.7281 9.84946C12.6417 10.2902 12.4265 10.6954 12.1096 11.0137C11.7928 11.332 11.3886 11.5491 10.9482 11.6375C10.5078 11.7258 10.0512 11.6815 9.63604 11.5101C9.2209 11.3387 8.86598 11.0479 8.61624 10.6747C8.3665 10.3014 8.23318 9.86233 8.23318 9.4132C8.23183 9.11576 8.28924 8.82099 8.40213 8.5458C8.51502 8.27062 8.68116 8.02044 8.891 7.80964C9.10085 7.59885 9.35026 7.43158 9.62493 7.31744C9.8996 7.2033 10.1941 7.14455 10.4916 7.14455V7.14455Z" fill="#2A3277"/>
<path d="M9.7306 126.059L1.95972 133.727L0.204346 131.941L9.7614 122.517L18.1893 131.078L26.2168 123.39L27.9413 125.207L18.1379 134.589L9.7306 126.059Z" fill="#4C8BCA"/>
<path d="M6.43777 31.2258L0.213379 38.1362L2.07448 39.8126L8.29887 32.9021L6.43777 31.2258Z" fill="#4C8BCA"/>
<path d="M7.27941 190.987H4.77466V200H7.27941V190.987Z" fill="#A92819"/>
<path d="M7.27941 189.735H4.77466V190.987H7.27941V189.735Z" fill="#A92819"/>
<path d="M0.676025 188.482H186.612V190.987H182.476V189.735H179.961V190.987H175.69V189.735H173.185V190.987H168.905V189.735H166.4V190.987H162.119V189.735H159.615V190.987H155.344V189.735H152.829V190.987H148.559V189.735H146.044V190.987H141.773V189.735H139.258V190.987H134.988V189.735H132.483V190.987H128.203V189.735H125.698V190.987H122.033V189.735H119.528V190.987H115.248V189.735H112.743V190.987H108.462V189.735H105.958V190.987H101.677V189.735H99.1722V190.987H94.9018V189.735H92.397V190.987H88.1164V189.735H85.6116V190.987H81.331V189.735H78.8262V190.987H74.5456V189.735H72.0408V190.987H67.7704V189.735H65.2657V190.987H61.5496V189.735H59.0449V190.987H54.7642V189.735H52.2595V190.987H47.9788V189.735H45.4741V190.987H41.1934V189.735H38.6887V190.987H34.408V189.735H31.9033V190.987H27.6329V189.735H25.1281V190.987H20.8475V189.735H18.3427V190.987H14.0621V189.735H11.5573V190.987H7.27665V189.735H4.7719V190.987H0.676025V188.482Z" fill="#A92819"/>
<path d="M3.59252 9.41334C3.59252 10.7777 3.9971 12.1114 4.7551 13.2458C5.5131 14.3803 6.59047 15.2644 7.85097 15.7866C9.11147 16.3087 10.4985 16.4453 11.8366 16.1791C13.1748 15.9129 14.4039 15.2559 15.3687 14.2912C16.3334 13.3264 16.9904 12.0973 17.2566 10.7591C17.5228 9.42099 17.3862 8.03397 16.8641 6.77347C16.3419 5.51296 15.4578 4.43559 14.3233 3.67759C13.1889 2.9196 11.8552 2.51502 10.4908 2.51502C8.6613 2.51502 6.90668 3.2418 5.61299 4.53549C4.31931 5.82918 3.59252 7.58379 3.59252 9.41334V9.41334ZM1.08777 9.41334C1.08574 7.55315 1.6355 5.73416 2.66748 4.18648C3.69947 2.6388 5.16732 1.43199 6.88533 0.71872C8.60333 0.00544962 10.4943 -0.182228 12.319 0.179432C14.1437 0.541091 15.8201 1.43584 17.1362 2.75047C18.4522 4.0651 19.3488 5.74055 19.7125 7.56485C20.0761 9.38914 19.8905 11.2803 19.1791 12.9991C18.4677 14.7179 17.2625 16.187 15.716 17.2207C14.1694 18.2544 12.351 18.8061 10.4908 18.8061C7.9996 18.8034 5.61103 17.8133 3.84849 16.0527C2.08595 14.2921 1.09321 11.9046 1.08777 9.41334V9.41334Z" fill="#179E6C"/>
</svg>
