<svg width="197" height="200" viewBox="0 0 197 200" fill="none" xmlns="http://www.w3.org/2000/svg">
<path d="M195.201 135.715L196.839 137.585C169.881 161.286 132.418 164.238 115.43 164.238C109.924 164.238 106.563 163.934 106.437 163.913L106.678 161.433C107.214 161.528 160.321 166.392 195.201 135.715Z" fill="#4C8BCA"/>
<path d="M196.017 197.51H0.89209V200H196.017V197.51Z" fill="#A92819"/>
<path d="M176.026 35.8459C196.638 48.9678 195.094 89.3523 195.01 91.0647L192.52 90.9492C192.52 90.5499 194.096 50.2915 174.66 37.9366L176.026 35.8459Z" fill="#4C8BCA"/>
<path d="M194.315 26.4224L194.526 28.9018C193.254 29.0069 192.036 29.0594 190.859 29.0594C183.316 29.0594 177.548 26.9057 173.682 22.6298C166.422 14.6244 168.618 2.21694 168.702 1.69165L171.15 2.1434C171.15 2.25897 169.049 13.8889 175.531 20.9699C179.46 25.3088 185.785 27.1473 194.315 26.4224Z" fill="#2A3277"/>
<path d="M186.079 0.693359C187.922 0.693359 189.724 1.23989 191.257 2.26384C192.789 3.28779 193.983 4.74318 194.689 6.44594C195.394 8.14871 195.579 10.0224 195.219 11.83C194.86 13.6377 193.972 15.2981 192.669 16.6014C191.365 17.9046 189.705 18.7921 187.897 19.1517C186.09 19.5113 184.216 19.3267 182.513 18.6214C180.811 17.9161 179.355 16.7217 178.331 15.1892C177.307 13.6568 176.761 11.8551 176.761 10.0121C176.766 7.54229 177.75 5.17526 179.496 3.42887C181.243 1.68248 183.61 0.698909 186.079 0.693359V0.693359ZM192.908 10.0121C192.908 8.65892 192.507 7.33619 191.755 6.21125C191.003 5.0863 189.934 4.2097 188.684 3.69235C187.433 3.17501 186.058 3.04019 184.731 3.30494C183.404 3.56968 182.185 4.22211 181.229 5.17966C180.273 6.1372 179.622 7.35683 179.36 8.68422C179.097 10.0116 179.234 11.3871 179.753 12.6366C180.273 13.8862 181.151 14.9536 182.277 15.7038C183.403 16.4541 184.726 16.8534 186.079 16.8514C187.892 16.8486 189.628 16.1268 190.909 14.8445C192.189 13.5621 192.908 11.8241 192.908 10.0121V10.0121Z" fill="#179E6C"/>
<path d="M179.386 177.108C179.386 177.108 181.897 168.703 190.827 170.941C190.827 170.983 188.789 179.23 179.386 177.108Z" fill="#0F7657"/>
<path d="M190.827 186.636C181.372 188.738 179.386 180.48 179.386 180.48C188.306 178.263 190.827 186.636 190.827 186.636Z" fill="#0F7657"/>
<path d="M186.079 12.2604C187.321 12.2604 188.327 11.2538 188.327 10.0122C188.327 8.77049 187.321 7.76392 186.079 7.76392C184.837 7.76392 183.831 8.77049 183.831 10.0122C183.831 11.2538 184.837 12.2604 186.079 12.2604Z" fill="#2A3277"/>
<path d="M19.4378 120.859C19.1432 120.412 18.8867 119.941 18.6709 119.451V119.378C18.4987 118.862 18.3619 118.336 18.2612 117.802H7.75529C7.66248 118.357 7.61679 118.92 7.61872 119.483C7.62013 120.957 7.93155 122.413 8.53273 123.759L19.4378 120.859ZM18.1981 114.251C18.3732 113.006 18.6832 111.784 19.1226 110.605L12.9242 109.418C11.3601 110.799 10.039 112.433 9.016 114.251H18.1981ZM36.1946 131.186C35.1481 130.87 34.1204 130.495 33.1164 130.062L27.0861 138.204C28.5884 138.856 30.1643 139.476 31.8032 140.085L36.1946 131.186ZM189.381 117.949H178.822C178.568 118.985 178.122 119.965 177.509 120.838L188.582 123.769C189.182 122.427 189.493 120.974 189.496 119.504C189.493 118.994 189.454 118.485 189.381 117.981V117.949ZM164.629 94.9832C182.089 101.087 192.9 109.691 192.9 119.483C192.9 129.274 182.089 137.868 164.629 143.972C147.683 149.908 124.328 153.564 98.5784 153.564C72.8286 153.564 49.453 149.834 32.5176 143.972C15.0569 137.868 4.24634 129.264 4.24634 119.483C4.24634 109.702 15.0569 101.087 32.5176 94.9832C35.9635 93.7751 39.6826 92.6719 43.6328 91.6529C43.8114 92.8715 43.9795 94.0272 44.1161 95.0568C41.4581 95.7291 38.9157 96.4645 36.4993 97.242C31.7326 99.4948 27.6368 102.953 24.6172 107.275C21.8752 111.351 20.9612 115.417 21.9172 118.159C24.0184 123.002 33.0744 127.415 46.6375 130.703C60.4106 134.055 78.6068 136.082 98.5889 136.082C119.401 136.082 138.175 133.855 152.085 130.241C165.742 126.711 174.504 122.025 175.628 117.025C176.286 114.414 176.022 111.657 174.882 109.219C173.506 106.193 170.68 102.768 165.427 98.8389L163.578 98.1875C160.216 97.0109 156.609 95.9322 152.757 94.9517C152.894 93.9011 153.062 92.8505 153.251 91.6108C157.275 92.6299 161.099 93.7645 164.629 94.9832ZM179.274 114.409H188.204C187.261 112.694 186.06 111.135 184.642 109.786L178.959 111.026V110.973C179.204 112.101 179.31 113.255 179.274 114.409V114.409ZM186.691 126.942L174.893 123.79C172.662 125.66 170.188 127.218 167.539 128.423L173.601 136.628C179.495 133.655 183.949 130.398 186.649 126.921L186.691 126.942ZM181.217 106.981V106.928C179.174 105.478 177.024 104.182 174.788 103.052C175.987 104.474 177.003 106.041 177.814 107.716L181.217 106.981ZM170.354 138.099L164.261 129.831C163.305 130.23 162.317 130.609 161.288 130.966L165.732 139.969C167.329 139.374 168.87 138.751 170.354 138.099ZM162.37 141.167L157.968 132.111C156.812 132.468 155.625 132.804 154.407 133.162L158.126 142.543C159.565 142.081 160.994 141.682 162.37 141.167V141.167ZM154.69 143.489L150.971 134.033C147.105 134.958 142.924 135.798 138.459 136.502L141.232 146.504C145.981 145.642 150.467 144.637 154.69 143.489V143.489ZM137.692 147.113L134.897 137.049L131.378 137.511L133.636 147.733C135.002 147.544 136.357 147.334 137.692 147.113V147.113ZM130.138 148.216L127.858 137.973C126.619 138.099 125.389 138.225 124.139 138.33L126.135 148.71L130.138 148.216ZM122.689 149.036L120.683 138.614C116.312 138.961 111.784 139.213 107.13 139.36L107.571 150.002C112.754 149.827 117.794 149.505 122.689 149.036V149.036ZM104.094 150.086L103.695 139.465H100.543V150.149L104.094 150.086ZM96.929 150.086V139.465H93.4726L93.0313 150.128L96.929 150.086ZM89.5749 149.939L90.0056 139.297C85.5617 139.15 81.1912 138.94 77.0414 138.604L75.0453 149.015C79.6574 149.509 84.5531 149.813 89.5224 149.971L89.5749 149.939ZM71.4418 148.721L73.4379 138.414C72.1982 138.299 70.969 138.162 69.7609 138.015L67.4916 148.321L71.4418 148.721ZM63.9931 147.796L66.2519 137.595L62.7219 137.133L59.9379 147.176C61.2616 147.397 62.6169 147.597 63.9931 147.796V147.796ZM56.4184 146.546L59.192 136.628C54.6955 135.925 50.4616 135.105 46.5849 134.128L42.8659 143.52C47.0962 144.662 51.6137 145.67 56.4184 146.546ZM43.0865 133.319C41.8783 133.004 40.7017 132.668 39.567 132.269L35.1441 141.23C36.5098 141.692 37.9106 142.134 39.3464 142.554L43.0865 133.319ZM29.7756 128.654C26.9898 127.416 24.3935 125.789 22.0643 123.822L10.4343 126.858C13.1553 130.409 17.7884 133.729 23.8398 136.691L29.7756 128.654ZM21.7491 105.374C22.5855 104.159 23.5015 103 24.4911 101.907C21.525 103.293 18.6909 104.946 16.0234 106.844L20.3938 107.653C20.772 106.897 21.2133 106.13 21.7491 105.374Z" fill="#0F7657"/>
<path d="M178.284 128.959C178.451 129.369 178.495 129.818 178.41 130.251C178.326 130.686 178.114 131.085 177.801 131.397C177.489 131.71 177.09 131.922 176.656 132.006C176.222 132.091 175.773 132.047 175.364 131.88C174.961 131.705 174.616 131.421 174.366 131.06C174.12 130.69 173.988 130.255 173.987 129.81C173.991 129.519 174.048 129.23 174.155 128.959C174.398 128.423 174.827 127.993 175.364 127.751C175.635 127.644 175.923 127.587 176.215 127.583C176.659 127.584 177.094 127.715 177.465 127.961C177.828 128.209 178.112 128.555 178.284 128.959Z" fill="#A92819"/>
<path d="M166.37 53.2016C178.777 69.034 176.33 89.9721 176.214 90.7916L173.756 90.4869C173.756 90.2768 176.172 69.7273 164.395 54.767C157.577 46.0682 147.344 40.8678 133.928 39.2814L134.233 36.8125C148.332 38.4199 159.132 43.9565 166.37 53.2016Z" fill="#4C8BCA"/>
<path d="M166.329 177.108C166.329 177.108 168.85 168.703 177.769 170.941C177.769 170.983 175.742 179.23 166.329 177.108Z" fill="#0F7657"/>
<path d="M177.769 186.636C168.314 188.738 166.329 180.48 166.329 180.48C175.248 178.263 177.769 186.636 177.769 186.636Z" fill="#0F7657"/>
<path d="M166.003 111.288C166.126 112.421 165.964 113.566 165.53 114.619C164.878 116.129 163.806 117.419 162.442 118.338C161.722 120.303 160.294 121.929 158.439 122.897C156.881 123.63 155.125 123.83 153.443 123.465C151.761 123.1 150.245 122.192 149.131 120.88C148.262 119.64 147.908 118.111 148.143 116.615C148.307 115.483 148.804 114.426 149.572 113.579C147.534 111.898 144.413 109.376 143.689 108.767C142.47 107.948 138.436 105.29 137.826 103.714C136.815 101.91 136.152 99.9319 135.872 97.883L135.494 98.0931C135.788 100.17 135.641 102.286 135.063 104.302C134.202 107.099 133.539 109.953 133.078 112.843C135.557 119.147 130.976 122.372 128.707 122.866C127.028 123.174 125.302 123.102 123.654 122.656C122.649 123.05 121.581 123.257 120.502 123.265C118.437 123.368 116.405 122.706 114.797 121.406C113.827 120.664 113.106 119.645 112.73 118.482C112.355 117.32 112.343 116.071 112.696 114.902C113.055 113.736 113.764 112.708 114.726 111.956C115.687 111.205 116.857 110.766 118.075 110.7L118.79 110.227V100.289C118.664 98.144 118.664 95.9936 118.79 93.8487C119.04 92.352 119.677 90.9467 120.639 89.7725V89.7725C121.742 89.8565 122.834 89.9616 123.927 90.0771C123.227 90.9596 122.575 91.8631 121.973 92.7876C121.448 93.8382 121.322 94.8888 121.416 97.4207C121.416 102.243 121.679 105.72 121.416 111.877C120.508 112.328 119.673 112.913 118.937 113.61C118.261 113.495 117.567 113.568 116.93 113.82C116.434 114.055 116.01 114.418 115.701 114.871C115.384 115.322 115.189 115.846 115.134 116.394C115.08 116.942 115.166 117.495 115.385 118.001C115.604 118.506 115.948 118.947 116.384 119.283C117.26 119.908 118.28 120.302 119.348 120.428C120.417 120.555 121.5 120.411 122.498 120.008C122.681 119.914 122.881 119.861 123.087 119.851C124.715 119.851 125.766 120.786 128.045 120.113C129.684 119.63 132.017 117.329 130.147 113.495C129.999 110.343 132.437 103.157 132.468 102.411C132.919 100.557 132.805 98.611 132.143 96.8219C134.044 95.5927 136.009 94.5001 137.784 93.1028C138.09 95.8698 138.692 98.596 139.581 101.234C140.267 102.629 141.368 103.778 142.733 104.523C146.377 107.088 149.845 109.896 153.112 112.927C152.862 113.53 152.662 114.152 152.513 114.787C152.067 115.037 151.69 115.395 151.417 115.828C151.143 116.261 150.982 116.755 150.948 117.266C150.791 119.935 153.69 121.71 157.252 120.313C159.447 119.262 159.552 117.235 160.309 116.499C161.097 115.533 161.969 115.648 162.946 113.547C163.225 112.884 163.319 112.158 163.219 111.446C163.131 110.745 162.863 110.08 162.442 109.513C161.202 107.916 159.5 108.042 156.716 104.428C154.236 100.982 152.629 98.2297 149.698 96.99C149.792 96.2336 149.929 95.309 150.066 94.2795C150.99 94.5001 151.894 94.7207 152.776 94.9518C152.776 95.141 152.724 95.309 152.703 95.4876C157.252 98.9756 156.726 100.184 159.552 103.43C161.654 105.909 163.219 105.594 164.889 108.074C165.52 109.037 165.903 110.141 166.003 111.288V111.288Z" fill="#A92819"/>
<path d="M163.187 111.446C163.288 112.158 163.193 112.884 162.914 113.547C161.937 115.648 161.065 115.533 160.277 116.499C159.521 117.235 159.416 119.231 157.22 120.313C153.648 121.71 150.748 119.935 150.917 117.266C150.951 116.755 151.112 116.261 151.385 115.828C151.658 115.395 152.035 115.037 152.482 114.787C152.63 114.152 152.831 113.53 153.081 112.927C149.813 109.896 146.345 107.088 142.701 104.523C141.337 103.777 140.236 102.629 139.549 101.234C138.661 98.5959 138.059 95.8697 137.753 93.1027L137.952 91.9155C138.877 92.0626 139.791 92.2202 140.705 92.3883C140.799 93.0502 140.915 93.7435 141.031 94.3844C141.304 95.8867 141.587 97.3576 141.818 98.3661C141.954 99.0987 142.199 99.8069 142.543 100.467C142.845 101.024 143.269 101.505 143.783 101.875C144.403 102.379 145.285 102.926 146.262 103.619C147.239 104.312 148.364 105.332 149.414 106.172C150.465 107.012 151.599 107.937 152.566 108.777C153.532 109.618 154.468 110.458 155.056 111.015C155.466 111.349 155.793 111.773 156.012 112.255C156.08 112.607 156.047 112.971 155.917 113.305C155.812 113.652 155.697 113.946 155.571 114.272C155.445 114.599 155.336 114.932 155.245 115.27C155.161 115.585 155.108 115.89 155.035 116.195C154.999 116.478 154.903 116.751 154.751 116.993C154.622 117.122 154.45 117.2 154.268 117.214C154.099 117.222 153.933 117.268 153.785 117.35C153.745 117.378 153.715 117.419 153.701 117.466C153.68 117.516 153.68 117.573 153.701 117.623C153.738 117.689 153.788 117.746 153.848 117.791C153.906 117.841 153.974 117.876 154.047 117.897C154.333 117.983 154.631 118.022 154.93 118.012C155.29 118.027 155.648 117.963 155.98 117.823C156.268 117.68 156.511 117.462 156.684 117.193C156.852 116.919 156.957 116.646 157.115 116.331C157.289 115.965 157.493 115.613 157.724 115.281C157.968 114.891 158.265 114.537 158.607 114.23C158.922 113.946 159.279 113.736 159.584 113.463C159.885 113.227 160.124 112.921 160.277 112.57C160.34 112.42 160.372 112.26 160.372 112.097C160.372 111.935 160.34 111.774 160.277 111.625C160.153 111.329 159.94 111.08 159.668 110.91C159.384 110.7 159.006 110.49 158.554 110.164C158.014 109.783 157.499 109.369 157.01 108.925C156.446 108.451 155.916 107.939 155.424 107.391C154.788 106.694 154.199 105.957 153.659 105.184C153.039 104.312 152.387 103.293 151.62 102.369C150.938 101.501 150.147 100.724 149.267 100.058C148.736 99.6966 148.156 99.4135 147.544 99.2171C147.302 99.1453 147.079 99.0196 146.893 98.8494C146.746 98.7233 146.746 98.5973 146.746 98.2085C146.746 97.8198 146.746 97.2315 146.872 96.433C146.998 95.6346 147.05 94.8992 147.218 93.7015C148.153 93.9011 149.067 94.1113 149.971 94.3214C149.834 95.372 149.698 96.2755 149.603 97.0319C152.534 98.2716 154.142 101.024 156.621 104.47C159.405 108.084 161.107 107.958 162.347 109.555C162.784 110.103 163.074 110.754 163.187 111.446V111.446Z" fill="#F4F4F4"/>
<path d="M153.269 177.108C153.269 177.108 155.79 168.703 164.71 170.941C164.71 170.983 162.682 179.23 153.269 177.108Z" fill="#0F7657"/>
<path d="M164.71 186.636C155.254 188.738 153.269 180.48 153.269 180.48C162.199 178.263 164.71 186.636 164.71 186.636Z" fill="#0F7657"/>
<path d="M160.342 111.582C160.405 111.732 160.437 111.893 160.437 112.055C160.437 112.217 160.405 112.378 160.342 112.528C160.189 112.878 159.951 113.185 159.649 113.421C159.344 113.694 158.987 113.904 158.672 114.188C158.33 114.495 158.033 114.849 157.79 115.238C157.558 115.571 157.354 115.923 157.18 116.289C157.023 116.604 156.918 116.877 156.749 117.151C156.576 117.42 156.333 117.638 156.046 117.781C155.714 117.921 155.355 117.985 154.995 117.97C154.696 117.98 154.398 117.941 154.112 117.854C154.039 117.834 153.971 117.798 153.913 117.749C153.853 117.704 153.803 117.647 153.766 117.581C153.745 117.531 153.745 117.474 153.766 117.424C153.78 117.377 153.81 117.336 153.85 117.308C153.998 117.226 154.164 117.18 154.333 117.172C154.515 117.158 154.687 117.08 154.816 116.951C154.968 116.709 155.065 116.436 155.1 116.152C155.174 115.848 155.226 115.543 155.31 115.228C155.401 114.89 155.51 114.557 155.636 114.23C155.762 113.904 155.877 113.61 155.983 113.263C156.112 112.929 156.145 112.565 156.077 112.213C155.858 111.731 155.531 111.307 155.121 110.973C154.533 110.416 153.65 109.576 152.631 108.735C151.612 107.895 150.53 106.97 149.479 106.13C148.429 105.289 147.294 104.302 146.328 103.577C145.361 102.852 144.468 102.337 143.848 101.833C143.319 101.468 142.88 100.986 142.567 100.425C142.222 99.7647 141.977 99.0566 141.842 98.324C141.611 97.2734 141.327 95.8446 141.054 94.3423C140.938 93.7014 140.823 93.0081 140.728 92.3462C142.976 92.7454 145.162 93.1797 147.284 93.6489C147.116 94.8466 147 95.6765 146.937 96.3804C146.874 97.0843 146.811 97.7777 146.811 98.1559C146.811 98.5341 146.811 98.6707 146.958 98.7968C147.145 98.967 147.367 99.0927 147.609 99.1645C148.221 99.3609 148.801 99.644 149.332 100.005C150.212 100.672 151.003 101.448 151.686 102.316C152.453 103.241 153.104 104.26 153.724 105.132C154.264 105.904 154.854 106.641 155.489 107.338C155.981 107.886 156.511 108.399 157.075 108.872C157.564 109.317 158.08 109.731 158.619 110.112C159.071 110.437 159.449 110.647 159.733 110.858C160.007 111.03 160.22 111.283 160.342 111.582V111.582Z" fill="#A92819"/>
<path d="M158.68 22.7976H128.055V25.2875H158.68V22.7976Z" fill="#179E6C"/>
<path d="M158.534 11.7456H127.909V14.2355H158.534V11.7456Z" fill="#A92819"/>
<path d="M158.534 0.451416H127.909V2.9413H158.534V0.451416Z" fill="#179E6C"/>
<path d="M154.375 79.582C154.711 81.515 153.912 86.9991 153.24 91.6532C152.337 91.4221 151.433 91.2014 150.508 90.9913C151.139 86.4318 151.78 81.3995 151.559 80.0547C151.477 78.8603 151.09 77.707 150.435 76.7046C149.78 75.7023 148.88 74.8844 147.819 74.329C146.579 73.4991 145.718 73.2259 144.541 72.3434C141.894 70.0847 139.131 64.5901 133.237 61.9216C131.039 60.9879 128.751 60.2838 126.408 59.8205C125.357 56.2275 124.454 55.4605 122.605 54.452C120.361 53.6796 117.902 53.8269 115.766 54.8617C114.459 55.6083 113.416 56.7427 112.782 58.108C111.882 59.9506 111.728 62.0693 112.351 64.0228C113.297 67.059 117.94 69.738 119.485 69.8851L119.106 70.8201C117.678 70.8201 113.517 71.6606 112.74 71.2403C111.294 70.0567 109.518 69.3485 107.655 69.2127C105.176 69.2127 102.686 70.2633 101.982 71.524C100.868 72.8372 101.341 76.7769 105.701 76.1781C105.973 76.8476 106.432 77.4242 107.025 77.838C107.612 78.2525 108.303 78.4929 109.021 78.5314C110.94 78.6723 112.844 78.9674 114.715 79.4139C113.664 80.1493 110.313 82.4711 109.546 82.7863C108.041 82.7671 106.547 83.0382 105.144 83.5847C104.66 83.886 104.209 84.2382 103.799 84.6353C103.495 84.8769 103.201 85.1291 102.917 85.4022C101.772 85.4022 100.627 85.4022 99.4711 85.4022C99.6901 84.9347 99.9729 84.4998 100.312 84.11C100.858 83.5194 101.456 82.978 102.098 82.4921C102.546 82.0551 103.043 81.6709 103.579 81.347C104.287 80.9232 105.056 80.6113 105.859 80.4224C105.26 80.0943 104.726 79.66 104.283 79.1407C103.39 79.1007 102.52 78.8525 101.74 78.4158C100.973 77.9737 100.313 77.3674 99.8072 76.6403C99.2724 75.9127 98.9128 75.0714 98.7567 74.182C98.7027 73.8767 98.6745 73.5674 98.6726 73.2574C98.676 72.67 98.7645 72.0861 98.9353 71.524C99.345 70.3683 100.206 68.3722 104.01 67.0905C105.243 66.6799 106.534 66.4706 107.834 66.4707C108.794 66.5332 109.743 66.7132 110.66 67.0065C109.671 65.4312 109.137 63.6133 109.115 61.7535C109.086 59.8002 109.606 57.8779 110.618 56.2064C111.482 54.6688 112.735 53.386 114.253 52.4874C116.662 51.2337 119.427 50.8408 122.09 51.3737C123.617 51.7252 125.024 52.4757 126.166 53.5485C127.338 54.6225 128.195 55.9953 128.646 57.5197C130.49 57.9798 132.307 58.5445 134.088 59.2111C140.391 61.9637 144.194 67.6158 146.117 69.9166C146.916 70.8201 148.512 71.2193 150.025 72.396C151.251 73.1818 152.281 74.2382 153.034 75.4839C153.788 76.7296 154.247 78.1315 154.375 79.582Z" fill="#A92819"/>
<path d="M153.237 91.6111C153.048 92.7982 152.88 93.9434 152.743 94.9519C151.861 94.7208 150.957 94.5002 150.033 94.2796C150.18 93.229 150.338 92.1154 150.506 90.9492C151.43 91.1383 152.334 91.38 153.237 91.6111Z" fill="#A92819"/>
<path d="M151.579 80.0125C151.778 81.3573 151.137 86.3896 150.528 90.9491C149.635 90.7285 148.721 90.5184 147.807 90.3188C147.912 89.5729 148.028 88.7849 148.122 88.0075C148.374 86.148 148.584 84.2884 148.71 83.0487C148.827 82.2277 148.877 81.3984 148.858 80.5694C148.818 79.9186 148.658 79.2809 148.385 78.6888C148.144 78.1968 147.783 77.7738 147.334 77.4596C146.838 77.0622 146.307 76.7105 145.748 76.409C145.086 76.0098 144.256 75.5791 143.647 75.1693C143.119 74.8148 142.633 74.4025 142.197 73.9402C141.748 73.5145 141.334 73.0543 140.957 72.5639C140.516 71.9861 140.001 71.2402 139.276 70.3682C138.443 69.4074 137.552 68.4987 136.608 67.6471C135.703 66.8089 134.733 66.0432 133.708 65.3569C132.892 64.8447 132.017 64.432 131.103 64.1277C130.21 63.8125 129.233 63.5604 128.35 63.3292L126.091 62.6989C125.668 62.5869 125.253 62.4429 124.852 62.2681C124.558 62.1494 124.314 61.9346 124.158 61.6588C123.973 61.294 123.829 60.91 123.728 60.5137C123.57 60.0619 123.391 59.5576 123.192 59.0849C123.024 58.6433 122.798 58.2263 122.519 57.8452C122.208 57.4802 121.806 57.2046 121.353 57.0467C120.856 56.8966 120.338 56.8292 119.819 56.8471C119.29 56.8382 118.762 56.8876 118.244 56.9942C117.751 57.0949 117.285 57.299 116.878 57.593C116.462 57.9011 116.107 58.282 115.827 58.7172C115.521 59.148 115.273 59.618 115.092 60.1144C114.935 60.5894 114.85 61.0852 114.84 61.5853C114.816 62.0999 114.894 62.6141 115.071 63.0981C115.291 63.6782 115.627 64.2073 116.058 64.653C116.562 65.1637 117.122 65.6149 117.729 65.9977C118.212 66.3117 118.713 66.5959 119.231 66.8487C119.472 66.9947 119.734 67.1012 120.008 67.1639C120.163 67.1929 120.323 67.1669 120.46 67.0903C120.577 66.9618 120.679 66.8208 120.765 66.6701C120.881 66.4562 121.034 66.2643 121.217 66.1028C121.359 65.9861 121.523 65.9003 121.7 65.8506L121.889 65.7351C122.074 65.6678 122.272 65.6461 122.467 65.672C122.732 65.7526 122.978 65.8847 123.192 66.0608C123.406 66.2366 123.581 66.4548 123.707 66.7016C123.769 66.9641 123.769 67.2376 123.707 67.5001C123.591 67.7942 123.36 68.5507 123.066 69.2756C122.772 70.0005 122.467 70.904 122.162 71.6184C121.952 72.1437 121.7 72.6689 121.437 73.1732C121.248 73.4884 121.101 73.5619 120.87 73.5619C120.639 73.5619 120.208 73.5619 119.641 73.5619C119.073 73.5619 118.412 73.667 117.624 73.7616C116.836 73.8561 116.006 73.9717 115.155 74.0452C114.366 74.1398 113.569 74.1398 112.78 74.0452C112.224 73.9376 111.698 73.7119 111.236 73.3833C110.836 73.0984 110.418 72.8388 109.986 72.6059C109.599 72.405 109.185 72.26 108.757 72.1752C108.395 72.0706 108.02 72.0176 107.643 72.0176C107.219 72.0432 106.8 72.1172 106.393 72.2382C106.003 72.3353 105.621 72.4581 105.248 72.6059C104.975 72.6923 104.732 72.8523 104.544 73.0682C104.449 73.2153 104.544 73.3098 104.87 73.3833C105.383 73.4258 105.9 73.4258 106.414 73.3833C106.863 73.4163 107.293 73.5767 107.654 73.8456C107.953 74.0911 108.2 74.3949 108.379 74.7386C108.557 75.0643 108.652 75.3795 108.925 75.5581C109.321 75.7057 109.742 75.777 110.165 75.7682C110.732 75.7682 111.32 75.8837 111.961 75.9888L114.451 76.4616C115.501 76.6612 116.825 76.9343 117.876 77.0814C118.699 77.2165 119.532 77.2833 120.366 77.281C120.886 77.3024 121.406 77.2129 121.889 77.0184C122.024 76.943 122.133 76.8298 122.204 76.6927C122.132 76.8694 122.076 77.0522 122.036 77.239C121.894 77.6645 121.693 78.0678 121.437 78.4367C121.14 78.7798 120.784 79.0679 120.387 79.2876C119.809 79.6764 118.947 80.2437 118.149 80.7374C117.351 81.2312 116.72 81.683 116.048 82.1032L114.251 83.3429C113.6 83.7316 113.001 84.1729 112.371 84.5826C111.822 84.9305 111.254 85.2462 110.669 85.5281C110.533 85.5862 110.392 85.6319 110.249 85.6647C107.811 85.5596 105.363 85.4861 102.894 85.4441C103.178 85.1709 103.472 84.9188 103.777 84.6771C104.186 84.28 104.637 83.9278 105.122 83.6266C106.524 83.0801 108.019 82.809 109.524 82.8281C110.291 82.5129 113.621 80.1911 114.693 79.4557C112.821 79.0093 110.917 78.7142 108.998 78.5732C108.281 78.5347 107.589 78.2944 107.002 77.8798C106.453 77.4501 106.034 76.8751 105.794 76.2199C101.434 76.7978 100.961 72.8791 102.075 71.5658C102.779 70.3472 105.227 69.2545 107.748 69.2545C109.612 69.3904 111.387 70.0985 112.833 71.2822C113.61 71.7024 117.771 70.8619 119.2 70.8619L119.578 69.9269C118.033 69.7798 113.39 67.1008 112.444 64.0646C111.821 62.1111 111.975 59.9925 112.875 58.1499C113.509 56.7846 114.552 55.6501 115.859 54.9035C117.995 53.8687 120.454 53.7214 122.698 54.4938C124.547 55.5444 125.398 56.2693 126.501 59.8623C128.844 60.3257 131.132 61.0298 133.33 61.9635C139.224 64.632 141.987 70.1265 144.634 72.3853C145.716 73.2783 146.62 73.5409 147.817 74.3289C148.863 74.8795 149.752 75.6855 150.402 76.6718C151.052 77.6582 151.442 78.7929 151.537 79.9705L151.579 80.0125Z" fill="#F4F4F4"/>
<path d="M150.507 90.9492C150.338 92.1153 150.181 93.25 150.034 94.2796C149.13 94.0694 148.216 93.8593 147.281 93.6597C147.281 93.5231 147.281 93.3761 147.355 93.2185C147.481 92.399 147.628 91.3799 147.786 90.3188C148.7 90.5185 149.614 90.7286 150.507 90.9492Z" fill="#F4F4F4"/>
<path d="M140.211 177.108C140.211 177.108 142.732 168.703 151.662 170.941C151.673 170.983 149.635 179.23 140.211 177.108Z" fill="#0F7657"/>
<path d="M151.674 186.636C142.219 188.738 140.212 180.48 140.223 180.48C149.142 178.263 151.674 186.636 151.674 186.636Z" fill="#0F7657"/>
<path d="M148.867 80.5695C148.886 81.3986 148.837 82.2279 148.72 83.0489C148.594 84.2886 148.383 86.2006 148.131 88.0076C148.037 88.7851 147.921 89.573 147.816 90.3189C145.4 89.8042 142.92 89.2684 140.368 88.8691C140.368 88.4279 140.368 88.1337 140.368 87.9341C140.368 87.5769 140.199 87.4614 140.073 87.3983C139.947 87.3353 139.8 87.3983 139.538 87.6294C139.275 87.8606 139.086 88.1547 138.718 88.575C135.945 88.1022 133.087 87.6925 130.177 87.3143C130.408 87.0516 130.65 86.789 130.881 86.5473C131.673 85.7042 132.526 84.9211 133.434 84.2045C134.19 83.6162 134.852 83.1539 135.388 82.7547C135.853 82.375 136.215 81.8834 136.438 81.3259C136.496 81.0913 136.496 80.8462 136.438 80.6115C136.394 80.3753 136.289 80.1545 136.134 79.9707C135.722 79.3294 135.173 78.7876 134.526 78.3843C133.658 77.9421 132.763 77.5527 131.847 77.2181C130.972 76.9113 130.157 76.4525 129.441 75.8629C128.859 75.2681 128.328 74.6249 127.855 73.9403C127.508 73.4781 127.372 73.4045 127.267 73.4045C127.162 73.4045 127.141 73.4781 126.973 74.0979C126.804 74.7177 126.542 75.8734 126.269 76.7979C126.036 77.5685 125.744 78.3201 125.397 79.0462C125.149 79.5406 124.857 80.0117 124.525 80.4539C124.314 80.7657 124.067 81.0513 123.789 81.3049C123.427 81.6834 123.037 82.0345 122.623 82.3555C122.006 82.8198 121.352 83.2343 120.669 83.5952C119.86 84.0049 118.915 84.4147 117.959 84.8349C117.003 85.2551 116.225 85.6123 115.374 85.9695L110.363 85.6964C110.507 85.6635 110.647 85.6178 110.783 85.5598C111.368 85.2779 111.936 84.9622 112.485 84.6143C113.115 84.2045 113.714 83.7633 114.366 83.3746L116.162 82.1349C116.782 81.7146 117.402 81.2629 118.263 80.7691C119.125 80.2753 119.923 79.7185 120.501 79.3193C120.898 79.0996 121.254 78.8115 121.552 78.4683C121.807 78.0995 122.008 77.6962 122.15 77.2707C122.19 77.0839 122.246 76.9011 122.318 76.7244C122.248 76.8614 122.138 76.9747 122.003 77.05C121.52 77.2445 121.001 77.3341 120.48 77.3127C119.646 77.3149 118.813 77.2482 117.99 77.1131C116.939 76.966 115.616 76.6928 114.565 76.4932L112.075 76.0205C111.434 75.9154 110.846 75.8419 110.279 75.7999C109.856 75.8087 109.435 75.7374 109.039 75.5897C108.766 75.4111 108.671 75.096 108.493 74.7703C108.314 74.4266 108.068 74.1227 107.768 73.8773C107.407 73.6083 106.977 73.448 106.528 73.415C106.014 73.4575 105.498 73.4575 104.984 73.415C104.69 73.3415 104.564 73.2469 104.658 73.0998C104.846 72.8839 105.089 72.724 105.362 72.6376C105.735 72.4898 106.118 72.367 106.507 72.2699C106.914 72.1489 107.334 72.0749 107.757 72.0493C108.134 72.0493 108.509 72.1023 108.871 72.2069C109.299 72.2917 109.713 72.4367 110.1 72.6376C110.533 72.8705 110.95 73.1301 111.35 73.415C111.812 73.7435 112.339 73.9693 112.895 74.0769C113.683 74.1715 114.48 74.1715 115.269 74.0769C116.12 74.0034 116.96 73.8773 117.738 73.7932C118.515 73.7092 119.188 73.6146 119.755 73.5936C120.322 73.5726 120.806 73.5936 120.984 73.5936C121.163 73.5936 121.362 73.5201 121.552 73.2049C121.814 72.7006 122.066 72.1543 122.276 71.65C122.581 70.9356 122.907 70.0952 123.18 69.3072C123.453 68.5193 123.705 67.8259 123.821 67.5317C123.884 67.2693 123.884 66.9957 123.821 66.7333C123.695 66.4864 123.52 66.2682 123.306 66.0924C123.092 65.9164 122.846 65.7843 122.581 65.7037C122.386 65.6778 122.188 65.6994 122.003 65.7668L121.814 65.8823C121.637 65.9319 121.473 66.0178 121.331 66.1345C121.149 66.296 120.996 66.4879 120.879 66.7018C120.793 66.8525 120.691 66.9934 120.574 67.122C120.437 67.1986 120.277 67.2246 120.123 67.1956C119.848 67.1328 119.586 67.0264 119.345 66.8804C118.828 66.6276 118.326 66.3434 117.843 66.0294C117.237 65.6465 116.676 65.1953 116.173 64.6847C115.741 64.2389 115.405 63.7099 115.185 63.1298C115.009 62.6457 114.93 62.1315 114.954 61.6169C114.964 61.1169 115.049 60.6211 115.206 60.1461C115.388 59.6496 115.635 59.1797 115.941 58.7488C116.221 58.3137 116.577 57.9328 116.992 57.6247C117.4 57.3307 117.865 57.1266 118.358 57.0259C118.876 56.9192 119.405 56.8699 119.934 56.8788C120.452 56.8609 120.971 56.9283 121.467 57.0784C121.92 57.2363 122.323 57.5119 122.634 57.8769C122.912 58.258 123.139 58.675 123.306 59.1166C123.506 59.5893 123.684 60.0936 123.842 60.5453C123.943 60.9417 124.087 61.3257 124.273 61.6905C124.428 61.9663 124.672 62.1811 124.966 62.2998C125.368 62.4746 125.782 62.6186 126.206 62.7306L128.464 63.3609C129.347 63.592 130.324 63.8442 131.217 64.1594C132.131 64.4637 133.006 64.8764 133.822 65.3885C134.847 66.0748 135.817 66.8406 136.722 67.6788C137.666 68.5303 138.558 69.4391 139.39 70.3998C140.115 71.2718 140.63 72.0177 141.071 72.5956C141.448 73.086 141.863 73.5462 142.311 73.9718C142.747 74.4342 143.233 74.8464 143.761 75.201C144.381 75.6107 145.211 76.0415 145.862 76.4407C146.422 76.7422 146.953 77.0938 147.448 77.4913C147.897 77.8055 148.259 78.2284 148.499 78.7205C148.732 79.3096 148.857 79.936 148.867 80.5695V80.5695Z" fill="#A92819"/>
<path d="M148.1 139.696C148.262 140.103 148.306 140.548 148.226 140.978C148.14 141.414 147.923 141.813 147.606 142.123C147.301 142.44 146.904 142.653 146.471 142.733C146.037 142.818 145.588 142.774 145.179 142.606C144.751 142.447 144.383 142.156 144.128 141.777C143.877 141.416 143.745 140.987 143.75 140.547C143.748 140.252 143.806 139.959 143.919 139.687C144.033 139.414 144.201 139.167 144.412 138.961C144.828 138.546 145.39 138.312 145.977 138.31C146.422 138.313 146.856 138.445 147.228 138.688C147.613 138.929 147.916 139.28 148.1 139.696V139.696Z" fill="#A92819"/>
<path d="M147.819 90.3192C147.661 91.3698 147.514 92.4203 147.388 93.2188C147.388 93.3764 147.388 93.5235 147.315 93.66C145.214 93.1838 143.028 92.7495 140.759 92.3573C140.622 91.4538 140.517 90.5923 140.454 89.9515C140.454 89.4997 140.381 89.1425 140.37 88.9009C142.892 89.3106 145.371 89.8044 147.819 90.3192Z" fill="#A92819"/>
<path d="M140.463 89.951C140.526 90.5918 140.631 91.4533 140.768 92.3568C139.854 92.1887 138.94 92.0311 138.015 91.8841L135.421 91.4638C135.589 91.3377 135.778 91.2117 135.946 91.0751C136.767 90.4593 137.54 89.7814 138.257 89.0475L138.677 88.5747L140.379 88.8689C140.348 89.142 140.379 89.4992 140.463 89.951Z" fill="#F4F4F4"/>
<path d="M140.284 87.9863C140.284 88.1859 140.284 88.4801 140.284 88.9213L138.583 88.6271C138.95 88.2069 139.202 87.8602 139.402 87.6816C139.602 87.503 139.791 87.3875 139.938 87.4505C140.085 87.5135 140.242 87.5766 140.284 87.9863Z" fill="#F4F4F4"/>
<path d="M138.635 88.5754L138.215 89.0482C137.497 89.7821 136.724 90.46 135.903 91.0758C135.735 91.2124 135.546 91.3384 135.378 91.4645C132.787 91.0653 130.129 90.7151 127.404 90.4139L127.908 89.8256C128.644 89.0166 129.369 88.1341 130.094 87.3252C133.004 87.6929 135.861 88.1026 138.635 88.5754Z" fill="#A92819"/>
<path d="M137.974 91.8839L137.774 93.0711C135.999 94.4684 134.034 95.561 132.133 96.7902C132.795 98.5792 132.909 100.525 132.458 102.379C132.458 103.125 129.989 110.322 130.136 113.463C132.017 117.298 129.685 119.598 128.035 120.082C125.755 120.754 124.705 119.819 123.076 119.819C122.871 119.829 122.671 119.883 122.488 119.977C121.49 120.379 120.407 120.523 119.338 120.397C118.27 120.27 117.25 119.876 116.374 119.252C115.937 118.916 115.594 118.474 115.375 117.969C115.156 117.463 115.07 116.911 115.124 116.363C115.179 115.814 115.374 115.29 115.691 114.839C116 114.386 116.424 114.023 116.92 113.789C117.557 113.536 118.251 113.463 118.927 113.579C119.662 112.881 120.498 112.297 121.406 111.845C121.669 105.689 121.406 102.211 121.406 97.389C121.311 94.8046 121.406 93.859 121.963 92.7559C122.579 91.8314 123.231 90.9279 123.917 90.0454C125.083 90.1505 126.249 90.2765 127.394 90.4131C126.68 91.2641 126.123 92.0205 125.692 92.5773C125.302 93.0226 124.95 93.5006 124.642 94.0061C124.459 94.3941 124.362 94.817 124.358 95.2458C124.32 95.9457 124.32 96.6471 124.358 97.347C124.442 98.2295 124.442 99.4481 124.442 101.066V110.647C124.403 111.355 124.301 112.059 124.138 112.749C124.073 113.094 123.925 113.419 123.707 113.694C123.433 113.969 123.126 114.209 122.793 114.408C122.341 114.671 121.742 115.039 121.269 115.365C120.934 115.646 120.583 115.909 120.219 116.152C119.695 116.466 119.073 116.571 118.475 116.447C118.296 116.373 118.16 116.373 118.086 116.447C118.066 116.512 118.066 116.581 118.086 116.646C118.066 116.708 118.066 116.774 118.086 116.835C118.186 117.019 118.33 117.175 118.506 117.287C118.752 117.445 119.027 117.553 119.315 117.602C119.633 117.634 119.954 117.634 120.271 117.602C120.583 117.607 120.895 117.568 121.196 117.487C121.522 117.382 121.858 117.214 122.247 117.108C122.654 117.001 123.075 116.954 123.497 116.972C123.909 116.986 124.32 117.032 124.726 117.108L125.619 117.319C125.887 117.393 126.161 117.442 126.438 117.466C126.725 117.485 127.012 117.457 127.289 117.382C127.518 117.317 127.718 117.176 127.857 116.982C127.985 116.782 128.067 116.556 128.098 116.321C128.151 116.096 128.151 115.862 128.098 115.638C128.031 115.375 127.943 115.119 127.836 114.871C127.677 114.581 127.56 114.269 127.489 113.946C127.447 113.443 127.447 112.937 127.489 112.433C127.533 111.728 127.624 111.026 127.762 110.332C127.92 109.513 128.161 108.609 128.392 107.706C128.624 106.802 128.834 105.92 129.096 104.943C129.359 103.966 129.685 102.842 129.863 101.875C130.033 101.025 130.082 100.155 130.01 99.2906C129.945 98.6858 129.801 98.0923 129.58 97.5256C129.423 97.2073 129.283 96.8812 129.159 96.5485C129.096 96.3217 129.096 96.082 129.159 95.8551C129.218 95.6148 129.359 95.4027 129.559 95.2563C129.957 94.9408 130.375 94.6497 130.809 94.3843L133.278 92.84C134.011 92.4486 134.713 92.0026 135.379 91.5057L137.974 91.8839Z" fill="#F4F4F4"/>
<path d="M136.429 80.6326C136.486 80.8673 136.486 81.1123 136.429 81.347C136.205 81.9045 135.843 82.3961 135.378 82.7758C134.842 83.2276 134.18 83.6373 133.424 84.2256C132.516 84.9422 131.663 85.7253 130.871 86.5684C130.64 86.8101 130.398 87.0727 130.167 87.3353L126.49 86.9361C126.858 86.5159 127.236 86.1062 127.614 85.6859C129.18 83.8789 130.974 82.2827 132.951 80.9373C131.732 80.1178 130.503 80.1598 128.381 78.8361C127.769 80.8167 126.628 82.5928 125.082 83.9735C123.922 84.9819 122.619 85.8138 121.216 86.4423C119.283 86.2743 117.325 86.1237 115.343 85.9906C116.194 85.6334 117.056 85.2447 117.928 84.856C118.8 84.4672 119.829 84.026 120.638 83.6163C121.328 83.2324 121.985 82.7932 122.603 82.303C123.017 81.9821 123.407 81.6309 123.769 81.2525C124.047 80.9989 124.294 80.7132 124.504 80.4015C124.837 79.9592 125.128 79.4881 125.376 78.9937C125.724 78.2677 126.016 77.516 126.248 76.7454C126.521 75.8209 126.795 74.6443 126.952 74.0454C127.11 73.4466 127.152 73.3521 127.246 73.3521C127.341 73.3521 127.488 73.4256 127.835 73.8879C128.315 74.5733 128.853 75.2165 129.442 75.8104C130.158 76.4001 130.973 76.8589 131.848 77.1657C132.764 77.5003 133.658 77.8897 134.527 78.3318C135.174 78.7351 135.723 79.277 136.134 79.9182C136.298 80.124 136.4 80.3716 136.429 80.6326Z" fill="#F4F4F4"/>
<path d="M127.173 177.108C127.173 177.108 129.684 168.703 138.603 170.941C138.603 170.983 136.575 179.23 127.173 177.108Z" fill="#0F7657"/>
<path d="M138.603 186.636C129.148 188.738 127.173 180.48 127.173 180.48C136.082 178.263 138.603 186.636 138.603 186.636Z" fill="#0F7657"/>
<path d="M127.406 90.4028C130.13 90.711 132.788 91.0612 135.38 91.4534C134.714 91.9503 134.011 92.3963 133.278 92.7877L130.81 94.332C130.376 94.5973 129.958 94.8885 129.559 95.204C129.36 95.3504 129.219 95.5625 129.16 95.8028C129.097 96.0297 129.097 96.2694 129.16 96.4962C129.283 96.8289 129.424 97.155 129.58 97.4733C129.801 98.04 129.946 98.6335 130.011 99.2383C130.083 100.102 130.034 100.972 129.864 101.823C129.685 102.81 129.36 103.924 129.097 104.89C128.834 105.857 128.614 106.76 128.393 107.653C128.173 108.546 127.92 109.46 127.763 110.28C127.625 110.973 127.534 111.675 127.49 112.381C127.448 112.884 127.448 113.391 127.49 113.894C127.561 114.217 127.678 114.528 127.836 114.818C127.944 115.067 128.032 115.323 128.099 115.585C128.151 115.81 128.151 116.044 128.099 116.268C128.068 116.504 127.986 116.73 127.857 116.93C127.719 117.124 127.519 117.264 127.29 117.329C127.013 117.404 126.725 117.433 126.439 117.413C126.162 117.39 125.888 117.341 125.62 117.266L124.727 117.056C124.321 116.98 123.91 116.934 123.497 116.92C123.076 116.902 122.655 116.948 122.247 117.056C121.869 117.161 121.533 117.329 121.197 117.434C120.895 117.515 120.584 117.554 120.272 117.55C119.954 117.581 119.634 117.581 119.316 117.55C119.028 117.5 118.753 117.393 118.507 117.235C118.331 117.122 118.186 116.967 118.087 116.783C118.067 116.722 118.067 116.655 118.087 116.594C118.067 116.529 118.067 116.459 118.087 116.394C118.16 116.321 118.297 116.321 118.476 116.394C119.073 116.519 119.696 116.414 120.22 116.1C120.584 115.856 120.934 115.593 121.27 115.312C121.743 114.987 122.321 114.619 122.794 114.356C123.127 114.157 123.434 113.917 123.708 113.642C123.926 113.366 124.074 113.042 124.138 112.696C124.302 112.006 124.403 111.303 124.443 110.595V101.024C124.443 99.3853 124.443 98.1877 124.359 97.3052C124.32 96.6053 124.32 95.9039 124.359 95.204C124.363 94.7752 124.46 94.3523 124.643 93.9643C124.951 93.4588 125.303 92.9807 125.693 92.5355C126.134 92.0102 126.691 91.2538 127.406 90.4028Z" fill="#A92819"/>
<path d="M128.382 78.7627C130.483 80.1074 131.733 80.0654 132.952 80.8639C130.975 82.2093 129.181 83.8055 127.615 85.6125C127.236 86.0327 126.858 86.4425 126.49 86.8627C124.757 86.6736 123.003 86.5055 121.238 86.3479C122.641 85.7194 123.943 84.8875 125.104 83.879C126.639 82.5016 127.772 80.7333 128.382 78.7627Z" fill="#A92819"/>
<path d="M126.491 86.936L130.094 87.3668C129.369 88.1757 128.644 89.0582 127.909 89.8672L127.405 90.4555C126.26 90.3189 125.093 90.1929 123.927 90.0878C124.705 88.9532 125.598 87.9026 126.491 86.936Z" fill="#F4F4F4"/>
<path d="M126.492 86.9362C125.599 87.9868 124.737 89.0373 123.928 90.0879C122.878 89.9724 121.743 89.8673 120.64 89.7833C118.602 89.5942 116.543 89.4471 114.441 89.321C116.353 88.5331 118.948 87.5455 121.218 86.4214C123.004 86.5264 124.758 86.6945 126.492 86.9362Z" fill="#A92819"/>
<path d="M114.113 177.108C114.113 177.108 116.624 168.703 125.554 170.941C125.554 170.983 123.526 179.23 114.113 177.108Z" fill="#0F7657"/>
<path d="M125.554 186.636C116.099 188.738 114.113 180.48 114.113 180.48C123.043 178.263 125.554 186.636 125.554 186.636Z" fill="#0F7657"/>
<path d="M120.64 89.7307C118.718 90.7813 115.177 91.9264 114.862 92.1995C114.178 93.4658 113.176 94.5319 111.955 95.2928C110.733 96.0537 109.335 96.483 107.897 96.5385C106.604 96.6645 103.001 96.8852 101.593 96.0552C100.846 95.7214 100.178 95.2321 99.6342 94.6197C99.0907 94.0074 98.684 93.2862 98.4414 92.5042C98.4414 92.5042 98.4414 92.3992 98.4414 92.3361C98.6806 91.5617 98.7593 90.7466 98.6725 89.9408C98.6305 89.5563 98.5531 89.1765 98.4414 88.8062H98.6305H101.509C101.264 89.1185 101.083 89.4753 100.973 89.8567C100.843 90.3669 100.843 90.9015 100.973 91.4116C101.101 91.9147 101.354 92.3773 101.709 92.7564C102.064 93.1284 102.509 93.4033 103.001 93.5548C103.642 93.933 108.958 93.8805 110.155 92.998C111.237 92.3523 112.101 91.3972 112.635 90.256C112.954 89.9814 113.307 89.7484 113.685 89.5626L114.515 89.2054C116.543 89.3945 118.602 89.5416 120.64 89.7307Z" fill="#A92819"/>
<path d="M121.216 86.3688C118.947 87.4929 116.352 88.47 114.44 89.2684C113.039 89.1843 111.639 89.1108 110.238 89.0478C110.325 88.8903 110.423 88.7393 110.532 88.596C110.814 88.263 111.143 87.9728 111.509 87.7345C111.885 87.4252 112.294 87.1575 112.728 86.9361C113.327 86.6629 114.188 86.3583 115.102 85.9801L115.344 85.875C117.333 86.0431 119.29 86.2077 121.216 86.3688Z" fill="#F4F4F4"/>
<path d="M98.8291 1.1665L117.519 19.8669L98.8291 38.6094L80.1287 19.8669L98.8291 1.1665ZM98.8291 35.0374L114 19.8669L98.8291 4.68597L83.6481 19.8669L98.8291 35.0374Z" fill="#179E6C"/>
<path d="M116.973 143.804C117.146 144.213 117.193 144.664 117.109 145.1C117.025 145.536 116.813 145.937 116.5 146.252C116.185 146.561 115.787 146.772 115.355 146.861C114.921 146.946 114.472 146.903 114.063 146.735C113.787 146.608 113.54 146.426 113.337 146.199C113.134 145.973 112.98 145.708 112.884 145.42C112.787 145.132 112.751 144.827 112.776 144.525C112.802 144.222 112.889 143.928 113.033 143.66C113.176 143.392 113.373 143.157 113.611 142.968C113.849 142.779 114.123 142.641 114.416 142.562C114.709 142.483 115.016 142.465 115.316 142.509C115.617 142.552 115.905 142.657 116.164 142.816C116.529 143.054 116.812 143.399 116.973 143.804Z" fill="#A92819"/>
<path d="M115.345 85.8854L115.104 85.9905C114.19 86.3687 113.328 86.6734 112.729 86.9465C112.29 87.1533 111.874 87.4069 111.49 87.7029C111.124 87.9412 110.795 88.2314 110.512 88.5644C110.404 88.7077 110.305 88.8587 110.218 89.0162L107.224 88.9111C107.307 88.753 107.363 88.5828 107.392 88.4068C107.466 88.1422 107.466 87.8625 107.392 87.5979C107.38 87.5532 107.359 87.5114 107.33 87.4753C107.301 87.4391 107.265 87.4093 107.224 87.3878C107.18 87.3678 107.131 87.3574 107.082 87.3574C107.033 87.3574 106.985 87.3678 106.941 87.3878C106.627 87.481 106.324 87.6078 106.037 87.766C105.765 87.8909 105.484 87.9962 105.197 88.0811C105.031 88.1221 104.858 88.1221 104.692 88.0811C104.598 88.0811 104.598 87.9446 104.692 87.787C104.904 87.5807 105.129 87.3878 105.365 87.2092L106.069 86.6313C106.289 86.3896 106.562 86.2026 106.867 86.085C107.307 85.9479 107.762 85.8667 108.222 85.8434L109.767 85.7173C109.958 85.7282 110.15 85.7069 110.334 85.6543L115.345 85.8854Z" fill="#A92819"/>
<path d="M114.442 89.2684L113.612 89.6256C113.234 89.8114 112.881 90.0444 112.562 90.319C112.028 91.4602 111.164 92.4153 110.082 93.061C108.884 93.9435 103.568 93.996 102.928 93.6178C102.436 93.4663 101.991 93.1914 101.635 92.8193C101.281 92.4403 101.028 91.9777 100.9 91.4746C100.77 90.9644 100.77 90.4299 100.9 89.9197C101.009 89.5383 101.191 89.1815 101.436 88.8691C103.358 88.8691 105.27 88.8691 107.151 88.9952C107.073 89.1538 106.97 89.2992 106.846 89.426C106.534 89.6573 106.176 89.8185 105.796 89.8987C105.375 90.0038 104.903 90.1298 104.546 90.2454C104.29 90.3014 104.05 90.4126 103.842 90.5711C103.758 90.6972 103.674 90.8022 103.758 90.9598C103.842 91.1174 104.052 91.1069 104.745 91.1069C105.439 91.1069 106.605 91.0018 107.372 91.0018C107.879 90.9991 108.381 90.888 108.842 90.6761C109.185 90.4842 109.474 90.2098 109.683 89.8777C109.83 89.6361 109.977 89.3524 110.124 89.1003C111.616 89.1283 113.055 89.1843 114.442 89.2684Z" fill="#F4F4F4"/>
<path d="M111.141 179.482L99.8055 190.818L88.4697 179.482L99.8055 168.167L111.141 179.482ZM99.8055 187.309L107.622 179.482L99.8055 171.676L91.9892 179.482L99.8055 187.309Z" fill="#179E6C"/>
<path d="M110.333 85.6437C110.149 85.6963 109.957 85.7176 109.766 85.7068L108.221 85.8328C107.761 85.8561 107.306 85.9373 106.866 86.0745C106.561 86.192 106.288 86.379 106.068 86.6208L105.364 87.1986C105.128 87.3772 104.903 87.5702 104.691 87.7764C104.597 87.934 104.597 88.0706 104.691 88.0706C104.857 88.1115 105.03 88.1115 105.196 88.0706C105.483 87.9856 105.764 87.8803 106.036 87.7554C106.323 87.5973 106.626 87.4705 106.94 87.3772C106.984 87.3572 107.033 87.3468 107.081 87.3468C107.13 87.3468 107.179 87.3572 107.223 87.3772C107.264 87.3987 107.3 87.4285 107.329 87.4647C107.358 87.5009 107.379 87.5426 107.391 87.5873C107.465 87.852 107.465 88.1316 107.391 88.3963C107.362 88.5722 107.306 88.7424 107.223 88.9005C105.343 88.827 103.431 88.7955 101.508 88.7745C101.572 88.6824 101.642 88.5947 101.718 88.5118C101.633 88.0453 101.658 87.5656 101.789 87.11C101.92 86.6544 102.155 86.2353 102.475 85.8854L102.958 85.4126C105.448 85.4651 107.896 85.5387 110.333 85.6437Z" fill="#F4F4F4"/>
<path d="M110.218 89.0372C110.071 89.2893 109.924 89.573 109.777 89.8146C109.568 90.1467 109.279 90.4212 108.937 90.6131C108.475 90.8249 107.974 90.936 107.466 90.9387C106.699 90.9387 105.543 91.0438 104.839 91.0438C104.135 91.0438 103.936 91.0438 103.852 90.8967C103.768 90.7496 103.852 90.6341 103.936 90.508C104.144 90.3495 104.384 90.2383 104.64 90.1823C104.997 90.0668 105.47 89.9407 105.89 89.8356C106.27 89.7555 106.628 89.5942 106.94 89.3629C107.064 89.2361 107.167 89.0908 107.245 88.9321L110.218 89.0372Z" fill="#A92819"/>
<path d="M98.8279 13.605L105.079 19.8665L98.8279 26.1175L92.5664 19.8665L98.8279 13.605Z" fill="#2A3277"/>
<path d="M99.8008 175.947L96.2648 179.483L99.8008 183.02L103.337 179.483L99.8008 175.947Z" fill="#2A3277"/>
<path d="M102.959 85.4231L102.476 85.8959C102.151 86.2493 101.914 86.6737 101.782 87.1352C101.651 87.5967 101.629 88.0825 101.719 88.5539C101.643 88.6367 101.573 88.7244 101.509 88.8165H98.6305H98.4414C98.5681 88.4212 98.7372 88.0408 98.9457 87.6819C98.9687 86.889 99.1546 86.1094 99.492 85.3916C100.669 85.3916 101.814 85.4021 102.959 85.4231Z" fill="#A92819"/>
<path d="M98.5752 85.3916H99.4892C99.151 86.1022 98.9616 86.8744 98.9324 87.6609C98.7275 88.0202 98.562 88.4006 98.4386 88.7955V88.7955C98.3111 88.4022 98.1457 88.0222 97.9449 87.6609C97.92 86.8738 97.7303 86.1008 97.3881 85.3916H98.5752Z" fill="#0F7657"/>
<path d="M98.6806 89.9408C98.764 90.7474 98.6817 91.5624 98.439 92.3361C98.439 92.3992 98.439 92.4517 98.439 92.5042C98.439 92.5567 98.439 92.3992 98.439 92.3361C98.2277 91.5527 98.1671 90.7363 98.2604 89.9303C98.2843 89.5508 98.3441 89.1744 98.439 88.8062C98.5543 89.1761 98.6351 89.556 98.6806 89.9408V89.9408Z" fill="#A92819"/>
<path d="M98.4396 88.7954C98.3163 89.1608 98.2283 89.5373 98.177 89.9195C98.0837 90.7256 98.1443 91.542 98.3556 92.3254C98.3556 92.3884 98.3556 92.4409 98.3556 92.4935C98.1267 93.2415 97.7478 93.9349 97.242 94.5316C96.7048 95.171 96.039 95.69 95.2879 96.055C93.8171 96.8849 90.2136 96.6643 88.9213 96.5382C87.4953 96.497 86.1047 96.0842 84.8871 95.3406C83.6633 94.5849 82.6568 93.5242 81.9665 92.2623C81.6303 91.9892 78.1003 90.7915 76.1777 89.7935C78.2019 89.6184 80.2505 89.4643 82.3237 89.3312L83.1851 89.6989C83.5427 89.8824 83.8747 90.112 84.1727 90.3818C84.7048 91.5269 85.5686 92.4859 86.6521 93.1343C87.8602 94.0168 93.1762 94.0694 93.8066 93.6911C94.2939 93.5396 94.7352 93.2676 95.0896 92.9003C95.4439 92.5331 95.7001 92.0824 95.8342 91.59C95.9636 91.1186 95.9817 90.6236 95.8869 90.144C95.792 89.6645 95.587 89.2136 95.2879 88.8269C96.3385 88.8059 97.3891 88.7954 98.4396 88.7954Z" fill="#A92819"/>
<path d="M97.9448 87.6609C98.1457 88.0222 98.3111 88.4022 98.4386 88.7955C97.388 88.7955 96.3374 88.7955 95.2869 88.7955L95.0978 88.5644C95.1841 88.0923 95.1589 87.6066 95.0242 87.1461C94.897 86.6827 94.6591 86.2573 94.3308 85.9064C94.1627 85.7278 93.9946 85.5492 93.816 85.3916C95.0137 85.3916 96.2114 85.3916 97.4195 85.3916C97.7509 86.1031 97.9298 86.8761 97.9448 87.6609Z" fill="#A92819"/>
<path d="M98.1162 73.2783C98.1178 73.5915 98.0932 73.9043 98.0427 74.2134C97.8817 75.0982 97.5226 75.935 96.9921 76.6612C96.4736 77.3922 95.7989 77.9987 95.017 78.4367C94.232 78.8689 93.359 79.1168 92.464 79.1616C92.0417 79.6731 91.5333 80.1069 90.9617 80.4433C91.7608 80.634 92.5261 80.9458 93.231 81.3678C93.765 81.6945 94.2617 82.0785 94.7123 82.513C95.3516 83.0016 95.9491 83.5428 96.4983 84.1309C96.8492 84.5107 97.1494 84.9345 97.3913 85.3916C96.1831 85.3916 94.9854 85.3916 93.7878 85.3916C93.5201 85.1359 93.2396 84.8939 92.9473 84.6667C92.5418 84.2606 92.0864 83.9076 91.5921 83.6161C90.1991 83.0612 88.7104 82.7863 87.2111 82.8071C85.4249 81.772 83.6927 80.6464 82.0212 79.4348C83.8964 78.9918 85.8041 78.7002 87.7259 78.5628C88.4442 78.5206 89.1361 78.2767 89.722 77.8589C90.3217 77.4694 90.796 76.9148 91.0878 76.262C95.4372 76.8398 95.91 72.9211 94.8068 71.6079C94.0924 70.3787 91.6026 69.2966 89.1337 69.2966C87.2684 69.4242 85.4901 70.1333 84.0489 71.3242C83.2819 71.7445 79.1006 70.904 77.6718 70.904C77.4407 70.3052 77.3986 70.2421 77.3041 69.969C78.901 69.8219 83.5025 67.1429 84.4901 64.0647C85.1157 62.1105 84.9574 59.9897 84.0489 58.1499C83.4149 56.7846 82.3723 55.6502 81.0652 54.9036C78.9235 53.8826 76.4647 53.7504 74.2259 54.5359C72.3558 55.5865 71.5259 56.3009 70.4228 59.8624C68.0811 60.3291 65.793 61.0332 63.594 61.9635C57.6687 64.632 54.9161 70.1266 52.2161 72.3853C51.1655 73.2783 50.22 73.541 48.9803 74.3289C47.9388 74.8841 47.0528 75.6913 46.4032 76.6767C45.7536 77.6621 45.361 78.7945 45.2612 79.9706C45.0511 81.3153 45.713 86.3791 46.3118 90.9492C45.4013 91.1593 44.4978 91.3799 43.6013 91.6111C42.9079 86.9465 42.099 81.4414 42.4352 79.4978C42.571 78.0511 43.0341 76.6542 43.7895 75.4129C44.5448 74.1716 45.5726 73.1183 46.7951 72.3328C48.3079 71.1562 49.9468 70.7569 50.6928 69.8534C52.6468 67.6052 56.4815 61.9425 62.722 59.19C64.5162 58.5277 66.3473 57.97 68.206 57.5196C68.649 56.0134 69.4848 54.6523 70.6276 53.5759C71.7705 52.4995 73.1792 51.7466 74.7091 51.3946C77.3757 50.8635 80.1435 51.2563 82.557 52.5083C84.0613 53.4167 85.3061 54.6976 86.171 56.2273C87.1719 57.8845 87.6955 59.786 87.6839 61.7219C87.6665 63.5852 87.1239 65.4059 86.1185 66.9748C88.2803 66.2235 90.637 66.2533 92.7792 67.0589C96.5823 68.2986 97.4333 70.3367 97.864 71.4923C98.0384 72.0714 98.1235 72.6736 98.1162 73.2783V73.2783Z" fill="#A92819"/>
<path d="M95.8235 89.9618C95.9495 90.4724 95.9495 91.006 95.8235 91.5167C95.6894 92.0091 95.4333 92.4598 95.0789 92.827C94.7245 93.1943 94.2832 93.4663 93.7959 93.6178C93.1655 93.9961 87.8496 93.9435 86.6414 93.061C85.5579 92.4126 84.6941 91.4536 84.162 90.3085C83.8641 90.0387 83.5321 89.8091 83.1745 89.6256L82.313 89.2579C83.7628 89.1739 85.2126 89.0898 86.6624 89.0268C86.82 89.2894 86.9566 89.5731 87.1037 89.8042C87.3168 90.1367 87.6092 90.4111 87.9546 90.6027C88.4101 90.8118 88.9034 90.9262 89.4044 90.9389C90.1819 90.9389 91.3585 91.0334 92.0309 91.0334C92.7033 91.0334 92.9449 91.0334 93.0815 90.8863C93.1074 90.8187 93.1074 90.7439 93.0815 90.6762C93.0591 90.6106 93.0191 90.5525 92.9659 90.5081C92.7558 90.3506 92.5166 90.2363 92.262 90.1719L91.0118 89.8252C90.6313 89.7463 90.2727 89.585 89.9613 89.3525C89.8321 89.2242 89.7256 89.075 89.6461 88.9112C91.4951 88.8482 93.3546 88.7957 95.2352 88.7852C95.509 89.1334 95.7092 89.5338 95.8235 89.9618V89.9618Z" fill="#F4F4F4"/>
<path d="M95.0781 88.5958L95.2672 88.827C93.3867 88.827 91.5272 88.89 89.6781 88.953C89.6019 88.7997 89.5454 88.6373 89.51 88.4698C89.4366 88.2051 89.4366 87.9255 89.51 87.6608C89.5041 87.619 89.5041 87.5766 89.51 87.5348L89.6256 87.4297C89.6707 87.4206 89.7171 87.4206 89.7622 87.4297H89.9092C90.2215 87.5274 90.524 87.654 90.8127 87.8079C91.0771 87.9346 91.3511 88.04 91.6322 88.1231C91.7978 88.164 91.9709 88.164 92.1365 88.1231C92.2415 88.1231 92.2415 87.9865 92.1365 87.8394C91.9387 87.6222 91.7166 87.4283 91.4746 87.2616L90.7812 86.6733C90.5772 86.4291 90.3227 86.232 90.0353 86.0954C89.5898 85.9723 89.1315 85.9018 88.6696 85.8853L87.1252 85.7698C86.9232 85.7719 86.7218 85.7472 86.5264 85.6962C88.9357 85.5772 91.3591 85.4966 93.7964 85.4546C93.975 85.6122 94.1431 85.7908 94.3112 85.9694C94.6394 86.3203 94.8774 86.7457 95.0046 87.2091C95.1344 87.6597 95.1596 88.134 95.0781 88.5958Z" fill="#F4F4F4"/>
<path d="M94.7718 71.6079C95.8224 72.9211 95.4022 76.8608 91.0527 76.262C90.7809 76.9286 90.321 77.5017 89.729 77.9114C89.1431 78.3292 88.4512 78.5731 87.7329 78.6153C85.811 78.7527 83.9033 79.0443 82.0282 79.4873C83.6997 80.6989 85.4319 81.8245 87.2181 82.8597C88.7174 82.8388 90.2061 83.1137 91.599 83.6686C92.0934 83.9601 92.5488 84.3131 92.9543 84.7192C93.2466 84.9464 93.5271 85.1884 93.7948 85.4441C91.3574 85.4861 88.9341 85.5667 86.5247 85.6857L86.136 85.5492C85.5542 85.2672 84.9895 84.9515 84.4446 84.6036C83.8037 84.1939 83.2049 83.7632 82.5535 83.3744L80.757 82.1032C80.1477 81.683 79.5068 81.2417 78.6558 80.7375C77.8049 80.2332 76.9854 79.6869 76.4286 79.2877C76.0317 79.067 75.6763 78.7791 75.378 78.4367C75.1261 78.0627 74.9347 77.6515 74.8107 77.218C74.7765 77.0286 74.7164 76.8448 74.6321 76.6717C74.7015 76.817 74.8208 76.9326 74.9683 76.9974C75.4473 77.1945 75.9637 77.2842 76.4811 77.26C77.3117 77.2619 78.1409 77.1951 78.9605 77.0604C80.0111 76.9133 81.3348 76.6402 82.3854 76.4406L84.8753 75.9678C85.5162 75.8627 86.1045 75.7892 86.6718 75.7472C87.0912 75.757 87.5086 75.6856 87.901 75.5371C88.1455 75.3195 88.333 75.0453 88.4473 74.7386C88.6191 74.3905 88.8668 74.0853 89.1722 73.8456C89.5297 73.5721 89.9622 73.4145 90.4119 73.3939C90.9225 73.4312 91.4351 73.4312 91.9457 73.3939C92.2504 73.3203 92.366 73.2153 92.2714 73.0682C92.0856 72.8551 91.8462 72.6955 91.578 72.6059C91.1998 72.4694 90.8216 72.3433 90.4224 72.2382C90.0232 72.1165 89.6102 72.0459 89.1932 72.0281C88.8169 72.0245 88.442 72.0741 88.0796 72.1752C87.6547 72.2713 87.2423 72.4158 86.8504 72.6059C86.4177 72.8424 86.0002 73.1056 85.6002 73.3939C85.1419 73.719 84.6186 73.9412 84.0663 74.0452C83.2749 74.1502 82.473 74.1502 81.6815 74.0452C80.8305 73.9717 79.9901 73.8456 79.2126 73.7616C78.4352 73.6775 77.7628 73.5935 77.2165 73.562C76.6702 73.5304 76.1659 73.562 75.9663 73.562C75.7667 73.562 75.5986 73.4884 75.4095 73.1733C75.1776 72.6968 74.9775 72.2054 74.8107 71.7024C74.5165 70.9985 74.1698 70.1581 73.8967 69.3701C73.6235 68.5822 73.3714 67.8888 73.2558 67.5841C73.2032 67.3241 73.2032 67.0562 73.2558 66.7962C73.3831 66.5326 73.5702 66.3024 73.8021 66.1238C74.0086 65.9498 74.2534 65.8273 74.5165 65.7666C74.7078 65.7349 74.9042 65.7567 75.0838 65.8297C75.2533 65.8819 75.4105 65.9676 75.5461 66.0818C75.728 66.2465 75.8838 66.4377 76.0084 66.6491C76.0943 66.7999 76.1965 66.9408 76.313 67.0693C76.3791 67.1123 76.455 67.1376 76.5337 67.1429C76.6093 67.1639 76.6892 67.1639 76.7648 67.1429C77.0343 67.0754 77.2926 66.9692 77.5317 66.8277C78.0494 66.5749 78.5511 66.2908 79.034 65.9767C79.6405 65.5939 80.201 65.1427 80.7045 64.632C81.1616 64.1946 81.5198 63.6644 81.7551 63.0771C81.9229 62.5912 81.9977 62.0779 81.9757 61.5643C81.9573 60.5396 81.6396 59.5426 81.0617 58.6962C80.7751 58.2667 80.4202 57.887 80.0111 57.5721C79.5871 57.2794 79.1082 57.0757 78.6033 56.9732C78.0814 56.8669 77.5495 56.8176 77.0169 56.8261C76.4982 56.809 75.9801 56.8764 75.4831 57.0257C75.0396 57.1845 74.6475 57.4604 74.3484 57.8242C74.0556 58.2015 73.8185 58.619 73.6445 59.0639C73.4449 59.5367 73.2663 60.0409 73.1192 60.4927C73.0131 60.8875 72.8689 61.271 72.6885 61.6378C72.5358 61.9158 72.2904 62.1314 71.9951 62.2472C71.5898 62.422 71.1719 62.5659 70.7449 62.6779L68.4967 63.3083C67.6142 63.5394 66.6371 63.7915 65.7441 64.1067C64.8279 64.4148 63.9502 64.8272 63.1282 65.3359C62.1084 66.0249 61.1426 66.7906 60.2391 67.6262C59.2723 68.4826 58.3633 69.4021 57.518 70.3787C56.7826 71.2507 56.2889 71.9966 55.8266 72.5744C55.4412 73.0542 55.0272 73.5103 54.5869 73.9402C54.1523 74.396 53.6738 74.8078 53.1581 75.1694C52.5173 75.5896 51.6978 76.0098 51.0569 76.4196C50.498 76.722 49.9671 77.0736 49.4706 77.4701C49.0373 77.7912 48.6937 78.218 48.4725 78.7098C48.2052 79.3181 48.0486 79.9691 48.0102 80.6324C47.9911 81.465 48.0403 82.2978 48.1573 83.1223C48.2834 84.3515 48.483 86.211 48.7352 88.0706C48.8402 88.8585 48.9558 89.6569 49.0713 90.4134L46.3713 91.0332C45.741 86.4632 45.0791 81.3993 45.3207 80.0546C45.4004 78.87 45.7771 77.7245 46.4161 76.7239C47.055 75.7232 47.9357 74.8996 48.9768 74.3289C50.2165 73.541 51.162 73.2783 52.2126 72.3853C54.8811 70.1266 57.6336 64.632 63.5274 61.9635C65.7264 61.0331 68.0145 60.3291 70.3562 59.8623C71.4068 56.3008 72.2893 55.5444 74.1593 54.5359C76.3982 53.7503 78.8569 53.8825 80.9986 54.9036C82.3057 55.6502 83.3484 56.7846 83.9823 58.1499C84.8909 59.9896 85.0491 62.1105 84.4236 64.0647C83.436 67.1429 78.8344 69.8219 77.2375 69.969C77.3321 70.2421 77.3741 70.3052 77.6052 70.904C79.034 70.904 83.2154 71.7445 83.9823 71.3242C85.4235 70.1333 87.2019 69.4242 89.0671 69.2966C91.5675 69.2966 94.0574 70.3787 94.7718 71.6079Z" fill="#F4F4F4"/>
<path d="M93.0811 90.7181C93.107 90.7858 93.107 90.8606 93.0811 90.9282C92.997 91.0753 92.7764 91.0753 92.0305 91.0753C91.2846 91.0753 90.1815 90.9808 89.404 90.9808C88.8959 90.971 88.3952 90.8565 87.9332 90.6446C87.5878 90.453 87.2954 90.1786 87.0822 89.8461C86.9352 89.615 86.7986 89.3313 86.641 89.0687L89.6457 88.9531C89.7252 89.1169 89.8317 89.2661 89.9608 89.3944C90.2723 89.6269 90.6309 89.7883 91.0114 89.8671L92.2616 90.2138C92.5162 90.2783 92.7554 90.3925 92.9655 90.55C93.0187 90.5944 93.0587 90.6526 93.0811 90.7181Z" fill="#A92819"/>
<path d="M92.3675 73.0682C92.4621 73.2152 92.3675 73.3203 92.0418 73.3938C91.5312 73.4312 91.0186 73.4312 90.508 73.3938C90.0583 73.4144 89.6257 73.5721 89.2683 73.8456C88.9629 74.0853 88.7152 74.3904 88.5434 74.7386C88.4291 75.0453 88.2416 75.3194 87.9971 75.537C87.6047 75.6856 87.1873 75.7569 86.7679 75.7471C86.2006 75.7471 85.6122 75.8627 84.9714 75.9678L82.4815 76.43C81.4309 76.6296 80.1072 76.9028 79.0566 77.0499C78.237 77.1845 77.4077 77.2513 76.5772 77.2495C76.0598 77.2737 75.5433 77.184 75.0644 76.9868C74.9169 76.922 74.7976 76.8065 74.7282 76.6612C74.8124 76.8342 74.8725 77.018 74.9068 77.2075C75.0308 77.6409 75.2222 78.0522 75.4741 78.4261C75.7723 78.7685 76.1278 79.0565 76.5247 79.2771C77.0815 79.6658 77.943 80.2331 78.7519 80.7269C79.5609 81.2207 80.1912 81.6724 80.8531 82.0927L82.6496 83.3429C83.3009 83.7316 83.8998 84.1623 84.5406 84.5721C85.0855 84.9199 85.6503 85.2356 86.2321 85.5176L86.6208 85.6542C84.9399 85.7277 83.2694 85.8118 81.6095 85.9273C80.769 85.5701 79.9075 85.1814 79.0356 84.7927C78.1636 84.404 77.134 83.9627 76.3461 83.553C75.6237 83.2046 74.9315 82.797 74.2764 82.3343C73.8602 82.0159 73.4703 81.6645 73.1103 81.2837C72.8272 81.0391 72.5797 80.7562 72.3749 80.4433C72.0749 79.9867 71.8148 79.5051 71.5974 79.004C71.2629 78.2748 70.9786 77.5236 70.7464 76.7557C70.4523 75.8312 70.1686 74.6545 70.0215 74.0557C69.8745 73.4569 69.8219 73.3623 69.7274 73.3623C69.6328 73.3623 69.4962 73.4359 69.139 73.8981C68.6658 74.5858 68.1313 75.2293 67.5422 75.8207C66.8022 76.4153 65.9628 76.8742 65.0628 77.1759C64.1313 77.4879 63.2252 77.8707 62.3523 78.3211C61.7003 78.7212 61.1472 79.2635 60.7344 79.9075C60.5813 80.0925 60.4766 80.3128 60.4297 80.5483C60.3718 80.7829 60.3718 81.0281 60.4297 81.2627C60.6521 81.818 61.0139 82.3065 61.4803 82.681C62.0161 83.1433 62.6885 83.5425 63.4344 84.1308C64.3409 84.8566 65.1973 85.6428 65.9978 86.4841C66.2394 86.7363 66.4811 87.0094 66.7332 87.2931C63.8231 87.6503 60.997 88.081 58.2235 88.5328C57.8347 88.0915 57.5721 87.7343 57.3725 87.5557C57.1729 87.3771 56.9733 87.2616 56.8367 87.3141C56.7001 87.3666 56.5951 87.5032 56.5425 87.8499C56.49 88.1966 56.5425 88.3647 56.5425 88.8374C53.9511 89.2997 51.4332 89.797 48.9888 90.3293C48.8733 89.5729 48.7577 88.7744 48.6526 87.9865C48.4005 86.1269 48.2009 84.2674 48.0748 83.0382C47.9904 82.2392 47.9693 81.4347 48.0118 80.6324C48.0596 79.9863 48.2196 79.3535 48.4845 78.7623C48.6907 78.2588 49.0237 77.8173 49.4511 77.4806C49.9476 77.084 50.4785 76.7324 51.0375 76.43C51.6993 76.0203 52.5188 75.6001 53.1386 75.1798C53.6616 74.8193 54.1472 74.4076 54.5884 73.9506C55.0288 73.5207 55.4427 73.0647 55.8281 72.5849C56.2904 72.0071 56.7842 71.2611 57.5196 70.3892C58.3649 69.4126 59.2738 68.4931 60.2406 67.6366C61.1441 66.801 62.11 66.0354 63.1297 65.3463C63.9517 64.8377 64.8294 64.4252 65.7457 64.1172C66.6387 63.802 67.6157 63.5498 68.4982 63.3187L70.7464 62.6884C71.1734 62.5764 71.5913 62.4324 71.9966 62.2576C72.292 62.1419 72.5373 61.9263 72.69 61.6483C72.8704 61.2814 73.0147 60.8979 73.1208 60.5031C73.2679 60.0514 73.4465 59.5471 73.6461 59.0744C73.82 58.6295 74.0571 58.212 74.35 57.8347C74.649 57.4709 75.0412 57.1949 75.4846 57.0362C75.9816 56.8868 76.4997 56.8194 77.0184 56.8366C77.551 56.828 78.0829 56.8774 78.6048 56.9837C79.1097 57.0862 79.5886 57.2899 80.0126 57.5825C80.4217 57.8975 80.7766 58.2772 81.0632 58.7066C81.6411 59.553 81.9589 60.55 81.9772 61.5747C81.9992 62.0884 81.9244 62.6016 81.7566 63.0876C81.5213 63.6749 81.1631 64.2051 80.706 64.6425C80.2025 65.1531 79.642 65.6044 79.0356 65.9872C78.5526 66.3012 78.0509 66.5854 77.5332 66.8382C77.2941 66.9797 77.0358 67.0859 76.7663 67.1534C76.6907 67.1744 76.6108 67.1744 76.5352 67.1534C76.4566 67.148 76.3806 67.1227 76.3146 67.0798C76.198 66.9512 76.0958 66.8103 76.0099 66.6596C75.8854 66.4482 75.7295 66.2569 75.5476 66.0923C75.412 65.9781 75.2548 65.8924 75.0854 65.8401C74.9057 65.7672 74.7093 65.7453 74.5181 65.7771C74.255 65.8378 74.0101 65.9602 73.8037 66.1343C73.5717 66.3128 73.3846 66.5431 73.2573 66.8067C73.2047 67.0667 73.2047 67.3346 73.2573 67.5946C73.3729 67.8993 73.625 68.6452 73.8982 69.3806C74.1714 70.116 74.518 71.009 74.8122 71.7129C74.9791 72.2159 75.1791 72.7072 75.411 73.1837C75.6002 73.4989 75.7682 73.5724 75.9679 73.5724C76.1675 73.5724 76.6612 73.5724 77.2181 73.5724C77.7749 73.5724 78.4262 73.688 79.2142 73.772C80.0021 73.8561 80.8321 73.9822 81.683 74.0557C82.4745 74.1607 83.2764 74.1607 84.0679 74.0557C84.6201 73.9517 85.1434 73.7295 85.6017 73.4043C86.0017 73.116 86.4193 72.8529 86.8519 72.6164C87.2758 72.4337 87.7203 72.3031 88.1757 72.2277C88.5381 72.1266 88.913 72.077 89.2893 72.0806C89.7062 72.0984 90.1193 72.169 90.5185 72.2907C90.9177 72.3958 91.2959 72.5219 91.6741 72.6584C91.9366 72.7331 92.1755 72.8742 92.3675 73.0682Z" fill="#A92819"/>
<path d="M92.1882 87.808C92.2933 87.9551 92.2933 88.0917 92.1882 88.0917C92.0226 88.1326 91.8496 88.1326 91.684 88.0917C91.4028 88.0086 91.1288 87.9032 90.8645 87.7765C90.5758 87.6226 90.2733 87.4959 89.961 87.3983H89.8139C89.7688 87.3892 89.7224 87.3892 89.6773 87.3983L89.5618 87.5033C89.5559 87.5452 89.5559 87.5876 89.5618 87.6294C89.4883 87.8941 89.4883 88.1737 89.5618 88.4384C89.5972 88.6059 89.6536 88.7683 89.7299 88.9216L86.6727 89.0372C86.5869 88.8789 86.4886 88.7279 86.3785 88.5854C86.0964 88.2524 85.7672 87.9622 85.4014 87.724C85.0151 87.4302 84.5997 87.1767 84.1618 86.9675C83.5524 86.6944 82.7014 86.4002 81.7769 86.022L81.5143 85.9064C83.1742 85.7909 84.8446 85.7068 86.5256 85.6333C86.7211 85.6842 86.9224 85.709 87.1244 85.7068L88.6688 85.8854C89.1307 85.9019 89.5891 85.9724 90.0345 86.0956C90.3416 86.215 90.618 86.4016 90.8435 86.6419L91.5369 87.2302C91.7752 87.3975 91.9937 87.5914 92.1882 87.808V87.808Z" fill="#A92819"/>
<path d="M90.3504 162.137V164.679C23.302 164.679 0.871986 139.056 0 137.963L1.84903 136.313C2.05915 136.566 24.5942 162.137 90.3504 162.137Z" fill="#4C8BCA"/>
<path d="M86.3777 88.617C86.4877 88.7594 86.5861 88.9105 86.6718 89.0687C85.222 89.1318 83.7722 89.2158 82.3224 89.2999C80.4209 88.5014 77.8154 87.5139 75.5461 86.4002C77.5107 86.2111 79.4963 86.0641 81.5135 85.938L81.7761 86.0536C82.7006 86.4318 83.5516 86.7259 84.1609 86.9991C84.5989 87.2083 85.0143 87.4617 85.4006 87.7555C85.7664 87.9937 86.0955 88.2839 86.3777 88.617Z" fill="#F4F4F4"/>
<path d="M84.9709 144.54C84.9697 144.978 84.838 145.406 84.5927 145.769C84.3559 146.144 84.0066 146.434 83.5946 146.599C83.1854 146.766 82.7362 146.809 82.3024 146.725C81.8685 146.64 81.4697 146.428 81.1573 146.115C80.8466 145.801 80.6347 145.403 80.5479 144.97C80.4628 144.54 80.5067 144.094 80.674 143.689C80.8287 143.257 81.1202 142.888 81.504 142.638C81.867 142.393 82.295 142.261 82.7332 142.26C83.325 142.265 83.891 142.503 84.3094 142.921C84.7279 143.34 84.9654 143.906 84.9709 144.498V144.54Z" fill="#A92819"/>
<path d="M84.1102 114.902C84.4666 116.071 84.4562 117.321 84.0806 118.484C83.7049 119.646 82.9819 120.666 82.009 121.405C80.4203 122.689 78.4185 123.35 76.3779 123.265C75.2989 123.256 74.2306 123.05 73.2261 122.656C71.566 123.114 69.823 123.185 68.1308 122.866C65.872 122.372 61.2705 119.147 63.7603 112.843C63.2977 109.954 62.6378 107.1 61.7852 104.302C61.1985 102.287 61.0481 100.17 61.344 98.0929L60.9763 97.8827C60.6942 99.9485 60.0127 101.94 58.9697 103.745C58.3919 105.321 54.3366 107.947 53.1179 108.798C52.4035 109.387 49.2728 111.95 47.2346 113.61C48.1346 114.603 48.6681 115.873 48.7465 117.211C48.8248 118.549 48.4433 119.873 47.6654 120.964C46.5524 122.275 45.0387 123.183 43.3582 123.548C41.6777 123.912 39.9238 123.713 38.3677 122.981C36.4924 121.995 35.059 120.336 34.3545 118.338C32.9902 117.419 31.9182 116.128 31.2657 114.619C30.8346 113.564 30.6723 112.418 30.7933 111.285C30.9143 110.152 31.3149 109.066 31.9591 108.126V108.126C33.6085 105.647 35.1844 105.962 37.2751 103.482C40.1012 100.236 39.5759 99.0279 44.1354 95.5399L44.0724 95.1092C44.9654 94.8781 45.8584 94.6469 46.7724 94.4263C46.9195 95.4139 47.035 96.3069 47.1401 97.0423C44.2089 98.282 42.591 101.034 40.1117 104.48C37.3276 108.094 35.6257 107.968 34.386 109.565C33.9586 110.132 33.6902 110.803 33.6085 111.509C33.5186 112.221 33.6127 112.944 33.8817 113.61C34.8587 115.711 35.7307 115.596 36.5187 116.562C37.2751 117.298 37.3696 119.294 39.5759 120.376C43.1479 121.773 46.058 119.998 45.8794 117.329C45.849 116.817 45.6896 116.321 45.4158 115.888C45.1421 115.454 44.763 115.097 44.314 114.85C44.169 114.215 43.9722 113.593 43.7257 112.99C46.995 109.965 50.4588 107.158 54.095 104.585C55.3963 103.8 56.4292 102.639 57.0576 101.255C57.953 98.6145 58.5589 95.8845 58.8646 93.1131C59.0852 93.2917 59.3164 93.4703 59.5475 93.6279C61.1444 94.794 62.8463 95.729 64.5063 96.7796C63.854 98.5745 63.7407 100.521 64.1806 102.379C64.1806 103.125 66.6495 110.311 66.5024 113.463C64.6218 117.298 66.9541 119.588 68.6035 120.082C70.8833 120.743 71.9444 119.808 73.5518 119.808C73.7614 119.811 73.9671 119.865 74.1506 119.966C75.1487 120.368 76.232 120.513 77.3006 120.386C78.3692 120.259 79.3887 119.866 80.265 119.241C80.7003 118.904 81.0439 118.462 81.2641 117.958C81.4844 117.453 81.5744 116.901 81.5258 116.352C81.4658 115.805 81.2709 115.282 80.9584 114.829C80.6441 114.376 80.2167 114.014 79.7187 113.778C79.0838 113.518 78.3884 113.441 77.7121 113.557C77.0035 112.858 76.2008 112.26 75.3273 111.782C75.0646 105.636 75.3273 102.148 75.3273 97.3259C75.4113 94.7415 75.3273 93.796 74.781 92.7034C74.1822 91.8104 73.5623 90.9384 72.9004 90.0874C73.951 89.9718 75.1172 89.8563 76.2308 89.7617C77.188 90.9385 77.825 92.3426 78.0798 93.838C78.1953 95.9831 78.1953 98.1329 78.0798 100.278V110.206L78.7837 110.679C80.0025 110.745 81.1716 111.184 82.1334 111.935C83.0952 112.686 83.8035 113.715 84.1627 114.881L84.1102 114.902Z" fill="#A92819"/>
<path d="M72.491 186.636C72.491 186.636 75.0019 178.232 83.9318 180.48C83.9318 180.438 81.9042 188.758 72.491 186.636Z" fill="#0F7657"/>
<path d="M83.9318 177.108C74.4766 179.209 72.491 170.941 72.491 170.941C81.4209 168.714 83.9318 177.108 83.9318 177.108Z" fill="#0F7657"/>
<path d="M81.5673 116.352C81.6159 116.901 81.526 117.453 81.3057 117.958C81.0854 118.463 80.7419 118.904 80.3066 119.241C79.4303 119.866 78.4108 120.26 77.3422 120.386C76.2736 120.513 75.1903 120.369 74.1922 119.966C74.0086 119.865 73.8029 119.811 73.5934 119.809C71.986 119.809 70.9249 120.744 68.6451 120.082C67.0062 119.588 64.6739 117.298 66.5439 113.463C66.691 110.311 64.2642 103.125 64.2221 102.379C63.7823 100.521 63.8955 98.5747 64.5478 96.7799C62.8879 95.7293 61.186 94.7417 59.5891 93.6281L59.3264 91.9682C60.0723 91.8316 60.8498 91.7055 61.6167 91.6005C62.2484 92.0611 62.908 92.4822 63.5918 92.8612C64.4953 93.3445 65.3988 93.9853 66.0817 94.4055C66.536 94.6705 66.9745 94.9616 67.3949 95.2775C67.5904 95.4256 67.7279 95.6375 67.7836 95.8764C67.8465 96.0997 67.8465 96.336 67.7836 96.5592C67.7101 96.8324 67.542 97.1055 67.3634 97.5468C67.1426 98.0778 66.9942 98.6361 66.9221 99.2067C66.8449 100.071 66.8945 100.941 67.0692 101.791C67.2583 102.779 67.584 103.892 67.8572 104.869C68.1303 105.846 68.3299 106.739 68.5611 107.632C68.7922 108.525 69.0128 109.439 69.1809 110.248C69.3061 110.943 69.3903 111.645 69.433 112.35C69.4856 112.852 69.4856 113.359 69.433 113.862C69.3709 114.184 69.2649 114.495 69.1179 114.787C68.9971 115.028 68.902 115.282 68.8342 115.543C68.7922 115.773 68.7922 116.007 68.8342 116.237C68.8692 116.47 68.9553 116.692 69.0864 116.888C69.2248 117.082 69.4248 117.222 69.6537 117.287C69.93 117.366 70.2177 117.398 70.5047 117.382C70.7735 117.349 71.0402 117.3 71.3031 117.235L72.2066 117.014C72.6125 116.94 73.0234 116.898 73.4358 116.888C73.8529 116.872 74.2702 116.914 74.6755 117.014C75.0537 117.13 75.3794 117.287 75.7261 117.392C76.0342 117.476 76.3522 117.519 76.6716 117.518C76.9895 117.55 77.3097 117.55 77.6276 117.518C77.9084 117.46 78.1757 117.35 78.4156 117.193C78.6016 117.089 78.7518 116.932 78.8463 116.741C78.8806 116.684 78.8987 116.619 78.8987 116.552C78.8987 116.485 78.8806 116.42 78.8463 116.363C78.7693 116.286 78.6432 116.286 78.4681 116.363C77.867 116.483 77.2426 116.378 76.7136 116.069C76.3774 115.869 76.0938 115.596 75.663 115.27C75.2323 114.944 74.6124 114.587 74.1397 114.314C73.8064 114.115 73.4993 113.875 73.2257 113.6C73.0011 113.328 72.8525 113.002 72.7949 112.654C72.6138 111.966 72.4977 111.263 72.4482 110.553V101.024C72.4482 99.3853 72.4482 98.1877 72.5218 97.3052C72.5953 96.4227 72.5218 95.7398 72.5218 95.204C72.494 94.7811 72.3757 94.3691 72.1751 93.9958C71.8651 93.4847 71.5137 92.9998 71.1245 92.546C70.6938 91.9997 70.158 91.2643 69.4751 90.4448C70.5257 90.3188 71.6813 90.2032 72.7844 90.0981C73.4463 90.9491 74.0661 91.8211 74.665 92.7141C75.1692 93.7647 75.2953 94.7522 75.2113 97.3367C75.2113 102.159 74.9486 105.647 75.2113 111.793C76.1155 112.251 76.9502 112.834 77.6907 113.526C78.367 113.41 79.0624 113.486 79.6973 113.747C80.1952 113.983 80.6227 114.345 80.937 114.797C81.2767 115.253 81.4938 115.789 81.5673 116.352V116.352Z" fill="#F4F4F4"/>
<path d="M78.9409 84.8351C79.8129 85.2238 80.6743 85.6125 81.5148 85.9697C79.4977 86.0958 77.5121 86.2429 75.5475 86.432C74.1615 85.7943 72.8709 84.9669 71.7128 83.9736C70.157 82.5988 69.0178 80.8154 68.4245 78.8257C66.2288 80.097 64.9786 80.0444 63.7494 80.9269C65.7214 82.2745 67.5147 83.8666 69.0864 85.6651C69.4961 86.1063 69.8953 86.5475 70.284 86.9993L66.8276 87.4195C66.5755 87.1359 66.3338 86.8627 66.0922 86.6106C65.2917 85.7693 64.4353 84.9831 63.5288 84.2573C62.7829 83.6689 62.1105 83.2697 61.5747 82.8075C61.1084 82.4329 60.7465 81.9444 60.5241 81.3892C60.4662 81.1546 60.4662 80.9094 60.5241 80.6748C60.571 80.4392 60.6757 80.219 60.8288 80.0339C61.2416 79.3899 61.7947 78.8476 62.4467 78.4475C63.3196 77.9971 64.2258 77.6143 65.1572 77.3024C66.0572 77.0006 66.8966 76.5418 67.6366 75.9471C68.2257 75.3557 68.7602 74.7123 69.2335 74.0246C69.5907 73.5623 69.7167 73.4888 69.8218 73.4888C69.9269 73.4888 69.9689 73.5623 70.116 74.1822C70.263 74.802 70.5467 75.9576 70.8409 76.8822C71.073 77.6501 71.3573 78.4012 71.6918 79.1304C71.9092 79.6316 72.1693 80.1132 72.4693 80.5697C72.6741 80.8827 72.9217 81.1656 73.2047 81.4102C73.5647 81.791 73.9546 82.1423 74.3708 82.4608C74.9886 82.9217 75.642 83.3327 76.3249 83.69C77.0393 83.9736 77.9848 84.3833 78.9409 84.8351Z" fill="#F4F4F4"/>
<path d="M78.8367 116.353C78.871 116.41 78.8891 116.475 78.8891 116.542C78.8891 116.609 78.871 116.674 78.8367 116.731C78.7422 116.922 78.592 117.079 78.406 117.183C78.1662 117.34 77.8988 117.451 77.6181 117.509C77.3002 117.54 76.9799 117.54 76.662 117.509C76.3426 117.509 76.0247 117.466 75.7165 117.383C75.3908 117.278 75.0651 117.12 74.6659 117.004C74.2607 116.904 73.8433 116.862 73.4262 116.878C73.0139 116.889 72.6029 116.931 72.197 117.004L71.2935 117.225C71.0306 117.29 70.764 117.339 70.4951 117.372C70.2081 117.389 69.9204 117.357 69.6441 117.278C69.4153 117.213 69.2152 117.072 69.0768 116.878C68.9457 116.682 68.8596 116.46 68.8247 116.227C68.7826 115.998 68.7826 115.763 68.8247 115.534C68.8925 115.272 68.9875 115.019 69.1083 114.777C69.2553 114.485 69.3614 114.174 69.4235 113.853C69.476 113.35 69.476 112.843 69.4235 112.34C69.3808 111.635 69.2966 110.933 69.1713 110.239C69.0033 109.43 68.7721 108.516 68.5515 107.623C68.3309 106.73 68.1103 105.837 67.8476 104.86C67.585 103.883 67.2488 102.758 67.0597 101.781C66.8895 100.935 66.8435 100.067 66.9231 99.2074C66.989 98.6006 67.1411 98.0063 67.3748 97.4425C67.5534 97.0012 67.7215 96.728 67.7951 96.4549C67.8579 96.2316 67.8579 95.9953 67.7951 95.772C67.7394 95.5332 67.6019 95.3213 67.4064 95.1732C66.9862 94.8537 66.5477 94.559 66.0931 94.2907C65.4102 93.8705 64.5067 93.2401 63.6032 92.7463C62.9344 92.3726 62.2888 91.9586 61.6702 91.5066C64.2406 91.1074 66.8776 90.7572 69.5811 90.4561C70.264 91.286 70.7998 92.0214 71.2305 92.5572C71.6197 93.011 71.9711 93.4959 72.2811 94.007C72.4606 94.3957 72.5538 94.8186 72.5542 95.2467C72.5542 95.751 72.5542 96.4234 72.5542 97.3479C72.5542 98.2724 72.4807 99.4491 72.4807 101.067V110.648C72.5302 111.358 72.6463 112.061 72.8274 112.749C72.885 113.097 73.0336 113.423 73.2581 113.695C73.5318 113.97 73.8389 114.21 74.1721 114.409C74.6239 114.683 75.2227 115.04 75.6955 115.365C76.1682 115.691 76.4309 115.964 76.7461 116.164C77.2825 116.433 77.8977 116.5 78.4795 116.353C78.6476 116.297 78.7667 116.297 78.8367 116.353Z" fill="#A92819"/>
<path d="M75.5487 86.3999C77.818 87.5135 80.4234 88.5011 82.325 89.2995C80.2238 89.4256 78.1752 89.5797 76.1791 89.7618C75.0654 89.8563 73.9518 89.9719 72.8487 90.0875C72.0293 89.0369 71.1783 87.9863 70.2853 86.9357C72.0187 86.7256 73.7837 86.5575 75.5487 86.3999Z" fill="#A92819"/>
<path d="M71.7134 83.9416C72.8715 84.9349 74.162 85.7623 75.5481 86.4C73.7831 86.5576 72.0181 86.7257 70.2951 86.9148C69.9064 86.463 69.5072 86.0218 69.0975 85.5805C67.529 83.7827 65.7393 82.1907 63.771 80.8424C65.0002 80.0124 66.2504 80.0649 68.4461 78.7412C69.0247 80.7474 70.1571 82.5498 71.7134 83.9416V83.9416Z" fill="#A92819"/>
<path d="M72.8485 90.0878C71.7979 90.1929 70.6318 90.3084 69.5392 90.4345L69.0244 89.7936C68.31 88.9952 67.5851 88.1232 66.9232 87.3353L70.2851 86.936C71.1781 87.9866 72.0291 89.0372 72.8485 90.0878Z" fill="#F4F4F4"/>
<path d="M69.0232 89.7935L69.5905 90.4344C66.894 90.7496 64.2571 91.0998 61.6796 91.485L61.0598 91.0227C60.2281 90.419 59.4416 89.7553 58.7065 89.0371L58.3177 88.6064C61.0913 88.1546 63.9174 87.7239 66.8275 87.3667C67.5314 88.1231 68.2563 89.0371 69.0232 89.7935Z" fill="#A92819"/>
<path d="M69.2245 22.3354H38.6V24.8253H69.2245V22.3354Z" fill="#179E6C"/>
<path d="M69.0768 11.2939H38.4523V13.7838H69.0768V11.2939Z" fill="#A92819"/>
<path d="M69.0768 0H38.4523V2.48989H69.0768V0Z" fill="#179E6C"/>
<path d="M59.441 186.636C59.441 186.636 61.9624 178.232 70.8819 180.48C70.8819 180.438 68.8543 188.758 59.441 186.636Z" fill="#0F7657"/>
<path d="M70.8819 177.108C61.4266 179.209 59.441 170.941 59.441 170.941C68.3605 168.714 70.8819 177.108 70.8819 177.108Z" fill="#0F7657"/>
<path d="M68.1194 35.2893L68.4135 37.7582C55.0396 39.3341 44.8069 44.545 37.9465 53.2438C26.222 68.2462 28.6068 88.8061 28.6384 89.0373L26.1695 89.3419C26.0539 88.4594 23.6166 67.5843 36.024 51.7415C43.2625 42.4753 54.0625 36.9492 68.1194 35.2893Z" fill="#4C8BCA"/>
<path d="M61.006 91.0438L61.6259 91.5061C60.8589 91.6111 60.0815 91.7372 59.3356 91.8738C58.285 92.0419 57.2344 92.231 56.1838 92.4201C56.3309 91.4851 56.457 90.5921 56.5305 89.9197C56.5305 89.4995 56.5936 89.1633 56.6146 88.8691L58.3375 88.5645L58.7263 88.9952C59.4356 89.7323 60.1975 90.417 61.006 91.0438V91.0438Z" fill="#F4F4F4"/>
<path d="M59.3359 91.8735L59.567 93.5335C59.3359 93.3759 59.1048 93.1973 58.8841 93.0187C58.5784 95.7901 57.9725 98.5201 57.0771 101.161C56.4487 102.545 55.4158 103.706 54.1145 104.491C50.4784 107.063 47.0145 109.871 43.7452 112.896C43.9918 113.498 44.1885 114.12 44.3335 114.755C44.7845 115.001 45.1657 115.358 45.4413 115.792C45.7169 116.225 45.878 116.722 45.9094 117.235C46.0775 119.903 43.1674 121.679 39.6059 120.281C37.3997 119.231 37.3051 117.203 36.5487 116.468C35.7607 115.501 34.8888 115.617 33.9117 113.516C33.6427 112.85 33.5486 112.127 33.6386 111.414C33.7202 110.709 33.9886 110.038 34.416 109.471C35.6557 107.874 37.3576 108 40.1417 104.386C42.6211 100.94 44.239 98.1876 47.1701 96.9479C47.065 96.2125 46.9495 95.3195 46.8024 94.3319C47.6954 94.1113 48.6199 93.9117 49.5339 93.7121C49.702 94.8572 49.8071 95.6872 49.8701 96.3805C49.9331 97.0739 50.0907 97.7463 50.0907 98.1245C50.0907 98.5027 50.0907 98.6393 49.9647 98.7654C49.765 98.9281 49.5371 99.0528 49.2923 99.1331C48.6808 99.3295 48.1006 99.6125 47.5693 99.9736C46.6639 100.636 45.8481 101.413 45.1425 102.285C44.3755 103.209 43.7452 104.228 43.1148 105.1C42.5898 105.865 42.0252 106.601 41.4234 107.307C40.9226 107.85 40.3893 108.362 39.8265 108.84C39.3358 109.283 38.8201 109.697 38.2822 110.08C37.8094 110.406 37.4522 110.616 37.158 110.826C36.8934 111.004 36.6827 111.251 36.5487 111.54C36.4863 111.69 36.4541 111.851 36.4541 112.013C36.4541 112.176 36.4863 112.336 36.5487 112.486C36.7126 112.833 36.9533 113.139 37.2526 113.379C37.5572 113.652 37.9039 113.862 38.2296 114.146C38.563 114.461 38.8591 114.814 39.1121 115.197C39.3406 115.529 39.5409 115.881 39.7109 116.247C39.8391 116.544 39.9865 116.831 40.1522 117.109C40.3215 117.378 40.5613 117.596 40.8456 117.739C41.1761 117.883 41.536 117.948 41.8962 117.928C42.1946 117.937 42.4926 117.898 42.7787 117.812C42.852 117.792 42.9201 117.757 42.9783 117.707C43.0324 117.659 43.0786 117.602 43.1148 117.539V117.466V117.382V117.308H43.0623C42.9106 117.225 42.7415 117.178 42.5685 117.172C42.474 117.151 42.3823 117.12 42.2954 117.077C42.2125 117.017 42.1413 116.942 42.0853 116.856C41.9413 116.613 41.8417 116.347 41.7911 116.069C41.7911 115.753 41.665 115.459 41.5915 115.134C41.5034 114.798 41.3947 114.468 41.2658 114.146C41.1503 113.82 41.0137 113.526 40.9191 113.179C40.7809 112.847 40.7444 112.482 40.8141 112.129C41.045 111.649 41.3786 111.226 41.7911 110.889C42.3689 110.332 43.2409 109.492 44.281 108.651C45.3211 107.811 46.3822 106.97 47.4328 106.077C48.4833 105.184 49.618 104.26 50.5845 103.525C51.551 102.789 52.4335 102.285 53.0639 101.791C53.5971 101.421 54.0448 100.941 54.3771 100.383C54.704 99.7191 54.934 99.0115 55.06 98.2821C55.2911 97.2315 55.5853 95.8027 55.8479 94.3004C55.953 93.7016 56.0581 93.0502 56.1526 92.4093C57.2137 92.1887 58.2643 92.0416 59.3359 91.8735Z" fill="#F4F4F4"/>
<path d="M58.3189 88.5746L56.5959 88.8792C56.5959 88.4065 56.5959 88.1123 56.5959 87.8917C56.5959 87.6711 56.7535 87.4189 56.8901 87.3559C57.0267 87.2928 57.1738 87.3559 57.4259 87.5975C57.6781 87.8391 57.9302 88.1333 58.3189 88.5746Z" fill="#EFE7DC"/>
<path d="M56.5956 88.8794C56.5956 89.1631 56.5956 89.4992 56.5115 89.93C56.438 90.6024 56.3119 91.4954 56.1648 92.4304C53.9026 92.8436 51.6963 93.2884 49.5462 93.7646C49.5462 93.5965 49.5462 93.4284 49.4726 93.2603C49.357 92.4304 49.1995 91.4323 49.0419 90.3817C51.4792 89.8424 53.9971 89.3417 56.5956 88.8794Z" fill="#A92819"/>
<path d="M56.1645 92.4199C56.07 93.0608 55.9649 93.7121 55.8599 94.311C55.5972 95.8133 55.3031 97.2946 55.0719 98.2927C54.9459 99.0221 54.716 99.7297 54.3891 100.394C54.0568 100.951 53.609 101.431 53.0758 101.802C52.4455 102.295 51.5735 102.852 50.5964 103.535C49.6194 104.218 48.4953 105.206 47.4447 106.088C46.3941 106.971 45.291 107.811 44.2929 108.662C43.2949 109.513 42.3809 110.343 41.803 110.9C41.3905 111.236 41.0569 111.66 40.826 112.139C40.7563 112.492 40.7928 112.858 40.9311 113.19C41.0256 113.537 41.1622 113.831 41.2777 114.157C41.4066 114.479 41.5154 114.808 41.6034 115.144C41.677 115.47 41.7505 115.764 41.803 116.079C41.8536 116.357 41.9532 116.624 42.0972 116.867C42.1532 116.953 42.2244 117.028 42.3073 117.088C42.3942 117.13 42.4859 117.162 42.5805 117.182C42.7534 117.189 42.9225 117.236 43.0742 117.319H43.1268V117.392V117.476V117.55C43.0905 117.613 43.0444 117.67 42.9902 117.718C42.9321 117.767 42.864 117.803 42.7906 117.823C42.5045 117.909 42.2065 117.948 41.9081 117.939C41.5479 117.959 41.188 117.894 40.8575 117.75C40.5732 117.607 40.3334 117.389 40.1641 117.119C39.9984 116.842 39.851 116.554 39.7229 116.258C39.5529 115.891 39.3526 115.54 39.124 115.207C38.871 114.824 38.5749 114.472 38.2416 114.157C37.9159 113.873 37.5692 113.663 37.2645 113.39C36.9652 113.149 36.7245 112.844 36.5606 112.497C36.4982 112.347 36.4661 112.186 36.4661 112.024C36.4661 111.862 36.4982 111.701 36.5606 111.551C36.6946 111.262 36.9054 111.015 37.17 110.837C37.4641 110.627 37.8213 110.416 38.2941 110.091C38.8321 109.707 39.3477 109.293 39.8384 108.851C40.4012 108.373 40.9345 107.86 41.4353 107.317C42.0371 106.612 42.6017 105.875 43.1268 105.111C43.7571 104.239 44.3875 103.22 45.1544 102.295C45.86 101.423 46.6758 100.646 47.5813 99.9841C48.1125 99.6231 48.6927 99.3401 49.3042 99.1437C49.549 99.0634 49.7769 98.9387 49.9766 98.776C50.1027 98.6499 50.1027 98.5238 50.1027 98.1351C50.1027 97.7464 49.9556 97.1791 49.882 96.3911C49.8085 95.6032 49.714 94.8678 49.5459 93.7226C51.7031 93.2604 53.9093 92.8261 56.1645 92.4199Z" fill="#A92819"/>
<path d="M46.3813 186.636C46.3813 186.636 48.9028 178.232 57.8222 180.48C57.8327 180.438 55.7946 188.758 46.3813 186.636Z" fill="#0F7657"/>
<path d="M57.8359 177.108C48.3807 179.209 46.3846 170.941 46.3951 170.941C55.3671 168.714 57.8359 177.108 57.8359 177.108Z" fill="#0F7657"/>
<path d="M53.8215 140.442C53.8223 140.882 53.6945 141.313 53.4538 141.682C53.1913 142.054 52.8264 142.343 52.4032 142.512C52.0059 142.653 51.5789 142.689 51.1635 142.617C50.7319 142.528 50.3367 142.312 50.0289 141.997C49.7186 141.685 49.5072 141.288 49.4213 140.856C49.3353 140.425 49.3786 139.977 49.5456 139.57C49.7057 139.145 49.9916 138.778 50.3651 138.52C50.7296 138.268 51.1618 138.132 51.6047 138.131C52.1947 138.139 52.758 138.378 53.1743 138.796C53.5905 139.214 53.8266 139.779 53.832 140.369L53.8215 140.442Z" fill="#A92819"/>
<path d="M49.4713 93.2397C49.4713 93.4078 49.4713 93.5759 49.5449 93.744C48.6309 93.9436 47.7063 94.1432 46.8133 94.3638C46.6663 93.3132 46.5087 92.1681 46.3406 90.9809L49.0616 90.3716C49.1982 91.4222 49.3558 92.4202 49.4713 93.2397Z" fill="#F4F4F4"/>
<path d="M46.34 90.9912C46.5081 92.1784 46.6657 93.334 46.8128 94.3741C45.8988 94.5947 45.0058 94.8259 44.1128 95.057C43.9762 94.0064 43.8081 92.8718 43.6295 91.6531C44.526 91.4219 45.4295 91.2013 46.34 90.9912Z" fill="#A92819"/>
<path d="M33.3022 186.636C33.3022 186.636 35.8131 178.232 44.7326 180.48C44.7641 180.438 42.7575 188.758 33.3022 186.636Z" fill="#0F7657"/>
<path d="M44.7641 177.107C35.4034 179.23 33.3022 170.982 33.3022 170.982C42.2532 168.713 44.7641 177.107 44.7641 177.107Z" fill="#0F7657"/>
<path d="M20.2756 186.636C20.2756 186.636 22.797 178.232 31.7165 180.48C31.7165 180.438 29.6994 188.758 20.2756 186.636Z" fill="#0F7657"/>
<path d="M31.7165 177.108C22.2612 179.209 20.2756 170.941 20.2756 170.941C29.2056 168.714 31.7165 177.108 31.7165 177.108Z" fill="#0F7657"/>
<path d="M28.9837 1.56543C29.7717 10.9261 27.66 17.9336 22.6802 22.409C17.7004 26.8845 11.1238 27.767 6.66928 27.767C5.03334 27.7728 3.39961 27.6463 1.78406 27.3888L2.2253 24.9515C2.34087 24.9515 13.9603 27.0526 21.0623 20.5705C25.3907 16.6413 27.2292 10.3273 26.5148 1.78605L28.9837 1.56543Z" fill="#2A3277"/>
<path d="M26.3705 34.4067L27.6943 36.5079C8.30045 48.8103 9.84481 89.0372 9.86582 89.4784L7.38644 89.594C7.3129 87.8815 5.74753 47.4865 26.3705 34.4067Z" fill="#4C8BCA"/>
<path d="M23.4924 128.812C23.6006 129.087 23.6576 129.378 23.6605 129.673C23.6626 130.122 23.532 130.56 23.2852 130.934C23.0384 131.308 22.6865 131.6 22.2737 131.775C21.8645 131.942 21.4154 131.985 20.9815 131.901C20.55 131.813 20.154 131.6 19.8436 131.288C19.5332 130.976 19.3223 130.578 19.2376 130.146C19.1522 129.712 19.196 129.263 19.3636 128.854C19.5248 128.426 19.8148 128.059 20.1936 127.803C20.56 127.558 20.9923 127.43 21.4333 127.436C21.7277 127.435 22.0197 127.489 22.2948 127.593C22.5629 127.71 22.8056 127.877 23.0092 128.087C23.2145 128.296 23.3785 128.542 23.4924 128.812V128.812Z" fill="#A92819"/>
<path d="M10.0973 0.693383C11.9385 0.701686 13.7361 1.25527 15.263 2.28425C16.7899 3.31324 17.9778 4.77151 18.6766 6.47499C19.3755 8.17847 19.554 10.0508 19.1898 11.8557C18.8255 13.6606 17.9346 15.3171 16.6297 16.6161C15.3248 17.9151 13.6643 18.7985 11.8579 19.1547C10.0514 19.5108 8.17984 19.3239 6.47952 18.6173C4.7792 17.9108 3.32629 16.7164 2.30418 15.1849C1.28208 13.6533 0.736591 11.8533 0.736572 10.0121C0.739328 8.78557 0.983637 7.57161 1.45555 6.43952C1.92746 5.30743 2.61774 4.27938 3.48696 3.41406C4.35618 2.54873 5.38733 1.86309 6.52154 1.39628C7.65574 0.929465 8.87078 0.690621 10.0973 0.693383V0.693383ZM16.9366 10.0121C16.9366 8.65939 16.5355 7.33708 15.784 6.21236C15.0325 5.08764 13.9643 4.21103 12.7146 3.69338C11.4649 3.17573 10.0897 3.04028 8.76301 3.30418C7.43631 3.56808 6.21766 4.21946 5.26117 5.17595C4.30467 6.13245 3.65329 7.3511 3.38939 8.67779C3.1255 10.0045 3.26094 11.3796 3.77859 12.6294C4.29624 13.8791 5.17285 14.9472 6.29757 15.6988C7.42229 16.4503 8.7446 16.8514 10.0973 16.8514C10.9954 16.8514 11.8848 16.6745 12.7146 16.3308C13.5444 15.9871 14.2983 15.4833 14.9334 14.8482C15.5685 14.2131 16.0723 13.4592 16.416 12.6294C16.7597 11.7996 16.9366 10.9102 16.9366 10.0121V10.0121Z" fill="#179E6C"/>
<path d="M7.21777 186.636C7.21777 186.636 9.74968 178.232 18.6587 180.48C18.6587 180.438 16.6415 188.758 7.21777 186.636Z" fill="#0F7657"/>
<path d="M18.6587 177.107C9.25591 179.23 7.21777 170.982 7.21777 170.982C16.1478 168.713 18.6587 177.107 18.6587 177.107Z" fill="#0F7657"/>
<path d="M10.0949 7.77444C10.5405 7.77236 10.9766 7.90272 11.3479 8.14896C11.7193 8.3952 12.0091 8.74622 12.1805 9.15746C12.352 9.5687 12.3974 10.0216 12.311 10.4587C12.2246 10.8958 12.0102 11.2974 11.6952 11.6124C11.3801 11.9275 10.9786 12.1418 10.5415 12.2282C10.1044 12.3146 9.65146 12.2692 9.24022 12.0978C8.82898 11.9263 8.47796 11.6365 8.23172 11.2652C7.98548 10.8939 7.85512 10.4577 7.8572 10.0122C7.8572 9.4187 8.09296 8.84952 8.51262 8.42986C8.93228 8.0102 9.50146 7.77444 10.0949 7.77444V7.77444Z" fill="#2A3277"/>
</svg>
