<svg width="185" height="200" viewBox="0 0 185 200" fill="none" xmlns="http://www.w3.org/2000/svg">
<path d="M184.078 194.958H168.576V198.353H184.078V194.958Z" fill="#179E6C"/>
<path d="M184.078 184.142H168.576V187.537H184.078V184.142Z" fill="#A92819"/>
<path d="M184.078 172.829H168.576V176.224H184.078V172.829Z" fill="#179E6C"/>
<path d="M183.062 124.097C183.336 125.673 185.542 140.117 176.586 149.124L174.177 146.735C182.187 138.674 179.727 124.737 179.707 124.595V124.341C179.707 124.239 179.168 113.952 167.509 104.549L169.643 101.917C181.943 111.858 182.98 122.684 183.062 124.097Z" fill="#4C8BCA"/>
<path d="M181.353 23.0952H165.637V25.6467H181.353V23.0952Z" fill="#179E6C"/>
<path d="M181.253 12.7878H165.548V15.3291H181.253V12.7878Z" fill="#A92819"/>
<path d="M181.253 1.46387H165.548V4.01533H181.253V1.46387Z" fill="#179E6C"/>
<path d="M175.488 62.1299C185.389 80.7525 169.135 97.5352 168.972 97.708L166.553 95.2989C167.152 94.689 181.211 80.1121 172.489 63.7157L175.488 62.1299Z" fill="#4C8BCA"/>
<path d="M167.847 37.123C169.737 37.123 171.585 37.6837 173.156 38.7341C174.728 39.7845 175.953 41.2774 176.675 43.024C177.398 44.7706 177.587 46.6924 177.217 48.5462C176.848 50.4 175.937 52.1026 174.6 53.4385C173.262 54.7744 171.559 55.6837 169.704 56.0512C167.85 56.4188 165.929 56.2281 164.183 55.5033C162.437 54.7785 160.945 53.5522 159.897 51.9796C158.848 50.4069 158.289 48.5584 158.291 46.6682C158.297 44.1365 159.305 41.7103 161.096 39.9211C162.888 38.1319 165.315 37.1257 167.847 37.123V37.123ZM174.85 46.6682C174.85 45.2829 174.44 43.9288 173.67 42.777C172.9 41.6253 171.807 40.7276 170.527 40.1975C169.247 39.6674 167.839 39.5287 166.48 39.7989C165.122 40.0692 163.874 40.7362 162.894 41.7157C161.915 42.6952 161.248 43.9432 160.977 45.3018C160.707 46.6604 160.846 48.0686 161.376 49.3484C161.906 50.6282 162.804 51.722 163.955 52.4916C165.107 53.2612 166.461 53.672 167.847 53.672C169.703 53.6693 171.483 52.9305 172.796 51.6176C174.109 50.3047 174.848 48.5249 174.85 46.6682V46.6682Z" fill="#4C8BCA"/>
<path d="M167.845 44.3711C168.302 44.3691 168.75 44.503 169.131 44.7558C169.512 45.0085 169.809 45.3688 169.985 45.7909C170.161 46.2129 170.208 46.6777 170.119 47.1263C170.03 47.5748 169.81 47.9869 169.487 48.3102C169.164 48.6336 168.752 48.8535 168.303 48.9422C167.854 49.031 167.39 48.9844 166.968 48.8085C166.546 48.6326 166.185 48.3353 165.933 47.9542C165.68 47.5732 165.546 47.1257 165.548 46.6684C165.548 46.0592 165.79 45.4748 166.221 45.044C166.652 44.6132 167.236 44.3711 167.845 44.3711V44.3711Z" fill="#2A3277"/>
<path d="M150.278 93.7438C155.31 102.303 168.067 119.685 167.356 134.486C167.447 139.457 166.441 146.491 160.982 150.466C158.254 152.213 155.073 153.121 151.833 153.078C147.53 153.026 143.332 151.742 139.737 149.378C134.654 146.142 129.889 142.432 125.505 138.298C124.082 139.923 122.483 141.386 120.738 142.659C117.747 144.805 114.635 146.777 111.416 148.565C110.777 147.546 110.053 146.584 109.251 145.688C112.717 143.74 116.07 141.598 119.294 139.274C121.687 137.5 123.641 135.201 125.007 132.554C129.748 137.72 135.152 142.235 141.078 145.983C145.714 148.92 151.173 150.903 157.76 148.199C163.035 145.505 163.859 139.253 163.727 133.612C164.031 119.736 151.162 102.903 146.253 93.8556C149.8 86.9941 150.085 81.1288 145.358 77.1643C143.569 75.4769 135.508 71.9903 129.643 79.0449C125.658 84.5239 128.626 93.9572 129.876 95.3092C126.573 95.5666 123.288 96.0146 120.037 96.651H111.416L98.344 98.2164C96.8524 96.9287 94.9474 96.2202 92.9768 96.2202C91.0062 96.2202 89.1013 96.9287 87.6096 98.2164C82.527 97.9013 76.7633 96.651 74.0594 96.6103C71.3555 96.5697 69.2411 96.9966 67.7773 96.8543C67.2284 96.8543 59.6452 95.4617 56.0467 95.2787C56.7387 94.1583 57.2434 92.9326 57.541 91.6497C58.2525 89.1796 58.6591 84.402 57.8358 81.9826C57.2421 80.1758 56.1282 78.5845 54.6337 77.4083C53.3615 76.3569 51.8722 75.6001 50.2729 75.1924C48.6735 74.7846 47.0038 74.736 45.3834 75.05C43.9633 75.2562 42.6039 75.7649 41.3974 76.5418C40.1908 77.3187 39.1652 78.3456 38.3898 79.5532C36.7735 82.1046 35.7875 86.5366 39.6909 93.8556C39.02 95.2787 36.0518 99.7819 32.6464 105.596C27.6452 114.145 21.9222 123.67 22.1458 135.411C22.3389 146.664 28.1229 149.744 34.9438 149.439C39.7824 149.215 42.8218 147.457 47.2741 144.356C50.8488 141.97 54.203 139.269 57.297 136.285C58.3135 135.269 59.5435 134.008 60.9056 132.565C61.9054 134.577 63.2863 136.375 64.9717 137.861C66.7116 139.36 68.5675 140.72 70.5219 141.927C72.555 143.228 74.588 144.387 76.2551 145.403C75.4406 146.29 74.6995 147.242 74.0391 148.249C72.2805 147.182 70.1458 145.972 67.5435 144.305C65.7576 143.19 64.0798 141.911 62.5321 140.483C61.7521 139.814 61.0373 139.072 60.3974 138.267C58.8218 139.782 57.2055 141.317 56.0264 142.242C53.1473 144.645 50.1151 146.859 46.9488 148.87C44.1628 150.764 41.0237 152.078 37.7189 152.732C36.5762 152.882 35.4253 152.96 34.2729 152.966C24.0365 152.966 18.7506 146.267 18.5676 135.513C18.5067 123.975 23.9755 113.271 29.2716 104.234C32.8599 98.1351 34.8218 95.1974 35.6553 93.7133C31.7214 85.3575 33.7951 80.0512 35.5028 77.388C37.2665 74.7241 39.9291 72.7831 43.0048 71.9191C46.5395 70.8825 50.3267 71.1273 53.6985 72.6103C55.9154 73.6567 57.8497 75.2182 59.3402 77.1643C60.8646 79.2338 61.7354 81.7118 61.8408 84.28C61.9315 86.9504 61.6822 89.6216 61.0988 92.2291C63.4368 92.5849 67.0556 93.3067 67.6452 93.2457C69.1903 93.4896 71.0099 92.9915 73.8154 93.0119C76.621 93.0322 81.5715 94.0284 86.5118 94.5265C87.8355 93.6567 89.3288 93.0781 90.893 92.8289V92.9102H94.5219V92.7577C96.2442 92.9823 97.896 93.5827 99.3606 94.5163C103.955 93.9572 103.528 93.8962 108.123 93.3371C114.029 92.5239 115.848 93.4795 117.77 93.266C118.786 93.266 122.537 92.4223 124.774 92.1783C124.275 89.5455 122.293 80.8746 127.64 75.8225C135.772 67.6904 145.937 72.4172 147.879 74.6027C152.941 78.496 154.019 86.4756 150.278 93.7438Z" fill="#A92819"/>
<path d="M146.283 93.855C151.193 102.902 164.062 119.736 163.757 133.611C163.848 139.253 163.065 145.504 157.79 148.198C151.203 150.902 145.744 148.92 141.109 145.982C135.183 142.235 129.779 137.719 125.038 132.554C123.671 135.201 121.717 137.499 119.325 139.273C116.1 141.598 112.747 143.739 109.281 145.687C108.997 145.352 108.692 145.037 108.377 144.722C107.812 144.155 107.215 143.622 106.588 143.126C107.98 142.241 109.637 141.276 111.294 140.269C113.837 138.788 116.245 137.087 118.491 135.187C119.952 133.916 121.126 132.35 121.937 130.592C122.649 129.098 123.147 127.593 123.553 126.922C123.96 126.251 124.265 126.424 125.688 127.939C127.111 129.454 129.663 132.31 132.295 134.739C134.798 137.003 137.45 139.095 140.234 141.001C142.509 142.774 145.038 144.192 147.736 145.21C149.938 145.889 152.278 145.983 154.527 145.484C155.29 145.364 156.02 145.088 156.673 144.673C157.325 144.259 157.885 143.715 158.318 143.075C159.195 141.603 159.759 139.966 159.975 138.267C160.239 136.268 160.273 134.245 160.077 132.239C159.871 129.027 159.186 125.865 158.044 122.856C156.18 118.292 153.975 113.875 151.447 109.642C148.895 105.199 146.364 101.143 144.89 98.7242C144.061 97.516 143.346 96.233 142.755 94.8919C142.524 94.3451 142.484 93.7359 142.644 93.1638C142.893 92.4655 143.192 91.7861 143.538 91.1308C143.939 90.2792 144.296 89.4072 144.606 88.5183C144.92 87.667 145.141 86.7843 145.266 85.8855C145.364 85.0736 145.344 84.2518 145.205 83.4459C145.096 82.7002 144.829 81.9864 144.423 81.3518C143.936 80.6572 143.326 80.0577 142.623 79.5831C141.893 79.0729 141.06 78.7262 140.184 78.5666C139.062 78.3576 137.911 78.3576 136.788 78.5666C135.673 78.7903 134.627 79.2783 133.739 79.9897C132.832 80.6592 132.128 81.567 131.706 82.6123C131.296 83.8457 131.154 85.1521 131.289 86.4446C131.366 87.8769 131.573 89.2992 131.909 90.6937C132.137 91.6467 132.511 92.5589 133.017 93.3976C133.268 93.8573 133.671 94.2163 134.156 94.4141C134.593 94.5045 135.041 94.5352 135.487 94.5056C135.672 94.4834 135.859 94.5029 136.035 94.5627C136.211 94.6225 136.371 94.7211 136.504 94.8512C136.751 95.2138 136.902 95.6338 136.941 96.071C137.033 96.5468 136.995 97.0387 136.829 97.4942C136.715 97.7416 136.539 97.9556 136.318 98.1158C136.097 98.276 135.839 98.3769 135.569 98.409C134.488 98.5627 133.397 98.6408 132.306 98.6428C130.822 98.714 128.921 98.8461 127.121 99.0596C125.322 99.2731 123.635 99.5577 122.039 99.8322C120.608 100.128 119.157 100.312 117.698 100.381C116.265 100.381 114.801 100.188 113.49 100.117C112.219 100.064 110.947 100.129 109.688 100.31C108.356 100.483 106.862 100.737 104.799 101.021C102.735 101.306 100.092 101.611 98.6385 101.703C97.1849 101.794 96.9308 101.703 96.7986 101.611C96.7088 101.572 96.6315 101.508 96.575 101.428C96.413 101.235 96.2362 101.055 96.0464 100.889C95.9756 100.82 95.8972 100.758 95.8126 100.706C95.7376 100.63 95.652 100.565 95.5585 100.513C95.5152 100.469 95.4633 100.435 95.406 100.412C95.3397 100.357 95.2682 100.31 95.1925 100.269C95.1434 100.235 95.0882 100.211 95.0299 100.198C94.9652 100.152 94.893 100.118 94.8164 100.096C94.6681 100.023 94.5109 99.9681 94.3488 99.9338C94.2984 99.9046 94.2434 99.884 94.1862 99.8728H93.8914H93.7999H93.6576H92.2446H92.1023H92.0515C91.9397 99.8728 91.8279 99.8728 91.7161 99.9338C91.6588 99.945 91.6039 99.9656 91.5534 99.9948C91.3913 100.029 91.2342 100.084 91.0858 100.157C91.0093 100.179 90.937 100.213 90.8723 100.259C90.8141 100.272 90.7589 100.296 90.7097 100.33C90.634 100.371 90.5625 100.418 90.4962 100.473C90.4389 100.496 90.387 100.53 90.3437 100.574C90.2502 100.626 90.1647 100.691 90.0896 100.767C90.0051 100.819 89.9266 100.881 89.8558 100.95C89.666 101.116 89.4893 101.296 89.3272 101.489C89.2707 101.569 89.1934 101.633 89.1036 101.672C88.9715 101.743 88.7173 101.855 87.2637 101.764C85.8101 101.672 83.1976 101.367 81.1036 101.082C79.0096 100.798 77.5458 100.544 76.2141 100.371C74.9589 100.19 73.6896 100.126 72.4225 100.178C71.1011 100.249 69.6373 100.462 68.2141 100.442C66.7518 100.373 65.2971 100.19 63.8634 99.8931C62.3285 99.6187 60.6309 99.3341 58.8317 99.1206C57.0324 98.9071 55.1315 98.775 53.6474 98.7038C52.5557 98.7013 51.4654 98.6232 50.3844 98.47C50.1142 98.436 49.8571 98.3344 49.6367 98.1744C49.4163 98.0145 49.24 97.8015 49.1239 97.5552C48.9681 97.0976 48.9297 96.6083 49.0121 96.132C49.0497 95.6928 49.2041 95.2716 49.4594 94.9122C49.5848 94.7868 49.7364 94.6907 49.9034 94.631C50.0704 94.5712 50.2486 94.5492 50.4251 94.5666C50.871 94.597 51.3191 94.5662 51.7567 94.4751C52.2418 94.2773 52.6439 93.9183 52.8952 93.4586C53.4019 92.6199 53.7756 91.7077 54.0032 90.7546C54.3553 89.3492 54.5664 87.9122 54.6335 86.4649C54.7657 85.1731 54.6273 83.8679 54.2268 82.6327C53.7838 81.605 53.075 80.7138 52.1735 80.0507C51.2829 79.3433 50.2381 78.8558 49.1239 78.6276C48.0019 78.4183 46.8508 78.4183 45.7287 78.6276C44.851 78.784 44.0182 79.131 43.2891 79.6441C42.5832 80.1184 41.9699 80.7178 41.4797 81.4128C41.0717 82.0457 40.808 82.7606 40.7071 83.5069C40.5652 84.3123 40.5412 85.1342 40.636 85.9465C40.766 86.8443 40.9874 87.7265 41.2967 88.5793C41.6118 89.4738 41.9981 90.409 42.3641 91.1917C42.7107 91.8471 43.0096 92.5265 43.2586 93.2248C43.4165 93.7962 43.3808 94.4039 43.157 94.9529C42.5605 96.2931 41.8425 97.5759 41.0121 98.7851C39.5381 101.204 37.007 105.26 34.4556 109.703C31.9277 113.935 29.7223 118.353 27.8583 122.917C26.7166 125.926 26.0313 129.088 25.8253 132.3C25.6292 134.306 25.6633 136.329 25.927 138.328C26.1666 140.01 26.7478 141.625 27.6347 143.075C28.0608 143.722 28.6155 144.274 29.2643 144.697C29.9131 145.121 30.6422 145.406 31.406 145.535C33.6549 146.034 35.995 145.939 38.1963 145.26C40.8952 144.24 43.4243 142.818 45.6983 141.042C48.476 139.132 51.1216 137.036 53.6169 134.77C56.2599 132.34 58.8012 129.484 60.2243 127.969C61.6474 126.455 61.9625 126.292 62.359 126.953C62.7554 127.614 63.2637 129.128 63.9753 130.623C64.7894 132.379 65.9634 133.944 67.4213 135.217C69.6695 137.115 72.0774 138.816 74.6182 140.3C76.1328 141.225 77.6678 142.099 78.9689 142.933C78.252 143.494 77.5729 144.102 76.9359 144.752C76.7021 144.986 76.4784 145.22 76.2548 145.464C74.5775 144.447 72.5445 143.288 70.5216 141.987C68.5672 140.78 66.7113 139.421 64.9714 137.921C63.286 136.436 61.9051 134.637 60.9054 132.625C59.5432 134.069 58.3336 135.37 57.2967 136.346C54.2028 139.329 50.8485 142.03 47.2739 144.417C42.8215 147.527 39.7821 149.286 34.9435 149.499C28.1226 149.804 22.3387 146.724 22.1455 135.471C21.9219 123.731 27.6449 114.206 32.6461 105.657C36.0515 99.8423 39.0197 95.3391 39.6906 93.916C35.7872 86.5971 36.7732 82.1651 38.3895 79.6136C39.1649 78.4061 40.1905 77.3792 41.3971 76.6023C42.6037 75.8254 43.963 75.3166 45.3831 75.1104C46.999 74.7881 48.6662 74.827 50.2653 75.2241C51.8645 75.6213 53.3561 76.3669 54.6335 77.4078C56.1204 78.5868 57.2271 80.1778 57.8152 81.9821C58.6385 84.4014 58.2319 89.179 57.5204 91.6492C57.2344 92.9372 56.7399 94.1699 56.0566 95.2985C59.6551 95.4815 67.2383 96.9046 67.7872 96.8741C69.251 97.0164 71.4162 96.62 74.0693 96.6301C76.7224 96.6403 82.5267 97.9211 87.6195 98.2362C89.1111 96.9485 91.0161 96.24 92.9867 96.24C94.9573 96.24 96.8623 96.9485 98.3539 98.2362L111.447 96.6505H120.067C123.318 96.0107 126.603 95.5593 129.907 95.2985C128.616 93.977 125.688 84.5437 129.673 79.0342C135.538 71.9795 143.599 75.4662 145.388 77.1536C150.115 81.1282 149.83 86.9935 146.283 93.855Z" fill="white"/>
<path d="M159.114 59.7712C160.018 60.93 169.574 73.85 159.54 94.1702L156.491 92.6658C165.833 73.7483 156.491 61.9669 156.43 61.8449L156.308 61.6924C155.912 61.0724 146.316 46.5768 128.791 56.2236L127.154 53.2553C146.732 42.4396 158.168 58.3887 159.114 59.7712Z" fill="#4C8BCA"/>
<path d="M160.057 132.218C160.254 134.225 160.22 136.248 159.956 138.246C159.749 139.951 159.192 141.595 158.319 143.075C157.893 143.722 157.338 144.274 156.69 144.697C156.041 145.121 155.312 145.406 154.548 145.535C152.299 146.034 149.959 145.939 147.758 145.26C145.059 144.243 142.53 142.824 140.256 141.052C137.471 139.146 134.819 137.054 132.317 134.79C129.684 132.361 127.132 129.504 125.709 127.99C124.286 126.475 123.971 126.312 123.575 126.973C123.178 127.634 122.67 129.149 121.958 130.643C121.148 132.401 119.973 133.967 118.512 135.238C116.266 137.138 113.858 138.839 111.315 140.32C109.658 141.337 108.002 142.292 106.609 143.177C105.025 141.889 103.27 140.829 101.394 140.025V140.025C101.518 140.09 101.657 140.118 101.796 140.106C101.935 140.093 102.067 140.04 102.177 139.954C102.888 139.487 103.905 137.921 105.409 136.051C106.914 134.18 108.937 131.985 110.827 129.952C112.718 127.919 114.487 126.048 116.185 123.964C117.882 121.88 119.488 119.573 120.728 118.333C121.969 117.093 122.822 116.93 123.778 117.133C124.974 117.487 126.127 117.974 127.214 118.587C128.576 119.248 130.182 119.99 132.642 121.382C135.102 122.775 138.406 124.808 140.601 126.251C142.797 127.695 143.905 128.508 144.576 128.915C145.247 129.321 145.491 129.332 145.542 128.915C145.507 127.976 145.147 127.078 144.525 126.373C143.191 124.645 141.766 122.989 140.256 121.413C138.558 119.542 136.84 117.581 135.366 115.588C134.066 113.854 132.913 112.015 131.92 110.089C131.199 108.605 130.975 107.649 130.67 107.121C130.365 106.592 129.969 106.47 128.942 106.368C127.915 106.267 126.238 106.206 124.632 106.135C123.026 106.063 121.45 105.972 120.23 105.86C119.107 105.728 117.976 105.674 116.845 105.697C115.554 105.758 113.857 106.002 111.824 105.992C109.791 105.982 107.402 105.718 104.962 105.484C102.865 105.219 100.753 105.097 98.6394 105.118C97.2874 105.22 97.0841 105.636 96.9622 105.88C96.8993 106.027 96.821 106.167 96.7284 106.297C96.6485 106.434 96.5566 106.563 96.4539 106.684C96.2341 106.954 95.989 107.202 95.722 107.426C95.4117 107.67 95.0698 107.872 94.7055 108.025C94.3804 108.166 94.0389 108.265 93.689 108.32C94.0032 108.258 94.3098 108.163 94.6038 108.035C95.013 107.861 95.3907 107.621 95.722 107.324C96.0244 107.022 96.2843 106.68 96.4946 106.307C96.7219 105.955 96.8966 105.572 97.013 105.169C97.1249 104.731 97.1762 104.279 97.1655 103.827C97.1717 103.432 97.1203 103.038 97.013 102.658C96.9221 102.358 96.7994 102.068 96.647 101.794C96.5415 101.622 96.4225 101.459 96.2913 101.306L95.9456 100.95L95.7423 100.767C95.8269 100.819 95.9053 100.881 95.9761 100.95C96.1659 101.116 96.3427 101.296 96.5047 101.489C96.5612 101.569 96.6385 101.633 96.7284 101.672C96.8605 101.743 97.1248 101.855 98.5683 101.764C100.012 101.672 102.634 101.367 104.728 101.082C106.822 100.798 108.286 100.544 109.618 100.371C110.876 100.19 112.149 100.125 113.42 100.178C114.731 100.249 116.195 100.462 117.628 100.442C119.087 100.373 120.538 100.189 121.969 99.8932C123.514 99.6187 125.201 99.3341 127.051 99.1206C128.901 98.9071 130.751 98.775 132.235 98.7038C133.327 98.7018 134.417 98.6237 135.498 98.47C135.769 98.4379 136.027 98.337 136.248 98.1768C136.468 98.0167 136.644 97.8026 136.759 97.5552C136.924 97.0997 136.963 96.6078 136.871 96.132C136.831 95.6948 136.681 95.2749 136.434 94.9122C136.301 94.7821 136.141 94.6835 135.965 94.6237C135.789 94.5639 135.602 94.5444 135.417 94.5666C134.971 94.5962 134.523 94.5655 134.085 94.4751C133.6 94.2773 133.198 93.9183 132.947 93.4586C132.454 92.6042 132.097 91.6782 131.89 90.714C131.554 89.3196 131.346 87.8973 131.27 86.4649C131.135 85.1724 131.277 83.866 131.686 82.6327C132.109 81.5874 132.812 80.6796 133.719 80.0101C134.608 79.2987 135.653 78.8106 136.769 78.5869C137.891 78.3779 139.042 78.3779 140.164 78.5869C141.041 78.7465 141.873 79.0932 142.604 79.6034C143.307 80.078 143.917 80.6775 144.403 81.3722C144.81 82.0067 145.077 82.7205 145.186 83.4662C145.324 84.2722 145.345 85.094 145.247 85.9059C145.122 86.8046 144.9 87.6873 144.586 88.5386C144.276 89.4275 143.92 90.2996 143.519 91.1511C143.172 91.8064 142.873 92.4859 142.624 93.1841C142.465 93.7562 142.504 94.3655 142.736 94.9122C143.327 96.2533 144.041 97.5363 144.871 98.7445C146.355 101.164 148.876 105.22 151.427 109.662C153.955 113.895 156.16 118.312 158.024 122.877C159.162 125.872 159.847 129.021 160.057 132.218V132.218Z" fill="#A92819"/>
<path d="M159.152 172.331H155.757V198.404H159.152V172.331Z" fill="#2A3277"/>
<path d="M133.261 0.274414L149.282 16.3049L133.261 32.3252L117.241 16.3049L133.261 0.274414ZM133.261 28.7369L145.683 16.3252L133.261 3.88306L120.839 16.3049L133.261 28.7369Z" fill="#179E6C"/>
<path d="M147.83 172.331H144.435V198.648H147.83V172.331Z" fill="#2A3277"/>
<path d="M144.588 126.354C145.21 127.058 145.569 127.956 145.604 128.895C145.554 129.312 145.31 129.312 144.639 128.895C143.968 128.478 142.87 127.665 140.664 126.232C138.458 124.798 135.165 122.755 132.705 121.362C130.245 119.97 128.639 119.228 127.277 118.567C126.19 117.954 125.037 117.467 123.841 117.113C122.824 116.91 122.011 117.113 120.791 118.313C119.571 119.512 117.935 121.861 116.247 123.944C114.56 126.028 112.781 127.909 110.89 129.932C109 131.955 106.987 134.14 105.472 136.031C103.958 137.922 102.951 139.467 102.24 139.934C102.13 140.02 101.998 140.073 101.859 140.086C101.72 140.098 101.58 140.07 101.457 140.005C101.127 139.763 100.85 139.455 100.644 139.101C100.166 138.44 99.6273 137.749 99.2309 137.068C98.831 136.408 98.5328 135.692 98.3465 134.943C98.2594 134.277 98.0992 133.622 97.8687 132.991C97.5739 132.382 97.025 131.812 96.6387 131.975C96.2525 132.138 96.0288 133.134 95.9373 134.323C95.8461 135.712 95.9384 137.106 96.2118 138.47V138.47C95.0283 138.282 93.832 138.187 92.6336 138.186C91.6579 138.183 90.6832 138.248 89.7162 138.379C89.9817 137.041 90.0705 135.674 89.9805 134.313C89.889 133.124 89.6654 132.158 89.2791 131.965C88.8929 131.772 88.3439 132.331 88.0593 132.981C87.8207 133.61 87.6569 134.266 87.5714 134.933C87.4 135.675 87.1191 136.388 86.7378 137.047C86.3414 137.749 85.8026 138.44 85.335 139.08C85.2131 139.253 85.1012 139.416 84.9793 139.558C84.6235 139.69 84.2575 139.843 83.8916 139.995L83.7391 139.914C83.0275 139.446 82.0212 137.881 80.5066 136.01C78.992 134.14 76.9793 131.944 75.0885 129.911C73.1978 127.878 71.4291 126.008 69.7315 123.924C68.0339 121.84 66.4278 119.533 65.1876 118.293C63.9475 117.052 63.0936 116.89 62.1381 117.093C60.9421 117.456 59.7898 117.951 58.7023 118.567C57.3503 119.228 55.734 119.97 53.274 121.362C50.8141 122.755 47.5206 124.778 45.2944 126.232C43.0682 127.685 41.9907 128.488 41.3198 128.895C40.6489 129.301 40.4151 129.312 40.3643 128.895C40.3924 127.954 40.7525 127.054 41.3808 126.354C42.7148 124.625 44.14 122.97 45.6502 121.393C47.3477 119.523 49.0657 117.561 50.5396 115.568C51.8397 113.835 52.9924 111.995 53.9856 110.069C54.7073 108.585 54.931 107.629 55.2359 107.101C55.5409 106.572 55.9373 106.45 56.9742 106.348C58.011 106.247 59.6679 106.186 61.2842 106.115C62.9005 106.044 64.4558 105.952 65.6756 105.84C66.7988 105.708 67.9299 105.654 69.0606 105.678C70.3516 105.739 72.0491 105.983 74.1432 105.972C76.2372 105.962 78.5549 105.698 81.0047 105.464C83.0981 105.199 85.2072 105.076 87.3173 105.098C88.6692 105.2 88.8725 105.617 88.9945 105.861C89.0616 106.005 89.1398 106.145 89.2283 106.277C89.3082 106.414 89.4 106.543 89.5028 106.664C89.7226 106.934 89.9677 107.182 90.2347 107.406C90.544 107.652 90.8861 107.854 91.2512 108.005C91.48 108.104 91.7185 108.179 91.9627 108.229C92.0605 108.267 92.1632 108.291 92.2677 108.3H92.3795H92.5625C92.7182 108.311 92.8744 108.311 93.0301 108.3V108.3C93.1824 108.31 93.3352 108.31 93.4875 108.3H93.6705H93.7823C94.1322 108.245 94.4738 108.146 94.7988 108.005C95.1631 107.852 95.505 107.65 95.8154 107.406C96.0823 107.182 96.3274 106.934 96.5473 106.664C96.65 106.543 96.7418 106.414 96.8217 106.277C96.9143 106.147 96.9927 106.007 97.0555 105.861C97.1775 105.617 97.3808 105.2 98.7328 105.098C100.846 105.077 102.959 105.199 105.056 105.464C107.495 105.698 109.874 105.962 111.917 105.972C113.96 105.983 115.648 105.739 116.939 105.678C118.069 105.654 119.2 105.708 120.324 105.84C121.543 105.952 123.109 106.033 124.725 106.115C126.341 106.196 127.998 106.257 129.035 106.348C130.072 106.44 130.458 106.562 130.763 107.101C131.068 107.639 131.292 108.585 132.014 110.069C133.007 111.995 134.159 113.835 135.46 115.568C136.934 117.601 138.651 119.523 140.349 121.393C141.849 122.97 143.264 124.626 144.588 126.354V126.354ZM128.181 115.517C130.306 116.534 131.404 117.103 132.949 117.906C130.953 115.422 129.346 112.649 128.181 109.683C125.701 109.581 119.714 109.276 118.067 109.063C116.766 108.941 112.984 109.591 109.599 109.276C107.566 109.205 101.467 108.341 99.2817 108.443C98.5696 109.476 97.6169 110.321 96.5058 110.905C95.3946 111.489 94.1582 111.794 92.903 111.794C91.6478 111.794 90.4114 111.489 89.3003 110.905C88.1891 110.321 87.2365 109.476 86.5244 108.443C83.9221 108.392 79.4901 109.103 75.9526 109.286C71.4494 109.612 69.8535 108.788 66.8954 109.113C63.4697 109.479 59.8509 109.49 57.6247 109.683C56.4426 112.638 54.8403 115.408 52.8674 117.906C54.5549 117.195 56.8319 115.873 58.9056 114.857C61.1622 113.84 63.2664 113.271 65.7467 114.725C68.227 116.178 70.8293 120.692 74.3871 124.493C76.9183 127.238 80.8217 131.243 83.9424 135.299C84.2359 134.721 84.4219 134.094 84.4913 133.449C84.5841 132.327 85.0372 131.266 85.7828 130.423C86.5285 129.581 87.5268 129.002 88.6286 128.773C90.2448 128.539 92.3287 129.505 92.9081 132.229C93.5282 129.678 95.2664 128.844 96.4049 128.753C97.5434 128.661 99.6781 129.24 100.878 131.883C101.254 132.717 101.335 134.394 101.894 135.299L102.402 134.608C104.435 131.894 111.327 124.859 113.584 121.962C117.101 117.52 118.311 115.243 121.401 114.105C123.322 113.525 125.071 113.983 128.181 115.517V115.517Z" fill="white"/>
<path d="M133.455 11.3953L138.436 16.3864L133.455 21.3673L128.464 16.3864L133.455 11.3953Z" fill="#2A3277"/>
<path d="M132.632 179.283C133.929 179.283 135.197 179.668 136.275 180.388C137.353 181.109 138.193 182.133 138.69 183.331C139.186 184.529 139.316 185.847 139.063 187.119C138.81 188.391 138.185 189.559 137.268 190.476C136.351 191.393 135.183 192.017 133.911 192.27C132.639 192.523 131.321 192.393 130.123 191.897C128.925 191.401 127.901 190.561 127.181 189.482C126.46 188.404 126.076 187.137 126.076 185.84C126.076 184.101 126.766 182.433 127.996 181.204C129.226 179.974 130.893 179.283 132.632 179.283ZM136.698 185.84C136.7 185.047 136.468 184.272 136.03 183.612C135.592 182.951 134.969 182.435 134.238 182.128C133.508 181.821 132.703 181.737 131.924 181.887C131.146 182.037 130.43 182.413 129.865 182.969C129.301 183.525 128.913 184.236 128.752 185.012C128.591 185.788 128.662 186.594 128.958 187.329C129.254 188.064 129.761 188.695 130.414 189.143C131.068 189.591 131.84 189.835 132.632 189.845C133.691 189.832 134.703 189.406 135.453 188.658C136.203 187.91 136.632 186.899 136.647 185.84H136.698Z" fill="#4C8BCA"/>
<path d="M132.631 183.543C133.085 183.543 133.529 183.678 133.907 183.93C134.285 184.183 134.58 184.541 134.753 184.961C134.927 185.381 134.973 185.843 134.884 186.288C134.796 186.734 134.577 187.143 134.255 187.465C133.934 187.786 133.525 188.005 133.079 188.093C132.633 188.182 132.172 188.137 131.752 187.963C131.332 187.789 130.973 187.494 130.721 187.117C130.468 186.739 130.334 186.295 130.334 185.84C130.336 185.232 130.579 184.649 131.009 184.219C131.44 183.789 132.022 183.546 132.631 183.543V183.543Z" fill="#2A3277"/>
<path d="M132.908 117.906C131.363 117.103 130.265 116.554 128.141 115.517C125.03 113.982 123.282 113.484 121.371 114.135C118.321 115.273 117.071 117.55 113.554 121.992C111.266 124.889 104.344 131.924 102.372 134.638L101.864 135.329C101.325 134.424 101.244 132.747 100.847 131.914C99.6476 129.271 97.6349 128.712 96.3744 128.783C95.1139 128.854 93.4977 129.708 92.8776 132.259C92.2982 129.535 90.2143 128.569 88.5981 128.803C87.4962 129.032 86.498 129.611 85.7523 130.453C85.0066 131.296 84.5536 132.358 84.4608 133.479C84.3913 134.124 84.2054 134.751 83.9119 135.329C80.7912 131.263 76.8878 127.268 74.3566 124.523C70.8191 120.722 68.1762 116.097 65.7162 114.755C63.2562 113.413 61.1317 113.86 58.875 114.887C56.842 115.842 54.5243 117.194 52.8369 117.936C54.8098 115.438 56.412 112.668 57.5942 109.713C59.8204 109.52 63.4392 109.51 66.8649 109.144C69.7924 108.818 71.4189 109.642 75.9221 109.316C79.4595 109.133 83.8916 108.422 86.4938 108.473C87.206 109.506 88.1586 110.351 89.2698 110.935C90.3809 111.519 91.6173 111.824 92.8725 111.824C94.1277 111.824 95.3641 111.519 96.4753 110.935C97.5864 110.351 98.5391 109.506 99.2512 108.473C101.416 108.371 107.515 109.235 109.569 109.306C112.974 109.621 116.735 108.971 118.036 109.093C119.683 109.306 125.67 109.611 128.151 109.713C129.315 112.668 130.919 115.43 132.908 117.906ZM116.644 112.61C112.883 112.854 112.08 113.027 101.061 111.868C98.913 113.93 96.0484 115.078 93.0707 115.07H92.6946C89.7201 115.078 86.8588 113.93 84.7149 111.868C73.6857 113.027 72.8928 112.884 69.1317 112.61C74.5091 118.587 76.6743 122.775 83.1393 129.403C83.559 128.568 84.1498 127.831 84.8733 127.241C85.5968 126.65 86.4367 126.218 87.3382 125.973C88.2398 125.729 89.1827 125.677 90.1057 125.821C91.0286 125.965 91.9107 126.303 92.6946 126.811L92.8878 126.943L93.0707 126.811C93.8559 126.304 94.7387 125.968 95.662 125.825C96.5854 125.681 97.5286 125.733 98.4304 125.978C99.3323 126.222 100.173 126.653 100.897 127.243C101.622 127.833 102.214 128.569 102.636 129.403C109.183 122.816 111.338 118.587 116.725 112.579L116.644 112.61Z" fill="#A92819"/>
<path d="M121.186 172.331H117.791V198.028H121.186V172.331Z" fill="#4C8BCA"/>
<path d="M108.001 37.8348C109.449 37.8563 110.862 38.2874 112.076 39.0782C113.29 39.869 114.255 40.9872 114.86 42.3036C115.465 43.6199 115.685 45.0806 115.495 46.5168C115.305 47.953 114.712 49.3059 113.785 50.4193C112.057 51.7103 110.4 50.1042 111.213 48.7115C113.002 45.662 111 42.2363 108.336 42.0635C105.287 41.5857 102.623 44.0965 103.772 47.817C104.112 47.9698 104.401 48.2155 104.607 48.5257C104.812 48.836 104.926 49.1981 104.934 49.5703C104.943 49.9424 104.846 50.3094 104.655 50.6287C104.463 50.948 104.186 51.2067 103.853 51.3748H94.5218V68.554L105.155 57.9314C107.665 55.8272 109.77 58.6836 107.848 60.5438L94.5218 73.9517V84.3913L104.951 73.9517C107.238 71.9898 109.414 74.9682 107.462 76.6251L94.5218 89.7586V92.7471C93.3161 92.5768 92.0909 92.6008 90.8928 92.8183V89.9822L77.7391 76.6455C75.7772 74.9682 77.9525 72.0101 80.2499 73.9517L90.8928 84.615V74.1956L77.3528 60.5438C75.4316 58.6836 77.5358 55.8272 80.0364 57.9314L90.8928 68.7776V51.3748H81.3375C81.0054 51.2067 80.7277 50.948 80.5364 50.6287C80.3451 50.3094 80.2481 49.9424 80.2566 49.5703C80.2651 49.1981 80.3788 48.836 80.5845 48.5257C80.7901 48.2155 81.0794 47.9698 81.4189 47.817C82.5675 44.1169 79.8738 41.5857 76.8547 42.0635C74.2016 42.2363 72.199 45.662 73.978 48.7115C74.8013 50.1042 73.1342 51.7103 71.4163 50.4193C70.4899 49.3066 69.8971 47.9545 69.7064 46.5193C69.5157 45.084 69.7349 43.6241 70.3387 42.3081C70.9425 40.9921 71.9062 39.8737 73.1185 39.0822C74.3309 38.2906 75.7425 37.8582 77.1902 37.8348C81.4087 37.6518 86.0034 40.3456 86.3388 47.8068H90.8725V39.9288L81.0631 30.1397C79.579 28.7268 82.0796 25.5247 84.0212 27.0902L90.9233 33.911V23.7458C91.4621 20.8894 94.1762 20.8894 94.5523 23.7458V33.6772L101.241 27.08C103.213 25.5247 105.673 28.7268 104.189 30.1296L94.5523 39.695V47.8272H98.8623C99.1876 40.3456 103.782 37.6518 108.001 37.8348Z" fill="#0F7657"/>
<path d="M101.141 111.868C112.16 113.027 112.963 112.884 116.724 112.61C111.336 118.587 109.181 122.775 102.716 129.403C102.294 128.569 101.702 127.833 100.978 127.243C100.253 126.653 99.4125 126.222 98.5106 125.977C97.6088 125.733 96.6656 125.681 95.7423 125.824C94.8189 125.968 93.9361 126.304 93.1509 126.81L92.968 126.943L92.7748 126.81C91.9909 126.302 91.1088 125.965 90.1859 125.821C89.2629 125.677 88.32 125.728 87.4184 125.973C86.5169 126.218 85.677 126.649 84.9535 127.24C84.23 127.831 83.6392 128.568 83.2195 129.403C76.7545 122.816 74.5893 118.587 69.2119 112.61C72.973 112.854 73.7659 113.027 84.7951 111.868C86.939 113.93 89.8003 115.078 92.7748 115.07H93.1509C96.1286 115.078 98.9932 113.93 101.141 111.868V111.868Z" fill="white"/>
<path d="M110.869 158.496H94.6044V154.094L94.889 154.267C96.4288 155.175 98.1838 155.655 99.9716 155.655C101.759 155.655 103.514 155.175 105.054 154.267C106.437 153.498 107.57 152.348 108.317 150.953C108.916 151.943 109.427 152.984 109.842 154.064C109.913 154.257 109.984 154.45 110.045 154.633C110.106 154.816 110.198 155.111 110.269 155.344C110.34 155.578 110.401 155.853 110.472 156.107C110.653 156.894 110.786 157.692 110.869 158.496V158.496Z" fill="white"/>
<path d="M110.869 158.496C110.781 157.702 110.646 156.914 110.462 156.137C110.661 156.911 110.797 157.7 110.869 158.496V158.496Z" fill="#1D1D1B"/>
<path d="M110.462 156.137C110.39 155.883 110.329 155.629 110.258 155.375C110.34 155.625 110.408 155.88 110.462 156.137V156.137Z" fill="#1D1D1B"/>
<path d="M110.261 155.375C110.189 155.141 110.118 154.897 110.037 154.663C110.118 154.897 110.2 155.131 110.261 155.375Z" fill="#1D1D1B"/>
<path d="M109.284 145.688C110.085 146.584 110.81 147.546 111.449 148.564C110.547 149.088 109.684 149.676 108.867 150.323C108.66 150.518 108.476 150.737 108.318 150.973C107.69 149.926 106.958 148.946 106.133 148.046C106.461 147.65 106.848 147.307 107.281 147.029C107.81 146.602 108.511 146.175 109.284 145.688Z" fill="#0F7657"/>
<path d="M108.378 144.722C108.693 145.037 108.998 145.352 109.283 145.687C108.48 146.175 107.809 146.602 107.25 146.999C106.817 147.277 106.43 147.619 106.101 148.015L105.573 147.466L105.461 147.365C105.268 147.161 105.064 146.978 104.861 146.795L104.393 146.389L103.844 145.941C103.696 145.811 103.539 145.689 103.377 145.576C103.654 145.253 103.96 144.957 104.292 144.691C105.013 144.111 105.77 143.578 106.559 143.095C107.197 143.6 107.805 144.144 108.378 144.722V144.722Z" fill="#0F7657"/>
<path d="M108.318 150.973C107.686 149.932 106.954 148.955 106.133 148.056C106.957 148.952 107.689 149.93 108.318 150.973V150.973Z" fill="#1D1D1B"/>
<path d="M108.307 150.984C107.56 152.378 106.427 153.528 105.044 154.297C103.505 155.206 101.75 155.685 99.9618 155.685C98.1741 155.685 96.419 155.206 94.8792 154.297L94.5946 154.125V148.89C94.8566 149.417 95.1996 149.901 95.6111 150.323C96.5379 151.247 97.7327 151.854 99.0251 152.058C100.318 152.263 101.641 152.054 102.808 151.461C104.709 150.516 105.197 149.215 106.112 148.097C106.935 148.986 107.67 149.953 108.307 150.984Z" fill="white"/>
<path d="M107.951 184.752L92.7036 200L77.4558 184.752L92.7036 169.504L107.951 184.752ZM92.7036 196.442L104.394 184.752L92.7036 173.062L80.973 184.752L92.7036 196.442Z" fill="#179E6C"/>
<path d="M105.603 147.497L106.131 148.046C105.928 147.812 105.714 147.599 105.501 147.375L105.603 147.497Z" fill="white"/>
<path d="M105.46 147.395C105.674 147.619 105.887 147.832 106.09 148.066C105.176 149.184 104.688 150.485 102.787 151.43C101.62 152.023 100.296 152.232 99.0037 152.027C97.7113 151.823 96.5165 151.216 95.5898 150.292C95.1783 149.87 94.8353 149.387 94.5732 148.859V142.231C95.5002 142.327 96.418 142.497 97.3178 142.739V142.892C97.4701 143.866 97.5246 144.854 97.4805 145.84C97.4357 146.436 97.6012 147.03 97.9481 147.517C98.154 147.782 98.4115 148.002 98.7051 148.165C98.9986 148.327 99.322 148.428 99.6558 148.462C100.07 148.502 100.487 148.449 100.878 148.306C101.268 148.164 101.622 147.936 101.913 147.639C102.36 147.161 102.624 146.47 103.366 145.606L103.844 145.962C104.037 146.114 104.22 146.256 104.393 146.409L104.86 146.815L105.46 147.395Z" fill="white"/>
<path d="M105.461 147.395L104.862 146.826C105.095 147.009 105.299 147.192 105.461 147.395Z" fill="white"/>
<path d="M106.589 143.126C105.8 143.609 105.043 144.142 104.322 144.721C103.991 144.988 103.685 145.284 103.407 145.606C103.365 145.568 103.317 145.537 103.265 145.514C101.484 144.205 99.4691 143.249 97.3284 142.699C97.0743 141.458 96.5457 139.924 96.2407 138.49C98.0155 138.787 99.7466 139.302 101.394 140.025C103.261 140.814 105.009 141.858 106.589 143.126V143.126Z" fill="#0F7657"/>
<path d="M104.443 146.419C104.27 146.267 104.087 146.125 103.894 145.972L104.443 146.419Z" fill="#1D1D1B"/>
<path d="M103.876 145.972L103.398 145.616C103.564 145.726 103.724 145.845 103.876 145.972V145.972Z" fill="#1D1D1B"/>
<path d="M103.43 145.607L103.297 145.504C103.346 145.532 103.391 145.566 103.43 145.607V145.607Z" fill="#1D1D1B"/>
<path d="M103.266 145.514L103.399 145.616C102.657 146.47 102.382 147.161 101.945 147.649C101.654 147.946 101.3 148.174 100.91 148.317C100.52 148.459 100.102 148.512 99.6883 148.473C99.3545 148.439 99.0311 148.337 98.7376 148.175C98.444 148.012 98.1865 147.792 97.9806 147.527C97.6337 147.04 97.4682 146.446 97.513 145.85C97.5571 144.864 97.5026 143.877 97.3503 142.902V142.75C99.4743 143.303 101.479 144.24 103.266 145.514V145.514Z" fill="white"/>
<path d="M101.579 8.9757L92.7248 17.8296L83.871 8.9757L92.7248 0.121826L101.579 8.9757ZM92.7248 14.2311L97.9803 8.9757L92.7248 3.7203L87.4694 8.9757L92.7248 14.2311Z" fill="#179E6C"/>
<path d="M101.393 140.025C99.7349 139.307 97.9934 138.798 96.2091 138.511V138.511C95.9357 137.146 95.8435 135.752 95.9347 134.363C96.0262 133.174 96.2498 132.208 96.6361 132.015C97.0224 131.822 97.5713 132.381 97.8661 133.032C98.0936 133.65 98.2538 134.291 98.3438 134.943C98.5152 135.685 98.7961 136.398 99.1774 137.057C99.584 137.759 100.113 138.45 100.59 139.09C100.79 139.454 101.064 139.773 101.393 140.025V140.025Z" fill="#A92819"/>
<path d="M103.265 145.514C101.473 144.234 99.4608 143.294 97.329 142.739C99.4667 143.277 101.482 144.219 103.265 145.514V145.514Z" fill="#1D1D1B"/>
<path d="M92.656 179.755L87.6801 184.741L92.6665 189.717L97.6424 184.731L92.656 179.755Z" fill="#2A3277"/>
<path d="M97.2267 103.837C97.2374 104.289 97.1861 104.741 97.0742 105.179C96.9578 105.582 96.7831 105.965 96.5557 106.318C96.3455 106.69 96.0856 107.032 95.7832 107.334C95.4519 107.631 95.0742 107.871 94.665 108.046C94.371 108.173 94.0644 108.268 93.7502 108.33H93.4554C93.3031 108.34 93.1502 108.34 92.9979 108.33C92.8422 108.34 92.686 108.34 92.5303 108.33H92.2355C92.131 108.321 92.0284 108.297 91.9306 108.259C91.7228 108.202 91.519 108.13 91.3207 108.046C90.9145 107.866 90.5375 107.626 90.2025 107.334C89.9001 107.032 89.6402 106.69 89.43 106.318C89.2066 105.963 89.0322 105.58 88.9115 105.179C88.8045 104.74 88.7533 104.289 88.7591 103.837C88.7528 103.442 88.8042 103.048 88.9115 102.668C89.0011 102.366 89.1274 102.076 89.2876 101.804C89.3866 101.631 89.5023 101.467 89.6333 101.316L89.9789 100.961L90.1822 100.778C90.2611 100.706 90.3462 100.641 90.4363 100.584C90.4796 100.54 90.5315 100.506 90.5888 100.483L90.9649 100.269C91.0296 100.223 91.1018 100.189 91.1784 100.168L91.646 100.005C91.796 99.9582 91.9487 99.9208 92.1034 99.8932H92.1949H92.4389C92.4501 99.8884 92.4622 99.886 92.4744 99.886C92.4866 99.886 92.4987 99.8884 92.51 99.8932V99.8932C92.5876 99.8833 92.6662 99.8833 92.7438 99.8932H93.1911C93.2023 99.8884 93.2144 99.886 93.2266 99.886C93.2389 99.886 93.251 99.8884 93.2622 99.8932H93.5265H93.7807H93.8721C94.0268 99.9208 94.1796 99.9582 94.3296 100.005L94.7972 100.168C94.8737 100.189 94.946 100.223 95.0106 100.269L95.3868 100.483C95.444 100.506 95.496 100.54 95.5392 100.584C95.6294 100.641 95.7144 100.706 95.7934 100.778L95.9967 100.961L96.3423 101.316C96.4735 101.469 96.5925 101.632 96.6981 101.804C96.8504 102.078 96.9731 102.368 97.064 102.668C97.1748 103.048 97.2296 103.442 97.2267 103.837Z" fill="#A92819"/>
<path d="M96.2199 138.491C96.5248 139.924 97.0534 141.459 97.3075 142.699C96.4104 142.468 95.4959 142.312 94.5731 142.231C94.2072 142.231 93.8412 142.16 93.4651 142.15C93.2923 141.54 93.1398 140.94 92.9873 140.361C92.8349 140.91 92.662 141.561 92.4994 142.14C91.9403 142.14 91.3812 142.14 90.8425 142.242C90.4359 142.242 90.0394 142.333 89.643 142.404C89.3006 142.444 88.9611 142.505 88.6265 142.587C88.8806 141.367 89.3889 139.893 89.643 138.521C89.648 138.494 89.648 138.467 89.643 138.44C90.6099 138.309 91.5846 138.244 92.5604 138.247C93.7848 138.23 95.0085 138.312 96.2199 138.491V138.491Z" fill="#0F7657"/>
<path d="M95.8049 100.778C95.726 100.706 95.6409 100.641 95.5508 100.584C95.6443 100.636 95.7299 100.701 95.8049 100.778V100.778Z" fill="#1D1D1B"/>
<path d="M95.1829 100.381C95.2586 100.422 95.3301 100.469 95.3964 100.524L95.0203 100.31C95.0785 100.323 95.1337 100.347 95.1829 100.381Z" fill="#1D1D1B"/>
<path d="M94.8057 100.168L94.3381 100.005C94.5002 100.039 94.6574 100.094 94.8057 100.168V100.168Z" fill="#1D1D1B"/>
<path d="M92.6623 6.83194L90.5563 8.93799L92.6623 11.044L94.7684 8.93799L92.6623 6.83194Z" fill="#2A3277"/>
<path d="M94.5745 154.094V158.495H90.8439V154.429C91.6179 153.972 92.3287 153.415 92.9582 152.772C93.4486 153.269 93.9904 153.712 94.5745 154.094Z" fill="#0F7657"/>
<path d="M94.5745 148.859V154.094C93.9889 153.702 93.4471 153.249 92.9582 152.742C92.3287 153.384 91.6179 153.941 90.8439 154.399V149.733C92.6838 147.192 91.7282 145.118 92.206 143.278C92.2772 143.014 92.389 142.597 92.5008 142.14C92.8261 142.14 93.1412 142.14 93.4563 142.14C93.5478 142.506 93.6393 142.872 93.7409 143.227C94.1577 144.671 93.497 146.775 94.5745 148.859Z" fill="#0F7657"/>
<path d="M94.5736 142.231V148.859C93.4961 146.775 94.1568 144.671 93.7502 143.238C93.6486 142.882 93.5571 142.516 93.4656 142.15C93.8417 142.16 94.2076 142.191 94.5736 142.231Z" fill="#0F7657"/>
<path d="M94.5214 92.7473V92.8998H90.8925V92.8184C92.0905 92.601 93.3157 92.577 94.5214 92.7473V92.7473Z" fill="#1D1D1B"/>
<path d="M94.1761 99.9444C94.2333 99.9556 94.2883 99.9762 94.3388 100.005C94.1888 99.9586 94.036 99.9212 93.8813 99.8936L94.1761 99.9444Z" fill="#1D1D1B"/>
<path d="M93.4649 142.15C93.1498 142.15 92.8347 142.15 92.5094 142.15C92.672 141.571 92.8448 140.92 92.9973 140.371C93.1396 140.94 93.2616 141.54 93.4649 142.15Z" fill="#0F7657"/>
<path d="M92.9991 108.381C93.1515 108.391 93.3043 108.391 93.4566 108.381C93.3043 108.391 93.1515 108.391 92.9991 108.381V108.381Z" fill="#1D1D1B"/>
<path d="M93.3232 99.8222C93.3119 99.8174 93.2998 99.8149 93.2875 99.8149C93.2752 99.8149 93.263 99.8174 93.2517 99.8222H93.3743H93.3232Z" fill="#1D1D1B"/>
<path d="M92.4783 108.351C92.634 108.361 92.7902 108.361 92.9459 108.351C92.7902 108.362 92.634 108.362 92.4783 108.351V108.351Z" fill="#1D1D1B"/>
<path d="M92.7548 99.8116C92.6772 99.8017 92.5986 99.8017 92.521 99.8116H92.7548Z" fill="#1D1D1B"/>
<path d="M92.4779 99.8324C92.4666 99.8277 92.4544 99.8252 92.4421 99.8252C92.4298 99.8252 92.4177 99.8277 92.4064 99.8324H92.4881H92.4779Z" fill="#1D1D1B"/>
<path d="M92.5008 142.14C92.389 142.597 92.2772 143.014 92.206 143.278C91.7282 145.118 92.6838 147.192 90.8439 149.733V142.241C91.3826 142.18 91.9417 142.15 92.5008 142.14Z" fill="#0F7657"/>
<path d="M92.0948 99.8833H91.8C91.8712 99.924 91.983 99.8935 92.0948 99.8833Z" fill="#1D1D1B"/>
<path d="M92.0534 99.8936C91.8987 99.9212 91.7459 99.9586 91.5959 100.005C91.6464 99.9762 91.7014 99.9556 91.7586 99.9444L92.0534 99.8936Z" fill="#1D1D1B"/>
<path d="M91.8799 108.229C91.6356 108.179 91.3972 108.104 91.1683 108.005C90.8032 107.853 90.4611 107.651 90.1518 107.405C89.8848 107.182 89.6397 106.933 89.4199 106.663C89.3172 106.543 89.2253 106.414 89.1454 106.277C89.0569 106.144 88.9787 106.005 88.9117 105.86C88.7897 105.616 88.5864 105.199 87.2344 105.098C85.1243 105.076 83.0152 105.198 80.9218 105.464C78.472 105.697 76.0934 105.962 74.0603 105.972C72.0273 105.982 70.3195 105.738 68.9777 105.677C67.847 105.654 66.716 105.708 65.5927 105.84C64.3729 105.952 62.8075 106.033 61.2014 106.114C59.5953 106.196 57.918 106.257 56.8913 106.348C55.8646 106.44 55.458 106.562 55.1531 107.1C54.8481 107.639 54.6245 108.584 53.9027 110.069C52.9095 111.995 51.7569 113.834 50.4567 115.568C48.9828 117.601 47.2649 119.522 45.5673 121.393C44.0571 122.969 42.632 124.625 41.2979 126.353C40.6697 127.054 40.3096 127.954 40.2814 128.894C40.2814 129.311 40.566 129.311 41.2369 128.894C41.9078 128.478 43.0057 127.664 45.2115 126.231C47.4174 124.798 50.7109 122.755 53.1709 121.362C55.6308 119.969 57.2369 119.227 58.5991 118.567C59.6875 117.957 60.8397 117.47 62.0349 117.113C63.0514 116.91 63.8748 117.113 65.0845 118.312C66.2941 119.512 67.9409 121.86 69.6283 123.944C71.3157 126.028 73.0946 127.908 74.9853 129.931C76.8761 131.954 78.8888 134.14 80.4034 136.03C81.918 137.921 82.9244 139.466 83.6359 139.934L83.7884 140.015C82.087 140.772 80.4884 141.743 79.0311 142.902C77.7198 142.069 76.195 141.194 74.6804 140.269C72.1396 138.785 69.7317 137.085 67.4834 135.187C66.0256 133.913 64.8515 132.348 64.0374 130.592C63.3259 129.098 62.8278 127.593 62.4212 126.922C62.0146 126.251 61.7096 126.424 60.2865 127.939C58.8634 129.454 56.3221 132.31 53.6791 134.739C51.1652 137.019 48.4991 139.124 45.6994 141.042C43.4249 142.814 40.8957 144.233 38.1975 145.25C35.9962 145.929 33.6561 146.024 31.4072 145.525C30.6442 145.397 29.9157 145.113 29.2669 144.692C28.6181 144.27 28.063 143.72 27.6359 143.075C26.759 141.603 26.1949 139.966 25.979 138.267C25.7153 136.268 25.6812 134.245 25.8773 132.239C26.0833 129.027 26.7686 125.865 27.9104 122.856C29.7744 118.292 31.9797 113.875 34.5076 109.642C37.059 105.199 39.5902 101.143 41.0641 98.7242C41.8945 97.5149 42.6125 96.2321 43.209 94.8919C43.4328 94.3429 43.4686 93.7352 43.3106 93.1638C43.0616 92.4655 42.7627 91.7861 42.4161 91.1308C42.0501 90.348 41.6639 89.4128 41.3487 88.5183C41.0394 87.6655 40.818 86.7833 40.688 85.8855C40.5932 85.0732 40.6172 84.2513 40.7592 83.4459C40.86 82.6997 41.1237 81.9848 41.5317 81.3519C42.0219 80.6569 42.6352 80.0574 43.3411 79.5831C44.0703 79.07 44.903 78.723 45.7808 78.5666C46.9028 78.3574 48.0539 78.3574 49.1759 78.5666C50.2902 78.7948 51.3349 79.2823 52.2255 79.9897C53.144 80.6599 53.864 81.5662 54.3094 82.6123C54.7098 83.8476 54.8483 85.1528 54.716 86.4446C54.6496 87.8779 54.4419 89.3012 54.0959 90.6937C53.8683 91.6468 53.4945 92.5589 52.9879 93.3976C52.7366 93.8573 52.3345 94.2163 51.8494 94.4141C51.4117 94.5052 50.9637 94.536 50.5177 94.5056C50.3412 94.4882 50.1631 94.5102 49.9961 94.57C49.8291 94.6298 49.6774 94.7258 49.552 94.8512C49.2968 95.2106 49.1423 95.6318 49.1048 96.071C49.0223 96.5473 49.0608 97.0366 49.2166 97.4942C49.3326 97.7405 49.509 97.9535 49.7294 98.1134C49.9497 98.2734 50.2069 98.3751 50.4771 98.409C51.558 98.5622 52.6483 98.6404 53.7401 98.6428C55.2242 98.714 57.1251 98.8461 58.9244 99.0596C60.7236 99.2731 62.4212 99.5577 63.9561 99.8322C65.3898 100.129 66.8445 100.312 68.3068 100.381C69.7299 100.381 71.1937 100.188 72.5152 100.117C73.7823 100.065 75.0516 100.129 76.3068 100.31C77.6385 100.483 79.1327 100.737 81.1963 101.021C83.2598 101.306 85.9028 101.611 87.3564 101.703C88.81 101.794 89.0641 101.703 89.1963 101.611C89.2861 101.572 89.3634 101.508 89.4199 101.428C89.582 101.235 89.7587 101.055 89.9485 100.889C90.0193 100.82 90.0977 100.758 90.1823 100.706L89.979 100.889L89.6334 101.245C89.5025 101.396 89.3867 101.559 89.2878 101.733C89.1275 102.005 89.0012 102.295 88.9117 102.597C88.8043 102.977 88.7529 103.371 88.7592 103.766C88.7534 104.218 88.8046 104.669 88.9117 105.108C89.0323 105.509 89.2067 105.892 89.4301 106.246C89.6403 106.619 89.9002 106.961 90.2026 107.263C90.5377 107.555 90.9146 107.795 91.3208 107.974C91.5016 108.071 91.6883 108.156 91.8799 108.229V108.229Z" fill="#A92819"/>
<path d="M91.5952 100.005L91.1276 100.168C91.2759 100.094 91.4331 100.039 91.5952 100.005V100.005Z" fill="#1D1D1B"/>
<path d="M90.7523 100.381C90.8015 100.347 90.8567 100.323 90.9149 100.31L90.5388 100.524C90.6051 100.469 90.6766 100.422 90.7523 100.381V100.381Z" fill="#1D1D1B"/>
<path d="M90.8428 154.399V158.465H74.426C74.77 155.641 75.7388 152.929 77.2621 150.526C78.3396 152.092 79.1833 153.657 81.8669 154.786C84.0482 155.748 86.4985 155.914 88.7894 155.253C89.5083 155.06 90.1987 154.773 90.8428 154.399V154.399Z" fill="white"/>
<path d="M90.8432 149.733V154.399C90.207 154.782 89.5236 155.079 88.8102 155.284C86.5192 155.944 84.0689 155.779 81.8877 154.816C79.2041 153.688 78.3603 152.122 77.2828 150.557C77.8457 149.669 78.4815 148.829 79.1837 148.046C79.3057 147.924 79.4175 147.792 79.5497 147.67C79.6626 147.775 79.7648 147.89 79.8546 148.016C81.0236 149.571 81.4709 150.811 83.7987 151.706C85.0308 152.168 86.378 152.227 87.6459 151.875C88.9138 151.522 90.037 150.776 90.8534 149.744L90.8432 149.733Z" fill="white"/>
<path d="M90.8448 142.241V149.733C90.0285 150.765 88.9053 151.511 87.6374 151.864C86.3694 152.217 85.0223 152.157 83.7902 151.695C81.4624 150.8 81.0151 149.56 79.8461 148.005C79.7562 147.88 79.6541 147.764 79.5411 147.659L79.7038 147.486C80.5051 146.692 81.376 145.971 82.3061 145.331C83.2413 146.348 83.5157 147.11 84.0037 147.629C84.2965 147.926 84.6519 148.154 85.0441 148.296C85.4362 148.439 85.8552 148.492 86.2705 148.452C86.6036 148.415 86.926 148.313 87.2192 148.151C87.5123 147.988 87.7703 147.77 87.9782 147.507C88.3216 147.018 88.4834 146.425 88.4357 145.83C88.3909 144.844 88.4488 143.856 88.6085 142.882L88.6695 142.567C88.9948 142.495 89.3099 142.434 89.686 142.384C90.0621 142.333 90.4382 142.272 90.8448 142.241Z" fill="white"/>
<path d="M90.8423 142.221C90.4357 142.221 90.0291 142.302 89.6428 142.363C90.0393 142.312 90.4357 142.261 90.8423 142.221Z" fill="white"/>
<path d="M90.3867 100.584C90.2966 100.641 90.2115 100.706 90.1326 100.778C90.2076 100.701 90.2932 100.636 90.3867 100.584V100.584Z" fill="#1D1D1B"/>
<path d="M89.9897 134.333C90.0797 135.694 89.9908 137.061 89.7254 138.399C88.108 138.607 86.5191 138.996 84.9884 139.558C85.1104 139.416 85.2222 139.253 85.3442 139.08C85.8118 138.42 86.3607 137.728 86.747 137.047C87.1282 136.388 87.4092 135.675 87.5805 134.933C87.6661 134.265 87.8298 133.61 88.0685 132.981C88.3531 132.371 88.902 131.802 89.2883 131.965C89.6746 132.127 89.8982 133.144 89.9897 134.333Z" fill="#A92819"/>
<path d="M89.7258 138.399C89.7307 138.426 89.7307 138.453 89.7258 138.48C89.4411 139.873 88.9329 141.347 88.7092 142.546C88.5161 142.546 88.323 142.628 88.1298 142.689H87.9468L87.7232 142.75L86.7067 143.065C86.2899 143.207 85.8935 143.36 85.5072 143.532C84.3898 143.99 83.3262 144.57 82.3357 145.26C82.1305 145.048 81.9133 144.848 81.6851 144.661C80.8398 144.018 79.9536 143.43 79.032 142.902C80.5215 141.739 82.1546 140.772 83.8909 140.025C84.3484 140.229 84.6737 139.975 84.9786 139.588C86.5114 139.015 88.1038 138.616 89.7258 138.399V138.399Z" fill="#0F7657"/>
<path d="M88.6692 142.567C89.0039 142.485 89.3434 142.423 89.6857 142.384C89.3096 142.435 88.9945 142.496 88.6692 142.567Z" fill="white"/>
<path d="M88.6672 142.566C88.4753 142.601 88.2853 142.645 88.0979 142.699C88.2809 142.648 88.474 142.607 88.6672 142.566Z" fill="#1D1D1B"/>
<path d="M88.6564 142.577L88.5954 142.892C88.4357 143.866 88.3778 144.854 88.4226 145.84C88.4703 146.435 88.3085 147.029 87.9651 147.517C87.7572 147.78 87.4992 147.999 87.2061 148.161C86.9129 148.324 86.5905 148.426 86.2574 148.463C85.8421 148.503 85.4231 148.45 85.031 148.307C84.6388 148.165 84.2834 147.937 83.9906 147.639C83.5026 147.121 83.2282 146.328 82.293 145.342C83.2833 144.657 84.3388 144.071 85.4442 143.594C85.8406 143.431 86.2371 143.268 86.6437 143.126L87.6602 142.811L87.8838 142.75H88.0668C88.2601 142.682 88.4569 142.624 88.6564 142.577V142.577Z" fill="white"/>
<path d="M87.9037 142.75L87.6801 142.811L87.9037 142.75Z" fill="#1D1D1B"/>
<path d="M86.6446 143.126C86.238 143.268 85.8415 143.431 85.4451 143.594C85.8313 143.421 86.2278 143.268 86.6446 143.126Z" fill="#1D1D1B"/>
<path d="M85.4442 143.593C84.3388 144.071 83.2833 144.657 82.293 145.342V145.342C83.2761 144.645 84.3329 144.059 85.4442 143.593V143.593Z" fill="#1D1D1B"/>
<path d="M83.8904 140.025C84.2563 139.873 84.6223 139.721 84.9781 139.588C84.6731 139.944 84.3478 140.198 83.8904 140.025Z" fill="#A92819"/>
<path d="M82.2755 145.321C81.3455 145.96 80.4746 146.682 79.6732 147.476C80.4705 146.677 81.3418 145.956 82.2755 145.321V145.321Z" fill="#1D1D1B"/>
<path d="M81.6216 144.722C81.8498 144.909 82.067 145.109 82.2722 145.322C81.3446 145.963 80.4801 146.692 79.6902 147.497L79.5276 147.67C79.4649 147.605 79.3929 147.55 79.3141 147.507C78.3518 146.751 77.3322 146.072 76.2645 145.474C76.4882 145.23 76.7118 144.996 76.9456 144.762C77.5826 144.112 78.2618 143.504 78.9786 142.943C79.8973 143.478 80.7801 144.072 81.6216 144.722Z" fill="#0F7657"/>
<path d="M79.1643 148.045C78.4621 148.828 77.8263 149.668 77.2634 150.556V150.556C77.8232 149.666 78.4592 148.826 79.1643 148.045V148.045Z" fill="#1D1D1B"/>
<path d="M68.8467 171.639H65.4515V197.337H68.8467V171.639Z" fill="#4C8BCA"/>
<path d="M63.2228 16.0102L47.2025 32.0407L31.172 16.0102L47.2025 0L63.2228 16.0102ZM59.6142 16.0102L47.2025 3.59848L34.7806 16.0102L47.2025 28.4422L59.6142 16.0102Z" fill="#179E6C"/>
<path d="M54.0064 178.592C55.3031 178.592 56.5708 178.977 57.649 179.697C58.7272 180.418 59.5676 181.442 60.0638 182.64C60.5601 183.838 60.6899 185.156 60.4369 186.428C60.184 187.7 59.5595 188.868 58.6426 189.785C57.7256 190.702 56.5573 191.326 55.2855 191.579C54.0136 191.832 52.6953 191.703 51.4973 191.206C50.2992 190.71 49.2752 189.87 48.5548 188.791C47.8344 187.713 47.4498 186.446 47.4498 185.149C47.4525 183.411 48.1442 181.745 49.3732 180.516C50.6022 179.287 52.2683 178.595 54.0064 178.592ZM58.0115 185.149C58.0135 184.354 57.7794 183.576 57.339 182.914C56.8986 182.252 56.2716 181.736 55.5375 181.431C54.8034 181.126 53.9952 181.045 53.2154 181.2C52.4355 181.355 51.7192 181.737 51.157 182.299C50.5949 182.862 50.2122 183.578 50.0576 184.358C49.903 185.138 49.9834 185.946 50.2886 186.68C50.5937 187.414 51.1099 188.041 51.7718 188.481C52.4337 188.922 53.2114 189.156 54.0064 189.154C55.0678 189.151 56.0849 188.728 56.8354 187.978C57.586 187.227 58.0088 186.21 58.0115 185.149V185.149Z" fill="#4C8BCA"/>
<path d="M56.3425 51.9037L54.7059 54.8719C37.1811 45.2353 27.5851 59.7207 27.1887 60.3408L27.0769 60.4933C26.6906 60.971 17.7147 72.4984 27.0057 91.3243L23.9562 92.8186C13.913 72.4882 23.4682 59.5784 24.3831 58.4196C25.3285 57.0371 36.7643 41.1286 56.3425 51.9037Z" fill="#4C8BCA"/>
<path d="M54.0056 182.851C54.4595 182.853 54.9027 182.99 55.2792 183.243C55.6556 183.497 55.9485 183.856 56.1208 184.276C56.2931 184.696 56.3372 185.158 56.2474 185.603C56.1576 186.048 55.938 186.456 55.6163 186.776C55.2946 187.097 54.8853 187.315 54.4399 187.402C53.9946 187.49 53.5332 187.444 53.114 187.27C52.6948 187.096 52.3366 186.801 52.0846 186.424C51.8326 186.046 51.6981 185.602 51.6981 185.148C51.6981 184.846 51.7579 184.546 51.874 184.267C51.99 183.988 52.1602 183.734 52.3746 183.52C52.589 183.307 52.8434 183.138 53.1233 183.023C53.4032 182.908 53.7031 182.85 54.0056 182.851V182.851Z" fill="#2A3277"/>
<path d="M52.3788 16.1015L47.3877 21.0824L42.4067 16.1015L47.3877 11.1104L52.3788 16.1015Z" fill="#2A3277"/>
<path d="M42.2028 171.639H38.8076V197.957H42.2028V171.639Z" fill="#2A3277"/>
<path d="M30.8766 171.639H27.4814V197.713H30.8766V171.639Z" fill="#2A3277"/>
<path d="M18.0594 194.267H2.5575V197.662H18.0594V194.267Z" fill="#179E6C"/>
<path d="M18.0594 183.451H2.5575V186.846H18.0594V183.451Z" fill="#A92819"/>
<path d="M18.0594 172.138H2.5575V175.533H18.0594V172.138Z" fill="#179E6C"/>
<path d="M17.5106 23.563H1.80542V26.1145H17.5106V23.563Z" fill="#179E6C"/>
<path d="M10.4143 35.6594C12.3041 35.6594 14.1516 36.2198 15.7229 37.2698C17.2943 38.3197 18.519 39.8121 19.2422 41.5581C19.9654 43.304 20.1547 45.2253 19.786 47.0788C19.4173 48.9324 18.5072 50.635 17.1709 51.9713C15.8346 53.3076 14.132 54.2177 12.2784 54.5864C10.4249 54.9551 8.50364 54.7658 6.75764 54.0426C5.01164 53.3194 3.51931 52.0947 2.46936 50.5233C1.41942 48.952 0.859009 47.1046 0.859009 45.2147C0.8617 42.6813 1.86928 40.2524 3.66066 38.4611C5.45203 36.6697 7.88089 35.6621 10.4143 35.6594V35.6594ZM17.4181 45.2147C17.4181 43.8295 17.0073 42.4754 16.2377 41.3236C15.4682 40.1718 14.3743 39.2741 13.0945 38.744C11.8147 38.2139 10.4065 38.0752 9.04791 38.3455C7.6893 38.6157 6.44134 39.2828 5.46184 40.2623C4.48234 41.2418 3.81529 42.4897 3.54505 43.8483C3.2748 45.2069 3.4135 46.6152 3.9436 47.8949C4.47371 49.1747 5.3714 50.2686 6.52317 51.0382C7.67495 51.8077 9.02906 52.2185 10.4143 52.2185C12.271 52.2158 14.0509 51.4771 15.3638 50.1642C16.6766 48.8513 17.4154 47.0714 17.4181 45.2147V45.2147Z" fill="#4C8BCA"/>
<path d="M17.4213 13.2554H1.71606V15.7967H17.4213V13.2554Z" fill="#A92819"/>
<path d="M17.4213 1.94141H1.71606V4.4827H17.4213V1.94141Z" fill="#179E6C"/>
<path d="M16.9523 93.9571L14.533 96.3155C14.3704 96.1427 -1.89392 79.3701 8.01713 60.7373L11.0159 62.3332C2.29413 78.7703 16.3424 93.3472 16.9523 93.9571Z" fill="#4C8BCA"/>
<path d="M13.8519 100.554L15.9866 103.197C4.27628 112.66 3.80868 122.887 3.80868 122.988V123.242C3.80868 123.385 1.32838 137.321 9.32838 145.382L6.91923 147.771C-2.0363 138.765 0.159382 124.32 0.433842 122.744C0.515163 121.331 1.55201 110.546 13.8519 100.554Z" fill="#4C8BCA"/>
<path d="M10.4168 47.5121C11.6856 47.5121 12.7142 46.4836 12.7142 45.2148C12.7142 43.946 11.6856 42.9175 10.4168 42.9175C9.14806 42.9175 8.11951 43.946 8.11951 45.2148C8.11951 46.4836 9.14806 47.5121 10.4168 47.5121Z" fill="#2A3277"/>
</svg>
