<svg width="196" height="200" viewBox="0 0 196 200" fill="none" xmlns="http://www.w3.org/2000/svg">
<path d="M194.983 149.984C195.186 150.154 195.354 150.361 195.477 150.596C195.6 150.83 195.675 151.086 195.698 151.349C195.722 151.613 195.693 151.878 195.614 152.131C195.535 152.383 195.407 152.617 195.237 152.82L187.09 162.512L187.005 162.618C186.995 163.097 186.804 163.554 186.47 163.898C186.136 164.241 185.685 164.446 185.206 164.47C184.739 164.449 184.296 164.254 183.965 163.923C183.634 163.592 183.439 163.149 183.418 162.681L183.344 162.607L175.197 152.894C174.898 152.482 174.766 151.971 174.829 151.465C174.892 150.96 175.144 150.497 175.536 150.17C175.927 149.844 176.427 149.678 176.936 149.706C177.444 149.735 177.923 149.955 178.276 150.323L183.408 156.417V152.291L177.895 145.752C177.553 145.342 177.387 144.813 177.435 144.282C177.482 143.75 177.739 143.259 178.149 142.916C178.559 142.574 179.088 142.408 179.619 142.456C180.151 142.504 180.642 142.761 180.985 143.17L183.408 146.059V142.144C183.38 141.891 183.406 141.636 183.484 141.394C183.562 141.152 183.69 140.929 183.86 140.74C184.029 140.551 184.237 140.4 184.469 140.296C184.701 140.193 184.952 140.139 185.206 140.139C185.46 140.139 185.712 140.193 185.944 140.296C186.176 140.4 186.383 140.551 186.553 140.74C186.723 140.929 186.851 141.152 186.929 141.394C187.006 141.636 187.033 141.891 187.005 142.144V146.101L189.523 143.128C189.875 142.747 190.359 142.517 190.876 142.485C191.393 142.452 191.903 142.621 192.298 142.955C192.694 143.29 192.945 143.764 193 144.279C193.055 144.794 192.908 145.31 192.592 145.72L187.016 152.28V156.333L192.158 150.207C192.504 149.804 192.995 149.555 193.525 149.513C194.054 149.471 194.578 149.641 194.983 149.984Z" fill="#0F7657"/>
<path d="M194.838 174.807H0.297485V177.42H194.838V174.807Z" fill="#179E6C"/>
<path d="M194.582 187.991V190.594H190.255V189.293H187.652V190.594H183.187V189.293H180.573V190.594H176.108V189.293H173.505V190.594H169.051V189.293H166.427V190.594H161.972V189.293H159.369V190.594H154.904V189.293H152.291V190.594H147.825V189.293H145.223V190.594H140.757V189.293H138.144V190.594H133.689V189.293H131.076V190.594H127.256V189.293H124.643V190.594H120.178V189.293H117.575V190.594H113.11V189.293H110.496V190.594H106.042V189.293H103.428V190.594H98.9736V189.293H96.3495V190.594H91.8949V189.293H89.2921V190.594H84.8269V189.293H82.2134V190.594H77.7589V189.293H75.1454V190.594H70.6803V189.293H68.0668V190.594H64.2048V189.293H61.5807V190.594H57.1367V189.293H54.5233V190.594H50.0581V189.293H47.4447V190.594H42.9901V189.293H40.3766V190.594H35.9115V189.293H33.3086V190.594H28.854V189.293H26.23V190.594H21.7754V189.293H19.162V190.594H14.7074V189.293H12.0939V190.594H7.62879V189.293H5.0259V190.594H0.751221V187.991H194.582Z" fill="#A92819"/>
<path d="M194.582 181.198H0.0419922V183.811H194.582V181.198Z" fill="#179E6C"/>
<path d="M194.581 60.7129H139.159V63.3264H194.581V60.7129Z" fill="#A92819"/>
<path d="M194.497 55.6875H139.096V58.301H194.497V55.6875Z" fill="#179E6C"/>
<path d="M194.37 116.602H139.117V119.215H194.37V116.602Z" fill="#A92819"/>
<path d="M194.295 123.817H139.222V126.431H194.295V123.817Z" fill="#179E6C"/>
<path d="M194.191 67.1255V69.739H183.706C183.384 69.5525 183.019 69.4539 182.648 69.4533C182.276 69.4539 181.911 69.5525 181.59 69.739H152.101C151.779 69.5525 151.414 69.4539 151.043 69.4533C150.671 69.4539 150.306 69.5525 149.985 69.739H139.107V67.1255H194.191Z" fill="#179E6C"/>
<path d="M193.821 108.719V111.343H139.107V108.719H149.921C150.243 108.905 150.608 109.004 150.979 109.004C151.351 109.004 151.716 108.905 152.037 108.719H181.516C181.837 108.905 182.202 109.004 182.574 109.004C182.945 109.004 183.31 108.905 183.632 108.719H193.821Z" fill="#179E6C"/>
<path d="M193.493 88.9641C193.703 89.1717 193.87 89.4189 193.984 89.6913C194.097 89.9637 194.156 90.256 194.156 90.5512C194.156 90.8464 194.097 91.1387 193.984 91.4111C193.87 91.6835 193.703 91.9307 193.493 92.1383L184.902 100.762V106.729C184.902 107.023 184.842 107.314 184.728 107.585C184.613 107.856 184.446 108.101 184.235 108.306C184.09 108.45 183.926 108.574 183.748 108.676H181.516C181.169 108.483 180.88 108.201 180.679 107.859C180.478 107.516 180.372 107.126 180.373 106.729V100.804L171.422 92.3394C171.206 92.1381 171.032 91.8962 170.91 91.6276C170.788 91.3591 170.72 91.069 170.71 90.7742C170.7 90.4793 170.749 90.1854 170.853 89.9093C170.957 89.6332 171.114 89.3803 171.316 89.1651C171.725 88.7335 172.289 88.4813 172.883 88.4634C173.478 88.4456 174.056 88.6636 174.49 89.0699L180.373 94.6037V88.4456L174.543 82.2664C174.137 81.8318 173.919 81.2542 173.937 80.6596C173.954 80.065 174.207 79.5015 174.638 79.0921C174.853 78.8896 175.105 78.7315 175.381 78.6267C175.657 78.5219 175.95 78.4725 176.245 78.4813C176.54 78.4902 176.83 78.5571 177.099 78.6782C177.368 78.7994 177.61 78.9724 177.812 79.1873L180.373 81.9066V71.6855C180.373 71.2871 180.478 70.8958 180.679 70.5518C180.88 70.2078 181.169 69.9234 181.516 69.728H183.706C184.066 69.9128 184.368 70.1933 184.579 70.5387C184.79 70.884 184.902 71.2808 184.902 71.6855V82.1288L187.293 79.727C187.714 79.3148 188.28 79.0832 188.87 79.0815C189.462 79.0827 190.031 79.3141 190.457 79.727C190.665 79.9353 190.831 80.1827 190.944 80.455C191.057 80.7274 191.115 81.0193 191.115 81.3141C191.115 81.6089 191.057 81.9008 190.944 82.1732C190.831 82.4455 190.665 82.6929 190.457 82.9012L184.902 88.4774V94.4238L190.361 88.9641C190.78 88.5556 191.342 88.327 191.927 88.327C192.512 88.327 193.074 88.5556 193.493 88.9641V88.9641Z" fill="#0F7657"/>
<path d="M190.256 190.594H187.653V200H190.256V190.594Z" fill="#A92819"/>
<path d="M190.256 189.292H187.653V190.593H190.256V189.292Z" fill="#A92819"/>
<path d="M189.461 7.18457H186.848V48.9685H189.461V7.18457Z" fill="#2A3277"/>
<path d="M183.705 69.7389H181.514C181.836 69.5525 182.201 69.4539 182.572 69.4533C182.969 69.4404 183.362 69.5394 183.705 69.7389Z" fill="#1D1D1B"/>
<path d="M181.514 108.719H183.705C183.383 108.905 183.018 109.004 182.647 109.004C182.25 109.017 181.858 108.918 181.514 108.719Z" fill="#1D1D1B"/>
<path d="M183.187 190.594H180.574V200H183.187V190.594Z" fill="#A92819"/>
<path d="M183.187 189.292H180.574V190.593H183.187V189.292Z" fill="#A92819"/>
<path d="M178.469 161.623C178.795 162.038 178.954 162.561 178.915 163.087C178.876 163.614 178.641 164.107 178.257 164.469C178.062 164.639 177.835 164.768 177.588 164.848C177.342 164.928 177.083 164.957 176.825 164.934C176.567 164.912 176.317 164.837 176.088 164.716C175.86 164.594 175.658 164.427 175.496 164.226L163.582 149.773L151.678 164.247C151.517 164.448 151.316 164.614 151.089 164.736C150.861 164.858 150.611 164.932 150.354 164.955C150.098 164.978 149.839 164.948 149.593 164.868C149.348 164.789 149.122 164.66 148.927 164.491C148.54 164.131 148.301 163.639 148.258 163.113C148.215 162.586 148.371 162.062 148.694 161.644L161.021 146.694L156.916 141.71C156.579 141.3 156.415 140.776 156.456 140.247C156.497 139.719 156.742 139.227 157.138 138.874C157.332 138.704 157.558 138.575 157.803 138.494C158.047 138.414 158.306 138.383 158.563 138.405C158.82 138.427 159.07 138.5 159.298 138.621C159.525 138.741 159.727 138.907 159.889 139.107L163.582 143.583L167.274 139.096C167.437 138.896 167.638 138.731 167.866 138.61C168.094 138.49 168.343 138.416 168.6 138.395C168.857 138.373 169.116 138.403 169.361 138.484C169.606 138.564 169.832 138.694 170.025 138.864C170.423 139.215 170.669 139.706 170.713 140.235C170.756 140.763 170.593 141.288 170.258 141.699L166.153 146.694L178.469 161.623Z" fill="#0F7657"/>
<path d="M172.204 0.253914C173.613 0.251822 174.991 0.667945 176.164 1.4496C177.336 2.23125 178.251 3.34328 178.791 4.64489C179.331 5.94651 179.473 7.37916 179.199 8.76147C178.924 10.1438 178.246 11.4136 177.249 12.4101C176.253 13.4066 174.983 14.085 173.601 14.3595C172.219 14.6339 170.786 14.492 169.484 13.9517C168.183 13.4114 167.071 12.4971 166.289 11.3244C165.507 10.1518 165.091 8.77355 165.093 7.36427C165.096 5.47934 165.846 3.67242 167.179 2.33958C168.512 1.00674 170.319 0.256713 172.204 0.253914V0.253914ZM176.7 7.36427C176.7 6.47233 176.436 5.60044 175.94 4.85896C175.444 4.11749 174.74 3.53976 173.916 3.19892C173.091 2.85807 172.184 2.76943 171.31 2.94421C170.435 3.11899 169.632 3.54934 169.002 4.18077C168.372 4.81221 167.944 5.61635 167.771 6.49141C167.598 7.36647 167.689 8.2731 168.032 9.09654C168.375 9.91998 168.954 10.6232 169.697 11.1172C170.439 11.6112 171.312 11.8738 172.204 11.8717C173.395 11.8661 174.536 11.3888 175.377 10.5441C176.218 9.69936 176.69 8.55606 176.69 7.36427H176.7Z" fill="#4C8BCA"/>
<path d="M176.109 190.594H173.507V200H176.109V190.594Z" fill="#A92819"/>
<path d="M176.109 189.292H173.507V190.593H176.109V189.292Z" fill="#A92819"/>
<path d="M172.192 9.89311C173.589 9.89311 174.721 8.76092 174.721 7.36428C174.721 5.96765 173.589 4.83545 172.192 4.83545C170.796 4.83545 169.664 5.96765 169.664 7.36428C169.664 8.76092 170.796 9.89311 172.192 9.89311Z" fill="#2A3277"/>
<path d="M170.564 24.6323L173.167 24.9497C172.279 32.4093 169.284 38.0806 164.258 41.8792C158.661 46.1115 151.815 46.8945 147.329 46.8945C145.671 46.9114 144.015 46.7911 142.377 46.5348L142.821 43.9636C142.927 43.9636 154.598 45.8893 162.756 39.7312C167.136 36.43 169.771 31.3512 170.564 24.6323Z" fill="#4C8BCA"/>
<path d="M169.041 190.594H166.427V200H169.041V190.594Z" fill="#A92819"/>
<path d="M169.041 189.292H166.427V190.593H169.041V189.292Z" fill="#A92819"/>
<path d="M163.601 135.171C163.997 135.171 164.384 135.288 164.712 135.508C165.041 135.728 165.298 136.04 165.449 136.405C165.6 136.771 165.64 137.173 165.563 137.561C165.486 137.949 165.295 138.305 165.015 138.585C164.736 138.864 164.379 139.055 163.991 139.132C163.604 139.209 163.201 139.17 162.836 139.018C162.471 138.867 162.158 138.611 161.939 138.282C161.719 137.953 161.602 137.566 161.602 137.171C161.602 136.64 161.812 136.132 162.187 135.757C162.562 135.382 163.071 135.171 163.601 135.171V135.171Z" fill="#A92819"/>
<path d="M161.898 88.9641C162.108 89.1717 162.274 89.4189 162.388 89.6913C162.502 89.9637 162.56 90.256 162.56 90.5512C162.56 90.8464 162.502 91.1387 162.388 91.4111C162.274 91.6835 162.108 91.9307 161.898 92.1383L153.264 100.772V106.74C153.263 107.332 153.027 107.899 152.608 108.317C152.458 108.461 152.291 108.585 152.11 108.687H149.92C149.57 108.496 149.279 108.215 149.076 107.872C148.873 107.529 148.766 107.138 148.767 106.74V100.815L139.815 92.35C139.388 91.9377 139.139 91.3739 139.123 90.7801C139.108 90.1864 139.326 89.6101 139.731 89.1757C139.933 88.9607 140.175 88.7877 140.444 88.6666C140.713 88.5454 141.003 88.4785 141.298 88.4697C141.593 88.4608 141.887 88.5102 142.162 88.615C142.438 88.7198 142.69 88.878 142.905 89.0805L148.777 94.6143V88.4456L142.958 82.2664C142.753 82.0532 142.592 81.8013 142.486 81.5253C142.38 81.2493 142.329 80.9549 142.338 80.6592C142.347 80.3636 142.415 80.0727 142.538 79.8036C142.66 79.5345 142.836 79.2926 143.053 79.0921C143.267 78.8884 143.519 78.7291 143.795 78.6234C144.071 78.5178 144.365 78.468 144.66 78.4769C144.955 78.4857 145.246 78.5531 145.515 78.675C145.784 78.797 146.026 78.9711 146.227 79.1873L148.777 81.9066V71.6855C148.777 71.3883 148.836 71.094 148.95 70.8197C149.065 70.5455 149.233 70.2966 149.444 70.0878C149.59 69.9471 149.753 69.8261 149.931 69.728H152.1C152.454 69.9171 152.749 70.1995 152.955 70.5445C153.16 70.8895 153.267 71.2841 153.264 71.6855V82.1288L155.655 79.727C156.078 79.3108 156.648 79.0776 157.242 79.0776C157.836 79.0776 158.406 79.3108 158.829 79.727C159.04 79.9338 159.208 80.1808 159.323 80.4533C159.437 80.7258 159.496 81.0185 159.496 81.3141C159.496 81.6097 159.437 81.9023 159.323 82.1749C159.208 82.4474 159.04 82.6943 158.829 82.9012L153.274 88.4668V94.4132L158.745 88.9535C159.164 88.5375 159.732 88.305 160.323 88.307C160.914 88.309 161.481 88.5453 161.898 88.9641V88.9641Z" fill="#0F7657"/>
<path d="M161.963 190.594H159.36V200H161.963V190.594Z" fill="#A92819"/>
<path d="M161.963 189.292H159.36V190.593H161.963V189.292Z" fill="#A92819"/>
<path d="M154.903 190.594H152.29V200H154.903V190.594Z" fill="#A92819"/>
<path d="M154.903 189.292H152.29V190.593H154.903V189.292Z" fill="#A92819"/>
<path d="M152.1 69.7389H149.91C150.231 69.5525 150.596 69.4539 150.968 69.4533C151.365 69.4404 151.757 69.5394 152.1 69.7389Z" fill="#1D1D1B"/>
<path d="M149.922 108.719H152.102C151.78 108.905 151.415 109.004 151.043 109.004C150.65 109.015 150.262 108.916 149.922 108.719Z" fill="#1D1D1B"/>
<path d="M147.825 190.594H145.222V200H147.825V190.594Z" fill="#A92819"/>
<path d="M147.825 189.292H145.222V190.593H147.825V189.292Z" fill="#A92819"/>
<path d="M147.402 154.216C147.603 156.714 145.286 161.136 142.958 162.681C139.033 165.924 134.258 167.969 129.203 168.575C126.953 170.559 124.144 171.798 121.161 172.119C118.901 172.43 116.598 172.113 114.504 171.204C112.411 170.296 110.607 168.83 109.29 166.966C106.115 162.247 106.972 158.354 107.29 155.899C107.004 154.322 103.174 149.37 100.381 143.636C99.5553 144.334 98.7617 144.969 97.8306 145.752C97.8306 145.963 97.8306 145.942 97.9364 146.186C99.1398 147.432 100.036 148.941 100.554 150.594C101.072 152.247 101.197 153.998 100.92 155.708C100.563 157.572 99.7052 159.304 98.4398 160.718C97.1744 162.133 95.5485 163.177 93.7358 163.739C89.1754 165.125 84.8267 163.887 79.0072 159.052C77.3837 157.471 76.0797 155.592 75.1663 153.518C72.1337 151.742 69.9132 148.853 68.9765 145.466C68.5321 143.678 67.6857 139.297 71.6852 134.219C73.304 132.413 75.3861 131.085 77.7058 130.378C81.5043 127.468 84.7632 119.86 88.8897 114.094C81.4831 108.93 75.4838 104.254 72.6692 96.8681C69.823 88.6362 72.1508 79.5472 71.5265 77.4627C69.3257 71.2094 63.94 62.1628 63.8342 53.3807C63.7845 50.1711 64.3224 46.9796 65.4213 43.9637C66.1153 42.0244 67.0427 40.1768 68.183 38.4616C65.1812 34.5449 63.8465 29.6017 64.4691 24.7065C65.1251 21.0032 67.0508 15.4164 75.0499 12.1258C78.9347 10.5513 83.2373 10.3351 87.2603 11.5121C89.9309 12.3469 92.3876 13.7532 94.4597 15.6335C96.5318 17.5137 98.1695 19.8227 99.259 22.3998C100.576 25.2106 101.396 28.2286 101.682 31.3195C104.831 32.1753 107.676 33.8984 109.893 36.2925C116.061 35.2344 120.474 37.4564 122.029 38.8848C125.066 40.6307 129.436 49.6139 129.436 58.1209C130.479 59.3848 131.207 60.8784 131.561 62.4788C131.914 64.0792 131.882 65.7406 131.467 67.3263C131.486 68.598 131.326 69.866 130.991 71.0931C130.924 72.7773 130.47 74.4236 129.665 75.9043C128.859 77.385 127.724 78.6604 126.346 79.6318C124.822 83.0495 122.78 85.9804 119.998 87.7262C124.59 92.7521 128.822 98.3917 129.88 100.571C131.073 102.671 131.692 105.047 131.675 107.462C131.659 109.876 131.007 112.244 129.785 114.327C128.568 116.051 126.833 118.167 124.188 121.955C126.738 130.42 128.632 142.186 129.298 143.339C132.472 143.964 133.795 142.514 137.403 142.81C139.009 142.896 140.574 143.352 141.975 144.143C143.375 144.934 144.574 146.039 145.476 147.371C146.481 148.482 147.423 150.714 147.402 154.216ZM140.186 158.692C141.047 157.952 141.715 157.013 142.132 155.957C142.549 154.9 142.702 153.758 142.577 152.629C142.399 151.469 141.879 150.389 141.084 149.525C140.288 148.662 139.254 148.056 138.112 147.783C135.044 147.117 133.647 148.524 130.324 148.291C129.351 148.228 126.283 148.069 125.574 146.567C123.722 144.186 123.013 133.817 118.887 120.474C121.553 117.046 125.383 112.369 126.06 110.729C128.177 106.232 125.849 102.412 124.664 100.804C120.812 95.7677 118.559 91.7469 112.094 86.594C118.442 83.7266 120.781 81.0179 122.431 76.2354C123.627 75.7764 124.64 74.9382 125.315 73.849C125.989 72.7598 126.288 71.4796 126.166 70.2043C126.397 69.6386 126.55 69.0442 126.621 68.4373C126.621 67.5061 126.621 66.7866 126.621 66.7761C127.074 65.6037 127.118 64.3127 126.746 63.1123C126.373 61.9119 125.606 60.8726 124.568 60.163C125.235 51.984 121.5 44.1859 118.887 42.5352C117.522 41.1492 112.295 39.5938 108.433 41.8792C104.909 37.0332 101.523 35.7846 96.7937 35.2662C97.158 33.1861 97.0386 31.05 96.4445 29.0235C96.0636 27.5421 94.6775 20.2731 87.7364 16.9083C85.7155 15.9455 82.3825 14.7922 77.1555 16.5592C70.8917 18.9399 69.0506 23.86 69.1247 27.3834C69.2277 29.4742 69.7611 31.5213 70.6914 33.3965C71.6218 35.2717 72.929 36.9348 74.5315 38.2817C72.4788 40.144 71.1033 43.0537 70.1193 45.2863C68.9104 48.2876 68.4388 51.535 68.7437 54.7562C69.1141 61.4221 73.5898 69.4319 76.2879 76.6269C77.346 79.6847 74.1717 90.2974 78.2348 97.5347C82.4671 104.486 88.9321 108.243 95.5874 112.93C88.4877 121.109 88.5512 125.712 82.5941 131.975C81.3448 133.503 79.6571 134.611 77.7587 135.15C76.3716 135.797 75.2163 136.855 74.4483 138.179C73.6802 139.503 73.3363 141.031 73.4628 142.556C74.3834 147.974 77.8539 148.757 78.7533 149.55C79.695 150.608 80.2028 153.116 82.3508 155.052C88.1597 159.803 90.5827 159.158 92.5613 158.565C93.5868 158.211 94.4842 157.56 95.1397 156.696C95.7952 155.831 96.1793 154.792 96.2435 153.709C96.2677 152.672 96.0441 151.644 95.5914 150.711C95.1387 149.778 94.4699 148.967 93.6406 148.344C93.2491 146.937 92.847 145.413 92.4132 143.71C95.1959 140.927 99.9679 137.657 101.841 135.615C105.861 145.307 111.893 152.026 112.072 155.275C112.263 157.391 111.512 157.856 111.861 160.671C112.049 162.264 112.734 163.758 113.818 164.941C114.903 166.124 116.331 166.936 117.903 167.263C123.077 168.204 126.367 164.554 127.044 164.152C128.822 163.422 133.054 164.184 140.186 158.724V158.692Z" fill="#A92819"/>
<path d="M145.361 0.243652H142.758V30.5367H145.361V0.243652Z" fill="#2A3277"/>
<path d="M142.576 152.629C142.711 153.76 142.567 154.906 142.158 155.968C141.749 157.031 141.086 157.977 140.227 158.724C133.096 164.184 128.821 163.422 127.054 164.173C126.377 164.575 123.086 168.226 117.912 167.284C116.341 166.958 114.912 166.146 113.828 164.963C112.744 163.78 112.059 162.286 111.87 160.692C111.521 157.878 112.272 157.412 112.082 155.296C111.902 152.048 105.871 145.329 101.85 135.637C99.9775 137.679 95.2055 140.927 92.4227 143.731C92.8565 145.434 93.2586 146.905 93.6501 148.365C94.4795 148.988 95.1483 149.8 95.601 150.733C96.0537 151.666 96.2772 152.693 96.253 153.73C96.1889 154.813 95.8047 155.853 95.1492 156.717C94.4937 157.582 93.5964 158.232 92.5709 158.587C90.5922 159.179 88.1692 159.824 82.3603 155.074C80.2441 153.137 79.7045 150.598 78.7628 149.572C77.8952 148.778 74.4246 147.995 73.4724 142.578C73.3459 141.052 73.6898 139.524 74.4578 138.2C75.2259 136.876 76.3812 135.819 77.7682 135.171C79.6667 134.632 81.3543 133.524 82.6037 131.997C88.5607 125.648 88.4972 121.088 95.597 112.951C88.9416 108.264 82.4767 104.486 78.2443 97.556C74.2236 90.3187 77.3873 79.706 76.2975 76.6482C73.5887 69.3897 69.113 61.3799 68.7427 54.7563C68.4412 51.55 68.9091 48.3179 70.1076 45.3287C71.0917 43.0962 72.4672 40.1864 74.5199 38.3242C72.9174 36.9773 71.6101 35.3142 70.6798 33.439C69.7495 31.5637 69.2161 29.5167 69.113 27.4259C69.039 23.9025 70.88 18.9612 77.1439 16.6016C82.3391 14.8346 85.6721 15.988 87.7248 16.9508C94.6659 20.3155 96.052 27.5846 96.4329 29.0659C97.0269 31.0924 97.1464 33.2285 96.782 35.3086C101.491 35.8271 104.876 37.0757 108.421 41.9217C112.283 39.6362 117.51 41.1916 118.875 42.5777C121.488 44.2283 125.223 52.0264 124.557 60.2055C125.594 60.9151 126.361 61.9544 126.734 63.1548C127.107 64.3551 127.063 65.6462 126.61 66.8185C126.61 66.8185 126.673 67.5486 126.61 68.4797C126.539 69.0866 126.386 69.6811 126.155 70.2467C126.277 71.522 125.977 72.8022 125.303 73.8914C124.628 74.9806 123.616 75.8188 122.42 76.2778C120.769 81.0604 118.409 83.7691 112.082 86.6365C118.547 91.7894 120.801 95.8101 124.652 100.847C125.837 102.455 128.112 106.275 126.049 110.772C125.372 112.412 121.541 117.12 118.875 120.516C123.001 133.859 123.71 144.228 125.562 146.609C126.271 148.111 129.339 148.27 130.313 148.334C133.635 148.566 135.032 147.159 138.1 147.826C139.238 148.094 140.271 148.693 141.068 149.548C141.864 150.403 142.389 151.476 142.576 152.629ZM137.751 154.513C137.902 154.266 137.968 153.977 137.942 153.689C137.915 153.402 137.796 153.13 137.603 152.915C137.369 152.769 137.107 152.673 136.833 152.635C136.56 152.597 136.281 152.617 136.016 152.693C135.381 152.788 134.693 152.989 133.783 153.127C132.612 153.319 131.424 153.383 130.239 153.317C128.555 153.262 126.891 152.941 125.308 152.365C123.762 151.759 122.455 150.667 121.584 149.254C120.498 147.273 119.74 145.129 119.34 142.906C118.684 140.017 118.007 136.197 117.224 132.759C116.441 129.32 115.5 126.294 114.801 123.585C114.191 121.32 113.701 119.024 113.331 116.707C113.172 115.049 112.817 113.415 112.272 111.84C111.103 109.317 109.792 106.862 108.347 104.486C106.411 101.005 103.787 96.2016 102.21 93.3765C100.633 90.5514 100.094 89.705 98.5808 88.8267C97.0677 87.9485 94.5495 87.0703 92.5391 86.0546C90.7124 85.2421 89.1532 83.9287 88.0422 82.2666C87.0975 80.4454 86.4815 78.4718 86.2223 76.4365C85.8432 74.3864 85.5817 72.3162 85.4393 70.2361C85.3335 68.3104 85.4393 66.6175 84.8468 65.3689C84.104 64.1246 83.0596 63.0874 81.8101 62.3534C80.5404 61.4117 79.1649 60.3324 79.5987 60.3536C80.0325 60.3748 82.2333 61.4858 83.9051 62.1312C85.0784 62.5987 86.2937 62.953 87.5344 63.1893C88.2815 63.3251 88.9983 63.5939 89.6505 63.9828C90.5068 64.5914 91.3932 65.1564 92.3063 65.6758C93.6893 66.355 95.1398 66.887 96.6339 67.2629C98.2881 67.6759 99.9721 67.9589 101.67 68.1094C103.385 68.2893 105.12 68.3633 106.802 68.4162C108.485 68.4691 110.114 68.4797 111.257 68.5115C112.007 68.4519 112.76 68.5529 113.468 68.8077C113.869 69.0813 114.202 69.4433 114.442 69.8658C114.727 70.28 115.085 70.6386 115.5 70.9239C116.109 71.2984 116.784 71.5534 117.489 71.6751C118.356 71.8608 119.237 71.9706 120.123 72.0032C120.79 72.0032 121.012 71.8973 121.182 71.654C121.356 71.3926 121.431 71.0772 121.393 70.7652C121.393 70.5007 121.15 70.3631 121.15 70.1197C121.225 69.774 121.354 69.442 121.531 69.1357C121.725 68.756 121.847 68.3434 121.89 67.9189C121.842 67.6074 121.771 67.2998 121.679 66.9984C121.657 66.6345 121.726 66.2708 121.88 65.9403C122.041 65.6048 122.155 65.2487 122.218 64.8822C122.218 64.5965 122.07 64.3743 121.615 64.2474C121.16 64.1204 120.462 64.0886 119.891 63.9194C119.399 63.6913 118.889 63.5037 118.367 63.3586C117.744 63.3285 117.12 63.4109 116.526 63.6019C115.849 63.7606 115.14 63.9299 114.579 64.0146C113.915 64.1209 113.235 64.0775 112.59 63.8876C110.906 63.5096 109.267 62.9527 107.702 62.2264C105.48 61.2318 102.707 59.687 100.168 58.7876C98.0597 58.1204 95.9154 57.5728 93.7453 57.1476C92.7146 56.8501 91.7339 56.4008 90.8356 55.8144C90.3383 55.5287 90.2007 55.5181 90.9837 54.6822C91.7667 53.8464 93.4808 52.2381 94.9621 50.9895C96.2601 49.8696 97.6552 48.8675 99.131 47.9951C100.676 47.0746 102.58 46.0482 103.575 45.5086C104.57 44.969 104.633 44.8738 104.421 44.5881C104.21 44.3024 103.681 43.7945 103.258 43.3395C102.856 42.8663 102.406 42.4371 101.914 42.0592C101.181 41.5443 100.37 41.1513 99.5119 40.8954C98.3735 40.5557 97.2037 40.3324 96.0202 40.2288C94.8034 40.1018 93.6395 40.1018 92.8989 40.0489C92.1582 39.996 91.8408 39.869 91.5657 39.5198C91.2751 39.0673 91.0507 38.5756 90.8991 38.0597C90.7916 37.8482 90.7296 37.6166 90.7168 37.3797C90.7041 37.1429 90.7409 36.906 90.825 36.6842C91.0578 36.2292 91.6503 35.7742 91.9889 35.1076C92.3269 34.2355 92.4148 33.2865 92.2428 32.3672C92.0695 30.952 91.7504 29.5585 91.2906 28.2089C90.8545 26.8886 90.2309 25.6378 89.4389 24.495C88.7148 23.4722 87.7895 22.6081 86.7196 21.9556C85.5814 21.2303 84.2863 20.7877 82.9423 20.6647C81.4753 20.5762 80.0072 20.8185 78.6464 21.3736C77.3219 21.8277 76.1497 22.641 75.2605 23.7226C74.4805 24.8258 74.0728 26.1491 74.0966 27.5C74.1521 28.6987 74.4547 29.8731 74.9854 30.9493C75.3866 31.8161 75.8987 32.6271 76.5091 33.3618C77.1365 34.141 77.846 34.8505 78.6252 35.4779C79.3524 35.9236 80.033 36.4412 80.6568 37.0228C81.0066 37.4904 81.1723 38.0703 81.1223 38.6522C81.1223 39.0754 81.0165 39.2976 80.2653 39.9219C78.9848 40.8786 77.8388 42.0032 76.8582 43.2655C75.3733 45.2951 74.3644 47.633 73.9064 50.1059C73.4485 52.5787 73.5533 55.1229 74.213 57.5497C75.0281 60.5284 76.0899 63.4341 77.3873 66.2366C78.6041 69.0405 79.7891 71.527 80.5616 73.4633C81.1995 74.9992 81.5579 76.6368 81.6196 78.2988C81.6196 79.8436 81.4292 81.5789 81.2811 83.7585C81.1091 86.1309 81.1481 88.5139 81.3974 90.8794C81.642 93.21 82.5655 95.4175 84.0532 97.228C86.1357 99.635 88.4857 101.797 91.0578 103.672C93.5866 105.587 95.9038 107.089 97.6708 108.338C99.1227 109.328 100.483 110.447 101.734 111.681C103.069 112.927 103.904 114.616 104.083 116.432C104.421 118.898 104.178 122.622 104.496 125.839C104.798 128.761 105.559 131.618 106.749 134.303C107.866 136.844 109.131 139.317 110.537 141.71C111.902 144.048 113.246 146.26 114.293 148.059C115.178 149.453 115.933 150.927 116.547 152.46C116.991 153.681 117.213 154.971 117.203 156.269C117.203 157.412 116.907 158.385 116.854 159.274C116.784 160.135 117.02 160.993 117.521 161.697C117.792 162.043 118.142 162.319 118.541 162.503C118.94 162.687 119.377 162.774 119.817 162.755C120.904 162.69 121.952 162.324 122.843 161.697C123.673 160.906 124.632 160.262 125.678 159.793C127.012 159.317 129.075 159.179 130.969 158.661C132.619 158.187 134.191 157.474 135.635 156.544C136.485 156.051 137.198 155.352 137.709 154.513H137.751ZM117.182 114.38C118.875 111.258 122.144 109.396 121.414 106.148C121.044 104.285 117.182 99.9155 116.209 98.5188C111.204 92.0328 108.358 90.6784 105.416 88.012C104.95 88.012 104.432 87.9591 103.924 87.9168C106.559 91.9587 108.252 95.9371 111.468 101.312C112.77 103.703 116.886 109.978 117.182 114.38ZM119.298 58.8088C119.425 56.2563 119.007 53.7062 118.071 51.3281C117.267 49.2119 116.484 47.2016 115.256 46.4503C115 46.3011 114.726 46.1838 114.442 46.1011C111.066 45.1912 109.151 46.8524 107.839 48.2173C104.845 50.6615 102.951 51.2117 99.0146 53.6876C104.305 54.841 108.992 58.6078 113.405 59.3484C115.182 58.9887 116.716 58.1634 119.298 58.8088V58.8088ZM116.632 76.5212C114.216 76.2869 111.977 75.154 110.357 73.3469C97.1947 73.3469 92.8671 71.6751 89.5447 70.0668C89.7642 72.641 90.1601 75.197 90.7298 77.7168C91.2377 79.5473 91.4387 80.3303 93.4914 81.4625C93.904 81.6847 96.0943 82.7427 97.5439 83.3141C101.258 82.4253 103.649 83.2506 105.511 83.1766C109.775 83.2506 115.373 79.7166 116.632 76.5212ZM100.253 130.388C99.7369 127.675 99.4292 124.927 99.332 122.167C99.332 118.929 98.9934 116.157 98.9934 116.157C97.4963 118.026 96.1079 119.98 94.8352 122.008C93.0152 124.971 91.5551 127.68 89.9785 130.103C88.6643 132.134 87.1432 134.024 85.4393 135.742C84.4304 136.801 83.2499 137.681 81.9476 138.345C81.0307 138.661 80.148 139.069 79.313 139.562C78.9707 139.836 78.7002 140.189 78.5251 140.591C78.3499 140.993 78.2754 141.432 78.3078 141.869C78.3754 142.336 78.538 142.785 78.7854 143.187C79.0329 143.589 79.3601 143.936 79.7468 144.207C80.7383 144.727 81.6475 145.39 82.4449 146.175C83.2784 147.429 84.0346 148.733 84.7093 150.079C85.2185 150.91 85.9232 151.604 86.762 152.1C87.3968 152.534 87.9682 152.905 88.5607 153.243C89.0871 153.592 89.6894 153.81 90.3171 153.878C90.544 153.892 90.7694 153.833 90.9599 153.709C91.1505 153.585 91.2961 153.403 91.3752 153.19C91.3736 152.964 91.3192 152.74 91.2163 152.538C91.1135 152.336 90.965 152.161 90.7827 152.026C90.4124 151.667 89.9468 151.392 89.64 151.021C89.3036 150.521 89.0666 149.96 88.9416 149.371C88.7194 148.588 88.4337 147.519 88.1057 146.313C87.6834 145.13 87.5069 143.873 87.5873 142.62C87.8399 141.419 88.4837 140.336 89.4178 139.541C90.3595 138.589 91.5339 137.679 93.2904 136.219C95.0468 134.758 100.253 130.452 100.253 130.388Z" fill="white"/>
<path d="M140.757 190.594H138.143V200H140.757V190.594Z" fill="#A92819"/>
<path d="M140.757 189.292H138.143V190.593H140.757V189.292Z" fill="#A92819"/>
<path d="M137.563 152.915C137.756 153.13 137.875 153.402 137.902 153.689C137.928 153.977 137.862 154.266 137.711 154.513C137.15 155.357 136.381 156.042 135.479 156.502C134.035 157.431 132.463 158.144 130.812 158.618C128.95 159.137 126.887 159.274 125.522 159.75C124.476 160.22 123.517 160.864 122.686 161.655C121.795 162.281 120.748 162.648 119.66 162.713C119.221 162.731 118.784 162.645 118.385 162.461C117.985 162.277 117.636 162.001 117.364 161.655C116.864 160.951 116.628 160.093 116.698 159.232C116.75 158.311 117.015 157.37 117.047 156.227C117.057 154.928 116.835 153.638 116.391 152.418C115.777 150.884 115.022 149.411 114.137 148.016C113.079 146.27 111.746 144.059 110.381 141.668C108.975 139.275 107.71 136.802 106.593 134.261C105.402 131.575 104.642 128.719 104.339 125.796C104.022 122.622 104.265 118.855 103.926 116.39C103.748 114.573 102.912 112.884 101.578 111.639C100.326 110.405 98.9664 109.286 97.5145 108.295C95.7474 107.047 93.4302 105.544 90.9014 103.629C88.3293 101.754 85.9793 99.5926 83.8969 97.1855C82.4091 95.375 81.4856 93.1676 81.2411 90.837C81.0236 88.49 81.013 86.1284 81.2093 83.7796C81.3574 81.5999 81.5691 79.8646 81.5479 78.3198C81.4861 76.6578 81.1278 75.0203 80.4898 73.4844C79.7703 71.5587 78.5853 69.0616 77.3155 66.2576C76.0181 63.4551 74.9564 60.5495 74.1413 57.5707C73.4816 55.1439 73.3768 52.5997 73.8347 50.1269C74.2926 47.6541 75.3015 45.3162 76.7865 43.2865C77.7963 42.0178 78.9746 40.8929 80.2888 39.943C81.04 39.3187 81.1352 39.0965 81.1458 38.6733C81.1958 38.0914 81.0301 37.5115 80.6803 37.0438C80.0565 36.4622 79.3759 35.9447 78.6487 35.499C77.8695 34.8716 77.16 34.1621 76.5326 33.3828C75.9222 32.6481 75.4101 31.8372 75.0089 30.9704C74.4781 29.8941 74.1755 28.7198 74.1201 27.521C74.0962 26.1701 74.504 24.8468 75.284 23.7436C76.1732 22.662 77.3454 21.8488 78.6699 21.3947C80.0306 20.8395 81.4988 20.5973 82.9657 20.6858C84.3007 20.8057 85.5881 21.2408 86.7219 21.9555C87.7745 22.6064 88.6849 23.4629 89.3989 24.4737C90.1909 25.6166 90.8145 26.8673 91.2506 28.1876C91.7104 29.5372 92.0295 30.9307 92.2028 32.3459C92.3748 33.2652 92.2869 34.2143 91.9489 35.0864C91.6103 35.753 91.0178 36.2079 90.785 36.6629C90.7009 36.8847 90.6641 37.1216 90.6768 37.3585C90.6896 37.5953 90.7516 37.8269 90.8591 38.0384C91.0107 38.5544 91.2351 39.0461 91.5257 39.4986C91.7902 39.8478 92.1182 39.9747 92.8589 40.0276C93.5995 40.0805 94.7634 40.0276 95.9802 40.2075C97.1779 40.3083 98.3621 40.5316 99.5142 40.8741C100.374 41.1366 101.185 41.5368 101.916 42.0592C102.393 42.436 102.829 42.8615 103.218 43.3289C103.641 43.7838 104.159 44.2811 104.381 44.5774C104.604 44.8737 104.519 44.9372 103.535 45.4979C102.551 46.0587 100.636 47.0639 99.091 47.9844C97.6294 48.8623 96.2485 49.8679 94.9645 50.9894C93.5255 52.238 91.7902 53.8992 91.0284 54.7245C90.2665 55.5498 90.3829 55.5709 90.8802 55.8566C91.7975 56.433 92.7962 56.8682 93.8429 57.1475C96.0094 57.5731 98.1501 58.1207 100.255 58.7875C102.794 59.6869 105.545 61.2317 107.788 62.2263C109.354 62.9526 110.993 63.5095 112.677 63.8875C113.322 64.0774 114.002 64.1208 114.666 64.0145C115.227 63.9298 115.936 63.7605 116.613 63.6018C117.207 63.4108 117.831 63.3284 118.454 63.3585C118.976 63.5036 119.486 63.6912 119.978 63.9193C120.549 64.0886 121.258 64.1309 121.702 64.2473C122.147 64.3637 122.316 64.5964 122.305 64.8821C122.242 65.2487 122.128 65.6047 121.967 65.9402C121.813 66.2707 121.744 66.6344 121.766 66.9983C121.858 67.2997 121.929 67.6073 121.977 67.9188C121.934 68.3433 121.812 68.7559 121.618 69.1356C121.441 69.4419 121.312 69.7739 121.237 70.1196C121.237 70.363 121.438 70.5006 121.48 70.7651C121.518 71.0771 121.443 71.3925 121.269 71.6539C121.11 71.8972 120.888 72.0136 120.21 72.0031C119.324 71.9705 118.443 71.8607 117.576 71.675C116.871 71.5533 116.196 71.2983 115.587 70.9238C115.172 70.6385 114.814 70.2799 114.529 69.8657C114.289 69.4432 113.956 69.0812 113.555 68.8076C112.847 68.5528 112.093 68.4518 111.344 68.5114C110.201 68.5114 108.571 68.5114 106.889 68.4161C105.207 68.3209 103.471 68.2892 101.757 68.1093C100.059 67.9588 98.3751 67.6758 96.7209 67.2628C95.2267 66.8869 93.7762 66.3549 92.3933 65.6757C91.4574 65.141 90.5498 64.5582 89.674 63.9298C89.0218 63.5409 88.305 63.2721 87.5578 63.1363C86.3171 62.9 85.1019 62.5457 83.9286 62.0782C82.2568 61.4327 80.056 60.3218 79.6222 60.3006C79.1884 60.2794 80.5639 61.3587 81.8336 62.3004C83.0663 63.0473 84.0922 64.0914 84.8174 65.3371C85.3782 66.5856 85.3041 68.2786 85.4099 70.2043C85.5628 72.285 85.8348 74.3552 86.2246 76.4047C86.4801 78.4508 87.0963 80.4355 88.0446 82.2665C89.154 83.9325 90.7134 85.2497 92.5414 86.065C94.5518 87.1231 97.0595 87.9802 98.5831 88.8372C100.107 89.6943 100.636 90.5513 102.212 93.387C103.789 96.2227 106.445 101.016 108.349 104.497C109.783 106.87 111.083 109.322 112.243 111.84C112.788 113.415 113.143 115.049 113.301 116.707C113.671 119.024 114.162 121.32 114.772 123.585C115.47 126.294 116.391 129.341 117.195 132.758C117.999 136.176 118.666 140.017 119.311 142.906C119.711 145.129 120.468 147.273 121.554 149.254C122.426 150.667 123.733 151.759 125.279 152.365C126.862 152.941 128.526 153.262 130.209 153.317C131.394 153.383 132.583 153.319 133.754 153.127C134.664 152.989 135.352 152.788 135.987 152.693C136.25 152.618 136.527 152.599 136.798 152.637C137.07 152.676 137.33 152.77 137.563 152.915Z" fill="#A92819"/>
<path d="M133.689 190.594H131.076V200H133.689V190.594Z" fill="#A92819"/>
<path d="M133.689 189.292H131.076V190.593H133.689V189.292Z" fill="#A92819"/>
<path d="M127.256 190.594H124.642V200H127.256V190.594Z" fill="#A92819"/>
<path d="M127.256 189.292H124.642V190.593H127.256V189.292Z" fill="#A92819"/>
<path d="M116.941 11.5016C123.66 20.6223 121.565 32.9384 121.47 33.4569L118.899 33.0019C118.899 32.8855 120.888 21.236 114.825 13.0464C111.556 8.6024 106.487 5.93602 99.7897 5.10013L100.107 2.50781C107.556 3.43893 113.227 6.46506 116.941 11.5016Z" fill="#4C8BCA"/>
<path d="M121.415 106.148C122.145 109.396 118.875 111.258 117.182 114.38C116.939 109.978 112.823 103.704 111.468 101.312C108.294 95.9373 106.559 91.9589 103.924 87.917C104.432 87.917 104.982 88.0122 105.416 88.0122C108.358 90.6786 111.204 92.033 116.209 98.519C117.182 99.9157 120.991 104.286 121.415 106.148Z" fill="#A92819"/>
<path d="M120.178 190.594H117.575V200H120.178V190.594Z" fill="#A92819"/>
<path d="M120.178 189.292H117.575V190.593H120.178V189.292Z" fill="#A92819"/>
<path d="M118.071 51.328C119.006 53.7061 119.425 56.2563 119.298 58.8087C116.716 58.1633 115.182 59.0309 113.404 59.306C108.992 58.5653 104.263 54.7986 99.0144 53.6452C102.95 51.1693 104.844 50.6191 107.839 48.1749C109.204 46.8523 111.013 45.1911 114.441 46.0587C114.726 46.1414 115 46.2587 115.256 46.4079C116.483 47.2015 117.266 49.2118 118.071 51.328Z" fill="#0F7657"/>
<path d="M113.109 190.594H110.496V200H113.109V190.594Z" fill="#A92819"/>
<path d="M113.109 189.292H110.496V190.593H113.109V189.292Z" fill="#A92819"/>
<path d="M110.359 73.2939C111.979 75.101 114.218 76.2338 116.633 76.4682C115.374 79.6424 109.777 83.1976 105.513 83.1236C103.651 83.1976 101.28 82.3723 97.5454 83.2611C96.0958 82.6897 93.9056 81.6317 93.4929 81.4095C91.4402 80.2773 91.2392 79.4943 90.7313 77.6638C90.1593 75.1266 89.7633 72.5528 89.5463 69.9609C92.8475 71.6221 97.1963 73.2833 110.359 73.2939Z" fill="#0F7657"/>
<path d="M106.031 190.594H103.428V200H106.031V190.594Z" fill="#A92819"/>
<path d="M106.031 189.292H103.428V190.593H106.031V189.292Z" fill="#A92819"/>
<path d="M99.2793 122.167C99.3764 124.927 99.6841 127.675 100.2 130.388C100.2 130.452 95.0892 134.716 93.3222 136.197C91.5552 137.678 90.3913 138.567 89.4496 139.519C88.5195 140.309 87.8761 141.384 87.6191 142.577C87.5388 143.831 87.7152 145.087 88.1376 146.27C88.4656 147.476 88.7513 148.545 88.9735 149.328C89.0905 149.94 89.3279 150.522 89.6718 151.042C89.9787 151.412 90.4442 151.687 90.8145 152.047C90.9969 152.182 91.1453 152.357 91.2482 152.559C91.351 152.761 91.4054 152.984 91.4071 153.211C91.328 153.424 91.1824 153.606 90.9918 153.73C90.8012 153.854 90.5758 153.913 90.349 153.899C89.7212 153.83 89.119 153.613 88.5926 153.264C88 152.925 87.4287 152.555 86.7938 152.121C85.9551 151.625 85.2504 150.931 84.7411 150.1C84.0664 148.754 83.3103 147.45 82.4768 146.196C81.6794 145.41 80.7702 144.747 79.7787 144.228C79.392 143.957 79.0648 143.61 78.8173 143.207C78.5698 142.805 78.4073 142.357 78.3397 141.889C78.3072 141.452 78.3818 141.014 78.5569 140.612C78.7321 140.21 79.0025 139.857 79.3449 139.583C80.1689 139.084 81.0409 138.669 81.9478 138.345C83.25 137.68 84.4306 136.8 85.4395 135.742C87.1359 134.023 88.65 132.133 89.9575 130.102C91.534 127.679 92.9942 124.971 94.8141 122.008C96.0755 119.969 97.4533 118.005 98.9407 116.125C98.9407 116.125 99.1946 118.929 99.2793 122.167Z" fill="#A92819"/>
<path d="M98.9626 190.594H96.3491V200H98.9626V190.594Z" fill="#A92819"/>
<path d="M98.9626 189.292H96.3491V190.593H98.9626V189.292Z" fill="#A92819"/>
<path d="M91.8938 190.594H89.2909V200H91.8938V190.594Z" fill="#A92819"/>
<path d="M91.8938 189.292H89.2909V190.593H91.8938V189.292Z" fill="#A92819"/>
<path d="M84.8281 190.594H82.2146V200H84.8281V190.594Z" fill="#A92819"/>
<path d="M84.8281 189.292H82.2146V190.593H84.8281V189.292Z" fill="#A92819"/>
<path d="M77.7578 190.594H75.1443V200H77.7578V190.594Z" fill="#A92819"/>
<path d="M77.7578 189.292H75.1443V190.593H77.7578V189.292Z" fill="#A92819"/>
<path d="M70.6814 190.594H68.0679V200H70.6814V190.594Z" fill="#A92819"/>
<path d="M70.6814 189.292H68.0679V190.593H70.6814V189.292Z" fill="#A92819"/>
<path d="M69.769 3.29102L70.097 5.89391C63.3781 6.7298 58.3204 9.39618 55.0404 13.8296C48.9987 22.0192 50.9561 33.6793 50.9667 33.7851L48.4062 34.2507C48.3215 33.7216 46.2265 21.4055 52.9454 12.2953C56.6592 7.24827 62.32 4.22213 69.769 3.29102Z" fill="#4C8BCA"/>
<path d="M64.2783 149.984C64.6862 150.328 64.9418 150.818 64.9894 151.35C65.0369 151.881 64.8726 152.409 64.5323 152.82L56.385 162.512L56.3109 162.596C56.3179 162.834 56.2779 163.071 56.1934 163.293C56.1089 163.515 55.9815 163.718 55.8184 163.891C55.6553 164.064 55.4597 164.203 55.2429 164.301C55.026 164.398 54.7921 164.452 54.5545 164.459C54.3169 164.466 54.0802 164.426 53.8581 164.341C53.6359 164.257 53.4325 164.129 53.2596 163.966C53.0867 163.803 52.9476 163.608 52.8502 163.391C52.7529 163.174 52.6992 162.94 52.6922 162.702L52.6288 162.628L44.4815 152.915C44.1559 152.504 44.004 151.981 44.0583 151.459C44.1125 150.938 44.3686 150.458 44.7719 150.122C45.1752 149.786 45.6936 149.622 46.2166 149.663C46.7396 149.705 47.2257 149.949 47.5711 150.344L52.6817 156.438V152.301L47.2431 145.752C47.0713 145.55 46.9412 145.317 46.8604 145.065C46.7795 144.812 46.7495 144.547 46.7722 144.283C46.7948 144.019 46.8696 143.763 46.9922 143.528C47.1148 143.293 47.2828 143.085 47.4865 142.916C47.897 142.576 48.4254 142.411 48.9566 142.459C49.4878 142.506 49.9786 142.762 50.3221 143.17L52.724 146.048V142.144C52.7049 141.894 52.7376 141.642 52.8202 141.406C52.9027 141.169 53.0332 140.952 53.2036 140.768C53.374 140.584 53.5805 140.437 53.8102 140.337C54.04 140.237 54.2879 140.185 54.5386 140.185C54.7893 140.185 55.0373 140.237 55.267 140.337C55.4967 140.437 55.7032 140.584 55.8736 140.768C56.044 140.952 56.1745 141.169 56.2571 141.406C56.3396 141.642 56.3723 141.894 56.3532 142.144V146.09L58.8609 143.128C59.2121 142.747 59.6968 142.516 60.2138 142.484C60.7308 142.452 61.2402 142.621 61.6359 142.955C62.0316 143.289 62.283 143.764 62.3377 144.279C62.3923 144.794 62.2461 145.31 61.9294 145.72L56.3532 152.312V156.333L61.4955 150.217C61.8374 149.823 62.3197 149.578 62.8396 149.534C63.3595 149.491 63.8758 149.652 64.2783 149.984V149.984Z" fill="#0F7657"/>
<path d="M64.194 190.594H61.5806V200H64.194V190.594Z" fill="#A92819"/>
<path d="M64.194 189.292H61.5806V190.593H64.194V189.292Z" fill="#A92819"/>
<path d="M57.1357 190.594H54.5222V200H57.1357V190.594Z" fill="#A92819"/>
<path d="M57.1357 189.292H54.5222V190.593H57.1357V189.292Z" fill="#A92819"/>
<path d="M55.5397 55.7192H0.138184V58.3221H55.5397V55.7192Z" fill="#179E6C"/>
<path d="M55.4435 110.274V112.877H0.0419922V110.274H11.554C11.8886 110.462 12.2657 110.56 12.6491 110.56C13.0326 110.56 13.4096 110.462 13.7442 110.274H43.1168C43.4495 110.462 43.8248 110.56 44.2066 110.56C44.5884 110.56 44.9637 110.462 45.2964 110.274H55.4435Z" fill="#179E6C"/>
<path d="M55.4223 123.892H0.0419922V126.505H55.4223V123.892Z" fill="#179E6C"/>
<path d="M55.1277 90.5407C55.3363 90.7491 55.5017 90.9965 55.6146 91.2688C55.7275 91.5411 55.7857 91.8331 55.7857 92.1279C55.7857 92.4227 55.7275 92.7146 55.6146 92.9869C55.5017 93.2593 55.3363 93.5067 55.1277 93.715L46.4937 102.37V108.338C46.4947 108.632 46.4362 108.923 46.3216 109.194C46.207 109.465 46.0388 109.71 45.8271 109.914C45.6843 110.064 45.5204 110.193 45.3403 110.295H43.1184C42.7666 110.103 42.4728 109.82 42.2681 109.476C42.0633 109.132 41.955 108.738 41.9545 108.338V102.37L33.003 93.9055C32.7815 93.6959 32.6053 93.4433 32.4852 93.163C32.3651 92.8828 32.3037 92.5809 32.3047 92.276C32.3069 91.7072 32.522 91.1598 32.9078 90.7418C33.1091 90.5261 33.351 90.3522 33.6195 90.2302C33.8881 90.1081 34.1781 90.0402 34.473 90.0304C34.7678 90.0205 35.0617 90.069 35.3379 90.1729C35.614 90.2768 35.8669 90.4342 36.0821 90.636L41.9545 96.1698V90.0223L36.135 83.8219C35.9332 83.6067 35.7758 83.3538 35.6719 83.0777C35.568 82.8015 35.5195 82.5076 35.5294 82.2128C35.5392 81.9179 35.6071 81.6279 35.7292 81.3593C35.8513 81.0908 36.0251 80.8489 36.2408 80.6476C36.6753 80.2413 37.2529 80.0233 37.8475 80.0412C38.4422 80.059 39.0056 80.3112 39.4151 80.7428L41.965 83.4621V73.2727C41.9628 72.9739 42.0238 72.6779 42.1442 72.4044C42.2646 72.1308 42.4415 71.8858 42.6634 71.6856C42.8081 71.5333 42.9759 71.4047 43.1607 71.3047H45.3403C45.6894 71.4987 45.9804 71.7825 46.1832 72.1266C46.3859 72.4707 46.4931 72.8627 46.4937 73.2621V83.7055L48.8744 81.3248C49.0812 81.1136 49.3282 80.9459 49.6007 80.8314C49.8732 80.7168 50.1659 80.6579 50.4615 80.6579C50.7571 80.6579 51.0497 80.7168 51.3223 80.8314C51.5948 80.9459 51.8417 81.1136 52.0486 81.3248V81.3248C52.2572 81.5331 52.4227 81.7805 52.5356 82.0529C52.6485 82.3252 52.7066 82.6171 52.7066 82.9119C52.7066 83.2067 52.6485 83.4986 52.5356 83.771C52.4227 84.0433 52.2572 84.2907 52.0486 84.4991L46.4831 90.0646V96.0216L51.9428 90.5619C52.1499 90.3503 52.3969 90.1818 52.6695 90.0662C52.942 89.9505 53.2348 89.89 53.5308 89.888C53.8269 89.886 54.1204 89.9427 54.3945 90.0547C54.6686 90.1667 54.9177 90.3319 55.1277 90.5407V90.5407Z" fill="#0F7657"/>
<path d="M55.4012 116.654H0.0419922V119.268H55.4012V116.654Z" fill="#A92819"/>
<path d="M55.4012 68.7017V71.3151H45.3387C45.006 71.1279 44.6307 71.0295 44.2489 71.0295C43.8671 71.0295 43.4918 71.1279 43.1591 71.3151H13.7442C13.4096 71.1279 13.0326 71.0296 12.6491 71.0296C12.2657 71.0296 11.8886 71.1279 11.554 71.3151H0.0419922V68.7017H55.4012Z" fill="#179E6C"/>
<path d="M55.4015 62.3003H0V64.9032H55.4015V62.3003Z" fill="#A92819"/>
<path d="M50.8732 42.6837L51.3176 45.2336C49.6791 45.4832 48.0231 45.6 46.3658 45.5828C41.8266 45.5828 34.9807 44.7575 29.4364 40.5781C24.421 36.843 21.4266 31.1505 20.5378 23.6486L23.1407 23.3418C23.9343 30.0501 26.5689 35.1183 30.9918 38.4196C39.0967 44.6094 50.7674 42.7154 50.8732 42.6837Z" fill="#4C8BCA"/>
<path d="M50.0594 190.594H47.4459V200H50.0594V190.594Z" fill="#A92819"/>
<path d="M50.0594 189.292H47.4459V190.593H50.0594V189.292Z" fill="#A92819"/>
<path d="M47.8148 161.623C48.1384 162.041 48.294 162.565 48.2509 163.091C48.2078 163.618 47.9692 164.11 47.582 164.469C47.3868 164.639 47.1593 164.768 46.9131 164.848C46.667 164.928 46.4073 164.957 46.1495 164.934C45.8918 164.912 45.6412 164.837 45.4129 164.716C45.1845 164.594 44.983 164.427 44.8204 164.226L32.9064 149.804L21.0029 164.247C20.8422 164.448 20.6426 164.614 20.416 164.735C20.1895 164.857 19.9407 164.931 19.6846 164.954C19.4285 164.977 19.1705 164.947 18.9261 164.868C18.6817 164.788 18.4559 164.66 18.2624 164.491C17.8617 164.139 17.6134 163.646 17.5699 163.115C17.5265 162.583 17.6914 162.056 18.0296 161.644L30.3458 146.694L26.2404 141.71C25.9198 141.293 25.7661 140.771 25.8091 140.247C25.8521 139.723 26.0889 139.233 26.4732 138.874C26.6678 138.704 26.8947 138.574 27.1405 138.494C27.3862 138.413 27.6457 138.383 27.9034 138.404C28.1612 138.426 28.4119 138.499 28.6406 138.62C28.8694 138.741 29.0714 138.906 29.2348 139.107L32.9064 143.636L36.6097 139.149C36.773 138.949 36.9751 138.783 37.2038 138.662C37.4326 138.542 37.6833 138.468 37.941 138.447C38.1988 138.425 38.4583 138.455 38.704 138.536C38.9497 138.617 39.1767 138.746 39.3713 138.917C39.754 139.277 39.9888 139.767 40.0298 140.292C40.0709 140.816 39.9154 141.336 39.5935 141.752L35.4775 146.746L47.8148 161.623Z" fill="#0F7657"/>
<path d="M45.338 71.3154H43.116C43.4487 71.1282 43.824 71.0298 44.2058 71.0298C44.5876 71.0298 44.9629 71.1282 45.2956 71.3154H45.338Z" fill="#1D1D1B"/>
<path d="M43.116 110.274H45.338C45.0052 110.462 44.6299 110.56 44.2481 110.56C43.8663 110.56 43.491 110.462 43.1583 110.274H43.116Z" fill="#1D1D1B"/>
<path d="M42.9891 190.594H40.3756V200H42.9891V190.594Z" fill="#A92819"/>
<path d="M42.9891 189.292H40.3756V190.593H42.9891V189.292Z" fill="#A92819"/>
<path d="M35.9112 190.594H33.3083V200H35.9112V190.594Z" fill="#A92819"/>
<path d="M35.9112 189.292H33.3083V190.593H35.9112V189.292Z" fill="#A92819"/>
<path d="M32.9267 135.171C33.3227 135.169 33.7104 135.284 34.0406 135.503C34.3709 135.721 34.6288 136.033 34.7818 136.398C34.9348 136.763 34.9759 137.166 34.9 137.554C34.824 137.943 34.6344 138.3 34.3551 138.581C34.0759 138.862 33.7196 139.053 33.3314 139.131C32.9432 139.209 32.5405 139.17 32.1745 139.019C31.8085 138.868 31.4955 138.612 31.2753 138.283C31.0551 137.954 30.9375 137.567 30.9375 137.171C30.9361 136.909 30.9866 136.649 31.0859 136.406C31.1852 136.164 31.3315 135.943 31.5164 135.757C31.7013 135.571 31.921 135.424 32.163 135.323C32.4051 135.223 32.6646 135.171 32.9267 135.171V135.171Z" fill="#A92819"/>
<path d="M28.8425 190.594H26.229V200H28.8425V190.594Z" fill="#A92819"/>
<path d="M28.8425 189.292H26.229V190.593H28.8425V189.292Z" fill="#A92819"/>
<path d="M19.5971 0.000125977C20.9998 0.0105767 22.368 0.435658 23.5296 1.22188C24.6912 2.0081 25.5944 3.12034 26.1253 4.41863C26.6563 5.71692 26.7915 7.14326 26.5137 8.51816C26.236 9.89307 25.5578 11.1551 24.5645 12.1455C23.5712 13.1359 22.3071 13.8103 20.9314 14.084C19.5557 14.3577 18.1298 14.2183 16.833 13.6835C15.5363 13.1487 14.4268 12.2422 13.644 11.0783C12.8612 9.91436 12.4402 8.54489 12.4339 7.14222C12.4311 6.20174 12.6146 5.27001 12.9738 4.40084C13.3331 3.53167 13.861 2.74227 14.527 2.07823C15.193 1.41419 15.9839 0.888655 16.8542 0.531974C17.7244 0.175294 18.6567 -0.00546806 19.5971 0.000125977V0.000125977ZM24.0728 7.14222C24.0728 6.25028 23.8082 5.37839 23.3125 4.63692C22.8167 3.89544 22.1121 3.31772 21.2879 2.97687C20.4636 2.63603 19.5568 2.54738 18.6821 2.72217C17.8075 2.89695 17.0043 3.32729 16.3744 3.95873C15.7444 4.59017 15.316 5.39431 15.1433 6.26937C14.9705 7.14442 15.0613 8.05105 15.4041 8.8745C15.7469 9.69794 16.3262 10.4012 17.0689 10.8952C17.8115 11.3892 18.684 11.6518 19.576 11.6497C20.7696 11.6469 21.9134 11.1708 22.7564 10.3257C23.5994 9.48073 24.0728 8.33584 24.0728 7.14222Z" fill="#4C8BCA"/>
<path d="M23.521 90.5407C23.7335 90.7469 23.9024 90.9936 24.0178 91.2662C24.1331 91.5388 24.1925 91.8318 24.1925 92.1279C24.1925 92.4239 24.1331 92.7169 24.0178 92.9895C23.9024 93.2622 23.7335 93.5089 23.521 93.715L14.887 102.37V108.338C14.8877 108.631 14.83 108.921 14.7173 109.192C14.6047 109.463 14.4394 109.708 14.231 109.914C14.0858 110.062 13.9222 110.19 13.7443 110.295H11.5541C11.2077 110.099 10.9194 109.814 10.7187 109.471C10.518 109.127 10.4119 108.736 10.4113 108.338V102.37L1.44932 93.9055C1.03038 93.4876 0.794428 92.9206 0.793309 92.3289C0.787986 91.7587 1.00421 91.2086 1.39642 90.7947C1.59771 90.579 1.83957 90.4051 2.10815 90.2831C2.37672 90.161 2.66675 90.0931 2.9616 90.0833C3.25646 90.0734 3.55036 90.1219 3.82647 90.2258C4.10258 90.3297 4.35548 90.4871 4.57068 90.6889L10.4537 96.2227V90.0223L4.58127 83.8219C4.38163 83.6158 4.22465 83.3723 4.11934 83.1054C4.01403 82.8385 3.96245 82.5534 3.96757 82.2665C3.96663 81.9606 4.02914 81.6579 4.15116 81.3774C4.27319 81.0969 4.45207 80.8448 4.67649 80.637C5.11231 80.2333 5.68932 80.0171 6.28312 80.0349C6.87691 80.0527 7.43992 80.3032 7.85076 80.7323L10.4113 83.4515V73.2727C10.4081 72.9776 10.4646 72.6849 10.5773 72.4122C10.69 72.1395 10.8567 71.8923 11.0673 71.6856C11.2148 71.5407 11.378 71.413 11.5541 71.3047H13.7443C14.0922 71.4993 14.3816 71.7834 14.5826 72.1276C14.7835 72.4718 14.8886 72.8636 14.887 73.2621V83.7055L17.2889 81.3248C17.4931 81.113 17.7381 80.9448 18.009 80.8303C18.28 80.7157 18.5713 80.6572 18.8655 80.6582C19.3072 80.6628 19.7378 80.797 20.1038 81.0443C20.4699 81.2916 20.7552 81.641 20.9243 82.0491C21.0933 82.4572 21.1388 82.9059 21.0549 83.3396C20.9711 83.7733 20.7616 84.1728 20.4526 84.4885L14.887 90.054V96.0216L20.3574 90.5619C20.5634 90.3522 20.8088 90.1853 21.0795 90.0708C21.3502 89.9562 21.6409 89.8962 21.9348 89.8942C22.2288 89.8922 22.5202 89.9483 22.7924 90.0593C23.0646 90.1702 23.3122 90.3338 23.521 90.5407V90.5407Z" fill="#0F7657"/>
<path d="M21.7645 190.594H19.1616V200H21.7645V190.594Z" fill="#A92819"/>
<path d="M21.7645 189.292H19.1616V190.593H21.7645V189.292Z" fill="#A92819"/>
<path d="M19.5962 9.63969C20.9929 9.63969 22.125 8.5075 22.125 7.11086C22.125 5.71423 20.9929 4.58203 19.5962 4.58203C18.1996 4.58203 17.0674 5.71423 17.0674 7.11086C17.0674 8.5075 18.1996 9.63969 19.5962 9.63969Z" fill="#2A3277"/>
<path d="M21.0028 149.985C21.2059 150.154 21.3737 150.362 21.4965 150.596C21.6192 150.83 21.6946 151.086 21.7182 151.35C21.7418 151.613 21.7131 151.879 21.6339 152.131C21.5548 152.383 21.4266 152.618 21.2567 152.82L13.1094 162.512L13.0353 162.618C13.0277 163.101 12.8363 163.562 12.5 163.908C12.1638 164.254 11.7081 164.459 11.226 164.48C10.7564 164.457 10.3122 164.26 9.97972 163.928C9.64726 163.595 9.45034 163.151 9.42727 162.682L9.36378 162.608L1.20592 152.894C1.0371 152.691 0.910018 152.456 0.831945 152.203C0.753871 151.951 0.72633 151.685 0.750893 151.422C0.775456 151.158 0.851643 150.902 0.975103 150.669C1.09856 150.435 1.26688 150.227 1.47044 150.059C1.674 149.89 1.90882 149.763 2.1615 149.685C2.41417 149.607 2.67975 149.579 2.94306 149.604C3.20638 149.628 3.46228 149.704 3.69615 149.828C3.93003 149.951 4.13729 150.12 4.30612 150.323L9.41668 156.418V152.281L3.96753 145.752C3.64733 145.342 3.49902 144.823 3.55383 144.305C3.60863 143.787 3.86228 143.31 4.26135 142.976C4.66041 142.641 5.17376 142.474 5.69329 142.511C6.21281 142.547 6.69796 142.784 7.04657 143.17L9.45901 146.048V142.144C9.43306 141.638 9.60895 141.142 9.94813 140.765C10.2873 140.388 10.7621 140.161 11.2683 140.134C11.5195 140.146 11.7658 140.208 11.9929 140.316C12.2201 140.423 12.4236 140.575 12.5918 140.762C12.76 140.949 12.8896 141.167 12.973 141.405C13.0563 141.642 13.0919 141.893 13.0777 142.144V146.091L15.5959 143.128C15.9397 142.723 16.4305 142.47 16.9603 142.427C17.4901 142.383 18.0155 142.552 18.421 142.895C18.8265 143.239 19.0788 143.73 19.1225 144.26C19.1662 144.79 18.9976 145.315 18.6538 145.72L13.0777 152.312V156.333L18.22 150.207C18.5633 149.814 19.0463 149.571 19.5662 149.53C20.086 149.488 20.6015 149.651 21.0028 149.985V149.985Z" fill="#0F7657"/>
<path d="M14.7078 190.594H12.0944V200H14.7078V190.594Z" fill="#A92819"/>
<path d="M14.7078 189.292H12.0944V190.593H14.7078V189.292Z" fill="#A92819"/>
<path d="M13.7437 71.3158H11.5535C11.8881 71.1286 12.2651 71.0303 12.6486 71.0303C13.032 71.0303 13.4091 71.1286 13.7437 71.3158V71.3158Z" fill="#1D1D1B"/>
<path d="M11.5535 110.274H13.7437C13.4091 110.462 13.032 110.56 12.6486 110.56C12.2651 110.56 11.8881 110.462 11.5535 110.274V110.274Z" fill="#1D1D1B"/>
<path d="M7.63 190.594H5.0271V200H7.63V190.594Z" fill="#A92819"/>
<path d="M7.63 189.292H5.0271V190.593H7.63V189.292Z" fill="#A92819"/>
<path d="M7.58638 7.32227H4.9729V49.085H7.58638V7.32227Z" fill="#2A3277"/>
</svg>
