<svg width="195" height="200" viewBox="0 0 195 200" fill="none" xmlns="http://www.w3.org/2000/svg">
<path d="M193.627 120.482C193.851 120.615 194.044 120.794 194.193 121.007C194.338 121.222 194.44 121.463 194.492 121.717C194.543 121.969 194.543 122.228 194.492 122.479C194.435 122.734 194.322 122.974 194.162 123.18C192.14 126.741 189.408 129.849 186.134 132.31C182.86 134.77 179.115 136.531 175.132 137.483C167.78 139.295 158.656 138.842 147.668 134.909L147.442 134.816C142.602 132.252 140.687 131.15 136.032 128.493L134.487 127.608C127.876 123.725 123.057 120.533 119.35 118.062C119.041 116.435 118.691 114.828 118.32 113.222C119.041 113.603 119.813 114.066 120.596 114.581C124.015 116.878 128.453 119.854 134.56 123.468V113.448H135.095C128.772 109.525 122.861 105.21 116.858 100.844C116.014 100.473 115.231 100.154 114.479 99.9071C114.15 98.8773 113.841 97.8476 113.449 96.6943C113.68 96.5587 113.904 96.4109 114.119 96.2515V96.2515C116.708 96.8969 119.137 98.0675 121.255 99.6909C131.691 107.675 142.981 114.476 154.918 119.967C158.025 121.098 161.301 121.697 164.608 121.738C169.891 121.769 175.05 120.137 179.354 117.073C183.212 114.396 186.168 110.612 187.829 106.22C188.531 104.308 188.907 102.293 188.941 100.257C189.1 96.9817 188.24 93.7375 186.479 90.9712C184.718 88.2049 182.142 86.0527 179.107 84.8108C176.701 83.7971 174.118 83.2687 171.507 83.2559C167.471 83.167 163.531 84.489 160.365 86.9939C159.535 87.7239 158.811 88.5661 158.213 89.4962V89.5889C157.553 90.6184 157.031 91.7297 156.658 92.8944V93.2652C156.425 94.9958 156.763 96.7554 157.622 98.276C158.481 99.7966 159.813 100.995 161.416 101.689L161.766 101.781C162.783 102.008 163.838 102.008 164.855 101.781C165.886 101.577 166.849 101.117 167.656 100.443C168.311 99.9185 168.777 99.1956 168.984 98.3831C169.088 97.908 169.088 97.4164 168.984 96.9414C168.668 95.982 168.09 95.1297 167.316 94.4803C166.65 93.9344 165.819 93.6296 164.958 93.6153C164.721 93.6154 164.486 93.5663 164.268 93.4711C164.048 93.3776 163.848 93.241 163.681 93.0695C163.518 92.8922 163.389 92.6862 163.3 92.4619C163.217 92.2418 163.178 92.0072 163.187 91.772C163.185 91.5234 163.238 91.2774 163.341 91.0512C163.444 90.8225 163.599 90.6213 163.794 90.4642C164.075 90.2084 164.374 89.9743 164.69 89.764L164.804 89.6816C165.157 89.4375 165.529 89.2206 165.916 89.0328C168.042 88.1263 170.404 87.9312 172.65 88.4768C175.011 88.9064 177.175 90.0747 178.829 91.8132C180.261 93.6759 181.104 95.9244 181.249 98.2698C181.369 100.865 180.767 103.442 179.509 105.715C178.292 107.977 176.598 109.948 174.545 111.492C172.446 113.146 169.915 114.161 167.254 114.416C153.692 115.971 141.377 105.53 130.636 96.478C127.133 93.3941 123.454 90.5162 119.618 87.8589C119.947 86.8292 120.308 85.6449 120.647 84.3577C124.959 87.149 129.065 90.2463 132.933 93.6256C143.127 102.224 154.805 112.058 166.863 110.689H166.976C168.951 110.494 170.826 109.728 172.372 108.485C174.008 107.24 175.351 105.651 176.306 103.83C177.24 102.137 177.699 100.223 177.634 98.2904C177.512 96.6565 176.918 95.0933 175.925 93.7903C174.778 92.7395 173.344 92.0546 171.806 91.8235C171.079 91.6657 170.335 91.5999 169.592 91.6278C170.913 92.7822 171.889 94.2789 172.414 95.9528C172.63 96.9296 172.63 97.9418 172.414 98.9185C172.092 100.577 171.222 102.079 169.942 103.182C168.684 104.249 167.18 104.985 165.566 105.324C164.035 105.653 162.452 105.653 160.921 105.324L160.304 105.149C157.782 104.235 155.656 102.473 154.29 100.164C152.924 97.855 152.404 95.1432 152.817 92.4928C152.854 92.2636 152.917 92.0392 153.003 91.8235C153.464 90.3385 154.122 88.922 154.959 87.6118V87.5191C155.743 86.2774 156.712 85.1627 157.832 84.2136C161.637 81.1314 166.405 79.4872 171.301 79.5693C174.391 79.5752 177.448 80.202 180.291 81.4126C183.983 82.9043 187.127 85.494 189.298 88.8313C191.47 92.1687 192.564 96.0925 192.432 100.072C192.428 102.533 191.985 104.974 191.124 107.28C190.559 108.876 189.827 110.409 188.941 111.852V124.343C189.695 123.392 190.383 122.391 191.001 121.347C191.1 121.106 191.249 120.889 191.439 120.712C191.63 120.534 191.856 120.399 192.103 120.317C192.347 120.233 192.608 120.205 192.865 120.235C193.134 120.258 193.394 120.343 193.627 120.482ZM185.389 128.267V116.589C184.327 117.717 183.169 118.751 181.929 119.679V130.779C183.142 130.042 184.289 129.201 185.358 128.267H185.389ZM178.314 132.653V121.965C177.315 122.499 176.283 122.97 175.225 123.375V133.724C176.263 133.423 177.284 133.066 178.283 132.653H178.314ZM171.641 134.507V124.518C169.338 125.07 166.977 125.347 164.608 125.342C160.853 125.333 157.128 124.671 153.6 123.386H153.476L151.921 122.675V132.499C158.248 134.651 164.98 135.338 171.61 134.507H171.641ZM148.266 131.15V120.852L144.734 119.05V129.255L148.266 131.15ZM141.057 127.165V117.001C140.11 116.476 139.193 115.971 138.277 115.456V125.61L141.057 127.165Z" fill="#0F7657"/>
<path d="M192.989 175.183H1.34009V177.757H192.989V175.183Z" fill="#179E6C"/>
<path d="M192.73 181.475H1.08179V184.049H192.73V181.475Z" fill="#179E6C"/>
<path d="M192.307 27.7415L192.523 30.3159C191.205 30.4189 189.949 30.4807 188.724 30.4807C180.908 30.4807 174.935 28.2358 170.929 23.8181C163.412 15.508 165.677 2.66687 165.78 2.12109L168.314 2.58449C168.314 2.70806 166.182 14.746 172.845 22.1499C176.861 26.5779 183.431 28.483 192.307 27.7415Z" fill="#2A3277"/>
<path d="M192.482 46.061H116.115V48.6354H192.482V46.061Z" fill="#4C8BCA"/>
<path d="M191.947 37.5137H116.178V40.0881H191.947V37.5137Z" fill="#4C8BCA"/>
<path d="M188.476 190.732H185.901V200H188.476V190.732Z" fill="#A92819"/>
<path d="M188.476 189.445H185.901V190.733H188.476V189.445Z" fill="#A92819"/>
<path d="M183.739 13.0676C185.025 13.0676 186.067 12.0257 186.067 10.7403C186.067 9.45503 185.025 8.41309 183.739 8.41309C182.454 8.41309 181.412 9.45503 181.412 10.7403C181.412 12.0257 182.454 13.0676 183.739 13.0676Z" fill="#2A3277"/>
<path d="M179.167 71.5372C181.146 71.5372 182.75 69.9328 182.75 67.9537C182.75 65.9745 181.146 64.3701 179.167 64.3701C177.187 64.3701 175.583 65.9745 175.583 67.9537C175.583 69.9328 177.187 71.5372 179.167 71.5372Z" fill="#2A3277"/>
<path d="M181.505 190.732H178.93V200H181.505V190.732Z" fill="#A92819"/>
<path d="M181.505 189.445H178.93V190.733H181.505V189.445Z" fill="#A92819"/>
<path d="M175.75 158.109C176.224 158.109 176.688 158.25 177.083 158.514C177.477 158.777 177.785 159.152 177.966 159.591C178.148 160.029 178.196 160.511 178.103 160.977C178.01 161.442 177.782 161.87 177.446 162.205C177.111 162.541 176.683 162.769 176.218 162.862C175.752 162.955 175.27 162.907 174.832 162.725C174.393 162.544 174.018 162.236 173.755 161.842C173.491 161.447 173.35 160.983 173.35 160.509C173.35 160.194 173.412 159.882 173.533 159.591C173.654 159.299 173.83 159.035 174.053 158.812C174.276 158.589 174.54 158.413 174.832 158.292C175.123 158.171 175.435 158.109 175.75 158.109V158.109Z" fill="#2A3277"/>
<path d="M176.655 10.7402C176.653 12.1419 177.067 13.5127 177.844 14.6791C178.621 15.8455 179.727 16.7552 181.021 17.293C182.316 17.8308 183.741 17.9726 185.116 17.7004C186.491 17.4282 187.754 16.7542 188.746 15.7638C189.738 14.7734 190.413 13.5111 190.688 12.1365C190.962 10.7619 190.822 9.33684 190.286 8.04167C189.75 6.74651 188.842 5.63941 187.677 4.86047C186.512 4.08153 185.141 3.66576 183.74 3.66576C181.863 3.66847 180.064 4.41436 178.737 5.74019C177.409 7.06603 176.66 8.86384 176.655 10.7402V10.7402ZM183.74 20.3994C181.829 20.3994 179.962 19.8329 178.373 18.7715C176.785 17.7101 175.547 16.2016 174.816 14.4366C174.085 12.6716 173.893 10.7295 174.266 8.8558C174.639 6.98211 175.559 5.26102 176.91 3.91016C178.261 2.5593 179.982 1.63936 181.855 1.26666C183.729 0.893956 185.671 1.08524 187.436 1.81632C189.201 2.5474 190.71 3.78543 191.771 5.37387C192.832 6.96231 193.399 8.82981 193.399 10.7402C193.396 13.3011 192.378 15.7564 190.567 17.5672C188.756 19.3781 186.301 20.3966 183.74 20.3994V20.3994Z" fill="#179E6C"/>
<path d="M174.533 190.732H171.959V200H174.533V190.732Z" fill="#A92819"/>
<path d="M174.533 189.445H171.959V190.733H174.533V189.445Z" fill="#A92819"/>
<path d="M172.218 67.9539C172.216 69.3296 172.623 70.6749 173.386 71.8195C174.149 72.9642 175.234 73.8567 176.505 74.384C177.775 74.9114 179.173 75.0499 180.523 74.7821C181.872 74.5142 183.112 73.852 184.084 72.8793C185.057 71.9065 185.719 70.6671 185.987 69.3178C186.255 67.9685 186.116 66.57 185.589 65.2995C185.062 64.029 184.169 62.9435 183.025 62.1805C181.88 61.4175 180.535 61.0113 179.159 61.0134C177.319 61.0161 175.555 61.7482 174.254 63.0492C172.953 64.3502 172.221 66.114 172.218 67.9539V67.9539ZM179.159 77.4689C177.278 77.4669 175.439 76.9071 173.876 75.8604C172.312 74.8136 171.094 73.3269 170.376 71.588C169.657 69.8492 169.47 67.9364 169.838 66.0914C170.207 64.2463 171.114 62.5519 172.445 61.2222C173.776 59.8925 175.471 58.9873 177.317 58.621C179.162 58.2547 181.075 58.4438 182.813 59.1642C184.551 59.8847 186.036 61.1043 187.081 62.6688C188.126 64.2333 188.684 66.0725 188.684 67.9539C188.684 69.2043 188.438 70.4425 187.959 71.5976C187.48 72.7526 186.778 73.802 185.894 74.6857C185.009 75.5694 183.959 76.27 182.803 76.7476C181.648 77.2252 180.409 77.4703 179.159 77.4689V77.4689Z" fill="#179E6C"/>
<path d="M167.461 152.384C167.936 152.382 168.4 152.521 168.796 152.782C169.192 153.044 169.501 153.418 169.684 153.855C169.868 154.293 169.917 154.775 169.827 155.241C169.736 155.707 169.51 156.135 169.175 156.472C168.841 156.809 168.415 157.04 167.95 157.134C167.485 157.229 167.002 157.183 166.563 157.004C166.124 156.824 165.748 156.518 165.482 156.125C165.217 155.731 165.074 155.268 165.072 154.793C165.071 154.478 165.132 154.166 165.251 153.874C165.37 153.583 165.546 153.318 165.768 153.094C165.99 152.87 166.253 152.692 166.544 152.57C166.835 152.449 167.146 152.385 167.461 152.384V152.384Z" fill="#2A3277"/>
<path d="M167.461 163.629C167.936 163.627 168.401 163.766 168.797 164.028C169.193 164.291 169.502 164.665 169.685 165.103C169.869 165.541 169.918 166.024 169.826 166.49C169.735 166.956 169.507 167.385 169.172 167.721C168.837 168.058 168.409 168.287 167.943 168.381C167.478 168.474 166.995 168.427 166.556 168.246C166.117 168.065 165.741 167.757 165.477 167.362C165.213 166.968 165.072 166.503 165.072 166.028C165.072 165.394 165.324 164.785 165.771 164.335C166.219 163.886 166.827 163.632 167.461 163.629Z" fill="#2A3277"/>
<path d="M167.583 190.732H165.009V200H167.583V190.732Z" fill="#A92819"/>
<path d="M167.583 189.445H165.009V190.733H167.583V189.445Z" fill="#A92819"/>
<path d="M164.195 130.048C164.194 130.518 164.053 130.978 163.791 131.368C163.529 131.758 163.157 132.062 162.722 132.241C162.289 132.419 161.812 132.466 161.353 132.375C160.895 132.286 160.475 132.06 160.148 131.727C159.812 131.397 159.582 130.973 159.489 130.511C159.397 130.051 159.447 129.573 159.633 129.142C159.811 128.717 160.117 128.357 160.508 128.112C160.867 127.88 161.281 127.749 161.708 127.731C162.135 127.714 162.559 127.811 162.935 128.013C163.312 128.215 163.627 128.514 163.849 128.879C164.07 129.244 164.19 129.662 164.195 130.089V130.048Z" fill="#A92819"/>
<path d="M155.844 58.583C158.933 58.583 163.392 61.559 162.887 67.7684C162.962 69.6571 162.322 71.5047 161.095 72.9421C159.868 74.3796 158.143 75.301 156.266 75.5225C154.865 75.8624 147.266 75.7903 138.327 75.7903C137.127 76.9643 135.517 77.6253 133.838 77.6335H129.09C127.903 78.6404 126.438 79.2618 124.889 79.415C123.962 79.5565 123.026 79.6322 122.088 79.6416C121.645 81.1656 121.192 82.8132 120.749 84.3476C119.719 83.6929 118.653 83.0948 117.557 82.5558C118.227 80.2903 118.803 78.0043 119.308 75.6976H122.891C123.921 75.6976 126.362 75.8212 127.546 73.7719H133.22C133.934 73.8286 134.649 73.6784 135.279 73.3394C135.875 72.9926 136.366 72.4909 136.7 71.8875H154.824C155.448 71.929 156.074 71.8342 156.657 71.6094C157.238 71.3834 157.762 71.0318 158.191 70.5797C158.622 70.1227 158.943 69.5732 159.129 68.9733C159.305 68.3722 159.354 67.7408 159.273 67.1197C159.407 64.8027 158.356 62.3622 155.452 62.3622H108.588C108.959 57.4297 106.044 52.0646 100.35 51.2202C98.6777 50.9272 96.9584 51.0656 95.3547 51.6224C93.751 52.1792 92.3158 53.136 91.185 54.4022C88.7239 57.7695 88.8578 60.7352 89.6301 64.1643H89.4756C89.8464 65.5402 89.8464 66.9898 89.4756 68.3657C89.2079 68.4893 87.5912 68.5511 86.2422 68.9836C85.0737 69.3701 84.0145 70.0303 83.1529 70.9092C82.5187 71.5766 82.025 72.3645 81.7009 73.2262C81.3556 74.0898 81.1908 75.015 81.2169 75.9447C81.3644 77.9377 81.7801 79.9016 82.4527 81.7835L81.5259 81.1759C80.1769 80.2594 78.8279 79.3532 77.4068 78.4574C77.2883 77.7446 77.2059 77.0262 77.1597 76.3052C77.085 74.838 77.3057 73.3708 77.8084 71.9905C78.3185 70.6099 79.0952 69.3433 80.0945 68.2627C81.1435 67.1858 82.4063 66.3405 83.8016 65.781C84.3791 65.5319 84.9791 65.3388 85.5934 65.2043C85.1823 63.5539 84.9748 61.8594 84.9756 60.1585H85.0271C85.0961 56.682 86.4967 53.3646 88.9401 50.8907C90.3591 49.614 92.0235 48.6399 93.8315 48.0279C95.6453 47.4127 97.5649 47.171 99.4746 47.3174C102.526 47.5056 105.424 48.7216 107.696 50.7673C109.968 52.813 111.48 55.5679 111.986 58.583H155.844Z" fill="#A92819"/>
<path d="M158.893 158.109C159.367 158.109 159.831 158.25 160.226 158.514C160.62 158.777 160.928 159.152 161.109 159.591C161.291 160.029 161.339 160.511 161.246 160.977C161.153 161.442 160.925 161.87 160.589 162.205C160.254 162.541 159.826 162.769 159.361 162.862C158.895 162.955 158.413 162.907 157.975 162.725C157.536 162.544 157.161 162.236 156.898 161.842C156.634 161.447 156.493 160.983 156.493 160.509C156.492 160.193 156.553 159.881 156.673 159.589C156.793 159.297 156.97 159.032 157.193 158.809C157.416 158.586 157.681 158.409 157.973 158.289C158.265 158.169 158.577 158.108 158.893 158.109V158.109Z" fill="#2A3277"/>
<path d="M160.612 190.732H158.038V200H160.612V190.732Z" fill="#A92819"/>
<path d="M160.612 189.445H158.038V190.733H160.612V189.445Z" fill="#A92819"/>
<path d="M157.43 29.6367H116.466V32.2111H157.43V29.6367Z" fill="#A92819"/>
<path d="M153.641 190.732H151.067V200H153.641V190.732Z" fill="#A92819"/>
<path d="M153.641 189.445H151.067V190.733H153.641V189.445Z" fill="#A92819"/>
<path d="M146.679 190.732H144.104V200H146.679V190.732Z" fill="#A92819"/>
<path d="M146.679 189.445H144.104V190.733H146.679V189.445Z" fill="#A92819"/>
<path d="M144.064 10.7197C144.538 10.7197 145.001 10.8602 145.396 11.1234C145.79 11.3866 146.098 11.7607 146.28 12.1985C146.462 12.6363 146.51 13.1182 146.418 13.5834C146.326 14.0485 146.099 14.4761 145.764 14.812C145.43 15.148 145.003 15.3773 144.538 15.471C144.074 15.5648 143.591 15.5187 143.153 15.3387C142.714 15.1587 142.339 14.8528 142.074 14.4595C141.809 14.0663 141.667 13.6035 141.665 13.1294C141.663 12.8134 141.724 12.5003 141.844 12.208C141.964 11.9157 142.141 11.65 142.364 11.4261C142.587 11.2022 142.852 11.0246 143.143 10.9033C143.435 10.7821 143.748 10.7197 144.064 10.7197V10.7197Z" fill="#2A3277"/>
<path d="M139.708 190.732H137.133V200H139.708V190.732Z" fill="#A92819"/>
<path d="M139.708 189.445H137.133V190.733H139.708V189.445Z" fill="#A92819"/>
<path d="M135.774 5.00488C136.248 5.00488 136.712 5.1456 137.107 5.40924C137.501 5.67289 137.809 6.04761 137.991 6.48604C138.172 6.92446 138.22 7.40689 138.127 7.87231C138.035 8.33774 137.806 8.76526 137.47 9.10081C137.135 9.43637 136.707 9.66488 136.242 9.75746C135.777 9.85004 135.294 9.80253 134.856 9.62092C134.417 9.43932 134.043 9.1318 133.779 8.73723C133.515 8.34266 133.375 7.87877 133.375 7.40422C133.375 7.08914 133.437 6.77714 133.557 6.48604C133.678 6.19493 133.854 5.93043 134.077 5.70763C134.3 5.48483 134.565 5.3081 134.856 5.18752C135.147 5.06694 135.459 5.00488 135.774 5.00488V5.00488Z" fill="#2A3277"/>
<path d="M135.774 16.2188C136.248 16.2188 136.712 16.3595 137.107 16.6231C137.501 16.8868 137.809 17.2615 137.991 17.6999C138.172 18.1383 138.22 18.6208 138.127 19.0862C138.035 19.5516 137.806 19.9791 137.47 20.3147C137.135 20.6502 136.707 20.8788 136.242 20.9713C135.777 21.0639 135.294 21.0164 134.856 20.8348C134.417 20.6532 134.043 20.3457 133.779 19.9511C133.515 19.5565 133.375 19.0926 133.375 18.6181C133.375 18.303 133.437 17.991 133.557 17.6999C133.678 17.4088 133.854 17.1443 134.077 16.9215C134.3 16.6987 134.565 16.522 134.856 16.4014C135.147 16.2808 135.459 16.2187 135.774 16.2188V16.2188Z" fill="#2A3277"/>
<path d="M135.796 161.961C135.877 164.192 135.078 166.367 133.571 168.016C132.095 169.559 130.138 170.554 128.021 170.837C125.377 171.206 122.701 171.282 120.04 171.064C118.3 170.971 117.25 171.321 115.695 171.136C114.136 170.958 112.648 170.388 111.37 169.478C109.534 168.105 108.293 166.082 107.899 163.824C107.775 162.107 107.833 160.381 108.074 158.676C108.074 156.977 105.768 152.991 104.419 150.438C101.556 144.764 100.114 141.88 99.4347 135.382C98.7036 138.317 97.3752 143.312 95.4908 149.439C92.1337 158.501 93.7093 159.901 92.9781 163.402C91.6909 168.294 89.2401 170.137 86.0067 170.755C84.9769 170.961 81.3624 170.755 77.4185 170.755C76.2803 170.831 75.1392 170.66 74.0729 170.255C73.0066 169.85 72.0403 169.22 71.2399 168.407C70.3506 167.461 69.6916 166.323 69.3143 165.081C68.9382 163.839 68.8606 162.527 69.0877 161.25C69.2291 160.042 69.607 158.873 70.1998 157.811C70.9914 156.433 72.1643 155.314 73.5775 154.587L73.804 154.186C74.1438 152.641 74.1747 149.037 74.5145 145.309C74.6832 139.293 76.2298 133.396 79.0352 128.071C79.2411 123.612 79.5604 119.102 79.9826 114.87C81.2146 115.602 82.5064 116.229 83.8442 116.744C83.4735 120.739 83.1748 124.982 82.9895 128.936C82.6599 130.821 80.343 133.467 79.2823 139.048C78.2217 144.63 78.4791 150.592 77.7274 154.917C77.4828 155.882 77.0175 156.778 76.3681 157.533C75.6878 157.76 75.0652 158.132 74.544 158.625C74.0229 159.118 73.6157 159.718 73.3509 160.385C72.9923 161.298 72.8959 162.293 73.0729 163.258C73.2488 164.219 73.6912 165.111 74.3498 165.832C75.7503 167.109 76.8727 166.862 81.208 166.862C85.1005 166.862 86.1096 167.089 87.6543 165.946C91.1658 162.661 88.684 159.767 89.9609 155.329C91.9587 148.121 93.9255 143.631 95.4187 136.649C96.9118 129.667 97.2619 130.192 99.5377 123.756C100.515 126.674 101.756 129.497 103.245 132.19C103.501 134.962 103.942 137.714 104.563 140.428C107.374 148.666 111.298 152.785 112.142 157.605C112.285 158.912 112.215 160.233 111.936 161.518C111.866 162.246 111.949 162.981 112.182 163.675C112.414 164.368 112.79 165.005 113.285 165.544C113.99 166.36 114.953 166.909 116.014 167.099C117.492 167.181 118.974 167.181 120.452 167.099C123.002 167.348 125.573 167.272 128.103 166.873C128.88 166.756 129.619 166.461 130.262 166.011C130.905 165.561 131.435 164.967 131.81 164.278C132.236 163.457 132.405 162.528 132.294 161.61C132.183 160.694 131.791 159.834 131.172 159.149C129.452 157.152 127.053 158.058 124.273 155.731C123.243 154.701 122.646 149.954 121.183 143.209C120.071 138.06 117.528 129.039 117.25 126.732C116.714 122.943 116.028 119.167 115.19 115.405C116.364 116.028 117.501 116.715 118.599 117.465L119.371 117.98C119.927 120.76 120.401 123.561 120.792 126.362C121.08 128.771 123.881 138.266 125.179 144.897C125.595 147.678 126.187 150.43 126.95 153.136C127.28 153.42 127.671 153.624 128.093 153.733C129.936 154.134 135.507 155.731 135.796 161.961Z" fill="#A92819"/>
<path d="M132.746 190.732H130.171V200H132.746V190.732Z" fill="#A92819"/>
<path d="M132.746 189.445H130.171V190.733H132.746V189.445Z" fill="#A92819"/>
<path d="M132.253 161.642C132.363 162.559 132.195 163.489 131.769 164.309C131.393 164.998 130.863 165.592 130.22 166.042C129.577 166.492 128.838 166.787 128.062 166.904C125.531 167.303 122.96 167.379 120.41 167.13C118.932 167.213 117.45 167.213 115.972 167.13C114.911 166.94 113.948 166.391 113.243 165.575C112.748 165.036 112.372 164.399 112.14 163.706C111.908 163.012 111.824 162.277 111.894 161.549C112.173 160.264 112.243 158.943 112.1 157.636C111.256 152.868 107.332 148.656 104.521 140.459C103.9 137.746 103.46 134.994 103.203 132.221C101.714 129.528 100.474 126.705 99.496 123.788C97.2614 130.224 96.9113 129.698 95.3769 136.68C93.8426 143.662 91.9169 148.172 89.9192 155.36C88.6938 159.757 91.124 162.692 87.6125 165.977C86.0679 167.12 85.0587 166.904 81.1662 166.893C76.8309 166.893 75.7085 167.11 74.308 165.864C73.6495 165.142 73.207 164.25 73.0311 163.289C72.8542 162.324 72.9505 161.329 73.3092 160.416C73.5689 159.742 73.9739 159.133 74.4953 158.633C75.0168 158.133 75.6419 157.754 76.3264 157.523C76.9757 156.768 77.441 155.872 77.6856 154.907C78.4374 150.582 78.1696 144.609 79.2406 139.038C80.3115 133.467 82.6182 130.8 82.9477 128.926C83.1331 124.982 83.4317 120.688 83.8024 116.734L84.0496 116.837C85.1909 117.252 86.3567 117.595 87.5404 117.866C87.3551 119.926 87.18 122.047 87.0977 123.788C87.0995 125.821 86.9515 127.852 86.6549 129.863C86.1878 131.388 85.5523 132.856 84.7601 134.24C83.913 135.998 83.3168 137.866 82.9889 139.79C82.5572 142.605 82.2685 145.441 82.1239 148.286C81.9386 151.066 81.7944 153.373 81.5884 154.855C81.4859 155.879 81.1925 156.875 80.7234 157.79C80.3338 158.571 79.8645 159.31 79.323 159.994C78.938 160.419 78.477 160.768 77.9637 161.024C77.6393 161.125 77.3383 161.289 77.0781 161.508C76.9039 161.751 76.8102 162.043 76.8103 162.342C76.7795 162.564 76.7795 162.789 76.8103 163.011C76.8103 163.135 76.8103 163.135 76.9957 163.135H83.6685C84.134 163.186 84.6036 163.186 85.069 163.135C85.069 163.135 85.1411 163.135 85.2956 162.826C85.5821 162.355 85.7483 161.821 85.7796 161.271V157.986C85.93 156.017 86.2749 154.068 86.8093 152.168C87.4478 149.789 88.3643 146.968 89.291 144.156C90.2178 141.345 90.846 138.523 91.4638 136.402C92.0817 134.281 92.3494 132.664 93.0188 130.831C93.6881 128.998 94.4604 126.897 95.3563 124.21C96.0669 122.058 96.798 119.524 97.3438 117.63C98.5177 117.321 99.7019 116.96 101.03 116.6C101.102 116.806 101.154 117.001 101.216 117.197C101.906 119.257 102.946 122.531 103.842 124.951C104.459 126.554 105.192 128.109 106.035 129.606C106.466 130.305 106.779 131.07 106.962 131.871C107.137 132.674 107.209 133.807 107.343 134.961C107.438 136.213 107.63 137.456 107.919 138.678C108.29 139.999 108.769 141.287 109.351 142.529C109.958 143.878 110.669 145.34 111.41 146.854C112.152 148.368 112.965 149.944 113.676 151.241C114.265 152.338 114.781 153.474 115.22 154.639C115.576 155.639 115.822 156.675 115.952 157.729C116.055 158.566 116.055 159.414 115.952 160.251C115.869 160.993 115.725 161.642 115.725 162.095C115.713 162.263 115.737 162.431 115.797 162.589C115.853 162.75 115.936 162.9 116.044 163.032C116.177 163.165 116.334 163.27 116.508 163.341C116.68 163.399 116.863 163.417 117.043 163.392C117.62 163.392 118.598 163.289 119.648 163.279C120.699 163.269 122.017 163.372 123.191 163.392C124.222 163.421 125.254 163.383 126.28 163.279C126.953 163.29 127.618 163.123 128.206 162.795C128.294 162.724 128.367 162.636 128.422 162.537C128.472 162.439 128.497 162.329 128.494 162.218C128.496 162.108 128.471 161.998 128.422 161.899C128.367 161.8 128.294 161.713 128.206 161.642C127.549 161.347 126.857 161.139 126.146 161.024C125.301 160.761 124.484 160.416 123.706 159.994C122.85 159.618 122.068 159.092 121.399 158.439C120.588 157.424 120.012 156.243 119.71 154.979C119.247 153.424 118.866 151.138 118.258 148.152C117.651 145.165 116.817 141.355 116.044 138.204C115.272 135.053 114.489 132.541 113.892 129.75C113.295 126.959 112.862 123.891 112.337 121.069C111.915 118.587 111.472 116.281 110.988 114.231C112.427 114.419 113.821 114.858 115.107 115.529C115.945 119.264 116.631 123.039 117.167 126.856C117.445 129.142 119.988 138.184 121.1 143.332C122.583 150.077 123.16 154.825 124.19 155.854C127.011 158.182 129.338 157.275 131.089 159.273C131.706 159.928 132.111 160.753 132.253 161.642Z" fill="#F4F4F4"/>
<path d="M127.197 10.7197C127.671 10.7177 128.136 10.8564 128.531 11.1184C128.927 11.3803 129.236 11.7537 129.42 12.1914C129.603 12.629 129.653 13.1112 129.562 13.5771C129.472 14.0429 129.245 14.4714 128.911 14.8084C128.577 15.1454 128.15 15.3757 127.685 15.4703C127.22 15.5649 126.737 15.5194 126.298 15.3397C125.859 15.16 125.483 14.8541 125.218 14.4606C124.952 14.0672 124.81 13.6039 124.808 13.1294C124.808 12.4939 125.059 11.8841 125.506 11.4328C125.954 10.9814 126.561 10.7252 127.197 10.7197Z" fill="#2A3277"/>
<path d="M126.403 190.732H123.828V200H126.403V190.732Z" fill="#A92819"/>
<path d="M126.403 189.445H123.828V190.733H126.403V189.445Z" fill="#A92819"/>
<path d="M126.32 163.289C125.293 163.394 124.261 163.431 123.23 163.403C122.056 163.403 120.749 163.269 119.688 163.289C118.627 163.31 117.628 163.403 117.083 163.403C116.903 163.427 116.719 163.409 116.547 163.351C116.374 163.28 116.216 163.175 116.084 163.042C115.976 162.91 115.892 162.76 115.837 162.599C115.777 162.442 115.752 162.273 115.764 162.105C115.764 161.652 115.909 161.003 115.991 160.262C116.094 159.424 116.094 158.577 115.991 157.739C115.861 156.685 115.616 155.649 115.26 154.65C114.821 153.484 114.305 152.349 113.715 151.251C113.005 149.964 112.243 148.389 111.45 146.865C110.657 145.341 109.946 143.889 109.39 142.54C108.808 141.297 108.33 140.009 107.959 138.688C107.67 137.466 107.477 136.223 107.382 134.971C107.248 133.797 107.176 132.664 107.001 131.882C106.818 131.081 106.505 130.315 106.074 129.616C105.232 128.12 104.499 126.564 103.881 124.962C102.985 122.542 101.945 119.236 101.255 117.208C101.193 117.012 101.142 116.816 101.07 116.61C102.614 116.126 104.375 115.58 106.558 114.942C107.977 114.265 109.561 114.011 111.12 114.211C111.604 116.27 112.047 118.567 112.469 121.049C112.943 123.87 113.406 126.939 114.024 129.729C114.642 132.52 115.404 135.033 116.176 138.184C116.949 141.335 117.783 145.135 118.39 148.131C118.998 151.128 119.42 153.404 119.842 154.959C120.144 156.222 120.72 157.404 121.531 158.419C122.2 159.071 122.982 159.598 123.838 159.973C124.616 160.395 125.433 160.74 126.278 161.003C126.989 161.118 127.681 161.326 128.338 161.621C128.426 161.692 128.499 161.78 128.554 161.879C128.603 161.978 128.628 162.087 128.626 162.198C128.629 162.309 128.605 162.418 128.554 162.517C128.499 162.616 128.426 162.703 128.338 162.774C127.726 163.13 127.027 163.308 126.32 163.289V163.289Z" fill="#A92819"/>
<path d="M120.708 84.3475C120.337 85.6347 119.977 86.8395 119.678 87.8486C118.652 87.1653 117.582 86.5495 116.475 86.0054C116.856 84.8623 117.217 83.709 117.505 82.5557C118.604 83.0943 119.673 83.6925 120.708 84.3475Z" fill="#A92819"/>
<path d="M119.44 190.732H116.866V200H119.44V190.732Z" fill="#A92819"/>
<path d="M119.44 189.445H116.866V190.733H119.44V189.445Z" fill="#A92819"/>
<path d="M119.318 118.062L118.546 117.547C117.449 116.798 116.311 116.11 115.137 115.488C114.901 114.458 114.643 113.366 114.386 112.316C114.324 112.028 114.252 111.75 114.18 111.492C115.613 111.913 116.995 112.493 118.299 113.222C118.659 114.829 119.009 116.435 119.318 118.062Z" fill="#A92819"/>
<path d="M117.361 109.381C117.68 110.668 117.989 111.935 118.288 113.222C116.984 112.493 115.602 111.912 114.169 111.492C112.665 105.468 111.275 101.843 110.4 99.1348C111.777 99.2239 113.135 99.501 114.436 99.9586C115.147 102.142 115.868 104.469 117.361 109.381Z" fill="#A92819"/>
<path d="M116.024 81.8556C116.518 82.0615 117.054 82.2984 117.517 82.5558C117.188 83.7092 116.827 84.8625 116.488 86.0055C115.949 85.7378 115.395 85.5006 114.83 85.295C114.251 84.9692 113.653 84.6803 113.038 84.43C113.182 83.9666 113.336 83.4517 113.501 82.8648C113.666 82.2778 113.851 81.6805 114.037 81.0215C114.714 81.2619 115.378 81.5404 116.024 81.8556V81.8556Z" fill="#F4F4F4"/>
<path d="M116.446 86.0054C116.199 86.7572 115.941 87.4986 115.673 88.2503C115.045 89.4036 113.892 93.3991 109.588 93.8316C109.515 94.4818 109.515 95.138 109.588 95.7882C108.33 95.8253 107.08 95.998 105.86 96.303C105.746 95.2772 105.691 94.2458 105.695 93.2138C105.552 91.7264 105.611 90.2265 105.87 88.7549C106.148 88.065 106.787 88.7549 107.291 89.1359C107.665 89.5042 108.125 89.7732 108.63 89.9185C109.029 90.0429 109.456 90.0429 109.855 89.9185C110.337 89.7536 110.741 89.4161 110.988 88.9711C111.495 88.1433 111.926 87.2713 112.275 86.3659C112.512 85.748 112.718 85.1198 112.945 84.3784C113.559 84.6287 114.158 84.9176 114.736 85.2434C115.321 85.4639 115.891 85.7184 116.446 86.0054Z" fill="#F4F4F4"/>
<path d="M109.504 70.0958C109.834 70.0958 109.834 70.0958 109.834 70.3017V71.9288C109.834 72.0626 109.834 72.0626 108.917 72.0626H105.22C104.343 72.0593 103.466 72.1074 102.594 72.2068C101.771 72.2995 100.792 72.4642 100.257 72.5466C100.001 72.5904 99.7402 72.5904 99.4846 72.5466C99.3507 72.5466 99.2168 72.351 99.2168 71.7743C99.2528 71.0557 99.3353 70.3403 99.464 69.6324C99.5567 69.0866 99.5772 68.9939 100.061 68.9322C100.545 68.8704 101.451 68.8086 102.018 68.7056C102.584 68.6026 102.79 68.4379 103.202 67.6038C103.785 66.4252 104.234 65.1852 104.541 63.9069C104.817 62.6689 104.852 61.3893 104.644 60.138C104.486 59.1825 104.109 58.2766 103.542 57.4915C102.971 56.6628 102.198 55.9931 101.297 55.5453C100.294 55.1197 99.1994 54.9532 98.115 55.0613V54.9377C97.0117 54.9985 95.9449 55.3542 95.0257 55.9675C94.2349 56.5972 93.6357 57.4354 93.2957 58.3874C92.9917 59.2094 92.879 60.0898 92.9662 60.9618C93.0569 61.8487 93.2188 62.7268 93.4502 63.5877C93.7 64.5166 93.7974 65.48 93.7385 66.4401C93.7704 68.0605 93.307 69.6521 92.4101 71.002C91.353 71.8763 90.0234 72.3535 88.6515 72.351C87.7704 72.4316 86.9273 72.7482 86.211 73.2674C85.6626 73.7251 85.2971 74.3647 85.1812 75.0695C85.0566 75.8447 85.0671 76.6355 85.2121 77.4071C85.3747 78.2687 85.5949 79.1184 85.8711 79.9506C86.211 80.9804 86.7053 82.319 87.5291 84.2344C87.6835 84.6051 87.8586 84.9964 88.0336 85.4083C87.8002 85.2823 87.5795 85.134 87.3746 84.9655C85.6755 83.9358 84.2853 83.009 82.4317 81.7836C81.7662 79.9008 81.3575 77.9368 81.2166 75.9448C81.1788 75.0214 81.3295 74.0999 81.6594 73.2366C81.9957 72.3714 82.5036 71.5833 83.1526 70.9196C84.0142 70.0407 85.0734 69.3805 86.2419 68.9939C87.5908 68.5614 89.2076 68.4997 89.4753 68.3761C89.8461 67.0002 89.8461 65.5506 89.4753 64.1747H89.6298C88.8574 60.7456 88.7236 57.7799 91.1847 54.4125C92.3125 53.1513 93.7426 52.1975 95.3404 51.6409C96.9382 51.0842 98.6513 50.9431 100.319 51.2306C106.044 52.0235 108.958 57.4091 108.557 62.3726H155.442C158.346 62.3726 159.396 64.8131 159.262 67.1301C159.344 67.7512 159.295 68.3826 159.118 68.9836C158.932 69.5836 158.612 70.133 158.181 70.5901C157.752 71.0422 157.228 71.3938 156.647 71.6198C156.063 71.8446 155.438 71.9394 154.814 71.8979H136.7C136.346 72.5108 135.83 73.0135 135.207 73.3498C134.576 73.6888 133.861 73.839 133.147 73.7823H127.473C126.289 75.8418 123.9 75.708 122.819 75.708H119.235C118.731 78.0146 118.206 80.3007 117.485 82.5662C116.98 82.3087 116.455 82.0719 115.992 81.8659C115.322 81.5482 114.634 81.2697 113.932 81.0318C114.241 80.0021 114.56 78.859 114.838 77.8293C115.272 76.5564 115.488 75.2196 115.477 73.875C115.424 73.5647 115.312 73.2675 115.147 72.9997C114.985 72.7334 114.772 72.5023 114.519 72.3201C114.231 72.0729 114.22 72.0523 115.878 72.0317H122.541C124.199 72.0317 124.199 72.0317 124.199 71.7331V70.4665C124.199 70.1473 124.199 70.1061 125.743 70.0958H133.364V68.3555C133.364 68.0466 133.364 68.1084 137.04 68.1289C140.716 68.1495 148.079 68.1289 151.745 68.1289C155.411 68.1289 155.431 68.1289 155.431 67.7994V66.2445H107.97C107.97 66.2445 107.887 66.2445 107.887 66.9035V69.4573C107.887 70.0958 107.887 70.0958 108.217 70.0958H109.504Z" fill="#F4F4F4"/>
<path d="M115.54 73.8852C115.551 75.2298 115.335 76.5666 114.902 77.8395C114.624 78.8693 114.304 79.9917 113.995 81.042C112.913 80.6732 111.8 80.4009 110.669 80.2285C102.853 78.6633 93.5445 88.5387 88.0146 85.3773C87.8396 84.9654 87.6645 84.5741 87.5101 84.2034C86.6863 82.2881 86.192 80.9803 85.8522 79.9196C85.5842 79.0971 85.3709 78.2577 85.2137 77.407C85.039 76.6441 84.9972 75.8568 85.0901 75.0797C85.206 74.3749 85.5715 73.7353 86.1199 73.2777C86.8362 72.7584 87.6793 72.4418 88.5604 72.3612C89.9323 72.3638 91.2619 71.8866 92.319 71.0122C93.2159 69.6623 93.6794 68.0707 93.6474 66.4503C93.7377 65.4918 93.6716 64.525 93.4518 63.5876C93.2326 62.7154 93.0846 61.8269 93.009 60.9308C92.9218 60.0588 93.0345 59.1784 93.3385 58.3564C93.6785 57.4044 94.2777 56.5663 95.0685 55.9365C95.9877 55.3232 97.0545 54.9676 98.1578 54.9067V55.0303C99.2422 54.9222 100.336 55.0887 101.34 55.5143C102.241 55.9621 103.014 56.6319 103.585 57.4605C104.152 58.2456 104.529 59.1515 104.686 60.107C104.895 61.3583 104.86 62.6379 104.583 63.8759C104.276 65.1543 103.827 66.3942 103.245 67.5728C102.833 68.4069 102.637 68.6026 102.061 68.6746C101.484 68.7467 100.578 68.8394 100.104 68.9012C99.6303 68.963 99.5994 69.0556 99.5068 69.6014C99.3607 70.3355 99.2644 71.0786 99.2184 71.8257C99.2184 72.4024 99.3523 72.598 99.4862 72.598C99.7418 72.6418 100.003 72.6418 100.258 72.598C100.794 72.5156 101.772 72.3509 102.596 72.2582C103.468 72.1588 104.345 72.1107 105.222 72.114H108.898C109.815 72.114 109.815 72.114 109.815 71.9802V70.3016C109.815 70.0957 109.815 70.0957 109.485 70.0957H108.198C107.868 70.0957 107.868 70.0957 107.868 69.4572V66.9034C107.868 66.2444 107.951 66.2444 107.951 66.2444H155.474V67.7993C155.474 68.1289 155.474 68.1289 151.788 68.1289C148.101 68.1289 140.769 68.1289 137.083 68.1289C133.396 68.1289 133.406 68.0465 133.406 68.3554V70.0957H125.786C124.242 70.0957 124.242 70.1472 124.242 70.4664V71.7227C124.242 72.0214 124.242 72.0214 122.584 72.0214H115.921C114.263 72.0214 114.274 72.0214 114.562 72.3097C114.815 72.4919 115.028 72.723 115.19 72.9893C115.365 73.2618 115.484 73.5663 115.54 73.8852V73.8852Z" fill="#A92819"/>
<path d="M114.385 112.316C114.642 113.346 114.9 114.427 115.137 115.487C113.85 114.817 112.456 114.377 111.018 114.19C110.945 113.912 110.884 113.654 110.812 113.387C110.585 112.501 110.348 111.657 110.111 110.854C111.477 110.878 112.832 111.093 114.138 111.492C114.251 111.749 114.323 111.986 114.385 112.316Z" fill="#F4F4F4"/>
<path d="M114.046 96.2511C113.831 96.4105 113.607 96.5583 113.377 96.6939C113.778 97.8988 114.087 98.8873 114.406 99.9068C113.105 99.4493 111.747 99.1721 110.37 99.083C110.02 98.0081 109.762 96.9059 109.597 95.7877C111.094 95.7431 112.59 95.8989 114.046 96.2511V96.2511Z" fill="#A92819"/>
<path d="M114.047 81.0217C113.861 81.6807 113.676 82.2986 113.511 82.865C113.346 83.4313 113.192 83.9668 113.048 84.4302C103.862 80.7539 97.5395 89.7232 89.734 89.1362C89.2294 87.9417 88.6424 86.6236 88.1069 85.4085C93.5956 88.4978 102.905 78.6429 110.762 80.2597C111.877 80.4176 112.976 80.6726 114.047 81.0217V81.0217Z" fill="#A92819"/>
<path d="M113.016 84.4297C112.789 85.1711 112.584 85.7993 112.347 86.4171C111.997 87.3225 111.566 88.1945 111.059 89.0224C110.812 89.4674 110.408 89.8049 109.927 89.9698C109.528 90.0941 109.1 90.0941 108.701 89.9698C108.197 89.8245 107.737 89.5555 107.363 89.1872C106.858 88.8062 106.22 88.1574 105.942 88.8062C105.683 90.2778 105.624 91.7776 105.766 93.265C105.763 94.2971 105.818 95.3285 105.931 96.3543C103.027 97.1337 100.311 98.4966 97.9506 100.36C96.2618 101.709 93.8316 101.699 91.2366 101.071C91.2366 101.009 91.2366 100.937 91.3087 100.885C91.6578 99.8127 91.8553 98.6966 91.8956 97.5694C91.9117 96.4649 91.7977 95.3623 91.5558 94.2845C91.2262 92.9611 90.7817 91.669 90.2274 90.4229C90.073 90.0213 89.8773 89.5888 89.6816 89.1254C97.4872 89.7226 103.81 80.7534 113.016 84.4297Z" fill="#A92819"/>
<path d="M112.469 190.732H109.895V200H112.469V190.732Z" fill="#A92819"/>
<path d="M112.469 189.445H109.895V190.733H112.469V189.445Z" fill="#A92819"/>
<path d="M110.855 113.387C110.927 113.654 110.989 113.912 111.061 114.19C109.502 113.99 107.918 114.244 106.499 114.921C104.316 115.559 102.555 116.105 101.01 116.589C100.734 115.662 100.39 114.757 99.9807 113.881C99.9029 113.744 99.8096 113.616 99.7026 113.5C103.235 112.316 106.375 110.812 110.186 110.853C110.392 111.657 110.628 112.501 110.855 113.387Z" fill="#A92819"/>
<path d="M110.412 99.0832C111.287 101.843 112.677 105.468 114.181 111.44C112.875 111.042 111.519 110.827 110.154 110.802C109.784 109.566 109.403 108.403 109.032 107.218C108.435 105.262 107.817 103.171 107.302 101.616C107.044 100.916 106.808 100.216 106.602 99.4951C107.837 99.1336 109.127 98.9941 110.412 99.0832V99.0832Z" fill="#F4F4F4"/>
<path d="M110.41 99.0833C109.123 99.0109 107.833 99.1678 106.6 99.5467C106.405 98.9289 106.24 98.311 106.085 97.6828C106.024 97.2298 105.952 96.7664 105.91 96.303C107.131 95.9979 108.381 95.8253 109.638 95.7881C109.803 96.9062 110.061 98.0085 110.41 99.0833V99.0833Z" fill="#F4F4F4"/>
<path d="M110.155 110.853C106.345 110.853 103.204 112.316 99.6717 113.5C99.6345 113.457 99.5886 113.423 99.537 113.4C99.4855 113.377 99.4295 113.365 99.373 113.366C99.2533 113.373 99.1369 113.409 99.0332 113.469C98.9312 113.528 98.8434 113.609 98.7758 113.706C98.7721 113.74 98.7721 113.774 98.7758 113.809C96.4855 114.571 94.0842 114.947 91.6704 114.921C91.007 114.868 90.347 114.778 89.6933 114.653C89.1166 114.56 88.5503 114.437 87.9839 114.293C88.1455 112.22 88.417 110.158 88.7974 108.114C89.0749 106.812 89.4571 105.534 89.9404 104.294C98.1785 106.209 101.268 101.132 106.653 99.5156C106.859 100.236 107.096 100.937 107.354 101.637C107.869 103.192 108.486 105.282 109.084 107.239C109.403 108.454 109.784 109.618 110.155 110.853Z" fill="#A92819"/>
<path d="M109.588 93.832C113.893 93.3789 115.046 89.4041 115.674 88.2507C115.942 87.499 116.199 86.7576 116.446 86.0059C117.553 86.55 118.623 87.1658 119.649 87.8491C119.381 88.6832 119.144 89.3835 118.938 89.9087C118.034 92.4945 116.337 94.7289 114.088 96.2932V96.2932C112.636 95.9419 111.143 95.786 109.65 95.8298C109.554 95.1683 109.533 94.4982 109.588 93.832V93.832Z" fill="#A92819"/>
<path d="M106.087 97.6829C106.241 98.3111 106.406 98.9289 106.602 99.5468C101.268 101.164 98.1679 106.24 89.8887 104.325C89.8887 104.263 89.8887 104.212 89.9608 104.15C90.3933 103.048 90.8566 102.029 91.2171 101.061C93.7606 101.689 96.2423 101.699 97.9311 100.35C100.292 98.4866 103.007 97.1236 105.912 96.3442C105.953 96.7664 106.025 97.2298 106.087 97.6829Z" fill="#A92819"/>
<path d="M105.51 190.732H102.936V200H105.51V190.732Z" fill="#A92819"/>
<path d="M105.51 189.445H102.936V190.733H105.51V189.445Z" fill="#A92819"/>
<path d="M97.7153 116.332C97.9183 115.44 98.2662 114.588 98.7451 113.809L99.6925 113.5C99.7994 113.616 99.8927 113.744 99.9705 113.881C100.38 114.757 100.724 115.662 101 116.589C99.6719 117.001 98.4876 117.362 97.3137 117.619L97.7153 116.332Z" fill="#F4F4F4"/>
<path d="M99.3715 113.366C99.428 113.366 99.4839 113.377 99.5354 113.4C99.587 113.424 99.6329 113.458 99.6701 113.5L98.7227 113.809C98.7191 113.775 98.7191 113.74 98.7227 113.706C98.7903 113.609 98.8782 113.529 98.9802 113.469C99.0991 113.401 99.2342 113.365 99.3715 113.366Z" fill="#EFE7DC"/>
<path d="M98.7227 113.809C98.2438 114.588 97.8959 115.44 97.6929 116.332L97.3016 117.671C95.7288 118.083 94.1286 118.382 92.5132 118.567C91.3595 118.517 90.2104 118.39 89.0738 118.186C88.5727 118.096 88.0681 117.993 87.5601 117.877C87.6733 116.62 87.7866 115.405 87.8999 114.345C87.895 114.328 87.895 114.31 87.8999 114.293C88.4662 114.437 89.0326 114.561 89.6093 114.653C90.2629 114.779 90.923 114.868 91.5864 114.921C94.0105 114.951 96.4225 114.575 98.7227 113.809V113.809Z" fill="#A92819"/>
<path d="M98.539 190.732H95.9646V200H98.539V190.732Z" fill="#A92819"/>
<path d="M98.539 189.445H95.9646V190.733H98.539V189.445Z" fill="#A92819"/>
<path d="M94.3579 32.3962L92.0822 33.5805C91.9895 33.4157 82.8143 16.5173 43.9512 2.41994L44.8265 0C84.7503 14.499 93.9872 31.6651 94.3579 32.3962Z" fill="#4C8BCA"/>
<path d="M91.5768 190.732H89.0024V200H91.5768V190.732Z" fill="#A92819"/>
<path d="M91.5768 189.445H89.0024V190.733H91.5768V189.445Z" fill="#A92819"/>
<path d="M91.2147 101.019C90.8543 102.049 90.3909 103.079 89.9584 104.109C89.9584 104.17 89.9584 104.222 89.8863 104.284C88.6435 104.002 87.4247 103.623 86.241 103.151C86.7764 101.72 87.2707 100.741 87.5899 99.8042C88.765 100.302 89.9769 100.708 91.2147 101.019V101.019Z" fill="#F4F4F4"/>
<path d="M89.8883 104.325C89.405 105.566 89.0227 106.844 88.7453 108.146C88.3649 110.189 88.0933 112.252 87.9317 114.324C87.0239 114.115 86.1297 113.85 85.2544 113.531C84.9145 113.408 84.5644 113.264 84.2246 113.109C84.3997 111.626 84.5747 110.226 84.7498 108.918C85.0583 106.952 85.5584 105.02 86.2429 103.151C87.4254 103.638 88.6443 104.03 89.8883 104.325Z" fill="#F4F4F4"/>
<path d="M88.0538 85.4085C88.5893 86.6236 89.1762 87.9417 89.6808 89.1362C88.6617 89.0596 87.6609 88.8233 86.7151 88.4359L84.6556 87.2517C83.7906 85.2849 83.0389 83.5137 82.4519 81.7837C84.3467 83.0091 85.6957 83.9256 87.3948 84.9657C87.5997 85.1341 87.8204 85.2824 88.0538 85.4085V85.4085Z" fill="#F4F4F4"/>
<path d="M87.2718 93.3685C88.0557 95.1122 88.2579 97.0618 87.8484 98.9292C87.7936 99.227 87.7144 99.5198 87.6116 99.8045C86.242 99.2279 84.9651 98.5688 83.9044 97.9922V97.8686C84.2134 96.7359 83.7294 95.3869 82.4937 92.4212C81.3197 89.7644 79.8884 86.8296 78.8071 83.73L79.4765 84.1728C80.8872 85.1202 82.9468 86.3044 84.6253 87.2621C85.4594 89.095 86.3656 91.1031 87.2718 93.3685Z" fill="#A92819"/>
<path d="M87.9299 114.293C87.925 114.31 87.925 114.328 87.9299 114.345C87.8166 115.374 87.7034 116.621 87.5901 117.877C86.4064 117.606 85.2405 117.262 84.0992 116.847L83.8521 116.744C83.9756 115.488 84.0992 114.262 84.2228 113.078C84.5729 113.233 84.923 113.377 85.2525 113.5C86.1279 113.819 87.022 114.084 87.9299 114.293V114.293Z" fill="#F4F4F4"/>
<path d="M87.2731 93.3682C86.3669 91.1028 85.4607 89.0947 84.6575 87.2515L86.717 88.4357C87.6628 88.8231 88.6635 89.0594 89.6827 89.1359C89.8784 89.5993 90.074 90.0318 90.2285 90.4334C90.7828 91.6795 91.2273 92.9716 91.5569 94.295C91.7979 95.3695 91.912 96.4686 91.8967 97.5697C91.8441 98.677 91.6396 99.7719 91.2891 100.824C91.2891 100.824 91.2891 100.947 91.217 101.009C89.9862 100.697 88.7813 100.291 87.6129 99.7939C87.7157 99.5092 87.7949 99.2164 87.8497 98.9186C88.257 97.0545 88.0548 95.1088 87.2731 93.3682V93.3682Z" fill="#F4F4F4"/>
<path d="M87.6121 99.8041C87.3032 100.741 86.7986 101.719 86.2631 103.151L85.6041 102.883C84.669 102.302 83.7031 101.773 82.7104 101.297C83.1977 100.23 83.5972 99.1241 83.905 97.9917C84.9656 98.5993 86.2425 99.2274 87.6121 99.8041Z" fill="#A92819"/>
<path d="M85.6029 102.883L86.2619 103.151C85.5681 105.012 85.0577 106.937 84.7379 108.897C84.5628 110.205 84.3878 111.605 84.2127 113.088C82.8917 112.501 81.6179 111.812 80.4026 111.029C80.5365 109.896 80.6806 108.784 80.8248 107.723C81.2329 105.543 81.8644 103.41 82.7092 101.359C83.7005 101.815 84.6664 102.324 85.6029 102.883V102.883Z" fill="#A92819"/>
<path d="M84.6057 190.732H82.0312V200H84.6057V190.732Z" fill="#A92819"/>
<path d="M84.6057 189.445H82.0312V190.733H84.6057V189.445Z" fill="#A92819"/>
<path d="M84.1842 113.078C84.0606 114.262 83.9371 115.487 83.8135 116.744C82.4757 116.229 81.1839 115.602 79.9519 114.87C80.0858 113.541 80.2299 112.233 80.3741 110.967C81.5878 111.768 82.8616 112.473 84.1842 113.078Z" fill="#A92819"/>
<path d="M84.656 87.2722C82.9775 86.3248 80.918 85.1406 79.5072 84.1829L78.8379 83.7401C78.2254 82.0262 77.7637 80.262 77.458 78.4678C78.8276 79.3637 80.1766 80.2699 81.577 81.1863L82.5038 81.7939C83.0393 83.5136 83.791 85.2848 84.656 87.2722Z" fill="#A92819"/>
<path d="M82.5649 41.6538L81.0923 42.6836L80.4848 43.1367C80.1964 42.7557 68.8897 28.0816 36.2051 26.3722L36.3389 23.8081C70.6197 25.6102 82.1221 40.9948 82.5649 41.6538Z" fill="#4C8BCA"/>
<path d="M77.6435 190.732H75.0691V200H77.6435V190.732Z" fill="#A92819"/>
<path d="M77.6435 189.445H75.0691V190.733H77.6435V189.445Z" fill="#A92819"/>
<path d="M78.0051 161.065C78.5184 160.809 78.9794 160.46 79.3644 160.035C79.906 159.351 80.3753 158.612 80.7649 157.831C81.2339 156.916 81.5273 155.92 81.6299 154.897C81.8358 153.414 81.98 151.107 82.1653 148.327C82.3099 145.482 82.5986 142.647 83.0303 139.831C83.3732 137.912 83.9832 136.051 84.8427 134.301C85.6349 132.917 86.2705 131.45 86.7375 129.925C87.0342 127.913 87.1822 125.883 87.1803 123.849C87.2627 122.109 87.4377 119.967 87.6231 117.928C88.1311 118.038 88.6357 118.141 89.1368 118.237C90.2734 118.441 91.4225 118.569 92.5762 118.618C94.1916 118.434 95.7918 118.134 97.3646 117.722C96.8188 119.617 96.0877 122.15 95.3772 124.302C94.4813 126.99 93.709 129.091 93.0396 130.924C92.3703 132.757 92.1025 134.363 91.4847 136.495C90.8668 138.626 90.249 141.448 89.3119 144.249C88.3748 147.05 87.4686 149.882 86.8302 152.26C86.2958 154.161 85.9508 156.11 85.8004 158.078V161.363C85.7691 161.914 85.6029 162.448 85.3164 162.918C85.1619 163.227 85.0899 163.227 85.0899 163.227C84.6245 163.279 84.1548 163.279 83.6894 163.227H76.9754C76.79 163.227 76.79 163.227 76.79 163.104C76.7591 162.882 76.7591 162.656 76.79 162.434C76.7899 162.135 76.8835 161.843 77.0577 161.6C77.3316 161.356 77.6546 161.173 78.0051 161.065V161.065Z" fill="#A92819"/>
<path d="M70.6723 190.732H68.0979V200H70.6723V190.732Z" fill="#A92819"/>
<path d="M70.6723 189.445H68.0979V190.733H70.6723V189.445Z" fill="#A92819"/>
<path d="M64.2873 190.732H61.7129V200H64.2873V190.732Z" fill="#A92819"/>
<path d="M64.2873 189.445H61.7129V190.733H64.2873V189.445Z" fill="#A92819"/>
<path d="M61.0441 126.135H2.19336V128.71H61.0441V126.135Z" fill="#179E6C"/>
<path d="M60.6325 134.013H1.78174V136.587H60.6325V134.013Z" fill="#A92819"/>
<path d="M58.7785 158.5C59.253 158.5 59.7169 158.641 60.1115 158.905C60.5061 159.169 60.8136 159.543 60.9952 159.982C61.1768 160.42 61.2243 160.902 61.1317 161.368C61.0392 161.833 60.8106 162.261 60.4751 162.596C60.1395 162.932 59.712 163.16 59.2466 163.253C58.7812 163.346 58.2987 163.298 57.8603 163.117C57.4219 162.935 57.0472 162.627 56.7835 162.233C56.5199 161.838 56.3792 161.374 56.3792 160.9C56.3819 160.264 56.6355 159.656 57.0849 159.206C57.5343 158.757 58.143 158.503 58.7785 158.5V158.5Z" fill="#2A3277"/>
<path d="M60.5395 142.56H1.68872V145.134H60.5395V142.56Z" fill="#179E6C"/>
<path d="M57.3281 190.732H54.7537V200H57.3281V190.732Z" fill="#A92819"/>
<path d="M57.3281 189.445H54.7537V190.733H57.3281V189.445Z" fill="#A92819"/>
<path d="M50.488 152.786C50.9651 152.775 51.4343 152.908 51.8358 153.166C52.2373 153.423 52.5529 153.795 52.7421 154.233C52.9313 154.671 52.9856 155.156 52.8981 155.625C52.8106 156.094 52.5852 156.526 52.2508 156.866C51.9163 157.207 51.488 157.439 51.0205 157.535C50.5531 157.631 50.0677 157.585 49.6264 157.403C49.1852 157.222 48.8081 156.913 48.5433 156.516C48.2786 156.119 48.1382 155.652 48.1402 155.175C48.1401 154.548 48.3861 153.947 48.8253 153.5C49.2644 153.053 49.8616 152.797 50.488 152.786V152.786Z" fill="#2A3277"/>
<path d="M50.488 164.02C50.9646 164.01 51.4334 164.142 51.8347 164.399C52.236 164.657 52.5515 165.028 52.7411 165.465C52.9306 165.902 52.9855 166.386 52.8988 166.855C52.8121 167.324 52.5878 167.756 52.2544 168.097C51.921 168.438 51.4936 168.671 51.0268 168.768C50.56 168.865 50.075 168.821 49.6336 168.641C49.1922 168.461 48.8143 168.153 48.5483 167.758C48.2824 167.362 48.1402 166.896 48.1401 166.419C48.14 165.792 48.3857 165.189 48.8246 164.741C49.2635 164.292 49.8606 164.034 50.488 164.02V164.02Z" fill="#2A3277"/>
<path d="M50.3569 190.732H47.7825V200H50.3569V190.732Z" fill="#A92819"/>
<path d="M50.3569 189.445H47.7825V190.733H50.3569V189.445Z" fill="#A92819"/>
<path d="M41.9638 158.5C42.4383 158.5 42.9022 158.641 43.2968 158.905C43.6914 159.169 43.9989 159.543 44.1805 159.982C44.3621 160.42 44.4096 160.902 44.317 161.368C44.2245 161.833 43.9959 162.261 43.6604 162.596C43.3248 162.932 42.8973 163.16 42.4319 163.253C41.9665 163.346 41.484 163.298 41.0456 163.117C40.6072 162.935 40.2325 162.627 39.9688 162.233C39.7052 161.838 39.5645 161.374 39.5645 160.9C39.5645 160.263 39.8172 159.653 40.2672 159.203C40.7172 158.753 41.3275 158.5 41.9638 158.5V158.5Z" fill="#2A3277"/>
<path d="M43.3828 190.732H40.8083V200H43.3828V190.732Z" fill="#A92819"/>
<path d="M43.3828 189.445H40.8083V190.733H43.3828V189.445Z" fill="#A92819"/>
<path d="M40.5822 68.2009C40.6775 68.6638 40.6308 69.1448 40.4483 69.5808C40.2665 70.0128 39.9616 70.3818 39.5716 70.6418C39.1815 70.9018 38.7237 71.0413 38.2549 71.043C37.6262 71.0439 37.0228 70.7958 36.5764 70.3531C36.1331 69.9029 35.8851 69.2961 35.8865 68.6643C35.8876 68.3142 35.9661 67.9686 36.1162 67.6523C36.2663 67.336 36.4844 67.0567 36.7549 66.8344C37.0254 66.6121 37.3416 66.4523 37.681 66.3663C38.0204 66.2803 38.3746 66.2703 38.7183 66.337C39.1795 66.4322 39.6022 66.6614 39.9334 66.9961C40.2645 67.3243 40.4904 67.7438 40.5822 68.2009Z" fill="#A92819"/>
<path d="M36.7218 107.744C36.6196 107.976 36.4644 108.18 36.2687 108.341C35.9409 108.625 35.5971 108.89 35.2389 109.134C34.8759 109.378 34.4975 109.598 34.1062 109.793C31.9873 110.688 29.6365 110.875 27.4025 110.329C25.0386 109.907 22.8727 108.738 21.2239 106.992C19.7914 105.13 18.9486 102.881 18.804 100.536C18.6784 97.9402 19.2812 95.3613 20.5443 93.0905C21.7547 90.8329 23.4412 88.8653 25.4871 87.3238C27.5888 85.6687 30.1243 84.6566 32.7881 84.4096C46.35 82.8547 58.6763 93.2758 69.4064 102.327C72.9082 105.407 76.5799 108.288 80.4042 110.957C80.26 112.223 80.1159 113.531 79.982 114.86C75.9556 112.491 71.6512 108.887 67.11 105.025C56.9154 96.4475 45.2173 86.5927 33.1794 87.952H33.0867C31.1137 88.1602 29.2415 88.9284 27.6908 90.1659C26.0574 91.4165 24.7122 93.0039 23.7468 94.8205C22.7869 96.508 22.3196 98.431 22.3978 100.371C22.5244 101.965 23.0952 103.492 24.0454 104.778C25.1901 105.829 26.6263 106.507 28.1645 106.724C28.8909 106.887 29.6341 106.963 30.3785 106.951C29.063 105.778 28.0853 104.274 27.5466 102.595C27.3392 101.617 27.3392 100.607 27.5466 99.6294C27.9117 98.0188 28.7942 96.572 30.0592 95.5104C31.3428 94.4817 32.8541 93.7755 34.4666 93.4509C35.9995 93.111 37.5882 93.111 39.1211 93.4509L39.7493 93.6053C42.2461 94.5088 44.3337 96.2819 45.6292 98.5997C47.0997 100.899 47.6512 103.667 47.1739 106.354C47.1739 106.58 47.0709 106.807 47.0091 107.023C46.546 108.504 45.8881 109.917 45.0525 111.225C44.2419 112.501 43.2498 113.653 42.1074 114.643C38.2882 117.689 33.5221 119.3 28.6382 119.195C25.5395 119.162 22.479 118.507 19.6381 117.269C15.9541 115.772 12.8203 113.178 10.6628 109.837C8.50538 106.497 7.42884 102.573 7.57958 98.5997C7.60036 96.1398 8.04269 93.7017 8.88737 91.3914C9.46661 89.8041 10.1977 88.2764 11.0705 86.8295V74.4724C10.3264 75.4626 9.63885 76.494 9.01095 77.5617C8.77509 77.9442 8.40964 78.2293 7.98119 78.3649C7.5181 78.4864 7.02573 78.4198 6.6116 78.1795C6.40358 78.0629 6.2214 77.9053 6.07613 77.7161C5.93286 77.5291 5.82788 77.3157 5.7672 77.088C5.72604 76.8529 5.72604 76.6125 5.7672 76.3775C5.77816 76.1469 5.83048 75.9202 5.92167 75.7081C7.92281 72.1131 10.6452 68.9704 13.9182 66.4772C17.1911 63.9839 20.944 62.1939 24.9413 61.2194C32.2938 59.407 41.4175 59.8498 52.405 63.8041L52.6316 63.9071C61.1494 68.332 69.436 73.1885 77.4591 78.4576C77.7648 80.2518 78.2265 82.016 78.839 83.7299C75.6879 81.6086 71.7027 78.9622 66.4818 75.8111V86.1087C72.2382 89.754 77.0266 93.2552 80.8985 96.1077L81.0015 96.19C81.2177 96.3548 82.3093 97.0756 83.8539 97.9406C83.5461 99.0731 83.1466 100.179 82.6594 101.246C81.3345 100.635 80.0664 99.9081 78.8699 99.0734H78.7566C68.3567 91.0819 57.1051 84.2647 45.207 78.7459C42.1033 77.6144 38.8306 77.0155 35.5273 76.9747C30.2407 76.9311 25.0756 78.5603 20.7708 81.6292C16.912 84.3125 13.9542 88.0994 12.2856 92.4932C11.5813 94.4529 11.2123 96.5173 11.194 98.5997C11.0431 101.861 11.9068 105.088 13.6661 107.838C15.4255 110.587 17.994 112.724 21.0179 113.953C23.4096 114.964 25.9801 115.482 28.5764 115.477C32.6305 115.583 36.5926 114.26 39.7699 111.739C40.6229 110.99 41.365 110.123 41.9736 109.165C42.6354 108.137 43.1583 107.025 43.5285 105.859L43.6109 105.489C43.8495 103.718 43.483 101.919 42.5709 100.382C41.6588 98.8458 40.2545 97.6625 38.5857 97.0241H38.2561C37.2385 96.8009 36.1845 96.8009 35.1669 97.0241C34.1418 97.228 33.1851 97.6886 32.3865 98.3628C31.733 98.8898 31.2641 99.6111 31.0478 100.422C30.955 100.898 30.955 101.388 31.0478 101.864C31.3581 102.816 31.9289 103.661 32.6954 104.305C33.3599 104.861 34.1969 105.171 35.0639 105.18C35.3014 105.183 35.5358 105.234 35.7534 105.33C35.9709 105.425 36.1671 105.563 36.3305 105.736C36.6566 106.085 36.8371 106.545 36.8351 107.023C36.8496 107.269 36.811 107.515 36.7218 107.744V107.744ZM62.8674 83.8947V73.7516L59.4074 71.7538V81.8764C60.5813 82.5457 61.7347 83.2048 62.8674 83.8947ZM55.7723 79.8786V69.684L52.405 67.8613V78.1589C53.5584 78.7253 54.6705 79.302 55.7723 79.8786ZM48.77 76.3466V66.3888C42.2069 64.0708 35.1905 63.33 28.2881 64.2263V74.2356C30.6455 73.6486 33.067 73.3581 35.4964 73.3706C39.2395 73.4027 42.9492 74.0785 46.4633 75.3683H46.5972L48.77 76.3466ZM24.6736 75.4198V65.0398C23.5466 65.3604 22.4423 65.7561 21.3681 66.224V76.9747C22.4315 76.3784 23.5361 75.8587 24.6736 75.4198V75.4198ZM17.8257 79.3638V68.1394C16.7407 68.8276 15.7081 69.5951 14.7364 70.4357V82.1235C15.6941 81.1259 16.7269 80.2033 17.8257 79.3638V79.3638Z" fill="#0F7657"/>
<path d="M36.4326 190.732H33.8582V200H36.4326V190.732Z" fill="#A92819"/>
<path d="M36.4326 189.445H33.8582V190.733H36.4326V189.445Z" fill="#A92819"/>
<path d="M53.2901 47.4618C35.5164 41.7981 18.0517 44.0224 1.33869 54.1758L0 51.9721C21.6867 38.8736 41.4066 40.9331 54.1345 45.0521C62.3878 47.6354 70.0755 51.7624 76.7892 57.2136L75.0901 59.1392C68.6025 53.9406 61.2124 49.982 53.2901 47.4618V47.4618Z" fill="#4C8BCA"/>
<path d="M30.1518 1.60645C30.955 11.3068 28.7719 18.5666 23.654 23.2314C18.5361 27.8962 11.6984 28.7818 7.07483 28.7818C5.35081 28.7906 3.62891 28.6598 1.92603 28.3905L2.39972 25.8573C2.51299 25.8573 14.5509 27.9889 21.9652 21.3161C26.424 17.2485 28.3291 10.6683 27.5465 1.8021L30.1518 1.60645Z" fill="#2A3277"/>
<path d="M29.4614 190.732H26.887V200H29.4614V190.732Z" fill="#A92819"/>
<path d="M29.4614 189.445H26.887V190.733H29.4614V189.445Z" fill="#A92819"/>
<path d="M21.3676 158.604C21.843 158.602 22.3083 158.741 22.7044 159.004C23.1006 159.266 23.4097 159.641 23.5926 160.08C23.7755 160.519 23.8238 161.002 23.7316 161.468C23.6393 161.935 23.4106 162.363 23.0744 162.699C22.7383 163.036 22.3098 163.264 21.8434 163.357C21.377 163.449 20.8938 163.4 20.4549 163.218C20.0161 163.035 19.6415 162.726 19.3786 162.329C19.1157 161.933 18.9765 161.468 18.9785 160.993C18.9785 160.359 19.2302 159.751 19.6783 159.303C20.1263 158.855 20.734 158.604 21.3676 158.604V158.604Z" fill="#2A3277"/>
<path d="M22.4904 190.732H19.916V200H22.4904V190.732Z" fill="#A92819"/>
<path d="M22.4904 189.445H19.916V190.733H22.4904V189.445Z" fill="#A92819"/>
<path d="M15.528 190.732H12.9536V200H15.528V190.732Z" fill="#A92819"/>
<path d="M15.528 189.445H12.9536V190.733H15.528V189.445Z" fill="#A92819"/>
<path d="M13.1283 152.878C13.6041 152.88 14.0686 153.024 14.4626 153.29C14.8567 153.557 15.1625 153.935 15.3412 154.376C15.52 154.817 15.5636 155.301 15.4664 155.767C15.3693 156.233 15.1359 156.659 14.7958 156.992C14.4557 157.325 14.0243 157.549 13.5565 157.636C13.0887 157.723 12.6056 157.669 12.1685 157.481C11.7315 157.293 11.3603 156.979 11.1021 156.579C10.8439 156.179 10.7105 155.712 10.7186 155.236C10.7294 154.605 10.9884 154.004 11.4394 153.562C11.8905 153.121 12.4972 152.875 13.1283 152.878V152.878Z" fill="#2A3277"/>
<path d="M13.1283 164.123C13.6006 164.125 14.0618 164.267 14.4541 164.53C14.8463 164.793 15.1522 165.166 15.3334 165.602C15.5146 166.038 15.563 166.518 15.4725 166.982C15.3821 167.445 15.1568 167.872 14.825 168.208C14.4931 168.544 14.0694 168.775 13.607 168.871C13.1446 168.968 12.6641 168.925 12.2256 168.75C11.7871 168.574 11.4102 168.273 11.1421 167.884C10.8741 167.495 10.7267 167.036 10.7186 166.564C10.7131 166.244 10.7715 165.927 10.8902 165.63C11.009 165.334 11.1858 165.064 11.4102 164.837C11.6347 164.609 11.9023 164.429 12.1973 164.307C12.4923 164.184 12.8088 164.122 13.1283 164.123V164.123Z" fill="#2A3277"/>
<path d="M10.5875 8.0425C11.0483 8.04251 11.4986 8.17926 11.8816 8.43544C12.2645 8.69162 12.5628 9.0557 12.7386 9.48155C12.9144 9.9074 12.9599 10.3759 12.8693 10.8276C12.7787 11.2793 12.556 11.694 12.2295 12.019C11.903 12.3441 11.4873 12.5649 11.0352 12.6536C10.5831 12.7422 10.1148 12.6946 9.68977 12.5169C9.26471 12.3392 8.90195 12.0393 8.64747 11.6552C8.39299 11.2711 8.25824 10.8202 8.26028 10.3595C8.26027 10.0543 8.32054 9.7522 8.43762 9.47042C8.55471 9.18864 8.72629 8.93276 8.94253 8.71747C9.15878 8.50219 9.41541 8.33174 9.69771 8.21591C9.98 8.10008 10.2824 8.04115 10.5875 8.0425V8.0425Z" fill="#2A3277"/>
<path d="M8.5661 190.732H5.9917V200H8.5661V190.732Z" fill="#A92819"/>
<path d="M8.5661 189.445H5.9917V190.733H8.5661V189.445Z" fill="#A92819"/>
<path d="M4.54043 158.604C5.01585 158.602 5.48115 158.741 5.8773 159.004C6.27344 159.266 6.58256 159.641 6.76544 160.08C6.94831 160.519 6.9967 161.002 6.90445 161.468C6.8122 161.935 6.58347 162.363 6.2473 162.699C5.91113 163.036 5.48266 163.264 5.01628 163.357C4.54989 163.449 4.06662 163.4 3.62778 163.218C3.18894 163.035 2.81432 162.726 2.55146 162.329C2.2886 161.933 2.14935 161.468 2.15139 160.993C2.1541 160.36 2.40667 159.754 2.85412 159.306C3.30156 158.859 3.90765 158.606 4.54043 158.604V158.604Z" fill="#2A3277"/>
<path d="M77.6442 189.445H75.0698V190.732H70.6727V189.445H68.0983V190.732H64.2882V189.445H61.7138V190.732H57.327V189.445H54.7526V190.732H50.3555V189.445H47.7811V190.732H43.384V189.445H40.8096V190.732H36.4332V189.445H33.8588V190.732H29.4617V189.445H26.8873V190.732H22.4902V189.445H19.9158V190.732H15.5187V189.445H12.9443V190.732H8.56786V189.445H5.99346V190.732H1.78174V188.158H192.73V190.732H188.477V189.445H185.903V190.732H181.506V189.445H178.931V190.732H174.545V189.445H171.96V190.732H167.583V189.445H165.009V190.732H160.612V189.445H158.038V190.732H153.64V189.445H151.066V190.732H146.679V189.445H144.105V190.732H139.708V189.445H137.133V190.732H132.747V189.445H130.172V190.732H126.403V189.445H123.829V190.732H119.432V189.445H116.857V190.732H112.471V189.445H109.896V190.732H105.509V189.445H102.935V190.732H98.538V189.445H95.9636V190.732H91.5768V189.445H89.0024V190.732H84.6053V189.445H82.0309V190.732H77.6442V189.445Z" fill="#A92819"/>
<path d="M17.6694 10.3598C17.6694 8.95856 17.2539 7.58879 16.4754 6.42371C15.697 5.25863 14.5905 4.35056 13.2959 3.81433C12.0013 3.27811 10.5768 3.1378 9.20253 3.41117C7.82822 3.68454 6.56584 4.3593 5.57502 5.35012C4.5842 6.34094 3.90944 7.60332 3.63607 8.97762C3.36271 10.3519 3.50301 11.7764 4.03924 13.071C4.57547 14.3656 5.48354 15.4721 6.64862 16.2505C7.8137 17.029 9.18346 17.4445 10.5847 17.4445C11.5151 17.4445 12.4363 17.2613 13.2959 16.9052C14.1555 16.5492 14.9365 16.0273 15.5944 15.3695C16.2522 14.7116 16.7741 13.9306 17.1301 13.071C17.4862 12.2114 17.6694 11.2902 17.6694 10.3598ZM10.5847 0.710938C12.4955 0.710939 14.3634 1.2777 15.9521 2.33952C17.5408 3.40133 18.7788 4.91049 19.5096 6.67607C20.2403 8.44165 20.431 10.3843 20.0575 12.2583C19.6839 14.1323 18.763 15.8533 17.4111 17.2038C16.0592 18.5542 14.3371 19.4734 12.4628 19.8449C10.5884 20.2164 8.64595 20.0237 6.88115 19.291C5.11636 18.5584 3.60852 17.3187 2.54839 15.7289C1.48827 14.1391 0.923505 12.2706 0.925543 10.3598C0.928272 7.79981 1.94713 5.34561 3.75828 3.5364C5.56943 1.72718 8.02471 0.710936 10.5847 0.710938V0.710938Z" fill="#179E6C"/>
</svg>
