<svg width="186" height="200" viewBox="0 0 186 200" fill="none" xmlns="http://www.w3.org/2000/svg">
<path d="M80.655 140.349C80.1575 139.695 79.5119 138.777 78.7604 137.901C77.902 136.865 76.9251 135.933 75.8496 135.124C74.2033 133.9 72.4659 132.803 70.6525 131.842C68.7167 130.847 66.7313 129.952 64.7039 129.16C62.7669 128.379 60.9357 127.704 59.6762 127.049C58.7053 126.624 57.8385 125.994 57.1358 125.202C56.7333 124.642 56.4059 124.031 56.162 123.386C55.8418 122.606 55.4258 121.869 54.9236 121.191C54.5093 120.656 53.9344 120.268 53.283 120.082C52.7196 119.914 52.114 119.955 51.5789 120.199C51.0492 120.46 50.6267 120.897 50.3828 121.434C50.1076 122.004 50.0229 122.679 49.7371 123.323C49.3423 124.181 48.7155 124.912 47.9271 125.434C46.8687 126.152 45.3551 127.018 44.3178 127.851C43.4993 128.461 42.8389 129.258 42.3914 130.174C42.0614 130.79 41.836 131.457 41.7245 132.148C41.5982 132.685 41.6389 133.249 41.841 133.763C41.9581 133.924 42.1299 134.037 42.3245 134.082C42.5191 134.127 42.7234 134.1 42.8994 134.005C43.3377 133.829 43.7423 133.579 44.0955 133.267C44.4448 132.982 44.6671 132.697 45.0164 132.39C45.3884 132.012 45.8125 131.689 46.2759 131.43C46.8499 131.125 47.4527 130.878 48.0753 130.691C48.8163 130.469 49.6948 130.258 50.658 130.005C51.5246 129.75 52.4044 129.542 53.2936 129.382C53.5315 129.328 53.7781 129.322 54.0183 129.365C54.2585 129.409 54.4873 129.501 54.6908 129.635C55.6337 130.205 56.5356 130.84 57.3899 131.535C59.0093 132.749 61.7825 134.86 65.3601 137.816C68.9378 140.772 73.1081 144.54 75.7014 146.757C77.0237 147.984 78.4711 149.07 80.0199 149.997C80.5752 150.367 81.2258 150.569 81.8934 150.578C82.7301 150.472 83.5386 150.207 84.275 149.797C85.8171 149.047 87.2904 148.164 88.6782 147.158C91.0318 145.469 93.2636 143.617 95.3571 141.616C97.8982 139.182 100.294 136.602 102.534 133.889C104.229 131.809 105.805 129.634 107.254 127.376C107.931 126.241 108.726 125.179 109.625 124.21C110.272 123.673 111.057 123.329 111.89 123.217C112.811 123.038 113.933 122.795 115.913 122.352C118.38 121.779 120.814 121.075 123.205 120.241C125.342 119.478 127.437 118.604 129.482 117.623C131.049 116.863 132.192 116.356 132.89 115.923C133.589 115.491 133.896 115.448 133.949 115.501C134.002 115.554 134.034 115.828 133.557 116.409C132.932 117.169 132.362 117.974 131.853 118.816C131.301 119.71 130.851 120.662 130.509 121.655C130.113 122.895 129.844 124.172 129.704 125.466C129.482 127.165 129.281 129.456 129.091 131.377C128.998 133.034 128.696 134.673 128.191 136.254C127.628 137.522 126.918 138.72 126.074 139.822C125.469 140.535 125.018 141.365 124.751 142.26C124.676 142.553 124.666 142.858 124.72 143.155C124.773 143.452 124.891 143.734 125.063 143.983C125.236 144.231 125.46 144.439 125.72 144.593C125.98 144.748 126.27 144.845 126.571 144.878C127.201 144.952 127.837 144.952 128.466 144.878C129.278 144.799 130.097 144.831 130.901 144.973C131.545 145.184 132.13 145.546 132.605 146.028C133.228 146.535 133.894 146.987 134.595 147.38C135.489 147.897 136.441 148.308 137.431 148.604C138.253 148.857 139.119 148.933 139.972 148.826C140.199 148.814 140.418 148.741 140.607 148.615C140.8 148.494 140.96 148.327 141.072 148.129C141.178 147.844 141.072 147.57 140.628 147.285C140.183 147 139.506 146.672 138.924 146.345C138.411 146.051 137.916 145.727 137.442 145.374C136.825 144.984 136.287 144.483 135.854 143.896C135.293 143.014 134.794 142.093 134.362 141.141C133.885 140.212 133.42 139.431 133.197 138.819C132.975 138.219 132.975 137.561 133.197 136.961C133.42 136.127 133.864 134.85 134.806 132.412C135.748 129.973 137.209 126.173 138.564 122.7C139.919 119.227 141.326 116.018 141.983 113.833C142.512 112.518 142.681 111.086 142.47 109.685C142.441 109.402 142.351 109.128 142.205 108.883C142.057 108.64 141.858 108.431 141.623 108.271C141.037 107.908 140.386 107.661 139.707 107.542C138.585 107.321 137.44 107.246 136.299 107.321C134.437 107.417 132.582 107.614 130.742 107.912C128.307 108.271 125.344 108.819 122.856 109.263C120.369 109.706 118.389 110.097 117.162 110.213C115.934 110.329 115.68 110.213 115.457 109.97C115.235 109.727 115.299 109.273 115.457 108.461C115.616 107.648 115.881 106.434 116.156 105.178C116.431 103.922 116.728 102.602 117.109 101.335C117.546 100.072 118.047 98.8318 118.612 97.6198C119.044 96.6657 119.425 95.6897 119.755 94.6958C120.009 93.8091 120.125 92.9224 120.326 92.3841C120.512 91.9464 120.861 91.598 121.3 91.413L123.004 90.3574L125.799 88.8374L129.927 86.6207C131.155 85.9345 132.044 85.4806 132.732 85.1745C133.42 84.8684 134.002 84.8156 135.039 84.3723C136.076 83.9289 137.929 83.3167 139.485 82.6728C141.041 82.0289 142.332 81.4483 143.401 80.9733C144.209 80.5699 145.062 80.2617 145.941 80.055C146.502 79.9285 147.085 79.9285 147.646 80.055C148.173 80.2154 148.71 80.3388 149.254 80.4244C149.74 80.4469 150.223 80.3374 150.652 80.1078C151.013 79.9354 151.317 79.6646 151.53 79.3266C151.615 79.0192 151.615 78.6946 151.53 78.3872V77.131C151.548 76.7683 151.479 76.4066 151.329 76.0755C151.213 75.8538 150.99 75.7588 150.599 75.6216C150.119 75.4298 149.611 75.3157 149.096 75.2838C148.59 75.2513 148.085 75.3572 147.635 75.5899C147.269 75.8239 146.915 76.0776 146.576 76.3499C146.147 76.6556 145.686 76.914 145.2 77.1205C144.588 77.3623 143.954 77.5426 143.306 77.6588C142.491 77.796 141.379 77.9016 140.342 78.081C139.305 78.2605 138.225 78.4927 136.934 78.7672C135.717 79.0263 134.515 79.354 133.335 79.7489C132.679 79.9916 132.044 80.2661 131.409 80.5722C130.8 80.8078 130.173 80.9948 129.535 81.1317C128.477 81.4483 126.963 81.7861 125.534 82.1872C124.105 82.5884 122.75 82.9156 121.798 83.1584C121.184 83.3569 120.547 83.4775 119.903 83.5173C119.48 83.5173 119.395 83.2956 119.48 82.9156C119.655 82.395 119.908 81.9039 120.231 81.4589C120.538 80.9285 120.957 80.4711 121.459 80.1183C121.902 80.0226 122.36 80.0226 122.803 80.1183C123.059 80.1071 123.308 80.0386 123.534 79.918C123.759 79.7974 123.954 79.6278 124.105 79.4216C124.602 78.7168 124.981 77.9361 125.227 77.1099C125.564 76.0759 125.819 75.017 125.989 73.9432C126.211 72.9526 126.211 71.9254 125.989 70.9348C125.7 69.9671 125.181 69.0834 124.476 68.3592C123.794 67.6823 122.989 67.1413 122.105 66.7653C121.327 66.4084 120.492 66.1938 119.638 66.1319C118.749 66.0917 117.859 66.2133 117.013 66.4908C116.272 66.7446 115.588 67.1429 115.002 67.6625C114.42 68.1413 113.947 68.7388 113.616 69.4148C113.284 70.1592 113.111 70.9645 113.108 71.7793C113.11 72.7043 113.202 73.627 113.383 74.5343C113.573 75.39 113.704 76.2576 113.775 77.131C113.81 77.6633 113.727 78.197 113.531 78.6933C113.413 79.0199 113.233 79.3209 113.002 79.58C112.968 79.6419 112.921 79.6959 112.864 79.7383C112.804 79.7813 112.736 79.8101 112.663 79.8228C112.59 79.8384 112.514 79.8384 112.441 79.8228C112.373 79.7996 112.309 79.7677 112.25 79.7277C111.741 79.3362 111.279 78.8863 110.874 78.3872C110.463 77.9244 110.013 77.4971 109.53 77.1099C108.962 76.69 108.347 76.3359 107.699 76.0543C106.875 75.712 106.011 75.4744 105.127 75.3471C104.164 75.2099 103.084 75.2099 101.888 75.1254L101.793 75.2415C100.597 75.1782 99.2629 75.0199 97.8657 74.8193C96.4685 74.6188 95.0396 74.3549 93.3355 74.091C91.6744 73.8609 90.0328 73.508 88.4242 73.0354C86.8894 72.5076 85.5451 71.737 83.6928 71.0087C81.5444 70.1895 79.3538 69.4848 77.1303 68.8975C74.7699 68.2009 72.4413 67.6203 70.6842 67.1981C68.9272 66.7758 67.7205 66.5225 66.6832 66.3642C65.6459 66.2058 64.5663 66.1636 63.9312 66.0264C63.5138 65.9061 63.1225 65.7092 62.7775 65.4458C62.356 65.2646 61.9159 65.1301 61.465 65.0447C60.9463 64.918 60.4065 64.8547 60.0149 64.7913C59.7018 64.7073 59.3836 64.6438 59.0622 64.6013C58.7931 64.4825 58.4978 64.4353 58.2049 64.4641C57.7218 64.5408 57.2561 64.7015 56.8289 64.9391C56.241 65.2152 55.6718 65.529 55.1247 65.8786L53.9604 66.6069C53.6598 66.7597 53.3934 66.9715 53.1772 67.2297C53.1243 67.3385 53.0954 67.4573 53.0925 67.5781C53.0929 67.6992 53.1219 67.8185 53.1772 67.9264C53.2618 68.1903 53.3994 68.1903 53.7276 68.1903C54.1955 68.1977 54.6632 68.1623 55.1247 68.0847C55.6886 67.9996 56.2588 67.9643 56.8289 67.9792C57.3671 67.9391 57.9077 68.011 58.4166 68.1903C59.0177 68.486 59.5885 68.8395 60.1207 69.2459C60.6665 69.6475 61.2901 69.9315 61.9519 70.0798C62.5306 70.1161 63.1106 70.0335 63.656 69.837C64.1119 69.695 64.5862 69.6203 65.0638 69.6153C65.9249 69.625 66.7777 69.7857 67.5829 70.0903C69.3236 70.7266 71.03 71.4524 72.6953 72.2648C74.6006 73.2043 76.5164 74.091 78.4005 74.9038C80.1272 75.6361 81.8942 76.2705 83.6928 76.8038C85.1535 77.2788 86.2437 77.4899 87.9267 78.0494C89.6097 78.6088 91.8324 79.5061 93.6742 80.2239C95.5159 80.9417 96.9343 81.4483 97.9081 81.9233C98.678 82.2445 99.2902 82.855 99.6122 83.6228C99.964 84.7222 100.15 85.8678 100.163 87.0218C100.247 88.6579 100.3 90.8641 100.417 93.0175C100.503 95.1437 100.747 97.2607 101.147 99.3509C101.622 101.315 101.997 103.302 102.269 105.304C102.386 106.744 102.088 108.187 101.412 109.463C100.814 110.667 100.083 111.8 99.2311 112.841C98.3643 113.853 97.5516 114.91 96.7967 116.008C96.1345 117.064 95.6249 118.209 95.283 119.407C94.9232 120.526 94.7009 121.634 94.3622 122.806C94.009 124.092 93.5119 125.335 92.8803 126.511C92.1021 127.784 91.254 129.014 90.34 130.195C89.4085 131.493 88.4665 132.939 87.3657 134.618C86.2649 136.296 85.0265 138.207 84.1903 139.463C83.7984 140.225 83.3112 140.934 82.7402 141.574C82.4332 141.859 82.1686 141.796 81.8405 141.574C81.3944 141.218 80.9959 140.807 80.655 140.349ZM155.669 78.1549C155.815 78.9327 155.764 79.7347 155.521 80.4878C155.272 81.2395 154.835 81.9153 154.25 82.4511C153.187 83.4354 151.83 84.0469 150.387 84.1928C149.262 84.2585 148.135 84.0969 147.074 83.7178C145.991 83.9791 144.951 84.3913 143.983 84.9423C142.798 85.5017 141.432 86.1457 140.12 86.6207L138.977 87.0534C137.643 87.5601 136.479 88.0035 135.007 88.4257C132.489 89.5106 130.055 90.7808 127.725 92.2258C126.423 92.9647 125.164 93.693 124.084 94.2736C123.73 95.9085 123.157 97.4885 122.38 98.9709C121.302 101.151 120.549 103.477 120.146 105.874C121.734 105.632 123.417 105.325 125.132 105.009C130.551 103.953 136.352 102.898 140.808 103.816C142.276 104.071 143.647 104.716 144.777 105.684C145.94 106.896 146.599 108.504 146.619 110.181C146.536 112.866 145.929 115.508 144.83 117.961C141.813 125.012 139.284 130.913 137.071 137.489C137.401 138.061 137.701 138.649 137.971 139.252C138.553 140.487 139.135 141.711 139.866 142.081C140.398 142.476 140.961 142.829 141.549 143.136C142.706 143.639 143.699 144.455 144.417 145.49C144.91 146.249 145.15 147.142 145.105 148.045C145.05 148.949 144.705 149.811 144.121 150.504C142.808 152.204 140.056 153.185 135.939 151.792C133.81 151.049 131.85 149.894 130.17 148.393H129.313C127.355 148.467 124.391 148.583 122.517 146.134C121.714 144.992 121.299 143.623 121.332 142.228C121.364 140.834 121.839 139.485 122.687 138.376C123.576 137.208 124.335 135.948 124.952 134.618C125.373 132.996 125.611 131.331 125.661 129.656C125.826 127.328 126.112 125.01 126.518 122.711C121.833 124.459 117.012 125.818 112.102 126.775C108.918 131.928 105.234 136.758 101.105 141.194C97.605 144.953 93.7004 148.316 89.4615 151.222C86.8788 152.921 83.46 154.526 81.7558 154.389C78.8027 154.23 76.3153 152.119 74.0607 150.23C73.7326 149.945 73.3939 149.66 73.0658 149.396L69.594 146.25C64.5028 141.817 59.7397 137.658 53.4629 133.087C51.7496 133.47 50.0659 133.974 48.4246 134.597C48.0534 134.811 47.7207 135.086 47.4403 135.409C47.0621 135.8 46.6474 136.153 46.2018 136.465C45.3429 137.201 44.2632 137.632 43.1323 137.689C42.0064 137.75 40.8914 137.442 39.9569 136.813C37.914 135.114 37.6282 131.715 39.3112 128.432C39.9963 127.121 40.9438 125.964 42.095 125.033C42.8592 124.439 43.6619 123.896 44.4977 123.407C45.227 123.009 45.9028 122.519 46.5088 121.951C46.6481 121.706 46.7515 121.443 46.8158 121.17C47.0776 119.961 47.6966 118.859 48.5927 118.005C49.4889 117.15 50.6212 116.584 51.8435 116.377C55.3364 115.923 58.3213 117.887 60.2054 122.89C60.8165 123.502 61.5688 123.955 62.3964 124.21C63.0103 124.474 63.6772 124.738 64.3863 125.023C67.1566 126.081 69.8699 127.283 72.5154 128.622C76.2058 130.391 79.4862 132.908 82.1475 136.011C84.7513 131.863 86.9847 128.622 89.5567 124.959C90.3565 123.656 90.9325 122.229 91.2609 120.737C91.6957 118.589 92.4597 116.52 93.526 114.604C94.1487 113.585 94.8569 112.621 95.6429 111.722C96.5617 110.728 97.3708 109.638 98.0562 108.471C98.7139 107.519 98.9757 106.35 98.7866 105.209C98.5537 103.721 98.2997 102.665 98.0562 101.599C97.8128 100.533 97.5588 99.4881 97.3259 98.0209C97.0194 95.682 96.8427 93.328 96.7967 90.9696C96.7226 89.0907 96.6485 87.2118 96.4579 85.3962C95.3995 84.879 93.9705 84.3406 92.3088 83.6967L89.8531 82.7573C87.6872 81.896 85.4623 81.1904 83.1953 80.6461C79.7013 79.5005 76.3007 78.0889 73.0234 76.4238C70.5555 75.0615 67.933 73.9984 65.2119 73.2571C64.0577 73.6587 62.83 73.8063 61.6132 73.6899C60.0693 73.3453 58.6225 72.6599 57.3793 71.6843C56.723 71.6843 56.1197 71.6843 55.5481 71.7793C54.2012 72.0584 52.7984 71.8409 51.6 71.167V71.2831C50.6542 70.6512 49.9874 69.6814 49.7373 68.5738C49.4872 67.4661 49.6728 66.305 50.2558 65.3297C50.9737 64.335 51.931 63.5364 53.0396 63.0074C54.5529 61.8891 56.3009 61.1276 58.152 60.7802C59.0036 60.718 59.8593 60.822 60.6711 61.0863C62.3115 61.2134 63.9078 61.677 65.3601 62.448C65.7942 62.5283 66.2324 62.5847 66.6726 62.6169C67.5154 62.6852 68.3532 62.8051 69.1812 62.9758C74.7031 64.139 80.1442 65.6552 85.471 67.5147L90.0542 69.4781C93.6728 70.3376 97.3478 70.9408 101.052 71.2831C101.74 71.3781 102.534 71.4098 103.359 71.452C104.185 71.4943 105.074 71.5365 105.889 71.642C107.173 71.8401 108.428 72.1946 109.625 72.6976C109.5 71.362 109.666 70.0151 110.112 68.7498C110.548 67.4815 111.248 66.3195 112.166 65.3402C113.083 64.3651 114.196 63.5939 115.433 63.0774C116.67 62.5608 118.002 62.3103 119.342 62.3424C121.802 62.2873 124.204 63.0886 126.136 64.6086C128.068 66.1285 129.408 68.2722 129.927 70.6709C130.2 72.959 129.968 75.279 129.249 77.4688C129.743 77.3774 130.221 77.2138 130.668 76.9832C132.467 76.0496 134.403 75.4048 136.405 75.0727C138 74.681 139.62 74.3919 141.252 74.2071C142.514 74.1279 143.754 73.8463 144.925 73.3732C145.77 72.6053 146.804 72.0736 147.921 71.832C149.007 71.6187 150.127 71.6439 151.202 71.9059C152.28 72.1613 153.29 72.6436 154.166 73.3204C154.759 73.9662 155.203 74.7336 155.468 75.5688C155.719 76.4066 155.788 77.2885 155.669 78.1549V78.1549Z" fill="#F4F4F4"/>
<path d="M184.851 117.053H158.792V119.628H184.851V117.053Z" fill="#2A3277"/>
<path d="M184.492 147.443H158.465V150.018H184.492V147.443Z" fill="#2A3277"/>
<path d="M184.47 102.929H158.41V105.505H184.47V102.929Z" fill="#179E6C"/>
<path d="M184.449 175.5H181.866V199.166H184.449V175.5Z" fill="#179E6C"/>
<path d="M184.354 158.896H158.792V161.472H184.354V158.896Z" fill="#179E6C"/>
<path d="M175.906 7.3467C176.369 7.34671 176.822 7.4838 177.207 7.7406C177.591 7.9974 177.891 8.36237 178.068 8.78925C178.245 9.21613 178.29 9.68573 178.199 10.1385C178.108 10.5913 177.884 11.007 177.556 11.3328C177.228 11.6586 176.81 11.88 176.356 11.9688C175.901 12.0576 175.431 12.0099 175.003 11.8317C174.576 11.6535 174.212 11.3529 173.956 10.9679C173.7 10.5829 173.565 10.1308 173.567 9.66897C173.567 9.36312 173.627 9.06027 173.745 8.77783C173.863 8.49539 174.035 8.23892 174.252 8.02314C174.47 7.80736 174.728 7.63652 175.012 7.52044C175.295 7.40436 175.599 7.34531 175.906 7.3467V7.3467Z" fill="#2A3277"/>
<path d="M171.345 137.204C173.333 137.204 174.944 135.597 174.944 133.615C174.944 131.633 173.333 130.026 171.345 130.026C169.358 130.026 167.746 131.633 167.746 133.615C167.746 135.597 169.358 137.204 171.345 137.204Z" fill="#2A3277"/>
<path d="M173.472 175.5H170.889V199.166H173.472V175.5Z" fill="#A92819"/>
<path d="M168.795 9.66907C168.793 11.0725 169.208 12.445 169.989 13.6129C170.769 14.7808 171.879 15.6916 173.179 16.2301C174.478 16.7686 175.909 16.9106 177.289 16.6381C178.67 16.3656 179.938 15.6908 180.934 14.6992C181.93 13.7076 182.608 12.4437 182.884 11.0674C183.159 9.6911 183.019 8.2643 182.481 6.96752C181.942 5.67074 181.031 4.56227 179.861 3.78236C178.691 3.00245 177.315 2.58616 175.908 2.58616C174.024 2.58894 172.218 3.33574 170.885 4.66313C169.552 5.99053 168.801 7.79046 168.795 9.66907V9.66907ZM175.908 19.3382C173.99 19.3402 172.114 18.7749 170.519 17.7138C168.923 16.6526 167.678 15.1432 166.943 13.3766C166.208 11.61 166.014 9.66552 166.387 7.78921C166.76 5.9129 167.682 4.18905 169.038 2.83575C170.393 1.48245 172.121 0.560507 174.002 0.186567C175.883 -0.187373 177.833 0.00348945 179.605 0.735008C181.378 1.46653 182.892 2.70583 183.958 4.29613C185.024 5.88643 185.593 7.75626 185.593 9.66907C185.59 12.2308 184.569 14.6869 182.754 16.4993C180.939 18.3117 178.477 19.3326 175.908 19.3382V19.3382Z" fill="#179E6C"/>
<path d="M171.344 143.147C169.46 143.147 167.618 142.59 166.052 141.546C164.485 140.502 163.264 139.018 162.543 137.282C161.822 135.546 161.633 133.636 162.001 131.793C162.368 129.95 163.276 128.258 164.608 126.929C165.94 125.6 167.638 124.696 169.486 124.329C171.334 123.962 173.249 124.151 174.99 124.87C176.73 125.589 178.218 126.806 179.265 128.369C180.312 129.931 180.87 131.768 180.87 133.647C180.87 136.166 179.867 138.583 178.08 140.364C176.294 142.146 173.871 143.147 171.344 143.147ZM164.379 133.647C164.379 135.023 164.789 136.368 165.556 137.512C166.323 138.657 167.413 139.548 168.688 140.074C169.963 140.601 171.366 140.738 172.719 140.468C174.073 140.199 175.316 139.536 176.291 138.562C177.266 137.588 177.929 136.347 178.197 134.997C178.465 133.647 178.326 132.248 177.796 130.977C177.266 129.706 176.371 128.621 175.222 127.858C174.074 127.095 172.724 126.688 171.344 126.69C169.501 126.693 167.735 127.423 166.43 128.72C165.125 130.018 164.388 131.777 164.379 133.615V133.647Z" fill="#179E6C"/>
<path d="M161.998 175.5H159.405V199.166H161.998V175.5Z" fill="#179E6C"/>
<path d="M164.941 21.0375C169.027 25.5237 175.6 27.371 184.47 26.6849L184.681 29.2499C183.369 29.3555 182.099 29.4188 180.871 29.4188C173.038 29.4188 167.037 27.181 163.014 22.7476C155.478 14.4402 157.722 1.63604 157.849 1.04492L160.389 1.50938C160.368 1.62549 158.251 13.6802 164.941 21.0375Z" fill="#2A3277"/>
<path d="M159.565 77.627C160.549 84.6149 153.214 89.1645 147.361 87.4439C143.882 89.1381 140.271 90.5501 136.564 91.6662C136.291 91.7604 136.025 91.8769 135.771 92.0145C133.103 93.3762 129.928 95.0757 127.387 96.4374C126.935 97.9793 126.369 99.4859 125.694 100.945L128.065 100.586C134.098 99.6463 139.2 98.8546 144.175 100.691C149.785 102.803 150.991 108.935 150.462 112.218C150.24 115.089 148.059 120.388 145.688 126.162C144.196 129.772 142.64 133.551 141.455 137.077C141.455 137.172 141.634 137.447 141.783 137.763C142.026 138.27 142.312 138.872 142.418 139.019C142.659 139.217 142.922 139.387 143.201 139.526C145.762 140.719 150.61 143.843 148.8 150.082C145.741 158.463 135.4 156.88 129.25 152.108C123.672 152.425 120.232 149.997 118.528 145.849C116.877 140.719 118.888 137.753 120.56 135.293C120.989 134.681 121.385 134.047 121.746 133.393C122.115 131.688 122.339 129.954 122.413 128.21C119.936 128.907 117.745 129.519 114.728 130.131C110.569 136.77 105.515 142.808 99.7085 148.076C95.4746 151.834 88.2876 157.766 82.773 157.861C78.5391 158.389 74.3053 154.79 70.1561 151.232L69.0976 150.367L66.896 148.435C62.8103 144.751 59.0104 141.363 53.0301 136.972L50.6379 137.594C47.2296 141.152 42.1172 142.872 37.8199 139.505C32.5275 135.177 35.1843 127.946 36.899 125.371C38.6189 122.892 40.9139 120.864 43.5885 119.46C44.204 117.309 45.5374 115.433 47.3679 114.141C49.1983 112.849 51.4162 112.219 53.6546 112.355C59.402 112.852 62.027 117.011 63.456 120.22C64.9167 120.895 66.2927 121.444 67.6898 122.003C72.7837 123.855 77.5498 126.502 81.8098 129.846C82.7257 128.338 83.7221 126.879 84.7947 125.476C85.6115 124.457 86.3209 123.357 86.9116 122.193C87.258 121.314 87.541 120.411 87.7584 119.491C88.3238 117.107 89.1842 114.802 90.3199 112.63C91.1734 111.214 92.1397 109.869 93.2095 108.608C93.9478 107.804 94.5711 106.902 95.0618 105.927C95.2312 105.695 95.0619 104.977 94.7126 103.594C94.4797 102.613 94.1516 101.282 93.8129 99.5408C93.269 95.5899 92.958 91.6106 92.8814 87.6233C91.8229 87.2433 90.7645 86.8316 89.706 86.42C88.2347 85.8288 86.7423 85.2377 85.1652 84.731C84.5513 84.5305 83.9479 84.3616 83.2811 84.1927L82.2226 83.8971C78.0779 82.5763 74.052 80.9097 70.1878 78.9148C68.6332 78.0937 67.02 77.388 65.3612 76.8037C63.8359 77.2036 62.2403 77.2585 60.6911 76.9645C59.1418 76.6704 57.6779 76.0349 56.4066 75.1042C51.5164 75.9381 47.1873 73.563 46.1818 68.8341C45.8143 67.4026 45.8751 65.8951 46.3566 64.4977C46.8381 63.1002 47.7193 61.8739 48.8914 60.97C49.723 60.2737 50.6323 59.6751 51.6011 59.1861C53.9186 57.4923 56.7305 56.6058 59.6031 56.6633C60.1837 56.7351 60.7573 56.8551 61.3179 57.0222C63.0829 57.2273 64.8046 57.7082 66.4197 58.4472C71.1405 58.7744 80.7302 61.6139 85.6944 63.2817C86.9328 63.7884 88.2665 64.3373 89.6002 64.9179L91.0926 65.5512L91.3678 65.6779L98.7771 66.7335C100.227 67.0501 101.54 67.314 101.085 67.0713L106.557 67.8629C111.669 52.9265 132.955 56.9799 133.929 71.6841C136.312 71.0832 138.73 70.6284 141.169 70.3224C141.784 70.2837 142.391 70.1703 142.979 69.9846C150.864 64.3268 160.369 70.2169 159.565 77.627ZM155.564 80.4876C155.808 79.7345 155.859 78.9326 155.712 78.1548C155.821 77.2861 155.742 76.4041 155.479 75.5686C155.215 74.7335 154.77 73.9661 154.177 73.3203C153.302 72.6435 152.291 72.1612 151.214 71.9058C150.138 71.6438 149.019 71.6186 147.932 71.8319C146.808 72.07 145.767 72.6019 144.916 73.373C143.744 73.8462 142.504 74.1278 141.243 74.2069C139.61 74.3918 137.991 74.6809 136.395 75.0725C134.394 75.4047 132.458 76.0495 130.658 76.9831C130.212 77.2136 129.734 77.3772 129.24 77.4687C129.959 75.2789 130.19 72.9589 129.917 70.6708C129.399 68.272 128.058 66.1284 126.127 64.6084C124.195 63.0885 121.793 62.2872 119.333 62.3423C117.988 62.3127 116.652 62.5674 115.414 63.0895C114.175 63.6117 113.061 64.3895 112.146 65.3718C111.228 66.3511 110.528 67.513 110.092 68.7813C109.646 70.0467 109.479 71.3936 109.605 72.7291C108.408 72.2261 107.153 71.8716 105.869 71.6736C105.054 71.568 104.186 71.5258 103.339 71.4836C102.492 71.4413 101.72 71.4097 101.032 71.3147C97.3277 70.9723 93.6527 70.3691 90.0341 69.5096L85.4721 67.5146C80.1488 65.6554 74.7112 64.1393 69.1929 62.9756C68.3648 62.8049 67.5271 62.6851 66.6843 62.6167C66.2405 62.585 65.7988 62.5286 65.3612 62.4478C63.9314 61.6865 62.3613 61.2232 60.7463 61.0861C59.9345 60.8219 59.0788 60.7179 58.2271 60.78C56.3761 61.1275 54.6281 61.889 53.1147 63.0073C52.0062 63.5362 51.0488 64.3348 50.331 65.3296C49.7408 66.2961 49.5436 67.4511 49.7797 68.558C50.0159 69.6649 50.6675 70.6398 51.6011 71.283V71.1669C52.7849 71.7952 54.1534 71.9859 55.4645 71.7052C56.0361 71.7052 56.6394 71.6102 57.2957 71.6102C58.5389 72.5859 59.9857 73.2712 61.5296 73.6158C62.7464 73.7323 63.9741 73.5847 65.1284 73.183C67.8494 73.9243 70.4719 74.9875 72.9399 76.3498C76.2171 78.0149 79.6177 79.4265 83.1117 80.5721C85.3787 81.1164 87.6036 81.8219 89.7695 82.6832L92.2251 83.6227C93.8869 84.256 95.3371 84.8049 96.3744 85.3222C96.5649 87.1378 96.639 89.0167 96.7131 90.8956C96.7591 93.254 96.9358 95.608 97.2423 97.9469C97.4752 99.4141 97.7186 100.47 97.9726 101.525C98.2267 102.581 98.4701 103.636 98.703 105.135C98.8921 106.276 98.6303 107.445 97.9726 108.397C97.313 109.575 96.5288 110.679 95.6334 111.69C94.8474 112.59 94.1392 113.554 93.5165 114.572C92.4502 116.488 91.6862 118.557 91.2514 120.705C90.923 122.197 90.347 123.624 89.5472 124.927C86.9328 128.611 84.6994 131.831 82.1379 135.979C79.4767 132.876 76.1963 130.359 72.5059 128.59C69.8604 127.251 67.1471 126.05 64.3768 124.991C63.6677 124.706 63.0008 124.442 62.3869 124.178C61.5593 123.924 60.807 123.47 60.1959 122.858C58.3118 117.855 55.3269 115.892 51.834 116.346C50.6213 116.561 49.5006 117.132 48.6146 117.986C47.7286 118.839 47.1175 119.937 46.8592 121.138C46.7949 121.412 46.6915 121.675 46.5522 121.919C45.9462 122.487 45.2705 122.977 44.5411 123.376C43.7053 123.864 42.9027 124.407 42.1384 125.001C40.9872 125.933 40.0397 127.089 39.3546 128.4C37.6717 131.683 37.9575 135.082 40.0003 136.782C40.9348 137.411 42.0498 137.718 43.1757 137.658C44.2869 137.603 45.3497 137.187 46.2029 136.475C46.6485 136.164 47.0632 135.81 47.4413 135.42C47.7218 135.096 48.0545 134.821 48.4257 134.607C50.0911 133.981 51.7997 133.477 53.5381 133.098C59.8148 137.668 64.5779 141.827 69.6692 146.261L73.1515 149.301C73.4797 149.565 73.8184 149.85 74.1465 150.135C76.401 152.024 78.8884 154.135 81.8416 154.294C83.5457 154.484 86.9646 152.879 89.5472 151.127C93.7861 148.221 97.6908 144.858 101.19 141.099C105.301 136.711 108.973 131.935 112.156 126.838C117.066 125.881 121.887 124.522 126.572 122.774C126.166 125.073 125.88 127.391 125.715 129.72C125.665 131.395 125.427 133.059 125.006 134.681C124.389 136.011 123.63 137.271 122.741 138.439C121.893 139.548 121.418 140.897 121.386 142.292C121.353 143.686 121.768 145.055 122.571 146.197C124.445 148.646 127.409 148.53 129.367 148.456H130.224C131.904 149.957 133.864 151.112 135.993 151.855C140.11 153.249 142.862 152.267 144.175 150.567C144.759 149.874 145.104 149.012 145.159 148.108C145.204 147.205 144.964 146.312 144.471 145.553C143.753 144.518 142.76 143.703 141.603 143.199C141.015 142.892 140.452 142.539 139.92 142.144C139.189 141.774 138.607 140.55 138.025 139.315C137.755 138.713 137.455 138.124 137.125 137.552C139.338 130.976 141.867 125.075 144.884 118.024C145.983 115.572 146.59 112.929 146.673 110.244C146.653 108.567 145.994 106.96 144.831 105.748C143.701 104.779 142.33 104.134 140.862 103.879C136.406 102.982 130.605 104.059 125.186 105.072C123.471 105.389 121.788 105.695 120.2 105.938C120.58 103.521 121.315 101.174 122.381 98.9708C123.164 97.4651 123.737 95.8599 124.085 94.1996C125.144 93.619 126.424 92.8906 127.726 92.1517C130.058 90.7285 132.492 89.4795 135.008 88.415C136.48 87.9928 137.644 87.5494 138.978 87.0428L140.121 86.61C141.433 86.135 142.799 85.4911 143.984 84.9316C144.952 84.3806 145.992 83.9684 147.075 83.7071C148.136 84.0862 149.263 84.2478 150.388 84.1821C151.838 84.0436 153.202 83.4356 154.273 82.451C154.849 81.9127 155.279 81.2371 155.522 80.4876H155.564Z" fill="#A92819"/>
<path d="M147.857 160.342L150.44 160.511C150.44 161.007 149.498 172.65 137.738 181.622L136.172 179.574C146.958 171.341 147.857 160.447 147.857 160.342Z" fill="#4C8BCA"/>
<path d="M140.787 31.298C141.031 31.298 165.238 27.8251 177.283 46.6355L175.103 48.0183C163.968 30.6435 141.401 33.8102 141.179 33.8419L140.787 31.298Z" fill="#4C8BCA"/>
<path d="M144.871 187.299L138.461 194.398L140.381 196.122L146.79 189.023L144.871 187.299Z" fill="#2A3277"/>
<path d="M142.957 3.35048L136.547 10.4497L138.467 12.1731L144.876 5.07389L142.957 3.35048Z" fill="#2A3277"/>
<path d="M167.576 61.329C156.874 50.921 142.172 51.1532 142.035 51.1638L141.971 48.5881C142.627 48.5881 157.848 48.2926 169.354 59.4606C177.462 67.3035 181.568 78.8304 181.568 93.6929H178.986C178.986 79.5693 175.144 68.6969 167.576 61.329Z" fill="#4C8BCA"/>
<path d="M135.878 187.296L129.468 194.395L131.388 196.118L137.797 189.019L135.878 187.296Z" fill="#2A3277"/>
<path d="M133.958 3.33948L127.554 10.4443L129.475 12.1661L135.878 5.06124L133.958 3.33948Z" fill="#2A3277"/>
<path d="M126.884 187.286L120.481 194.391L122.402 196.113L128.805 189.008L126.884 187.286Z" fill="#2A3277"/>
<path d="M124.958 3.34099L118.555 10.4458L120.475 12.1675L126.879 5.06274L124.958 3.34099Z" fill="#2A3277"/>
<path d="M119.819 189.022L113.405 196.126L111.479 194.406L117.893 187.302L119.819 189.022Z" fill="#2A3277"/>
<path d="M115.971 3.35293L109.561 10.4521L111.481 12.1756L117.89 5.07634L115.971 3.35293Z" fill="#2A3277"/>
<path d="M116.867 48.7257C115.141 37.9474 109.899 28.0375 101.953 20.5313L103.731 18.6523C112.192 26.5441 117.727 37.057 119.439 48.4829L116.867 48.7257Z" fill="#4C8BCA"/>
<path d="M109.963 189.022L103.549 196.126L101.623 194.406L108.037 187.302L109.963 189.022Z" fill="#2A3277"/>
<path d="M106.115 3.35147L99.7056 10.4507L101.625 12.1741L108.035 5.07488L106.115 3.35147Z" fill="#2A3277"/>
<path d="M105.211 52.3675L102.776 53.233C102.66 52.9163 91.0274 22.0302 48.8792 22.0302V19.4546C92.8797 19.4546 105.084 52.0402 105.211 52.3675Z" fill="#4C8BCA"/>
<path d="M101.178 67.0927C101.633 67.3355 100.32 67.0927 98.8701 66.7549L101.178 67.0927Z" fill="#A92819"/>
<path d="M98.1794 187.286L91.7759 194.391L93.6967 196.113L100.1 189.008L98.1794 187.286Z" fill="#2A3277"/>
<path d="M96.2625 3.35048L89.8528 10.4497L91.7721 12.1731L98.1818 5.0739L96.2625 3.35048Z" fill="#2A3277"/>
<path d="M89.1831 187.296L82.7734 194.396L84.6927 196.119L91.1024 189.02L89.1831 187.296Z" fill="#2A3277"/>
<path d="M87.2821 3.33143L80.8652 10.4385L82.7845 12.1619L89.2014 5.05484L87.2821 3.33143Z" fill="#2A3277"/>
<path d="M66.1441 177.147C66.5146 177.274 103.603 189.476 131.769 159.92L133.643 161.693C117.649 178.477 98.8932 182.361 85.0801 182.361C78.388 182.42 71.7232 181.503 65.2974 179.638L66.1441 177.147Z" fill="#4C8BCA"/>
<path d="M80.1984 187.281L73.7949 194.386L75.7157 196.108L82.1192 189.003L80.1984 187.281Z" fill="#2A3277"/>
<path d="M78.2726 3.33709L71.8691 10.4419L73.7899 12.1636L80.1934 5.05883L78.2726 3.33709Z" fill="#2A3277"/>
<path d="M71.1991 187.284L64.7957 194.389L66.7165 196.11L73.1199 189.006L71.1991 187.284Z" fill="#2A3277"/>
<path d="M69.2852 3.35341L62.8755 10.4526L64.7948 12.1761L71.2045 5.07682L69.2852 3.35341Z" fill="#2A3277"/>
<path d="M82.9112 171.7C65.5841 171.7 52.0357 159.392 51.824 159.202L53.5916 157.323C58.8138 161.811 64.8755 165.223 71.4268 167.362C85.2822 171.732 97.8885 168.354 108.95 157.355L110.77 159.139C101.35 168.576 91.6542 171.7 82.9112 171.7Z" fill="#4C8BCA"/>
<path d="M77.9672 119.491C76.1572 117.697 63.0639 105.304 44.4561 102.138L44.8794 99.5936C61.4657 102.37 73.5534 111.944 78.0624 116.061C77.9884 110.561 82.4974 105.505 84.5403 103.489C81.9998 100.288 80.573 96.3491 80.4758 92.2679L62.2383 86.0717L63.0745 83.6333L83.1854 90.4418L83.1325 91.4129C83.1325 91.4762 82.8573 98.1686 87.3664 102.644L88.3508 103.626L87.2923 104.534C87.2182 104.597 79.8195 111.025 80.8356 117.085C81.4178 120.578 81.6189 121.75 80.2217 122.056C80.1022 122.071 79.9813 122.071 79.8618 122.056C78.7822 122.098 78.3906 120.958 77.9672 119.491Z" fill="#4C8BCA"/>
<path d="M61.3434 187.288L54.9399 194.393L56.8607 196.114L63.2643 189.01L61.3434 187.288Z" fill="#2A3277"/>
<path d="M59.4326 3.35194L53.0229 10.4512L54.9422 12.1746L61.3519 5.07536L59.4326 3.35194Z" fill="#2A3277"/>
<path d="M51.4936 187.281L45.0901 194.386L47.0109 196.108L53.4144 189.003L51.4936 187.281Z" fill="#2A3277"/>
<path d="M53.1339 53.2117C53.9369 53.0711 54.7266 52.8628 55.4942 52.5889C52.8723 55.5474 49.8432 58.1204 46.4973 60.2312C39.4796 64.7491 31.0754 67.6203 24.8198 66.1847C37.8178 63.5985 42.2846 58.7957 48.3178 53.2117H48.4237C49.9822 53.48 51.5753 53.48 53.1339 53.2117V53.2117Z" fill="#0F7657"/>
<path d="M49.5767 3.35049L43.167 10.4497L45.0863 12.1731L51.496 5.0739L49.5767 3.35049Z" fill="#2A3277"/>
<path d="M45.6208 48.0185C44.648 46.9391 44.0021 45.6068 43.7579 44.1762C43.5426 43.001 43.5636 41.7948 43.8199 40.6278C44.0761 39.4608 44.5623 38.3562 45.2504 37.3783C31.4903 39.9116 15.3804 49.3063 5.24023 35.3304C12.7977 44.0812 32.5487 33.631 46.3829 32.6704C66.8643 30.1476 74.263 37.9483 80.1057 43.7434C84.8794 48.409 92.384 63.2927 100.968 66.9661L101.18 67.0716L98.8724 66.7338L97.2953 66.3855C78.6662 61.5087 80.3598 48.5251 69.2564 52.663C71.4475 46.4668 69.8703 41.8011 68.0392 40.7561C69.4575 46.1501 65.7423 51.9769 61.138 52.2513C67.023 46.2345 63.456 38.9088 60.6617 37.3149C59.3719 36.5524 57.9229 36.0973 56.4278 35.9849C55.815 35.9321 55.1988 35.9321 54.586 35.9849H54.3955C51.7599 36.291 48.5316 37.6527 47.579 40.1228C47.0893 41.0778 46.8594 42.1442 46.9121 43.2156C46.9527 44.2711 47.2703 45.2975 47.833 46.1923C49.5371 48.409 54.8295 48.6729 56.3537 45.4851C56.5889 44.977 56.6909 44.4176 56.6501 43.8595C56.6068 43.3078 56.4288 42.775 56.1314 42.3078C55.2105 41.115 52.2468 41.1678 52.5855 43.1523C53.644 43.7012 52.8184 45.5484 51.326 44.704C50.8453 44.292 50.5324 43.7188 50.4466 43.0926C50.3608 42.4663 50.508 41.8304 50.8602 41.305C52.6702 38.0327 56.5019 39.8589 56.9782 40.1122C57.5844 40.4722 58.0988 40.9671 58.4812 41.5583C58.872 42.1437 59.1186 42.8128 59.201 43.5112C59.2784 44.4719 59.1525 45.4382 58.8316 46.3474C58.5107 47.2566 58.0019 48.0884 57.3381 48.789C56.2378 49.7197 54.9137 50.349 53.4958 50.6152C53.2524 50.6152 52.9983 50.6996 52.7443 50.7207C51.5659 50.8257 50.3785 50.6781 49.2619 50.288C47.8586 49.8876 46.5966 49.1011 45.6208 48.0185V48.0185Z" fill="#0F7657"/>
<path d="M46.0217 52.1982C33.934 61.6984 18.9567 63.4507 8.97534 60.1362C24.99 59.6612 34.3786 54.7844 41.5338 49.0737C42.5873 50.6364 44.1877 51.7506 46.0217 52.1982Z" fill="#0F7657"/>
<path d="M138.977 146.292C139.559 146.62 140.258 146.936 140.681 147.232C141.104 147.527 141.231 147.791 141.126 148.076C141.013 148.274 140.853 148.441 140.66 148.562C140.471 148.688 140.252 148.761 140.025 148.773C139.172 148.88 138.306 148.804 137.484 148.551C136.494 148.255 135.542 147.844 134.648 147.327C133.947 146.934 133.281 146.482 132.658 145.976C132.183 145.493 131.598 145.131 130.954 144.92C130.15 144.778 129.331 144.746 128.519 144.825C127.89 144.899 127.254 144.899 126.624 144.825C126.324 144.792 126.033 144.695 125.773 144.541C125.513 144.386 125.289 144.178 125.116 143.93C124.944 143.682 124.827 143.399 124.773 143.102C124.719 142.805 124.729 142.5 124.804 142.207C125.071 141.312 125.522 140.482 126.127 139.769C126.971 138.667 127.682 137.469 128.244 136.201C128.749 134.62 129.051 132.981 129.144 131.324C129.334 129.403 129.535 127.102 129.758 125.413C129.897 124.119 130.167 122.843 130.562 121.602C130.904 120.609 131.355 119.657 131.906 118.763C132.416 117.921 132.985 117.117 133.61 116.356C134.087 115.776 134.108 115.501 134.002 115.448C133.896 115.396 133.6 115.448 132.944 115.871C132.287 116.293 131.102 116.81 129.535 117.57C127.49 118.551 125.395 119.425 123.259 120.188C120.867 121.022 118.433 121.727 115.966 122.299C113.986 122.742 112.864 122.985 111.944 123.165C111.11 123.277 110.325 123.621 109.678 124.157C108.779 125.126 107.984 126.188 107.307 127.324C105.858 129.581 104.282 131.756 102.587 133.836C100.348 136.549 97.9513 139.129 95.4102 141.563C93.2913 143.585 91.0311 145.455 88.6466 147.158C87.2588 148.164 85.7855 149.047 84.2434 149.797C83.507 150.207 82.6985 150.472 81.8618 150.578C81.1943 150.569 80.5436 150.367 79.9884 149.997C78.4395 149.07 76.9921 147.984 75.6698 146.757C73.0766 144.54 68.8533 140.772 65.3286 137.816C61.8039 134.86 58.9778 132.718 57.3689 131.483C56.5146 130.787 55.6127 130.152 54.6698 129.583C54.4663 129.448 54.2375 129.356 53.9973 129.313C53.7571 129.269 53.5106 129.275 53.2726 129.329C52.3835 129.489 51.5037 129.697 50.637 129.952C49.6738 130.205 48.7953 130.416 48.0544 130.638C47.4317 130.825 46.829 131.072 46.255 131.377C45.7915 131.636 45.3674 131.959 44.9954 132.338C44.6461 132.644 44.4238 132.929 44.0745 133.214C43.7213 133.527 43.3167 133.777 42.8784 133.953C42.7024 134.047 42.4982 134.074 42.3035 134.029C42.1089 133.985 41.9371 133.871 41.82 133.71C41.6179 133.196 41.5773 132.632 41.7035 132.095C41.8151 131.405 42.0404 130.738 42.3704 130.121C42.8179 129.205 43.4784 128.409 44.2968 127.799C45.3553 126.965 46.89 126.099 47.9062 125.381C48.6945 124.859 49.3213 124.128 49.7162 123.27C50.0019 122.626 50.0866 121.951 50.3618 121.381C50.6243 120.853 51.0618 120.431 51.6002 120.188C52.1353 119.944 52.741 119.903 53.3044 120.072C53.9495 120.264 54.5166 120.656 54.9238 121.191C55.426 121.869 55.842 122.606 56.1622 123.386C56.4061 124.031 56.7335 124.642 57.136 125.202C57.8387 125.994 58.7055 126.624 59.6763 127.049C60.9359 127.704 62.7671 128.379 64.7041 129.16C66.7315 129.952 68.7169 130.847 70.6527 131.841C72.4734 132.802 74.2179 133.899 75.8709 135.124C76.9465 135.933 77.9234 136.865 78.7817 137.9C79.5332 138.777 80.1789 139.695 80.6764 140.349C81.0154 140.798 81.4102 141.203 81.8513 141.553C82.1794 141.774 82.444 141.838 82.751 141.553C83.3219 140.913 83.8092 140.204 84.2011 139.442C85.0055 138.185 86.2333 136.275 87.3765 134.597C88.5196 132.918 89.4193 131.43 90.3508 130.174C91.2648 128.993 92.1128 127.763 92.8911 126.49C93.5337 125.333 94.0449 124.108 94.4153 122.837C94.754 121.666 94.9763 120.557 95.3361 119.438C95.678 118.24 96.1876 117.096 96.8498 116.039C97.6047 114.942 98.4174 113.885 99.2842 112.873C100.137 111.825 100.869 110.685 101.465 109.474C102.141 108.197 102.439 106.754 102.322 105.315C102.024 103.322 101.625 101.345 101.126 99.3931C100.726 97.3028 100.482 95.1859 100.396 93.0596C100.279 90.9485 100.226 88.7001 100.142 87.0639C100.129 85.91 99.943 84.7644 99.5912 83.665C99.2692 82.8972 98.657 82.2867 97.8871 81.9655C96.9556 81.4905 95.5373 80.9838 93.6532 80.266C91.7691 79.5482 89.5781 78.651 87.9057 78.0915C86.2333 77.5321 85.1431 77.321 83.6718 76.846C81.8732 76.3127 80.1063 75.6783 78.3795 74.9459C76.4954 74.1331 74.5796 73.2464 72.6743 72.307C71.009 71.4946 69.3026 70.7688 67.5619 70.1325C66.7567 69.8279 65.9039 69.6671 65.0428 69.6575C64.5652 69.6624 64.0909 69.7371 63.635 69.8792C63.0896 70.0756 62.5096 70.1582 61.9309 70.1219C61.2691 69.9736 60.6455 69.6896 60.0997 69.288C59.5675 68.8817 58.9968 68.5281 58.3956 68.2325C57.8867 68.0532 57.3461 67.9813 56.8079 68.0214C56.2378 68.0064 55.6676 68.0418 55.1038 68.1269C54.6422 68.2045 54.1746 68.2398 53.7066 68.2325C53.3785 68.2325 53.2409 68.2325 53.1562 67.9686C53.1009 67.8607 53.0719 67.7414 53.0715 67.6202C53.0744 67.4994 53.1033 67.3806 53.1562 67.2719C53.3724 67.0137 53.6389 66.8018 53.9394 66.6491L55.1038 65.9208C55.6508 65.5712 56.2201 65.2574 56.8079 64.9813C57.2351 64.7437 57.7009 64.5829 58.1839 64.5063C58.4768 64.4774 58.7722 64.5247 59.0413 64.6435C59.3626 64.686 59.6809 64.7495 59.9939 64.8335C60.4067 64.8968 60.9253 64.9602 61.444 65.0869C61.8949 65.1723 62.335 65.3068 62.7565 65.488C63.1015 65.7514 63.4928 65.9483 63.9102 66.0685C64.5241 66.2058 65.6144 66.2585 66.6622 66.4063C67.7101 66.5541 68.9062 66.818 70.6632 67.2402C72.4203 67.6625 74.7489 68.2958 77.1093 68.9397C79.3328 69.527 81.5234 70.2317 83.6718 71.0509C85.5241 71.7792 86.8472 72.5498 88.4032 73.0776C90.0118 73.5502 91.6534 73.903 93.3145 74.1331C95.0186 74.397 96.4899 74.6609 97.8447 74.8615C99.1996 75.062 100.576 75.2204 101.772 75.2837L101.867 75.1676C103.063 75.252 104.143 75.252 105.106 75.3893C105.99 75.5165 106.854 75.7542 107.678 76.0965C108.326 76.3781 108.941 76.7322 109.509 77.1521C109.998 77.5249 110.455 77.938 110.874 78.3871C111.279 78.8825 111.741 79.3289 112.25 79.7171C112.309 79.7571 112.374 79.789 112.441 79.8121C112.514 79.8278 112.59 79.8278 112.663 79.8121C112.736 79.7995 112.805 79.7706 112.864 79.7277C112.921 79.6853 112.968 79.6313 113.002 79.5694C113.234 79.3103 113.413 79.0093 113.531 78.6827C113.727 78.1863 113.811 77.6527 113.775 77.1204C113.704 76.2469 113.573 75.3793 113.383 74.5237C113.202 73.6164 113.11 72.6937 113.108 71.7686C113.111 70.9539 113.284 70.1486 113.616 69.4042C113.941 68.7092 114.414 68.0932 115.003 67.5991C115.588 67.0795 116.272 66.6813 117.014 66.4274C117.859 66.1499 118.749 66.0283 119.639 66.0685C120.492 66.1304 121.327 66.345 122.105 66.7019C122.995 67.0967 123.8 67.6595 124.476 68.3591C125.175 69.116 125.677 70.0333 125.936 71.0297C126.159 72.0203 126.159 73.0476 125.936 74.0381C125.766 75.112 125.511 76.1708 125.174 77.2049C124.929 78.031 124.55 78.8117 124.052 79.5166C123.902 79.7227 123.706 79.8923 123.481 80.0129C123.256 80.1335 123.006 80.202 122.75 80.2133C122.308 80.1176 121.849 80.1176 121.406 80.2133C120.919 80.5839 120.518 81.0557 120.231 81.5961C119.909 82.0411 119.655 82.5322 119.48 83.0527C119.395 83.4328 119.48 83.6333 119.903 83.6544C120.547 83.6146 121.184 83.494 121.798 83.2955C122.75 83.0528 124.105 82.7361 125.534 82.3244C126.963 81.9127 128.519 81.5749 129.535 81.2688C130.174 81.132 130.8 80.9449 131.409 80.7094C132.044 80.4032 132.679 80.1288 133.335 79.886C134.515 79.4912 135.717 79.1634 136.934 78.9043C138.194 78.6299 139.305 78.4082 140.342 78.2182C141.38 78.0282 142.459 77.9332 143.306 77.796C143.954 77.6798 144.589 77.4994 145.201 77.2576C145.686 77.0512 146.147 76.7928 146.577 76.4871C146.915 76.2148 147.269 75.9611 147.635 75.7271C148.085 75.4943 148.59 75.3885 149.096 75.4209C149.612 75.4529 150.119 75.5669 150.599 75.7587C150.99 75.8959 151.213 75.9909 151.329 76.2126C151.479 76.5437 151.548 76.9054 151.53 77.2682V78.3871C151.615 78.6946 151.615 79.0191 151.53 79.3266C151.317 79.6645 151.013 79.9354 150.652 80.1077C150.223 80.3373 149.74 80.4468 149.255 80.4244C148.71 80.3388 148.173 80.2153 147.646 80.0549C147.085 79.9284 146.503 79.9284 145.942 80.0549C145.062 80.2617 144.209 80.5699 143.401 80.9733C142.343 81.4483 141.041 82.0288 139.485 82.6727C137.929 83.3166 136.077 83.9289 135.039 84.3722C134.002 84.8156 133.43 84.8683 132.732 85.1745C132.033 85.4806 131.155 85.9345 129.927 86.6206L125.862 88.8056L123.068 90.3257L121.364 91.3812C120.925 91.5663 120.576 91.9146 120.39 92.3524C120.189 92.8907 120.073 93.7774 119.819 94.6641C119.489 95.658 119.107 96.634 118.675 97.588C118.111 98.8001 117.609 100.04 117.172 101.304C116.791 102.57 116.474 103.848 116.22 105.146C115.966 106.444 115.669 107.616 115.521 108.429C115.373 109.242 115.299 109.664 115.521 109.938C115.743 110.213 115.997 110.297 117.225 110.181C118.453 110.065 120.401 109.664 122.92 109.231C125.439 108.798 128.371 108.239 130.805 107.88C132.646 107.583 134.501 107.385 136.362 107.289C137.503 107.215 138.649 107.289 139.771 107.51C140.45 107.629 141.1 107.876 141.686 108.239C141.922 108.399 142.12 108.608 142.269 108.851C142.414 109.096 142.505 109.37 142.533 109.653C142.744 111.055 142.576 112.487 142.046 113.802C141.39 115.987 139.993 119.206 138.628 122.669C137.262 126.131 135.801 129.899 134.87 132.38C133.939 134.86 133.483 136.095 133.261 136.929C133.039 137.529 133.039 138.188 133.261 138.787C133.483 139.399 133.949 140.181 134.425 141.109C134.858 142.061 135.356 142.982 135.918 143.864C136.35 144.451 136.889 144.952 137.506 145.342C137.977 145.688 138.468 146.005 138.977 146.292Z" fill="#A92819"/>
<path d="M41.6379 187.286L35.2344 194.391L37.1552 196.113L43.5587 189.008L41.6379 187.286Z" fill="#2A3277"/>
<path d="M39.7242 3.34901L33.3145 10.4482L35.2337 12.1717L41.6434 5.07243L39.7242 3.34901Z" fill="#2A3277"/>
<path d="M40.0419 47.2475C26.811 53.9082 12.5217 57.0221 0 47.7014C14.8186 51.1003 24.3448 49.232 38.2319 41.5474C38.058 43.6111 38.7085 45.6598 40.0419 47.2475Z" fill="#0F7657"/>
<path d="M27.0541 86.0088H0.994629V88.5844H27.0541V86.0088Z" fill="#2A3277"/>
<path d="M26.9606 140.392H24.3779V156.077H26.9606V140.392Z" fill="#179E6C"/>
<path d="M26.6828 116.409H0.655029V118.985H26.6828V116.409Z" fill="#2A3277"/>
<path d="M26.6741 71.8848H0.604004V74.4604H26.6741V71.8848Z" fill="#179E6C"/>
<path d="M26.579 0.506836H23.9963V24.1729H26.579V0.506836Z" fill="#179E6C"/>
<path d="M26.5567 127.851H0.994629V130.427H26.5567V127.851Z" fill="#179E6C"/>
<path d="M13.5478 98.9707C14.2595 98.9707 14.9553 99.1812 15.5472 99.5756C16.139 99.9699 16.6002 100.53 16.8726 101.186C17.145 101.842 17.2163 102.564 17.0774 103.26C16.9386 103.956 16.5958 104.596 16.0925 105.097C15.5892 105.599 14.948 105.941 14.2499 106.08C13.5518 106.218 12.8282 106.147 12.1706 105.875C11.513 105.604 10.9509 105.144 10.5555 104.554C10.16 103.963 9.94897 103.27 9.94897 102.56C9.94897 101.608 10.3281 100.695 11.003 100.022C11.6779 99.3488 12.5933 98.9707 13.5478 98.9707V98.9707Z" fill="#2A3277"/>
<path d="M15.9931 140.392H13.4104V156.077H15.9931V140.392Z" fill="#A92819"/>
<path d="M15.6115 0.506836H13.0288V24.1729H15.6115V0.506836Z" fill="#A92819"/>
<path d="M10.5738 187.998C11.0373 187.996 11.491 188.131 11.8773 188.387C12.2636 188.642 12.5651 189.007 12.7435 189.433C12.9218 189.86 12.969 190.33 12.8791 190.783C12.7892 191.237 12.5662 191.654 12.2384 191.98C11.9106 192.307 11.4928 192.53 11.0381 192.619C10.5834 192.709 10.1121 192.662 9.68428 192.484C9.25641 192.306 8.89119 192.006 8.63496 191.62C8.37873 191.235 8.24305 190.783 8.24514 190.32C8.24514 189.704 8.49048 189.114 8.92718 188.678C9.36388 188.243 9.95618 187.998 10.5738 187.998V187.998Z" fill="#2A3277"/>
<path d="M23.4547 177.242C31.0016 185.549 28.747 198.353 28.6306 198.955L26.0903 198.49C26.0903 198.364 28.2072 186.32 21.5283 178.962C17.4532 174.476 10.8695 172.565 2.01012 173.304L1.78784 170.75C11.5258 169.937 18.7869 172.122 23.4547 177.242Z" fill="#2A3277"/>
<path d="M13.5497 109.526C14.9292 109.526 16.2778 109.118 17.4249 108.354C18.572 107.59 19.4661 106.503 19.994 105.232C20.5219 103.961 20.6601 102.562 20.3909 101.213C20.1218 99.8636 19.4575 98.6242 18.4819 97.6513C17.5064 96.6785 16.2636 96.016 14.9105 95.7475C13.5574 95.4791 12.1549 95.6169 10.8803 96.1434C9.60575 96.6699 8.51636 97.5615 7.7499 98.7054C6.98344 99.8494 6.57435 101.194 6.57435 102.57C6.57435 103.484 6.75477 104.388 7.10531 105.232C7.45585 106.076 7.96965 106.843 8.61737 107.489C9.26509 108.135 10.034 108.647 10.8803 108.997C11.7266 109.346 12.6336 109.526 13.5497 109.526V109.526ZM13.5497 93.0488C15.4338 93.0488 17.2756 93.606 18.8421 94.6499C20.4087 95.6938 21.6297 97.1775 22.3507 98.9134C23.0718 100.649 23.2604 102.56 22.8928 104.402C22.5253 106.245 21.618 107.938 20.2857 109.267C18.9534 110.595 17.256 111.5 15.4081 111.867C13.5602 112.233 11.6448 112.045 9.90413 111.326C8.16344 110.607 6.67565 109.389 5.62889 107.827C4.58214 106.265 4.02344 104.428 4.02344 102.549C4.02344 100.029 5.02709 97.613 6.8136 95.8314C8.60011 94.0497 11.0231 93.0488 13.5497 93.0488V93.0488Z" fill="#179E6C"/>
<path d="M4.50869 140.392H1.92603V156.077H4.50869V140.392Z" fill="#179E6C"/>
<path d="M4.1271 0.506836H1.54443V24.1729H4.1271V0.506836Z" fill="#179E6C"/>
<path d="M10.5744 197.414C11.9816 197.416 13.3579 197.002 14.529 196.224C15.7001 195.446 16.6134 194.339 17.1534 193.043C17.6934 191.747 17.8358 190.32 17.5625 188.943C17.2893 187.567 16.6127 186.302 15.6183 185.309C14.624 184.315 13.3566 183.639 11.9765 183.364C10.5965 183.09 9.16577 183.23 7.86544 183.766C6.56511 184.303 5.4536 185.212 4.67155 186.379C3.88951 187.545 3.47208 188.917 3.47207 190.321C3.47486 192.199 4.2237 194 5.55474 195.33C6.88578 196.659 8.69063 197.409 10.5744 197.414V197.414ZM10.5744 180.662C12.4929 180.66 14.3689 181.226 15.965 182.287C17.561 183.349 18.8053 184.859 19.5405 186.626C20.2756 188.393 20.4685 190.338 20.0948 192.215C19.721 194.092 18.7974 195.815 17.4408 197.168C16.0842 198.521 14.3556 199.442 12.4739 199.815C10.5922 200.188 8.64182 199.995 6.86976 199.262C5.09769 198.529 3.58356 197.288 2.519 195.696C1.45444 194.105 0.887317 192.234 0.88941 190.321C0.88941 187.759 1.90979 185.302 3.72608 183.491C5.54237 181.68 8.00578 180.662 10.5744 180.662V180.662Z" fill="#179E6C"/>
</svg>
