<svg fill="none" height="200" viewBox="0 0 197 200" width="197" xmlns="http://www.w3.org/2000/svg"><path d="m195.201 135.715 1.638 1.87c-26.958 23.701-64.421 26.653-81.409 26.653-5.506 0-8.867-.304-8.993-.325l.241-2.48c.536.095 53.643 4.959 88.523-25.718z" fill="#4c8bca"/><path d="m196.017 197.51h-195.12491v2.49h195.12491z" fill="#a92819"/><path d="m176.026 35.8459c20.612 13.1219 19.068 53.5064 18.984 55.2188l-2.49-.1155c0-.3993 1.576-40.6577-17.86-53.0126z" fill="#4c8bca"/><path d="m194.315 26.4224.211 2.4794c-1.272.1051-2.49.1576-3.667.1576-7.543 0-13.311-2.1537-17.177-6.4296-7.26-8.0054-5.064-20.41286-4.98-20.93815l2.448.45175c0 .11557-2.101 11.7455 4.381 18.8265 3.929 4.3389 10.254 6.1774 18.784 5.4525z" fill="#2a3277"/><path d="m186.079.693359c1.843 0 3.645.546531 5.178 1.570481 1.532 1.02395 2.726 2.47934 3.432 4.1821.705 1.70277.89 3.57646.53 5.38406-.359 1.8077-1.247 3.4681-2.55 4.7714-1.304 1.3032-2.964 2.1907-4.772 2.5503-1.807.3596-3.681.175-5.384-.5303-1.702-.7053-3.158-1.8997-4.182-3.4322-1.024-1.5324-1.57-3.3341-1.57-5.1771.005-2.46981.989-4.83684 2.735-6.58323 1.747-1.74639 4.114-2.729961 6.583-2.735511zm6.829 9.318741c0-1.35318-.401-2.67591-1.153-3.80085-.752-1.12495-1.821-2.00155-3.071-2.5189-1.251-.51734-2.626-.65216-3.953-.38741-1.327.26474-2.546.91717-3.502 1.87472-.956.95754-1.607 2.17717-1.869 3.50456-.263 1.32738-.126 2.70288.393 3.95238.52 1.2496 1.398 2.317 2.524 3.0672 1.126.7503 2.449 1.1496 3.802 1.1476 1.813-.0028 3.549-.7246 4.83-2.0069 1.28-1.2824 1.999-3.0204 1.999-4.8324z" fill="#179e6c"/><path d="m179.386 177.108s2.511-8.405 11.441-6.167c0 .042-2.038 8.289-11.441 6.167z" fill="#0f7657"/><path d="m190.827 186.636c-9.455 2.102-11.441-6.156-11.441-6.156 8.92-2.217 11.441 6.156 11.441 6.156z" fill="#0f7657"/><path d="m186.079 12.2604c1.242 0 2.248-1.0066 2.248-2.2482 0-1.24171-1.006-2.24828-2.248-2.24828s-2.248 1.00657-2.248 2.24828c0 1.2416 1.006 2.2482 2.248 2.2482z" fill="#2a3277"/><path d="m19.4378 120.859c-.2946-.447-.5511-.918-.7669-1.408v-.073c-.1722-.516-.309-1.042-.4097-1.576h-10.50591c-.09281.555-.1385 1.118-.13657 1.681.00141 1.474.31283 2.93.91401 4.276zm-1.2397-6.608c.1751-1.245.4851-2.467.9245-3.646l-6.1984-1.187c-1.5641 1.381-2.8852 3.015-3.9082 4.833zm17.9965 16.935c-1.0465-.316-2.0742-.691-3.0782-1.124l-6.0303 8.142c1.5023.652 3.0782 1.272 4.7171 1.881zm153.1864-13.237h-10.559c-.254 1.036-.7 2.016-1.313 2.889l11.073 2.931c.6-1.342.911-2.795.914-4.265-.003-.51-.042-1.019-.115-1.523zm-24.752-22.9658c17.46 6.1038 28.271 14.7078 28.271 24.4998 0 9.791-10.811 18.385-28.271 24.489-16.946 5.936-40.301 9.592-66.0506 9.592-25.7498 0-49.1254-3.73-66.0608-9.592-17.4607-6.104-28.27126-14.708-28.27126-24.489s10.81056-18.396 28.27126-24.4998c3.4459-1.2081 7.165-2.3113 11.1152-3.3303.1786 1.2186.3467 2.3743.4833 3.4039-2.658.6723-5.2004 1.4077-7.6168 2.1852-4.7667 2.2528-8.8625 5.711-11.8821 10.033-2.742 4.076-3.656 8.142-2.7 10.884 2.1012 4.843 11.1572 9.256 24.7203 12.544 13.7731 3.352 31.9693 5.379 51.9514 5.379 20.8121 0 39.5861-2.227 53.4961-5.841 13.657-3.53 22.419-8.216 23.543-13.216.658-2.611.394-5.368-.746-7.806-1.376-3.026-4.202-6.451-9.455-10.3801l-1.849-.6514c-3.362-1.1766-6.969-2.2553-10.821-3.2358.137-1.0506.305-2.1012.494-3.3409 4.024 1.0191 7.848 2.1537 11.378 3.3724zm14.645 19.4258h8.93c-.943-1.715-2.144-3.274-3.562-4.623l-5.683 1.24v-.053c.245 1.128.351 2.282.315 3.436zm7.417 12.533-11.798-3.152c-2.231 1.87-4.705 3.428-7.354 4.633l6.062 8.205c5.894-2.973 10.348-6.23 13.048-9.707zm-5.474-19.961v-.053c-2.043-1.45-4.193-2.746-6.429-3.876 1.199 1.422 2.215 2.989 3.026 4.664zm-10.863 31.118-6.093-8.268c-.956.399-1.944.778-2.973 1.135l4.444 9.003c1.597-.595 3.138-1.218 4.622-1.87zm-7.984 3.068-4.402-9.056c-1.156.357-2.343.693-3.561 1.051l3.719 9.381c1.439-.462 2.868-.861 4.244-1.376zm-7.68 2.322-3.719-9.456c-3.866.925-8.047 1.765-12.512 2.469l2.773 10.002c4.749-.862 9.235-1.867 13.458-3.015zm-16.998 3.624-2.795-10.064-3.519.462 2.258 10.222c1.366-.189 2.721-.399 4.056-.62zm-7.554 1.103-2.28-10.243c-1.239.126-2.469.252-3.719.357l1.996 10.38zm-7.449.82-2.006-10.422c-4.371.347-8.899.599-13.553.746l.441 10.642c5.183-.175 10.223-.497 15.118-.966zm-18.595 1.05-.399-10.621h-3.152v10.684zm-7.165 0v-10.621h-3.4564l-.4413 10.663zm-7.3541-.147.4307-10.642c-4.4439-.147-8.8144-.357-12.9642-.693l-1.9961 10.411c4.6121.494 9.5078.798 14.4771.956zm-18.1331-1.218 1.9961-10.307c-1.2397-.115-2.4689-.252-3.677-.399l-2.2693 10.306zm-7.4487-.925 2.2588-10.201-3.53-.462-2.784 10.043c1.3237.221 2.679.421 4.0552.62zm-7.5747-1.25 2.7736-9.918c-4.4965-.703-8.7304-1.523-12.6071-2.5l-3.719 9.392c4.2303 1.142 8.7478 2.15 13.5525 3.026zm-13.3319-13.227c-1.2082-.315-2.3848-.651-3.5195-1.05l-4.4229 8.961c1.3657.462 2.7665.904 4.2023 1.324zm-13.3109-4.665c-2.7858-1.238-5.3821-2.865-7.7113-4.832l-11.63 3.036c2.721 3.551 7.3541 6.871 13.4055 9.833zm-8.0265-23.28c.8364-1.215 1.7524-2.374 2.742-3.467-2.9661 1.386-5.8002 3.039-8.4677 4.937l4.3704.809c.3782-.756.8195-1.523 1.3553-2.279z" fill="#0f7657"/><path d="m178.284 128.959c.167.41.211.859.126 1.292-.084.435-.296.834-.609 1.146-.312.313-.711.525-1.145.609-.434.085-.883.041-1.292-.126-.403-.175-.748-.459-.998-.82-.246-.37-.378-.805-.379-1.25.004-.291.061-.58.168-.851.243-.536.672-.966 1.209-1.208.271-.107.559-.164.851-.168.444.001.879.132 1.25.378.363.248.647.594.819.998z" fill="#a92819"/><path d="m166.37 53.2016c12.407 15.8324 9.96 36.7705 9.844 37.59l-2.458-.3047c0-.2101 2.416-20.7596-9.361-35.7199-6.818-8.6988-17.051-13.8992-30.467-15.4856l.305-2.4689c14.099 1.6074 24.899 7.144 32.137 16.3891z" fill="#4c8bca"/><path d="m166.329 177.108s2.521-8.405 11.44-6.167c0 .042-2.027 8.289-11.44 6.167z" fill="#0f7657"/><path d="m177.769 186.636c-9.455 2.102-11.44-6.156-11.44-6.156 8.919-2.217 11.44 6.156 11.44 6.156z" fill="#0f7657"/><path d="m166.003 111.288c.123 1.133-.039 2.278-.473 3.331-.652 1.51-1.724 2.8-3.088 3.719-.72 1.965-2.148 3.591-4.003 4.559-1.558.733-3.314.933-4.996.568s-3.198-1.273-4.312-2.585c-.869-1.24-1.223-2.769-.988-4.265.164-1.132.661-2.189 1.429-3.036-2.038-1.681-5.159-4.203-5.883-4.812-1.219-.819-5.253-3.477-5.863-5.053-1.011-1.804-1.674-3.7821-1.954-5.831l-.378.2101c.294 2.0769.147 4.1929-.431 6.2089-.861 2.797-1.524 5.651-1.985 8.541 2.479 6.304-2.102 9.529-4.371 10.023-1.679.308-3.405.236-5.053-.21-1.005.394-2.073.601-3.152.609-2.065.103-4.097-.559-5.705-1.859-.97-.742-1.691-1.761-2.067-2.924-.375-1.162-.387-2.411-.034-3.58.359-1.166 1.068-2.194 2.03-2.946.961-.751 2.131-1.19 3.349-1.256l.715-.473v-9.938c-.126-2.145-.126-4.2954 0-6.4403.25-1.4967.887-2.902 1.849-4.0762 1.103.084 2.195.1891 3.288.3046-.7.8825-1.352 1.786-1.954 2.7105-.525 1.0506-.651 2.1012-.557 4.6331 0 4.8223.263 8.2993 0 14.4563-.908.451-1.743 1.036-2.479 1.733-.676-.115-1.37-.042-2.007.21-.496.235-.92.598-1.229 1.051-.317.451-.512.975-.567 1.523-.054.548.032 1.101.251 1.607.219.505.563.946.999 1.282.876.625 1.896 1.019 2.964 1.145 1.069.127 2.152-.017 3.15-.42.183-.094.383-.147.589-.157 1.628 0 2.679.935 4.958.262 1.639-.483 3.972-2.784 2.102-6.618-.148-3.152 2.29-10.338 2.321-11.084.451-1.854.337-3.8-.325-5.5891 1.901-1.2292 3.866-2.3218 5.641-3.7191.306 2.767.908 5.4932 1.797 8.1312.686 1.395 1.787 2.544 3.152 3.289 3.644 2.565 7.112 5.373 10.379 8.404-.25.603-.45 1.225-.599 1.86-.446.25-.823.608-1.096 1.041-.274.433-.435.927-.469 1.438-.157 2.669 2.742 4.444 6.304 3.047 2.195-1.051 2.3-3.078 3.057-3.814.788-.966 1.66-.851 2.637-2.952.279-.663.373-1.389.273-2.101-.088-.701-.356-1.366-.777-1.933-1.24-1.597-2.942-1.471-5.726-5.085-2.48-3.446-4.087-6.1983-7.018-7.438.094-.7564.231-1.681.368-2.7105.924.2206 1.828.4412 2.71.6723 0 .1892-.052.3572-.073.5358 4.549 3.488 4.023 4.6964 6.849 7.9424 2.102 2.479 3.667 2.164 5.337 4.644.631.963 1.014 2.067 1.114 3.214z" fill="#a92819"/><path d="m163.187 111.446c.101.712.006 1.438-.273 2.101-.977 2.101-1.849 1.986-2.637 2.952-.756.736-.861 2.732-3.057 3.814-3.572 1.397-6.472-.378-6.303-3.047.034-.511.195-1.005.468-1.438s.65-.791 1.097-1.041c.148-.635.349-1.257.599-1.86-3.268-3.031-6.736-5.839-10.38-8.404-1.364-.746-2.465-1.894-3.152-3.289-.888-2.6381-1.49-5.3643-1.796-8.1313l.199-1.1872c.925.1471 1.839.3047 2.753.4728.094.6619.21 1.3552.326 1.9961.273 1.5023.556 2.9732.787 3.9817.136.7326.381 1.4408.725 2.1009.302.557.726 1.038 1.24 1.408.62.504 1.502 1.051 2.479 1.744s2.102 1.713 3.152 2.553c1.051.84 2.185 1.765 3.152 2.605.966.841 1.902 1.681 2.49 2.238.41.334.737.758.956 1.24.068.352.035.716-.095 1.05-.105.347-.22.641-.346.967-.126.327-.235.66-.326.998-.084.315-.137.62-.21.925-.036.283-.132.556-.284.798-.129.129-.301.207-.483.221-.169.008-.335.054-.483.136-.04.028-.07.069-.084.116-.021.05-.021.107 0 .157.037.066.087.123.147.168.058.05.126.085.199.106.286.086.584.125.883.115.36.015.718-.049 1.05-.189.288-.143.531-.361.704-.63.168-.274.273-.547.431-.862.174-.366.378-.718.609-1.05.244-.39.541-.744.883-1.051.315-.284.672-.494.977-.767.301-.236.54-.542.693-.893.063-.15.095-.31.095-.473 0-.162-.032-.323-.095-.472-.124-.296-.337-.545-.609-.715-.284-.21-.662-.42-1.114-.746-.54-.381-1.055-.795-1.544-1.239-.564-.474-1.094-.986-1.586-1.534-.636-.697-1.225-1.434-1.765-2.207-.62-.872-1.272-1.891-2.039-2.815-.682-.868-1.473-1.645-2.353-2.311-.531-.3614-1.111-.6445-1.723-.8409-.242-.0718-.465-.1975-.651-.3677-.147-.1261-.147-.2521-.147-.6409 0-.3887 0-.977.126-1.7755.126-.7984.178-1.5338.346-2.7315.935.1996 1.849.4098 2.753.6199-.137 1.0506-.273 1.9541-.368 2.7105 2.931 1.2397 4.539 3.9921 7.018 7.4381 2.784 3.614 4.486 3.488 5.726 5.085.437.548.727 1.199.84 1.891z" fill="#f4f4f4"/><path d="m153.269 177.108s2.521-8.405 11.441-6.167c0 .042-2.028 8.289-11.441 6.167z" fill="#0f7657"/><path d="m164.71 186.636c-9.456 2.102-11.441-6.156-11.441-6.156 8.93-2.217 11.441 6.156 11.441 6.156z" fill="#0f7657"/><path d="m160.342 111.582c.063.15.095.311.095.473s-.032.323-.095.473c-.153.35-.391.657-.693.893-.305.273-.662.483-.977.767-.342.307-.639.661-.882 1.05-.232.333-.436.685-.61 1.051-.157.315-.262.588-.431.862-.173.269-.416.487-.703.63-.332.14-.691.204-1.051.189-.299.01-.597-.029-.883-.116-.073-.02-.141-.056-.199-.105-.06-.045-.11-.102-.147-.168-.021-.05-.021-.107 0-.157.014-.047.044-.088.084-.116.148-.082.314-.128.483-.136.182-.014.354-.092.483-.221.152-.242.249-.515.284-.799.074-.304.126-.609.21-.924.091-.338.2-.671.326-.998.126-.326.241-.62.347-.967.129-.334.162-.698.094-1.05-.219-.482-.546-.906-.956-1.24-.588-.557-1.471-1.397-2.49-2.238-1.019-.84-2.101-1.765-3.152-2.605-1.05-.841-2.185-1.828-3.151-2.553-.967-.725-1.86-1.24-2.48-1.744-.529-.365-.968-.847-1.281-1.408-.345-.6603-.59-1.3684-.725-2.101-.231-1.0506-.515-2.4794-.788-3.9817-.116-.6409-.231-1.3342-.326-1.9961 2.248.3992 4.434.8335 6.556 1.3027-.168 1.1977-.284 2.0276-.347 2.7315s-.126 1.3973-.126 1.7755 0 .5148.147.6409c.187.1702.409.2959.651.3677.612.1964 1.192.4795 1.723.8405.88.667 1.671 1.443 2.354 2.311.767.925 1.418 1.944 2.038 2.816.54.772 1.13 1.509 1.765 2.206.492.548 1.022 1.061 1.586 1.534.489.445 1.005.859 1.544 1.24.452.325.83.535 1.114.746.274.172.487.425.609.724z" fill="#a92819"/><path d="m158.68 22.7976h-30.625v2.4899h30.625z" fill="#179e6c"/><path d="m158.534 11.7456h-30.625v2.4899h30.625z" fill="#a92819"/><path d="m158.534.451416h-30.625v2.489884h30.625z" fill="#179e6c"/><path d="m154.375 79.582c.336 1.933-.463 7.4171-1.135 12.0712-.903-.2311-1.807-.4518-2.732-.6619.631-4.5595 1.272-9.5918 1.051-10.9366-.082-1.1944-.469-2.3477-1.124-3.3501-.655-1.0023-1.555-1.8202-2.616-2.3756-1.24-.8299-2.101-1.1031-3.278-1.9856-2.647-2.2587-5.41-7.7533-11.304-10.4218-2.198-.9337-4.486-1.6378-6.829-2.1011-1.051-3.593-1.954-4.36-3.803-5.3685-2.244-.7724-4.703-.6251-6.839.4097-1.307.7466-2.35 1.881-2.984 3.2463-.9 1.8426-1.054 3.9613-.431 5.9148.946 3.0362 5.589 5.7152 7.134 5.8623l-.379.935c-1.428 0-5.589.8405-6.366.4202-1.446-1.1836-3.222-1.8918-5.085-2.0276-2.479 0-4.969 1.0506-5.673 2.3113-1.114 1.3132-.641 5.2529 3.719 4.6541.272.6695.731 1.2461 1.324 1.6599.587.4145 1.278.6549 1.996.6934 1.919.1409 3.823.436 5.694.8825-1.051.7354-4.402 3.0572-5.169 3.3724-1.505-.0192-2.999.2519-4.402.7984-.484.3013-.935.6535-1.345 1.0506-.304.2416-.598.4938-.882.7669-1.145 0-2.29 0-3.4459 0 .219-.4675.5018-.9024.8409-1.2922.546-.5906 1.144-1.132 1.786-1.6179.448-.437.945-.8212 1.481-1.1451.708-.4238 1.477-.7357 2.28-.9246-.599-.3281-1.133-.7624-1.576-1.2817-.893-.04-1.763-.2882-2.543-.7249-.767-.4421-1.427-1.0484-1.9328-1.7755-.5348-.7276-.8944-1.5689-1.0505-2.4583-.054-.3053-.0822-.6146-.0841-.9246.0034-.5874.0919-1.1713.2627-1.7334.4097-1.1557 1.2707-3.1518 5.0747-4.4335 1.233-.4106 2.524-.6199 3.824-.6198.96.0625 1.909.2425 2.826.5358-.989-1.5753-1.523-3.3932-1.545-5.253-.029-1.9533.491-3.8756 1.503-5.5471.864-1.5376 2.117-2.8204 3.635-3.719 2.409-1.2537 5.174-1.6466 7.837-1.1137 1.527.3515 2.934 1.102 4.076 2.1748 1.172 1.074 2.029 2.4468 2.48 3.9712 1.844.4601 3.661 1.0248 5.442 1.6914 6.303 2.7526 10.106 8.4047 12.029 10.7055.799.9035 2.395 1.3027 3.908 2.4794 1.226.7858 2.256 1.8422 3.009 3.0879.754 1.2457 1.213 2.6476 1.341 4.0981z" fill="#a92819"/><path d="m153.237 91.6111c-.189 1.1871-.357 2.3323-.494 3.3408-.882-.2311-1.786-.4517-2.71-.6723.147-1.0506.305-2.1642.473-3.3304.924.1891 1.828.4308 2.731.6619z" fill="#a92819"/><path d="m151.579 80.0125c.199 1.3448-.442 6.3771-1.051 10.9366-.893-.2206-1.807-.4307-2.721-.6303.105-.7459.221-1.5339.315-2.3113.252-1.8595.462-3.7191.588-4.9588.117-.821.167-1.6503.148-2.4793-.04-.6508-.2-1.2885-.473-1.8806-.241-.492-.602-.915-1.051-1.2292-.496-.3974-1.027-.7491-1.586-1.0506-.662-.3992-1.492-.8299-2.101-1.2397-.528-.3545-1.014-.7668-1.45-1.2291-.449-.4257-.863-.8859-1.24-1.3763-.441-.5778-.956-1.3237-1.681-2.1957-.833-.9608-1.724-1.8695-2.668-2.7211-.905-.8382-1.875-1.6039-2.9-2.2902-.816-.5122-1.691-.9249-2.605-1.2292-.893-.3152-1.87-.5673-2.753-.7985l-2.259-.6303c-.423-.112-.838-.256-1.239-.4308-.294-.1187-.538-.3335-.694-.6093-.185-.3648-.329-.7488-.43-1.1451-.158-.4518-.337-.9561-.536-1.4288-.168-.4416-.394-.8586-.673-1.2397-.311-.365-.713-.6406-1.166-.7985-.497-.1501-1.015-.2175-1.534-.1996-.529-.0089-1.057.0405-1.575.1471-.493.1007-.959.3048-1.366.5988-.416.3081-.771.689-1.051 1.1242-.306.4308-.554.9008-.735 1.3972-.157.475-.242.9708-.252 1.4709-.024.5146.054 1.0288.231 1.5128.22.5801.556 1.1092.987 1.5549.504.5107 1.064.9619 1.671 1.3447.483.314.984.5982 1.502.851.241.146.503.2525.777.3152.155.029.315.003.452-.0736.117-.1285.219-.2695.305-.4202.116-.2139.269-.4058.452-.5673.142-.1167.306-.2025.483-.2522l.189-.1155c.185-.0673.383-.089.578-.0631.265.0806.511.2127.725.3888.214.1758.389.394.515.6408.062.2625.062.536 0 .7985-.116.2941-.347 1.0506-.641 1.7755s-.599 1.6284-.904 2.3428c-.21.5253-.462 1.0505-.725 1.5548-.189.3152-.336.3887-.567.3887s-.662 0-1.229 0c-.568 0-1.229.1051-2.017.1997-.788.0945-1.618.2101-2.469.2836-.789.0946-1.586.0946-2.375 0-.556-.1076-1.082-.3333-1.544-.6619-.4-.2849-.818-.5445-1.25-.7774-.387-.2009-.801-.3459-1.229-.4307-.362-.1046-.737-.1576-1.114-.1576-.424.0256-.843.0996-1.25.2206-.39.0971-.772.2199-1.145.3677-.273.0864-.516.2464-.704.4623-.095.1471 0 .2416.326.3151.513.0425 1.03.0425 1.544 0 .449.033.879.1934 1.24.4623.299.2455.546.5493.725.893.178.3257.273.6409.546.8195.396.1476.817.2189 1.24.2101.567 0 1.155.1155 1.796.2206l2.49.4728c1.05.1996 2.374.4727 3.425.6198.823.1351 1.656.2019 2.49.1996.52.0214 1.04-.0681 1.523-.2626.135-.0754.244-.1886.315-.3257-.072.1767-.128.3595-.168.5463-.142.4255-.343.8288-.599 1.1977-.297.3431-.653.6312-1.05.8509-.578.3888-1.44.9561-2.238 1.4498-.798.4938-1.429.9456-2.101 1.3658l-1.797 1.2397c-.651.3887-1.25.83-1.88 1.2397-.549.3479-1.117.6636-1.702.9455-.136.0581-.277.1038-.42.1366-2.438-.1051-4.886-.1786-7.355-.2206.284-.2732.578-.5253.883-.767.409-.3971.86-.7493 1.345-1.0505 1.402-.5465 2.897-.8176 4.402-.7985.767-.3152 4.097-2.637 5.169-3.3724-1.872-.4464-3.776-.7415-5.695-.8825-.717-.0385-1.409-.2788-1.996-.6934-.549-.4297-.968-1.0047-1.208-1.6599-4.36.5779-4.833-3.3408-3.719-4.6541.704-1.2186 3.152-2.3113 5.673-2.3113 1.864.1359 3.639.844 5.085 2.0277.777.4202 4.938-.4203 6.367-.4203l.378-.935c-1.545-.1471-6.188-2.8261-7.134-5.8623-.623-1.9535-.469-4.0721.431-5.9147.634-1.3653 1.677-2.4998 2.984-3.2464 2.136-1.0348 4.595-1.1821 6.839-.4097 1.849 1.0506 2.7 1.7755 3.803 5.3685 2.343.4634 4.631 1.1675 6.829 2.1012 5.894 2.6685 8.657 8.163 11.304 10.4218 1.082.893 1.986 1.1556 3.183 1.9436 1.046.5506 1.935 1.3566 2.585 2.3429.65.9864 1.04 2.1211 1.135 3.2987z" fill="#f4f4f4"/><path d="m150.507 90.9492c-.169 1.1661-.326 2.3008-.473 3.3304-.904-.2102-1.818-.4203-2.753-.6199 0-.1366 0-.2836.074-.4412.126-.8195.273-1.8386.431-2.8997.914.1997 1.828.4098 2.721.6304z" fill="#f4f4f4"/><path d="m140.211 177.108s2.521-8.405 11.451-6.167c.011.042-2.027 8.289-11.451 6.167z" fill="#0f7657"/><path d="m151.674 186.636c-9.455 2.102-11.462-6.156-11.451-6.156 8.919-2.217 11.451 6.156 11.451 6.156z" fill="#0f7657"/><path d="m148.867 80.5695c.019.8291-.03 1.6584-.147 2.4794-.126 1.2397-.337 3.1517-.589 4.9587-.094.7775-.21 1.5654-.315 2.3113-2.416-.5147-4.896-1.0505-7.448-1.4498 0-.4412 0-.7354 0-.935 0-.3572-.169-.4727-.295-.5358-.126-.063-.273 0-.535.2311-.263.2312-.452.5253-.82.9456-2.773-.4728-5.631-.8825-8.541-1.2607.231-.2627.473-.5253.704-.767.792-.8431 1.645-1.6262 2.553-2.3428.756-.5883 1.418-1.0506 1.954-1.4498.465-.3797.827-.8713 1.05-1.4288.058-.2346.058-.4797 0-.7144-.044-.2362-.149-.457-.304-.6408-.412-.6413-.961-1.1831-1.608-1.5864-.868-.4422-1.763-.8316-2.679-1.1662-.875-.3068-1.69-.7656-2.406-1.3552-.582-.5948-1.113-1.238-1.586-1.9226-.347-.4622-.483-.5358-.588-.5358s-.126.0736-.294.6934c-.169.6198-.431 1.7755-.704 2.7-.233.7706-.525 1.5222-.872 2.2483-.248.4944-.54.9655-.872 1.4077-.211.3118-.458.5974-.736.851-.362.3785-.752.7296-1.166 1.0506-.617.4643-1.271.8788-1.954 1.2397-.809.4097-1.754.8195-2.71 1.2397s-1.734.7774-2.585 1.1346l-5.011-.2731c.144-.0329.284-.0786.42-.1366.585-.2819 1.153-.5976 1.702-.9455.63-.4098 1.229-.851 1.881-1.2397l1.796-1.2397c.62-.4203 1.24-.872 2.101-1.3658.862-.4938 1.66-1.0506 2.238-1.4498.397-.2197.753-.5078 1.051-.851.255-.3688.456-.7721.598-1.1976.04-.1868.096-.3696.168-.5463-.07.137-.18.2503-.315.3256-.483.1945-1.002.2841-1.523.2627-.834.0022-1.667-.0645-2.49-.1996-1.051-.1471-2.374-.4203-3.425-.6199l-2.49-.4727c-.641-.1051-1.229-.1786-1.796-.2206-.423.0088-.844-.0625-1.24-.2102-.273-.1786-.368-.4937-.546-.8194-.179-.3437-.425-.6476-.725-.893-.361-.269-.791-.4293-1.24-.4623-.514.0425-1.03.0425-1.544 0-.294-.0735-.42-.1681-.326-.3152.188-.2159.431-.3758.704-.4622.373-.1478.756-.2706 1.145-.3677.407-.121.827-.195 1.25-.2206.377 0 .752.053 1.114.1576.428.0848.842.2298 1.229.4307.433.2329.85.4925 1.25.7774.462.3285.989.5543 1.545.6619.788.0946 1.585.0946 2.374 0 .851-.0735 1.691-.1996 2.469-.2837.777-.084 1.45-.1786 2.017-.1996s1.051 0 1.229 0c.179 0 .378-.0735.568-.3887.262-.5043.514-1.0506.724-1.5549.305-.7144.631-1.5548.904-2.3428.273-.7879.525-1.4813.641-1.7755.063-.2624.063-.536 0-.7984-.126-.2469-.301-.4651-.515-.6409-.214-.176-.46-.3081-.725-.3887-.195-.0259-.393-.0043-.578.0631l-.189.1155c-.177.0496-.341.1355-.483.2522-.182.1615-.335.3534-.452.5673-.086.1507-.188.2916-.305.4202-.137.0766-.297.1026-.451.0736-.275-.0628-.537-.1692-.778-.3152-.517-.2528-1.019-.537-1.502-.851-.606-.3829-1.167-.8341-1.67-1.3447-.432-.4458-.768-.9748-.988-1.5549-.176-.4841-.255-.9983-.231-1.5129.01-.5.095-.9958.252-1.4708.182-.4965.429-.9664.735-1.3973.28-.4351.636-.816 1.051-1.1241.408-.294.873-.4981 1.366-.5988.518-.1067 1.047-.156 1.576-.1471.518-.0179 1.037.0495 1.533.1996.453.1579.856.4335 1.167.7985.278.3811.505.7981.672 1.2397.2.4727.378.977.536 1.4287.101.3964.245.7804.431 1.1452.155.2758.399.4906.693.6093.402.1748.816.3188 1.24.4308l2.258.6303c.883.2311 1.86.4833 2.753.7985.914.3043 1.789.717 2.605 1.2291 1.025.6863 1.995 1.4521 2.9 2.2903.944.8515 1.836 1.7603 2.668 2.721.725.872 1.24 1.6179 1.681 2.1958.377.4904.792.9506 1.24 1.3762.436.4624.922.8746 1.45 1.2292.62.4097 1.45.8405 2.101 1.2397.56.3015 1.091.6531 1.586 1.0506.449.3142.811.7371 1.051 1.2292.233.5891.358 1.2155.368 1.849z" fill="#a92819"/><path d="m148.1 139.696c.162.407.206.852.126 1.282-.086.436-.303.835-.62 1.145-.305.317-.702.53-1.135.61-.434.085-.883.041-1.292-.127-.428-.159-.796-.45-1.051-.829-.251-.361-.383-.79-.378-1.23-.002-.295.056-.588.169-.86.114-.273.282-.52.493-.726.416-.415.978-.649 1.565-.651.445.003.879.135 1.251.378.385.241.688.592.872 1.008z" fill="#a92819"/><path d="m147.819 90.3192c-.158 1.0506-.305 2.1011-.431 2.8996 0 .1576 0 .3047-.073.4412-2.101-.4762-4.287-.9105-6.556-1.3027-.137-.9035-.242-1.765-.305-2.4058 0-.4518-.073-.809-.084-1.0506 2.522.4097 5.001.9035 7.449 1.4183z" fill="#a92819"/><path d="m140.463 89.951c.063.6408.168 1.5023.305 2.4058-.914-.1681-1.828-.3257-2.753-.4727l-2.594-.4203c.168-.1261.357-.2521.525-.3887.821-.6158 1.594-1.2937 2.311-2.0276l.42-.4728 1.702.2942c-.031.2731 0 .6303.084 1.0821z" fill="#f4f4f4"/><path d="m140.284 87.9863v.935l-1.701-.2942c.367-.4202.619-.7669.819-.9455s.389-.2941.536-.2311.304.1261.346.5358z" fill="#f4f4f4"/><path d="m138.635 88.5754-.42.4728c-.718.7339-1.491 1.4118-2.312 2.0276-.168.1366-.357.2626-.525.3887-2.591-.3992-5.249-.7494-7.974-1.0506l.504-.5883c.736-.809 1.461-1.6915 2.186-2.5004 2.91.3677 5.767.7774 8.541 1.2502z" fill="#a92819"/><path d="m137.974 91.8839-.2 1.1872c-1.775 1.3973-3.74 2.4899-5.641 3.7191.662 1.789.776 3.7348.325 5.5888 0 .746-2.469 7.943-2.322 11.084 1.881 3.835-.451 6.135-2.101 6.619-2.28.672-3.33-.263-4.959-.263-.205.01-.405.064-.588.158-.998.402-2.081.546-3.15.42-1.068-.127-2.088-.521-2.964-1.145-.437-.336-.78-.778-.999-1.283-.219-.506-.305-1.058-.251-1.606.055-.549.25-1.073.567-1.524.309-.453.733-.816 1.229-1.05.637-.253 1.331-.326 2.007-.21.735-.698 1.571-1.282 2.479-1.734.263-6.156 0-9.634 0-14.456-.095-2.5844 0-3.53.557-4.6331.616-.9245 1.268-1.828 1.954-2.7105 1.166.1051 2.332.2311 3.477.3677-.714.851-1.271 1.6074-1.702 2.1642-.39.4453-.742.9233-1.05 1.4288-.183.388-.28.8109-.284 1.2397-.038.6999-.038 1.4013 0 2.1012.084.8825.084 2.1011.084 3.719v9.581c-.039.708-.141 1.412-.304 2.102-.065.345-.213.67-.431.945-.274.275-.581.515-.914.714-.452.263-1.051.631-1.524.957-.335.281-.686.544-1.05.787-.524.314-1.146.419-1.744.295-.179-.074-.315-.074-.389 0-.02.065-.02.134 0 .199-.02.062-.02.128 0 .189.1.184.244.34.42.452.246.158.521.266.809.315.318.032.639.032.956 0 .312.005.624-.034.925-.115.326-.105.662-.273 1.051-.379.407-.107.828-.154 1.25-.136.412.014.823.06 1.229.136l.893.211c.268.074.542.123.819.147.287.019.574-.009.851-.084.229-.065.429-.206.568-.4.128-.2.21-.426.241-.661.053-.225.053-.459 0-.683-.067-.263-.155-.519-.262-.767-.159-.29-.276-.602-.347-.925-.042-.503-.042-1.009 0-1.513.044-.705.135-1.407.273-2.101.158-.819.399-1.723.63-2.626.232-.904.442-1.786.704-2.763.263-.977.589-2.101.767-3.068.17-.85.219-1.72.147-2.5844-.065-.6048-.209-1.1983-.43-1.765-.157-.3183-.297-.6444-.421-.9771-.063-.2268-.063-.4665 0-.6934.059-.2403.2-.4524.4-.5988.398-.3155.816-.6066 1.25-.872l2.469-1.5443c.733-.3914 1.435-.8374 2.101-1.3343z" fill="#f4f4f4"/><path d="m136.429 80.6326c.057.2347.057.4797 0 .7144-.224.5575-.586 1.0491-1.051 1.4288-.536.4518-1.198.8615-1.954 1.4498-.908.7166-1.761 1.4997-2.553 2.3428-.231.2417-.473.5043-.704.7669l-3.677-.3992c.368-.4202.746-.8299 1.124-1.2502 1.566-1.807 3.36-3.4032 5.337-4.7486-1.219-.8195-2.448-.7775-4.57-2.1012-.612 1.9806-1.753 3.7567-3.299 5.1374-1.16 1.0084-2.463 1.8403-3.866 2.4688-1.933-.168-3.891-.3186-5.873-.4517.851-.3572 1.713-.7459 2.585-1.1346.872-.3888 1.901-.83 2.71-1.2397.69-.3839 1.347-.8231 1.965-1.3133.414-.3209.804-.6721 1.166-1.0505.278-.2536.525-.5393.735-.851.333-.4423.624-.9134.872-1.4078.348-.726.64-1.4777.872-2.2483.273-.9245.547-2.1011.704-2.7.158-.5988.2-.6933.294-.6933.095 0 .242.0735.589.5358.48.6854 1.018 1.3286 1.607 1.9225.716.5897 1.531 1.0485 2.406 1.3553.916.3346 1.81.724 2.679 1.1661.647.4033 1.196.9452 1.607 1.5864.164.2058.266.4534.295.7144z" fill="#f4f4f4"/><path d="m127.173 177.108s2.511-8.405 11.43-6.167c0 .042-2.028 8.289-11.43 6.167z" fill="#0f7657"/><path d="m138.603 186.636c-9.455 2.102-11.43-6.156-11.43-6.156 8.909-2.217 11.43 6.156 11.43 6.156z" fill="#0f7657"/><path d="m127.406 90.4028c2.724.3082 5.382.6584 7.974 1.0506-.666.4969-1.369.9429-2.102 1.3343l-2.468 1.5443c-.434.2653-.852.5565-1.251.872-.199.1464-.34.3585-.399.5988-.063.2269-.063.4666 0 .6934.123.3327.264.6588.42.9771.221.5667.366 1.1602.431 1.765.072.8637.023 1.7337-.147 2.5847-.179.987-.504 2.101-.767 3.067-.263.967-.483 1.87-.704 2.763-.22.893-.473 1.807-.63 2.627-.138.693-.229 1.395-.273 2.101-.042.503-.042 1.01 0 1.513.071.323.188.634.346.924.108.249.196.505.263.767.052.225.052.459 0 .683-.031.236-.113.462-.242.662-.138.194-.338.334-.567.399-.277.075-.565.104-.851.084-.277-.023-.551-.072-.819-.147l-.893-.21c-.406-.076-.817-.122-1.23-.136-.421-.018-.842.028-1.25.136-.378.105-.714.273-1.05.378-.302.081-.613.12-.925.116-.318.031-.638.031-.956 0-.288-.05-.563-.157-.809-.315-.176-.113-.321-.268-.42-.452-.02-.061-.02-.128 0-.189-.02-.065-.02-.135 0-.2.073-.073.21-.073.389 0 .597.125 1.22.02 1.744-.294.364-.244.714-.507 1.05-.788.473-.325 1.051-.693 1.524-.956.333-.199.64-.439.914-.714.218-.276.366-.6.43-.946.164-.69.265-1.393.305-2.101v-9.571c0-1.6387 0-2.8363-.084-3.7188-.039-.6999-.039-1.4013 0-2.1012.004-.4288.101-.8517.284-1.2397.308-.5055.66-.9836 1.05-1.4288.441-.5253.998-1.2817 1.713-2.1327z" fill="#a92819"/><path d="m128.382 78.7627c2.101 1.3447 3.351 1.3027 4.57 2.1012-1.977 1.3454-3.771 2.9416-5.337 4.7486-.379.4202-.757.83-1.125 1.2502-1.733-.1891-3.487-.3572-5.252-.5148 1.403-.6285 2.705-1.4604 3.866-2.4689 1.535-1.3774 2.668-3.1457 3.278-5.1163z" fill="#a92819"/><path d="m126.491 86.936 3.603.4308c-.725.8089-1.45 1.6914-2.185 2.5004l-.504.5883c-1.145-.1366-2.312-.2626-3.478-.3677.778-1.1346 1.671-2.1852 2.564-3.1518z" fill="#f4f4f4"/><path d="m126.492 86.9362c-.893 1.0506-1.755 2.1011-2.564 3.1517-1.05-.1155-2.185-.2206-3.288-.3046-2.038-.1891-4.097-.3362-6.199-.4623 1.912-.7879 4.507-1.7755 6.777-2.8996 1.786.105 3.54.2731 5.274.5148z" fill="#a92819"/><path d="m114.113 177.108s2.511-8.405 11.441-6.167c0 .042-2.028 8.289-11.441 6.167z" fill="#0f7657"/><path d="m125.554 186.636c-9.455 2.102-11.441-6.156-11.441-6.156 8.93-2.217 11.441 6.156 11.441 6.156z" fill="#0f7657"/><path d="m120.64 89.7307c-1.922 1.0506-5.463 2.1957-5.778 2.4688-.684 1.2663-1.686 2.3324-2.907 3.0933-1.222.7609-2.62 1.1902-4.058 1.2457-1.293.126-4.896.3467-6.304-.4833-.747-.3338-1.415-.8231-1.9588-1.4355-.5435-.6123-.9502-1.3335-1.1928-2.1155 0 0 0-.105 0-.1681.2392-.7744.3179-1.5895.2311-2.3953-.042-.3845-.1194-.7643-.2311-1.1346h.1891 2.8785c-.245.3123-.426.6691-.536 1.0505-.13.5102-.13 1.0448 0 1.5549.128.5031.381.9657.736 1.3448.355.372.8.6469 1.292.7984.641.3782 5.957.3257 7.154-.5568 1.082-.6457 1.946-1.6008 2.48-2.742.319-.2746.672-.5076 1.05-.6934l.83-.3572c2.028.1891 4.087.3362 6.125.5253z" fill="#a92819"/><path d="m121.216 86.3688c-2.269 1.1241-4.864 2.1012-6.776 2.8996-1.401-.0841-2.801-.1576-4.202-.2206.087-.1575.185-.3085.294-.4518.282-.333.611-.6232.977-.8615.376-.3093.785-.577 1.219-.7984.599-.2732 1.46-.5778 2.374-.956l.242-.1051c1.989.1681 3.946.3327 5.872.4938z" fill="#f4f4f4"/><path d="m98.8291 1.1665 18.6899 18.7004-18.6899 18.7425-18.7004-18.7425zm0 33.8709 15.1709-15.1705-15.1709-15.18093-15.181 15.18093z" fill="#179e6c"/><path d="m116.973 143.804c.173.409.22.86.136 1.296s-.296.837-.609 1.152c-.315.309-.713.52-1.145.609-.434.085-.883.042-1.292-.126-.276-.127-.523-.309-.726-.536-.203-.226-.357-.491-.453-.779-.097-.288-.133-.593-.108-.895.026-.303.113-.597.257-.865.143-.268.34-.503.578-.692s.512-.327.805-.406.6-.097.9-.053c.301.043.589.148.848.307.365.238.648.583.809.988z" fill="#a92819"/><path d="m115.345 85.8854-.241.1051c-.914.3782-1.776.6829-2.375.956-.439.2068-.855.4604-1.239.7564-.366.2383-.695.5285-.978.8615-.108.1433-.207.2943-.294.4518l-2.994-.1051c.083-.1581.139-.3283.168-.5043.074-.2646.074-.5443 0-.8089-.012-.0447-.033-.0865-.062-.1226-.029-.0362-.065-.066-.106-.0875-.044-.02-.093-.0304-.142-.0304s-.097.0104-.141.0304c-.314.0932-.617.22-.904.3782-.272.1249-.553.2302-.84.3151-.166.041-.339.041-.505 0-.094 0-.094-.1365 0-.2941.212-.2063.437-.3992.673-.5778l.704-.5779c.22-.2417.493-.4287.798-.5463.44-.1371.895-.2183 1.355-.2416l1.545-.1261c.191.0109.383-.0104.567-.063z" fill="#a92819"/><path d="m114.442 89.2684-.83.3572c-.378.1858-.731.4188-1.05.6934-.534 1.1412-1.398 2.0963-2.48 2.742-1.198.8825-6.514.935-7.154.5568-.492-.1515-.937-.4264-1.293-.7985-.354-.379-.607-.8416-.735-1.3447-.13-.5102-.13-1.0447 0-1.5549.109-.3814.291-.7382.536-1.0506 1.922 0 3.834 0 5.715.1261-.078.1586-.181.304-.305.4308-.312.2313-.67.3925-1.05.4727-.421.1051-.893.2311-1.25.3467-.256.056-.496.1672-.704.3257-.084.1261-.168.2311-.084.3887s.294.1471.987.1471c.694 0 1.86-.1051 2.627-.1051.507-.0027 1.009-.1138 1.47-.3257.343-.1919.632-.4663.841-.7984.147-.2416.294-.5253.441-.7774 1.492.028 2.931.084 4.318.1681z" fill="#f4f4f4"/><path d="m111.141 179.482-11.3355 11.336-11.3358-11.336 11.3358-11.315zm-11.3355 7.827 7.8165-7.827-7.8165-7.806-7.8163 7.806z" fill="#179e6c"/><path d="m110.333 85.6437c-.184.0526-.376.0739-.567.0631l-1.545.126c-.46.0233-.915.1045-1.355.2417-.305.1175-.578.3045-.798.5463l-.704.5778c-.236.1786-.461.3716-.673.5778-.094.1576-.094.2942 0 .2942.166.0409.339.0409.505 0 .287-.085.568-.1903.84-.3152.287-.1581.59-.2849.904-.3782.044-.02.093-.0304.141-.0304.049 0 .098.0104.142.0304.041.0215.077.0513.106.0875s.05.0779.062.1226c.074.2647.074.5443 0 .809-.029.1759-.085.3461-.168.5042-1.88-.0735-3.792-.105-5.715-.126.064-.0921.134-.1798.21-.2627-.085-.4665-.06-.9462.071-1.4018s.366-.8747.686-1.2246l.483-.4728c2.49.0525 4.938.1261 7.375.2311z" fill="#f4f4f4"/><path d="m110.218 89.0372c-.147.2521-.294.5358-.441.7774-.209.3321-.498.6066-.84.7985-.462.2118-.963.3229-1.471.3256-.767 0-1.923.1051-2.627.1051s-.903 0-.987-.1471 0-.2626.084-.3887c.208-.1585.448-.2697.704-.3257.357-.1155.83-.2416 1.25-.3467.38-.0801.738-.2414 1.05-.4727.124-.1268.227-.2721.305-.4308z" fill="#a92819"/><path d="m98.8279 13.605 6.2511 6.2615-6.2511 6.251-6.2615-6.251z" fill="#2a3277"/><path d="m99.8008 175.947-3.536 3.536 3.536 3.537 3.5362-3.537z" fill="#2a3277"/><path d="m102.959 85.4231-.483.4728c-.325.3534-.562.7778-.694 1.2393-.131.4615-.153.9473-.063 1.4187-.076.0828-.146.1705-.21.2626h-2.8785-.1891c.1267-.3953.2958-.7757.5043-1.1346.023-.7929.2089-1.5725.5463-2.2903 1.177 0 2.322.0105 3.467.0315z" fill="#a92819"/><path d="m98.5752 85.3916h.914c-.3382.7106-.5276 1.4828-.5568 2.2693-.2049.3593-.3704.7397-.4938 1.1346-.1275-.3933-.2929-.7733-.4937-1.1346-.0249-.7871-.2146-1.5601-.5568-2.2693z" fill="#0f7657"/><g fill="#a92819"><path d="m98.6806 89.9408c.0834.8066.0011 1.6216-.2416 2.3953v.1681c0 .0525 0-.105 0-.1681-.2113-.7834-.2719-1.5998-.1786-2.4058.0239-.3795.0837-.7559.1786-1.1241.1153.3699.1961.7498.2416 1.1346z"/><path d="m98.4396 88.7954c-.1233.3654-.2113.7419-.2626 1.1241-.0933.8061-.0327 1.6225.1786 2.4059v.1681c-.2289.748-.6078 1.4414-1.1136 2.0381-.5372.6394-1.203 1.1584-1.9541 1.5234-1.4708.8299-5.0743.6093-6.3666.4832-1.426-.0412-2.8166-.454-4.0342-1.1976-1.2238-.7557-2.2303-1.8164-2.9206-3.0783-.3362-.2731-3.8662-1.4708-5.7888-2.4688 2.0242-.1751 4.0728-.3292 6.146-.4623l.8614.3677c.3576.1835.6896.4131.9876.6829.5321 1.1451 1.3959 2.1041 2.4794 2.7525 1.2081.8825 6.5241.9351 7.1545.5568.4873-.1515.9286-.4235 1.283-.7908.3543-.3672.6105-.8179.7446-1.3103.1294-.4714.1475-.9664.0527-1.446-.0949-.4795-.2999-.9304-.599-1.3171 1.0506-.021 2.1012-.0315 3.1517-.0315z"/><path d="m97.9448 87.6609c.2009.3613.3663.7413.4938 1.1346-1.0506 0-2.1012 0-3.1517 0l-.1891-.2311c.0863-.4721.0611-.9578-.0736-1.4183-.1272-.4634-.3651-.8888-.6934-1.2397-.1681-.1786-.3362-.3572-.5148-.5148h3.6035c.3314.7115.5103 1.4845.5253 2.2693z"/><path d="m98.1162 73.2783c.0016.3132-.023.626-.0735.9351-.161.8848-.5201 1.7216-1.0506 2.4478-.5185.731-1.1932 1.3375-1.9751 1.7755-.785.4322-1.658.6801-2.553.7249-.4223.5115-.9307.9453-1.5023 1.2817.7991.1907 1.5644.5025 2.2693.9245.534.3267 1.0307.7107 1.4813 1.1452.6393.4886 1.2368 1.0298 1.786 1.6179.3509.3798.6511.8036.893 1.2607-1.2082 0-2.4059 0-3.6035 0-.2677-.2557-.5482-.4977-.8405-.7249-.4055-.4061-.8609-.7591-1.3552-1.0506-1.393-.5549-2.8817-.8298-4.381-.809-1.7862-1.0351-3.5184-2.1607-5.1899-3.3723 1.8752-.443 3.7829-.7346 5.7047-.872.7183-.0422 1.4102-.2861 1.9961-.7039.5997-.3895 1.074-.9441 1.3658-1.5969 4.3494.5778 4.8222-3.3409 3.719-4.6541-.7144-1.2292-3.2042-2.3113-5.6731-2.3113-1.8653.1276-3.6436.8367-5.0848 2.0276-.767.4203-4.9483-.4202-6.3771-.4202-.2311-.5988-.2732-.6619-.3677-.935 1.5969-.1471 6.1984-2.8261 7.186-5.9043.6256-1.9542.4673-4.075-.4412-5.9148-.634-1.3653-1.6766-2.4997-2.9837-3.2463-2.1417-1.021-4.6005-1.1532-6.8393-.3677-1.8701 1.0506-2.7 1.765-3.8031 5.3265-2.3417.4667-4.6298 1.1708-6.8288 2.1011-5.9253 2.6685-8.6779 8.1631-11.3779 10.4218-1.0506.893-1.9961 1.1557-3.2358 1.9436-1.0415.5552-1.9275 1.3624-2.5771 2.3478s-1.0422 2.1178-1.142 3.2939c-.2101 1.3447.4518 6.4085 1.0506 10.9786-.9105.2101-1.814.4307-2.7105.6619-.6934-4.6646-1.5023-10.1697-1.1661-12.1133.1358-1.4467.5989-2.8436 1.3543-4.0849.7553-1.2413 1.7831-2.2946 3.0056-3.0801 1.5128-1.1766 3.1517-1.5759 3.8977-2.4794 1.954-2.2482 5.7887-7.9109 12.0292-10.6634 1.7942-.6623 3.6253-1.22 5.484-1.6704.443-1.5062 1.2788-2.8673 2.4216-3.9437 1.1429-1.0764 2.5516-1.8293 4.0815-2.1813 2.6666-.5311 5.4344-.1383 7.8479 1.1137 1.5043.9084 2.7491 2.1893 3.614 3.719 1.0009 1.6572 1.5245 3.5587 1.5129 5.4946-.0174 1.8633-.56 3.684-1.5654 5.2529 2.1618-.7513 4.5185-.7215 6.6607.0841 3.8031 1.2397 4.6541 3.2778 5.0848 4.4334.1744.5791.2595 1.1813.2522 1.786z"/></g><path d="m95.8235 89.9618c.126.5106.126 1.0442 0 1.5549-.1341.4924-.3902.9431-.7446 1.3103-.3544.3673-.7957.6393-1.283.7908-.6304.3783-5.9463.3257-7.1545-.5568-1.0835-.6484-1.9473-1.6074-2.4794-2.7525-.2979-.2698-.6299-.4994-.9875-.6829l-.8615-.3677c1.4498-.084 2.8996-.1681 4.3494-.2311.1576.2626.2942.5463.4413.7774.2131.3325.5055.6069.8509.7985.4555.2091.9488.3235 1.4498.3362.7775 0 1.9541.0945 2.6265.0945s.914 0 1.0506-.1471c.0259-.0676.0259-.1424 0-.2101-.0224-.0656-.0624-.1237-.1156-.1681-.2101-.1575-.4493-.2718-.7039-.3362l-1.2502-.3467c-.3805-.0789-.7391-.2402-1.0505-.4727-.1292-.1283-.2357-.2775-.3152-.4413 1.849-.063 3.7085-.1155 5.5891-.126.2738.3482.474.7486.5883 1.1766z" fill="#f4f4f4"/><path d="m95.0781 88.5958.1891.2312c-1.8805 0-3.74.063-5.5891.126-.0762-.1533-.1327-.3157-.1681-.4832-.0734-.2647-.0734-.5443 0-.809-.0059-.0418-.0059-.0842 0-.126l.1156-.1051c.0451-.0091.0915-.0091.1366 0h.147c.3123.0977.6148.2243.9035.3782.2644.1267.5384.2321.8195.3152.1656.0409.3387.0409.5043 0 .105 0 .105-.1366 0-.2837-.1978-.2172-.4199-.4111-.6619-.5778l-.6934-.5883c-.204-.2442-.4585-.4413-.7459-.5779-.4455-.1231-.9038-.1936-1.3657-.2101l-1.5444-.1155c-.202.0021-.4034-.0226-.5988-.0736 2.4093-.119 4.8327-.1996 7.27-.2416.1786.1576.3467.3362.5148.5148.3282.3509.5662.7763.6934 1.2397.1298.4506.155.9249.0735 1.3867z" fill="#f4f4f4"/><path d="m94.7718 71.6079c1.0506 1.3132.6304 5.2529-3.7191 4.6541-.2718.6666-.7317 1.2397-1.3237 1.6494-.5859.4178-1.2778.6617-1.9961.7039-1.9219.1374-3.8296.429-5.7047.872 1.6715 1.2116 3.4037 2.3372 5.1899 3.3724 1.4993-.0209 2.988.254 4.3809.8089.4944.2915.9498.6445 1.3553 1.0506.2923.2272.5728.4692.8405.7249-2.4374.042-4.8607.1226-7.2701.2416l-.3887-.1365c-.5818-.282-1.1465-.5977-1.6914-.9456-.6409-.4097-1.2397-.8404-1.8911-1.2292l-1.7965-1.2712c-.6093-.4202-1.2502-.8615-2.1012-1.3657-.8509-.5043-1.6704-1.0506-2.2272-1.4498-.3969-.2207-.7523-.5086-1.0506-.851-.2519-.374-.4433-.7852-.5673-1.2187-.0342-.1894-.0943-.3732-.1786-.5463.0694.1453.1887.2609.3362.3257.479.1971.9954.2868 1.5128.2626.8306.0019 1.6598-.0649 2.4794-.1996 1.0506-.1471 2.3743-.4202 3.4249-.6198l2.4899-.4728c.6409-.1051 1.2292-.1786 1.7965-.2206.4194.0098.8368-.0616 1.2292-.2101.2445-.2176.432-.4918.5463-.7985.1718-.3481.4195-.6533.7249-.893.3575-.2735.79-.4311 1.2397-.4517.5106.0373 1.0232.0373 1.5338 0 .3047-.0736.4203-.1786.3257-.3257-.1858-.2131-.4252-.3727-.6934-.4623-.3782-.1365-.7564-.2626-1.1556-.3677-.3992-.1217-.8122-.1923-1.2292-.2101-.3763-.0036-.7512.046-1.1136.1471-.4249.0961-.8373.2406-1.2292.4307-.4327.2365-.8502.4997-1.2502.788-.4583.3251-.9816.5473-1.5339.6513-.7914.105-1.5933.105-2.3848 0-.851-.0735-1.6914-.1996-2.4689-.2836-.7774-.0841-1.4498-.1681-1.9961-.1996-.5463-.0316-1.0506 0-1.2502 0s-.3677-.0736-.5568-.3887c-.2319-.4765-.432-.9679-.5988-1.4709-.2942-.7039-.6409-1.5443-.914-2.3323-.2732-.7879-.5253-1.4813-.6409-1.786-.0526-.26-.0526-.5279 0-.7879.1273-.2636.3144-.4938.5463-.6724.2065-.174.4513-.2965.7144-.3572.1913-.0317.3877-.0099.5673.0631.1695.0522.3267.1379.4623.2521.1819.1647.3377.3559.4623.5673.0859.1508.1881.2917.3046.4202.0661.043.142.0683.2207.0736.0756.021.1555.021.2311 0 .2695-.0675.5278-.1737.7669-.3152.5177-.2528 1.0194-.5369 1.5023-.851.6065-.3828 1.167-.834 1.6705-1.3447.4571-.4374.8153-.9676 1.0506-1.5549.1678-.4859.2426-.9992.2206-1.5128-.0184-1.0247-.3361-2.0217-.914-2.8681-.2866-.4295-.6415-.8092-1.0506-1.1241-.424-.2927-.9029-.4964-1.4078-.5989-.5219-.1063-1.0538-.1556-1.5864-.1471-.5187-.0171-1.0368.0503-1.5338.1996-.4435.1588-.8356.4347-1.1347.7985-.2928.3773-.5299.7948-.7039 1.2397-.1996.4728-.3782.977-.5253 1.4288-.1061.3948-.2503.7783-.4307 1.1451-.1527.278-.3981.4936-.6934.6094-.4053.1748-.8232.3187-1.2502.4307l-2.2482.6304c-.8825.2311-1.8596.4832-2.7526.7984-.9162.3081-1.7939.7205-2.6159 1.2292-1.0198.689-1.9856 1.4547-2.8891 2.2903-.9668.8564-1.8758 1.7759-2.7211 2.7525-.7354.872-1.2291 1.6179-1.6914 2.1957-.3854.4798-.7994.9359-1.2397 1.3658-.4346.4558-.9131.8676-1.4288 1.2292-.6408.4202-1.4603.8404-2.1012 1.2502-.5589.3024-1.0898.654-1.5863 1.0505-.4333.3211-.7769.7479-.9981 1.2397-.2673.6083-.4239 1.2593-.4623 1.9226-.0191.8326.0301 1.6654.1471 2.4899.1261 1.2292.3257 3.0887.5779 4.9483.105.7879.2206 1.5863.3361 2.3428l-2.7.6198c-.6303-4.57-1.2922-9.6339-1.0506-10.9786.0797-1.1846.4564-2.3301 1.0954-3.3307.6389-1.0007 1.5196-1.8243 2.5607-2.395 1.2397-.7879 2.1852-1.0506 3.2358-1.9436 2.6685-2.2587 5.421-7.7533 11.3148-10.4218 2.199-.9304 4.4871-1.6344 6.8288-2.1012 1.0506-3.5615 1.9331-4.3179 3.8031-5.3264 2.2389-.7856 4.6976-.6534 6.8393.3677 1.3071.7466 2.3498 1.881 2.9837 3.2463.9086 1.8397 1.0668 3.9606.4413 5.9148-.9876 3.0782-5.5892 5.7572-7.1861 5.9043.0946.2731.1366.3362.3677.935 1.4288 0 5.6102.8405 6.3771.4202 1.4412-1.1909 3.2196-1.9 5.0848-2.0276 2.5004 0 4.9903 1.0821 5.7047 2.3113z" fill="#f4f4f4"/><path d="m93.0811 90.7181c.0259.0677.0259.1425 0 .2101-.0841.1471-.3047.1471-1.0506.1471s-1.849-.0945-2.6265-.0945c-.5081-.0098-1.0088-.1243-1.4708-.3362-.3454-.1916-.6378-.466-.851-.7985-.147-.2311-.2836-.5148-.4412-.7774l3.0047-.1156c.0795.1638.186.313.3151.4413.3115.2325.6701.3939 1.0506.4727l1.2502.3467c.2546.0645.4938.1787.7039.3362.0532.0444.0932.1026.1156.1681z" fill="#a92819"/><path d="m92.3675 73.0682c.0946.147 0 .2521-.3257.3256-.5106.0374-1.0232.0374-1.5338 0-.4497.0206-.8823.1783-1.2397.4518-.3054.2397-.5531.5448-.7249.893-.1143.3067-.3018.5808-.5463.7984-.3924.1486-.8098.2199-1.2292.2101-.5673 0-1.1557.1156-1.7965.2207l-2.4899.4622c-1.0506.1996-2.3743.4728-3.4249.6199-.8196.1346-1.6489.2014-2.4794.1996-.5174.0242-1.0339-.0655-1.5128-.2627-.1475-.0648-.2668-.1803-.3362-.3256.0842.173.1443.3568.1786.5463.124.4334.3154.8447.5673 1.2186.2982.3424.6537.6304 1.0506.851.5568.3887 1.4183.956 2.2272 1.4498.809.4938 1.4393.9455 2.1012 1.3658l1.7965 1.2502c.6513.3887 1.2502.8194 1.891 1.2292.5449.3478 1.1097.6635 1.6915.9455l.3887.1366c-1.6809.0735-3.3514.1576-5.0113.2731-.8405-.3572-1.702-.7459-2.5739-1.1346-.872-.3887-1.9016-.83-2.6895-1.2397-.7224-.3484-1.4146-.756-2.0697-1.2187-.4162-.3184-.8061-.6698-1.1661-1.0506-.2831-.2446-.5306-.5275-.7354-.8404-.3-.4566-.5601-.9382-.7775-1.4393-.3345-.7292-.6188-1.4804-.851-2.2483-.2941-.9245-.5778-2.1012-.7249-2.7-.147-.5988-.1996-.6934-.2941-.6934-.0946 0-.2312.0736-.5884.5358-.4732.6877-1.0077 1.3312-1.5968 1.9226-.74.5946-1.5794 1.0535-2.4794 1.3552-.9315.312-1.8376.6948-2.7105 1.1452-.652.4001-1.2051.9424-1.6179 1.5864-.1531.185-.2578.4053-.3047.6408-.0579.2346-.0579.4798 0 .7144.2224.5553.5842 1.0438 1.0506 1.4183.5358.4623 1.2082.8615 1.9541 1.4498.9065.7258 1.7629 1.512 2.5634 2.3533.2416.2522.4833.5253.7354.809-2.9101.3572-5.7362.7879-8.5097 1.2397-.3888-.4413-.6514-.7985-.851-.9771s-.3992-.2941-.5358-.2416-.2416.1891-.2942.5358c-.0525.3467 0 .5148 0 .9875-2.5914.4623-5.1093.9596-7.5537 1.4919-.1155-.7564-.2311-1.5549-.3362-2.3428-.2521-1.8596-.4517-3.7191-.5778-4.9483-.0844-.799-.1055-1.6035-.063-2.4058.0478-.6461.2078-1.2789.4727-1.8701.2062-.5035.5392-.945.9666-1.2817.4965-.3966 1.0274-.7482 1.5864-1.0506.6618-.4097 1.4813-.8299 2.1011-1.2502.523-.3605 1.0086-.7722 1.4498-1.2292.4404-.4299.8543-.8859 1.2397-1.3657.4623-.5778.9561-1.3238 1.6915-2.1957.8453-.9766 1.7542-1.8961 2.721-2.7526.9035-.8356 1.8694-1.6012 2.8891-2.2903.822-.5086 1.6997-.9211 2.616-1.2291.893-.3152 1.87-.5674 2.7525-.7985l2.2482-.6303c.427-.112.8449-.256 1.2502-.4308.2954-.1157.5407-.3313.6934-.6093.1804-.3669.3247-.7504.4308-1.1452.1471-.4517.3257-.956.5253-1.4287.1739-.4449.411-.8624.7039-1.2397.299-.3638.6912-.6398 1.1346-.7985.497-.1494 1.0151-.2168 1.5338-.1996.5326-.0086 1.0645.0408 1.5864.1471.5049.1025.9838.3062 1.4078.5988.4091.315.764.6947 1.0506 1.1241.5779.8464.8957 1.8434.914 2.8681.022.5137-.0528 1.0269-.2206 1.5129-.2353.5873-.5935 1.1175-1.0506 1.5549-.5035.5106-1.064.9619-1.6704 1.3447-.483.314-.9847.5982-1.5024.851-.2391.1415-.4974.2477-.7669.3152-.0756.021-.1555.021-.2311 0-.0786-.0054-.1546-.0307-.2206-.0736-.1166-.1286-.2188-.2695-.3047-.4202-.1245-.2114-.2804-.4027-.4623-.5673-.1356-.1142-.2928-.1999-.4622-.2522-.1797-.0729-.3761-.0948-.5673-.063-.2631.0607-.508.1831-.7144.3572-.232.1785-.4191.4088-.5464.6724-.0526.26-.0526.5279 0 .7879.1156.3047.3677 1.0506.6409 1.786s.6198 1.6284.914 2.3323c.1669.503.3669.9943.5988 1.4708.1892.3152.3572.3887.5569.3887h1.2502c.5568 0 1.2081.1156 1.9961.1996.7879.0841 1.6179.2102 2.4688.2837.7915.105 1.5934.105 2.3849 0 .5522-.104 1.0755-.3262 1.5338-.6514.4-.2883.8176-.5514 1.2502-.7879.4239-.1827.8684-.3133 1.3238-.3887.3624-.1011.7373-.1507 1.1136-.1471.4169.0178.83.0884 1.2292.2101.3992.1051.7774.2312 1.1556.3677.2625.0747.5014.2158.6934.4098z" fill="#a92819"/><path d="m92.1882 87.808c.1051.1471.1051.2837 0 .2837-.1656.0409-.3386.0409-.5042 0-.2812-.0831-.5552-.1885-.8195-.3152-.2887-.1539-.5912-.2806-.9035-.3782h-.1471c-.0451-.0091-.0915-.0091-.1366 0l-.1155.105c-.0059.0419-.0059.0843 0 .1261-.0735.2647-.0735.5443 0 .809.0354.1675.0918.3299.1681.4832l-3.0572.1156c-.0858-.1583-.1841-.3093-.2942-.4518-.2821-.333-.6113-.6232-.9771-.8614-.3863-.2938-.8017-.5473-1.2396-.7565-.6094-.2731-1.4604-.5673-2.3849-.9455l-.2626-.1156c1.6599-.1155 3.3303-.1996 5.0113-.2731.1955.0509.3968.0757.5988.0735l1.5444.1786c.4619.0165.9203.087 1.3657.2102.3071.1194.5835.306.809.5463l.6934.5883c.2383.1673.4568.3612.6513.5778z" fill="#a92819"/><path d="m90.3504 162.137v2.542c-67.0484 0-89.478414-25.623-90.3504-26.716l1.84903-1.65c.21012.253 22.74517 25.824 88.50137 25.824z" fill="#4c8bca"/><path d="m86.3777 88.617c.11.1424.2084.2935.2941.4517-1.4498.0631-2.8996.1471-4.3494.2312-1.9015-.7985-4.507-1.786-6.7763-2.8997 1.9646-.1891 3.9502-.3361 5.9674-.4622l.2626.1156c.9245.3782 1.7755.6723 2.3848.9455.438.2092.8534.4626 1.2397.7564.3658.2382.6949.5284.9771.8615z" fill="#f4f4f4"/><path d="m84.9709 144.54c-.0012.438-.1329.866-.3782 1.229-.2368.375-.5861.665-.9981.83-.4092.167-.8584.21-1.2922.126-.4339-.085-.8327-.297-1.1451-.61-.3107-.314-.5226-.712-.6094-1.145-.0851-.43-.0412-.876.1261-1.281.1547-.432.4462-.801.83-1.051.363-.245.791-.377 1.2292-.378.5918.005 1.1578.243 1.5762.661.4185.419.656.985.6615 1.577z" fill="#a92819"/><path d="m84.1102 114.902c.3564 1.169.346 2.419-.0296 3.582-.3757 1.162-1.0987 2.182-2.0716 2.921-1.5887 1.284-3.5905 1.945-5.6311 1.86-1.079-.009-2.1473-.215-3.1518-.609-1.6601.458-3.4031.529-5.0953.21-2.2588-.494-6.8603-3.719-4.3705-10.023-.4626-2.889-1.1225-5.743-1.9751-8.541-.5867-2.015-.7371-4.132-.4412-6.2091l-.3677-.2102c-.2821 2.0658-.9636 4.0573-2.0066 5.8623-.5778 1.576-4.6331 4.202-5.8518 5.053-.7144.589-3.8451 3.152-5.8833 4.812.9.993 1.4335 2.263 1.5119 3.601.0783 1.338-.3032 2.662-1.0811 3.753-1.113 1.311-2.6267 2.219-4.3072 2.584-1.6805.364-3.4344.165-4.9905-.567-1.8753-.986-3.3087-2.645-4.0132-4.643-1.3643-.919-2.4363-2.21-3.0888-3.719-.4311-1.055-.5934-2.201-.4724-3.334s.5216-2.219 1.1658-3.159c1.6494-2.479 3.2253-2.164 5.316-4.644 2.8261-3.246 2.3008-4.4541 6.8603-7.9421l-.063-.4307c.893-.2311 1.786-.4623 2.7-.6829.1471.9876.2626 1.8806.3677 2.616-2.9312 1.2397-4.5491 3.9917-7.0284 7.4377-2.7841 3.614-4.486 3.488-5.7257 5.085-.4274.567-.6958 1.238-.7775 1.944-.0899.712.0042 1.435.2732 2.101.977 2.101 1.849 1.986 2.637 2.952.7564.736.8509 2.732 3.0572 3.814 3.572 1.397 6.4821-.378 6.3035-3.047-.0304-.512-.1898-1.008-.4636-1.441-.2737-.434-.6528-.791-1.1018-1.038-.145-.635-.3418-1.257-.5883-1.86 3.2693-3.025 6.7331-5.832 10.3693-8.405 1.3013-.785 2.3342-1.946 2.9626-3.33.8954-2.6405 1.5013-5.3705 1.807-8.1419.2206.1786.4518.3572.6829.5148 1.5969 1.1661 3.2988 2.1011 4.9588 3.1517-.6523 1.7949-.7656 3.7414-.3257 5.5994 0 .746 2.4689 7.932 2.3218 11.084-1.8806 3.835.4517 6.125 2.1011 6.619 2.2798.661 3.3409-.274 4.9483-.274.2096.003.4153.057.5988.158.9981.402 2.0814.547 3.15.42s2.0881-.52 2.9644-1.145c.4353-.337.7789-.779.9991-1.283.2203-.505.3103-1.057.2617-1.606-.06-.547-.2549-1.07-.5674-1.523-.3143-.453-.7417-.815-1.2397-1.051-.6349-.26-1.3303-.337-2.0066-.221-.7086-.699-1.5113-1.297-2.3848-1.775-.2627-6.146 0-9.634 0-14.4561.084-2.5844 0-3.5299-.5463-4.6225-.5988-.893-1.2187-1.765-1.8806-2.616 1.0506-.1156 2.2168-.2311 3.3304-.3257.9572 1.1768 1.5942 2.5809 1.849 4.0763.1155 2.1451.1155 4.2949 0 6.44v9.928l.7039.473c1.2188.066 2.3879.505 3.3497 1.256s1.6701 1.78 2.0293 2.946z" fill="#a92819"/><path d="m72.491 186.636s2.5109-8.404 11.4408-6.156c0-.042-2.0276 8.278-11.4408 6.156z" fill="#0f7657"/><path d="m83.9318 177.108c-9.4552 2.101-11.4408-6.167-11.4408-6.167 8.9299-2.227 11.4408 6.167 11.4408 6.167z" fill="#0f7657"/><path d="m81.5673 116.352c.0486.549-.0413 1.101-.2616 1.606s-.5638.946-.9991 1.283c-.8763.625-1.8958 1.019-2.9644 1.145-1.0686.127-2.1519-.017-3.15-.42-.1836-.101-.3893-.155-.5988-.157-1.6074 0-2.6685.935-4.9483.273-1.6389-.494-3.9712-2.784-2.1012-6.619.1471-3.152-2.2797-10.338-2.3218-11.084-.4398-1.858-.3266-3.8043.3257-5.5991-1.6599-1.0506-3.3618-2.0382-4.9587-3.1518l-.2627-1.6599c.7459-.1366 1.5234-.2627 2.2903-.3677.6317.4606 1.2913.8817 1.9751 1.2607.9035.4833 1.807 1.1241 2.4899 1.5443.4543.265.8928.5561 1.3132.872.1955.1481.333.36.3887.5989.0629.2233.0629.4596 0 .6828-.0735.2732-.2416.5463-.4202.9876-.2208.531-.3692 1.0893-.4413 1.6599-.0772.8643-.0276 1.7343.1471 2.5843.1891.988.5148 2.101.788 3.078.2731.977.4727 1.87.7039 2.763.2311.893.4517 1.807.6198 2.616.1252.695.2094 1.397.2521 2.102.0526.502.0526 1.009 0 1.512-.0621.322-.1681.633-.3151.925-.1208.241-.2159.495-.2837.756-.042.23-.042.464 0 .694.035.233.1211.455.2522.651.1384.194.3384.334.5673.399.2763.079.564.111.851.095.2688-.033.5355-.082.7984-.147l.9035-.221c.4059-.074.8168-.116 1.2292-.126.4171-.016.8344.026 1.2397.126.3782.116.7039.273 1.0506.378.3081.084.6261.127.9455.126.3179.032.6381.032.956 0 .2808-.058.5481-.168.788-.325.186-.104.3362-.261.4307-.452.0343-.057.0524-.122.0524-.189s-.0181-.132-.0524-.189c-.077-.077-.2031-.077-.3782 0-.6011.12-1.2255.015-1.7545-.294-.3362-.2-.6198-.473-1.0506-.799-.4307-.326-1.0506-.683-1.5233-.956-.3333-.199-.6404-.439-.914-.714-.2246-.272-.3732-.598-.4308-.946-.1811-.688-.2972-1.391-.3467-2.101v-9.529c0-1.6387 0-2.8363.0736-3.7188.0735-.8825 0-1.5654 0-2.1012-.0278-.4229-.1461-.8349-.3467-1.2082-.31-.5111-.6614-.996-1.0506-1.4498-.4307-.5463-.9665-1.2817-1.6494-2.1012 1.0506-.126 2.2062-.2416 3.3093-.3467.6619.851 1.2817 1.723 1.8806 2.616.5042 1.0506.6303 2.0381.5463 4.6226 0 4.8223-.2627 8.3103 0 14.4563.9042.458 1.7389 1.041 2.4794 1.733.6763-.116 1.3717-.04 2.0066.221.4979.236.9254.598 1.2397 1.05.3397.456.5568.992.6303 1.555z" fill="#f4f4f4"/><path d="m78.9409 84.8351c.872.3887 1.7334.7774 2.5739 1.1346-2.0171.1261-4.0027.2732-5.9673.4623-1.386-.6377-2.6766-1.4651-3.8347-2.4584-1.5558-1.3748-2.695-3.1582-3.2883-5.1479-2.1957 1.2713-3.4459 1.2187-4.6751 2.1012 1.972 1.3476 3.7653 2.9397 5.337 4.7382.4097.4412.8089.8824 1.1976 1.3342l-3.4564.4202c-.2521-.2836-.4938-.5568-.7354-.8089-.8005-.8413-1.6569-1.6275-2.5634-2.3533-.7459-.5884-1.4183-.9876-1.9541-1.4498-.4663-.3746-.8282-.8631-1.0506-1.4183-.0579-.2346-.0579-.4798 0-.7144.0469-.2356.1516-.4558.3047-.6409.4128-.644.9659-1.1863 1.6179-1.5864.8729-.4504 1.7791-.8332 2.7105-1.1451.9-.3018 1.7394-.7606 2.4794-1.3553.5891-.5914 1.1236-1.2348 1.5969-1.9225.3572-.4623.4832-.5358.5883-.5358s.1471.0735.2942.6934c.147.6198.4307 1.7754.7249 2.7.2321.7679.5164 1.519.8509 2.2482.2174.5012.4775.9828.7775 1.4393.2048.313.4524.5959.7354.8405.36.3808.7499.7321 1.1661 1.0506.6178.4609 1.2712.8719 1.9541 1.2292.7144.2836 1.6599.6933 2.616 1.1451z" fill="#f4f4f4"/><path d="m78.8367 116.353c.0343.057.0524.122.0524.189s-.0181.132-.0524.189c-.0945.191-.2447.348-.4307.452-.2398.157-.5072.268-.7879.326-.3179.031-.6382.031-.9561 0-.3194 0-.6373-.043-.9455-.126-.3257-.105-.6514-.263-1.0506-.379-.4052-.1-.8226-.142-1.2397-.126-.4123.011-.8233.053-1.2292.126l-.9035.221c-.2629.065-.5295.114-.7984.147-.287.017-.5747-.015-.851-.094-.2288-.065-.4289-.206-.5673-.4-.1311-.196-.2172-.418-.2521-.651-.0421-.229-.0421-.464 0-.693.0678-.262.1628-.515.2836-.757.147-.292.2531-.603.3152-.924.0525-.503.0525-1.01 0-1.513-.0427-.705-.1269-1.407-.2522-2.101-.168-.809-.3992-1.723-.6198-2.616s-.4412-1.786-.7039-2.763c-.2626-.977-.5988-2.102-.7879-3.079-.1702-.846-.2162-1.714-.1366-2.5736.0659-.6068.218-1.2011.4517-1.7649.1786-.4413.3467-.7145.4203-.9876.0628-.2233.0628-.4596 0-.6829-.0557-.2388-.1932-.4507-.3887-.5988-.4202-.3195-.8587-.6142-1.3133-.8825-.6829-.4202-1.5864-1.0506-2.4899-1.5444-.6688-.3737-1.3144-.7877-1.933-1.2397 2.5704-.3992 5.2074-.7494 7.9109-1.0505.6829.8299 1.2187 1.5653 1.6494 2.1011.3892.4538.7406.9387 1.0506 1.4498.1795.3887.2727.8116.2731 1.2397v2.1012c0 .9245-.0735 2.1012-.0735 3.7191v9.581c.0495.71.1656 1.413.3467 2.101.0576.348.2062.674.4307.946.2737.275.5808.515.914.714.4518.274 1.0506.631 1.5234.956.4727.326.7354.599 1.0506.799.5364.269 1.1516.336 1.7334.189.1681-.056.2872-.056.3572 0z" fill="#a92819"/><path d="m75.5487 86.3999c2.2693 1.1136 4.8747 2.1012 6.7763 2.8996-2.1012.1261-4.1498.2802-6.1459.4623-1.1137.0945-2.2273.2101-3.3304.3257-.8194-1.0506-1.6704-2.1012-2.5634-3.1518 1.7334-.2101 3.4984-.3782 5.2634-.5358z" fill="#a92819"/><path d="m71.7134 83.9416c1.1581.9933 2.4486 1.8207 3.8347 2.4584-1.765.1576-3.53.3257-5.253.5148-.3887-.4518-.7879-.893-1.1976-1.3343-1.5685-1.7978-3.3582-3.3898-5.3265-4.7381 1.2292-.83 2.4794-.7775 4.6751-2.1012.5786 2.0062 1.711 3.8086 3.2673 5.2004z" fill="#a92819"/><path d="m72.8485 90.0878c-1.0506.1051-2.2167.2206-3.3093.3467l-.5148-.6409c-.7144-.7984-1.4393-1.6704-2.1012-2.4583l3.3619-.3993c.893 1.0506 1.744 2.1012 2.5634 3.1518z" fill="#f4f4f4"/><path d="m69.0232 89.7935.5673.6409c-2.6965.3152-5.3334.6654-7.9109 1.0506l-.6198-.4623c-.8317-.6037-1.6182-1.2674-2.3533-1.9856l-.3888-.4307c2.7736-.4518 5.5997-.8825 8.5098-1.2397.7039.7564 1.4288 1.6704 2.1957 2.4268z" fill="#a92819"/><path d="m69.2245 22.3354h-30.6245v2.4899h30.6245z" fill="#179e6c"/><path d="m69.0768 11.2939h-30.6245v2.4899h30.6245z" fill="#a92819"/><path d="m69.0768 0h-30.6245v2.48989h30.6245z" fill="#179e6c"/><path d="m59.441 186.636s2.5214-8.404 11.4409-6.156c0-.042-2.0276 8.278-11.4409 6.156z" fill="#0f7657"/><path d="m70.8819 177.108c-9.4553 2.101-11.4409-6.167-11.4409-6.167 8.9195-2.227 11.4409 6.167 11.4409 6.167z" fill="#0f7657"/><path d="m68.1194 35.2893.2941 2.4689c-13.3739 1.5759-23.6066 6.7868-30.467 15.4856-11.7245 15.0024-9.3397 35.5623-9.3081 35.7935l-2.4689.3046c-.1156-.8825-2.5529-21.7576 9.8545-37.6004 7.2385-9.2662 18.0385-14.7923 32.0954-16.4522z" fill="#4c8bca"/><path d="m61.006 91.0438.6199.4623c-.767.105-1.5444.2311-2.2903.3677-1.0506.1681-2.1012.3572-3.1518.5463.1471-.935.2732-1.828.3467-2.5004 0-.4202.0631-.7564.0841-1.0506l1.7229-.3046.3888.4307c.7093.7371 1.4712 1.4218 2.2797 2.0486z" fill="#f4f4f4"/><path d="m59.3359 91.8735.2311 1.66c-.2311-.1576-.4622-.3362-.6829-.5148-.3057 2.7714-.9116 5.5014-1.807 8.1423-.6284 1.384-1.6613 2.545-2.9626 3.33-3.6361 2.572-7.1 5.38-10.3693 8.405.2466.602.4433 1.224.5883 1.859.451.246.8322.603 1.1078 1.037.2756.433.4367.93.4681 1.443.1681 2.668-2.742 4.444-6.3035 3.046-2.2062-1.05-2.3008-3.078-3.0572-3.813-.788-.967-1.6599-.851-2.637-2.952-.269-.666-.3631-1.389-.2731-2.102.0816-.705.35-1.376.7774-1.943 1.2397-1.597 2.9416-1.471 5.7257-5.085 2.4794-3.446 4.0973-6.1984 7.0284-7.4381-.1051-.7354-.2206-1.6284-.3677-2.616.893-.2206 1.8175-.4202 2.7315-.6198.1681 1.1451.2732 1.9751.3362 2.6684.063.6934.2206 1.3658.2206 1.744s0 .5148-.126.6409c-.1997.1627-.4276.2874-.6724.3677-.6115.1964-1.1917.4794-1.723.8405-.9054.6624-1.7212 1.4394-2.4268 2.3114-.767.924-1.3973 1.943-2.0277 2.815-.525.765-1.0896 1.501-1.6914 2.207-.5008.543-1.0341 1.055-1.5969 1.533-.4907.443-1.0064.857-1.5443 1.24-.4728.326-.83.536-1.1242.746-.2646.178-.4753.425-.6093.714-.0624.15-.0946.311-.0946.473 0 .163.0322.323.0946.473.1639.347.4046.653.7039.893.3046.273.6513.483.977.767.3334.315.6295.668.8825 1.051.2285.332.4288.684.5988 1.05.1282.297.2756.584.4413.862.1693.269.4091.487.6934.63.3305.144.6904.209 1.0506.189.2984.009.5964-.03.8825-.116.0733-.02.1414-.055.1996-.105.0541-.048.1003-.105.1365-.168v-.073-.084-.074h-.0525c-.1517-.083-.3208-.13-.4938-.136-.0945-.021-.1862-.052-.2731-.095-.0829-.06-.1541-.135-.2101-.221-.144-.243-.2436-.509-.2942-.787 0-.316-.1261-.61-.1996-.935-.0881-.336-.1968-.666-.3257-.988-.1155-.326-.2521-.62-.3467-.967-.1382-.332-.1747-.697-.105-1.05.2309-.48.5645-.903.977-1.24.5778-.557 1.4498-1.397 2.4899-2.238 1.0401-.84 2.1012-1.681 3.1518-2.574 1.0505-.893 2.1852-1.817 3.1517-2.552.9665-.736 1.849-1.24 2.4794-1.734.5332-.37.9809-.85 1.3132-1.408.3269-.6639.5569-1.3715.6829-2.1009.2311-1.0506.5253-2.4794.7879-3.9817.1051-.5988.2102-1.2502.3047-1.8911 1.0611-.2206 2.1117-.3677 3.1833-.5358z" fill="#f4f4f4"/><path d="m58.3189 88.5746-1.723.3046c0-.4727 0-.7669 0-.9875s.1576-.4728.2942-.5358c.1366-.0631.2837 0 .5358.2416.2522.2416.5043.5358.893.9771z" fill="#efe7dc"/><path d="m56.5956 88.8794c0 .2837 0 .6198-.0841 1.0506-.0735.6724-.1996 1.5654-.3467 2.5004-2.2622.4132-4.4685.858-6.6186 1.3342 0-.1681 0-.3362-.0736-.5043-.1156-.8299-.2731-1.828-.4307-2.8786 2.4373-.5393 4.9552-1.04 7.5537-1.5023z" fill="#a92819"/><path d="m56.1645 92.4199c-.0945.6409-.1996 1.2922-.3046 1.8911-.2627 1.5023-.5568 2.9836-.788 3.9817-.126.7294-.3559 1.437-.6828 2.1013-.3323.557-.7801 1.037-1.3133 1.408-.6303.493-1.5023 1.05-2.4794 1.733-.977.683-2.1011 1.671-3.1517 2.553-1.0506.883-2.1537 1.723-3.1518 2.574-.998.851-1.912 1.681-2.4899 2.238-.4125.336-.7461.76-.977 1.239-.0697.353-.0332.719.1051 1.051.0945.347.2311.641.3466.967.1289.322.2377.651.3257.987.0736.326.1471.62.1996.935.0506.278.1502.545.2942.788.056.086.1272.161.2101.221.0869.042.1786.074.2732.094.1729.007.342.054.4937.137h.0526v.073.084.074c-.0363.063-.0824.12-.1366.168-.0581.049-.1262.085-.1996.105-.2861.086-.5841.125-.8825.116-.3602.02-.7201-.045-1.0506-.189-.2843-.143-.5241-.361-.6934-.631-.1657-.277-.3131-.565-.4412-.861-.17-.367-.3703-.718-.5989-1.051-.253-.383-.5491-.735-.8824-1.05-.3257-.284-.6724-.494-.9771-.767-.2993-.241-.54-.546-.7039-.893-.0624-.15-.0945-.311-.0945-.473s.0321-.323.0945-.473c.134-.289.3448-.536.6094-.714.2941-.21.6513-.421 1.1241-.746.538-.384 1.0536-.798 1.5443-1.24.5628-.478 1.0961-.991 1.5969-1.534.6018-.705 1.1664-1.442 1.6915-2.206.6303-.872 1.2607-1.891 2.0276-2.816.7056-.872 1.5214-1.649 2.4269-2.3109.5312-.361 1.1114-.644 1.7229-.8404.2448-.0803.4727-.205.6724-.3677.1261-.1261.1261-.2522.1261-.6409s-.1471-.956-.2207-1.744c-.0735-.7879-.168-1.5233-.3361-2.6685 2.1572-.4622 4.3634-.8965 6.6186-1.3027z" fill="#a92819"/><path d="m46.3813 186.636s2.5215-8.404 11.4409-6.156c.0105-.042-2.0276 8.278-11.4409 6.156z" fill="#0f7657"/><path d="m57.8359 177.108c-9.4552 2.101-11.4513-6.167-11.4408-6.167 8.972-2.227 11.4408 6.167 11.4408 6.167z" fill="#0f7657"/><path d="m53.8215 140.442c.0008.44-.127.871-.3677 1.24-.2625.372-.6274.661-1.0506.83-.3973.141-.8243.177-1.2397.105-.4316-.089-.8268-.305-1.1346-.62-.3103-.312-.5217-.709-.6076-1.141-.086-.431-.0427-.879.1243-1.286.1601-.425.446-.792.8195-1.05.3645-.252.7967-.388 1.2396-.389.59.008 1.1533.247 1.5696.665.4162.418.6523.983.6577 1.573z" fill="#a92819"/><path d="m49.4713 93.2397c0 .1681 0 .3362.0736.5043-.914.1996-1.8386.3992-2.7316.6198-.147-1.0506-.3046-2.1957-.4727-3.3829l2.721-.6093c.1366 1.0506.2942 2.0486.4097 2.8681z" fill="#f4f4f4"/><path d="m46.34 90.9912c.1681 1.1872.3257 2.3428.4728 3.3829-.914.2206-1.807.4518-2.7.6829-.1366-1.0506-.3047-2.1852-.4833-3.4039.8965-.2312 1.8-.4518 2.7105-.6619z" fill="#a92819"/><path d="m33.3022 186.636s2.5109-8.404 11.4304-6.156c.0315-.042-1.9751 8.278-11.4304 6.156z" fill="#0f7657"/><path d="m44.7641 177.107c-9.3607 2.123-11.4619-6.125-11.4619-6.125 8.951-2.269 11.4619 6.125 11.4619 6.125z" fill="#0f7657"/><path d="m20.2756 186.636s2.5214-8.404 11.4409-6.156c0-.042-2.0171 8.278-11.4409 6.156z" fill="#0f7657"/><path d="m31.7165 177.108c-9.4553 2.101-11.4409-6.167-11.4409-6.167 8.93-2.227 11.4409 6.167 11.4409 6.167z" fill="#0f7657"/><path d="m28.9837 1.56543c.788 9.36067-1.3237 16.36817-6.3035 20.84357-4.9798 4.4755-11.5564 5.358-16.01092 5.358-1.63594.0058-3.26967-.1207-4.88522-.3782l.44124-2.4373c.11557 0 11.735 2.1011 18.837-4.381 4.3284-3.9292 6.1669-10.2432 5.4525-18.78445z" fill="#2a3277"/><path d="m26.3705 34.4067 1.3238 2.1012c-19.39385 12.3024-17.84949 52.5293-17.82848 52.9705l-2.47938.1156c-.07354-1.7125-1.63891-42.1075 18.98406-55.1873z" fill="#4c8bca"/><path d="m23.4924 128.812c.1082.275.1652.566.1681.861.0021.449-.1285.887-.3753 1.261s-.5987.666-1.0115.841c-.4092.167-.8583.21-1.2922.126-.4315-.088-.8275-.301-1.1379-.613s-.5213-.71-.606-1.142c-.0854-.434-.0416-.883.126-1.292.1612-.428.4512-.795.83-1.051.3664-.245.7987-.373 1.2397-.367.2944-.001.5864.053.8615.157.2681.117.5108.284.7144.494.2053.209.3693.455.4832.725z" fill="#a92819"/><path d="m10.0973.693383c1.8412.008303 3.6388.561887 5.1657 1.590867 1.5269 1.02899 2.7148 2.48726 3.4136 4.19074.6989 1.70348.8774 3.57581.5132 5.38071-.3643 1.8049-1.2552 3.4614-2.5601 4.7604s-2.9654 2.1824-4.7718 2.5386c-1.8065.3561-3.67806.1692-5.37838-.5374-1.70032-.7065-3.15323-1.9009-4.17534-3.4324-1.0221-1.5316-1.567589-3.3316-1.567608-5.1728.002756-1.22653.247065-2.44049.718978-3.57258.47191-1.13209 1.16219-2.16014 2.03141-3.02546.86922-.86533 1.90037-1.55097 3.03458-2.01778 1.1342-.466815 2.34924-.705659 3.57576-.702897zm6.8393 9.318717c0-1.35271-.4011-2.67502-1.1526-3.79974s-1.8197-2.00133-3.0694-2.51898-2.6249-.6531-3.95159-.3892c-1.3267.2639-2.54535.91528-3.50184 1.87177-.9565.9565-1.60788 2.17515-1.87178 3.50184-.26389 1.32671-.12845 2.70181.3892 3.95161.51765 1.2497 1.39426 2.3178 2.51898 3.0694 1.12472.7515 2.44703 1.1526 3.79973 1.1526.8981 0 1.7875-.1769 2.6173-.5206s1.5837-.8475 2.2188-1.4826 1.1389-1.389 1.4826-2.2188.5206-1.7192.5206-2.6173z" fill="#179e6c"/><path d="m7.21777 186.636s2.53191-8.404 11.44093-6.156c0-.042-2.0172 8.278-11.44093 6.156z" fill="#0f7657"/><path d="m18.6587 177.107c-9.40279 2.123-11.44093-6.125-11.44093-6.125 8.93003-2.269 11.44093 6.125 11.44093 6.125z" fill="#0f7657"/><path d="m10.0949 7.77444c.4456-.00208.8817.12828 1.253.37452.3714.24624.6612.59726.8326 1.0085.1715.41124.2169.86414.1305 1.30124s-.3008.8387-.6158 1.1537c-.3151.3151-.7166.5294-1.1537.6158s-.89004.041-1.30128-.1304c-.41124-.1715-.76226-.4613-1.0085-.8326s-.3766-.8075-.37452-1.253c0-.5935.23576-1.16268.65542-1.58234s.98884-.65542 1.58228-.65542z" fill="#2a3277"/></svg>