<svg fill="none" height="200" viewBox="0 0 183 200" width="183" xmlns="http://www.w3.org/2000/svg"><path d="m182.124 106.514h-17.253v3.304h17.253z" fill="#179e6c"/><path d="m182.09 90.5h-17.252v3.3044h17.252z" fill="#179e6c"/><path d="m182.006 98.2632h-17.252v3.3048h17.252z" fill="#a92819"/><path d="m181.348 180.746h-137.577v3.304h137.577z" fill="#179e6c"/><path d="m180.915 27.0704.275 3.2938c-1.27.0953-2.499.1589-3.685.1589-7.636 0-13.493-2.1924-17.422-6.5453-7.414-8.1338-5.158-20.68413-5.063-21.1819l3.252.59309c0 .1165-2.013 11.50181 4.236 18.41771 3.855 4.1834 10.03 5.9627 18.407 5.2637z" fill="#2a3277"/><path d="m176.889 190.616h-2.478v8.918h2.478z" fill="#a92819"/><path d="m176.889 189.377h-2.478v1.239h2.478z" fill="#a92819"/><path d="m173.598 77.7273c1.497 0 2.711-1.2139 2.711-2.7113s-1.214-2.7113-2.711-2.7113c-1.498 0-2.712 1.2139-2.712 2.7113s1.214 2.7113 2.712 2.7113z" fill="#2a3277"/><path d="m173.162 128.119c1.497 0 2.711-1.214 2.711-2.711 0-1.498-1.214-2.712-2.711-2.712s-2.711 1.214-2.711 2.712c0 1.497 1.214 2.711 2.711 2.711z" fill="#2a3277"/><path d="m172.74 13.3659c1.234 0 2.234-1.0005 2.234-2.2347 0-1.23421-1-2.23472-2.234-2.23472-1.235 0-2.235 1.00051-2.235 2.23472 0 1.2342 1 2.2347 2.235 2.2347z" fill="#2a3277"/><path d="m170.186 190.616h-2.479v8.918h2.479z" fill="#a92819"/><path d="m170.186 189.377h-2.479v1.239h2.479z" fill="#a92819"/><path d="m166.121 75.0265c0-1.4788.438-2.9245 1.26-4.1541s1.989-2.188 3.356-2.7539c1.366-.5659 2.869-.714 4.32-.4255 1.45.2885 2.783 1.0006 3.828 2.0463 1.046 1.0458 1.758 2.3781 2.047 3.8285.288 1.4505.14 2.9539-.426 4.3202-.566 1.3662-1.524 2.534-2.754 3.3556-1.229.8216-2.675 1.2602-4.154 1.2602-1.982-.0028-3.882-.7915-5.284-2.1931-1.402-1.4017-2.19-3.3019-2.193-5.2842zm7.477-4.9989c-.989 0-1.955.2932-2.777.8425s-1.463 1.33-1.841 2.2434c-.379.9135-.478 1.9186-.285 2.8883s.669 1.8604 1.368 2.5595 1.59 1.1752 2.56 1.3681 1.975.0939 2.888-.2844c.914-.3784 1.694-1.0191 2.244-1.8412.549-.8221.842-1.7886.842-2.7773-.003-1.3249-.53-2.5948-1.467-3.5317-.937-.9368-2.207-1.4644-3.532-1.4672z" fill="#179e6c"/><path d="m173.162 120.472c-.988 0-1.955.294-2.777.843s-1.463 1.33-1.841 2.243c-.378.914-.477 1.919-.285 2.889.193.969.669 1.86 1.369 2.559.699.699 1.589 1.175 2.559 1.368s1.975.094 2.888-.284c.914-.379 1.694-1.019 2.244-1.841.549-.822.842-1.789.842-2.778 0-1.325-.526-2.597-1.464-3.534-.937-.938-2.209-1.465-3.535-1.465zm7.478 4.999c0 1.479-.439 2.925-1.261 4.154-.821 1.23-1.989 2.188-3.355 2.754-1.367.566-2.87.714-4.32.426-1.451-.289-2.783-1.001-3.829-2.046-1.046-1.046-1.758-2.378-2.046-3.829-.289-1.45-.141-2.954.425-4.32s1.525-2.534 2.754-3.356c1.23-.821 2.675-1.26 4.154-1.26 1.973.006 3.863.788 5.263 2.178 1.399 1.389 2.195 3.274 2.215 5.246z" fill="#179e6c"/><path d="m167.423 167.179c.33.401.492.915.45 1.433-.041.517-.282.999-.672 1.342-.19.168-.411.296-.651.376-.241.08-.495.111-.747.09s-.498-.093-.722-.211-.421-.281-.581-.477l-10.358-12.583-10.368 12.561c-.157.198-.353.362-.575.482-.222.121-.467.194-.718.217-.252.023-.505-.006-.746-.084-.24-.078-.462-.204-.652-.371-.391-.347-.633-.832-.674-1.353-.042-.522.121-1.039.452-1.443l10.75-13.048-3.506-4.237c-.331-.402-.492-.918-.451-1.437.042-.52.283-1.003.674-1.348.19-.167.412-.295.653-.374.24-.079.494-.109.747-.087.252.022.498.095.721.214.224.119.421.282.579.48l1.059 1.324v-93.3172l-7.011-8.3351c-.325-.4014-.48-.9147-.43-1.4291.049-.5144.299-.9888.695-1.3209s.906-.4952 1.421-.4543c.516.0409.994.2827 1.333.6731l3.992 4.7448v-8.1657c.051-.4872.28-.9384.644-1.2664s.837-.5096 1.326-.5096c.49 0 .963.1816 1.327.5096.363.328.593.7792.643 1.2664v8.1339l4.004-4.766c.334-.4016.814-.6541 1.334-.7017.521-.0477 1.039.1133 1.441.4476.401.3342.654.8144.701 1.3347.048.5204-.113 1.0384-.447 1.4401l-7.033 8.3669v93.4439l1.187-1.43c.158-.197.355-.36.579-.48.223-.119.469-.192.721-.213.252-.022.507.007.747.087.241.079.463.206.653.373.388.347.628.83.67 1.349.041.518-.119 1.033-.447 1.437l-3.527 4.236z" fill="#0f7657"/><path d="m165.928 11.1311c.002 1.3464.403 2.662 1.153 3.7805.749 1.1185 1.813 1.9897 3.058 2.5035s2.613.6472 3.934.3832c1.32-.2639 2.533-.9134 3.484-1.8662s1.599-2.1662 1.861-3.487c.262-1.3207.126-2.68939-.39-3.93314-.515-1.24375-1.388-2.3067-2.508-3.05452-1.12-.74783-2.436-1.14696-3.782-1.14696-.895-.00001-1.782.17649-2.609.51939-.827.34289-1.578.84546-2.21 1.47895-.633.63349-1.134 1.38547-1.476 2.21292s-.517 1.71416-.515 2.60936zm-2.479 0c0-1.83709.545-3.63288 1.566-5.16033 1.02-1.52745 2.471-2.71796 4.168-3.42096 1.697-.70301 3.565-.88695 5.367-.52856s3.457 1.24301 4.756 2.542 2.183 2.95401 2.542 4.75576c.358 1.80179.174 3.66929-.529 5.36649s-1.894 3.1479-3.421 4.1685-3.323 1.5653-5.16 1.5653c-2.463-.0028-4.824-.9822-6.565-2.7235s-2.721-4.1022-2.724-6.5647z" fill="#179e6c"/><path d="m164.086 190.616h-2.478v8.918h2.478z" fill="#a92819"/><path d="m164.086 189.377h-2.478v1.239h2.478z" fill="#a92819"/><path d="m157.382 190.616h-2.478v8.918h2.478z" fill="#a92819"/><path d="m157.382 189.377h-2.478v1.239h2.478z" fill="#a92819"/><path d="m150.678 190.616h-2.478v8.918h2.478z" fill="#a92819"/><path d="m150.678 189.377h-2.478v1.239h2.478z" fill="#a92819"/><path d="m141.232 35.8818 3.177.7626c-2.203 9.2459-6.894 15.9818-13.937 20.0169-5.561 2.998-11.806 4.498-18.122 4.3529-4.748-.0008-9.475-.6384-14.0537-1.8958l.9637-3.1773c.1695.0636 17.083 5.0308 29.591-2.1182 6.238-3.6009 10.401-9.606 12.381-17.9411z" fill="#4c8bca"/><path d="m143.984 190.616h-2.479v8.918h2.479z" fill="#a92819"/><path d="m143.984 189.377h-2.479v1.239h2.479z" fill="#a92819"/><path d="m138.255 90.6904h-56.6084v3.3044h56.6084z" fill="#179e6c"/><path d="m138.126 137.852h-56.6085v3.304h56.6085z" fill="#179e6c"/><path d="m137.577 157.541c.179.149.328.332.436.539.108.206.175.432.195.664.021.233-.004.467-.075.689-.07.223-.183.429-.333.607l-7.181 8.547-.074.085c.01.421-.148.829-.439 1.134-.144.151-.317.272-.508.357-.191.084-.396.13-.605.135-.421.009-.829-.148-1.134-.439s-.482-.692-.492-1.113l-.063-.063-7.181-8.558c-.149-.178-.262-.384-.332-.605-.07-.222-.096-.455-.076-.687s.086-.457.193-.663c.107-.207.254-.39.432-.539.178-.15.384-.263.606-.333.221-.07.455-.095.686-.075.232.02.457.086.664.193.206.107.389.254.538.432l4.512 5.38v-3.569l-4.84-5.783c-.162-.177-.286-.385-.365-.611s-.112-.466-.096-.706c.015-.239.079-.473.188-.687.108-.213.259-.403.442-.558.184-.154.397-.269.626-.339s.471-.093.709-.068c.239.026.469.1.679.217.209.117.392.275.539.465l2.118 2.542v-3.443c-.038-.23-.025-.466.038-.691.062-.225.173-.433.324-.611s.339-.321.551-.419.442-.149.676-.149c.233 0 .464.051.676.149s.4.241.551.419.262.386.324.611.075.461.038.691v3.485l2.213-2.616c.303-.36.737-.584 1.206-.624.469-.039.934.109 1.293.412.36.303.584.737.624 1.206s-.108.934-.412 1.294l-4.893 5.814v3.569l4.533-5.391c.143-.184.321-.338.524-.453s.427-.189.659-.216c.231-.028.466-.009.69.055.225.064.434.172.616.318z" fill="#0f7657"/><path d="m137.841 98.2632h-56.6091v3.3048h56.6091z" fill="#a92819"/><path d="m136.074 122.252c.584.039 1.131.299 1.531.727.399.428.621.991.621 1.576 0 .586-.222 1.149-.621 1.577-.4.427-.947.687-1.531.727-.316.021-.632-.022-.93-.128-.299-.106-.572-.273-.803-.489s-.415-.477-.541-.767-.191-.603-.191-.92c0-.316.065-.629.191-.919s.31-.552.541-.768.504-.382.803-.488c.298-.106.614-.15.93-.128z" fill="#2a3277"/><path d="m137.757 106.492h-56.6092v3.305h56.6092z" fill="#179e6c"/><path d="m137.195 74.9313.275 3.2832c-2.891.2542-5.666.3707-8.335.3707-37.0685 0-52.9549-22.4317-53.6963-23.459l2.6689-1.8323c.2225.2648 18.0682 25.2172 59.0874 21.6374z" fill="#4c8bca"/><path d="m137.28 190.616h-2.478v8.918h2.478z" fill="#a92819"/><path d="m137.28 189.377h-2.478v1.239h2.478z" fill="#a92819"/><path d="m130.576 190.616h-2.478v8.918h2.478z" fill="#a92819"/><path d="m130.576 189.377h-2.478v1.239h2.478z" fill="#a92819"/><path d="m128.11 116.744c.456.002.901.139 1.28.394.378.255.672.617.845 1.039s.218.886.127 1.333c-.09.447-.311.857-.634 1.179s-.735.541-1.182.629c-.448.088-.912.042-1.333-.133s-.781-.471-1.034-.85c-.254-.38-.389-.826-.389-1.282 0-.304.06-.605.177-.886s.288-.536.503-.75c.216-.215.472-.385.753-.5.281-.116.583-.174.887-.173z" fill="#2a3277"/><path d="m128.11 127.558c.456.002.901.139 1.28.394.378.255.672.616.845 1.038s.218.886.127 1.333c-.09.448-.311.858-.634 1.18s-.735.54-1.182.629c-.448.088-.912.042-1.333-.133-.421-.176-.781-.471-1.034-.851-.254-.379-.389-.825-.389-1.282 0-.304.06-.605.177-.886.117-.28.288-.535.503-.75.216-.214.472-.384.753-.5.281-.115.583-.174.887-.172z" fill="#2a3277"/><path d="m123.873 190.616h-2.479v8.918h2.479z" fill="#a92819"/><path d="m123.873 189.377h-2.479v1.239h2.479z" fill="#a92819"/><path d="m123.026 167.888c.293.363.435.825.398 1.29-.038.465-.252.898-.6 1.209-.171.151-.37.265-.586.336-.217.07-.445.097-.672.077-.226-.02-.447-.085-.647-.193-.201-.107-.378-.254-.52-.431l-10.517-12.71-10.4849 12.71c-.1441.176-.3222.322-.5237.429-.2015.106-.4224.171-.6495.191s-.4558-.006-.6727-.076c-.2169-.071-.4175-.183-.59-.333-.3479-.313-.5627-.748-.6001-1.215-.0374-.466.1053-.93.3989-1.295l10.866-13.185-3.622-4.385c-.291-.364-.432-.827-.393-1.292.04-.465.256-.897.605-1.208.17-.15.369-.265.585-.337s.444-.099.671-.08c.226.019.447.083.648.19.201.106.378.252.521.429l3.241 3.95 3.262-3.961c.143-.176.321-.322.521-.428.201-.107.421-.172.647-.192.226-.019.454.007.67.077s.416.183.588.331c.349.312.566.746.605 1.213.04.467-.101.931-.394 1.297l-3.622 4.396z" fill="#0f7657"/><path d="m119.846 122.252c.458-.002.906.132 1.287.385s.679.613.855 1.035c.176.423.223.888.134 1.337-.089.448-.309.861-.632 1.184-.324.324-.736.544-1.185.633s-.914.042-1.336-.134c-.423-.176-.783-.474-1.036-.855s-.387-.829-.385-1.287c0-.609.242-1.194.673-1.625s1.016-.673 1.625-.673z" fill="#2a3277"/><g fill="#a92819"><path d="m117.178 190.616h-2.479v8.918h2.479z"/><path d="m117.178 189.377h-2.479v1.239h2.479z"/><path d="m111.671 146.314c0 .35-.103.692-.298.983-.194.291-.47.517-.793.651-.324.134-.679.169-1.022.101s-.659-.237-.906-.484c-.247-.248-.416-.563-.484-.906s-.033-.699.101-1.022.36-.599.651-.794c.291-.194.633-.298.983-.298.469 0 .919.187 1.25.518.332.332.518.782.518 1.251z"/><path d="m110.474 190.616h-2.478v8.918h2.478z"/><path d="m110.474 189.377h-2.478v1.239h2.478z"/><path d="m104.332 190.616h-2.478v8.918h2.478z"/><path d="m104.332 189.377h-2.478v1.239h2.478z"/></g><path d="m100.115 122.347c.457 0 .904.135 1.284.39.38.254.676.615.85 1.037.175.423.22.888.13 1.336s-.311.859-.635 1.182c-.324.322-.736.541-1.185.629-.448.088-.9128.041-1.3345-.135-.4217-.177-.7816-.474-1.034-.855-.2524-.382-.3861-.829-.384-1.286.0028-.611.2473-1.195.68-1.626s1.0184-.672 1.6285-.672z" fill="#2a3277"/><path d="m99.3963 157.541c.3598.303.5852.735.6267 1.204.042.468-.1035.934-.4043 1.295l-7.1806 8.547-.0742.085c.0306.223.0137.45-.0496.666s-.1715.417-.3175.588c-.1461.172-.3267.31-.53.407-.2034.097-.4249.149-.65.155-.2251.005-.4489-.037-.6565-.125-.2076-.087-.3945-.217-.5484-.381-.1539-.165-.2713-.36-.3446-.573s-.1008-.439-.0807-.663l-.0635-.063-7.1807-8.558c-.1706-.176-.3031-.384-.3892-.614-.0862-.229-.1241-.473-.1115-.718.0126-.244.0756-.483.1849-.702s.2626-.413.4503-.57c.1878-.158.4059-.274.6408-.343s.4815-.089.7243-.058c.2429.031.4768.111.6871.237.2103.125.3925.292.5352.491l4.5117 5.38v-3.569l-4.84-5.783c-.1617-.177-.286-.385-.3653-.611s-.1121-.466-.0963-.706c.0158-.239.0798-.473.1882-.687.1083-.213.2588-.403.4424-.558.1836-.154.3965-.269.6259-.339s.4706-.093.709-.068c.2385.026.4693.1.6786.217s.3927.275.5394.465l2.1181 2.542v-3.443c-.0377-.23-.0249-.466.0376-.691.0624-.225.1731-.433.3242-.611s.3391-.321.551-.419c.2118-.098.4425-.149.6759-.149s.4641.051.6759.149c.2119.098.3999.241.551.419s.2618.386.3242.611c.0625.225.0753.461.0375.691v3.485l2.2136-2.616c.1502-.177.3338-.323.5405-.43.2066-.106.4322-.171.6638-.19s.4647.008.686.078c.2213.071.4265.185.6038.335.1774.151.3234.334.4297.541.1064.207.171.432.1902.664.0191.231-.0075.464-.0784.686-.0709.221-.1847.426-.3349.604l-4.9037 5.814v3.569l4.5224-5.391c.1447-.185.3246-.339.5294-.455.2048-.115.4304-.188.6638-.216s.4699-.009.6959.056c.226.064.4371.172.6209.319z" fill="#0f7657"/><path d="m96.5999 13.302c1.0528 0 1.9063-.8535 1.9063-1.9064 0-1.0528-.8535-1.90634-1.9063-1.90634-1.0529 0-1.9064.85354-1.9064 1.90634 0 1.0529.8535 1.9064 1.9064 1.9064z" fill="#a92819"/><path d="m97.6376 190.616h-2.4783v8.918h2.4783z" fill="#a92819"/><path d="m97.6376 189.377h-2.4783v1.239h2.4783z" fill="#a92819"/><path d="m92.142 116.84c.4571-.002.9045.131 1.2856.384.3811.252.6786.612.855 1.034.1764.421.2236.886.1357 1.335-.0879.448-.3069.861-.6294 1.185-.3225.323-.7338.544-1.182.634-.4481.09-.9129.045-1.3354-.129-.4225-.175-.7837-.471-1.0379-.85-.2542-.38-.3898-.827-.3898-1.284.0027-.61.2454-1.194.6755-1.626s1.013-.678 1.6227-.683z" fill="#2a3277"/><path d="m92.1422 127.653c.4553-.002.901.131 1.2811.382.3801.25.6776.608.8551 1.027.1776.419.2272.881.1427 1.329-.0845.447-.2994.859-.6176 1.185-.3183.326-.7256.55-1.171.645-.4453.094-.9087.055-1.3318-.113-.4232-.168-.7872-.457-1.0464-.831-.2592-.375-.402-.817-.4103-1.272-.0042-.306.052-.609.1653-.893.1134-.284.2817-.542.4952-.761.2136-.218.4682-.392.7492-.512.2811-.12.583-.183.8885-.186z" fill="#2a3277"/><path d="m92.6918 31.3815-.9743 3.1773c-13.9695-4.3529-23.6603 12.6138-23.7556 12.8362l-2.8807-1.6627c.1059-.2013 11.1099-19.4557 27.6106-14.3508z" fill="#4c8bca"/><path d="m91.0828 11.1739c.3277-.0021.6486.0933.9219.274s.4867.4387.6131.741c.1263.3023.1599.6354.0965.9569-.0634.3214-.221.6168-.4527.8485s-.527.3893-.8485.4527-.6546.0298-.9569-.0966c-.3023-.1263-.5602-.3397-.741-.6131-.1807-.2733-.2761-.5942-.274-.9218.0028-.4346.1766-.8505.4839-1.1578.3072-.3072.7232-.4811 1.1577-.4838z" fill="#a92819"/><path d="m90.9339 190.616h-2.4783v8.918h2.4783z" fill="#a92819"/><path d="m90.9339 189.377h-2.4783v1.239h2.4783z" fill="#a92819"/><path d="m87.184 14.6367c0 .2907-.0861.5749-.2473.8168-.1613.2419-.3906.4305-.659.5423-.2684.1117-.5639.1415-.8491.0855-.2853-.0559-.5476-.1951-.7539-.3999s-.3474-.4662-.4054-.751c-.058-.2849-.0303-.5806.0795-.8497.1098-.2692.2968-.4999.5375-.6629s.5243-.2511.815-.2532c.1942-.0014.3868.0356.5666.109.1799.0734.3434.1816.4812.3184s.2472.2996.3219.4789c.0746.1793.113.3716.113.5658z" fill="#a92819"/><path d="m83.9014 122.347c.4571 0 .9039.135 1.2838.39.3799.254.6758.615.8503 1.037.1744.423.2195.888.1296 1.336-.09.448-.311.859-.6349 1.182-.324.322-.7363.541-1.1849.629s-.9131.041-1.3348-.135c-.4217-.177-.7816-.474-1.034-.855-.2524-.382-.386-.829-.3839-1.286.0028-.611.2472-1.195.6799-1.626s1.0184-.672 1.6289-.672z" fill="#2a3277"/><path d="m84.2301 190.616h-2.4783v8.918h2.4783z" fill="#a92819"/><path d="m84.2301 189.377h-2.4783v1.239h2.4783z" fill="#a92819"/><path d="m77.5354 190.616h-2.4783v8.918h2.4783z" fill="#a92819"/><path d="m77.5354 189.377h-2.4783v1.239h2.4783z" fill="#a92819"/><path d="m70.8317 190.616h-2.4783v8.918h2.4783z" fill="#a92819"/><path d="m70.8317 189.377h-2.4783v1.239h2.4783z" fill="#a92819"/><path d="m66.2577 26.5726c.0105.2927-.0665.5819-.2213.8306s-.3802.4456-.6475.5655c-.2672.1199-.5642.1573-.8529.1075-.2886-.0499-.5558-.1847-.7674-.3872-.2117-.2026-.358-.4636-.4205-.7498-.0624-.2862-.038-.5846.0701-.8568.108-.2723.2949-.5061.5366-.6716.2416-.1655.5272-.2551.8201-.2574.3833-.003.7526.1435 1.0295.4086.2769.265.4395.6275.4533 1.0106z" fill="#a92819"/><path d="m65.782 0v3.30438c-20.3982 0-23.6814 16.21482-23.6814 16.38422l-3.2515-.6037c.0742-.1906 3.8234-19.0849 26.9329-19.0849z" fill="#4c8bca"/><path d="m64.1279 190.616h-2.4782v8.918h2.4782z" fill="#a92819"/><path d="m64.1279 189.377h-2.4782v1.239h2.4782z" fill="#a92819"/><path d="m57.4242 190.616h-2.4783v8.918h2.4783z" fill="#a92819"/><path d="m57.4242 189.377h-2.4783v1.239h2.4783z" fill="#a92819"/><path d="m50.7295 190.616h-2.4783v8.918h2.4783z" fill="#a92819"/><path d="m50.7295 189.377h-2.4783v1.239h2.4783z" fill="#a92819"/><path d="m54.9445 189.377v1.239h-4.2152v-1.239h-2.4783v1.239h-4.0563v-2.478h138.1483v2.478h-5.454v-1.239h-2.478v1.239h-4.226v-1.239h-2.478v1.239h-3.622v-1.239h-2.479v1.239h-4.226v-1.239h-2.478v1.239h-4.226v-1.239h-2.478v1.239h-4.215v-1.239h-2.478v1.239h-4.226v-1.239h-2.479v1.239h-4.225v-1.239h-2.479v1.239h-4.225v-1.239h-2.479v1.239h-4.215v-1.239h-2.478v1.239h-4.226v-1.239h-2.478v1.239h-3.665v-1.239h-2.478v1.239h-4.2258v-1.239h-2.4783v1.239h-4.2152v-1.239h-2.4783v1.239h-4.2258v-1.239h-2.4783v1.239h-4.2258v-1.239h-2.4677v1.239h-4.2258v-1.239h-2.4783v1.239h-4.2258v-1.239h-2.4783v1.239h-4.2258v-1.239z" fill="#a92819"/><path d="m47.1076 39.5259h.2648c3.1773-8.0915 12.2961-18.1 24.0627-25.6937 9.9661-6.41814 21.8597-11.17349 33.6369-11.65009 7.869-.32832 16.458.73078 23.109 3.90807 5.593 2.66893 9.84 6.85232 11.259 13.02692 1.059 4.1834.36 9.0765-3.103 13.9271-2.765 3.8657-7.34 7.7102-14.298 11.1205-.119.0581-.243.1042-.371.1377-.767.418-1.556.7962-2.362 1.1333-3.312 1.4004-6.849 2.1898-10.442 2.33-3.4.1059-6.472-.5402-8.473-1.9911-1.3849-.9638-2.4477-2.3218-3.0504-3.8975-.5381-1.5755-.564-3.2808-.0742-4.8719.4866-1.6254 1.2614-3.15 2.2877-4.5011 2.9039-3.8415 6.7999-6.8184 11.2689-8.6105 2.366-.8607 4.826-1.4332 7.329-1.7051 2.108-.2568 4.246-.113 6.301.4236.456.1271.88.2648 1.282.4131-2.372-2.1182-5.984-3.6116-10.39-4.3847-5.707-.8762-11.52-.7938-17.1995.2436-16.2995 2.7113-34.9502 12.0949-46.0707 29.4323 2.0052.0642 3.9807.5024 5.825 1.2921 1.4619.6222 2.7308 1.6242 3.6751 2.9019.9114 1.2675 1.2915 2.8409 1.0591 4.3847-.4318 2.1985-1.6243 4.1746-3.368 5.5814-1.0137 1.0453-2.2343 1.8677-3.5837 2.4148-1.3495.5471-2.7981.8068-4.2536.7625-1.4121-.121-2.75-.6843-3.8233-1.6098-1.0964-.9597-1.8818-2.2245-2.2559-3.6327-.6355-2.6631-.3941-5.4602.6884-7.975-2.5742.6897-5.0614 1.6704-7.4137 2.9231l-.4872.2648c-2.1872 1.1858-4.2798 2.5384-6.2592 4.0457v.3707h-.4766c-.2436.1906-.4872.3813-.7202.5825-1.9129 1.5531-3.6849 3.2719-5.2955 5.1366-1.5222 1.7726-2.87 3.6879-4.0246 5.7192-.8687 1.4978-1.5549 3.0943-2.044 4.7553-.3733 1.4597-.5479 2.963-.519 4.4694h-.5084l-.4342.053c-.3495.0635-.7096.1482-1.0591.2436l-.5401.18-.2542.1059c-.2239.0791-.4401.1784-.6461.2966l-.413.2118-.3389.2012c-.0847.0635-.1907.1165-.2754.1906-.136-.6144-.2315-1.2371-.2859-1.864-.0742-.9108-.1483-2.1182-.1483-3.5691 0-1.1544 0-2.4677.1483-3.9081.1199-1.6767.332-3.3456.6354-4.9989.3515-1.8516.8508-3.6721 1.4933-5.4438.6827-1.9116 1.5629-3.7467 2.6266-5.4755 1.1914-1.931 2.6141-3.7093 4.2364-5.2955 1.7159-1.6651 3.5846-3.165 5.5814-4.48 2.1379-1.4278 4.3828-2.6883 6.7147-3.7704 1.9709-.9003 3.9939-1.6819 6.0581-2.3406 1.8322-.5719 3.3043-.9426 4.2893-1.1862.6566-.2012 1.0591-.2754 1.4298-.3283zm86.3484-8.5363c2.785-3.9081 3.336-7.7738 2.542-11.0358-1.144-4.9884-4.671-8.4093-9.342-10.59101-3.777-1.69756-7.804-2.77061-11.925-3.17729v9.0023c.392.0636.794.1165 1.176.1907 5.496.9532 9.997 2.976 12.868 5.9733 1.438 1.4639 2.483 3.2672 3.038 5.2426.555 1.9755.603 4.0591.139 6.0579-.016.14-.044.2782-.085.4131.573-.6579 1.103-1.3512 1.589-2.0758zm-4.872.9214c.121-.6361.191-1.2805.212-1.9276-.515-.9296-1.181-1.7671-1.97-2.4783-.971-.7769-2.104-1.3269-3.315-1.6098-1.643-.4182-3.349-.526-5.031-.3177-2.212.2559-4.387.7677-6.482 1.5251-3.836 1.5484-7.178 4.1111-9.669 7.4137-.783 1.024-1.378 2.1786-1.758 3.4103-.287.9172-.287 1.9 0 2.8172.371.933 1.018 1.7309 1.853 2.2876 1.366.9956 3.707 1.4192 6.355 1.3345 3.167-.118 6.286-.8143 9.203-2.0547.699-.2965 1.388-.6248 2.044-.9849.136-.1136.286-.2096.445-.286l.742-.3601c1.435-.8732 2.762-1.915 3.95-3.1031 1.659-1.5222 2.847-3.4888 3.421-5.6662zm-16.586-17.1256v-8.9494c-.974-.07414-1.948-.10591-2.923-.13768v8.93878c.954.0318 1.928.0741 2.923.1483zm-5.687-.1377v-8.93879h-1.059c-.593 0-1.186.06354-1.769.09532v8.97057c.901-.0424 1.854-.0953 2.786-.1271zm-5.613.4342v-8.99172c-6.439.95586-12.6912 2.90295-18.5343 5.77212v7.9962c4.9637-1.9921 10.1261-3.4478 15.3993-4.3423 1.0485-.1695 2.0758-.3178 3.093-.4343zm-21.3515 5.9733v-7.7526c-.879.466-1.7581.9532-2.616 1.451v7.5408c.8685-.4343 1.7476-.8473 2.616-1.2392zm-5.3908 2.669v-7.2972l-.6037.3918c-.699.4449-1.3874.9003-2.0546 1.3663v7.0747c.879-.5295 1.7687-1.0379 2.6583-1.5356zm-5.3802 3.2832v-6.8312c-2.514 1.8835-4.9119 3.9171-7.1807 6.0898v6.2063c2.2759-1.9713 4.6742-3.7966 7.1807-5.4649zm-9.3307 29.4111c.1012-.6902-.0697-1.3927-.4765-1.9593-.5913-.7873-1.3858-1.3987-2.2983-1.7687-2.0318-.8431-4.2377-1.181-6.4287-.985-1.631 3.1773-1.9593 5.8251-1.4192 7.6997.1939.7671.6103 1.4598 1.1968 1.9911.5372.4553 1.2043.7295 1.9064.7837.9727.0043 1.936-.1908 2.8305-.5733.8944-.3826 1.7008-.9444 2.3696-1.6508 1.1544-.8797 1.973-2.128 2.3194-3.5374zm-.6778-21.3938v-5.9415c-.9426 1.0061-1.811 2.0335-2.6265 3.0396v5.592c.8684-.9108 1.7369-1.8216 2.6265-2.6901zm-5.3908 5.9204v-4.9778c-.9883 1.5264-1.8288 3.1435-2.51 4.8295-.0431.126-.0925.2498-.1483.3707v3.3362c.8579-1.2392 1.7369-2.4042 2.6583-3.5586zm-5.4226 7.6149v-5.5603h-.0741c-.3177.0636-.7096.1165-1.165.233-.9638.2436-2.4042.6037-4.0458 1.1227-1.3027.4236-2.7748.9426-4.2999 1.5886v5.7933c2.4423-1.2234 5.0144-2.1684 7.6679-2.8172.646-.1483 1.2815-.2648 1.9169-.3601zm-12.9739 5.0307v-6.0368c-.9744.4977-1.9487 1.0591-2.9019 1.6627v6.2169c.9426-.6248 1.9063-1.2603 2.9019-1.8428zm-6.3546 4.3953v-6.4394c-.9928.7635-1.9405 1.5839-2.8384 2.4572v6.524c.932-.8473 1.8746-1.7052 2.8914-2.5418zm-6.2381 6.238v-6.1321c-.1377.2224-.2753.4448-.4236.6672-.9601 1.5434-1.7552 3.1834-2.3724 4.893-.5619 1.6036-.9905 3.2508-1.2815 4.9248-.1589.8897-.2966 1.7581-.3919 2.6054.226-.4448.4696-.9002.7308-1.3662 1.1073-1.9655 2.3755-3.8359 3.7916-5.5921z" fill="#0f7657"/><path d="m44.6421 47.31c.0021.2937-.0831.5814-.2447.8267-.1617.2452-.3925.4369-.6633.5507-.2707.1139-.5692.1448-.8575.0888-.2883-.0561-.5535-.1964-.7619-.4034-.2084-.2069-.3507-.4711-.4088-.759s-.0293-.5866.0826-.8581c.1119-.2716.3019-.5038.546-.6672.244-.1634.5311-.2506.8248-.2506.3915 0 .767.1547 1.0448.4305.2777.2758.4352.6502.438 1.0416z" fill="#a92819"/><path d="m41.3669 28.7544.4131 3.2726c-30.2055 3.8233-33.65816 27.6425-33.78525 28.6592l-3.2832-.4237c.03177-.2753 3.84452-27.367 36.65535-31.5081z" fill="#4c8bca"/><path d="m29.9949 1.3877c.7837 9.4683-1.3663 16.5643-6.3546 21.1184-4.9884 4.5541-11.7454 5.4438-16.26777 5.4438-1.66752.0152-3.33316-.1159-4.97775-.3919l.59309-3.2408c.1165 0 11.50183 2.0017 18.41773-4.2364 4.2364-3.8234 5.9945-10.0085 5.2955-18.37538z" fill="#2a3277"/><path d="m21.9752 177.865c7.4136 8.144 5.1578 20.695 5.0625 21.182l-1.6628-.201-1.6204-.297c0-.117 2.0016-11.512-4.2364-18.428-3.8234-4.237-10.00851-5.995-18.37538-5.296l-.349507-3.336c9.531887-.794 16.606687 1.356 21.181987 6.376z" fill="#2a3277"/><path d="m21.0223 89.8856c-.3081-.4147-.6406-.8108-.9955-1.1862-.0713-.0964-.1637-.1752-.2702-.2303s-.2243-.085-.3441-.0874c-.1716-.0312-.3474-.0312-.519 0-.1132.0291-.2189.0819-.3102.155-.0913.073-.1661.1646-.2193.2686-.087.3477-.087.7114 0 1.0591.0999.5592.2597 1.106.4766 1.631.2237.5138.4931 1.0065.8049 1.4722.2186.3315.4784.634.7731.9002.3348.2786.6887.5334 1.0591.7626l.7202.466c.163.1011.292.2486.3707.4236.1293.3725.2077.7609.233 1.1544.0953.699.2224 1.8005.4024 3.3366.1801 1.535.4343 3.484.7308 5.295.2966 1.811.6355 3.283.8897 4.236.1058.585.3176 1.145.6248 1.653.1497.232.3531.424.5931.561.1875.121.3861.224.5931.307.2527.14.5371.213.8261.212.5809-.037 1.1543-.151 1.7052-.339 1.0345-.3 2.0526-.653 3.0502-1.059 1.2828-.513 2.5378-1.093 3.7598-1.737 1.2179-.646 2.2982-1.324 3.1137-1.726.5404-.315 1.1451-.503 1.7687-.551.4129-.023.823.08 1.1756.296.4692.334.8656.759 1.165 1.25.5702.836 1.0765 1.714 1.5145 2.627.5345 1.046.974 2.137 1.3133 3.262.2673.921.3394 1.888.2118 2.838-.1438 1.015-.4253 2.006-.8367 2.944-.5073 1.087-1.0693 2.148-1.6839 3.178-.752 1.366-1.7264 3.23-2.4465 4.766-.6339 1.336-1.1995 2.704-1.6946 4.098-.4978 1.377-1.0591 2.955-1.3662 4.163-.3072 1.207-.4978 2.118-.7202 3.06-.2587 1.245-.6566 2.456-1.1862 3.612-.6778 1.504-1.7793 3.389-2.5207 5.295-.7101 1.878-1.173 3.839-1.3768 5.836-.233 1.949-.2648 3.898-.4872 5.349-.1244 1.081-.459 2.128-.9849 3.082-.2832.455-.6413.86-1.0591 1.196-.3178.297-.5508.593-1.0591 1.059-.5755.535-1.0937 1.127-1.5463 1.769-.3504.519-.5351 1.132-.5296 1.758 0 .371.3178.381 1.0591.403.7414.021 1.9064 0 2.7537 0 .5388.012 1.0768-.048 1.5992-.18.0962-.026.1845-.075.2566-.144.0722-.068.126-.154.1565-.248.0741-.212.1588-.498.2753-.858s.2648-.826.4343-1.239c.1984-.429.3751-.867.5295-1.314.1589-.508.2966-1.122.4872-1.885.3015-1.139.7056-2.248 1.2074-3.315.7519-1.641 1.9805-4.035 2.8913-6.227.7744-1.894 1.4115-3.84 1.9064-5.825.3025-1.486.7751-2.933 1.4086-4.311.9013-1.659 1.9096-3.258 3.0184-4.787 1.0591-1.504 1.8534-2.732 2.9231-4.363s2.4042-3.665 3.315-4.84c.9108-1.176 1.4086-1.451 1.7899-1.494.3812-.042.699.159 1.3768.985s1.7157 2.267 2.9337 3.898 2.616 3.431 3.6857 4.776c1.0696 1.345 1.811 2.267 2.2876 2.913.4163.52.677 1.148.752 1.811.1059.762.1271 1.864.2012 3.177.0833 1.538.2601 3.069.5295 4.586.3072 1.642.7944 3.347 1.1545 4.628.3093 1.045.5638 2.106.7625 3.177.1734.986.2373 1.988.1906 2.987-.0333.799-.1868 1.588-.4554 2.341-.225.461-.423.935-.5931 1.419-.1257.515-.1257 1.052 0 1.567.1165.371.3707.435.7626.636.4779.252.9256.557 1.3345.911.3405.299.6239.658.8366 1.059.1907.36.2966.72.5825.879.4078.144.8476.174 1.271.085.5295 0 1.1544-.085 1.5992-.149.4448-.063.7202-.095.752-.423-.0419-.486-.1901-.956-.4343-1.377-.2409-.464-.5208-.907-.8367-1.324-.3313-.467-.632-.955-.9002-1.462-.2454-.485-.41-1.007-.4872-1.546-.1078-.918-.1078-1.846 0-2.764.0742-1.409.3072-3.474.4554-5.423.1483-1.948.2224-3.76.2542-5.295.0487-1.413.0169-2.827-.0953-4.237-.1271-1.451-.3919-3.071-.6037-4.236-.1334-.958-.3568-1.901-.6672-2.817-.2966-.784-.7308-1.557-1.2603-2.616-.5296-1.059-1.1545-2.436-1.917-3.951-.7626-1.514-1.6734-3.177-2.7113-4.956s-2.1817-3.601-3.1773-5.232c-.933-1.384-1.7209-2.86-2.3512-4.406-.3776-1.208-.4896-2.483-.3283-3.739.0953-1.503.2754-3.484.3707-5.295.1297-1.671.1297-3.349 0-5.02-.1589-1.409-.4872-2.457-.6461-3.3258-.1637-.6823-.138-1.3964.0742-2.0652.3597-.6721.8535-1.2633 1.4509-1.7369.8473-.8049 2.1182-2.0123 3.1773-2.9867 1.0591-.9743 1.7369-1.7263 2.5101-2.3723.7731-.6461 1.578-1.218 2.4783-2.0335 1.0005-.9396 1.9183-1.9636 2.743-3.0608.8685-1.1438 1.6099-2.3512 2.3195-3.2514.5467-.6943 1.1643-1.3297 1.8428-1.8958.3299-.2848.6843-.54 1.0591-.7626.3076-.1387.6019-.3053.879-.4977.2537-.2258.4652-.4947.6249-.7944.1228-.2087.2055-.4386.2436-.6778 0-.2436 0-.5295.0741-.8579.0681-.2842.0966-.5764.0848-.8684 0-.1483-.2436-.0636-.4025.0635-.1841.184-.3283.4039-.4236.6461-.1153.3272-.2682.64-.4554.932-.1695.18-.3284.0953-.4131-.1165-.0852-.3106-.1279-.6312-.1271-.9532-.0311-.3913-.0311-.7844 0-1.1756-.0042-.1544.0379-.3066.121-.4368.083-.1303.2032-.2327.345-.294.3601-.1906.9638-.3495 1.3027-.5401.3389-.1907.3707-.4025.2118-.5931-.2631-.2578-.6166-.4022-.9849-.4025-.5139-.0215-1.0285.0104-1.5357.0954-.3681.0266-.7277.1236-1.0591.2859-.2825.1921-.5358.4239-.752.6884-.1982.2184-.3689.4603-.5084.7202-.1163.2563-.1777.5341-.18.8155v1.1544 1.0591c.0359.4615-.0874.9213-.3495 1.3027-.4868.5904-1.0494 1.1139-1.6734 1.5569-.6778.5084-1.398 1.0591-2.1923 1.5886-.7943.5296-1.6734 1.271-2.3512 1.8746-.5714.486-1.1027 1.0173-1.5887 1.5887-.413.4872-.7413.9638-1.059 1.345-.4048.4654-.8758.8687-1.3981 1.1968-1.0187.7164-2.0798 1.3707-3.1773 1.9594-1.1544.5825-2.1181.9531-3.1137 1.3768-.8923.387-1.7321.8851-2.4995 1.4827-.6672.5613-1.1332 1.1968-1.6098 1.6416-.3695.3625-.7951.6629-1.2603.8897-.2546.1749-.56.2605-.8685.2435-.3411-.0935-.6611-.2517-.9426-.466-.3903-.2449-.7465-.5405-1.0591-.879-.3619-.3431-.6065-.7915-.699-1.2815-.0219-.5411.1103-1.0774.3813-1.5463.3501-.5653.5673-1.2026.6355-1.864-.0417-.7553-.3279-1.4764-.8156-2.0547-.5787-.7347-1.2517-1.3899-2.0016-1.9487-.7551-.6015-1.5935-1.0903-2.4889-1.451-.684-.2235-1.4153-.2601-2.1182-.1059-.6571.1302-1.2806.3933-1.8323.7732-.5658.3818-1.0397.8847-1.3874 1.4721-.3376.5362-.5778 1.1278-.7096 1.7475-.117.5695-.117 1.1569 0 1.7264.117.7513.3835 1.4716.7838 2.1181.4506.63 1.0233 1.1631 1.6839 1.5675.5534.3376 1.1303.6349 1.7264.8897l1.3026.646c.3707.1728.7251.3783 1.0591.6143.2777.2232.5236.4833.7308.7731.2434.2947.4432.6228.5931.9744.1134.2243.152.479.1101.7268-.0419.2477-.1622.4756-.3431.65-.6865.6313-1.4788 1.1365-2.3406 1.4935-.6229.257-1.2593.479-1.9064.667-.5296.171-1.0272.428-1.4721.763-.571.421-1.1157.878-1.631 1.366-.6037.551-1.2815 1.154-2.1182 1.769-.809.619-1.6504 1.196-2.5207 1.726-.6756.411-1.3841.765-2.1182 1.059-.4872.18-.6566.127-.8367-.117-.2852-.472-.4825-.992-.5825-1.535-.2118-.869-.466-2.171-.9214-3.707s-1.0591-3.3256-1.5463-4.6707c-.3502-.9958-.6298-2.015-.8366-3.0502-.1096-.6476-.1698-1.3026-.1801-1.9593.0204-.2891.0204-.5793 0-.8685-.0552-.2605-.1331-.5156-.233-.7625-.0858-.2064-.2118-.3936-.3707-.5507-.1906-.2119-.5083-.4978-.7202-.7096-.2118-.2119-.3283-.3601-.4342-.4872-.092-.1189-.1988-.2257-.3177-.3177-.04-.0293-.0882-.0451-.1377-.0451s-.0977.0158-.1377.0451c-.0284.0614-.0432.1282-.0432.1959s.0148.1345.0432.1959c.0381.2064.1059.4062.2012.5931.106.233.2436.5296.3495.7202.106.1906.1695.2754.1271.3071-.0423.0318-.1694 0-.3495-.0847-.2384-.1172-.4594-.2669-.6566-.4448-.3071-.2492-.5875-.5296-.8367-.8367zm58.9917-18.7143c.462.5623.7647 1.2382.8764 1.9573.1118.719.0286 1.4549-.2409 2.1309.1368.6994.1368 1.4187 0 2.1182 0 .2753 0 .5719-.0847.8472-.1003.7068-.3301 1.389-.6779 2.0123-.3917.7204-.9164 1.3601-1.5462 1.8852-.4535.3601-.9476.6658-1.4722.9108-.1506.0968-.2923.2067-.4236.3284-.4751.3957-.9081.8393-1.2921 1.3238-.7943 1.0591-1.4828 2.1182-2.2771 3.1773-.9512 1.2816-2.0145 2.476-3.1773 3.5692-.8473.7625-1.7369 1.398-2.5842 2.1182-.8472.7202-1.5674 1.4615-2.33 2.2029-1.0591 1.0591-2.1182 2.0123-3.1773 3.0184l-.4448.519c.2224 1.2076.5401 2.2876.6778 3.5376.1747 1.88.196 3.772.0636 5.655-.1059 1.79-.2648 3.58-.3813 5.37-.1015.753-.0584 1.519.1271 2.256.5267 1.238 1.1723 2.423 1.9275 3.537 1.0591 1.769 2.1818 3.516 3.1773 5.296.9956 1.779 1.9382 3.421 2.8172 5.179.6567 1.313 1.271 2.647 1.9276 3.961.4872.995 1.0591 1.948 1.4192 2.976.3964 1.142.6836 2.319.8579 3.516.2541 1.515.4977 3.05.6354 4.586.1341 1.553.173 3.113.1165 4.671 0 1.842-.1165 3.685-.2648 5.517-.1482 1.833-.3495 3.57-.4554 5.359-.074.641-.074 1.288 0 1.928.0125.151.052.298.1165.434.1893.346.4016.679.6355.996.3908.573.7445 1.171 1.0591 1.79.6 1.059.8831 2.268.8155 3.484-.1111 1.026-.5872 1.977-1.3416 2.681s-1.7367 1.113-2.7677 1.153c-.5825.064-1.1544.117-1.7369.148-1.1928.195-2.4165-.006-3.4845-.572-.9588-.556-1.7043-1.417-2.1182-2.446-.1646-.137-.3419-.257-.5295-.36-.6253-.257-1.1866-.649-1.6441-1.146-.4575-.498-.8001-1.09-1.0036-1.735-.3233-1.204-.3233-2.471 0-3.675.1959-.62.4366-1.226.7201-1.811.1218-.389.1965-.79.2224-1.197.029-.709-.0208-1.42-.1482-2.118-.1772-.926-.4035-1.841-.6778-2.743-.4555-1.631-.9109-3.273-1.2286-4.946-.3038-1.677-.5019-3.371-.5931-5.073 0-.922 0-1.981-.1589-2.881l-.0953-.127c-.6672-.943-1.4509-1.864-2.1182-2.785-1.2603-1.6-2.51-3.178-3.7386-4.841-.413-.55-.8155-1.059-1.2285-1.683-.6673.974-1.3027 1.991-1.9382 2.944-.9744 1.472-1.9699 2.955-2.9655 4.416-.9871 1.371-1.8857 2.804-2.6901 4.29-.4962 1.151-.8724 2.351-1.1226 3.579-.5622 2.164-1.2698 4.287-2.1182 6.355-.8897 2.118-1.9699 4.236-2.9337 6.355-.4092.864-.7389 1.765-.985 2.69-.18.709-.3283 1.419-.5507 2.118s-.413 1.059-.6249 1.588c-.1271.308-.233.625-.3389.954-.1059.328-.2012.677-.3177 1.059-.2177.646-.5827 1.234-1.066 1.715-.4834.482-1.072.844-1.7194 1.06-.8918.255-1.8157.379-2.7431.37-.9744 0-1.9593 0-2.9337 0-2.383-.053-4.4058-1.154-4.7342-3.728-.1296-1.491.2432-2.982 1.0591-4.236.5873-.887 1.273-1.704 2.0441-2.436.3919-.392.752-.805 1.165-1.186.1478-.12.2859-.251.413-.392.2468-.518.4077-1.072.4766-1.642.2436-1.705.2648-3.505.466-5.232.2447-2.321.782-4.602 1.5993-6.788.7519-1.917 1.7687-3.644 2.616-5.508.4179-.911.7306-1.867.932-2.849.2435-1.112.466-2.182.7837-3.272.413-1.473.9108-2.966 1.4298-4.417.5189-1.451 1.165-3.103 1.8958-4.617.7943-1.684 1.6627-3.358 2.5524-4.999.5083-.901 1.1226-1.875 1.5357-2.807.2633-.613.4449-1.257.5401-1.917.0614-.451.0253-.909-.1059-1.345-.273-.889-.6275-1.75-1.0591-2.574-.278-.576-.5856-1.138-.9214-1.684-.8685.466-1.7263 1.059-2.5948 1.462-1.3583.715-2.7549 1.355-4.1834 1.917-1.1227.445-2.2665.847-3.4209 1.186-.8911.287-1.818.447-2.7537.477-.8363.003-1.6623-.186-2.4147-.551-.364-.154-.7177-.331-1.0591-.53-.6828-.422-1.2706-.981-1.7263-1.641-.5563-.872-.951-1.837-1.165-2.849-.4131-1.494-.7096-3.072-.9744-4.607-.2966-1.79-.5296-3.601-.752-5.412-.1059-.9428-.2224-1.896-.3283-2.8492-.4051-.2731-.7908-.5739-1.1544-.9003-.5326-.4788-1.0024-1.0233-1.398-1.6204-.4521-.6673-.8387-1.3766-1.1544-2.1182-.3162-.7684-.5539-1.5667-.7096-2.3829-.2698-1.0772-.207-2.2107.18-3.2515.2644-.6382.6693-1.2087 1.1845-1.6689.5153-.4603 1.1276-.7984 1.7916-.9894.6182-.1807 1.2652-.2418 1.9064-.18.8468.0604 1.6605.3536 2.3511.8472.8252-.0394 1.6435.1671 2.3512.5931.4832.3052.9126.6881 1.271 1.1333.0653.089.136.1738.2118.2541.2648.2542.5401.5084.7943.7838.4566.4851.8161 1.0531 1.0591 1.6734.2689.5098.4752 1.0504.6143 1.6098.0645.4737.0928.9517.0847 1.4298.0103.4718.0528.9425.1271 1.4086.1732.8533.4104 1.6923.7096 2.51.5295 1.6098 1.112 3.1773 1.578 4.7977.106.371.2119.731.2966 1.059l.6884-.498c.6355-.497 1.2392-1.059 1.8322-1.578.6283-.5909 1.2895-1.1461 1.9806-1.6625.6411-.432 1.3307-.7875 2.0546-1.0591-.4626-.2203-.9117-.4678-1.345-.7413-1.1125-.6601-2.0642-1.5595-2.7859-2.6329-.7218-1.0735-1.1955-2.2942-1.387-3.5735-.2119-1.0485-.2119-2.1288 0-3.1773.2168-1.0592.6222-2.0708 1.1968-2.9866.6267-1.0252 1.4599-1.9089 2.4465-2.5948.9819-.6676 2.0874-1.1321 3.2514-1.3662 1.3759-.2999 2.8075-.2193 4.1411.233 1.2915.4881 2.4992 1.1741 3.5798 2.0334 1.0265.7629 1.9456 1.6606 2.7324 2.669.8949 1.1255 1.4432 2.487 1.5781 3.9186.7766-.5064 1.591-.9526 2.4359-1.3344.9744-.4343 1.9805-.7944 2.9337-1.2921.9622-.5015 1.8893-1.0676 2.7748-1.6946.2415-.1423.4624-.3169.6567-.5189.3601-.4343.699-.9003 1.0591-1.3451.6094-.7224 1.2752-1.3952 1.9911-2.0123.8261-.7308 1.7157-1.4086 2.5948-2.0652.7202-.5296 1.4509-1.0591 2.1182-1.5675l.4977-.3813v-.3707c-.0263-.5186-.0263-1.0382 0-1.5568.0449-.7622.2317-1.5093.5508-2.2029.2887-.5567.6444-1.076 1.0591-1.5463.4993-.6451 1.1271-1.1795 1.8435-1.5696s1.5059-.6274 2.3187-.6969c.8011-.1338 1.6151-.1729 2.4254-.1165.7031.0357 1.3914.2159 2.0219.5293.6304.3134 1.1896.7533 1.6425 1.2923z" fill="#fff"/><path d="m20.0285 80.7245c1.1075.0763 2.1881.3753 3.1773.8791 1.1208.13 2.2026.4906 3.1773 1.0591.8437.5185 1.5923 1.1776 2.2135 1.9487l.3072.2966c.3125-.8052.6953-1.5813 1.1438-2.3195.9391-1.4345 2.1564-2.6661 3.5797-3.6221 1.4107-.9493 2.9998-1.6015 4.6707-1.9169 2.0455-.4437 4.1735-.3192 6.1533.3601 1.6857.619 3.2622 1.502 4.6706 2.6159 1.2975.966 2.4588 2.1024 3.4527 3.3786.2167.2747.4182.5611.6037.8578.5189-.2118 1.0591-.4236 1.5357-.6778.808-.4333 1.5896-.9143 2.3406-1.4404h.0847c.2965-.3707.5719-.7625.8896-1.1226.7334-.8764 1.5375-1.6911 2.4042-2.4359.9002-.7944 1.8746-1.5463 2.8384-2.2665.3601-.2754.7308-.5296 1.0591-.7943-.0053-.0882-.0053-.1766 0-.2648.0753-1.248.388-2.4702.9214-3.6009.4295-.8649.9707-1.6697 1.6098-2.3936.7844-.933 1.7229-1.7247 2.7749-2.3406 1.1759-.6623 2.4721-1.0835 3.8127-1.2392 1.0957-.1763 2.208-.226 3.315-.1482 1.209.0903 2.3871.425 3.463.9839 1.0759.5588 2.0272 1.3303 2.7962 2.2675.7579.9368 1.2905 2.0352 1.5567 3.2104.2663 1.1752.2591 2.3958-.021 3.5678.0378.7653-.0084 1.5324-.1377 2.2877 0 .3177.0001.6248-.0953.9426-.1493 1.1634-.5081 2.2901-1.0591 3.3255-.6296 1.1435-1.4664 2.1598-2.4677 2.9973-.5664.4599-1.1807.8576-1.8322 1.1862-.2698.2238-.5148.4759-.7308.7519-.7837.9956-1.4721 2.1182-2.2453 3.1773-1.1067 1.4645-2.34 2.829-3.6856 4.0776-.8685.8049-1.8005 1.4721-2.6901 2.2347-.7308.6248-1.4404 1.3556-2.1182 2.0334s-1.3769 1.3239-2.1182 1.9801c.1165.583.233 1.165.3071 1.801.1889 2.088.2137 4.188.0742 6.28-.106 1.801-.2648 3.601-.3813 5.402-.0161.293-.0161.586 0 .879.4445.93.9578 1.826 1.5357 2.679 1.0591 1.79 2.2029 3.559 3.2726 5.37s2.0123 3.558 2.9337 5.391c.6672 1.313 1.2815 2.658 1.9275 3.971.5858 1.083 1.1126 2.197 1.5781 3.337.4857 1.375.8403 2.794 1.0591 4.236.2754 1.62.5295 3.251.6778 4.882.141 1.698.1869 3.402.1377 5.105 0 1.917-.1377 3.824-.2754 5.719-.1377 1.896-.3495 3.538-.466 5.296v.741c.0509.067.0969.138.1377.212.4763.71.901 1.453 1.2709 2.224.9249 1.715 1.3402 3.659 1.1968 5.603-.1908 1.884-1.0379 3.64-2.3932 4.963-1.3553 1.322-3.1325 2.126-5.0205 2.27l-1.8746.18c-1.9601.258-3.9514-.113-5.6873-1.059-1.3154-.712-2.4106-1.77-3.1667-3.06-1.8968-1.038-3.3085-2.78-3.9293-4.851-.5506-1.885-.5726-3.886-.0635-5.783.1999-.73.4695-1.439.8049-2.118 0 0 0-.074 0-.117.0033-.433-.0357-.866-.1165-1.292-.1529-.79-.3473-1.571-.5825-2.34-.4872-1.737-.9638-3.485-1.2921-5.296-.34-1.837-.5594-3.694-.6567-5.56 0-.54 0-1.133-.0635-1.705-.5084-.646-1.0591-1.303-1.5569-1.938-.4978-.636-1.1756-1.515-1.7581-2.267-.646.975-1.3027 1.928-1.9593 2.892-.907 1.234-1.7347 2.526-2.4783 3.865-.3731.913-.6568 1.86-.8473 2.828-.5948 2.325-1.345 4.607-2.2453 6.831-.9214 2.203-2.0123 4.29-2.9866 6.45-.3248.68-.5837 1.389-.7732 2.118-.2012.774-.3706 1.547-.6142 2.309-.2436.763-.466 1.218-.7202 1.854-.0934.216-.1713.439-.233.667-.1271.381-.2436.762-.3707 1.154-.4085 1.177-1.0795 2.245-1.9622 3.124-.8826.879-1.9537 1.546-3.1321 1.949-1.2607.398-2.5754.598-3.8974.593-1.0591 0-2.0653 0-3.1032 0-4.2893-.095-7.8585-2.594-8.4728-7.053-.2521-2.367.3081-4.75 1.5887-6.757.737-1.132 1.6004-2.177 2.5736-3.114.3389-.339.6566-.688.9849-1.059 0 0 0-.053 0-.085.233-1.652.2542-3.431.4449-5.105.2832-2.645.9024-5.243 1.8428-7.731.7837-2.012 1.8216-3.781 2.7007-5.719.3064-.678.5338-1.389.6778-2.118.2542-1.165.4978-2.309.8261-3.464.4448-1.567.9744-3.177 1.5251-4.67.5507-1.494 1.2074-3.177 1.9487-4.787.8261-1.758 1.737-3.506 2.6796-5.211.4236-.784 1.0591-1.673 1.3662-2.5.0957-.21.1668-.43.2118-.656-1.1544.582-2.3512 1.112-3.5586 1.599-1.2359.502-2.4981.937-3.7809 1.303-1.2335.395-2.5178.609-3.8128.635-1.3847.001-2.7522-.307-4.0034-.9-.4983-.205-.9829-.442-1.4509-.71-1.1278-.696-2.0982-1.619-2.849-2.711-.8131-1.234-1.3979-2.605-1.7263-4.046-.4237-1.61-.752-3.293-1.0591-4.935-.3072-1.864-.5402-3.728-.7732-5.592-.0529-.434-.0953-.858-.1483-1.2816l-.0847-.0742c-.7745-.6945-1.4578-1.4846-2.0334-2.3512-.5939-.8791-1.0977-1.8159-1.504-2.796-.419-.9986-.7314-2.0388-.932-3.1031-.41-1.8056-.2774-3.6922.3813-5.4226.6769-1.6097 1.8347-2.971 3.315-3.8975l.3389-.2012c.1332-.0789.2712-.1497.413-.2118.206-.1182.4222-.2175.6461-.2966l.2542-.1059.5401-.18c.3495-.0954.7096-.1801 1.0591-.2436l.4342-.053h.5084c.4228-.0329.8472-.04 1.2709-.0212zm60.6228-5.4649c.2695-.676.3527-1.4118.2409-2.1309s-.4144-1.395-.8764-1.9572c-.4481-.534-1.0005-.971-1.6233-1.2842s-1.3029-.4961-1.9988-.5375c-.8102-.0564-1.6243-.0173-2.4253.1165-.8145.0721-1.605.3126-2.3216.7065-.7165.3938-1.3433.9322-1.8407 1.5812-.4147.4704-.7703.9896-1.0591 1.5463-.3191.6936-.5059 1.4407-.5507 2.2029-.0263.5186-.0263 1.0382 0 1.5569v.3706l-.4978.3813c-.7096.5402-1.4404 1.0591-2.1182 1.5675-.879.6566-1.7687 1.3344-2.5948 2.0652-.7284.5985-1.4084 1.2536-2.0335 1.9594-.36.4448-.699.9108-1.059 1.345-.1943.202-.4152.3766-.6567.519-.8855.6269-1.8126 1.1931-2.7748 1.6945-.9532.4978-1.9594.8579-2.9337 1.2921-.8449.3819-1.6593.828-2.4359 1.3345-.1409-1.4206-.6888-2.7702-1.5781-3.8869-.7821-1.0151-1.6976-1.92-2.7219-2.6901-1.0806-.8594-2.2883-1.5454-3.5797-2.0335-1.3336-.4523-2.7652-.5329-4.1411-.233-1.164.2342-2.2695.6987-3.2514 1.3662-.9867.686-1.8198 1.5696-2.4465 2.5948-.5747.9159-.98 1.9275-1.1968 2.9867-.212 1.0485-.212 2.1288 0 3.1773.1914 1.2793.6652 2.4999 1.3869 3.5734.7218 1.0735 1.6734 1.9729 2.7859 2.6329.4333.2735.8824.5211 1.3451.7414-.7239.2716-1.4135.627-2.0547 1.0591-.7033.5325-1.3752 1.1054-2.0123 1.7155-.5931.53-1.1967 1.059-1.8322 1.578l-.6884.498c-.0847-.36-.1907-.72-.2966-1.059-.466-1.61-1.0591-3.1774-1.578-4.7978-.2992-.8177-.5364-1.6567-.7096-2.51-.0743-.4661-.1168-.9368-.1271-1.4086.0167-.4881-.0045-.9768-.0636-1.4616-.0976-.5575-.2612-1.1015-.4871-1.6204-.2431-.6203-.6026-1.1883-1.0591-1.6734-.2542-.2753-.5296-.5295-.7944-.7837-.0757-.0803-.1465-.1652-.2118-.2542-.3583-.4451-.7878-.828-1.2709-1.1332-.7077-.4261-1.526-.6325-2.3512-.5931-.6907-.4937-1.5044-.7869-2.3512-.8473-.6411-.0618-1.2881-.0007-1.9064.18-.6639.191-1.2763.5292-1.7915.9894-.5153.4602-.9201 1.0307-1.1845 1.669-.3871 1.0407-.4498 2.1743-.1801 3.2514.1557.8162.3935 1.6146.7096 2.383.3158.7415.7024 1.4509 1.1544 2.1182.3957.597.8654 1.1415 1.398 1.6204.3636.3263.7494.6271 1.1545.9002.1059.9532.2224 1.9064.3283 2.8487.2224 1.811.4554 3.622.7519 5.412.2648 1.536.5614 3.114.9744 4.607.2141 1.012.6087 1.977 1.165 2.849.4558.661 1.0436 1.22 1.7263 1.642.3414.199.6952.376 1.0591.529.7525.366 1.5784.554 2.4148.551.9356-.029 1.8626-.19 2.7536-.476 1.1545-.339 2.2983-.742 3.4209-1.187 1.4142-.563 2.7966-1.203 4.1411-1.917.8685-.455 1.7263-.995 2.5948-1.461.3358.545.6434 1.107.9214 1.684.4316.823.7861 1.685 1.0591 2.573.1312.436.1673.895.1059 1.346-.0952.659-.2768 1.304-.5401 1.916-.4131.933-1.0591 1.907-1.5357 2.807-.8897 1.642-1.7581 3.315-2.5524 4.999-.6885 1.462-1.271 2.923-1.8217 4.438-.5507 1.514-1.0591 2.944-1.4298 4.416-.3177 1.059-.5401 2.118-.7837 3.273-.2014.982-.5141 1.938-.932 2.849-.8473 1.864-1.864 3.59-2.616 5.507-.8172 2.186-1.3546 4.467-1.5992 6.789-.2013 1.726-.2224 3.527-.466 5.232-.0689.569-.2299 1.124-.4766 1.641-.1272.142-.2653.273-.4131.392-.413.381-.7731.795-1.165 1.186-.8088.73-1.5303 1.551-2.1499 2.447-.816 1.254-1.1888 2.746-1.0591 4.236.3283 2.574 2.3512 3.675 4.7341 3.728h2.9337c.9275.01 1.8514-.115 2.7431-.37.6474-.216 1.236-.578 1.7194-1.06.4834-.481.8483-1.069 1.066-1.715.1165-.329.2118-.667.3177-1.059.106-.392.2119-.646.339-.953.2118-.541.4448-1.06.6248-1.589.1801-.53.3707-1.388.5508-2.118.246-.925.5757-1.825.9849-2.69.9638-2.119 2.0441-4.184 2.9337-6.355.8484-2.068 1.5561-4.191 2.1182-6.355.2448-1.165.6031-2.304 1.0697-3.399.8238-1.499 1.7436-2.942 2.7537-4.321.9955-1.462 1.9911-2.945 2.9654-4.417.6355-.953 1.2709-1.97 1.9382-2.944.413.572.8155 1.133 1.2285 1.684 1.2286 1.62 2.4783 3.241 3.7386 4.84.7202.921 1.504 1.843 2.1182 2.785l.0954.127c.1165.901.1165 1.96.1588 2.881.0912 1.702.2893 3.396.5931 5.073.3177 1.674.7732 3.315 1.2286 4.946.2744.902.5006 1.818.6778 2.743.1274.699.1772 1.409.1483 2.118-.026.407-.1006.809-.2224 1.197-.2836.586-.5243 1.191-.7202 1.811-.3233 1.204-.3233 2.472 0 3.675.2035.645.5461 1.237 1.0036 1.735.4576.498 1.0188.889 1.6441 1.146.1876.103.365.224.5296.36.4138 1.029 1.1593 1.89 2.1182 2.447 1.0679.565 2.2916.766 3.4844.572.5825 0 1.1544-.085 1.7369-.149 1.031-.039 2.0133-.448 2.7677-1.152s1.2306-1.656 1.3416-2.682c.0676-1.215-.2155-2.425-.8155-3.484-.3146-.619-.6683-1.216-1.0591-1.79-.2338-.317-.4461-.65-.6355-.995-.0645-.137-.104-.284-.1165-.435-.0708-.626-.0708-1.258 0-1.885.106-1.79.3178-3.58.4555-5.359.1376-1.779.2224-3.675.2647-5.518.0565-1.558.0176-3.117-.1165-4.67-.1377-1.536-.3812-3.072-.6354-4.586-.1743-1.197-.4615-2.374-.8579-3.516-.3919-1.06-.932-1.981-1.4192-2.977-.6566-1.313-1.2709-2.647-1.9275-3.961-.8791-1.758-1.8323-3.484-2.8172-5.179-.985-1.694-2.1182-3.526-3.1773-5.295-.7553-1.114-1.4009-2.299-1.9276-3.537-.1855-.737-.2286-1.503-.1271-2.256.1165-1.79.2754-3.58.3813-5.37.1324-1.884.1111-3.775-.0636-5.656-.1376-1.249-.4554-2.33-.6778-3.5369l.4342-.3919c1.0591-1.0591 2.1182-2.0017 3.1773-3.0184.7626-.7414 1.5251-1.5251 2.3301-2.2029.8049-.6778 1.7369-1.3662 2.5842-2.1182 1.1627-1.0932 2.226-2.2876 3.1772-3.5692.7944-1.0591 1.4828-2.1923 2.2771-3.1773.3489-.5131.75-.9886 1.1968-1.4191.1313-.1218.273-.2316.4236-.3284.5246-.245 1.0187-.5507 1.4722-.9108.6298-.5251 1.1545-1.1648 1.5462-1.8852.3478-.6234.5776-1.3055.6779-2.0123 0-.2753 0-.5719.0847-.8473.1564-.7103.1708-1.4446.0424-2.1605z" fill="#a92819"/><path d="m18.3648 88.7945c.0533-.1041.128-.1957.2193-.2687s.197-.1258.3102-.155c.1716-.0312.3474-.0312.519 0 .1199.0025.2376.0324.3441.0875s.1989.1338.2702.2303c.3563.389.6887.7993.9955 1.2285.2259.3034.4813.5837.7626.8367.1972.178.4182.3277.6566.4448.1801.0953.3177.1165.3495.0848.0318-.0318 0-.1165-.1271-.3072-.1271-.1906-.2436-.4872-.3495-.7202-.0954-.1869-.1631-.3867-.2012-.5931-.0285-.0614-.0432-.1282-.0432-.1959s.0147-.1345.0432-.1959c.0399-.0293.0882-.0451.1377-.0451s.0977.0158.1377.0451c.1189.092.2256.1988.3177.3177.1059.1271.2224.2648.4342.4872s.5296.4978.7202.7096c.1589.1571.2849.3443.3707.5507.0999.2469.1778.502.233.7626.0204.2891.0204.5793 0 .8684.0117.6712.0754 1.3404.1906 2.0017.2068 1.0352.4864 2.0544.8367 3.0502.4448 1.3451 1.0591 3.1778 1.5463 4.6708s.7096 2.838.9214 3.707c.1.543.2973 1.063.5825 1.535.1801.244.3495.297.8367.117.7341-.294 1.4425-.648 2.1182-1.059.8703-.53 1.7117-1.107 2.5206-1.727.7838-.614 1.4616-1.218 2.1182-1.768.5154-.488 1.06-.945 1.6311-1.366.4449-.335.9424-.592 1.4721-.763.6471-.188 1.2835-.411 1.9064-.667.8618-.357 1.6541-.8623 2.3406-1.4936.1809-.1745.3011-.4023.3431-.6501.0419-.2478.0033-.5025-.1101-.7267-.1499-.3516-.3497-.6798-.5931-.9744-.2072-.2898-.4531-.5499-.7308-.7731-.334-.236-.6884-.4416-1.0591-.6143l-1.3027-.6461c-.596-.2548-1.1729-.5521-1.7263-.8896-.6606-.4044-1.2333-.9375-1.684-1.5675-.4002-.6465-.6667-1.3668-.7837-2.1182-.117-.5695-.117-1.1568 0-1.7263.1318-.6197.372-1.2113.7096-1.7475.3477-.5874.8216-1.0903 1.3874-1.4721.559-.4078 1.1978-.6929 1.8746-.8367.7029-.1542 1.4342-.1177 2.1182.1059.8955.3607 1.7338.8494 2.4889 1.4509.7499.5589 1.423 1.2141 2.0017 1.9488.4876.5782.7739 1.2994.8155 2.0546-.0681.6614-.2854 1.2988-.6355 1.864-.2911.4448-.4525.9619-.466 1.4934.0926.49.3371.9384.699 1.2815.3126.3385.6688.6341 1.0591.879.2815.2142.6015.3724.9426.466.3085.017.6139-.0687.8685-.2436.4652-.2268.8908-.5272 1.2603-.8896.4766-.4448.9426-1.0591 1.6098-1.6416.7674-.5976 1.6072-1.0958 2.4995-1.4827.9426-.4237 1.9593-.7944 3.1138-1.3769 1.0974-.5887 2.1585-1.243 3.1772-1.9593.5223-.3281.9933-.7314 1.3981-1.1968.3177-.3813.646-.8578 1.0591-1.345.4859-.5714 1.0172-1.1027 1.5886-1.5887.6778-.6037 1.5463-1.2921 2.3512-1.8746s1.5145-1.0591 2.1923-1.5886c.624-.443 1.1866-.9665 1.6734-1.5569.2621-.3815.3855-.8413.3495-1.3027 0-.3813 0-.699 0-1.0591s0-.8155 0-1.1544c.0023-.2814.0637-.5593.1801-.8155.1394-.2599.3101-.5018.5083-.7202.2162-.2645.4695-.4963.752-.6884.3314-.1623.691-.2594 1.0591-.286.5006-.0799 1.0081-.1083 1.5145-.0847.3683.0002.7219.1447.9849.4025.1589.1906.106.413-.2118.5931-.3177.18-.9426.3495-1.3027.5401-.1418.0613-.2619.1637-.345.2939-.083.1303-.1252.2824-.121.4369-.0311.3912-.0311.7843 0 1.1756-.0008.322.042.6426.1271.9532.0848.2118.2436.2965.4131.1165.1873-.2921.3401-.6048.4554-.9321.0954-.2421.2396-.462.4236-.646.1589-.1271.3495-.2118.4025-.0635.0118.292-.0167.5842-.0847.8684 0 .3283 0 .6143-.0742.8579-.0381.2392-.1207.4691-.2436.6778-.1596.2997-.3712.5686-.6248.7943-.2772.1925-.5715.3591-.8791.4978-.3747.2226-.7292.4777-1.0591.7626-.651.5599-1.2436 1.1845-1.7687 1.864-.7096.9002-1.4509 2.1182-2.3194 3.2514-.8228 1.1118-1.7406 2.1501-2.7431 3.1032-.9002.8155-1.7051 1.3768-2.4783 2.0334-.7731.6567-1.5039 1.398-2.51 2.3724-1.0062.9744-2.2771 2.1817-3.1773 2.9867-.6177.4712-1.13 1.0665-1.5039 1.7475-.2122.6688-.2379 1.3829-.0742 2.0652.1589.8686.4872 1.9166.6461 3.3256.1297 1.671.1297 3.349 0 5.02-.0953 1.864-.2754 3.845-.3707 5.296-.1288 1.266.0194 2.545.4342 3.749.617 1.484 1.3798 2.903 2.2771 4.236 1.0591 1.631 2.1182 3.474 3.1773 5.232s1.9381 3.442 2.7113 4.957c.7731 1.514 1.3874 2.88 1.9169 3.95.5296 1.07.9638 1.832 1.2604 2.616.3104.916.5338 1.859.6672 2.817.2118 1.218.4766 2.839.6037 4.237.1122 1.409.144 2.823.0953 4.236 0 1.546-.1059 3.368-.2542 5.296-.1483 1.927-.3813 4.014-.4554 5.422-.1078.918-.1078 1.846 0 2.764.0772.539.2417 1.061.4872 1.547.2682.506.5689.994.9002 1.461.3159.417.5958.86.8367 1.324.2441.422.3924.892.4342 1.377 0 .328-.3071.371-.7519.424s-1.0591.105-1.5993.148c-.4233.089-.8631.06-1.2709-.085-.2859-.159-.3918-.519-.5825-.879-.2127-.401-.4962-.759-.8367-1.059-.4088-.353-.8565-.659-1.3344-.911-.3919-.201-.6461-.265-.7626-.635-.1257-.515-.1257-1.053 0-1.568.1701-.484.3681-.958.5931-1.419.2686-.753.4221-1.542.4554-2.341.0721-.968.0401-1.94-.0953-2.902-.1987-1.071-.4532-2.132-.7625-3.177-.3601-1.281-.8473-2.986-1.1545-4.628-.2694-1.517-.4462-3.048-.5295-4.586-.0741-1.345-.0953-2.446-.2012-3.177-.075-.663-.3357-1.291-.752-1.811-.4766-.646-1.218-1.557-2.2876-2.913-1.0697-1.355-2.4677-3.177-3.6857-4.776-1.218-1.6-2.2665-3.072-2.9337-3.898s-.9744-1.059-1.3768-.985c-.4025.074-.8791.339-1.7899 1.494-.9108 1.154-2.2347 3.177-3.315 4.84-1.0803 1.662-1.8958 2.859-2.9231 4.363-1.1088 1.529-2.1171 3.128-3.0184 4.787-.6335 1.378-1.1061 2.825-1.4086 4.311-.4949 1.985-1.132 3.931-1.9064 5.825-.9108 2.192-2.1182 4.586-2.8913 6.227-.5066 1.094-.9108 2.232-1.2074 3.4-.1906.763-.3283 1.377-.4872 1.885-.1544.447-.3311.885-.5295 1.313-.1695.414-.3178.858-.4343 1.24-.1165.381-.2012.646-.2753.857-.0224.109-.075.21-.1518.291-.0768.08-.1746.137-.2825.165-.5224.132-1.0604.193-1.5992.18-.8473 0-2.0229 0-2.7537 0-.7307 0-.9849 0-1.0591-.403-.0055-.626.1792-1.239.5296-1.758.4454-.644.9565-1.24 1.5251-1.779.466-.466.699-.762 1.0591-1.059.4179-.336.7759-.741 1.0591-1.197.526-.953.8606-2 .985-3.082.2224-1.451.2541-3.399.4871-5.348.2039-1.997.6667-3.959 1.3769-5.836.7413-1.917 1.8428-3.802 2.5206-5.295.5296-1.156.9275-2.367 1.1862-3.612.2224-.985.3813-1.843.7202-3.061s.8685-2.785 1.3662-4.162c.4879-1.397 1.0464-2.769 1.6734-4.109.7202-1.536 1.6946-3.4 2.4465-4.766.6147-1.03 1.1767-2.091 1.684-3.177.4114-.939.6929-1.93.8367-2.945.1276-.95.0554-1.917-.2118-2.838-.3394-1.125-.7789-2.216-1.3133-3.262-.4362-.927-.9425-1.819-1.5145-2.669-.2995-.491-.6959-.917-1.165-1.25-.3526-.216-.7627-.319-1.1756-.296-.6236.047-1.2283.236-1.7687.55-.8155.403-1.8958 1.06-3.1138 1.727-1.222.644-2.477 1.224-3.7598 1.737-.9976.406-2.0157.759-3.0502 1.059-.5509.188-1.1243.302-1.7051.339-.289.001-.5735-.072-.8261-.212-.207-.083-.4056-.186-.5931-.307-.24-.137-.4435-.33-.5931-.562-.3072-.508-.519-1.068-.6249-1.652-.2542-.974-.5931-2.51-.8896-4.236-.2966-1.727-.5402-3.707-.7308-5.296-.1906-1.5883-.3071-2.6368-.4025-3.3358-.0252-.3936-.1036-.7819-.233-1.1545-.0786-.1749-.2077-.3224-.3706-.4236l-.7202-.466c-.3704-.2291-.7243-.4839-1.0591-.7626-.2947-.2662-.5545-.5687-.7732-.9002-.3117-.4657-.5811-.9583-.8049-1.4721-.2169-.525-.3766-1.0719-.4766-1.631-.0749-.3546-.0604-.7222.0424-1.0697z" fill="#a92819"/><path d="m16.0866 121.436 2.5524 2.118c-.1271.096-12.55029 15.59-7.6467 29.75l-3.11372 1.059c-5.52848-15.886 7.64672-32.239 8.20802-32.927z" fill="#4c8bca"/><path d="m18.2377 80.7456-.4342.053z" fill="#1d1d1b"/><path d="m15.3049 81.6245c-.1419.0622-.2798.1329-.4131.2118z" fill="#1d1d1b"/><path d="m10.7594 12.0739c1.2341 0 2.2347-1.0005 2.2347-2.23471 0-1.23419-1.0006-2.2347-2.2347-2.2347-1.23423 0-2.23474 1.00051-2.23474 2.2347 0 1.23421 1.00051 2.23471 2.23474 2.23471z" fill="#2a3277"/><path d="m9.28694 192.946c1.23416 0 2.23466-1 2.23466-2.234s-1.0005-2.235-2.23466-2.235c-1.23419 0-2.23469 1.001-2.23469 2.235s1.0005 2.234 2.23469 2.234z" fill="#2a3277"/><path d="m10.7592 16.6805c1.3464.0042 2.6639-.3908 3.7859-1.1352 1.1219-.7443 1.9981-1.8046 2.5177-3.0467s.6593-2.61042.4015-3.93194c-.2578-1.32153-.9015-2.53697-1.8499-3.49274-.9484-.95576-2.1588-1.60895-3.4783-1.87701-1.3194-.26807-2.68878-.13898-3.93492.37096-1.24613.50993-2.31314 1.37782-3.06618 2.49398s-1.15832 2.4305-1.16461 3.77692c-.00418.89523.16818 1.78243.50722 2.61093s.8381 1.5821 1.46864 2.2175c.63054.6355 1.38018 1.1404 2.20604 1.4859.82586.3454 1.71172.5247 2.60691.5274zm-9.29887-6.84173c-.00209-1.83959.5415-3.63848 1.562-5.16906 1.02049-1.53059 2.47205-2.7241 4.17101-3.42953 1.69896-.705435 3.56896-.891095 5.37346-.533493 1.8045.357603 3.4624 1.242403 4.764 2.542443 1.3015 1.30005 2.1882 2.95693 2.5478 4.76103.3597 1.80409.1762 3.67434-.5273 5.37414-.7035 1.6997-1.8954 3.1526-3.4248 4.1749-1.5294 1.0222-3.3277 1.5679-5.1673 1.5679-2.46437 0-4.82797-.9783-6.57155-2.7199-1.74357-1.7416-2.72451-4.1041-2.72732-6.56843z" fill="#179e6c"/><path d="m16.0983 190.722c0-1.346-.3989-2.662-1.1462-3.781-.7474-1.119-1.8097-1.992-3.0529-2.508-1.2431-.516-2.61127-.653-3.9317-.391-1.32043.261-2.53389.907-3.48712 1.857-.95323.951-1.60349 2.162-1.86864 3.482-.26515 1.319-.13331 2.688.37888 3.933.51218 1.244 1.38174 2.309 2.49885 3.06 1.1171.751 2.43166 1.154 3.77764 1.158.89609.003 1.78389-.171 2.61259-.512s1.5819-.842 2.2165-1.475 1.1381-1.384 1.4817-2.212c.3435-.827.5204-1.715.5204-2.611zm-16.09829399 0c-.00209146-1.838.54141399-3.636 1.56168399-5.165 1.02028-1.529 2.47143-2.722 4.16969-3.426s3.56725-.888 5.37032-.529c1.803.359 3.4589 1.245 4.7581 2.546 1.2992 1.3 2.1832 2.957 2.5401 4.761.3569 1.803.1705 3.672-.5354 5.369-.706 1.698-1.8998 3.148-3.4302 4.166-1.5305 1.019-3.3288 1.56-5.16719 1.556-2.4579-.006-4.81337-.985-6.55038-2.724-1.737014-1.739-2.71392774-4.096-2.71672399-6.554z" fill="#179e6c"/></svg>