<svg fill="none" height="200" viewBox="0 0 189 200" width="189" xmlns="http://www.w3.org/2000/svg"><path d="m188.75 74.68-17.072 7.4014c-1.466-2.063-3.263-3.8701-5.317-5.3483h-4.424l-.062 2.9564c5.882.8418 7.504 4.5476 7.401 7.8325-.441 4.1062-2.977 7.1242-8.623 6.8265-1.274-.1875-2.47-.732-3.449-1.5706-1.242-1.5809.349-2.9359 1.663-2.2071 2.885 1.5912 6.303-.4311 6.406-2.9051.055-1.0046-.279-1.9919-.933-2.7566-.653-.7647-1.577-1.2481-2.578-1.3495-1.211 1.2318-3.264 1.0984-3.89 0l.164-6.7752h-4.384c0-.3798-.071-.7801-.112-1.1702.102-.9136.184-1.817.246-2.6895h4.332l.123-6.4569c.433-.4783 1.019-.7919 1.657-.8873.638-.0955 1.289.0331 1.844.3637 1.002-.099 1.928-.5812 2.584-1.3462s.992-1.7537.937-2.7599c-.103-2.4842-3.521-4.5065-6.406-2.8949-1.314.7186-2.905-.6261-1.663-2.207.978-.8418 2.173-1.3899 3.449-1.5809 5.646-.2977 8.212 2.669 8.623 6.8265.103 3.2541-1.468 6.8983-7.186 7.8017l-.092 3.1617h3.593c2.41-1.5241 4.501-3.5007 6.159-5.8205z" fill="#0f7657"/><path d="m186.871 175.835h-186.624662v2.505h186.624662z" fill="#179e6c"/><path d="m186.624 181.974h-186.624v2.505h186.624z" fill="#179e6c"/><path d="m186.296 154.134h-72.576v2.505h72.576z" fill="#a92819"/><path d="m186.05 145.686h-72.576v2.505h72.576z" fill="#179e6c"/><path d="m185.505 127.126h-15.265v2.505h15.265z" fill="#179e6c"/><path d="m185.505 116.481h-15.265v2.505h15.265z" fill="#a92819"/><path d="m185.505 105.343h-15.265v2.505h15.265z" fill="#179e6c"/><path d="m181.182 161.89-6.221 6.914 1.862 1.675 6.221-6.914z" fill="#4c8bca"/><path d="m182.478 190.987h-2.505v9.013h2.505z" fill="#a92819"/><path d="m182.478 189.735h-2.505v1.252h2.505z" fill="#a92819"/><path d="m177.858 11.6818c1.252 0 2.268-1.0157 2.268-2.26862 0-1.25294-1.016-2.26865-2.268-2.26865-1.253 0-2.269 1.01571-2.269 2.26865 0 1.25292 1.016 2.26862 2.269 2.26862z" fill="#2a3277"/><path d="m175.693 190.987h-2.505v9.013h2.505z" fill="#a92819"/><path d="m175.693 189.735h-2.505v1.252h2.505z" fill="#a92819"/><path d="m171.609 161.86-6.224 6.911 1.861 1.676 6.224-6.911z" fill="#4c8bca"/><path d="m187.262 9.41332c0 1.85978-.552 3.67778-1.585 5.22408s-2.502 2.7515-4.22 3.4632-3.609.8979-5.433.5351-3.499-1.2584-4.814-2.5734-2.211-2.9905-2.574-4.8145c-.363-1.82405-.176-3.71469.535-5.43287.712-1.71819 1.917-3.18675 3.464-4.21997 1.546-1.033226 3.364-1.5847061 5.224-1.5847061 2.493 0 4.885.9906761 6.649 2.7540961 1.763 1.76342 2.754 4.15512 2.754 6.64897zm-9.403 6.88808c1.365.002 2.7-.4011 3.836-1.1583s2.022-1.8345 2.545-3.0954c.524-1.2609.661-2.64882.395-3.98791-.266-1.3391-.923-2.56921-1.888-3.53457-.966-.96537-2.196-1.62258-3.535-1.88843-1.339-.26584-2.727-.12837-3.988.39502s-2.338 1.40916-3.095 2.54515c-.757 1.136-1.16 2.47113-1.158 3.83636.002 1.82598.729 3.57638 2.02 4.86758s3.042 2.0178 4.868 2.0205z" fill="#179e6c"/><path d="m168.905 190.987h-2.505v9.013h2.505z" fill="#a92819"/><path d="m168.905 189.735h-2.505v1.252h2.505z" fill="#a92819"/><path d="m167.224 20.4695c3.962 4.3627 10.347 6.2208 18.95 5.4919l.215 2.5048c-1.283.1026-2.504.154-3.695.154-7.617 0-13.427-2.1763-17.328-6.4878-7.319-8.0788-5.133-20.59227-5.03-21.1158l2.474.44141c-.021.12319-2.064 11.85649 4.414 19.01149z" fill="#4c8bca"/><path d="m162.879 161.887-6.22 6.913 1.862 1.676 6.22-6.914z" fill="#4c8bca"/><path d="m162.12 190.987h-2.505v9.013h2.505z" fill="#a92819"/><path d="m162.12 189.735h-2.505v1.252h2.505z" fill="#a92819"/><path d="m154.154 161.858-6.224 6.911 1.861 1.676 6.224-6.911z" fill="#4c8bca"/><path d="m155.335 190.987h-2.504v9.013h2.504z" fill="#a92819"/><path d="m155.335 189.735h-2.504v1.252h2.504z" fill="#a92819"/><path d="m149.885 73.0073h3.891c-.062.8726-.144 1.7759-.247 2.6895 0 .3901.082.7905.113 1.1703h-3.901c0-.2772 0-.5543-.072-.8315-.01-.123-.01-.2466 0-.3696-.016-.1329-.016-.2673 0-.4003.083-.7904.154-1.5295.216-2.2584z" fill="#0f7657"/><path d="m149.741 76.8671h-3.736c0-.6262-.103-1.2626-.175-1.9299-.072-.6672.123-1.3037.164-1.9299h3.891c-.062.7289-.133 1.468-.216 2.2379-.016.1329-.016.2674 0 .4003-.01.123-.01.2466 0 .3696.031.2977.062.5748.072.852z" fill="#0f7657"/><path d="m148.55 190.987h-2.504v9.013h2.504z" fill="#a92819"/><path d="m148.55 189.735h-2.504v1.252h2.504z" fill="#a92819"/><path d="m145.421 161.892-6.22 6.914 1.862 1.675 6.22-6.914z" fill="#4c8bca"/><path d="m144.219 74.9885c0-1.0265.164-1.9299.369-1.9299h1.407c0 .6262-.093 1.2729-.165 1.9299-.071.657.134 1.3037.175 1.9299h-1.417c-.154 0-.287-.4825-.338-1.1805-.021-.2361-.031-.4825-.031-.7494z" fill="#0f7657"/><path d="m186.572 51.491c-25.817-3.5004-38.074-17.3381-43.802-28.2913-3.782-7.1745-5.927-15.09746-6.283-23.1997h2.505c.387 7.72841 2.451 15.2802 6.046 22.1321 7.946 15.1209 22.03 24.1647 41.904 26.885z" fill="#4c8bca"/><path d="m94.093 87.8201c.544 0 1.0265 0 1.6219-.0616l28.4861 29.3485c1.91-4.311 4.733-7.617 7.607-11.015 5.728-6.7336 11.774-13.8475 10.214-30.1489l2.228-.2053c0 .698.184 1.1805.338 1.1805h1.417c1.273 16.9892-5.133 24.5347-11.23 31.6997-2.906 3.418-5.728 6.734-7.402 10.973-.073.18-.17.349-.287.503l2.494 2.567c1.633-2.115 3.521-4.106 5.482-6.272 7.709-8.336 16.712-18.0777 14.679-39.5015h3.901c2.053 22.902-7.514 33.2805-15.736 42.1705-5.184 5.605-9.783 10.563-9.896 17.779-.008.515-.221 1.005-.59 1.363-.37.358-.867.555-1.381.547-.515-.009-1.005-.221-1.363-.59-.358-.37-.555-.867-.547-1.381.068-3.929 1.231-7.762 3.357-11.066l-36.7498-37.9001c1.1189.0308 2.2379.041 3.3568.0102z" fill="#0f7657"/><path d="m144.586 73.0587c-.205 0-.37.8726-.37 1.9299v.7494l-2.227.2053c0-.2156 0-.4209-.062-.6365-.005-.082-.005-.1643 0-.2463-.01-.1401-.01-.2808 0-.4209 1.663-16.7325-4.506-23.8875-10.337-30.6729-2.977-3.4492-5.882-6.8162-7.832-11.2919l-28.805 32.2024h-.2053l-3.9214-.7493 35.9907-40.2095c-1.326-2.8057-2.338-5.7491-3.018-8.7768-.058-.2488-.065-.5063-.023-.758s.133-.4927.269-.7091c.273-.437.709-.7475 1.211-.8632.503-.1157 1.03-.0271 1.467.2463.437.2733.748.7091.864 1.2114 2.422 10.3578 7.719 16.0653 12.842 21.5573 7.688 8.2841 15.007 16.1884 13.344 37.1092h-3.89c1.601-19.5041-5.133-26.8439-12.319-34.5018-3.388-3.4271-6.393-7.2134-8.961-11.2919l-2.176 2.4226c.276.2188.492.5051.626.8315 1.704 4.1985 4.547 7.5142 7.473 10.9121 6.159 7.1241 12.606 14.6281 11.436 31.6173z" fill="#0f7657"/><path d="m141.765 190.987h-2.504v9.013h2.504z" fill="#a92819"/><path d="m141.765 189.735h-2.504v1.252h2.504z" fill="#a92819"/><path d="m135.861 161.852-6.225 6.91 1.862 1.677 6.224-6.911z" fill="#4c8bca"/><path d="m134.981 190.987h-2.505v9.013h2.505z" fill="#a92819"/><path d="m134.981 189.735h-2.505v1.252h2.505z" fill="#a92819"/><path d="m131.448 68.2746c.831.3957 1.525 1.0296 1.995 1.821.47.7915.693 1.7049.643 2.6239.003.643-.126 1.2799-.379 1.8713-.252.5914-.623 1.1249-1.089 1.5676-.035.1464-.08.2905-.134.4311-.005.6554-.149 1.3022-.421 1.8983-.273.5961-.668 1.1281-1.16 1.5611-.369.3285-.728.5236-1.026.7597-.964 1.1891-2.351 1.9581-3.87 2.1454-1.664.1087-3.335-.0719-4.938-.5338-.503-.1334-1.283-.4003-1.765-.4722-.28.0038-.559.0382-.832.1027-1.026.1745-2.053.4003-3.08.5851-1.632.2874-3.305.5338-4.947.6775-1.638.113-3.28.113-4.918 0-1.632-.0821-3.243-.2053-4.896-.1642-2.2174.0616-4.4347.3182-6.6726.3695-.7904 0-1.5808 0-2.361 0l-3.9111-4.024c1.7964.0924 4.1061.1951 6.1592.1437 2.4534-.0513 4.681-.3079 6.6515-.3593 1.971-.0513 3.675.0924 5.205.1643 1.457.0803 2.918.0632 4.373-.0513 1.54-.1335 3.275-.3901 4.599-.6262s2.279-.4517 3.08-.5954c.674-.1421 1.366-.1836 2.053-.1232.585.0821 1.16.2977 2.207.5646 1.137.3257 2.318.4746 3.5.4414.653-.1205 1.234-.4882 1.622-1.0265.372-.3141.763-.6055 1.17-.8726.107-.0881.189-.2027.238-.3325.048-.1297.062-.2699.039-.4066-.049-.2362-.07-.4774-.061-.7186.058-.1632.153-.3108.277-.4311.041-.0664.063-.1428.063-.2207 0-.078-.022-.1544-.063-.2207-.062-.1951-.205-.4517-.246-.6467-.041-.1951 0-.308.287-.4209.356-.0864.7-.2139 1.027-.3798.112-.0901.2-.2067.255-.3394.056-.1327.077-.2772.063-.4203.028-.1706.001-.3458-.079-.4994s-.207-.2773-.363-.3526c-.664-.2067-1.357-.3071-2.053-.2977-.872 0-1.837 0-2.73 0s-1.725 0-2.341.1232c-.454.0176-.898.1332-1.303.3387-.277.1707-.526.3818-.74.6262-.211.231-.445.4408-.698.6262-.287.2259-.687.4825-1.991.4414-1.304-.041-3.501-.4003-5.841-.6262-2.224-.2193-4.459-.2982-6.693-.2361-1.868.0719-3.08.3183-4.209.4004-1.099.0555-2.2018-.0169-3.2847-.2156-1.2627-.2053-2.8846-.503-4.5373-.8212l-4.1062-.7904 3.0283-3.3774 1.817.3491c1.4782.2771 2.9461.5646 4.4243.7904.7907.1554 1.5976.214 2.4026.1745 1.447-.0924 2.833-.3387 4.321-.4003 2.399-.0715 4.799.0142 7.186.2566 1.776.1642 3.726.5235 5.482.5954.443-.4701.951-.8745 1.509-1.2011.861-.4621 1.808-.7417 2.782-.8212.882-.1026 1.806-.1232 2.71-.1437.903-.0205 1.971 0 2.946 0 1.245-.0159 2.479.2288 3.624.7186z" fill="#fff"/><path d="m128.594 74.1878c0 .195.185.4517.247.6467.041.0664.062.1428.062.2207 0 .078-.021.1544-.062.2207-.125.1204-.22.268-.277.4312-.009.2411.012.4824.061.7185.023.1367.009.277-.039.4067-.049.1297-.131.2444-.238.3325-.407.267-.798.5584-1.17.8725-.388.5383-.969.906-1.622 1.0265-1.183.0332-2.363-.1156-3.501-.4414-1.026-.2669-1.622-.4824-2.207-.5646-.686-.0603-1.378-.0188-2.053.1232-.77.1437-1.714.349-3.079.5954-1.366.2464-3.08.4928-4.599.6262-1.455.1145-2.916.1317-4.373.0513-1.53-.0718-3.234-.2258-5.205-.1642-1.9707.0616-4.1983.3079-6.6517.3593-2.0531 0-4.3936-.0514-6.1593-.1437l-3.0796-3.1618 4.5168-5.0505 4.1061.7904c1.6528.3182 3.2747.6159 4.5373.8212 1.083.1987 2.1853.2711 3.2854.2156 1.026-.0821 2.34-.3285 4.208-.4003 2.234-.0622 4.47.0167 6.693.2361 2.341.2258 4.548.5748 5.841.6261 1.294.0514 1.704-.2155 1.992-.4414.252-.1854.486-.3952.698-.6262.214-.2444.463-.4555.739-.6261.405-.2056.85-.3212 1.304-.3388.616-.0719 1.447-.1129 2.34-.1232.893-.0102 1.858 0 2.731 0 .696-.0094 1.388.0911 2.053.2977.156.0753.283.199.362.3526.08.1536.108.3288.079.4994.015.1432-.007.2876-.062.4203-.056.1327-.144.2494-.256.3394-.326.166-.671.2934-1.027.3798-.174.1642-.236.2772-.195.4722z" fill="#a92819"/><path d="m128.205 190.987h-2.505v9.013h2.505z" fill="#a92819"/><path d="m128.205 189.735h-2.505v1.252h2.505z" fill="#a92819"/><path d="m126.296 161.891-6.221 6.914 1.862 1.675 6.221-6.914z" fill="#4c8bca"/><path d="m122.033 190.987h-2.505v9.013h2.505z" fill="#a92819"/><path d="m122.033 189.735h-2.505v1.252h2.505z" fill="#a92819"/><path d="m118.597 163.548-6.211 6.908-1.878-1.673 6.231-6.919z" fill="#4c8bca"/><path d="m115.248 190.987h-2.505v9.013h2.505z" fill="#a92819"/><path d="m115.248 189.735h-2.505v1.252h2.505z" fill="#a92819"/><path d="m114.612 19.3301h-72.5657v2.5047h72.5657z" fill="#179e6c"/><path d="m114.376 10.8813h-72.5762v2.5048h72.5762z" fill="#a92819"/><path d="m114.121 2.43311h-72.5766v2.50474h72.5766z" fill="#179e6c"/><path d="m106.612 31.2238-6.224 6.9105 1.861 1.6763 6.224-6.9105z" fill="#4c8bca"/><path d="m108.463 190.987h-2.505v9.013h2.505z" fill="#a92819"/><path d="m108.463 189.735h-2.505v1.252h2.505z" fill="#a92819"/><path d="m101.678 190.987h-2.5043v9.013h2.5043z" fill="#a92819"/><path d="m101.678 189.735h-2.5043v1.252h2.5043z" fill="#a92819"/><path d="m97.8914 31.2323-6.2207 6.9137 1.8619 1.6754 6.2208-6.9138z" fill="#4c8bca"/><path d="m94.9552 64.8769-2.7512 3.0796-3.0796-.5851-1.0265-.2156 2.7408-3.0796 3.9214.7493z" fill="#0f7657"/><path d="m94.9026 190.987h-2.5048v9.013h2.5048z" fill="#a92819"/><path d="m94.9026 189.735h-2.5048v1.252h2.5048z" fill="#a92819"/><path d="m94.0925 87.8199c-1.1189 0-2.2378 0-3.3567 0l-4.3115-4.4449h.2669c1.6425.0821 3.2849.1642 4.9479.1848l4.1062 4.1985c-.5338.0308-1.1087.0616-1.6528.0616z" fill="#0f7657"/><path d="m94.0001 83.5702c2.2379 0 4.4552-.308 6.6729-.3695 1.652 0 3.264.0821 4.896.1642 1.637.113 3.28.113 4.917 0 1.643-.1437 3.316-.3901 4.948-.6775 1.027-.1848 2.053-.4106 3.08-.5851.272-.0645.551-.0989.831-.1027.483.0719 1.263.3388 1.766.4722 1.603.4619 3.273.6425 4.938.5338 1.507-.2027 2.878-.9784 3.829-2.166.297-.2361.657-.4311 1.026-.7596.492-.4331.887-.965 1.159-1.5611.273-.5961.417-1.243.422-1.8983.054-.1407.098-.2847.133-.4312.467-.4427.838-.9762 1.09-1.5676.253-.5914.381-1.2282.378-1.8713.051-.919-.173-1.8323-.642-2.6238-.47-.7915-1.165-1.4254-1.996-1.8211-1.147-.4757-2.382-.7064-3.624-.6775-1.026 0-1.96 0-2.946 0-.985 0-1.827 0-2.71.1437-.974.0795-1.921.3591-2.782.8212-.556.3203-1.064.7178-1.509 1.1806-1.755-.0719-3.705-.4312-5.481-.5954-2.387-.2424-4.788-.3282-7.186-.2567-1.489.0616-2.874.308-4.322.4004-.805.0394-1.6113-.0192-2.4019-.1745-1.4782-.2259-2.9462-.5133-4.4244-.7905l-1.817-.349 2.7512-3.0796c1.355.2566 2.7203.5235 4.1061.7391.5037.0996 1.016.1478 1.53.1437 1.478-.1129 2.905-.3593 4.434-.4106 2.583-.0959 5.17-.0067 7.74.2669 1.212.1027 2.546.3182 3.819.462.287-.1951.585-.3901.903-.5749 1.314-.7141 2.761-1.1509 4.25-1.2832 1.023-.1144 2.051-.1727 3.08-.1745h3.182c1.764-.0235 3.513.3264 5.133 1.0265 1.507.7183 2.769 1.8646 3.629 3.2959s1.279 3.0841 1.206 4.7522c-.015 1.8475-.611 3.6435-1.704 5.1327-.317 1.9442-1.287 3.7223-2.751 5.0403-.36.3091-.737.597-1.13.8623-1.544 1.6648-3.628 2.7302-5.882 3.0077-2.145.1808-4.305-.0314-6.374-.6262l-1.027-.2977c-1.027.1745-1.95.3901-2.926.5646-1.755.3182-3.541.5749-5.307.7186-1.806.1556-3.62.1831-5.43.0821-1.54-.0821-3.08-.2156-4.609-.1642-1.5299.0513-3.3777.195-5.0612.2977l-4.1061-4.1986c.7186 0 1.509 0 2.2994-.0205z" fill="#a92819"/><path d="m92.2035 67.9462-3.0283 3.3773-.7699-.1437c-1.1805-.2361-2.2891-.462-3.3362-.657l3.018-3.3773 1.0265.2156z" fill="#0f7657"/><path d="m89.1541 31.2326-6.2244 6.9105 1.8611 1.6763 6.2244-6.9105z" fill="#4c8bca"/><path d="m88.1178 190.987h-2.5048v9.013h2.5048z" fill="#a92819"/><path d="m88.1178 189.735h-2.5048v1.252h2.5048z" fill="#a92819"/><path d="m84.6572 76.3741 3.0796 3.1618h-.852c-1.2881-.0987-2.5819-.0987-3.87 0h-.3183l-1.7861-1.8273-.3593-.3695c-.0007-.3883-.0525-.7749-.154-1.1497 0-.1027-.0616-.2053-.1027-.308l.5749-.6262 4.1985-4.681c1.0266.1951 2.1558.4209 3.3363.657l.7699.1437z" fill="#0f7657"/><path d="m83.0045 79.4744c1.2881-.0987 2.5819-.0987 3.87 0h.8521l3.9111 4.024c-1.663 0-3.3055-.1026-4.9479-.1847h-.2669l-3.7366-3.7982z" fill="#0f7657"/><path d="m80.4305 31.2372-6.2208 6.9137 1.862 1.6753 6.2208-6.9137z" fill="#4c8bca"/><path d="m81.3329 190.987h-2.5048v9.013h2.5048z" fill="#a92819"/><path d="m81.3329 189.735h-2.5048v1.252h2.5048z" fill="#a92819"/><path d="m80.5435 77.3185-.811-.8315.5544-.6262c0 .1027.0718.2053.1026.308.1016.3748.1534.7614.154 1.1497z" fill="#0f7657"/><g fill="#a92819"><path d="m74.8233 85.757c.7294-.0779 1.4295-.3291 2.0421-.7327.6125-.4036 1.1196-.9478 1.4789-1.5873.1604-.2677.2879-.5538.3798-.852l.154-.1745c.616-.7745.9748-1.7219 1.0265-2.7101.4157-.7245.6318-1.5463.6262-2.3816l.3593.3696 1.7862 1.8272c-.6123.0928-1.2011.3019-1.7349.616-.6064.3665-1.056.9441-1.2626 1.6219-.2772.8315-.4209 2.0531-.7391 3.7058-.387 1.9399-.8736 3.8586-1.4577 5.7486-.6262 2.0531-1.3755 3.9316-1.7862 5.6459-.3645 1.4762-.503 2.9991-.4106 4.5172.066 1.266.4169 2.501 1.0266 3.613.698 1.365 1.8683 3.08 3.172 5.133s2.7305 4.198 3.9521 6.159 2.2687 3.808 3.2541 5.697c.9855 1.889 1.9505 3.87 2.5459 5.082.4445.685.7675 1.442.9546 2.237.0248 1.222-.0404 2.443-.195 3.655-.1745 2.227-.4106 5.882-.6467 8.982s-.4414 5.636-.6467 7.442c-.2053 1.807-.3799 2.875-.4107 3.788-.0677.792.0813 1.587.4312 2.3.3753.618.9016 1.13 1.5295 1.488.6467.421 1.3961.791 2.1968 1.253s1.6425 1.026 2.3713 1.344c.6275.251 1.2684.467 1.9196.647.5269.19 1.0354.427 1.5193.708.3427.172.6176.454.7802.801.082.162.1043.347.063.524-.0414.176-.1436.333-.2889.441-.6431.203-1.3181.287-1.9914.246-1.1194.073-2.2431.042-3.3568-.092-1.2626-.185-2.6177-.626-3.9316-.77-1.1302-.105-2.2693-.06-3.3876.134-.8315.123-1.2113.236-1.6835.308-.5222.088-1.0535.109-1.5809.061-.5373-.017-1.0537-.212-1.468-.554-.1827-.21-.317-.458-.3932-.726-.0763-.268-.0928-.549-.0482-.824.1098-.722.3498-1.418.7084-2.053.533-.809.9187-1.706 1.1394-2.649.3522-1.955.3938-3.954.1232-5.923-.2874-2.525-1.0265-5.533-1.3448-7.925-.3377-1.93-.3585-3.903-.0616-5.841.2977-1.622.8829-3.079.3696-4.527-.5133-1.447-2.1249-2.905-3.8906-4.804-1.7656-1.899-3.675-4.219-5.5125-6.56-1.8375-2.34-3.6031-4.701-4.6502-6.097s-1.3858-1.827-1.6835-1.961c-.2977-.133-.5338 0-1.2113 1.253-.6775 1.252-1.7965 3.531-3.3671 6.159-1.6037 2.707-3.3726 5.312-5.2969 7.801-1.6938 2.146-3.0796 3.46-4.0445 4.805-.8503 1.33-1.5395 2.757-2.0531 4.249-.669 1.746-1.49 3.429-2.4534 5.03-1.3591 2.251-2.8573 4.414-4.486 6.478-1.4679 1.848-2.6074 2.987-3.4697 4.168-.7624 1.039-1.3549 2.193-1.7554 3.418-.2795.853-.3945 1.752-.3387 2.648.103.838.151 1.682.1437 2.526-.0366.676-.2645 1.327-.657 1.878-.3285.39-.698.452-1.8888.462-1.1908.011-3.2131 0-4.7118 0-.9889.075-1.9833-.009-2.9462-.246-.4619-.226-.4003-.688-.1334-1.129.4329-.608.9398-1.16 1.509-1.643l2.7819-2.689c.7954-.702 1.4353-1.562 1.8786-2.526.653-1.644 1.2049-3.328 1.6527-5.04.7391-2.464 1.7759-5.861 2.7716-8.541.773-2.261 1.8653-4.401 3.2439-6.354 1.1982-1.523 2.5164-2.947 3.9419-4.26 1.0265-1.027 1.4987-1.53 2.3816-4.486.8828-2.956 2.207-8.315 3.6749-12.544 1.0855-3.34 2.593-6.528 4.486-9.485 1.4064-2.146 2.7511-3.419 3.4594-5.2255.6498-1.9842.8941-4.0787.7186-6.1592-.0928-1.7734-.3575-3.5336-.7904-5.2559-.3648-1.441-.8313-2.8543-1.3961-4.2293-.3009-.7309-.6437-1.4438-1.0265-2.1352l1.9504.308c1.4852.2234 2.9558.5353 4.4038.9341.716.2055 1.4051.4949 2.0531.8623.5338.3285.9239.7596 1.5193 1.0984.9361.5071 1.9604.8312 3.018.9547.4927.0616 1.0265.0616 1.5192.1437.308 0 .6776.1848 1.0266.2669.8323.2045 1.6948.2567 2.5458.154z"/><path d="m78.1196 73.1201c-.6704-.4418-1.3995-.7873-2.166-1.0265-.6877-.2361-1.4063-.4928-2.1249-.6673-.495-.1127-1.0013-.1679-1.509-.1642h.2566c1.0665-.024 2.1299-.1235 3.1823-.2977 1.3242-.2361 2.9256-.6981 4.332-.852 1.3316-.1171 2.6731-.041 3.9829.2258l1.0266.1642-4.2601 4.7324-.5749.6262c-.4049-1.1189-1.1566-2.0792-2.1455-2.7409z"/><path d="m75.9339 76.3437c.3185.2012.5634.5001.698.852.0303.1386.0255.2825-.014.4187-.0394.1363-.1122.2605-.2118.3615-.1951.2258-.4414.4311-.4928.657-.0027.2475.0354.4937.113.7288.0158.106.0083.2141-.0218.3169s-.0823.1978-.1528.2785c-.1391.1421-.2864.2757-.4414.4004-.136.1199-.2266.283-.2566.4619-.0313.243-.0934.481-.1848.7083-.0698.1094-.1651.2002-.2777.2646-.1127.0643-.2393.1004-.369.105-.3791.0485-.7635.0381-1.1394-.0308-.4004-.0924-.7699-.2361-1.2422-.308-.4722-.0719-1.0265-.0821-1.6116-.1642-.5665-.0853-1.1126-.2732-1.6117-.5544-.4414-.2463-.7083-.6056-1.3858-1.0265-.9637-.5676-1.9996-1.0027-3.0796-1.2934-1.6038-.4377-3.232-.7805-4.8761-1.0266-1.858-.3079-3.9008-.5954-5.9025-.9444-2.0071-.3214-3.9897-.781-5.9334-1.3756-.503-.1539-1.0266-.3284-1.5296-.5132-1.3829-.4885-2.7222-1.0929-4.0035-1.8067-1.0173-.6454-1.9696-1.3879-2.8435-2.2173-.7596-.6262-1.5911-1.0882-1.7553-1.6938-.0256-.1426-.0256-.2886 0-.4312.1561-.5327.4802-1.0008.9238-1.3345.5493-.4155 1.173-.7222 1.8376-.9033l.7596-.2669h.154c.6775-.1951 1.2729-.3593 2.0017-.5133.7526-.1783 1.5286-.2372 2.2995-.1745h.1026c.1367-.0096.2739-.0096.4106 0 .7159.0938 1.423.2448 2.1147.4517 1.1267.3262 2.2281.7345 3.2952 1.2216 1.2421.5646 2.669 1.2831 4.4243 2.2891 1.7554 1.006 3.8188 2.2995 5.3791 3.2028 1.2129.7207 2.4874 1.3321 3.8084 1.8273 1.1848.4324 2.4139.732 3.6648.893.9695.0939 1.9458.0939 2.9153 0 .4822-.0847.9755-.0847 1.4577 0 .5845.1534 1.1602.3385 1.7246.5544.4412.1396.8622.3363 1.2524.5851z"/><path d="m74.548 190.987h-2.5048v9.013h2.5048z"/><path d="m74.548 189.735h-2.5048v1.252h2.5048z"/></g><path d="m70.8782 31.2381-6.2207 6.9138 1.8619 1.6753 6.2208-6.9137z" fill="#4c8bca"/><path d="m71.241 71.3546c.3695 0 .7083-.0514 1.0265-.0514-.4003.0206-.7494.0514-1.0265.0514z" fill="#fff"/><path d="m69.0254 71.3749c-.9502-.1293-1.8832-.3634-2.7819-.698-1.1037-.4193-2.1686-.9345-3.1823-1.5398-.4619-.2566-.9136-.5235-1.3755-.8007.7009-.1606 1.3635-.457 1.9504-.8726.587-.4403 1.0822-.9913 1.4577-1.6219.3228-.4977.4474-1.0984.349-1.6835-.1596-.7656-.3898-1.5148-.6878-2.2379-.3145-.801-.5685-1.6245-.7596-2.4636-.1722-.8725-.2615-1.7592-.2669-2.6485-.0248-.7487.0973-1.495.3593-2.1968.3291-.688.7894-1.3052 1.355-1.817.5685-.6017 1.2723-1.0592 2.0531-1.3345.9181-.2934 1.8802-.4254 2.8435-.39 1.1083.002 2.2108.161 3.2746.4722.9424.3137 1.8143.8089 2.5664 1.4577.6393.5166 1.1197 1.2034 1.3858 1.9812.3147.9949.4536 2.037.4106 3.0796-.0556 1.2619-.2066 2.5179-.4517 3.7571-.2156 1.1395-.4311 2.0531-.6775 2.9051-.2018.755-.4876 1.4849-.852 2.1762-.2594.4931-.6849.8785-1.2011 1.0882-.4717.1182-.9654.1182-1.4371 0-.462-.0719-.8623-.1643-1.2421-.2156-.1912-.0596-.3969-.0524-.5834.0204-.1865.0727-.3428.2067-.4432.38-.2732.6224-.4464 1.2841-.5132 1.9606-.0924.6057-.1232.9445.1847 1.0266.1497.0463.3053.0705.462.0718h-.0308c-.7154.1199-1.441.168-2.166.1437z" fill="#a92819"/><path d="m67.7601 190.987h-2.5047v9.013h2.5047z" fill="#a92819"/><path d="m67.7601 189.735h-2.5047v1.252h2.5047z" fill="#a92819"/><path d="m61.3085 31.2311-6.2244 6.9105 1.8611 1.6763 6.2244-6.9104z" fill="#4c8bca"/><path d="m61.5522 190.987h-2.5047v9.013h2.5047z" fill="#a92819"/><path d="m61.5522 189.735h-2.5047v1.252h2.5047z" fill="#a92819"/><path d="m56.8084 81.045c-1.3243-.2053-2.6485-.4004-3.9727-.6262-2.1808-.351-4.3348-.8518-6.4467-1.4988l-.8007-.2669-.8109-.2771c-1.6377-.566-3.2186-1.2843-4.7221-2.1455-1.1917-.7596-2.3149-1.6217-3.3568-2.5766-1.2934-1.0265-2.4123-1.7143-2.9564-3.3876-.0349-.09-.0623-.1827-.0821-.2771-.0013-.024-.0013-.0479 0-.0719-.0303-.0899-.0509-.1828-.0616-.2772-.0873-.4911-.108-.9918-.0616-1.4884 0-.0616 0-.1232 0-.1643.2781-1.5042 1.0912-2.857 2.2892-3.8084.8966-.7029 1.9167-1.2321 3.0077-1.5604l.811-.2976.3182-.0924c.7391-.2156 1.4885-.4209 2.2481-.5749 1.1179-.2484 2.2661-.3314 3.4081-.2464l.7494.0719c.8956.122 1.7809.3107 2.6484.5646 1.3037.3849 2.5795.8582 3.8188 1.4166 1.6278.7411 3.2175 1.5634 4.7631 2.4637 1.3448.7802 2.6792 1.6117 4.0137 2.4021-.0636.0219-.1288.039-.195.0513-.7036.1316-1.4203.1798-2.1352.1437-.6126-.0265-1.2229-.0916-1.8272-.195-.8804-.1271-1.7515-.3123-2.6074-.5543-1.0266-.2977-2.1763-.7494-3.7469-1.2319-1.6264-.5044-3.2868-.8921-4.9684-1.16h-.1951c-.1364-.0147-.2741-.0147-.4106 0h-.1026-.1335c-.8468-.0676-1.6989-.0018-2.5253.1951-.6093.1489-1.2091.334-1.7964.5543-.6779.1624-1.3355.3999-1.9607.7083-.6311.2839-1.1482.7721-1.4679 1.3858-.0512.1315-.0824.2699-.0924.4106-.0256.1426-.0256.2886 0 .4312.0544.2833.1858.5461.3798.7596.4004.4517 1.0779.7289 1.7143 1.3037 1.0034 1.0956 2.2376 1.9547 3.6134 2.515.811.3593 1.817.7391 2.8949 1.1395 2.1146.7699 4.5065 1.5603 6.1592 2.2481 2.4637 1.0265 3.213 1.8478 3.87 2.8333.2259.3079.4825.7288.7289 1.1805z" fill="#fff"/><path d="m54.7644 190.987h-2.5048v9.013h2.5048z" fill="#a92819"/><path d="m54.7644 189.735h-2.5048v1.252h2.5048z" fill="#a92819"/><path d="m52.5323 31.461-6.2313 6.8823 1.8535 1.6781 6.2313-6.8823z" fill="#4c8bca"/><path d="m52.8364 80.419c1.3243.2258 2.6485.4208 3.9727.6261.3829.6915.7257 1.4044 1.0266 2.1352.5647 1.375 1.0313 2.7884 1.396 4.2294.433 1.7222.6977 3.4824.7905 5.2558.1755 2.0805-.0689 4.175-.7186 6.1592-.698 1.8063-2.0531 3.0793-3.4492 5.2663-1.893 2.958-3.4005 6.145-4.4859 9.485-1.468 4.229-2.7819 9.608-3.675 12.544s-1.3448 3.47-2.3816 4.486c-1.4255 1.313-2.7437 2.737-3.9419 4.26-1.3786 1.953-2.4709 4.093-3.2438 6.355-1.0266 2.679-2.0531 6.077-2.7717 8.54-.4598 1.696-1.022 3.362-1.6835 4.989-.4553.927-1.0945 1.751-1.8786 2.423l-2.7819 2.71c-.5692.483-1.0761 1.035-1.509 1.643-.2669.441-.3285.903.1335 1.129.9463.254 1.9266.358 2.9051.308h4.7118c1.1907 0 1.5603-.072 1.8888-.462.3925-.552.6203-1.203.657-1.879.0072-.844-.0408-1.687-.1437-2.525-.0558-.896.0592-1.795.3387-2.649.409-1.23 1.012-2.388 1.7862-3.428.8623-1.181 2.0531-2.32 3.4697-4.168 1.6311-2.053 3.1327-4.206 4.4962-6.447.9469-1.61 1.7507-3.3 2.4021-5.05.5136-1.493 1.2028-2.92 2.0531-4.25 1.0265-1.345 2.3507-2.659 4.0445-4.804 1.9243-2.489 3.6932-5.095 5.2969-7.802 1.5706-2.648 2.6896-4.958 3.3671-6.159s.9239-1.386 1.2113-1.252c.2874.133.6365.564 1.6835 1.96 1.0471 1.396 2.8127 3.747 4.6502 6.098s3.7469 4.671 5.5125 6.559c1.7657 1.889 3.3876 3.357 3.8906 4.805.503 1.447-.0719 2.905-.3696 4.527-.2969 1.937-.2761 3.91.0616 5.841.3491 2.391 1.0266 5.399 1.3448 7.925.2706 1.968.229 3.967-.1232 5.923-.2207.943-.6064 1.839-1.1394 2.648-.3585.636-.5985 1.332-.7084 2.053-.0445.275-.0281.556.0482.824.0762.268.2105.516.3933.726.4142.343.9306.538 1.4679.555.5274.047 1.0588.026 1.5809-.062.4722-.072.852-.185 1.6835-.308 1.1183-.194 2.2574-.239 3.3876-.133 1.3139.143 2.6689.585 3.9316.769 1.1137.135 2.2374.166 3.3568.093.6733.04 1.3483-.043 1.9914-.247.1453-.108.2475-.264.2889-.441.0413-.176.019-.362-.063-.523-.1626-.347-.4375-.63-.7802-.801-.4839-.282-.9924-.519-1.5193-.708-.6512-.181-1.2921-.397-1.9196-.647-.7288-.339-1.5808-.893-2.3713-1.345-.7904-.452-1.55-.831-2.1968-1.252-.6279-.359-1.1542-.871-1.5295-1.489-.3499-.713-.4989-1.508-.4312-2.299 0-.914.2156-1.981.4107-3.788.195-1.807.4208-4.353.6467-7.443.2258-3.089.4722-6.754.6467-8.982.1546-1.211.2198-2.433.195-3.654-.1871-.795-.5101-1.553-.9546-2.238-.5954-1.211-1.5501-3.193-2.5458-5.081-.9958-1.889-2.0531-3.686-3.2542-5.698-1.201-2.012-2.6587-4.219-3.9521-6.159-1.2935-1.94-2.474-3.716-3.172-5.133-.6097-1.111-.9606-2.347-1.0266-3.613-.0702-1.5139.089-3.0298.4722-4.4962.4107-1.7143 1.16-3.6442 1.7862-5.646.5841-1.8899 1.0707-3.8086 1.4577-5.7485.3182-1.6528.4619-2.8744.7391-3.7058.2066-.6778.6562-1.2554 1.2626-1.622.5338-.314 1.1226-.5231 1.7349-.6159l3.7366 3.8495c-.9874-.0767-1.9793-.0767-2.9667 0h-.1848c-.2156.8418-.349 2.0531-.5133 2.8333-.3967 2.0814-.9142 4.1379-1.55 6.1592-.5544 1.7964-1.2935 3.6134-1.7246 5.4098-.266 1.084-.3697 2.2013-.308 3.3156.0278.721.2285 1.426.5852 2.053.8212 1.591 1.9812 3.213 2.9666 4.722 1.3653 2.053 2.7101 4.189 4.0138 6.313 1.1908 1.93 2.3302 3.901 3.3773 5.913.8931 1.694 1.7246 3.419 2.5869 5.133.6498 1.07 1.0986 2.249 1.3242 3.48.0836 1.49.0286 2.985-.1642 4.465-.2361 2.988-.4312 5.985-.6468 8.962-.1847 2.525-.3798 5.071-.6569 7.586-.1232 1.129-.3491 2.392-.3901 3.511-.0052.085-.0052.171 0 .257.0533.044.1119.082.1745.112.6364.421 1.355.77 2.0531 1.15.698.38 1.3653.862 2.053 1.181.5074.195 1.0248.363 1.5501.503.8183.283 1.6031.655 2.341 1.108 1.07.602 1.903 1.551 2.361 2.69.42 1.012.468 2.141.133 3.184-.335 1.044-1.03 1.935-1.961 2.513-1.1966.625-2.5434.906-3.8903.811-1.3491.082-2.7029.041-4.0445-.123-1.2729-.195-2.5561-.616-3.7879-.749-.7916-.069-1.5887-.035-2.3713.102-.5544.082-1.0984.216-1.6528.308-.8585.139-1.7309.17-2.5971.093-1.4323-.095-2.7866-.687-3.829-1.674-.588-.615-1.0328-1.353-1.3025-2.161-.2697-.807-.3578-1.664-.2578-2.509.1516-1.249.5456-2.455 1.16-3.552.3474-.495.6045-1.048.7596-1.632.2566-1.535.2773-3.1.0616-4.64-.3387-2.628-1.006-5.205-1.3653-7.761-.4003-2.379-.4003-4.807 0-7.186.0924-.513.5441-2.176.5338-2.515-.9296-1.236-1.9596-2.393-3.0796-3.459-2.0531-2.166-3.9111-4.496-5.7281-6.816-1.0265-1.273-1.9709-2.556-2.9564-3.84-.4927.935-1.0265 1.869-1.5501 2.803-1.6828 2.857-3.5517 5.6-5.5946 8.212-1.2216 1.55-2.8024 3.08-3.9111 4.661-.6866 1.07-1.2447 2.217-1.663 3.418-.762 1.952-1.6785 3.84-2.7408 5.646-1.4453 2.408-3.0467 4.72-4.7939 6.919-1.0266 1.344-2.3713 2.658-3.3671 4.034-.516.7-.9211 1.476-1.201 2.299-.1372.403-.1897.829-.154 1.253.1126 1.022.1572 2.051.1334 3.079-.0897 1.498-.638 2.931-1.5706 4.107-1.3037 1.56-2.8743 1.817-4.8041 1.847-1.6014 0-3.2028 0-4.8145 0-1.5729.13-3.1548-.095-4.6297-.657-.5757-.288-1.0837-.695-1.4904-1.194s-.7029-1.078-.8688-1.7-.1979-1.273-.0938-1.908.3419-1.241.6976-1.778c.6064-.919 1.3351-1.751 2.166-2.474.9239-.883 1.8375-1.776 2.7512-2.669.4353-.364.8036-.802 1.0881-1.293.5873-1.491 1.0709-3.021 1.4474-4.578.8726-2.947 1.7862-5.924 2.8538-8.798.9025-2.603 2.171-5.064 3.7674-7.309 1.3195-1.687 2.7715-3.266 4.3422-4.722.7546-.775 1.2496-1.765 1.4166-2.833 1.2729-4.229 2.2687-8.5 3.7058-12.688 1.2026-3.652 2.858-7.138 4.9274-10.378.8417-1.253 2.5458-3.1929 3.0796-4.5274.4329-1.4744.5861-3.0168.4517-4.5476-.0768-1.514-.3037-3.0167-.6775-4.4859-.3154-1.2625-.7202-2.5009-1.2114-3.7058-.3722-.9516-.84-1.8631-1.396-2.7203-.562-.6759-1.3124-1.1691-2.1558-1.4167-1.6527-.698-3.3773-1.2523-5.0813-1.858l.8007.2669c2.1119.647 4.2659 1.1478 6.4466 1.4988z" fill="#fff"/><path d="m57.6696 65.9346c-1.5455-.9003-3.1352-1.7226-4.7631-2.4637-1.2392-.5584-2.5151-1.0317-3.8187-1.4166-.8675-.2539-1.7528-.4426-2.6485-.5646h.1335c1.9027.2881 3.7801.724 5.6151 1.3037 1.2421.3798 2.4637.852 3.6956 1.2113.6923.2021 1.3993.3496 2.1146.4414.4656.0795.935.1343 1.4064.1643.442.0292.8858.012 1.3242-.0514.2182-.0341.4256-.1184.6057-.2463l.1334-.113c-.1129-.3387-.2669-.698-.3593-.9546-.3695-.9563-.6713-1.9374-.9033-2.9359-.2373-1.1345-.3577-2.2902-.3593-3.4492-.0386-1.2783.1886-2.5507.6672-3.7366.5002-1.1556 1.2221-2.2019 2.125-3.0796.9756-1.0046 2.165-1.7766 3.4799-2.2584 1.379-.4401 2.8238-.6381 4.2704-.5851 1.5074-.0007 3.0062.2278 4.4449.6775 1.4254.4621 2.747 1.1978 3.8906 2.166 1.1509.9601 2.0171 2.2168 2.5047 3.6339.4958 1.4731.7117 3.0259.6365 4.5784-.056 1.4694-.2311 2.9319-.5235 4.373-.1973 1.1072-.4508 2.2036-.7597 3.285 0 .1129-.0718.2155-.1026.3284 1.4172-.052 2.8358.0547 4.2293.3183 1.1292.1847 2.2584.4003 3.3773.6262l-3.018 3.3875-1.0266-.1642c-1.3098-.2669-2.6513-.3429-3.9829-.2259-1.4064.154-3.0078.616-4.332.8521-1.0524.1742-2.1158.2737-3.1823.2977h-.2566c-.3285 0-.6672 0-1.0265.0513-.1567-.0014-.3123-.0256-.462-.0719-.3079-.1334-.2771-.4722-.1847-1.0265.0668-.6765.24-1.3382.5132-1.9607.1004-.1732.2566-.3072.4432-.38.1865-.0727.3922-.0799.5834-.0203.3798 0 .7801.1437 1.2421.2155.4717.1182.9654.1182 1.4371 0 .5162-.2096.9416-.595 1.2011-1.0881.3644-.6913.6502-1.4213.852-2.1762.2464-.8418.4619-1.7657.6775-2.9051.2451-1.2392.3961-2.4952.4517-3.7572.043-1.0426-.0959-2.0847-.4106-3.0796-.2661-.7777-.7465-1.4645-1.3859-1.9812-.7405-.6965-1.6131-1.2376-2.5663-1.5911-1.076-.322-2.1926-.4879-3.3157-.4928-.9894-.0516-1.9801.0735-2.9256.3696-.7808.2752-1.4846.7327-2.0531 1.3345-.5435.5173-.9826 1.1341-1.2934 1.817-.2621.7018-.3841 1.4481-.3593 2.1967.0054.8893.0947 1.7761.2669 2.6485.1911.8391.4451 1.6626.7596 2.4637.3062.729.5433 1.4851.7083 2.2584.0954.5863-.0329 1.1871-.3593 1.6835-.3691.6407-.861 1.2023-1.4474 1.6527-.5869.4155-1.2495.712-1.9504.8726-1.3756-.8213-2.669-1.6527-4.0138-2.4329z" fill="#fff"/><path d="m54.7965 67.7512c.856.2421 1.727.4272 2.6074.5543.6209.1125 1.2484.1845 1.8786.2156.7545.0563 1.5132.0183 2.2583-.1129.0662-.0123.1314-.0294.1951-.0513.4619.2771.9136.544 1.3755.8007 1.0138.6052 2.0786 1.1205 3.1823 1.5398.8987.3346 1.8317.5687 2.7819.698.7202.0719 1.4458.0719 2.166 0h.0513c.2772 0 .6262 0 1.0266-.0513.5076-.0037 1.014.0515 1.509.1642.7186.1746 1.4371.4312 2.1249.6673.7665.2392 1.4956.5847 2.166 1.0265.9965.6585 1.7557 1.6191 2.166 2.7409l-.5543.6262.8109.8315c.0056.8352-.2105 1.657-.6262 2.3815-.0517.9882-.4105 1.9356-1.0265 2.7101l-.154.1745c-.0919.2982-.2194.5843-.3798.852-.3593.6395-.8664 1.1837-1.4789 1.5873-.6126.4036-1.3127.6548-2.0421.7327-.8368.1011-1.685.0524-2.5048-.1437-.3182-.0822-.6877-.2156-1.0265-.2669-.4927-.0822-1.0265-.0822-1.5193-.1437-1.0575-.1236-2.0818-.4476-3.018-.9547-.5954-.3388-1.0265-.7699-1.5193-1.0984-.6479-.3674-1.3371-.6569-2.053-.8623-1.4481-.3988-2.9186-.7107-4.4039-.9342l-1.9504-.3079c-.2464-.4517-.503-.8726-.7699-1.2729-.657-1.0266-1.4063-1.7965-3.87-2.8333-1.6322-.6877-4.0241-1.4782-6.1592-2.2481.503.1848 1.0265.3593 1.5295.5133 1.9438.5946 3.9263 1.0542 5.9334 1.3755 2.053.3491 4.0445.6365 5.9026.9445 1.6441.246 3.2722.5888 4.876 1.0265 1.08.2908 2.1159.7258 3.0796 1.2934.6775.4106.9444.7699 1.3858 1.0266.5046.2526 1.0505.4126 1.6117.4722.5749.0821 1.1394.0924 1.6117.1642.4722.0719.8417.2156 1.2421.308.3733.0861.7576.1138 1.1394.0821.1297-.0046.2563-.0406.369-.105.1126-.0644.2079-.1552.2777-.2645.0915-.2273.1535-.4654.1848-.7084.03-.1788.1206-.3419.2566-.4619.155-.1246.3024-.2583.4415-.4003.0705-.0807.1226-.1757.1527-.2785.0301-.1029.0376-.211.0218-.3169-.0775-.2351-.1157-.4814-.1129-.7289 0-.2258.2976-.4311.4927-.657.0996-.1009.1724-.2252.2118-.3614.0395-.1362.0443-.2802.014-.4187-.1346-.3519-.3795-.6509-.698-.8521-.3987-.2584-.8303-.4621-1.2832-.6056-.5644-.2159-1.1401-.401-1.7246-.5543-.4822-.0848-.9755-.0848-1.4577 0-.9695.0939-1.9458.0939-2.9153 0-1.2509-.1611-2.48-.4607-3.6647-.8931-1.3211-.4952-2.5956-1.1066-3.8085-1.8273-1.5603-.9033-3.6339-2.1967-5.379-3.2028-1.7452-1.006-3.1823-1.7245-4.4244-2.2891-1.0729-.4985-2.1812-.9171-3.3157-1.2524-.6716-.2037-1.358-.3547-2.0531-.4517h.1745c1.6784.2718 3.3354.6629 4.9582 1.1703 1.55.4824 2.6998.9752 3.7263 1.2318z" fill="#fff"/><path d="m47.9795 190.987h-2.5048v9.013h2.5048z" fill="#a92819"/><path d="m47.9795 189.735h-2.5048v1.252h2.5048z" fill="#a92819"/><path d="m45.9365 65.3494c-.1367-.0096-.2739-.0096-.4106 0 .1365-.0147.2741-.0147.4106 0z" fill="#fff"/><path d="m43.8506 31.2326-6.2244 6.9105 1.8611 1.6763 6.2244-6.9105z" fill="#4c8bca"/><path d="m45.692 61.4177c-1.142-.0851-2.2903-.002-3.4081.2464-.7597.154-1.509.3593-2.2481.5748l-.3183.0924c.6917-.2565 1.3978-.4724 2.1147-.6467 1.2062-.2856 2.4494-.3825 3.6853-.2874z" fill="#fff"/><path d="m43.0932 65.4415c-.7288.154-1.3242.3182-2.0017.5133h-.154c.5881-.2065 1.188-.3778 1.7964-.5133.8264-.1969 1.6785-.2627 2.5253-.195h.1335c-.772-.056-1.548.0098-2.2995.195z" fill="#050007"/><path d="m41.1947 190.987h-2.5048v9.013h2.5048z" fill="#a92819"/><path d="m41.1947 189.735h-2.5048v1.252h2.5048z" fill="#a92819"/><path d="m40.9369 66.0269-.7596.2669c-.6645.1811-1.2882.4878-1.8375.9033-.4437.3337-.7678.8018-.9239 1.3345.01-.1407.0412-.2791.0924-.4106.3197-.6138.8368-1.1019 1.4679-1.3858.6252-.3084 1.2828-.546 1.9607-.7083z" fill="#fff"/><path d="m39.6655 62.3618-.811.2977c-1.091.3283-2.1111.8574-3.0077 1.5603-1.1979.9514-2.0111 2.3042-2.2892 3.8085.0495-.4663.1671-.9229.349-1.355.656-1.4764 1.8171-2.6703 3.2747-3.3671.7929-.4004 1.6255-.7169 2.4842-.9444z" fill="#fff"/><path d="m42.0267 72.8843c1.2816.7103 2.6209 1.3112 4.0035 1.7964-1.0778-.4004-2.053-.7802-2.8948-1.1395-1.3759-.5603-2.6101-1.4194-3.6134-2.515-.6365-.5748-1.314-.852-1.7143-1.3037-.194-.2135-.3254-.4763-.3798-.7596.1642.6056 1.0265 1.0265 1.7553 1.6938.8734.8329 1.8257 1.579 2.8435 2.2276z" fill="#fff"/><path d="m35.0504 31.399-6.2313 6.8822 1.8535 1.6782 6.2313-6.8823z" fill="#4c8bca"/><path d="m35.1573 72.6274c.616.5852 1.1703.8007 1.7554 1.3243 1.3226 1.3505 2.895 2.4312 4.6297 3.1822 1.0265.4722 2.1454.8829 3.2336 1.2729l.8109.2772c1.7041.6057 3.4184 1.1703 5.0711 1.8683.8434.2476 1.5938.7408 2.1558 1.4166.556.8573 1.0238 1.7687 1.396 2.7203.4912 1.205.896 2.4434 1.2114 3.7058.3738 1.4692.6007 2.9719.6775 4.486.1344 1.5308-.0188 3.0731-.4517 4.5476-.5235 1.3345-2.2276 3.2744-3.0796 4.5274-2.0694 3.24-3.7248 6.726-4.9274 10.378-1.4371 4.188-2.4329 8.459-3.7058 12.688-.1604 1.061-.6444 2.047-1.3858 2.823-1.5707 1.456-3.0227 3.035-4.3423 4.722-1.5963 2.245-2.8648 4.706-3.7673 7.309-1.0266 2.874-1.9813 5.851-2.8538 8.797-.3801 1.53-.8637 3.032-1.4474 4.496-.2845.492-.6528.93-1.0882 1.294-.9136.893-1.8272 1.786-2.7511 2.669-.8309.722-1.5596 1.555-2.166 2.474-.3557.536-.5935 1.142-.6976 1.778-.1041.635-.0721 1.285.0938 1.907s.462 1.202.8688 1.701c.4067.499.9147.906 1.4904 1.194 1.4749.562 3.0568.786 4.6297.657 1.6117 0 3.213.051 4.8144 0 1.9299 0 3.5005-.288 4.8042-1.848.9325-1.175 1.4809-2.609 1.5706-4.106.0238-1.028-.0208-2.057-.1334-3.08-.0357-.423.0168-.85.154-1.252.2798-.824.6849-1.599 1.201-2.299 1.0265-1.376 2.2892-2.69 3.367-4.035 1.7384-2.183 3.3329-4.477 4.7734-6.867 1.0323-1.796 1.9213-3.67 2.6588-5.605.4182-1.201.9764-2.348 1.663-3.418 1.1086-1.571 2.6895-3.08 3.9111-4.661 2.0428-2.612 3.9117-5.355 5.5946-8.212.544-.934 1.0265-1.869 1.5501-2.803 1.0265 1.283 1.9606 2.567 2.9564 3.84 1.8169 2.32 3.7058 4.65 5.728 6.816 1.12 1.066 2.1501 2.223 3.0797 3.459 0 .339-.4415 2.002-.5338 2.515-.3686 2.37-.3408 4.784.0821 7.145.3798 2.607 1.0265 5.194 1.3345 7.812.2157 1.541.1949 3.105-.0616 4.64-.1551.584-.4123 1.137-.7597 1.632-.6143 1.097-1.0084 2.304-1.1599 3.552-.1.845-.012 1.702.2578 2.51.2697.807.7145 1.545 1.3025 2.161 1.0423.986 2.3967 1.578 3.829 1.673.8662.077 1.7386.046 2.5971-.093.5543-.092 1.0984-.225 1.6527-.308.7827-.136 1.5798-.171 2.3713-.102 1.2319.133 2.515.554 3.788.749 1.3416.164 2.6954.206 4.0445.123 1.3469.095 2.6937-.186 3.8902-.811.931-.578 1.626-1.469 1.961-2.512.335-1.044.287-2.173-.133-3.185-.458-1.139-1.291-2.088-2.361-2.689-.729-.445-1.5033-.81-2.3101-1.089-.5253-.139-1.0428-.307-1.5501-.503-.6878-.318-1.3961-.8-2.0531-1.18s-1.3961-.729-2.053-1.15c-.0627-.03-.1213-.068-.1746-.113-.0051-.085-.0051-.171 0-.256 0-1.119.2669-2.382.3901-3.511.2772-2.515.4722-5.061.657-7.586.2156-2.977.4106-5.975.6467-8.962.1929-1.48.2479-2.975.1643-4.465-.2256-1.231-.6744-2.411-1.3243-3.48-.8623-1.715-1.6937-3.439-2.5868-5.133-1.0266-2.053-2.1866-3.983-3.3773-5.913-1.3037-2.125-2.6485-4.229-4.0138-6.313-1.0265-1.509-2.1455-3.08-2.9667-4.722-.3566-.628-.5573-1.332-.5851-2.053-.0618-1.115.042-2.2319.308-3.3158.4311-1.7965 1.1702-3.6134 1.7245-5.4099.6358-2.0212 1.1534-4.0778 1.5501-6.1592.1643-.7699.2977-1.9915.5133-2.8332h.1848c.9874-.0767 1.9792-.0767 2.9666 0l4.3115 4.4449c-1.4064 0-2.8127-.113-4.2191-.1745-.4123 2.0865-.9366 4.1494-1.5706 6.1797-.5235 1.6938-1.2421 3.4594-1.6527 5.1327-.1787.7038-.2514 1.4303-.2156 2.1553-.0106.075-.0106.151 0 .226.0374.111.0855.217.1437.318.842 1.507 1.7603 2.97 2.7512 4.384 1.3961 2.125 2.7716 4.26 4.1061 6.426 1.2216 2.053 2.4021 4.044 3.5005 6.159.9034 1.714 1.7348 3.46 2.6074 5.184.8585 1.458 1.4397 3.063 1.7143 4.732.1316 1.756.0834 3.521-.1437 5.267-.2361 2.987-.4311 5.964-.6467 8.961-.1951 2.567-.3798 5.133-.6673 7.72 0 .369-.1026.78-.1642 1.201.5543.318 1.1805.749 1.6835 1.026.503.278.8212.247 1.2318.39 1.0784.364 2.1114.85 3.0794 1.448 1.789 1.051 3.178 2.664 3.952 4.588.75 1.867.816 3.938.187 5.848-.63 1.91-1.914 3.537-3.625 4.592-1.755.993-3.7553 1.47-5.7696 1.376-1.5897.091-3.1843.032-4.7631-.175-1.2011-.174-2.4945-.595-3.6442-.728-.45-.029-.9017-.002-1.3448.082-.5441.092-1.0265.215-1.6219.308-1.1869.2-2.3951.241-3.5929.123-2.3179-.184-4.4977-1.176-6.1592-2.803-.998-1.015-1.7572-2.241-2.2225-3.587-.4652-1.346-.6247-2.778-.467-4.194.1966-1.772.7482-3.486 1.6219-5.04.1232-.226.2566-.452.3901-.678.1488-1.093.1488-2.201 0-3.295-.2875-2.556-.9342-5.132-1.314-7.688-.4517-2.768-.4517-5.589 0-8.356 0-.278.1129-.555.1848-.842-.5851-.637-1.2832-1.283-1.7451-1.786-1.8889-2.053-3.6648-4.178-5.3791-6.344-1.4026 2.233-2.9205 4.391-4.5475 6.467-1.1703 1.478-2.7512 3.018-3.7982 4.496-.4958.82-.902 1.69-1.2113 2.597-.8125 2.128-1.7942 4.188-2.9359 6.159-1.5457 2.568-3.2603 5.03-5.1327 7.371-1.0265 1.304-2.32 2.597-3.2747 3.911-.2537.348-.4608.727-.6159 1.129.1293 1.155.1704 2.319.1232 3.48-.1521 2.3-1.0087 4.497-2.4534 6.293-2.0531 2.463-4.64 3.192-7.7504 3.233-1.6116 0-3.2541 0-4.8863 0-2.2481 0-4.2498 0-6.344-1.026-1.0515-.526-1.9814-1.266-2.7298-2.173-.7485-.906-1.2989-1.96-1.616-3.092s-.3939-2.318-.2253-3.481c.1686-1.164.5787-2.279 1.2041-3.275.7795-1.236 1.7338-2.353 2.8332-3.316.9137-.882 1.817-1.755 2.7204-2.648l.3695-.359c.4517-1.027.8418-2.71 1.16-3.768.9033-3.018 1.8375-6.077 2.9359-9.033 1.0254-2.95 2.4705-5.737 4.2909-8.274 1.4385-1.837 3.0246-3.554 4.7426-5.133.154-.38.2772-.831.3798-1.17 1.2935-4.27 2.2892-8.582 3.7469-12.822 1.3071-3.976 3.1146-7.771 5.379-11.291.9569-1.2202 1.8512-2.4879 2.6793-3.7986.2087-.9638.2744-1.953.195-2.9359-.0642-1.2611-.2533-2.5128-.5646-3.7366-.274-1.0815-.6169-2.1444-1.0265-3.1822-.248-.6004-.5361-1.1834-.8623-1.7452-.2001-.1035-.4057-.1961-.6159-.2771-2.9975-1.2729-6.1592-2.1147-9.1875-3.4594-2.0711-.8919-3.9552-2.1666-5.5536-3.7572-.2874-.195-.5543-.3798-.8109-.5748h1.1292c.2977 0 .5338-.8828.5338-1.9607s-.2361-1.9504-.5338-1.9504z" fill="#a92819"/><path d="m34.7169 72.7607c.2977 0 .5338.8726.5338 1.9505 0 1.0778-.2361 1.9606-.5338 1.9606h-1.0984c-.5823-.4065-1.1161-.8784-1.5911-1.4063-.6509-.7327-1.1811-1.5644-1.5706-2.4637z" fill="#a92819"/><path d="m36.9134 73.9206c-.5851-.5235-1.1394-.7391-1.7553-1.3242l-.2567-.2772c-.5258-.5925-.9148-1.2934-1.1394-2.0531.544 1.6938 1.663 2.361 2.9359 3.3876 1.0361.9468 2.1524 1.802 3.3362 2.5561 1.5035.8611 3.0844 1.5794 4.7221 2.1454-1.0882-.3901-2.1763-.8007-3.2336-1.2729-1.7257-.7472-3.2908-1.8208-4.6092-3.1617z" fill="#fff"/><path d="m34.7172 72.7606-4.2909.0513c-.5052-1.1417-.7764-2.3732-.7975-3.6215-.0212-1.2483.2081-2.4882.6743-3.6464 1.0084-2.3214 2.8044-4.2119 5.0711-5.338 1.15-.5747 2.3578-1.0255 3.6031-1.3447.8315-.2361 1.663-.462 2.5048-.6365 1.8342-.3999 3.7247-.4729 5.5843-.2156 2.1171.3081 4.2048.7923 6.2414 1.4474 1.0265.2875 1.9401.6365 2.9051.9547-.1645-1.0529-.2503-2.1166-.2567-3.1822-.0429-1.7725.2846-3.5343.9617-5.1729.677-1.6386 1.6885-3.1179 2.97-4.3431 1.3836-1.4186 3.0722-2.5034 4.9376-3.172 1.8123-.6017 3.717-.8763 5.6254-.811 1.8983.0065 3.7846.3007 5.5947.8726 1.9135.6281 3.6852 1.6256 5.2148 2.9359 1.6749 1.3837 2.9477 3.1917 3.6852 5.2353.636 1.904.9246 3.9068.852 5.9128-.0546 1.4602-.2124 2.9147-.4722 4.3526h.0616c1.5296.2566 3.0796.5543 4.5578.8623l.9239.1745-2.7408 3.0796c-1.1189-.2259-2.2481-.4414-3.3773-.6262-1.3935-.2636-2.8121-.3703-4.2294-.3182 0-.113.0616-.2156.1027-.3285.3089-1.0814.5624-2.1778.7596-3.2849.277-1.4322.4384-2.8843.4825-4.3423.0663-1.5285-.1495-3.0561-.6364-4.5065-.476-1.4432-1.3431-2.7261-2.5048-3.7058-1.141-.9792-2.4627-1.7255-3.8906-2.1968-1.4387-.4497-2.9375-.6782-4.4449-.6775-1.4465-.053-2.8914.145-4.2703.5851-1.3179.4908-2.5076 1.2734-3.48 2.2892-.9029.8777-1.6248 1.924-2.1249 3.0796-.4731 1.1732-.7002 2.431-.6673 3.6956-.0012 1.1727.1192 2.3423.3593 3.4902.2292 1.0194.5311 2.0211.9033 2.9975.0924.2566.2464.6159.3593.9546l-.1334.113c-.1801.1279-.3874.2122-.6057.2463-.4384.0634-.8822.0806-1.3242.0514-.473-.0606-.9425-.1462-1.4064-.2567-.7153-.0917-1.4223-.2393-2.1146-.4414-1.2319-.3593-2.4534-.8315-3.6955-1.2113-1.8351-.5797-3.7125-1.0156-5.6152-1.3037h-.1334l-.7494-.0719h-.154c-1.2359-.0951-2.4791.0019-3.6853.2875-.7238.1735-1.4367.3894-2.1352.6467-.8587.2275-1.6912.544-2.4842.9444-1.4575.6967-2.6187 1.8907-3.2746 3.367-.182.4322-.2996.8888-.349 1.3551v.1642c-.0751.5005-.0717 1.0096.0102 1.509.0107.0943.0314.1872.0616.2772-.0013.0239-.0013.0479 0 .0718.0179.095.0454.1879.0821.2772.2246.7597.6137 1.4606 1.1395 2.0531l.2566.2771z" fill="#a92819"/><path d="m34.4098 190.987h-2.5048v9.013h2.5048z" fill="#a92819"/><path d="m34.4098 189.735h-2.5048v1.252h2.5048z" fill="#a92819"/><path d="m33.6809 70.0098c.0198.0944.0473.1871.0821.2771-.0367-.0893-.0642-.1822-.0821-.2771z" fill="#fff"/><path d="m33.5364 68.1719c-.0397.4976-.0121.9982.0821 1.4884-.1037-.4889-.1314-.991-.0821-1.4884z" fill="#fff"/><path d="m32.018 76.8873c-1.395.0523-2.7764.2941-4.1062.7186-1.8871.5636-3.5863 1.6278-4.9171 3.0796-.9726 1.0225-1.5194 2.3768-1.5295 3.7879.0242.3487.0897.6933.195 1.0266.0789.2426.1092.4984.0892.7528s-.0899.5023-.2057.7296c-.1159.2274-.2753.4297-.4693.5954s-.4188.2916-.6614.3705c-.2427.0788-.4985.1091-.7528.0891-.2544-.02-.5023-.0899-.7297-.2057-.4591-.2339-.8065-.6406-.9658-1.1307-.2149-.6892-.3392-1.4036-.3696-2.1249-.0353-2.3932.8504-4.7085 2.474-6.4672.4177-.4979.8817-.9551 1.3858-1.3653h-2.2994-.2156c-1.3948.0539-2.7759.2956-4.1061.7186-1.8857.5668-3.5841 1.6305-4.91715 3.0796-.9686 1.0283-1.51149 2.3855-1.51927 3.7982.01597.3488.0781.694.18478 1.0265.08013.2427.11154.4987.09244.7535-.01911.2548-.08835.5033-.20377.7313-.11541.228-.27472.4309-.46877.5971s-.41903.2925-.66201.3715c-.47717.1626-.99847.1361-1.45672-.0739s-.8186-.5877-1.00697-1.0552c-.21518-.6857-.33942-1.3967-.36955-2.1147-.03373-2.396.85156-4.714 2.47395-6.4774.36789-.4314.76581-.8361 1.19078-1.2114l-6.83673.0616c-.28743 0-.523531-.8828-.523531-1.9607 0-1.0778.236101-1.9504.523531-1.9504l6.53904-.0513c-.54815-.4557-1.05327-.9609-1.50901-1.509-1.58483-1.7944-2.42556-4.1257-2.35077-6.5185.03934-.7204.17751-1.4319.41062-2.1147.0829-.2413.21252-.4639.38146-.6551s.37389-.3473.60314-.4593.47832-.1777.73298-.1935c.25466-.0157.50993.0188.75124.1017.2413.0829.46391.2126.65512.3815.19121.169.34727.3739.45927.6031.11201.2293.17776.4784.19351.733.01575.2547-.01882.51-.10172.7513-.11634.3313-.18882.6764-.21558 1.0265-.01445 1.4133.51052 2.779 1.46795 3.8187 1.30334 1.473 2.98124 2.5656 4.85554 3.1617 1.1806.4085 2.4088.6638 3.6544.7597h2.9154c-.4695-.3941-.9119-.8194-1.3242-1.2729-1.5858-1.7938-2.4266-4.1255-2.3508-6.5185.0409-.7193.1755-1.4302.4004-2.1147.0726-.2545.1963-.4915.3635-.6967s.3744-.3742.609-.4967.4917-.196.7556-.216.5291.0139.7795.0997.4807.2216.6769.3993c.1962.1776.3542.3933.4644.634.1101.2406.1702.5012.1764.7658.0063.2646-.0414.5277-.1401.7732-.1163.3314-.1888.6765-.2156 1.0266-.0139 1.4102.5112 2.7724 1.468 3.8084 1.2986 1.4807 2.9778 2.5777 4.8555 3.172.7892.2669 1.5996.4661 2.4226.5954h.7083c.3896.8994.9197 1.731 1.5706 2.4637.4829.5406 1.0272 1.0229 1.622 1.4372h-.811c-.2488.1091-.5188.1617-.7904.1539z" fill="#0f7657"/><path d="m29.5131.882812c.7905 9.444088-1.3447 16.516988-6.3234 21.023488s-11.6101 5.4098-16.10637 5.4098c-1.67051.0079-3.33892-.1191-4.98897-.3798l.45168-2.474c.12318 0 11.84626 2.0531 19.00116-4.4141 4.3628-3.9624 6.2208-10.33718 5.5023-18.94981z" fill="#4c8bca"/><path d="m27.6339 190.987h-2.5047v9.013h2.5047z" fill="#a92819"/><path d="m27.6339 189.735h-2.5047v1.252h2.5047z" fill="#a92819"/><path d="m25.5603 31.2336-6.2244 6.9104 1.8611 1.6764 6.2244-6.9105z" fill="#4c8bca"/><path d="m20.8491 190.987h-2.5047v9.013h2.5047z" fill="#a92819"/><path d="m20.8491 189.735h-2.5047v1.252h2.5047z" fill="#a92819"/><path d="m18.5692 102.849 8.8384-8.4793 10.6452 9.3003-1.6425 1.889-8.9206-7.7914-8.9821 8.6024-8.3971-8.5306-7.78115 7.6686-1.755375-1.787 9.557025-9.4334z" fill="#4c8bca"/><path d="m18.1893 116.964 8.8487-8.48 10.6452 9.301-1.6528 1.889-8.9205-7.792-8.972 8.592-8.4073-8.52-7.77088 7.658-1.755374-1.786 9.557054-9.424z" fill="#4c8bca"/><path d="m15.9893 31.2391-6.22075 6.9137 1.86195 1.6754 6.2208-6.9137z" fill="#4c8bca"/><path d="m14.0643 190.987h-2.5047v9.013h2.5047z" fill="#a92819"/><path d="m14.0643 189.735h-2.5047v1.252h2.5047z" fill="#a92819"/><path d="m10.4916 7.14455c.4491-.00203.8887.1293 1.2631.37734.3745.24804.6668.60164.8401 1.016s.2197.87083.1333 1.31157-.3016.84594-.6185 1.16424c-.3168.3183-.721.5354-1.1614.6238-.4404.0883-.897.044-1.31216-.1274-.41514-.1714-.77006-.4622-1.0198-.8354-.24974-.3733-.38306-.81237-.38306-1.2615-.00135-.29744.05606-.59221.16895-.8674.11289-.27518.27903-.52536.48887-.73616.20985-.21079.45926-.37806.73393-.4922s.56917-.17289.86667-.17289z" fill="#2a3277"/><path d="m9.7306 126.059-7.77088 7.668-1.755374-1.786 9.557054-9.424 8.4279 8.561 8.0275-7.688 1.7245 1.817-9.8034 9.382z" fill="#4c8bca"/><path d="m6.43777 31.2258-6.224391 6.9104 1.861101 1.6764 6.22439-6.9105z" fill="#4c8bca"/><path d="m7.27941 190.987h-2.50475v9.013h2.50475z" fill="#a92819"/><path d="m7.27941 189.735h-2.50475v1.252h2.50475z" fill="#a92819"/><path d="m.676025 188.482h185.935975v2.505h-4.136v-1.252h-2.515v1.252h-4.271v-1.252h-2.505v1.252h-4.28v-1.252h-2.505v1.252h-4.281v-1.252h-2.504v1.252h-4.271v-1.252h-2.515v1.252h-4.27v-1.252h-2.515v1.252h-4.271v-1.252h-2.515v1.252h-4.27v-1.252h-2.505v1.252h-4.28v-1.252h-2.505v1.252h-3.665v-1.252h-2.505v1.252h-4.28v-1.252h-2.505v1.252h-4.281v-1.252h-2.504v1.252h-4.281v-1.252h-2.5048v1.252h-4.2704v-1.252h-2.5048v1.252h-4.2806v-1.252h-2.5048v1.252h-4.2806v-1.252h-2.5048v1.252h-4.2806v-1.252h-2.5048v1.252h-4.2704v-1.252h-2.5047v1.252h-3.7161v-1.252h-2.5047v1.252h-4.2807v-1.252h-2.5047v1.252h-4.2807v-1.252h-2.5047v1.252h-4.2807v-1.252h-2.5047v1.252h-4.2807v-1.252h-2.5047v1.252h-4.2704v-1.252h-2.5048v1.252h-4.2806v-1.252h-2.5048v1.252h-4.2806v-1.252h-2.5048v1.252h-4.28065v-1.252h-2.50475v1.252h-4.095875z" fill="#a92819"/><path d="m3.59252 9.41334c0 1.36436.40458 2.69806 1.16258 3.83246.758 1.1345 1.83537 2.0186 3.09587 2.5408 1.2605.5221 2.64753.6587 3.98563.3925 1.3382-.2662 2.5673-.9232 3.5321-1.8879.9647-.9648 1.6217-2.1939 1.8879-3.5321.2662-1.33811.1296-2.72513-.3925-3.98563-.5222-1.26051-1.4063-2.33788-2.5408-3.09588-1.1344-.75799-2.4681-1.16257-3.8325-1.16257-1.8295 0-3.58412.72678-4.87781 2.02047-1.29368 1.29369-2.02047 3.0483-2.02047 4.87785zm-2.50475 0c-.00203-1.86019.54773-3.67918 1.57971-5.22686 1.03199-1.54768 2.49984-2.75449 4.21785-3.46776 1.718-.71327038 3.60897-.900948 5.43367-.539288 1.8247.361659 3.5011 1.256408 4.8172 2.571038 1.316 1.31463 2.2126 2.99008 2.5763 4.81438.3636 1.82429.178 3.71545-.5334 5.43425s-1.9166 3.1879-3.4631 4.2216c-1.5466 1.0337-3.365 1.5854-5.2252 1.5854-2.4912-.0027-4.87977-.9928-6.64231-2.7534s-2.75528-4.1481-2.76072-6.63936z" fill="#179e6c"/></svg>