<svg fill="none" height="200" viewBox="0 0 181 200" width="181" xmlns="http://www.w3.org/2000/svg"><path d="m180.056 175.76h-179.364105v2.519h179.364105z" fill="#179e6c"/><path d="m180.067 136.966h-58.633v2.519h58.633z" fill="#2a3277"/><path d="m179.821 181.905h-179.364457v2.52h179.364457z" fill="#179e6c"/><path d="m179.566 47.1401h-34.286v2.5197h34.286z" fill="#179e6c"/><path d="m179.545 53.2959h-34.265v2.5197h34.265z" fill="#4c8bca"/><path d="m179.321 39.9321h-62.365v2.5197h62.365z" fill="#4c8bca"/><path d="m176.654 158.835c.128-.129.281-.231.449-.3.168-.07.347-.105.529-.105s.362.035.529.105c.168.069.321.171.449.3.129.128.231.281.3.448.07.168.105.348.105.53 0 .181-.035.361-.105.529-.069.168-.171.32-.3.449l-5.316 5.316v3.731c.017.193-.006.387-.068.569-.062.183-.162.351-.292.494-.131.142-.289.256-.466.334-.177.077-.368.118-.561.118s-.384-.041-.561-.118c-.177-.078-.335-.192-.466-.334-.13-.143-.23-.311-.292-.494-.062-.182-.085-.376-.068-.569v-3.668l-5.539-5.22c-.266-.252-.422-.598-.434-.965-.012-.366.121-.722.37-.991.252-.269.601-.427.97-.439s.727.123.997.375l3.636 3.424v-3.838l-3.604-3.838c-.248-.253-.386-.593-.383-.946 0-.279.084-.551.24-.781.157-.23.379-.408.637-.511.259-.103.542-.126.814-.067.272.06.52.2.711.402l1.585 1.69v-6.315c-.017-.192.006-.386.068-.569s.162-.351.292-.493c.131-.143.289-.257.466-.334.177-.078.368-.118.561-.118s.384.04.561.118c.177.077.335.191.466.334.13.142.23.31.292.493s.085.377.068.569v6.464l1.478-1.488c.263-.254.614-.395.978-.394.274 0 .541.081.769.233.228.151.405.367.51.62.104.253.132.531.078.799-.053.269-.185.515-.379.708l-3.434 3.445v3.679z" fill="#179e6c"/><path d="m175.897 190.953h-2.52v9.047h2.52z" fill="#a92819"/><path d="m175.897 189.687h-2.52v1.255h2.52z" fill="#a92819"/><path d="m171.124 8.35623c.45 0 .89.13343 1.264.38343.374.24999.666.60532.838 1.02105.172.41569.218.87319.13 1.31449-.088.4414-.305.8468-.623 1.1649-.318.3182-.724.5349-1.165.6227s-.899.0427-1.314-.1295c-.416-.1722-.771-.4638-1.021-.8379-.25-.3742-.384-.814-.384-1.264-.001-.2992.057-.5957.17-.87235.114-.27667.282-.52804.493-.73959.212-.21155.463-.37908.74-.49292.277-.11383.573-.17172.872-.17031z" fill="#2a3277"/><path d="m160.451 21.7206c3.977 4.3908 10.377 6.2514 19.01 5.5178l.212 2.509c-1.276.1063-2.519.1595-3.71.1595-7.634 0-13.47-2.1795-17.393-6.5065-7.347-8.1118-5.125-20.66765-5.029-21.19923l2.477.45716c0 .11694-2.126 11.88607 4.433 19.06227z" fill="#2a3277"/><path d="m169.383 190.953h-2.52v9.047h2.52z" fill="#a92819"/><path d="m169.383 189.687h-2.52v1.255h2.52z" fill="#a92819"/><path d="m164.204 10.6312c0 1.3689.406 2.707 1.167 3.8452.76 1.1382 1.841 2.0253 3.106 2.5491s2.656.6609 3.999.3939c1.342-.2671 2.576-.9263 3.543-1.8942.968-.9679 1.628-2.2012 1.895-3.5437.267-1.3426.13-2.73421-.394-3.99888-.524-1.26466-1.411-2.34559-2.549-3.1061-1.139-.7605-2.477-1.16642-3.846-1.16642-1.834.00282-3.593.73291-4.89 2.03026-1.298 1.29735-2.028 3.05613-2.031 4.89084zm16.352 0c0 1.8677-.554 3.6934-1.592 5.2461-1.038 1.5528-2.513 2.7628-4.239 3.4771-1.725.7142-3.624.9006-5.456.5354-1.831-.3651-3.514-1.2653-4.834-2.5867-1.319-1.3214-2.218-3.0046-2.581-4.8366s-.174-3.73059.542-5.45548c.716-1.7249 1.928-3.19861 3.482-4.2347 1.554-1.03608 3.38-1.58799 5.247-1.58588 2.503.00281 4.901.99871 6.669 2.76889 1.768 1.77019 2.762 4.16988 2.762 6.67187z" fill="#179e6c"/><path d="m162.864 190.953h-2.519v9.047h2.519z" fill="#a92819"/><path d="m162.864 189.687h-2.519v1.255h2.519z" fill="#a92819"/><path d="m159.058 160.791-5.316 5.316v3.731c.017.193-.006.386-.068.569-.063.183-.162.351-.292.494-.131.142-.29.256-.466.334-.177.077-.368.117-.561.117s-.384-.04-.561-.117c-.177-.078-.336-.192-.466-.334-.131-.143-.23-.311-.292-.494s-.086-.376-.069-.569v-3.668l-5.581-5.23c-.136-.129-.245-.284-.32-.456-.075-.171-.114-.356-.116-.544-.008-.274.065-.545.21-.778s.356-.418.606-.531c.25-.114.527-.151.798-.107s.523.166.725.353l3.646 3.423v-3.838l-3.614-3.837c-.24-.257-.373-.595-.372-.947-.01-.198.023-.396.099-.58.075-.184.19-.349.336-.483.268-.25.623-.385.989-.375.367.01.714.164.968.428l1.594 1.691v-6.315c-.016-.193.007-.387.069-.57.062-.182.161-.35.292-.493.13-.142.289-.256.466-.334s.368-.118.561-.118.384.04.561.118.335.192.466.334c.13.143.23.311.292.493.062.183.085.377.068.57v6.464l1.467-1.489c.267-.254.621-.395.989-.393.181-.003.361.03.529.098.168.067.321.168.449.295.261.261.407.615.407.984 0 .368-.146.722-.407.983l-3.434 3.445v3.678l3.37-3.37c.26-.261.612-.408.98-.409s.721.144.982.404c.261.259.408.611.409.979s-.144.721-.404.982z" fill="#179e6c"/><path d="m156.337 190.953h-2.52v9.047h2.52z" fill="#a92819"/><path d="m156.337 189.687h-2.52v1.255h2.52z" fill="#a92819"/><path d="m152.765 120.997c.001.424-.125.839-.361 1.191-.235.357-.572.635-.968.797-.393.163-.827.204-1.244.117-.405-.083-.775-.287-1.063-.584-.294-.291-.497-.66-.585-1.064-.083-.418-.038-.851.128-1.243.166-.391.438-.726.787-.968.413-.279.91-.404 1.405-.353.496.05.958.273 1.306.629.382.397.596.927.595 1.478z" fill="#a92819"/><path d="m149.818 190.953h-2.519v9.047h2.519z" fill="#a92819"/><path d="m149.818 189.687h-2.519v1.255h2.519z" fill="#a92819"/><path d="m146.034 5.40088h-30.938v2.51967h30.938z" fill="#179e6c"/><path d="m146.002 11.5461h-30.906v2.5197h30.906z" fill="#a92819"/><path d="m143.259 92.696c.801-1.3422 1.258-2.8615 1.329-4.4227h1.255c-.1 1.4437.273 2.8806 1.063 4.0931.736 1.4046 1.962 2.4903 3.445 3.0513l.308.085c.925.2022 1.882.2022 2.807 0 .938-.1964 1.814-.6199 2.551-1.2332.601-.4809 1.027-1.1458 1.212-1.8924.096-.4307.096-.877 0-1.3077-.307-.8376-.841-1.5737-1.541-2.1263-.601-.4923-1.35-.766-2.127-.7761-.215-.0092-.427-.0559-.627-.1382-.194-.0881-.37-.2105-.521-.3615-.148-.1562-.264-.3406-.34-.5422-.077-.1998-.113-.4132-.106-.6273.002-.2266.049-.4505.138-.6591.096-.2063.234-.3907.404-.5422.261-.2276.534-.4405.818-.6379h.096c.325-.2171.663-.4159 1.01-.5954 1.921-.8184 4.055-.99 6.081-.489 2.146.3756 4.113 1.4303 5.614 3.0087 1.289 1.6793 2.051 3.7031 2.19 5.8154.118 2.35-.427 4.6858-1.574 6.7404-1.1 2.0473-2.63 3.8313-4.486 5.2303-1.9 1.49-4.188 2.401-6.592 2.626-9.408 1.064-18.169-4.252-26.111-10.4504 2.151.9439 4.532 1.2359 6.847.8399 6.028 4.0615 12.396 6.9215 18.871 6.1765h.096c1.783-.18 3.477-.871 4.88-1.988 1.488-1.135 2.705-2.5875 3.561-4.2523.851-1.5198 1.263-3.2459 1.191-4.9862-.094-1.4843-.631-2.9062-1.542-4.0825-1.033-.9607-2.335-1.5838-3.731-1.7861-.657-.1388-1.328-.203-1.999-.1913 1.187 1.0549 2.069 2.41 2.551 3.923.19.883.19 1.7962 0 2.6792-.331 1.4525-1.13 2.756-2.275 3.7103-1.137.981-2.493 1.6739-3.955 2.02-1.401.3038-2.851.3038-4.252 0l-.564-.1488c-2.274-.7836-4.185-2.3666-5.379-4.4546-.228-.4218-.427-.8587-.596-1.3077z" fill="#0f7657"/><path d="m144.461 86.4981c.083.5879.108 1.1826.075 1.7754-.056 1.5567-.494 3.0757-1.276 4.4227-.807-1.8028-1.056-3.8063-.712-5.7516l.17-.5847c.331-1.113.791-2.1835 1.371-3.1895.234 1.7648.383 2.9981.372 3.3277z" fill="#a92819"/><path d="m143.3 190.953h-2.519v9.047h2.519z" fill="#a92819"/><path d="m143.3 189.687h-2.519v1.255h2.519z" fill="#a92819"/><path d="m141.376 22.6938-6.243 6.939 1.873 1.6853 6.243-6.939z" fill="#2a3277"/><path d="m142.664 86.3598-.17.5847c-.343 1.9453-.095 3.9488.712 5.7517-.074.1382-.159.2764-.255.4252-1.288 1.9543-3.247 3.3689-5.507 3.9762-.35.0985-.705.1766-1.063.2339-1.637-1.0631-3.19-2.2858-4.816-3.519l.467.1169c5.391 1.3396 9.569-1.8711 9.292-6.5915 0-.8718-.882-7.0168-2.009-13.0024-.978-5.3157-1.627-8.8666-3.03-10.9823-.872-3.8486.223-7.3358-3.306-8.1756-3.381-.521-3.902 2.5621-6.188 5.5177-.478 0-9.77-.8293-14.693 3.6254-2.57 2.0027-4.772 4.4384-6.506 7.1975h-.223c-1.356-.1253-2.722.0714-3.987.5741 2.403-4.2567 5.661-7.9704 9.568-10.9079 5.029-3.8593 13.577-3.8061 14.119-3.8061.627-.925 1.403-2.2326 1.882-2.8067.941-1.2725 2.308-2.1639 3.852-2.5114 1.544-.3474 3.162-.1277 4.557.6189 3.987 1.8499 3.423 5.8048 4.04 9.696 1.287 2.1263 1.999 5.1137 2.956 10.6847.606 3.4446 1.297 7.442 1.743 10.2062-.595.9729-1.077 2.0109-1.435 3.0938z" fill="#a92819"/><path d="m141.689 114.257v8.931c5.726 1.944 11.817 2.565 17.818 1.818v-9.037c-2.088.509-4.23.759-6.379.744-3.386-.029-6.741-.64-9.919-1.807h-.117zm5.57-29.7678c-.599.9192-1.068 1.9175-1.392 2.9662v.3508c0 .1807 0 .3508-.075.5316h-1.254c.033-.5929.009-1.1876-.075-1.7755 0-.3296-.159-1.5628-.425-3.2745.117-.2233.255-.4572.393-.6698v-.0957c.711-1.139 1.585-2.1671 2.595-3.0512 3.434-2.8061 7.748-4.3118 12.183-4.2526 2.798.0058 5.567.5697 8.144 1.6585 3.327 1.3732 6.152 3.7349 8.093 6.7657 1.942 3.0308 2.906 6.5846 2.762 10.1809-.019 2.2099-.418 4.4001-1.18 6.4744-.512 1.441-1.175 2.824-1.978 4.125v11.291c.717-.838 1.377-1.723 1.978-2.647.221-.373.58-.644.999-.755.42-.11.865-.052 1.244.159.373.222.643.581.755 1 .055.206.068.422.039.633-.029.212-.1.416-.209.6-1.825 3.221-4.293 6.033-7.251 8.26-2.957 2.228-6.341 3.824-9.94 4.689-6.645 1.637-14.885 1.233-24.825-2.339l-.213-.149-1.818-.935c.874-.735 1.692-1.535 2.446-2.392l.127.074v-.234c.625-.724 1.137-1.537 1.52-2.413.608-1.597.868-3.304.764-5.009-.105-1.705-.571-3.368-1.37-4.878 1.67.85 3.36 1.658 5.05 2.445 2.807 1.019 5.765 1.554 8.75 1.584 4.785.028 9.457-1.46 13.343-4.253 3.485-2.426 6.154-5.851 7.654-9.8232.64-1.7227.978-3.5424 1-5.3796.104-3.5639-1.069-7.0477-3.307-9.8235-1.52-1.7825-3.445-3.1751-5.613-4.0613-2.173-.9352-4.513-1.4164-6.879-1.4139-3.647-.082-7.209 1.1139-10.068 3.3808-.754.6523-1.412 1.4074-1.956 2.2432zm24.644 34.9028v-10.578c-.962 1.024-2.012 1.963-3.136 2.807v10.047c1.102-.685 2.151-1.453 3.136-2.297zm-6.379 3.966v-9.685c-.912.481-1.848.914-2.806 1.297v9.345c.944-.279 1.874-.605 2.785-.978z" fill="#0f7657"/><path d="m138.317 108.091c.385.394.711.841.968 1.328-3.339-1.679-6.617-3.476-9.835-5.39 1.677.036 3.329.415 4.854 1.114 1.525.698 2.891 1.701 4.013 2.948z" fill="#a92819"/><path d="m138.37 112.588v9.132l-.127.16-2.988-1.595c.536-.544 1.003-1.151 1.393-1.807 1.138-2.052.755-4.859-.074-6.805.595.319 1.19.617 1.796.915z" fill="#a92819"/><path d="m135.256 120.285 2.987 1.595c-.754.858-1.571 1.657-2.445 2.392-1.212-.617-2.212-1.159-3.19-1.68.935-.706 1.82-1.477 2.648-2.307z" fill="#a92819"/><path d="m137.476 160.451-5.316 5.316v3.689c-.03.347-.189.67-.446.905s-.593.366-.941.366-.684-.131-.941-.366-.416-.558-.446-.905v-3.668l-5.539-5.21c-.143-.136-.256-.302-.331-.485s-.111-.38-.105-.578c.001-.351.134-.688.372-.946.125-.134.275-.241.442-.316.167-.076.347-.117.53-.122s.365.027.536.093.327.165.459.292l3.636 3.413v-3.785l-3.604-3.828c-.241-.256-.374-.594-.373-.946-.005-.198.03-.395.106-.578.075-.183.187-.348.33-.485.133-.124.289-.222.459-.286s.351-.094.533-.088c.181.006.36.048.526.123.165.075.314.182.439.315l1.584 1.68v-6.316c-.017-.192.006-.386.068-.569s.162-.351.292-.493c.131-.142.289-.256.466-.334s.368-.118.561-.118.384.04.561.118.336.192.466.334.23.31.292.493.085.377.068.569v6.464l1.489-1.477c.128-.131.28-.234.448-.305.167-.072.348-.109.53-.11.371.006.724.155.989.415.254.262.397.612.397.978 0 .365-.143.716-.397.978l-3.456 3.455v3.679l3.381-3.392c.264-.255.617-.398.984-.398s.719.143.983.398c.137.133.245.292.318.467.073.176.109.365.106.555-.003.191-.045.378-.124.552-.078.173-.191.329-.332.457z" fill="#179e6c"/><path d="m136.572 111.673c.83 1.946 1.212 4.752.075 6.804-.39.657-.858 1.264-1.393 1.808h-.074v-9.282z" fill="#f4f4f4"/><path d="m136.786 190.953h-2.52v9.047h2.52z" fill="#a92819"/><path d="m136.786 189.687h-2.52v1.255h2.52z" fill="#a92819"/><path d="m135.817 124.272c-1.762 1.467-3.652 2.777-5.645 3.912-.978.702-1.138 1.191-2.126 1.946-2.61 2.047-5.698 3.397-8.973 3.923-1.184.896-2.548 1.527-3.998 1.849-1.456.325-2.966.325-4.422 0-1.081-.299-2.068-.866-2.871-1.647-.799-.782-1.385-1.756-1.701-2.828-.382-1.465-.458-2.992-.223-4.487-6.932 1.403-15.6604.468-22.943-.361-.6217 3.507-1.731 6.91-3.2958 10.11 1.531 1.127 2.4027.457 5.1138 1.52 1.3183.521 3.0831 1.127 7.2932 5.242 1.4034.723 3.1894 1.807 5.3158 5.73.7782 1.686.9217 3.596.404 5.38-.2897.91-.7598 1.752-1.3821 2.477-.6323.722-1.4021 1.311-2.2646 1.733-1.6522.585-3.4088.817-5.1562.68-1.7707.146-3.5515.114-5.3158-.095-1.7159-.371-3.232-1.368-4.2526-2.797-2.2974-.685-4.283-2.151-5.6134-4.146-2.5905-1.756-5.3174-3.303-8.1544-4.625-1.7861-.956-5.454-2.03-8.4202-5.549-1.4456-1.76-2.2779-3.944-2.3708-6.22-.1279-2.128.4678-4.238 1.6904-5.985-3.2897-2.111-6.1948-4.768-8.5902-7.857-1.6931 3.895-4.2833 7.334-7.5591 10.036-1.6266 1.404-3.0618 3.466-5.8686 3.7-.9057.12-1.8266.044-2.7004-.223-.8718-.256-1.6824-.687-2.3824-1.267-.7-.579-1.2748-1.295-1.6894-2.103-.4136-.807-.6595-1.69-.723-2.594-.5209-6.082-.7229-12.833 1.3715-18.723.6379.064 1.2758.096 1.9243.096h1.616c-2.4984 5.741-2.1263 11.503-1.6266 17.765.1169 2.956 2.3814 4.497 4.7097 3.594.6804-.255 1.0632-.702 2.6685-2.126 6.5491-6.039 8.2288-9.898 10.0043-17.075 1.5416 8.676 11.3013 14.64 13.3744 15.437 0 0 0 .447-.1488 1.393-.7974 1.191-2.4665 2.19-2.5728 5.22-.1237 1.774.4613 3.526 1.6266 4.869 2.4984 2.903 5.5922 3.817 7.3145 4.742 3.0177 1.446 5.9307 3.102 8.7178 4.954 1.3077 1.18 2.1263 3.487 5.8048 3.817.204.763.6567 1.437 1.2864 1.914.6315.473 1.4007.727 2.1901.723l4.2526-.085c2.1263 0 3.1044 0 4.2526-.947.6583-.626 1.0857-1.455 1.2131-2.355.1274-.899-.0528-1.815-.5114-2.599-1.4033-2.466-2.6047-3.764-4.3483-4.253-1.364-1.693-3.0159-3.132-4.8798-4.252-2.4984-1.425-4.3908-1.116-5.7942-1.744-1.5841-.638-3.6041-2.392-3.1895-3.604 2.3645-4.231 3.6601-8.975 3.7742-13.821 11.5352 2.126 24.2928 2.456 29.1518-.34l.181.17c0 .542-.064 2.126-.181 6.911-.014.667.175 1.324.542 1.881.368.553.9.976 1.52 1.212 1.818.798 5.082-.149 6.634-1.764 2.965-.258 5.793-1.365 8.144-3.19.869-.865 1.804-1.661 2.796-2.381.713-.436 2.307-1.404 3.934-2.616.84.564 1.839 1.106 3.072 1.723z" fill="#a92819"/><path d="m131.564 93.8126c1.573 1.2333 3.189 2.4134 4.816 3.5191-2.315.3959-4.696.1039-6.847-.8399-1.286-1.0632-2.562-2.0413-3.806-3.0832.266-1.2545.489-2.5303.659-3.8061l.957.7974c.443.8253 1.048 1.5528 1.779 2.1392.731.5863 1.572 1.0194 2.474 1.2735z" fill="#a92819"/><path d="m131.766 22.69-6.247 6.9357 1.872 1.6863 6.247-6.9357z" fill="#2a3277"/><path d="m132.523 59.5788c.085 1.1163.361 2.9343.446 3.9124s.192 1.0632.266 1.1801l.276.4678c.107.1914.234.4465.415.7973.267.566.477 1.1572.627 1.7649.234.8718.542 2.1263.883 3.9868.34 1.8605.786 4.2526 1.127 6.1875.34 1.935.606 3.6466.797 4.9331.191 1.2864.319 2.2219.425 2.8067l.149.9781c.063.3511.098.7065.106 1.0631 0 .3571-.035.7132-.106 1.0632-.074.3333-.215.648-.415.9249-.238.3219-.538.593-.882.7974-.437.2509-.916.4202-1.414.4997-.463.0425-.929.0425-1.393 0-.478-.0531-.949-.1601-1.403-.319-.424-.1723-.824-.3974-1.191-.6698-.319-.2413-.605-.5237-.85-.8399-.197-.2888-.335-.6141-.404-.9568-.043-.2748-.043-.5545 0-.8292.021-.1649.053-.3282.095-.4891v-.1914s0 0-.148-.085c-.223-.0204-.442-.0741-.649-.1595-.403-.1846-.765-.4485-1.063-.7761-.463-.5053-.899-1.034-1.308-1.5841-.455-.562-.881-1.1475-1.276-1.7542-.404-.6698-.818-1.4778-1.127-2.1263-.2-.4113-.427-.8091-.68-1.1907-.138-.2126-.181-.2233-.202-.0851s0 .4572 0 1.2333v3.3489c-.016 1.2081-.094 2.4146-.234 3.6147-3.221-2.8033-6.646-5.362-10.249-7.6547-.02-.1502-.048-.2993-.085-.4465-.319-.7442-.595-4.4333-4.252-6.4427l.212-.2977c.962-1.34 2.029-2.602 3.19-3.7742 1.146-1.1344 2.428-2.1235 3.817-2.9449 1.299-.7037 2.721-1.1546 4.188-1.3289 1.589-.2265 3.191-.3472 4.795-.3615.865-.005 1.729.059 2.584.1914.446.085.563.1169.648.085s.202-.085.829-1.0631c.628-.9781 1.861-2.7111 2.499-3.6041.204-.3753.443-.7311.712-1.0632h.096c.087.3949.137.7972.149 1.2014z" fill="#a92819"/><path d="m131.81 111.153v7.219l-2.509-1.404v-6.379c.499.025.995.103 1.478.234.353.078.698.188 1.031.33z" fill="#a92819"/><path d="m131.81 109.175v1.977c-.343-.14-.699-.246-1.063-.319-.482-.131-.978-.209-1.477-.233v-2.818z" fill="#f4f4f4"/><path d="m130.258 190.953h-2.52v9.047h2.52z" fill="#a92819"/><path d="m130.258 189.687h-2.52v1.255h2.52z" fill="#a92819"/><path d="m129.439 104.029h-.776c0-.17 0-.33 0-.5z" fill="#0f7657"/><path d="m129.3 107.782v2.817h-.064c-.563 0-1.063 0-1.956.075-.436 0-.872.074-1.339.096v-3.19c2.487-.149 6.379-.861 9.494 2.307.487.535.873 1.155 1.137 1.829l-1.393-.713v9.282h.075c-.828.829-1.712 1.6-2.647 2.307l-3.19-1.744c.564-.404 1.063-.808 1.648-1.244.84-.6 1.613-1.288 2.307-2.052.388-.428.653-.953.766-1.52.074-.525.074-1.059 0-1.584-.078-.585-.254-1.153-.521-1.68-.278-.532-.693-.979-1.202-1.297-.212-.121-.432-.228-.659-.319v-1.977z" fill="#f4f4f4"/><path d="m129.513 96.4808c-.364-.146-.719-.3128-1.064-.4997-.27 1.1806-.607 2.3448-1.01 3.4872.592 1.2817.979 2.6487 1.149 4.0507-1.383-.829-2.743-1.68-4.104-2.552-.175-.401-.374-.792-.596-1.1691.743-2.0823 1.34-4.2138 1.787-6.379 1.275 1.0313 2.551 2.0626 3.838 3.0619z" fill="#a92819"/><path d="m131.567 93.8126c-.901-.2541-1.743-.6872-2.473-1.2735-.731-.5864-1.336-1.3139-1.779-2.1392 1.382 1.1482 2.785 2.2964 4.252 3.4127z" fill="#efe7dc"/><path d="m127.311 90.3996-.957-.7974c0-.3615.096-.7229.139-1.0631l.149.1275c.15.6034.375 1.1856.669 1.733z" fill="#a92819"/><path d="m125.941 107.538v-1.573h.478l-.925-.585c-.02-1.519-.353-3.017-.978-4.401 1.361.871 2.722 1.722 4.104 2.551v.5h.819c3.21 1.913 6.488 3.71 9.834 5.39.798 1.51 1.265 3.173 1.369 4.878.105 1.705-.156 3.413-.763 5.009-.384.876-.896 1.69-1.521 2.414v-9.133c-.606-.298-1.201-.595-1.796-.914-.265-.674-.651-1.294-1.138-1.829-3.062-3.168-6.995-2.456-9.483-2.307z" fill="#a92819"/><path d="m124.781 116.436c.674-.275 1.362-.513 2.062-.712h.617c.118.034.223.105.298.202.057.112.083.237.074.362 0 .127 0 .223-.223.435-.358.355-.742.681-1.148.979l-1.063.818-2.339-1.371c.627-.277 1.19-.468 1.722-.713z" fill="#f4f4f4"/><path d="m125.325 107.549c.122-.702.179-1.414.17-2.127l.925.585h-.479v1.574z" fill="#a92819"/><path d="m126.845 115.724c-.7.199-1.389.437-2.063.712-.531.192-1.063.436-1.679.712-4.795-2.902-8.42-5.315-11.291-7.25.705-.609 1.308-1.327 1.786-2.126.093-.152.178-.308.255-.468 3.009 2.02 6.879 4.582 12.088 7.665v-4.178c.468 0 .904-.064 1.34-.096.872 0 1.393-.096 1.956-.074h.064v6.379l2.509 1.403v-7.251c.227.091.447.198.659.319.509.318.924.765 1.201 1.297.268.527.444 1.095.521 1.68.075.525.075 1.059 0 1.584-.112.567-.377 1.092-.765 1.52-.694.764-1.468 1.452-2.307 2.052-.532.436-1.063.84-1.648 1.244l-2.158-1.244-1.404-.797-.489-.287 1.064-.819c.406-.297.79-.624 1.148-.978.212-.212.223-.308.223-.436.008-.125-.017-.25-.074-.361-.075-.098-.18-.168-.298-.202z" fill="#a92819"/><path d="m126.365 89.6023c-.17 1.2757-.393 2.5515-.659 3.806l-2.807-2.3389c.192-1.0631.351-2.2326.479-3.3383 0-.1914 0-.3934 0-.5954.372.319.754.6273 1.116.9462z" fill="#f4f4f4"/><path d="m125.707 93.4085c-.446 2.1652-1.043 4.2967-1.786 6.3789.221.3776.42.7686.595 1.1696-1.201-.776-2.392-1.5735-3.572-2.3709.234-.7017.585-1.6904.872-2.7323.351-1.2545.648-2.6047.914-3.9337.064-.287.106-.5741.17-.8718z" fill="#f4f4f4"/><path d="m122.184 22.6914-6.244 6.939 1.873 1.6853 6.244-6.939z" fill="#2a3277"/><path d="m125.674 82.2988c.395.6066.821 1.1921 1.276 1.7542.409.55.845 1.0788 1.308 1.5841.298.3275.66.5915 1.063.7761.207.0853.426.1391.649.1594.148.0851.148.0638.148.0851v.1914c-.042.1608-.074.3241-.095.489-.043.2748-.043.5545 0 .8293.069.3426.207.6679.404.9568.245.3161.531.5985.85.8399.367.2724.768.4974 1.191.6698.454.1589.925.2659 1.403.3189.464.0425.93.0425 1.393 0 .498-.0794.977-.2488 1.414-.4997.344-.2044.644-.4755.882-.7973.2-.2769.341-.5917.415-.925.071-.35.106-.7061.106-1.0631-.008-.3566-.043-.7121-.106-1.0632l-.149-.9781c-.106-.5847-.223-1.5203-.425-2.8067s-.468-2.9662-.797-4.933c-.33-1.9668-.776-4.3696-1.127-6.1876-.351-1.8179-.649-3.115-.883-3.9868-.15-.6076-.36-1.1988-.627-1.7648-.181-.3508-.308-.606-.415-.7974l-.276-.4678c-.074-.1169-.181-.202-.266-1.1801-.085-.978-.361-2.796-.446-3.9123-.023-.4017-.084-.8004-.181-1.1908h-.096c-.269.332-.507.6879-.712 1.0632-.606.8824-1.786 2.7429-2.424 3.6891s-.723 1.01-.829 1.0632c-.107.0531-.202 0-.649-.0851-.855-.1324-1.718-.1964-2.583-.1914-1.605.0143-3.207.135-4.795.3615-1.468.1743-2.889.6253-4.189 1.329-1.388.8214-2.67 1.8104-3.817 2.9449-1.16 1.1721-2.227 2.4341-3.189 3.7742l-.213.2977c-1.016-.5373-2.116-.8969-3.253-1.0632 1.734-2.7591 3.936-5.1947 6.507-7.1975 4.922-4.4546 14.214-3.6254 14.692-3.6254 2.286-2.9555 2.807-6.0387 6.188-5.5177 3.529.8399 2.434 4.327 3.306 8.1756 1.404 2.1263 2.052 5.7091 3.03 10.9824 1.127 5.9855 2.01 12.1305 2.01 13.0023.297 4.7204-3.902 7.9311-9.292 6.5915l-.468-.1169c-1.435-1.0632-2.839-2.2645-4.253-3.4127-.296-.5541-.521-1.1436-.67-1.7542l-.148-.1276c0 .3615-.085.7229-.139 1.0631l-1.85-1.5628c-.361-.3189-.744-.6272-1.116-.9462.14-1.2001.218-2.4066.234-3.6147v-3.3489c0-.7761 0-1.0632 0-1.2333s.064-.1276.202.0851c.253.3816.48.7794.68 1.1907.309.606.723 1.3821 1.127 2.0838z" fill="#f4f4f4"/><path d="m123.74 190.953h-2.52v9.047h2.52z" fill="#a92819"/><path d="m123.74 189.687h-2.52v1.255h2.52z" fill="#a92819"/><path d="m123.431 87.1356v.5954c-.128 1.0632-.287 2.2539-.478 3.3383-.128-.1169-.256-.2126-.383-.3189-3.051-2.6937-6.245-5.2206-9.569-7.5697.323-1.2053.409-2.4616.256-3.6997 3.576 2.2957 6.977 4.8543 10.174 7.6546z" fill="#a92819"/><path d="m121.667 102.382c-.181-.394-.383-.777-.606-1.149-.148-.246-.279-.501-.393-.765-.055-.15-.084-.308-.085-.468.029-.339.108-.672.233-.9886 0-.1276.075-.2551.128-.404 1.18.7974 2.371 1.5946 3.572 2.3706.625 1.385.958 2.883.978 4.402-1.212-.766-2.402-1.542-3.583-2.339-.065-.226-.147-.446-.244-.659z" fill="#f4f4f4"/><path d="m121.999 110.908c-.309.064-.627.064-.936 0-.049-.036-.09-.083-.117-.138-.01-.057-.01-.114 0-.17.064-.201.157-.391.277-.564.234-.457.436-.925.627-1.403.202-.546.341-1.113.415-1.691.064-.586.064-1.178 0-1.765-.006-.47-.048-.939-.128-1.403-.041-.248-.098-.493-.17-.733 1.18.797 2.371 1.573 3.583 2.338.009.713-.048 1.425-.17 2.127h.616v3.189c-.478 0-.967 0-1.477 0z" fill="#f4f4f4"/><g fill="#a92819"><path d="m121.06 101.233c.223.372.425.755.606 1.148.097.214.179.434.244.66-4.071-2.722-7.995-5.5926-11.971-8.5057-3.646-1.6585-6.283-1.8605-8.505-1.3821-.648-.9036-1.276-1.8073-1.8285-2.6259 2.4425-.6579 5.0055-.7342 7.4835-.2228s4.801 1.5963 6.784 3.1677c2.325 1.7932 4.678 3.5048 7.059 5.135-.053.1488-.095.2764-.127.404-.126.3166-.204.6496-.234.9887.001.1601.03.3181.085.4681.117.264.252.519.404.765z"/><path d="m117.808 190.953h-2.519v9.047h2.519z"/><path d="m117.808 189.687h-2.519v1.255h2.519z"/><path d="m113.599 99.171c.738 1.296 1.13 2.761 1.137 4.253-.003 1.322-.304 2.627-.882 3.816l-.543-.361c-.965-.616-1.97-1.166-3.008-1.648.343-.83.443-1.741.287-2.626-.163-.935-.6-1.801-1.255-2.488-.674-.631-1.571-.9705-2.495-.9446-.923.0258-1.799.415-2.438 1.0826-.425.085-1.063.224-2.073.511-1.637-1.9565-3.1893-3.9765-4.6884-6.039 1.1784-.6932 2.4494-1.2158 3.7744-1.5522.935 1.3183 1.892 2.626 2.7 3.636.776-.4696 1.635-.7838 2.531-.925.896-.1404 1.812-.0934 2.689.1383.877.2153 1.702.6059 2.424 1.1482.74.5371 1.366 1.2166 1.84 1.9987z"/><path d="m113.854 107.283c-.077.16-.162.316-.255.468-.478.799-1.081 1.517-1.786 2.126l-.319-.213c-.997-.682-2.033-1.303-3.104-1.86.867-.607 1.533-1.458 1.913-2.445.023-.041.04-.084.053-.128 1.025.497 2.016 1.062 2.967 1.69z"/><path d="m114.395 129.194c-.382.172-.781.3-1.191.383-.251.021-.504.021-.755 0h-.213c-.032-.276-.032-.554 0-.829v-4.933c-.019-.468.02-.936.117-1.393.085-.255.234-.255.447-.255.244-.022.489-.022.733 0 .361.052.716.134 1.064.244.325.118.659.211.999.277.432.085.876.085 1.308 0 .724-.164 1.435-.385 2.126-.66.893-.34 1.945-.776 2.902-1.243.867-.47 1.701-.995 2.499-1.574.329-.234.638-.468.925-.691l.489.287 1.403.797 2.19 1.244c-.418.298-.843.585-1.276.861-.856.483-1.683 1.016-2.477 1.595-.659.553-1.127 1.159-1.86 1.754-.859.669-1.803 1.22-2.807 1.638-.893.409-1.837.695-2.807.85-.539.075-1.087.075-1.626 0-.33 0-.436 0-.596.181-.201.271-.418.53-.648.776-.265.293-.587.528-.946.691z"/><path d="m113.183 79.4709c.153 1.2382.067 2.4944-.255 3.6998-1.224-.8232-2.519-1.5348-3.87-2.1263-.016-1.1967-.269-2.3784-.745-3.4765-.128-.2462-.278-.4809-.446-.7017.457.1807.904.3721 1.34.5847 1.375.569 2.705 1.2444 3.976 2.02z"/><path d="m113.097 79.0347c.037.1472.065.2963.085.4465-1.267-.8121-2.597-1.5231-3.976-2.1263-.436-.2126-.882-.404-1.339-.5847-.301-.4039-.66-.7621-1.063-1.0632h-.064c.627-1.0986 1.312-2.1633 2.052-3.1894 3.71 2.0838 3.986 5.7729 4.305 6.5171z"/><path d="m111.811 109.898c-.952.865-2.075 1.521-3.296 1.924-3.349 3.923-7.006 3.774-8.803 3.338-3.0194-.414-5.4859-4.252-5.7517-5.007-.1401-.231-.2927-.455-.4571-.67.8718-.244 1.7754-.531 2.7748-.84.1884.295.3588.6.5103.915.3666.673.8922 1.246 1.531 1.669.6399.416 1.3678.678 2.1267.765 1.892.085 3.093-.319 5.124-2.711.904-.627 1.892-.85 2.817-1.456 1.071.557 2.108 1.178 3.105 1.86z"/><path d="m111.29 190.953h-2.519v9.047h2.519z"/><path d="m111.29 189.687h-2.519v1.255h2.519z"/><path d="m109.057 81.0015c1.352.5915 2.647 1.3031 3.87 2.1263-.245 1.045-.709 2.0261-1.361 2.8783-.653.8523-1.479 1.5562-2.423 2.0653-1.557.8087-3.297 1.1978-5.049 1.1288-1.753-.069-3.457-.5936-4.9451-1.5221.3296-.2552.6485-.521.9671-.7974.515-.4066.988-.8624 1.414-1.3608.835.2993 1.722.4281 2.608.3788.885-.0493 1.752-.2758 2.549-.6659.724-.4429 1.323-1.0647 1.738-1.8057s.633-1.5763.632-2.4256z"/><path d="m108.823 72.592c-.74 1.0261-1.425 2.0907-2.052 3.1894-.92-.6901-2.039-1.0631-3.189-1.0631.616-1.0632 1.265-2.1263 1.945-3.1895 1.152.1616 2.267.5213 3.296 1.0632z"/><path d="m109.378 96.0239c-.877-.2316-1.793-.2787-2.69-.1382-.895.1412-1.755.4553-2.53.9249-.808-1.0631-1.765-2.3177-2.7-3.636 2.2-.4784 4.837-.2764 8.505 1.3821 3.976 2.8918 7.899 5.7623 11.971 8.5053.072.241.128.486.17.734.079.463.122.932.128 1.403.063.586.063 1.178 0 1.765-.074.577-.214 1.144-.415 1.69-.191.479-.393.946-.627 1.403-.12.174-.213.363-.277.564-.01.056-.01.114 0 .17.027.055.067.103.117.138.309.064.627.064.936 0l2.519-.085h1.478v4.178c-5.209-3.083-9.079-5.645-12.088-7.665.578-1.189.88-2.494.883-3.817-.008-1.491-.4-2.956-1.138-4.2522-.461-.7781-1.072-1.4573-1.797-1.9988-.718-.5865-1.551-1.0173-2.445-1.2651z"/></g><path d="m106.837 75.8027c.404.3011.762.6593 1.063 1.0632-.468-.1701-.946-.3296-1.424-.4678.099-.2041.209-.4028.329-.5954z" fill="#efe7dc"/><path d="m106.922 103.232-.244.085h-.309l-.361.064-.744.127-.394.096c-1.132-.095-2.271-.048-3.391.138l-.139-.149-1.009-1.158c-.4683-.553-1.0636-1.266-1.7547-2.201-.691-.9357-1.5416-2.1265-2.3177-3.1896-.2658-.3721-.5315-.723-.7654-1.0632.7442-.4252 1.4671-.8717 2.1901-1.2864 1.4884 2.0625 3.0517 4.0825 4.6887 6.0392.999-.288 1.648-.426 2.073-.511.638-.6678 1.514-1.0569 2.438-1.0828s1.82.3136 2.495.9448c.655.687 1.092 1.553 1.254 2.488.157.885.057 1.796-.287 2.626-.782-.395-1.596-.723-2.434-.978.01-.074.01-.15 0-.224.062-.261.098-.528.106-.797.032-.136.032-.278 0-.415-.027-.068-.063-.132-.106-.191-.041-.047-.092-.083-.149-.106-.022-.011-.045-.016-.069-.016s-.048.005-.069.016h-.064l-.106.191-.128.17-.117.138-.106.117z" fill="#f4f4f4"/><path d="m103.51 82.4475.467.2446c.194.064.402.064.596 0 .319 0 .85-.1808 1.063-.2446l.351-.0744h.202c.07-.0275.135-.0671.191-.1169l.096-.1382v-.3402c.011-.0419.011-.0858 0-.1276-.011-.0634-.011-.128 0-.1914-.011-.0382-.011-.0787 0-.1169.023-.0457.052-.0885.085-.1276v-.1595c.011-.0705.011-.1421 0-.2126.011-.0634.011-.128 0-.1914.01-.0526.01-.1068 0-.1595l-.096-.1701c-.04-.0415-.07-.0927-.085-.1488v-.1807c.011-.0634.011-.1281 0-.1914.599.2465 1.181.5306 1.744.8505.3.1004.595.2176.882.3509.004.8529-.212 1.6926-.627 2.4376s-1.016 1.3702-1.744 1.815c-.796.3901-1.663.6165-2.549.6658-.885.0493-1.772-.0795-2.607-.3788.618-.6951 1.143-1.4669 1.563-2.2964.181-.2339.329-.5103.468-.7974z" fill="#f4f4f4"/><path d="m107.909 104.253c-.984-.336-2.005-.554-3.041-.649l.394-.096.744-.127.361-.064h.309l.244-.085.17-.096.106-.117.117-.138.128-.17.106-.191h.064c.022-.011.045-.016.069-.016s.048.005.069.016c.058.023.109.059.149.106.044.059.079.123.106.191.032.137.032.279 0 .415-.008.269-.044.536-.106.797.014.074.017.149.011.224z" fill="#a92819"/><path d="m105.072 79.0771c.096-.2446.224-.4785.33-.7124l.34.117c.245.085.457.2126.457.3296 0 .1169-.17.2232-.329.2658-.124.0429-.259.0429-.383 0z" fill="#a92819"/><path d="m106.431 79.8002c-.471-.1918-.954-.3516-1.446-.4784h.17 1.063c.042.0186.079.0479.106.085.035.0459.064.0959.085.1489v.2339z" fill="#a92819"/><path d="m105.133 79.3324h-.17l.096-.2339h.425c.124.0429.259.0429.383 0 .16 0 .33-.1595.33-.2658s-.213-.2445-.458-.3296l-.34-.0956c.16-.3509.33-.6911.5-1.0632s.34-.6485.542-.9781c.479.1382.957.2977 1.425.4678.168.2208.318.4555.446.7017.476 1.0981.729 2.2798.745 3.4765-.288-.1333-.582-.2504-.883-.3509-.563-.3199-1.145-.6039-1.743-.8505v-.2339c-.022-.053-.051-.103-.086-.1488-.027-.0371-.064-.0664-.106-.0851h-1.063z" fill="#f4f4f4"/><path d="m104.699 79.1728c.116-.048.238-.0802.362-.0957l-.096.2339h-.266c-.106-.1382-.085-.1382 0-.1382z" fill="#efe7dc"/><path d="m108.388 107.825c-1.244-.658-2.606-1.063-4.008-1.191l.085-.085.468-.297c.142-.098.291-.183.447-.256.144-.082.293-.157.446-.223l.479-.212.659-.277.351-.234.265-.234c.094-.095.169-.207.224-.329.048-.072.084-.151.106-.234.838.256 1.653.583 2.435.978-.013.044-.031.087-.054.128-.373.993-1.036 1.852-1.903 2.466z" fill="#f4f4f4"/><path d="m104.764 190.953h-2.519v9.047h2.519z" fill="#a92819"/><path d="m104.764 189.687h-2.519v1.255h2.519z" fill="#a92819"/><path d="m103.51 82.4474c.457-.9355.935-2.0306 1.446-3.1256.503.1254.996.2853 1.477.4784.011.0633.011.128 0 .1914v.1807c.016.0561.045.1073.085.1488l.096.1701c.011.0527.011.1069 0 .1595.011.0634.011.128 0 .1914.011.0705.011.1421 0 .2126v.1595c-.033.0391-.062.0819-.085.1276-.011.0382-.011.0787 0 .1169-.011.0634-.011.128 0 .1914.011.0418.011.0857 0 .1276v.3402l-.096.1382c-.056.0498-.121.0894-.191.1169h-.191l-.351.0744c-.266.0638-.798.1914-1.063.2446-.194.064-.402.064-.596 0z" fill="#a92819"/><path d="m103.626 74.75c1.151 0 2.27.373 3.19 1.0632-.12.1925-.23.3913-.33.5953-.698-.1937-1.408-.3428-2.126-.4465-.427-.0869-.861-.1367-1.297-.1488.191-.3828.372-.7336.563-1.0632z" fill="#f4f4f4"/><path d="m113.895 93.4938c-1.978-1.5648-4.294-2.646-6.764-3.1573-2.469-.5112-5.024-.4386-7.461.2123-.5741-.8186-1.0632-1.5415-1.4034-2.1263.3189-.2232.6273-.4784.9249-.7335 1.4875.9285 3.1925 1.4531 4.9445 1.5221 1.753.069 3.493-.3201 5.049-1.1288.945-.5091 1.771-1.213 2.424-2.0653.652-.8522 1.116-1.8333 1.361-2.8783 3.323 2.349 6.518 4.8759 9.568 7.5696.128.1063.256.202.383.319-.064.2976-.106.5847-.17.8717-.266 1.329-.563 2.6792-.914 3.9337-.287 1.0632-.638 2.0306-.872 2.7323-2.403-1.6089-4.759-3.2993-7.07-5.0712z" fill="#a92819"/><path d="m102.625 79.0025c.202-.0851.362-.1914.532-.2764l.564-.2446.478-.1913c.134-.0537.273-.0964.415-.1276.149.0063.297.0386.435.0957l.351.1063c-.106.2339-.234.4678-.329.7123-.125.0155-.246.0477-.362.0957-.085 0-.106 0 0 .0851-.684-.157-1.382-.2425-2.084-.2552z" fill="#a92819"/><path d="m103.071 75.7605c-.595 1.0631-1.169 2.2007-1.733 3.2851-.382.0315-.762.0848-1.137.1595h-.107l-.6801-.0744-.808-.1276-.8505-.1063c.4146-.8293.8186-1.6585 1.2545-2.4772 1.3061-.4512 2.6801-.6742 4.0611-.6591z" fill="#f4f4f4"/><path d="m99.5014 106.592-.287-.596-.3828-.553-.5741-.755-.0744-.085c1.0763-.366 2.1779-.654 3.2959-.861l.244.224.234.159h.075.499c.138.021.278.021.415 0 .227-.049.451-.113.67-.191l.893-.287.361-.085c1.036.094 2.057.312 3.041.648-.022.083-.058.163-.106.234-.055.122-.13.234-.224.33l-.265.233-.351.234-.659.277-.479.212c-.153.066-.302.141-.446.224-.156.072-.306.157-.447.255l-.468.297-.085.086c-1.3-.114-2.608.125-3.785.691-.191 0-.382.106-.552.17l-.1917-.319c-.117-.149-.1808-.351-.3509-.542z" fill="#a92819"/><path d="m102.234 104.168h-.202-.075l-.233-.245-.245-.223c1.12-.186 2.26-.233 3.391-.138l-.361.085-.893.287c-.219.078-.443.142-.67.191-.137.021-.277.021-.414 0z" fill="#f4f4f4"/><path d="m101.341 79.0454c.563-1.0632 1.137-2.1901 1.733-3.2851.436.0121.87.0619 1.297.1488.717.1037 1.428.2528 2.126.4465-.202.3296-.372.6592-.542.9781-.17.319-.34.6804-.5 1.0632l-.351-.1063c-.138-.0571-.286-.0895-.436-.0957-.141.0312-.28.0739-.414.1275l-.479.1914-.563.2445c-.17.0851-.33.1914-.532.2765-.446-.0255-.893-.0219-1.339.0106z" fill="#f4f4f4"/><path d="m101.607 60.8122c.038 1.6652-.296 3.3178-.978 4.8373-1.268 2.5064-3.1751 4.6336-5.5287 6.1663 2.1263.2127 3.0087.3509 5.3157.6911.298-.1595.606-.2977.914-.4253-.723 1.2333-1.403 2.4878-2.0622 3.7423-1.8499-.1701-4.5077-.7229-8.0587-.8399-.4784-1.6266-.9037-3.1894-1.3077-4.7629.961-.164 1.8605-.5825 2.6048-1.212 1.0675-.762 2.0448-1.643 2.913-2.626 1.0319-1.1314 1.7117-2.539 1.9562-4.0506.2286-1.2992.1373-2.6345-.266-3.8905-.4032-1.2559-1.1063-2.3948-2.0485-3.3181-.9421-.9233-2.0949-1.6033-3.3588-1.9811s-2.6008-.4421-3.8951-.1873c-1.6643.3201-3.176 1.1819-4.2991 2.4512s-1.7946 2.8747-1.9097 4.5656c-2.5669.7917-4.9821 2.0101-7.1443 3.6041-2.494 1.8762-4.651 4.1627-6.379 6.7616-.7548-.4677-1.5203-.9355-2.2751-1.3821 3.2112-5.2346 8.0243-9.2947 13.7253-11.5777.5603-2.007 1.6897-3.8089 3.2518-5.188s3.4901-2.2764 5.5511-2.5836c2.4535-.4163 4.9757-.0064 7.1711 1.1654s3.9398 3.0391 4.9599 5.3092c.73 1.4717 1.122 3.0881 1.148 4.731z" fill="#a92819"/><path d="m101.434 79.2049h-.181c.037-.0482.066-.1021.085-.1595.429-.0267.858-.0267 1.287 0-.178.0777-.363.1382-.553.1808z" fill="#efe7dc"/><path d="m100.627 80.9695h.904l.202.1382.351.3402c.113.1179.22.2422.319.3721.063.0814.139.153.223.2127l.362.202.435.1701h.085c-.138.287-.287.5634-.414.8292-.42.8295-.945 1.6013-1.563 2.2964-.786-.2902-1.508-.7307-2.1263-1.297-.3402 0-.8186.085-1.414.1276.606-.5529 1.01-.9569 1.2014-1.1589.3934-.7335.7761-1.4884 1.1699-2.2539z" fill="#f4f4f4"/><path d="m99.6706 90.5483c.5524.8187 1.1804 1.7223 1.8284 2.626-1.325.3364-2.5957.859-3.774 1.5522-.6379-.8611-1.2439-1.7223-1.8393-2.6047 1.2008-.6603 2.4699-1.1879 3.7849-1.5735z" fill="#a92819"/><path d="m101.254 79.2051h.787c.19-.0425.375-.103.553-.1807.716.0097 1.429.0952 2.126.2552l.255.0638c-.51 1.0631-.988 2.19-1.445 3.1256h-.086l-.435-.1701-.362-.202c-.084-.0596-.159-.1313-.223-.2126-.099-.13-.206-.2542-.319-.3721l-.351-.3402-.202-.1382h-.925-.287c.308-.6273.617-1.2227.914-1.8287z" fill="#a92819"/><path d="m101.477 103.742c-1.118.207-2.2194.495-3.2957.862l-.6379-.681-.7335-.755c-.2658-.244-.5741-.542-.8931-.808-.3189-.265-.5635-.521-.893-.786l-1.0632-.883c-.4359-.329-.9249-.7227-1.4033-1.0629-.4785-.3402-.8825-.808-1.2333-1.1482-.1743-.1627-.3377-.3367-.489-.521 1.6508-.3482 3.2272-.9853 4.6566-1.8818.2339.3403.4996.6911.7654 1.0632.7761 1.0632 1.6054 2.2114 2.3177 3.1897.7123.978 1.2864 1.648 1.7543 2.2l1.01 1.159z" fill="#a92819"/><path d="m101.529 85.5731c-.427.4911-.9.9397-1.414 1.3396-.3187.2764-.6377.5422-.9672.7974h-.0532l-1.3077.1169c.1063.1595.2446.3828.4359.6592-1.048.8354-2.1412 1.6127-3.2745 2.3283-.7761-1.2226-1.2758-2.0625-1.7754-2.7004 1.6965-1.0964 3.3002-2.3303 4.7948-3.6892.5953 0 1.0631-.085 1.414-.1275.6263.561 1.3553.9944 2.1473 1.2757z" fill="#a92819"/><path d="m100.373 108.027c.057.099.128.189.213.266.045.073.103.138.17.191l.17.128.181.085h.925l.181-.064.234-.128.308-.244.383-.362.329-.372.287-.34.319-.319.308-.234c1.402.128 2.765.533 4.009 1.191-.925.606-1.914.829-2.818 1.457-2.03 2.392-3.189 2.796-5.124 2.711-.7586-.088-1.4865-.35-2.1265-.766-.6387-.423-1.1643-.996-1.5309-1.669-.1515-.315-.3219-.62-.5103-.914 1.0631-.351 2.3283-.745 3.7637-1.149l.106.171c.085.138.223.265.223.361z" fill="#f4f4f4"/><path d="m101.882 108.696h-.776l-.181-.085-.17-.127c-.067-.054-.125-.118-.17-.192-.085-.076-.157-.166-.213-.265 0-.096-.138-.224-.223-.362l-.106-.17c.17-.064.361-.117.553-.17 1.176-.566 2.484-.804 3.784-.691l-.308.234-.319.319-.287.34-.33.372-.382.361-.309.245-.233.128-.181.063z" fill="#a92819"/><path d="m103.071 75.76c-1.392-.0187-2.777.2043-4.0932.6591.1063-.2126.202-.4146.3189-.6272.3806.0505.7643.0718 1.1483.0638.605-.4702 1.305-.8038 2.052-.9781.37-.0844.748-.1272 1.127-.1276-.192.3296-.372.6804-.553 1.01z" fill="#f4f4f4"/><path d="m99.5642 81.0545.7758-.0638c-.393.7655-.7758 1.5203-1.1691 2.2539-.1914.202-.5954.606-1.2014 1.1588-1.4352.117-3.4978.2765-5.7197.3509 1.5143-1.0064 2.9309-2.1525 4.2313-3.4234h.5954z" fill="#f4f4f4"/><path d="m100.202 79.2049c.376-.0747.756-.128 1.138-.1595-.02.0574-.049.1112-.085.1595h-.521c-.177.0106-.355.0106-.532 0z" fill="#efe7dc"/><path d="m102.496 74.8777c-.746.1743-1.446.508-2.051.9781-.384.0081-.7681-.0133-1.1486-.0638.6591-1.2545 1.3396-2.509 2.0626-3.7423 1.265-.5026 2.631-.6993 3.987-.5741h.223c-.68 1.0632-1.329 2.1263-1.946 3.1895-.382.0282-.76.0995-1.127.2126z" fill="#a92819"/><path d="m97.1086 80.1402c.9981-.4125 2.0344-.7259 3.0934-.9356.177.0106.355.0106.532 0h.521c-.298.606-.606 1.2014-.914 1.7861l-.7765.0638-2.5409.2232h-.5954l.1382-.1382c.1808-.2977.3509-.606.5422-.9993z" fill="#a92819"/><path d="m99.0962 87.689h.0532c-.2977.2551-.606.5103-.9249.7335-.1914-.2764-.3296-.4996-.4359-.6591z" fill="#efe7dc"/><path d="m94.2903 105.986c1.3502-.447 2.626-.947 3.8911-1.382l.0744.085.5741.754.3828.553.287.596c.1276.191.2339.393.3509.584l.1914.319c-1.4353.404-2.658.798-3.7636 1.148-.5536-.962-1.2211-1.855-1.9881-2.657z" fill="#f4f4f4"/><path d="m99.6696 90.5486c-1.3296.3827-2.613.9104-3.8273 1.5735l-.4891-.7017-.404-.6273c1.1333-.7155 2.2265-1.4928 3.2745-2.3283.3828.5741.8293 1.2652 1.4459 2.0838z" fill="#a92819"/><path d="m98.2462 190.953h-2.5196v9.047h2.5196z" fill="#a92819"/><path d="m98.2462 189.687h-2.5196v1.255h2.5196z" fill="#a92819"/><path d="m100.204 79.2048c-1.0593.2097-2.0955.5231-3.0936.9356.202-.4147.404-.8293.6166-1.2439l.8505.1063.8399.1276.6806.0744z" fill="#a92819"/><path d="m98.9793 76.4189c-.4359.8187-.8399 1.6479-1.2545 2.4772l-.5529-.0744c-.4996-.0851-1.2864-.1701-1.903-.2339-.4572 0-.8505-.1063-1.2333-.1276 1.5998-.7916 3.2515-1.4736 4.9437-2.0413z" fill="#f4f4f4"/><path d="m96.8524 103.147.691.776.5954.701c-1.2652.436-2.5409.936-3.8911 1.383-.1595-.171-.319-.341-.4891-.5-2.1263-1.956-3.5615-2.796-4.8267-4.083-1.1863-1.027-2.1925-2.2447-2.9768-3.6037 1.5901.353 3.2345.3855 4.8373.0957.1514.1842.3147.3583.4891.5209.3508.3402.7548.7549 1.2332 1.1482.4784.3934.9675.7759 1.4034 1.0629l1.0631.883c.3296.265.5848.51.8931.786.3083.277.7123.543.9781.83z" fill="#f4f4f4"/><path d="m97.1079 80.1401c-.1914.3509-.3615.7017-.5422 1.0632l-.1382.1382c-.723 0-1.4459.0957-2.2752.1276.9781-.4784 1.9562-.9356 2.9556-1.329z" fill="#a92819"/><path d="m95.8449 92.1221c.5953.8824 1.2013 1.7435 1.8392 2.6047-.7229.4146-1.4459.8611-2.1901 1.2864-.4571-.6379-.8717-1.2226-1.2651-1.7436-.2126-.2764-.404-.5422-.5741-.7867.6997-.5006 1.4313-.9552 2.1901-1.3608z" fill="#f4f4f4"/><path d="m92.2286 84.7864c2.222-.0744 4.2526-.2339 5.7197-.3509-1.4946 1.3589-3.0982 2.5928-4.7948 3.6892-.4894-.604-1.0926-1.1061-1.7754-1.4778l-1.2758-.5528c.7088-.4111 1.4175-.847 2.1263-1.3077z" fill="#a92819"/><path d="m95.3537 91.4202.4891.7017c-.7588.4056-1.4904.8602-2.1901 1.3608-.3189-.4571-.5847-.8611-.8293-1.2332l-.0744-.1276c.5103-.287 1.0632-.5847 1.5416-.893.2126-.1383.4359-.2765.6591-.4359z" fill="#f4f4f4"/><path d="m94.9496 90.7932c-.2233.1595-.4465.2977-.6591.4359-.5104.3083-1.0632.606-1.5416.893-.3509-.5422-.6379-1.0631-.8612-1.3396-.1377-.2254-.2941-.4388-.4678-.6378-.1527-.1598-.3161-.309-.489-.4466-.0619-.0613-.1338-.1117-.2126-.1488.8717-.4678 1.6904-.9568 2.4558-1.4565.4997.6379.9994 1.4778 1.7755 2.7004z" fill="#f4f4f4"/><path d="m94.2904 105.985c.767.803 1.4345 1.696 1.988 2.658-.9993.309-1.903.596-2.7748.84-.67-.929-1.4561-1.768-2.3389-2.498l-.1276-.117c1.1032-.22 2.1901-.515 3.2533-.883z" fill="#a92819"/><path d="m93.8019 105.486c.1701.16.3296.33.4891.5-1.0667.368-2.1572.663-3.2639.882-1.3077-1.063-1.8286-1.446-2.8174-2.275-1.5702-1.265-2.9364-2.763-4.0506-4.444-1.5203-.095-7.2932.138-12.2262-.255-1.5522-1.2438-3.1895-2.594-4.8055-3.9868 1.1545.3253 2.3423.518 3.5403.5741 4.5397.3828 8.9518.2339 11.8967.2658 1.1138.4474 2.2623.8029 3.434 1.0632.7843 1.359 1.7905 2.5767 2.9768 3.6037 1.2652 1.276 2.7217 2.116 4.8267 4.072z" fill="#a92819"/><path d="m91.7299 190.953h-2.5197v9.047h2.5197z" fill="#a92819"/><path d="m91.7299 189.687h-2.5197v1.255h2.5197z" fill="#a92819"/><path d="m91.4001 86.6147c.6828.3717 1.286.8738 1.7755 1.4778-.7655.4997-1.5841.9887-2.4559 1.4565-.195-.1464-.4053-.2712-.6273-.3721-.5472-.2538-1.1166-.4567-1.701-.606-.606-.1914-1.4353-.4146-2.3177-.6379 1.3867-.5128 2.7335-1.1276 4.0294-1.8392z" fill="#f4f4f4"/><path d="m91.1659 106.985c.8867.729 1.6763 1.569 2.3496 2.499-1.808.546-3.662.927-5.539 1.137-2.6086-.126-5.1828-.649-7.6334-1.552-4.5928-1.659-9.6534-5.847-15.0755-10.4508 1.5625.5773 3.1977.9351 4.8586 1.0631.5847.0744 1.1801.1276 1.8073.1807 3.434 2.764 6.6235 5.018 9.4621 6.049 1.2893.467 2.6159.822 3.9655 1.064.5954.106 1.1908.191 1.7861.244 1.303.025 2.6047-.096 3.8805-.361z" fill="#a92819"/><path d="m89.0397 66.1816-.1702-.085c-.0489-.0397-.1077-.0654-.1701-.0744h-1.0631l-.1382.0744-.1595.1276-.1914.1701-.202.2232-.1275.1914-.0851.1807c-.0106.0562-.0106.1139 0 .1701-.0106.0705-.0106.1422 0 .2127v.404c-.0102.2055.0186.4111.0851.6059.0744.2233.1063.4359.3083 1.1483.202.7123.4997 1.9349.808 3.0618.3083 1.127.5847 2.1263.8292 2.9981.2446.8718.4359 1.5097.5422 1.8712.0359.1661.0931.3269.1701.4784.0563.0703.1294.1252.2127.1595.2152.0757.4416.1152.6698.1169.5156-.0103 1.0312.0217 1.5415.0957l1.6585.1063h.3828c-2.1655 1.1781-4.4789 2.0613-6.8786 2.626l-.0851-.1382c-.3155-.5195-.596-1.0593-.8399-1.616-.489-1.0632-1.2651-2.8067-1.6585-3.6785-.3933-.8718-.3933-.8824-.4146-.8612-.0213.0213-.085.1063-.4784.4359s-1.1376.9569-2.0413 1.6266c-.5315.3828-1.1163.808-1.6797 1.1908-.5848-.3934-1.212-.7974-1.935-1.2652-2.1263-1.4671-4.2987-2.8847-6.5171-4.2526l1.2864-1.7967c.6603-.8729 1.3702-1.7071 2.1263-2.4984.7112-.6903 1.4639-1.3365 2.2539-1.935.7496-.577 1.5422-1.0959 2.3708-1.5522.7208-.4016 1.4665-.7567 2.2326-1.0631.6486-.2552 1.212-.4359 1.5629-.5635.2508-.0745.4959-.1669.7335-.2764l.6379-.3402c.1307-.078.2431-.1831.3296-.3083.112-.1197.1988-.2607.2552-.4146.0836-.2426.1476-.4915.1913-.7443.0745-.3189.1383-.691.2446-1.0631.093-.4524.2319-.8941.4146-1.3183.2241-.442.5145-.8472.8611-1.2014.3072-.3235.6666-.5931 1.0632-.7973.3994-.2122.83-.3594 1.2758-.4359.4684-.0744.9456-.0744 1.414 0 .3936.0358.7821.1142 1.1588.2339.2396.0718.4684.1755.6804.3083.2027.1126.3917.2482.5635.404.1684.1313.3249.2772.4678.4359.1526.1607.2946.3312.4252.5103.1543.2129.2929.4367.4147.6698.1503.2934.2748.5993.3721.9143.1152.3013.1937.6154.2339.9356.0212.2937.0212.5886 0 .8824-.03.3021-.0869.601-.1701.893-.0913.2919-.205.5763-.3402.8505-.1227.2372-.2688.4616-.4359.6698-.212.2849-.4392.5581-.6805.8186-.2764.2658-.5634.521-.9355.8399-.3721.319-.808.6379-1.127.8824-.3189.2446-.5209.3509-.6485.4253l-.2232.0957h-.5635l-.1276-.0957-.1807-.202-.2765-.2764z" fill="#a92819"/><path d="m90.1024 86.0938c-1.2946.7263-2.6414 1.3552-4.0293 1.8818l-1.2864-.3721-4.2526-1.0631c-1.7968-.5104-4.1463-1.0632-5.454-1.4034s-1.3289-.3508-1.3289-.3508c-.0418-.0466-.0743-.1007-.0957-.1595-.0106-.031-.0106-.0647 0-.0957-.0107-.0273-.0107-.0577 0-.085v-.0745c-.0106-.031-.0106-.0646 0-.0957l.2232-.404c.2127-.3083.5848-.9674.8506-1.4033.1888-.2967.406-.5745.6485-.8293l.4359-.4997c.1807-.1807.3402-.3402.5315-.4996.221-.1924.4517-.3734.6911-.5422.8399.5103 1.8073 1.0631 2.7217 1.616l-1.7011 1.1801 4.8799 1.1482c2.4333.5165 4.8277 1.2021 7.1656 2.0518z" fill="#f4f4f4"/><path d="m89.0391 95.0669c1.3534.1312 2.707-.248 3.7954-1.0631.2658-.202.521-.3934.7974-.5741.1701.2445.3614.5103.5741.7867.3933.521.808 1.0632 1.2651 1.7436-1.4293.8965-3.0057 1.5335-4.6566 1.8818-.1382-.1276-.2445-.2658-.3614-.3934-.2499-.2944-.4774-.6071-.6805-.9356-.1832-.299-.35-.6078-.4996-.9249-.0745-.1701-.1383-.3509-.2339-.521z" fill="#a92819"/><path d="m88.2082 104.593c.9888.829 1.5097 1.18 2.8174 2.275-1.2759.266-2.5775.387-3.8805.362-.5954 0-1.1907-.139-1.7861-.245-1.3496-.241-2.6762-.597-3.9656-1.063-2.8386-1.063-6.028-3.285-9.462-6.0494 4.933.3934 10.7059.1594 12.2262.2554 1.1125 1.688 2.4788 3.194 4.0506 4.465z" fill="#a92819"/><path d="m62.789 0c30.3105 13.2362 37.774 31.7244 39.007 35.2966l-2.392.7868c-1.1695-3.3915-8.2394-20.9654-37.6249-33.77636z" fill="#4c8bca"/><path d="m91.4739 84.7864c-3.9868.085-5.4221.0956-6.6766-.808h-.0532c3.3171.5103 6.3789-.9994 9.4089-2.4665.8293 0 1.5522-.0745 2.2752-.1276-1.2912 1.2619-2.6971 2.4008-4.1995 3.4021z" fill="#f4f4f4"/><path d="m88.6244 94.0566c.0624.061.1128.1332.1488.2127 0 .1275.117.287.202.5209.0851.2339 0 .1701.0851.2764-.753-.0517-1.5001-.1691-2.2327-.3508l.9781-.3508z" fill="#f4f4f4"/><path d="m92.8546 94.0566c-1.0884.8151-2.442 1.1943-3.7954 1.0631 0-.1063 0-.1913-.0851-.2764-.085-.085-.1488-.3933-.202-.5209-.0359-.0795-.0864-.1517-.1488-.2127 1.4131-.5603 2.7907-1.2065 4.125-1.9349l.0744.1276c.2446.3721.5103.7761.8293 1.2332-.2764.1276-.5316.319-.7974.521z" fill="#a92819"/><path d="m88.5179 66.0215h.2233c.0623.0091.1211.0348.1701.0745l.1701.085.2126.1914.2764.2764.1808.202.1275.0957h.5635l.2233-.0957c.1276-.0744.3189-.1914.6485-.4253.3296-.2338.7655-.5741 1.1269-.8824.3615-.3083.6592-.5741.9356-.8399.2413-.2605.4684-.5337.6804-.8186.1672-.2082.3132-.4326.4359-.6698.1353-.2743.249-.5586.3402-.8505.0832-.292.1402-.5909.1701-.893.0213-.2938.0213-.5887 0-.8825-.0401-.3201-.1186-.6342-.2339-.9355-.111-.3164-.2497-.6224-.4146-.9143-.1217-.2331-.2603-.4569-.4146-.6698-.1306-.1791-.2727-.3496-.4253-.5103-.1429-.1587-.2994-.3046-.4678-.4359-.1717-.1558-.3608-.2914-.5634-.404-.212-.1328-.4409-.2365-.6805-.3083-.3766-.1197-.7652-.1981-1.1588-.2339-.4684-.0744-.9456-.0744-1.414 0-.4457.0765-.8764.2236-1.2758.4359-.3966.2042-.756.4738-1.0631.7973-.3073.3549-.5616.7524-.7549 1.1801-.1826.4242-.3215.8659-.4146 1.3183-.1063.4147-.1701.7868-.2445 1.0632-.0437.2528-.1077.5016-.1914.7442-.0564.1539-.1431.2949-.2551.4146-.0866.1252-.1989.2303-.3296.3083l-.6379.3402c-.2376.1095-.4828.2019-.7336.2765-.3508.1275-.9143.3083-1.5628.5634-.7661.3064-1.5118.6616-2.2326 1.0632-.8287.4562-1.6213.9751-2.3708 1.5522-.7901.5984-1.5428 1.2446-2.2539 1.9349-.7561.7913-1.4661 1.6255-2.1263 2.4984l-1.2864 1.7968c-1.1376-.723-2.2858-1.4459-3.4447-2.1264 1.728-2.5989 3.885-4.8854 6.379-6.7616 2.1686-1.5961 4.5912-2.8146 7.1656-3.6041.1194-1.7029.8032-3.3174 1.943-4.5882 1.1399-1.2708 2.6709-2.1254 4.3508-2.4286 1.29-.2267 2.6154-.1426 3.8664.2453 1.2509.3879 2.3914 1.0684 3.3268 1.9851s1.6388 2.0432 2.0519 3.286c.4131 1.2429.5239 2.5664.3233 3.8606-.2686 1.5211-.9784 2.9297-2.0412 4.0506-.8668.9712-1.8404 1.8414-2.9024 2.5941-.7444.6295-1.6438 1.048-2.6048 1.212.404 1.5522.8293 3.1895 1.3077 4.7629 3.5509.117 6.2088.6698 8.0587.8399-.1169.2126-.2126.4146-.3189.6273-1.6922.5677-3.3439 1.2496-4.9437 2.0412h-.3827l-1.6585-.1063c-.5104-.0739-1.026-.1059-1.5416-.0957-.2282-.0016-.4545-.0412-.6698-.1169-.0832-.0343-.1564-.0892-.2126-.1595-.0771-.1515-.1342-.3123-.1701-.4784-.1064-.3615-.3084-1.0632-.5422-1.8712-.2339-.808-.521-1.8711-.8293-2.998-.3083-1.127-.6166-2.339-.808-3.0619-.1914-.723-.2339-.925-.3083-1.1482-.0664-.1948-.0953-.4005-.0851-.606v-.4359c-.0106-.0705-.0106-.1422 0-.2126-.0106-.0562-.0106-.1139 0-.1702l.0851-.1807.1276-.1914.202-.2232.1913-.1701.1595-.1276.1382-.0744h.7867z" fill="#f4f4f4"/><path d="m87.158 81.0869c2.3997-.5647 4.713-1.4478 6.8785-2.626.3828 0 .7761.0745 1.2333.1276.6166.0638 1.4034.1489 1.903.2339l.5529.0744c-.2127.4147-.4147.8293-.6167 1.2439-.9993.3934-1.9774.8505-2.9555 1.3183-1.0632 0-2.3496 0-3.3702.0851h-2.307c-.2461.0051-.4921-.0162-.7336-.0638-.0844-.013-.1646-.0458-.2339-.0957-.0696-.035-.137-.074-.202-.1169z" fill="#a92819"/><path d="m85.5405 96.9487c.1382.2871.2977.5741.4572.8506-1.1717-.2603-2.3202-.6159-3.434-1.0632.9967-.0197 1.9931.0515 2.9768.2126z" fill="#a92819"/><path d="m85.2116 190.953h-2.5197v9.047h2.5197z" fill="#a92819"/><path d="m85.2116 189.687h-2.5197v1.255h2.5197z" fill="#a92819"/><path d="m84.5755 75.654c.3934.8718 1.1695 2.626 1.6585 3.6785.2438.5567.5244 1.0965.8399 1.616l.0851.1382c-.6645.1406-1.3517.1335-2.013-.0208-.6614-.1543-1.2808-.4521-1.8144-.8722-1.1801-.7124-2.1263-1.3821-3.3702-2.1263.5635-.3828 1.1482-.808 1.6798-1.1908.9037-.6698 1.6479-1.2864 2.0413-1.6266.3933-.3402.4571-.3934.4784-.4359.0212-.0425.0212-.0212.4146.8399z" fill="#f4f4f4"/><path d="m84.2756 40.5699-1.0631.5847-1.0632.5847c-.202-.3615-10.3444-18.3287-45.2264-21.6883l.2445-2.509c36.4342 3.5297 46.6936 22.2411 47.1082 23.0279z" fill="#4c8bca"/><path d="m83.4261 93.5146c1.8606 0 2.7217.0957 3.3702.0957.4387.027.8754.0802 1.3077.1595.1624.0054.3173.0696.4359.1807.0398.0246.0699.0621.085.1064l-.8186.3083-.9781.3508c-1.2002-.3044-2.3735-.7061-3.5084-1.2014z" fill="#f4f4f4"/><path d="m86.7957 93.6106c-.6485 0-1.5097-.0957-3.3702-.0957h-.1063c-.6698-.2977-1.3183-.5954-1.9137-.9037l.925-.1489c2.9413-.4869 5.7781-1.4721 8.3882-2.913.0789.0372.1508.0875.2127.1489.1729.1375.3363.2867.489.4465.1736.1991.3301.4124.4678.6379.2233.3189.5103.7973.8611 1.3395-1.3343.7284-2.7118 1.3746-4.125 1.935-.0152-.0442-.0452-.0818-.085-.1063-.1186-.1112-.2735-.1754-.4359-.1808-.4323-.0793-.869-.1325-1.3077-.1594z" fill="#a92819"/><path d="m83.1701 41.1973-1.0632.5953z" fill="#1d1d1b"/><path d="m84.7867 83.9678c1.2545.9037 2.6897.893 6.6765.808l.7655.0106c-.7088.482-1.4423.9285-2.2007 1.3396-2.3188-.8726-4.6953-1.5831-7.1125-2.1263l-4.8799-1.1482 1.7011-1.1801c1.1695.6698 2.2751 1.297 2.9555 1.701.6545.2608 1.3354.4498 2.0307.5635z" fill="#a92819"/><path d="m94.1534 81.4588c-3.0832 1.4672-6.0919 2.9769-9.4089 2.4665-1.1414-1.1186-2.0138-2.4818-2.5516-3.9868-1.0631.7017-1.701 1.1908-2.4346 1.7223-.9143-.5315-1.8818-1.0631-2.7217-1.616.5537-.4727 1.1478-.8961 1.7755-1.2651.3508-.202.7336-.4465 1.0631-.7123 1.1908.7655 2.1901 1.4352 3.3702 2.1263.5336.4201 1.153.7179 1.8144.8722.6613.1543 1.3485.1614 2.013.0208l.1488.1808c.065.0429.1324.0819.202.1169.0694.0499.1495.0827.2339.0957.2415.0476.4875.069.7336.0638h2.2539c1.0631-.0851 2.2964 0 3.3702-.0851z" fill="#f4f4f4"/><path d="m82.1943 79.9385c.5502 1.5089 1.4374 2.8725 2.5941 3.9868-.6953-.1137-1.3761-.3027-2.0306-.5635-.6804-.404-1.7861-1.0631-2.9556-1.701.7336-.5316 1.3609-1.0206 2.3921-1.7223z" fill="#a92819"/><path d="m82.1905 95.7687c1.5738-.2151 3.1251-.571 4.6353-1.0631.7326.1817 1.4796.2991 2.2326.3508.0745.1701.1383.3721.2339.5741.1497.3172.3165.6259.4997.9249.2031.3285.4305.6412.6804.9356.117.1276.2233.2658.3615.3934-1.6028.2898-3.2473.2573-4.8373-.0957-.1595-.2764-.319-.5635-.4572-.8505-.9841-.1576-1.9805-.2252-2.9768-.202l-.8505-.3509c-.2656-.1807-.5426-.3441-.8293-.489.4359-.0213.8718-.0744 1.3077-.1276z" fill="#f4f4f4"/><path d="m83.3194 93.5146c1.1349.4953 2.3082.897 3.5084 1.2014-1.5102.4922-3.0615.848-4.6353 1.0632-.4359 0-.8718.1063-1.3077.1382-1.297-.7123-3.0406-1.4672-4.4759-2.3921h6.9105z" fill="#f4f4f4"/><path d="m79.9592 78.0459c-.3828.2658-.7655.5103-1.0632.7123-.6276.369-1.2217.7924-1.7754 1.2652l-.925-.5529c-1.7967-1.212-3.9124-2.6366-6.4427-4.2526.2481-.4323.567-.9639.9569-1.5947.2445-.3615.5103-.7548.7973-1.1588 2.1972 1.4175 4.3696 2.835 6.5171 4.2526.723.5315 1.3502.9355 1.935 1.3289z" fill="#a92819"/><path d="m78.6818 190.953h-2.5197v9.047h2.5197z" fill="#a92819"/><path d="m78.6818 189.687h-2.5197v1.255h2.5197z" fill="#a92819"/><path d="m90.7181 89.5491c-2.6101 1.4409-5.4469 2.426-8.3883 2.913l-.9249.1488c-1.3183-.6586-2.5932-1.4007-3.8168-2.222l-.085-.0744-1.0632-.8186c1.6227.0807 3.2493.0095 4.8586-.2126 1.6249-.3021 3.2216-.7396 4.7736-1.3077.8824.2232 1.7117.4465 2.3177.6379.5844.1493 1.1538.3522 1.701.606.2201.0874.4304.1979.6273.3296z" fill="#a92819"/><path d="m77.5055 90.3148.0851.0745c1.2236.8212 2.4984 1.5634 3.8167 2.222-2.0781.1995-4.1692.2244-6.2514.0744-1.6266-1.2439-3.2851-2.4559-4.9542-3.6466 2.1263.1913 4.2526.3933 6.1981.4571z" fill="#a92819"/><path d="m84.8502 150.606c.045.047.0747.106.0851.17.0157.063.0157.129 0 .191-.0461.221-.0781.445-.0957.67v.638.393c-.016.034-.0243.07-.0243.107s.0083.073.0243.106c.0536.047.1204.077.1914.085.3957.043.7949.043 1.1907 0l3.8911-.085c1.0632 0 1.1482 0 1.2439-.106.0495-.057.0872-.122.1109-.194.0238-.071.033-.146.0273-.221-.0102-.209-.0684-.412-.1701-.595-.1276-.234-.3189-.553-.5422-.883-.2337-.343-.4856-.673-.7548-.988-.1989-.215-.4325-.395-.6911-.532-.1798-.086-.3748-.137-.5741-.149h-.5209c-.0968-.026-.1849-.077-.2552-.149 0 0-.1488-.159-.3189-.382-.1701-.224-.4359-.564-.723-.904-.2815-.317-.5796-.618-.893-.904-.2807-.277-.5752-.539-.8824-.786l-.8931-.691c-.2967-.22-.6055-.422-.9249-.606-.3388-.187-.6948-.34-1.0632-.458-.3918-.133-.7935-.237-1.2013-.308l-1.4034-.244c-.531-.097-1.051-.247-1.5522-.447-.5442-.224-1.0733-.484-1.5841-.776-1.013-.57-1.9021-1.336-2.6153-2.254-.4024-.537-.728-1.127-.9675-1.754-.1928-.441-.3079-.913-.3402-1.393-.0386-.353-.0386-.71 0-1.063.0852-.371.2211-.729.404-1.063.2445-.521.6379-1.308 1.0631-2.392.5416-1.251 1.0102-2.533 1.4034-3.838.3822-1.337.6595-2.702.8292-4.083.117-.96.117-1.931 0-2.892-.0532-.636-.1491-1.268-.287-1.892-.0571-.271-.1352-.538-.2339-.797-.0055-.078-.0055-.156 0-.234 0-.085.1276-.085.1276-.085h.3508l1.1588.212c.9144.149 2.6154.458 4.6354.766s4.4014.659 6.8361.882c2.4346.223 4.8905.394 7.155.394 1.9907.042 3.9825-.033 5.9645-.224 1.395-.117 2.772-.395 4.104-.829.95-.322 1.86-.754 2.711-1.286.606-.383.861-.649.999-.649s.191.234.319.617c.153.499.492.921.946 1.18.697.292 1.445.44 2.201.436.792.064 1.59.021 2.371-.128 1.03-.238 2.037-.569 3.008-.989 1.067-.41 2.11-.879 3.126-1.403l1.308-.595 2.285 1.371c-.287.223-.595.457-.924.691-.798.579-1.632 1.105-2.499 1.574-.957.467-2.009.903-2.902 1.244-.691.275-1.402.495-2.127.659-.431.085-.876.085-1.307 0-.34-.066-.674-.159-1-.277-.347-.11-.702-.192-1.063-.244-.244-.021-.489-.021-.733 0-.213 0-.362 0-.447.255-.097.457-.136.925-.117 1.393v4.933c-.032.275-.032.553 0 .829h.213c.251.021.503.021.755 0 .41-.082.809-.211 1.19-.383.371-.159.705-.394.978-.691.231-.246.448-.505.649-.776.159-.181.266-.181.595-.181.54.075 1.087.075 1.627 0 .97-.155 1.914-.441 2.807-.85 1.004-.418 1.948-.969 2.806-1.637.734-.596 1.202-1.202 1.861-1.755.794-.579 1.621-1.112 2.477-1.594.432-.277.858-.564 1.276-.862l3.189 1.744c-1.626 1.212-3.189 2.126-3.933 2.615-.992.721-1.927 1.517-2.796 2.382-2.351 1.825-5.179 2.932-8.144 3.189-1.552 1.616-4.816 2.563-6.634 1.765-.621-.236-1.152-.659-1.521-1.212-.367-.558-.556-1.214-.542-1.882.117-4.763.149-6.379.181-6.91l-.181-.17c-4.858 2.796-17.6162 2.424-29.1514.34-.1141 4.846-1.4097 9.59-3.7742 13.821-.4252 1.212 1.5948 2.966 3.1895 3.604 1.4033.627 3.2958.319 5.7942 1.744 1.8639 1.119 3.5158 2.559 4.8798 4.252 1.7436.447 2.945 1.744 4.3483 4.253.4586.784.6387 1.7.5114 2.599-.1274.899-.5548 1.729-1.2131 2.355-1.0631.946-2.0518.914-4.2526.946l-4.2526.085c-.7894.005-1.5586-.249-2.1901-.723-.6297-.477-1.0824-1.15-1.2864-1.913-3.6679-.33-4.4971-2.637-5.8048-3.817-2.7871-1.852-5.7001-3.508-8.7178-4.954-1.7223-.925-4.8161-1.839-7.3145-4.742-1.1653-1.344-1.7503-3.095-1.6266-4.869.1063-3.03 1.7754-4.029 2.5728-5.22.1063-.946.1488-1.393.1488-1.393-2.1263-.797-11.8328-6.762-13.3744-15.437-1.7755 7.176-3.4553 11.036-10.0043 17.074-1.5628 1.404-1.9881 1.85-2.6685 2.127-2.3283.903-4.5928-.638-4.7097-3.594-.5422-6.262-.8718-12.024 1.6266-17.765 1.3321-.082 2.6512-.311 3.9336-.68-.6334 1.034-1.1402 2.14-1.5096 3.295-.7055 1.948-1.114 3.991-1.212 6.06-.0832 2.635-.0123 5.273.2126 7.899h.0638c.1488 1.744.2126 1.638.3189 1.638.319-.255.6379-.521.9356-.808.7123-.659 2.0306-1.85 3.1895-3.03 1.0378-1.091 1.9804-2.268 2.8173-3.519.7359-1.112 1.3524-2.299 1.8393-3.541.4948-1.264.9173-2.557 1.2651-3.869.3934-1.361.7974-2.828 1.2545-3.945.3572-.924.8755-1.777 1.531-2.519.4991-.601 1.0913-1.118 1.7542-1.531.4402-.281.9259-.482 1.4352-.596.3721-.127.5635-.085.6804 0 .117.085.1383.255.2127.713.0744.457 0 1.222 0 2.126-.0532.935-.0532 1.872 0 2.807.0861.896.2825 1.778.5847 2.626.3378.978.776 1.918 1.3077 2.806.6245.974 1.3362 1.888 2.1263 2.733.8505.903 1.7755 1.764 2.626 2.53.8279.754 1.7208 1.434 2.6685 2.031.9068.551 1.8439 1.052 2.8067 1.499.3463.17.7012.323 1.0632.457.1807.085.3614.212.3614.648.0532.609.0532 1.22 0 1.829-.0638.67-.1913 1.276-.1913 1.69-.0224.373-.1277.736-.3084 1.063-.3232.491-.6784.96-1.0631 1.404-.3522.368-.6624.775-.9249 1.212-.1685.367-.2556.766-.2552 1.169-.0142.427.036.854.1488 1.265.1406.519.3907 1.001.7336 1.414.4765.523 1.0075.994 1.5841 1.404.6121.439 1.2592.826 1.9349 1.159.7549.361 1.6692.754 2.5835 1.18.9143.425 1.9456.925 2.8174 1.392.8717.468 1.6266.893 2.4984 1.414.8717.521 1.8711 1.17 2.5728 1.606.4981.327.9773.682 1.4352 1.063.368.285.7.613.9888.978.2976.351.5741.723.8399 1.063.2172.262.4715.492.7548.681.2538.154.5299.269.8186.34.4627.091.9321.144 1.4034.159h1.701c.2163 0 .4314.032.6379.096z" fill="#f4f4f4"/><path d="m76.3976 89.4961c-3.1895-2.3389-7.0274-5.1031-11.5033-7.963.1914-.2658.3934-.5103.606-.7548.6698-.8293 1.5203-1.7861 2.1263-2.4453.606-.6591.8611-1.0631 1.0631-1.3927s.5316-.7867.7655-1.1907c.0957-.1489.1914-.319.2977-.5103 2.5303 1.6266 4.646 3.0512 6.4427 4.2526l.8399.5422c-.2394.1689-.4701.3498-.6911.5422-.1913.1595-.3508.3189-.5316.4997l-.4358.4996c-.2425.2549-.4597.5326-.6486.8293-.2657.4359-.6379 1.0632-.8505 1.4034l-.2232.404c-.0106.031-.0106.0646 0 .0956v.0745c-.0107.0273-.0107.0577 0 .085-.0106.031-.0106.0647 0 .0957.0214.0588.0538.1129.0956.1595 0 0 .0957.1276 1.4034.4465s3.6572.893 5.454 1.4034l4.2526 1.0631 1.2651.3296c-1.5644.5849-3.1755 1.0366-4.8161 1.3502-1.6279.2148-3.2724.2753-4.9117.1807z" fill="#a92819"/><path d="m75.1536 92.6857c2.0822.1501 4.1733.1252 6.2513-.0744.5954.3083 1.2439.606 1.9137.9037h-6.9105l-.7336-.5103h-.1063z" fill="#a92819"/><path d="m64.8964 81.5332c4.4759 2.8599 8.2926 5.6241 11.5033 7.963-1.9881-.0638-4.0612-.2658-6.1982-.4572-2.3106-1.6301-4.6601-3.193-7.0487-4.6885.2025-.506.4554-.9904.7549-1.4458.3083-.4678.6804-.925.9887-1.3715z" fill="#a92819"/><path d="m72.1676 190.953h-2.5197v9.047h2.5197z" fill="#a92819"/><path d="m72.1676 189.687h-2.5197v1.255h2.5197z" fill="#a92819"/><path d="m70.8803 95.6307c-1.5097-.1063-3.0088-.1807-4.3696-.2445-1.3289-1.0632-2.6791-2.2539-4.0612-3.3808 1.3076 0 2.8067 0 4.412.1276h.0957c.7398.3084 1.5093.5399 2.2964.691 1.0091.1967 2.0275.3422 3.0513.4359 1.3633.1412 2.7331.2122 4.1037.2126 1.4353.925 3.1895 1.6798 4.4759 2.3921-1.4139.1255-2.8345.1575-4.2526.0957-1.9456-.0106-3.8592-.2126-5.7516-.3296z" fill="#f4f4f4"/><path d="m66.5112 95.418c1.3609.0638 2.8599.1382 4.3696.2445 1.8924.1169 3.8061.3189 5.7091.3721 1.4181.0618 2.8387.0298 4.2526-.0957.2867.145.5637.3083.8293.4891l.8505.3508c-2.9449 0-7.357.1169-11.8967-.2658-1.1981-.0562-2.3858-.2488-3.5403-.5741s-.0531 0-.0744-.0744z" fill="#f4f4f4"/><path d="m69.7533 75.2181c-.1063.1914-.202.3615-.2977.5103-.2339.404-.4891.7974-.7655 1.1907-.2764.3934-.5528.7336-1.0631 1.3928-.5103.6591-1.4034 1.616-2.1263 2.4452-.2127.2445-.4147.4891-.606.7549l-.4784-.3084v-5.3157l.5422-.6698c.5209-.7974 1.01-1.5522 1.3927-2.1263 1.212.7548 2.3389 1.4671 3.4021 2.1263z" fill="#f4f4f4"/><path d="m66.8628 92.1328c2.6579.1595 5.5815.4146 8.2926.5528l.4146.319h.1063l.7336.5103c-1.3707-.0004-2.7404-.0714-4.1038-.2126-1.0238-.0938-2.0421-.2392-3.0512-.4359-.7852-.1339-1.5547-.3476-2.2964-.6379z" fill="#a92819"/><path d="m67.1917 71.7306c.2764-.4678.5635-.9462.8718-1.3927 1.1588.7017 2.307 1.4246 3.4446 2.1263-.2871.404-.5528.7974-.7974 1.1588-.3969.6308-.7158 1.1624-.9568 1.5948-1.0632-.6805-2.1901-1.3928-3.4021-2.1264.5103-.7867.8399-1.3289.8399-1.3608z" fill="#f4f4f4"/><path d="m67.0419 95.8326s0 0 .0744.0744c-.572-.1582-1.1331-.3535-1.6798-.5847h.117.9568z" fill="#efe7dc"/><path d="m66.5114 95.4178h-.9569-.1169c-1.3088-.5418-2.5389-1.257-3.6573-2.1263-.4296-.3472-.8281-.7314-1.1907-1.1482.5635-.0638 1.1801-.1063 1.8605-.1169 1.3821 1.1056 2.7323 2.2432 4.0613 3.3914z" fill="#f4f4f4"/><path d="m65.6513 190.953h-2.5197v9.047h2.5197z" fill="#a92819"/><path d="m65.6513 189.687h-2.5197v1.255h2.5197z" fill="#a92819"/><path d="m64.4163 71.9116c.6697.404 1.3183.7974 1.9349 1.1908-.3827.6166-.8718 1.3714-1.3927 2.1263l-.5422.6697z" fill="#a92819"/><path d="m65.0006 98.3949.2657.2233c-1.905-.7158-3.6739-1.7513-5.2307-3.0619.4475-.1079.9024-.1825 1.3609-.2233 1.1801 1.0206 2.4027 2.0519 3.6041 3.0619z" fill="#a92819"/><path d="m64.4149 81.2248.4784.3083c-.3508.4465-.6804.9037-.9994 1.3715-.2994.4554-.5523.9398-.7548 1.4458-1.1482-.7229-2.307-1.4352-3.4765-2.1263.1883-.4054.4125-.7932.6698-1.1588 1.2404-1.7892 2.5896-3.5006 4.04-5.1244z" fill="#f4f4f4"/><path d="m63.1425 84.3506c2.3814 1.5026 4.731 3.0654 7.0487 4.6885-2.3911-.2468-4.7938-.3639-7.1976-.3509-.082-.2015-.1529-.4073-.2126-.6166-.0779-.2991-.1242-.6055-.1382-.9143-.0073-.4101.0283-.8199.1063-1.2226.069-.4993.1865-.9907.3508-1.4672.0188-.0371.0331-.0764.0426-.1169z" fill="#a92819"/><path d="m65.001 98.3947c-1.2014-1.0632-2.424-2.0413-3.6572-3.0619 1.3593-.0902 2.7231-.0902 4.0825 0 .5466.2312 1.1077.4265 1.6797.5847 1.6373 1.3927 3.2533 2.743 4.8055 3.9868-.6273 0-1.2226-.1063-1.8074-.1807-1.6609-.128-3.296-.4858-4.8586-1.0631z" fill="#a92819"/><path d="m63.4402 89.5385c-.144-.2135-.2719-.4373-.3828-.6698l-.0637-.1807c2.4037-.013 4.8064.1041 7.1975.3508 1.6691 1.1908 3.3277 2.4028 4.9543 3.6466-2.7111-.1382-5.6347-.3933-8.2926-.5528-1.0443-.4695-2.0036-1.109-2.8386-1.8924-.2163-.2124-.4088-.4477-.5741-.7017z" fill="#a92819"/><path d="m62.4609 92.005c-1.1694-.9568-2.3601-1.903-3.5615-2.8173-.0032-.046-.0032-.0922 0-.1382.3189-.0638.6485-.117.9887-.1595 1.0591-.1213 2.1236-.1887 3.1895-.202l.0638.1807c.1108.2325.2387.4563.3827.6698.1687.2546.3648.4899.5847.7017.8351.7834 1.7943 1.4229 2.8386 1.8924-1.6904-.0957-3.1894-.1488-4.4865-.1276z" fill="#f4f4f4"/><path d="m62.7469 85.9345c-.078.4027-.1136.8125-.1063 1.2227.014.3087.0603.6152.1382.9143.0597.2092.1306.415.2126.6166-1.0659.0133-2.1304.0807-3.1894.202-.3402.0425-.6698.0957-.9888.1595-.6031-2.2966-.3105-4.7367.8187-6.8255 1.1694.6911 2.3283 1.4034 3.4765 2.1263.0044.0389.0044.0781 0 .117-.168.4761-.289.9675-.3615 1.4671z" fill="#f4f4f4"/><path d="m58.8892 89.1875c1.2013.9143 2.3921 1.8605 3.5615 2.8174-.6804 0-1.297 0-1.8605.1169-.7649-.8492-1.3442-1.8486-1.701-2.9343z" fill="#f4f4f4"/><path d="m61.7793 93.2914c1.1193.8424 2.3456 1.5324 3.6466 2.0519-1.3594-.0902-2.7232-.0902-4.0825 0-1.0632-.8825-2.1795-1.7649-3.2958-2.6367.7899-.2561 1.6011-.4411 2.424-.5528h.1169c.3631.4131.7616.7937 1.1908 1.1376z" fill="#a92819"/><path d="m63.6841 72.3475c.723-1.2439 1.414-2.3708 2.1263-3.3914.7548.4465 1.5203.9143 2.2752 1.3821-.3084.4465-.5954.9249-.8718 1.3927 0 0-.3296.5741-.8399 1.3714-.6166-.3933-1.2652-.7867-1.935-1.1907v4.0294c-1.4721 1.6219-2.8427 3.3333-4.1037 5.1244-.272.3639-.5105.7517-.7123 1.1588-.7761-.4678-1.5629-.925-2.339-1.3609.2462-.5686.5565-1.1072.925-1.6053.287-.4146.5847-.808.8824-1.212l2.0306 1.1907v-3.6891c.9037-1.0525 1.7755-2.0944 2.5622-3.2001z" fill="#a92819"/><path d="m58.0467 92.6963c1.0631.8718 2.2113 1.7542 3.2958 2.6366-.4407.0433-.8777.118-1.3077.2233-.3934-.3402-.7655-.6911-1.127-1.0632-.4631-.5173-.8827-1.072-1.2545-1.6585z" fill="#a92819"/><path d="m61.1529 75.5479v3.6891l-2.0306-1.1907c.6592-.8612 1.3502-1.6798 2.0306-2.4984z" fill="#a92819"/><path d="m60.59 92.1222h-.1169c-.8229.1117-1.6341.2967-2.424.5528l-.8399-.6591c-.3729-.7131-.6653-1.4655-.8718-2.2433.7791-.311 1.5828-.5564 2.4027-.7335l.1489.1063c.3514 1.1008.931 2.1152 1.701 2.9768z" fill="#a92819"/><path d="m59.6735 190.953h-2.5197v9.047h2.5197z" fill="#a92819"/><path d="m59.6735 189.687h-2.5197v1.255h2.5197z" fill="#a92819"/><path d="m58.91 94.5038c.3614.3615.7335.7123 1.1269 1.0631-.6702.1544-1.3224.3789-1.9456.6698-1.117.5291-2.1519 1.2166-3.0725 2.0413-1.1375 1.0631-2.4665 2.392-3.1894 3.189-.3103.396-.6672.753-1.0632 1.064-.2476.108-.5166.159-.7867.148-.4891.064-1.329.117-2.424.298-.7176.122-1.4275.286-2.1263.489.6214-1.04 1.1175-2.15 1.4778-3.306.044-.129.0795-.2603.1063-.3936.7442-.1382 1.499-.2339 2.307-.3083 1.9988-2.0413 4.4015-5.1031 8.3989-6.5597.3538.5658.752 1.1027 1.1908 1.6054z" fill="#f4f4f4"/><path d="m57.3252 80.8633c.7761.4359 1.5628.893 2.3389 1.3608-1.1264 2.0859-1.419 4.5215-.8186 6.8148h-.1063c-.9143-.7017-1.8393-1.3927-2.7748-2.0306.0057-2.1224.4699-4.2186 1.3608-6.145z" fill="#a92819"/><path d="m58.8444 89.0391c-.0032.0462-.0032.0926 0 .1389l-.1069-.1389z" fill="#a92819"/><path d="m58.0479 92.6963-.3934.1488c-.1594-.2658-.3189-.5422-.4465-.808z" fill="#a92819"/><path d="m57.2101 92.0375c.1276.2658.287.5422.4465.808-3.9974 1.4566-6.3789 4.5184-8.3989 6.5597-.808.0744-1.5628.1701-2.307.3083 0-.0744 0-.1489.0531-.2126.166-1.0567.166-2.1328 0-3.1895h.6167c2.0936-2.3994 4.5995-4.405 7.3995-5.9218.7017.5316 1.4459 1.0845 2.1901 1.6479z" fill="#a92819"/><path d="m55.1568 158.08c.2608-.264.6157-.413.9865-.415.3709-.002.7273.144.991.404.2636.261.4128.616.4148.987s-.1434.727-.4042.991l-5.3158 5.316v3.689c.0169.192-.0064.386-.0685.569s-.1615.351-.292.493c-.1304.143-.2891.256-.4659.334s-.3678.118-.561.118c-.1931 0-.3841-.04-.5609-.118s-.3355-.191-.466-.334c-.1304-.142-.2299-.31-.2919-.493-.0621-.183-.0854-.377-.0686-.569v-3.658l-5.5496-5.22c-.1441-.136-.2576-.301-.3327-.484-.0752-.183-.1104-.381-.1032-.579.0023-.27.083-.533.2322-.758s.3606-.401.6083-.508c.2478-.107.5213-.14.7873-.095.266.046.5131.168.7111.351l3.6466 3.424v-3.838l-3.6679-3.796c-.2379-.258-.3706-.595-.3721-.946-.0023-.19.0354-.377.1105-.551s.186-.331.3254-.459c.2694-.251.6264-.386.9943-.376s.7172.164.9726.429l1.5841 1.691v-6.316c-.0169-.192.0065-.386.0685-.569.0621-.183.1615-.351.292-.493s.2891-.256.4659-.334.3678-.118.561-.118c.1931 0 .3842.04.5609.118.1768.078.3355.192.466.334.1304.142.2299.31.2919.493.0621.183.0855.377.0686.569v6.528l1.4778-1.488c.2651-.239.6116-.366.9681-.357.3564.01.6956.156.9477.408.2522.252.398.591.4075.947.0094.357-.1181.703-.3565.969l-3.3915 3.412v3.679z" fill="#179e6c"/><path d="m58.7392 89.0389c-.8193.1702-1.623.4085-2.4027.7123-.2298-.8968-.3547-1.8173-.3721-2.7429.9355.6804 1.8605 1.3715 2.7748 2.0306z" fill="#a92819"/><path d="m56.3348 89.7935c.2066.7777.499 1.5301.8718 2.2432-.7442-.5635-1.4884-1.0631-2.2432-1.6479.4465-.222.9043-.4207 1.3714-.5953z" fill="#a92819"/><path d="m53.1571 190.953h-2.5196v9.047h2.5196z" fill="#a92819"/><path d="m53.1571 189.687h-2.5196v1.255h2.5196z" fill="#a92819"/><path d="m47.0133 96.3218c.1659 1.0567.1659 2.1328 0 3.1894 0 .0638-.0001.1382-.0532.2127-1.3188.2257-2.6167.5601-3.8805.9991.2581-.523.4715-1.0672.6379-1.6264l.085-.3296c.085-.6172.085-1.2432 0-1.8605 1.0549-.2715 2.1279-.4669 3.2108-.5847z" fill="#a92819"/><path d="m46.6388 190.953h-2.5197v9.047h2.5197z" fill="#a92819"/><path d="m46.6388 189.687h-2.5197v1.255h2.5197z" fill="#a92819"/><path d="m43.07 100.733c-.2322.472-.5024.923-.808 1.351-.5322.875-1.2037 1.658-1.9881 2.317-1.8611 1.491-4.0458 2.526-6.3789 3.02 2.3115-3.106 5.5106-5.438 9.175-6.688z" fill="#f4f4f4"/><path d="m42.4074 106.985c-1.9558 1.572-4.2086 2.732-6.6235 3.413.202-.351.4359-.681.6698-1.063.9806-1.259 2.1413-2.366 3.4446-3.285 1.2126-.878 2.5351-1.593 3.9337-2.127.5014-.186 1.0125-.346 1.5309-.478-.085.163-.1807.322-.287.478-.7298 1.15-1.6295 2.182-2.6685 3.062z" fill="#a92819"/><path d="m41.016 65.0542c.0831.4181.0387.8515-.1275 1.2439-.1615.39-.4354.7231-.7868.9569-.4127.2787-.9102.4037-1.4056.3531-.4954-.0505-.9574-.2733-1.3054-.6296-.199-.1978-.3569-.433-.4645-.6921-.1077-.2591-.163-.537-.1628-.8175-.0009-.4241.125-.8388.3615-1.1908.2351-.3528.5674-.6297.9568-.7973.3943-.1659.8295-.2089 1.2487-.1236.4192.0854.8028.2952 1.1009.602.296.3013.4989.6815.5847 1.095z" fill="#a92819"/><path d="m40.1129 190.953h-2.5196v9.047h2.5196z" fill="#a92819"/><path d="m40.1129 189.687h-2.5196v1.255h2.5196z" fill="#a92819"/><path d="m37.5611 160.047-5.3158 5.316v3.689c.0169.192-.0064.386-.0685.569s-.1615.351-.292.493c-.1304.143-.2891.256-.4659.334s-.3678.118-.561.118c-.1931 0-.3841-.04-.5609-.118s-.3355-.191-.466-.334c-.1304-.142-.2299-.31-.2919-.493-.0621-.183-.0854-.377-.0686-.569v-3.658l-5.539-5.22c-.1464-.134-.2613-.299-.3367-.482-.0753-.184-.1092-.382-.0992-.581.0014-.351.1342-.688.3721-.946.1243-.134.2741-.243.4406-.319s.3465-.118.5295-.124.3653.024.5364.09c.1711.065.3276.163.4603.289l3.636 3.424v-3.838l-3.636-3.796c-.2487-.269-.3816-.625-.3696-.991.0119-.366.1677-.713.4334-.965.2676-.25.6229-.385.989-.375.3662.01.7137.164.9672.428l1.5841 1.691v-6.316c-.0168-.192.0065-.386.0686-.569.062-.183.1615-.351.292-.493.1304-.142.2891-.256.4659-.334s.3678-.118.5609-.118c.1932 0 .3842.04.561.118s.3355.192.4659.334c.1305.142.2299.31.292.493s.0854.377.0686.569v6.528l1.4884-1.488c.2619-.255.6128-.397.9781-.397.3652 0 .7161.142.9781.397.2603.261.4065.614.4065.983s-.1462.723-.4065.984l-3.4446 3.444v3.679l3.3808-3.381c.2651-.238.6116-.366.9681-.357.3564.01.6956.156.9477.408.2522.252.398.591.4075.948.0095.356-.1181.703-.3565.968z" fill="#179e6c"/><path d="m37.5738 99.5433c-.2127.1275-.4253.2551-.6379.404-1.406.9337-2.7008 2.0257-3.8593 3.2537-1.3227.237-2.6803.197-3.9868-.117-2.1447-.384-4.1112-1.442-5.6134-3.02-1.2695-1.6928-2.0094-3.7237-2.1263-5.8365-.1158-2.3518.4253-4.6894 1.5628-6.751 1.0966-2.0403 2.6195-3.8206 4.4652-5.2201 1.9041-1.489 4.1955-2.4004 6.6022-2.626 7.8248-.9036 15.1924 2.626 22.0285 7.4421.0175.9256.1423 1.8461.3721 2.7429-.4671.1746-.9249.3734-1.3715.5954-6.5809-4.7204-13.5764-8.2501-20.6995-7.4421h-.1276c-1.7858.1799-3.481.8742-4.8799 1.9988-1.4684 1.0828-2.6837 2.4723-3.5615 4.0718-.858 1.5209-1.2707 3.2525-1.1907 4.9968.0964 1.4807.6332 2.8987 1.5415 4.0719 1.0257.9835 2.328 1.6291 3.7317 1.8499.6553.1491 1.327.2131 1.9987.1911-1.1904-1.054-2.0753-2.409-2.5622-3.9228-.1912-.8864-.1912-1.8033 0-2.6897.3316-1.4496 1.1312-2.7498 2.2752-3.6998 1.1376-.9543 2.4919-1.6151 3.9443-1.9243 1.4012-.3038 2.8513-.3038 4.2526 0l.5634.1382c2.2767.8318 4.1934 2.4291 5.4221 4.5184.689 1.1507 1.1442 2.426 1.3396 3.7529-1.0755.1154-2.1413.3072-3.1895.5741-.1173-.9906-.463-1.9405-1.01-2.7748-.7946-1.3802-2.0585-2.429-3.5615-2.9556l-.3828-.085c-.9246-.2022-1.882-.2022-2.8067 0-.9178.1714-1.7794.5657-2.509 1.1482-.6018.4798-1.0279 1.1451-1.212 1.8924-.0957.4342-.0957.8841 0 1.3183.305.8361.8347 1.5719 1.5309 2.1263.5997.4947 1.3491.7719 2.1263.7867.2129.0027.423.0498.6167.1383.1982.082.3776.2035.5275.357s.267.3359.3442.536c.0284.0483.0431.1034.0426.1595z" fill="#0f7657"/><path d="m36.9433 99.947c.2126-.1489.4253-.2765.6379-.404.06.1706.0888.3507.0851.532-.0028.226-.0498.45-.1383.659-.0973.205-.2388.387-.4146.531-.2943.259-.6031.5-.9249.723-.3404.219-.6957.415-1.0632.585-.6844.284-1.3972.494-2.1263.627 1.185-1.233 2.5086-2.324 3.9443-3.253z" fill="#a92819"/><path d="m91.3683 152.828c-.0957.085-.2233.085-1.2439.106l-3.8911.085c-.3958.043-.795.043-1.1908 0-.0709-.008-.1377-.038-.1913-.085-.0161-.033-.0244-.069-.0244-.106s.0083-.073.0244-.106v-.394c0-.202 0-.425 0-.638.0176-.225.0496-.448.0956-.669.0158-.063.0158-.129 0-.192-.0103-.064-.04-.123-.085-.17-.1822-.061-.3717-.096-.5635-.106h-1.701c-.4713-.015-.9407-.069-1.4034-.16-.2887-.071-.5648-.185-.8186-.34-.2833-.189-.5376-.418-.7548-.68-.2658-.298-.5423-.67-.8399-1.063-.2888-.365-.6208-.694-.9888-.979-.4579-.381-.9371-.736-1.4352-1.063-.7017-.436-1.7011-1.063-2.5728-1.605-.8718-.542-1.6373-.936-2.4985-1.414-.8611-.479-1.8924-.978-2.8173-1.393-.9249-.414-1.8286-.818-2.5835-1.18-.6757-.332-1.3229-.72-1.9349-1.159-.5766-.41-1.1076-.88-1.5841-1.403-.3429-.414-.593-.896-.7336-1.414-.1128-.412-.163-.838-.1488-1.265-.0004-.404.0867-.803.2551-1.17.2626-.437.5728-.843.925-1.212.3847-.444.7399-.913 1.0631-1.403.1807-.327.286-.69.3084-1.063 0-.415.1275-1.063.1913-1.691.0532-.608.0532-1.22 0-1.828 0-.436-.1807-.564-.3615-.649-.3619-.134-.7168-.286-1.0631-.457-.9628-.447-1.8999-.947-2.8067-1.499-.9477-.597-1.8407-1.276-2.6685-2.031-.8506-.765-1.7755-1.626-2.626-2.53-.7902-.844-1.5019-1.759-2.1263-2.732-.5317-.888-.9699-1.829-1.3077-2.807-.3022-.848-.4986-1.73-.5847-2.626-.0532-.935-.0532-1.872 0-2.807 0-.882.0638-1.637 0-2.126s-.0851-.627-.2127-.712c-.1275-.085-.3083-.128-.6804 0-.5227.102-1.0231.296-1.4778.574-.6763.403-1.2831.913-1.7967 1.51-.6581.738-1.1801 1.588-1.5416 2.509-.4571 1.116-.8611 2.583-1.2545 3.944-.3478 1.313-.7702 2.605-1.2651 3.87-.4869 1.241-1.1034 2.428-1.8393 3.54-.8369 1.251-1.7795 2.429-2.8173 3.519-1.1163 1.18-2.4346 2.371-3.1895 3.03-.2977.287-.6166.553-.9356.808-.1063 0-.1701.106-.3189-1.637h-.0638c-.2248-2.627-.2958-5.264-.2126-7.899.0751-2.122.4767-4.22 1.1907-6.22.3694-1.155.8763-2.261 1.5097-3.296 2.4149-.68 4.6677-1.841 6.6234-3.412 1.0387-.863 1.9419-1.878 2.6792-3.009.1063-.163.202-.323.287-.478.6988-.204 1.4088-.367 2.1263-.49 1.0632-.18 1.935-.233 2.424-.297.2701.01.5391-.041.7867-.149.396-.31.7529-.667 1.0632-1.063.7548-.776 2.1263-2.1265 3.1894-3.1897.9265-.8302 1.9686-1.5213 3.0938-2.0518.6232-.291 1.2753-.5155 1.9456-.6698 1.5688 1.3186 3.3525 2.3578 5.2732 3.0725 5.4221 4.6038 10.4827 8.7918 15.0755 10.4508 2.4501.906 5.0242 1.433 7.6334 1.563 1.8734-.211 3.7238-.592 5.5284-1.138.1645.215.3171.439.4572.67.2658.797 2.7323 4.593 5.7516 5.007 1.797.436 5.454.585 8.803-3.338 1.221-.403 2.344-1.059 3.296-1.924 2.87 1.935 6.496 4.348 11.29 7.251l-1.307.595c-1.016.524-2.059.992-3.126 1.403-.971.42-1.978.751-3.009.989-.781.149-1.578.192-2.371.128-.755.004-1.504-.144-2.2-.436-.454-.259-.793-.681-.946-1.18-.128-.383-.171-.617-.319-.617-.149 0-.394.266-1 .648-.85.533-1.76.965-2.711 1.287-1.331.434-2.708.712-4.104.829-1.982.191-3.9731.266-5.9639.223-2.2645 0-4.731-.17-7.155-.393s-4.816-.574-6.836-.882c-2.02-.309-3.7211-.617-4.6354-.766l-1.1375-.17h-.2552s-.1063 0-.1276.085c-.0055.078-.0055.156 0 .234.0987.259.1769.526.2339.797.138.624.2338 1.256.2871 1.893.1169.96.1169 1.931 0 2.892-.1698 1.38-.447 2.745-.8293 4.082-.4036 1.306-.8828 2.588-1.4352 3.838-.4572 1.063-.8506 1.871-1.0632 2.392-.1829.334-.3188.692-.404 1.063-.0385.354-.0385.71 0 1.063.0323.481.1474.952.3402 1.393.2395.627.5651 1.217.9675 1.754.7132.918 1.6023 1.684 2.6153 2.254.5108.293 1.0399.552 1.5841.776.5012.201 1.0212.35 1.5522.447l1.4034.244c.4078.072.8095.175 1.2014.309.3683.117.7244.27 1.0631.457.3194.184.6282.387.9249.606l.8931.691c.3072.247.6017.51.8824.787.3134.285.6115.587.8931.903.287.341.5528.681.7229.904s.3189.383.3189.383c.0703.071.1584.123.2552.149h.5209c.1993.011.3943.062.5741.148.2586.137.4922.317.6911.532.2692.316.5212.646.7548.989.2233.329.4147.648.5422.882.1017.183.1599.387.1701.595.0085.09-.0045.18-.0378.263-.0332.083-.0859.157-.1535.216z" fill="#a92819"/><path d="m33.5949 190.953h-2.5197v9.047h2.5197z" fill="#a92819"/><path d="m33.5949 189.687h-2.5197v1.255h2.5197z" fill="#a92819"/><path d="m0 50.0215c32.1178-20.4444 65.1924-2.743 66.5852-1.9775 3.923 2.1263 3.923 3.03 3.923 3.5509h-2.5197c-.0006.1633.0396.3241.117.4678-1.7861-2.0412-35.084-20.0617-66.7553.0851z" fill="#4c8bca"/><path d="m35.7842 110.398c-1.2824.37-2.6015.598-3.9336.68.1595-.404.3615-.797.5528-1.191h-.0638c.4466-.87.9583-1.705 1.531-2.498 2.333-.494 4.5178-1.528 6.3789-3.019.7892-.648 1.4679-1.42 2.0093-2.286.3056-.428.5758-.879.808-1.35 1.2619-.461 2.5599-.8171 3.8805-1.0636-.0268.1333-.0623.2647-.1063.3936-.3603 1.156-.8563 2.266-1.4778 3.306-.5184.132-1.0295.292-1.5309.479-1.3986.533-2.7211 1.248-3.9337 2.126-1.3102.949-2.4712 2.088-3.4446 3.381-.2339.361-.4678.691-.6698 1.042z" fill="#f4f4f4"/><path d="m33.8726 107.421c-1.1933.263-2.4146.377-3.636.34-.1699.011-.3403.011-.5103 0 .9199-1.649 2.0452-3.174 3.3489-4.54.7291-.132 1.4419-.343 2.1264-.627.3674-.17.7227-.365 1.0631-.585.3218-.223.6307-.464.9249-.722.1758-.145.3174-.326.4147-.532.0884-.209.1354-.433.1382-.659.0037-.181-.0251-.3611-.0851-.5318 1.9334-1.2022 4.0425-2.0954 6.2514-2.6472.0849.6173.0849 1.2432 0 1.8605l-.0851.3296c-.1664.5592-.3798 1.1029-.6379 1.6269-3.7149 1.225-6.9652 3.558-9.3132 6.687z" fill="#a92819"/><path d="m32.3409 109.919h.0638c-.1914.394-.3934.787-.5529 1.191-.5422 0-1.0631 0-1.616 0-.5528 0-1.2864 0-1.9243-.095.3162-.907.6927-1.791 1.127-2.648l.3295-.638c.17.011.3404.011.5104 0 1.2213.037 2.4426-.077 3.6359-.34-.5886.802-1.1147 1.648-1.5734 2.53z" fill="#a92819"/><path d="m20.7089 23.2937c4.3908-3.9762 6.2407-10.3764 5.5178-19.01979l2.509-.21263c.7655 9.49392-1.3608 16.57452-6.3364 21.10352-4.9755 4.5291-11.684 5.4008-16.2024 5.4008-1.67674.0078-3.35136-.1202-5.00745-.3827l.45716-2.4771c.11694.0425 11.90729 2.105 19.06229-4.4121z" fill="#2a3277"/><path d="m27.069 190.953h-2.5197v9.047h2.5197z" fill="#a92819"/><path d="m27.069 189.687h-2.5197v1.255h2.5197z" fill="#a92819"/><path d="m20.5602 190.953h-2.5197v9.047h2.5197z" fill="#a92819"/><path d="m20.5602 189.687h-2.5197v1.255h2.5197z" fill="#a92819"/><path d="m19.0637 130.619h-18.084208v2.52h18.084208z" fill="#a92819"/><path d="m19.0403 136.774h-18.084245v2.52h18.084245z" fill="#2a3277"/><path d="m18.8169 123.422h-18.084234v2.52h18.084234z" fill="#2a3277"/><path d="m14.0242 157.74c.2608-.26.614-.405.9819-.404.3678.001.7202.148.9796.409s.4046.614.4036.982-.1481.72-.4089.98l-5.3157 5.315v3.753c-.0305.347-.1898.67-.4466.906-.25685.235-.59253.365-.94086.365s-.68402-.13-.94085-.365c-.25683-.236-.41616-.559-.44656-.906v-3.668l-5.53902-5.209c-.14302-.137-.25572-.302-.33081-.485s-.11089-.38-.10509-.578c-.00399-.352.12952-.691.37211-.946.25253-.269.60147-.427.97022-.439s.72718.123.99661.375l3.63598 3.423v-3.838l-3.60409-3.827c-.24616-.258-.38328-.601-.38273-.957.00769-.381.16416-.743.43589-1.01.26107-.26.61472-.406.98341-.406.3687 0 .72235.146.98342.406l1.5841 1.69v-6.315c-.01686-.192.00648-.386.06855-.569.06206-.183.16149-.351.29197-.493s.28915-.256.46593-.334.36782-.118.56096-.118.38417.04.56096.118c.1768.078.3355.192.4659.334.1305.142.2299.31.292.493s.0854.377.0686.569v6.464l1.4884-1.477c.1266-.131.2788-.235.4471-.304.1682-.07.349-.104.531-.1.2736-.001.5411.08.7687.232.2275.152.4049.368.5097.621.1047.252.1321.53.0786.799-.0534.268-.1853.514-.3789.708l-3.4446 3.444v3.689z" fill="#179e6c"/><path d="m14.0343 190.953h-2.5197v9.047h2.5197z" fill="#a92819"/><path d="m14.0343 189.687h-2.5197v1.255h2.5197z" fill="#a92819"/><path d="m10.2267 73.9637c-.1936-.1069-.36069-.2558-.48904-.4359-.1319-.1774-.22598-.3801-.27642-.5953-.0424-.2141-.0424-.4345 0-.6486.03475-.2194.11437-.4293.2339-.6166 1.82526-3.2126 4.29116-6.016 7.24476-8.2362 2.9535-2.2202 6.3318-3.8099 9.9251-4.6704 6.6554-1.6479 14.8842-1.2439 24.8353 2.3176l.202.0851c4.7133 2.4594 9.3415 5.057 13.8847 7.7929-.691 1.0631-1.3821 2.1263-2.1263 3.3914-.7442 1.2652-1.6585 2.1263-2.5303 3.1895v-5.5497l-3.1044-1.7861v9.2069l1.0632.6379c-.2977.404-.5954.7974-.8825 1.212-.3647.4987-.6715 1.0373-.9143 1.6054-3.9549-2.261-7.9984-4.3554-12.1305-6.2832-2.8087-1.023-5.7714-1.5587-8.7604-1.5841-4.7843-.0227-9.4537 1.4655-13.3425 4.2526-3.4945 2.4537-6.1692 5.9027-7.676 9.8979-.6171 1.7279-.9475 3.545-.9781 5.3795-.0623 3.5575 1.1437 7.021 3.4021 9.7707 1.5226 1.775 3.4421 3.166 5.6028 4.061 2.0209.856 4.1848 1.325 6.3789 1.382l-.3296.638c-.4343.856-.8108 1.741-1.1269 2.647-2.1614-.214-4.277-.759-6.2726-1.616-3.3297-1.369-6.1574-3.73-8.0993-6.762-1.9419-3.0314-2.9039-6.5872-2.7555-10.1844.0072-2.2256.3955-4.4334 1.1482-6.5278.5284-1.4324 1.1942-2.8103 1.9881-4.1144v-11.3119c-.6726.8974-1.2904 1.8347-1.8499 2.8067-.1036.1925-.2404.3653-.404.5103-.1749.1406-.3779.2421-.5953.2977-.2106.0424-.4274.0424-.6379 0-.2184-.0058-.4327-.0603-.6273-.1595zm44.5142 1.6479v-9.2281l-3.0406-1.6267v9.2813c1.0312.521 2.0412 1.0526 3.0406 1.5735zm-6.3789-3.1894v-9.0156c-5.9341-2.0816-12.2732-2.7443-18.5095-1.9349v9.0368c2.1424-.5312 4.3417-.799 6.549-.7974 3.3822.0288 6.7341.6402 9.9086 1.8074h.202c.6272.2764 1.2758.5741 1.903.8824zm-21.7309-.8612v-9.3557c-1.009.2843-1.9966.6395-2.9555 1.0631v9.696c.9535-.5317 1.9408-1.0005 2.9555-1.4034zm-6.1981 3.5722v-10.1212c-.9928.6299-1.9316 1.3411-2.8068 2.1263v10.5358c.87-.9168 1.8082-1.7662 2.8068-2.5409z" fill="#0f7657"/><path d="m9.62134 14.8945c1.25656 0 2.27516-1.0186 2.27516-2.2751s-1.0186-2.2752-2.27516-2.2752c-1.25653 0-2.27515 1.0187-2.27515 2.2752s1.01862 2.2751 2.27515 2.2751z" fill="#2a3277"/><path d="m7.51625 190.953h-2.51967v9.047h2.51967z" fill="#a92819"/><path d="m7.51625 189.687h-2.51967v1.255h2.51967z" fill="#a92819"/><path d="m1.10596 188.433h178.72604v2.519h-3.933v-1.254h-2.52v1.254h-4.008v-1.254h-2.509v1.254h-4.008v-1.254h-2.509v1.254h-4.008v-1.254h-2.52v1.254h-3.997v-1.254h-2.52v1.254h-4.008v-1.254h-2.509v1.254h-4.008v-1.254h-2.509v1.254h-4.008v-1.254h-2.52v1.254h-3.998v-1.254h-2.519v1.254h-3.424v-1.254h-2.509v1.254h-3.997v-1.254h-2.52v1.254h-4.008v-1.254h-2.519v1.254h-3.9979v-1.254h-2.5197v1.254h-4.008v-1.254h-2.5091v1.254h-3.9974v-1.254h-2.5197v1.254h-4.0081v-1.254h-2.5196v1.254h-3.9975v-1.254h-2.5197v1.254h-4.008v-1.254h-2.5091v1.254h-3.4552v-1.254h-2.5197v1.254h-4.0081v-1.254h-2.509v1.254h-4.0081v-1.254h-2.509v1.254h-4.0081v-1.254h-2.5197v1.254h-3.9974v-1.254h-2.5197v1.254h-4.0081v-1.254h-2.5197v1.254h-3.9974v-1.254h-2.509v1.254h-4.0081v-1.254h-2.5197v1.254h-3.99744v-1.254h-2.51967v1.254h-3.89113z" fill="#a92819"/><path d="m9.62145 22.0605c-1.86767 0-3.69337-.5539-5.24613-1.5918-1.55275-1.0378-2.7628-2.5129-3.477033-4.2386-.714237-1.7257-.90057462-3.6245-.535437-5.4561.365137-1.8316 1.26534-3.51377 2.58672-4.83366s3.00456-2.2182 4.8366-2.58127c1.83203-.36308 3.73063-.1746 5.45553.54158 1.7248.71618 3.1986 1.92789 4.2346 3.48181 1.0361 1.55393 1.588 3.38024 1.5859 5.24794-.0028 2.502-.9987 4.9006-2.7689 6.6687-1.7702 1.7682-4.1698 2.7614-6.67185 2.7614zm0-16.35124c-1.36887 0-2.707.40592-3.84517 1.16642s-2.02527 1.84143-2.54911 3.1061c-.52384 1.26462-.6609 2.65632-.39385 3.99882.26705 1.3426.92622 2.5758 1.89416 3.5437.96793.968 2.20116 1.6272 3.54372 1.8942 1.34257.2671 2.7342.13 3.9988-.3938 1.2647-.5239 2.3456-1.411 3.1061-2.5492.7605-1.1381 1.1665-2.4763 1.1665-3.8451 0-1.8366-.7289-3.59811-2.0265-4.89775-1.2977-1.29965-3.0581-2.0312-4.89465-2.03402z" fill="#179e6c"/></svg>