<svg fill="none" height="200" viewBox="0 0 185 200" width="185" xmlns="http://www.w3.org/2000/svg"><path d="m184.078 194.958h-15.502v3.395h15.502z" fill="#179e6c"/><path d="m184.078 184.142h-15.502v3.395h15.502z" fill="#a92819"/><path d="m184.078 172.829h-15.502v3.395h15.502z" fill="#179e6c"/><path d="m183.062 124.097c.274 1.576 2.48 16.02-6.476 25.027l-2.409-2.389c8.01-8.061 5.55-21.998 5.53-22.14v-.254c0-.102-.539-10.389-12.198-19.792l2.134-2.632c12.3 9.941 13.337 20.767 13.419 22.18z" fill="#4c8bca"/><path d="m181.353 23.0952h-15.716v2.5515h15.716z" fill="#179e6c"/><path d="m181.253 12.7878h-15.705v2.5413h15.705z" fill="#a92819"/><path d="m181.253 1.46387h-15.705v2.55146h15.705z" fill="#179e6c"/><path d="m175.488 62.1299c9.901 18.6226-6.353 35.4053-6.516 35.5781l-2.419-2.4091c.599-.6099 14.658-15.1868 5.936-31.5832z" fill="#4c8bca"/><path d="m167.847 37.123c1.89 0 3.738.5607 5.309 1.6111 1.572 1.0504 2.797 2.5433 3.519 4.2899.723 1.7466.912 3.6684.542 5.5222-.369 1.8538-1.28 3.5564-2.617 4.8923-1.338 1.3359-3.041 2.2452-4.896 2.6127-1.854.3676-3.775.1769-5.521-.5479s-3.238-1.9511-4.286-3.5237c-1.049-1.5727-1.608-3.4212-1.606-5.3114.006-2.5317 1.014-4.9579 2.805-6.7471 1.792-1.7892 4.219-2.7954 6.751-2.7981zm7.003 9.5452c0-1.3853-.41-2.7394-1.18-3.8912-.77-1.1517-1.863-2.0494-3.143-2.5795s-2.688-.6688-4.047-.3986c-1.358.2703-2.606.9373-3.586 1.9168-.979.9795-1.646 2.2275-1.917 3.5861-.27 1.3586-.131 2.7668.399 4.0466s1.428 2.3736 2.579 3.1432c1.152.7696 2.506 1.1804 3.892 1.1804 1.856-.0027 3.636-.7415 4.949-2.0544s2.052-3.0927 2.054-4.9494z" fill="#4c8bca"/><path d="m167.845 44.3711c.457-.002.905.1319 1.286.3847.381.2527.678.613.854 1.0351.176.422.223.8868.134 1.3354-.089.4485-.309.8606-.632 1.1839-.323.3234-.735.5433-1.184.632-.449.0888-.913.0422-1.335-.1337s-.783-.4732-1.035-.8543c-.253-.381-.387-.8285-.385-1.2858 0-.6092.242-1.1936.673-1.6244s1.015-.6729 1.624-.6729z" fill="#2a3277"/><path d="m150.278 93.7438c5.032 8.5592 17.789 25.9412 17.078 40.7422.091 4.971-.915 12.005-6.374 15.98-2.728 1.747-5.909 2.655-9.149 2.612-4.303-.052-8.501-1.336-12.096-3.7-5.083-3.236-9.848-6.946-14.232-11.08-1.423 1.625-3.022 3.088-4.767 4.361-2.991 2.146-6.103 4.118-9.322 5.906-.639-1.019-1.363-1.981-2.165-2.877 3.466-1.948 6.819-4.09 10.043-6.414 2.393-1.774 4.347-4.073 5.713-6.72 4.741 5.166 10.145 9.681 16.071 13.429 4.636 2.937 10.095 4.92 16.682 2.216 5.275-2.694 6.099-8.946 5.967-14.587.304-13.876-12.565-30.709-17.474-39.7564 3.547-6.8615 3.832-12.7268-.895-16.6913-1.789-1.6874-9.85-5.174-15.715 1.8806-3.985 5.479-1.017 14.9123.233 16.2643-3.303.2574-6.588.7054-9.839 1.3418h-8.621l-13.072 1.5654c-1.4916-1.2877-3.3966-1.9962-5.3672-1.9962s-3.8755.7085-5.3672 1.9962c-5.0826-.3151-10.8463-1.5654-13.5502-1.6061-2.7039-.0406-4.8183.3863-6.2821.244-.5489 0-8.1321-1.3926-11.7306-1.5756.692-1.1204 1.1967-2.3461 1.4943-3.629.7115-2.4701 1.1181-7.2477.2948-9.6671-.5937-1.8068-1.7076-3.3981-3.2021-4.5743-1.2722-1.0514-2.7615-1.8082-4.3608-2.2159-1.5994-.4078-3.2691-.4564-4.8895-.1424-1.4201.2062-2.7795.7149-3.986 1.4918-1.2066.7769-2.2322 1.8038-3.0076 3.0114-1.6163 2.5514-2.6023 6.9834 1.3011 14.3024-.6709 1.4231-3.6391 5.9263-7.0445 11.7404-5.0012 8.549-10.7242 18.074-10.5006 29.815.1931 11.253 5.9771 14.333 12.798 14.028 4.8386-.224 7.878-1.982 12.3303-5.083 3.5747-2.386 6.9289-5.087 10.0229-8.071 1.0165-1.016 2.2465-2.277 3.6086-3.72.9998 2.012 2.3807 3.81 4.0661 5.296 1.7399 1.499 3.5958 2.859 5.5502 4.066 2.0331 1.301 4.0661 2.46 5.7332 3.476-.8145.887-1.5556 1.839-2.216 2.846-1.7586-1.067-3.8933-2.277-6.4956-3.944-1.7859-1.115-3.4637-2.394-5.0114-3.822-.78-.669-1.4948-1.411-2.1347-2.216-1.5756 1.515-3.1919 3.05-4.371 3.975-2.8791 2.403-5.9113 4.617-9.0776 6.628-2.786 1.894-5.9251 3.208-9.2299 3.862-1.1427.15-2.2936.228-3.446.234-10.2364 0-15.5223-6.699-15.7053-17.453-.0609-11.538 5.4079-22.242 10.704-31.279 3.5883-6.0989 5.5502-9.0366 6.3837-10.5207-3.9339-8.3558-1.8602-13.6621-.1525-16.3253 1.7637-2.6639 4.4263-4.6049 7.502-5.4689 3.5347-1.0366 7.3219-.7918 10.6937.6912 2.2169 1.0464 4.1512 2.6079 5.6417 4.554 1.5244 2.0695 2.3952 4.5475 2.5006 7.1157.0907 2.6704-.1586 5.3416-.742 7.9491 2.338.3558 5.9568 1.0776 6.5464 1.0166 1.5451.2439 3.3647-.2542 6.1702-.2338 2.8056.0203 7.7561 1.0165 12.6964 1.5146 1.3237-.8698 2.817-1.4484 4.3812-1.6976v.0813h3.6289v-.1525c1.7223.2246 3.3741.825 4.8387 1.7586 4.5944-.5591 4.1674-.6201 8.7624-1.1792 5.906-.8132 7.725.1424 9.647-.0711 1.016 0 4.767-.8437 7.004-1.0877-.499-2.6328-2.481-11.3037 2.866-16.3558 8.132-8.1321 18.297-3.4053 20.239-1.2198 5.062 3.8933 6.14 11.8729 2.399 19.1411z" fill="#a92819"/><path d="m146.283 93.855c4.91 9.047 17.779 25.881 17.474 39.756.091 5.642-.692 11.893-5.967 14.587-6.587 2.704-12.046.722-16.681-2.216-5.926-3.747-11.33-8.263-16.071-13.428-1.367 2.647-3.321 4.945-5.713 6.719-3.225 2.325-6.578 4.466-10.044 6.414-.284-.335-.589-.65-.904-.965-.565-.567-1.162-1.1-1.789-1.596 1.392-.885 3.049-1.85 4.706-2.857 2.543-1.481 4.951-3.182 7.197-5.082 1.461-1.271 2.635-2.837 3.446-4.595.712-1.494 1.21-2.999 1.616-3.67.407-.671.712-.498 2.135 1.017s3.975 4.371 6.607 6.8c2.503 2.264 5.155 4.356 7.939 6.262 2.275 1.773 4.804 3.191 7.502 4.209 2.202.679 4.542.773 6.791.274.763-.12 1.493-.396 2.146-.811.652-.414 1.212-.958 1.645-1.598.877-1.472 1.441-3.109 1.657-4.808.264-1.999.298-4.022.102-6.028-.206-3.212-.891-6.374-2.033-9.383-1.864-4.564-4.069-8.981-6.597-13.214-2.552-4.443-5.083-8.499-6.557-10.9178-.829-1.2082-1.544-2.4912-2.135-3.8323-.231-.5468-.271-1.156-.111-1.7281.249-.6983.548-1.3777.894-2.033.401-.8516.758-1.7236 1.068-2.6125.314-.8513.535-1.734.66-2.6328.098-.8119.078-1.6337-.061-2.4396-.109-.7457-.376-1.4595-.782-2.0941-.487-.6946-1.097-1.2941-1.8-1.7687-.73-.5102-1.563-.8569-2.439-1.0165-1.122-.209-2.273-.209-3.396 0-1.115.2237-2.161.7117-3.049 1.4231-.907.6695-1.611 1.5773-2.033 2.6226-.41 1.2334-.552 2.5398-.417 3.8323.077 1.4323.284 2.8546.62 4.2491.228.953.602 1.8652 1.108 2.7039.251.4597.654.8187 1.139 1.0165.437.0904.885.1211 1.331.0915.185-.0222.372-.0027.548.0571s.336.1584.469.2885c.247.3626.398.7826.437 1.2198.092.4758.054.9677-.112 1.4232-.114.2474-.29.4614-.511.6216s-.479.2611-.749.2932c-1.081.1537-2.172.2318-3.263.2338-1.484.0712-3.385.2033-5.185.4168-1.799.2135-3.486.4981-5.082.7726-1.431.2958-2.882.4798-4.341.5488-1.433 0-2.897-.193-4.208-.264-1.271-.053-2.543.012-3.802.193-1.332.173-2.826.427-4.889.711-2.064.285-4.707.59-6.1605.682-1.4536.091-1.7077 0-1.8399-.092-.0898-.039-.1671-.103-.2236-.183-.162-.193-.3388-.373-.5286-.539-.0708-.069-.1492-.131-.2338-.183-.075-.076-.1606-.141-.2541-.193-.0433-.044-.0952-.078-.1525-.101-.0663-.055-.1378-.102-.2135-.143-.0491-.034-.1043-.058-.1626-.071-.0647-.046-.1369-.08-.2135-.102-.1483-.073-.3055-.1279-.4676-.1622-.0504-.0292-.1054-.0498-.1626-.061h-.2948-.0915-.1423-1.413-.1423-.0508c-.1118 0-.2236 0-.3354.061-.0573.0112-.1122.0318-.1627.061-.1621.0342-.3192.0892-.4676.1622-.0765.022-.1488.056-.2135.102-.0582.013-.1134.037-.1626.071-.0757.041-.1472.088-.2135.143-.0573.023-.1092.057-.1525.101-.0935.052-.179.117-.2541.193-.0845.052-.163.114-.2338.183-.1898.166-.3665.346-.5286.539-.0565.08-.1338.144-.2236.183-.1321.071-.3863.183-1.8399.092-1.4536-.092-4.0661-.397-6.1601-.682-2.094-.284-3.5578-.538-4.8895-.711-1.2552-.181-2.5245-.245-3.7916-.193-1.3214.071-2.7852.284-4.2084.264-1.4623-.069-2.917-.252-4.3507-.5489-1.5349-.2744-3.2325-.559-5.0317-.7725-1.7993-.2135-3.7002-.3456-5.1843-.4168-1.0917-.0025-2.182-.0806-3.263-.2338-.2702-.034-.5273-.1356-.7477-.2956-.2204-.1599-.3967-.3729-.5128-.6192-.1558-.4576-.1942-.9469-.1118-1.4232.0376-.4392.192-.8604.4473-1.2198.1254-.1254.277-.2215.444-.2812.167-.0598.3452-.0818.5217-.0644.4459.0304.894-.0004 1.3316-.0915.4851-.1978.8872-.5568 1.1385-1.0165.5067-.8387.8804-1.7509 1.108-2.704.3521-1.4054.5632-2.8424.6303-4.2897.1322-1.2918-.0062-2.597-.4067-3.8322-.443-1.0277-1.1518-1.9189-2.0533-2.582-.8906-.7074-1.9354-1.1949-3.0496-1.4231-1.122-.2093-2.2731-.2093-3.3952 0-.8777.1564-1.7105.5034-2.4396 1.0165-.7059.4743-1.3192 1.0737-1.8094 1.7687-.408.6329-.6717 1.3478-.7726 2.0941-.1419.8054-.1659 1.6273-.0711 2.4396.13.8978.3514 1.78.6607 2.6328.3151.8945.7014 1.8297 1.0674 2.6124.3466.6554.6455 1.3348.8945 2.0331.1579.5714.1222 1.1791-.1016 1.7281-.5965 1.3402-1.3145 2.623-2.1449 3.8322-1.474 2.4189-4.0051 6.4749-6.5565 10.9179-2.5279 4.232-4.7333 8.65-6.5973 13.214-1.1417 3.009-1.827 6.171-2.033 9.383-.1961 2.006-.162 4.029.1017 6.028.2396 1.682.8208 3.297 1.7077 4.747.4261.647.9808 1.199 1.6296 1.622.6488.424 1.3779.709 2.1417.838 2.2489.499 4.589.404 6.7903-.275 2.6989-1.02 5.228-2.442 7.502-4.218 2.7777-1.91 5.4233-4.006 7.9186-6.272 2.643-2.43 5.1843-5.286 6.6074-6.801 1.4231-1.514 1.7382-1.677 2.1347-1.016.3964.661.9047 2.175 1.6163 3.67.8141 1.756 1.9881 3.321 3.446 4.594 2.2482 1.898 4.6561 3.599 7.1969 5.083 1.5146.925 3.0496 1.799 4.3507 2.633-.7169.561-1.396 1.169-2.033 1.819-.2338.234-.4575.468-.6811.712-1.6773-1.017-3.7103-2.176-5.7332-3.477-1.9544-1.207-3.8103-2.566-5.5502-4.066-1.6854-1.485-3.0663-3.284-4.066-5.296-1.3622 1.444-2.5718 2.745-3.6087 3.721-3.0939 2.983-6.4482 5.684-10.0228 8.071-4.4524 3.11-7.4918 4.869-12.3304 5.082-6.8209.305-12.6048-2.775-12.798-14.028-.2236-11.74 5.4994-21.265 10.5006-29.814 3.4054-5.8147 6.3736-10.3179 7.0445-11.741-3.9034-7.3189-2.9174-11.7509-1.3011-14.3024.7754-1.2075 1.801-2.2344 3.0076-3.0113s2.5659-1.2857 3.986-1.4919c1.6159-.3223 3.2831-.2834 4.8822.1137 1.5992.3972 3.0908 1.1428 4.3682 2.1837 1.4869 1.179 2.5936 2.77 3.1817 4.5743.8233 2.4193.4167 7.1969-.2948 9.6671-.286 1.288-.7805 2.5207-1.4638 3.6493 3.5985.183 11.1817 1.6061 11.7306 1.5756 1.4638.1423 3.629-.2541 6.2821-.244 2.6531.0102 8.4574 1.291 13.5502 1.6061 1.4916-1.2877 3.3966-1.9962 5.3672-1.9962s3.8756.7085 5.3672 1.9962l13.0931-1.5857h8.62c3.251-.6398 6.536-1.0912 9.84-1.352-1.291-1.3215-4.219-10.7548-.234-16.2643 5.865-7.0547 13.926-3.568 15.715-1.8806 4.727 3.9746 4.442 9.8399.895 16.7014z" fill="#fff"/><path d="m159.114 59.7712c.904 1.1588 10.46 14.0788.426 34.399l-3.049-1.5044c9.342-18.9175 0-30.6989-.061-30.8209l-.122-.1525c-.396-.62-9.992-15.1156-27.517-5.4688l-1.637-2.9683c19.578-10.8157 31.014 5.1334 31.96 6.5159z" fill="#4c8bca"/><path d="m160.057 132.218c.197 2.007.163 4.03-.101 6.028-.207 1.705-.764 3.349-1.637 4.829-.426.647-.981 1.199-1.629 1.622-.649.424-1.378.709-2.142.838-2.249.499-4.589.404-6.79-.275-2.699-1.017-5.228-2.436-7.502-4.208-2.785-1.906-5.437-3.998-7.939-6.262-2.633-2.429-5.185-5.286-6.608-6.8-1.423-1.515-1.738-1.678-2.134-1.017-.397.661-.905 2.176-1.617 3.67-.81 1.758-1.985 3.324-3.446 4.595-2.246 1.9-4.654 3.601-7.197 5.082-1.657 1.017-3.313 1.972-4.706 2.857-1.584-1.288-3.339-2.348-5.215-3.152.124.065.263.093.402.081.139-.013.271-.066.381-.152.711-.467 1.728-2.033 3.232-3.903 1.505-1.871 3.528-4.066 5.418-6.099 1.891-2.033 3.66-3.904 5.358-5.988 1.697-2.084 3.303-4.391 4.543-5.631 1.241-1.24 2.094-1.403 3.05-1.2 1.196.354 2.349.841 3.436 1.454 1.362.661 2.968 1.403 5.428 2.795 2.46 1.393 5.764 3.426 7.959 4.869 2.196 1.444 3.304 2.257 3.975 2.664.671.406.915.417.966 0-.035-.939-.395-1.837-1.017-2.542-1.334-1.728-2.759-3.384-4.269-4.96-1.698-1.871-3.416-3.832-4.89-5.825-1.3-1.734-2.453-3.573-3.446-5.499-.721-1.484-.945-2.44-1.25-2.968-.305-.529-.701-.651-1.728-.753-1.027-.101-2.704-.162-4.31-.233-1.606-.072-3.182-.163-4.402-.275-1.123-.132-2.254-.186-3.385-.163-1.291.061-2.988.305-5.021.295s-4.422-.274-6.862-.508c-2.097-.265-4.209-.387-6.3226-.366-1.352.102-1.5553.518-1.6772.762-.0629.147-.1412.287-.2338.417-.0799.137-.1718.266-.2745.387-.2198.27-.4649.518-.7319.742-.3103.244-.6522.446-1.0165.599-.3251.141-.6666.24-1.0165.295.3142-.062.6208-.157.9148-.285.4092-.174.7869-.414 1.1182-.711.3024-.302.5623-.644.7726-1.017.2273-.352.402-.735.5184-1.138.1119-.438.1632-.89.1525-1.342.0062-.395-.0452-.789-.1525-1.169-.0909-.3-.2136-.59-.366-.864-.1055-.172-.2245-.335-.3557-.488l-.3457-.356-.2033-.183c.0846.052.163.114.2338.183.1898.166.3666.346.5286.539.0565.08.1338.144.2237.183.1321.071.3964.183 1.8399.092 1.4437-.092 4.0657-.397 6.1597-.682 2.094-.284 3.558-.538 4.89-.711 1.258-.181 2.531-.246 3.802-.193 1.311.071 2.775.284 4.208.264 1.459-.069 2.91-.253 4.341-.5488 1.545-.2745 3.232-.5591 5.082-.7726s3.7-.3456 5.184-.4168c1.092-.002 2.182-.0801 3.263-.2338.271-.0321.529-.133.75-.2932.22-.1601.396-.3742.511-.6216.165-.4555.204-.9474.112-1.4232-.04-.4372-.19-.8571-.437-1.2198-.133-.1301-.293-.2287-.469-.2885s-.363-.0793-.548-.0571c-.446.0296-.894-.0011-1.332-.0915-.485-.1978-.887-.5568-1.138-1.0165-.493-.8544-.85-1.7804-1.057-2.7446-.336-1.3944-.544-2.8167-.62-4.2491-.135-1.2925.007-2.5989.416-3.8322.423-1.0453 1.126-1.9531 2.033-2.6226.889-.7114 1.934-1.1995 3.05-1.4232 1.122-.209 2.273-.209 3.395 0 .877.1596 1.709.5063 2.44 1.0165.703.4746 1.313 1.0741 1.799 1.7688.407.6345.674 1.3483.783 2.094.138.806.159 1.6278.061 2.4397-.125.8987-.347 1.7814-.661 2.6327-.31.8889-.666 1.761-1.067 2.6125-.347.6553-.646 1.3348-.895 2.033-.159.5721-.12 1.1814.112 1.7281.591 1.3411 1.305 2.6241 2.135 3.8323 1.484 2.4195 4.005 6.4755 6.556 10.9175 2.528 4.233 4.733 8.65 6.597 13.215 1.138 2.995 1.823 6.144 2.033 9.341z" fill="#a92819"/><path d="m159.152 172.331h-3.395v26.073h3.395z" fill="#2a3277"/><path d="m133.261.274414 16.021 16.030486-16.021 16.0203-16.02-16.0203zm0 28.462486 12.422-12.4117-12.422-12.44214-12.422 12.42184z" fill="#179e6c"/><path d="m147.83 172.331h-3.395v26.317h3.395z" fill="#2a3277"/><path d="m144.588 126.354c.622.704.981 1.602 1.016 2.541-.05.417-.294.417-.965 0s-1.769-1.23-3.975-2.663c-2.206-1.434-5.499-3.477-7.959-4.87-2.46-1.392-4.066-2.134-5.428-2.795-1.087-.613-2.24-1.1-3.436-1.454-1.017-.203-1.83 0-3.05 1.2-1.22 1.199-2.856 3.548-4.544 5.631-1.687 2.084-3.466 3.965-5.357 5.988-1.89 2.023-3.903 4.208-5.418 6.099-1.514 1.891-2.521 3.436-3.232 3.903-.11.086-.242.139-.381.152-.139.012-.279-.016-.402-.081-.33-.242-.607-.55-.813-.904-.478-.661-1.0167-1.352-1.4131-2.033-.3999-.66-.6981-1.376-.8844-2.125-.0871-.666-.2473-1.321-.4778-1.952-.2948-.609-.8437-1.179-1.23-1.016-.3862.163-.6099 1.159-.7014 2.348-.0912 1.389.0011 2.783.2745 4.147-1.1835-.188-2.3798-.283-3.5782-.284-.9757-.003-1.9504.062-2.9174.193.2655-1.338.3543-2.705.2643-4.066-.0915-1.189-.3151-2.155-.7014-2.348-.3862-.193-.9352.366-1.2198 1.016-.2386.629-.4024 1.285-.4879 1.952-.1714.742-.4523 1.455-.8336 2.114-.3964.702-.9352 1.393-1.4028 2.033-.1219.173-.2338.336-.3557.478-.3558.132-.7218.285-1.0877.437l-.1525-.081c-.7116-.468-1.7179-2.033-3.2325-3.904-1.5146-1.87-3.5273-4.066-5.4181-6.099-1.8907-2.033-3.6594-3.903-5.357-5.987s-3.3037-4.391-4.5439-5.631c-1.2401-1.241-2.094-1.403-3.0495-1.2-1.196.363-2.3483.858-3.4358 1.474-1.352.661-2.9683 1.403-5.4283 2.795-2.4599 1.393-5.7534 3.416-7.9796 4.87-2.2262 1.453-3.3037 2.256-3.9746 2.663-.6709.406-.9047.417-.9555 0 .0281-.941.3882-1.841 1.0165-2.541 1.334-1.729 2.7592-3.384 4.2694-4.961 1.6975-1.87 3.4155-3.832 4.8894-5.825 1.3001-1.733 2.4528-3.573 3.446-5.499.7217-1.484.9454-2.44 1.2503-2.968.305-.529.7014-.651 1.7383-.753 1.0368-.101 2.6937-.162 4.31-.233s3.1716-.163 4.3914-.275c1.1232-.132 2.2543-.186 3.385-.162 1.291.061 2.9885.305 5.0826.294 2.094-.01 4.4117-.274 6.8615-.508 2.0934-.265 4.2025-.388 6.3126-.366 1.3519.102 1.5552.519 1.6772.763.0671.144.1453.284.2338.416.0799.137.1717.266.2745.387.2198.27.4649.518.7319.742.3093.246.6514.448 1.0165.599.2288.099.4673.174.7115.224.0978.038.2005.062.305.071h.1118.183c.1557.011.3119.011.4676 0 .1523.01.3051.01.4574 0h.183.1118c.3499-.055.6915-.154 1.0165-.295.3643-.153.7062-.355 1.0166-.599.2669-.224.512-.472.7319-.742.1027-.121.1945-.25.2744-.387.0926-.13.171-.27.2338-.416.122-.244.3253-.661 1.6773-.763 2.1132-.021 4.2262.101 6.3232.366 2.439.234 4.818.498 6.861.508 2.043.011 3.731-.233 5.022-.294 1.13-.024 2.261.03 3.385.162 1.219.112 2.785.193 4.401.275 1.616.081 3.273.142 4.31.233 1.037.092 1.423.214 1.728.753.305.538.529 1.484 1.251 2.968.993 1.926 2.145 3.766 3.446 5.499 1.474 2.033 3.191 3.955 4.889 5.825 1.5 1.577 2.915 3.233 4.239 4.961zm-16.407-10.837c2.125 1.017 3.223 1.586 4.768 2.389-1.996-2.484-3.603-5.257-4.768-8.223-2.48-.102-8.467-.407-10.114-.62-1.301-.122-5.083.528-8.468.213-2.033-.071-8.132-.935-10.3173-.833-.7121 1.033-1.6648 1.878-2.7759 2.462-1.1112.584-2.3476.889-3.6028.889s-2.4916-.305-3.6027-.889c-1.1112-.584-2.0638-1.429-2.7759-2.462-2.6023-.051-7.0343.66-10.5718.843-4.5032.326-6.0991-.498-9.0572-.173-3.4257.366-7.0445.377-9.2707.57-1.1821 2.955-2.7844 5.725-4.7573 8.223 1.6875-.711 3.9645-2.033 6.0382-3.049 2.2566-1.017 4.3608-1.586 6.8411-.132 2.4803 1.453 5.0826 5.967 8.6404 9.768 2.5312 2.745 6.4346 6.75 9.5553 10.806.2935-.578.4795-1.205.5489-1.85.0928-1.122.5459-2.183 1.2915-3.026.7457-.842 1.744-1.421 2.8458-1.65 1.6162-.234 3.7001.732 4.2795 3.456.6201-2.551 2.3583-3.385 3.4968-3.476 1.1385-.092 3.2732.487 4.4731 3.13.376.834.457 2.511 1.016 3.416l.508-.691c2.033-2.714 8.925-9.749 11.182-12.646 3.517-4.442 4.727-6.719 7.817-7.857 1.921-.58 3.67-.122 6.78 1.412z" fill="#fff"/><path d="m133.455 11.3953 4.981 4.9911-4.981 4.9809-4.991-4.9809z" fill="#2a3277"/><path d="m132.632 179.283c1.297 0 2.565.385 3.643 1.105 1.078.721 1.918 1.745 2.415 2.943.496 1.198.626 2.516.373 3.788s-.878 2.44-1.795 3.357-2.085 1.541-3.357 1.794-2.59.123-3.788-.373-2.222-1.336-2.942-2.415c-.721-1.078-1.105-2.345-1.105-3.642 0-1.739.69-3.407 1.92-4.636 1.23-1.23 2.897-1.921 4.636-1.921zm4.066 6.557c.002-.793-.23-1.568-.668-2.228-.438-.661-1.061-1.177-1.792-1.484-.73-.307-1.535-.391-2.314-.241-.778.15-1.494.526-2.059 1.082-.564.556-.952 1.267-1.113 2.043s-.09 1.582.206 2.317.803 1.366 1.456 1.814c.654.448 1.426.692 2.218.702 1.059-.013 2.071-.439 2.821-1.187s1.179-1.759 1.194-2.818z" fill="#4c8bca"/><path d="m132.631 183.543c.454 0 .898.135 1.276.387.378.253.673.611.846 1.031.174.42.22.882.131 1.327-.088.446-.307.855-.629 1.177-.321.321-.73.54-1.176.628-.446.089-.907.044-1.327-.13s-.779-.469-1.031-.846c-.253-.378-.387-.822-.387-1.277.002-.608.245-1.191.675-1.621.431-.43 1.013-.673 1.622-.676z" fill="#2a3277"/><path d="m132.908 117.906c-1.545-.803-2.643-1.352-4.767-2.389-3.111-1.535-4.859-2.033-6.77-1.382-3.05 1.138-4.3 3.415-7.817 7.857-2.288 2.897-9.21 9.932-11.182 12.646l-.508.691c-.539-.905-.62-2.582-1.017-3.415-1.1994-2.643-3.2121-3.202-4.4726-3.131s-2.8767.925-3.4968 3.476c-.5794-2.724-2.6633-3.69-4.2795-3.456-1.1019.229-2.1001.808-2.8458 1.65-.7457.843-1.1987 1.905-1.2915 3.026-.0695.645-.2554 1.272-.5489 1.85-3.1207-4.066-7.0241-8.061-9.5553-10.806-3.5375-3.801-6.1804-8.426-8.6404-9.768s-4.5845-.895-6.8412.132c-2.033.955-4.3507 2.307-6.0381 3.049 1.9729-2.498 3.5751-5.268 4.7573-8.223 2.2262-.193 5.845-.203 9.2707-.569 2.9275-.326 4.554.498 9.0572.172 3.5374-.183 7.9695-.894 10.5717-.843.7122 1.033 1.6648 1.878 2.776 2.462 1.1111.584 2.3475.889 3.6027.889s2.4916-.305 3.6028-.889c1.1111-.584 2.0638-1.429 2.7759-2.462 2.1648-.102 8.2638.762 10.3178.833 3.405.315 7.166-.335 8.467-.213 1.647.213 7.634.518 10.115.62 1.164 2.955 2.768 5.717 4.757 8.193zm-16.264-5.296c-3.761.244-4.564.417-15.583-.742-2.148 2.062-5.0126 3.21-7.9903 3.202h-.3761c-2.9745.008-5.8358-1.14-7.9797-3.202-11.0292 1.159-11.8221 1.016-15.5832.742 5.3774 5.977 7.5426 10.165 14.0076 16.793.4197-.835 1.0105-1.572 1.734-2.162.7235-.591 1.5634-1.023 2.4649-1.268.9016-.244 1.8445-.296 2.7675-.152.9229.144 1.805.482 2.5889.99l.1932.132.1829-.132c.7852-.507 1.668-.843 2.5913-.986.9234-.144 1.8666-.092 2.7684.153.9019.244 1.7426.675 2.4666 1.265.725.59 1.317 1.326 1.739 2.16 6.547-6.587 8.702-10.816 14.089-16.824z" fill="#a92819"/><path d="m121.186 172.331h-3.395v25.697h3.395z" fill="#4c8bca"/><path d="m108.001 37.8348c1.448.0215 2.861.4526 4.075 1.2434s2.179 1.909 2.784 3.2254c.605 1.3163.825 2.777.635 4.2132s-.783 2.7891-1.71 3.9025c-1.728 1.291-3.385-.3151-2.572-1.7078 1.789-3.0495-.213-6.4752-2.877-6.648-3.049-.4778-5.713 2.033-4.564 5.7535.34.1528.629.3985.835.7087.205.3103.319.6724.327 1.0446.009.3721-.088.7391-.279 1.0584-.192.3193-.469.578-.802.7461h-9.3312v17.1792l10.6332-10.6226c2.51-2.1042 4.615.7522 2.693 2.6124l-13.3262 13.4079v10.4396l10.4292-10.4396c2.287-1.9619 4.463 1.0165 2.511 2.6734l-12.9402 13.1335v2.9885c-1.2057-.1703-2.4309-.1463-3.629.0712v-2.8361l-13.1537-13.3367c-1.9619-1.6773.2134-4.6354 2.5108-2.6938l10.6429 10.6633v-10.4194l-13.54-13.6518c-1.9212-1.8602.183-4.7166 2.6836-2.6124l10.8564 10.8462v-17.4028h-9.5553c-.3321-.1681-.6098-.4268-.8011-.7461s-.2883-.6863-.2798-1.0584c.0085-.3722.1222-.7343.3279-1.0446.2056-.3102.4949-.5559.8344-.7087 1.1486-3.7001-1.5451-6.2313-4.5642-5.7535-2.6531.1728-4.6557 3.5985-2.8767 6.648.8233 1.3927-.8438 2.9988-2.5617 1.7078-.9264-1.1127-1.5192-2.4648-1.7099-3.9-.1907-1.4353.0285-2.8952.6323-4.2112s1.5675-2.4344 2.7798-3.2259c1.2124-.7916 2.624-1.224 4.0717-1.2474 4.2185-.183 8.8132 2.5108 9.1486 9.972h4.5337v-7.878l-9.8094-9.7891c-1.4841-1.4129 1.0165-4.615 2.9581-3.0495l6.9021 6.8208v-10.1652c.5388-2.8564 3.2529-2.8564 3.629 0v9.9314l6.6887-6.5972c1.972-1.5553 4.432 1.6468 2.948 3.0496l-9.6367 9.5654v8.1322h4.31c.3253-7.4816 4.9197-10.1754 9.1387-9.9924z" fill="#0f7657"/><path d="m101.141 111.868c11.019 1.159 11.822 1.016 15.583.742-5.388 5.977-7.543 10.165-14.008 16.793-.422-.834-1.014-1.57-1.738-2.16-.725-.59-1.5655-1.021-2.4674-1.266-.9018-.244-1.845-.296-2.7683-.153-.9234.144-1.8062.48-2.5914.986l-.1829.133-.1932-.133c-.7839-.508-1.666-.845-2.5889-.989-.923-.144-1.8659-.093-2.7675.152-.9015.245-1.7414.676-2.4649 1.267s-1.3143 1.328-1.734 2.163c-6.465-6.587-8.6302-10.816-14.0076-16.793 3.7611.244 4.554.417 15.5832-.742 2.1439 2.062 5.0052 3.21 7.9797 3.202h.3761c2.9777.008 5.8423-1.14 7.9901-3.202z" fill="#fff"/><path d="m110.869 158.496h-16.2646v-4.402l.2846.173c1.5398.908 3.2948 1.388 5.0826 1.388 1.7874 0 3.5424-.48 5.0824-1.388 1.383-.769 2.516-1.919 3.263-3.314.599.99 1.11 2.031 1.525 3.111.071.193.142.386.203.569s.153.478.224.711c.071.234.132.509.203.763.181.787.314 1.585.397 2.389z" fill="#fff"/><path d="m110.869 158.496c-.088-.794-.223-1.582-.407-2.359.199.774.335 1.563.407 2.359z" fill="#1d1d1b"/><path d="m110.462 156.137c-.072-.254-.133-.508-.204-.762.082.25.15.505.204.762z" fill="#1d1d1b"/><path d="m110.261 155.375c-.072-.234-.143-.478-.224-.712.081.234.163.468.224.712z" fill="#1d1d1b"/><path d="m109.284 145.688c.801.896 1.526 1.858 2.165 2.876-.902.524-1.765 1.112-2.582 1.759-.207.195-.391.414-.549.65-.628-1.047-1.36-2.027-2.185-2.927.328-.396.715-.739 1.148-1.017.529-.427 1.23-.854 2.003-1.341z" fill="#0f7657"/><path d="m108.378 144.722c.315.315.62.63.905.965-.803.488-1.474.915-2.033 1.312-.433.278-.82.62-1.149 1.016l-.528-.549-.112-.101c-.193-.204-.397-.387-.6-.57l-.468-.406-.549-.448c-.148-.13-.305-.252-.467-.365.277-.323.583-.619.915-.885.721-.58 1.478-1.113 2.267-1.596.638.505 1.246 1.049 1.819 1.627z" fill="#0f7657"/><path d="m108.318 150.973c-.632-1.041-1.364-2.018-2.185-2.917.824.896 1.556 1.874 2.185 2.917z" fill="#1d1d1b"/><path d="m108.307 150.984c-.747 1.394-1.88 2.544-3.263 3.313-1.539.909-3.294 1.388-5.0822 1.388-1.7877 0-3.5428-.479-5.0826-1.388l-.2846-.172v-5.235c.262.527.605 1.011 1.0165 1.433.9268.924 2.1216 1.531 3.414 1.735 1.2929.205 2.6159-.004 3.7829-.597 1.901-.945 2.389-2.246 3.304-3.364.823.889 1.558 1.856 2.195 2.887z" fill="#fff"/><path d="m107.951 184.752-15.2474 15.248-15.2478-15.248 15.2478-15.248zm-15.2474 11.69 11.6904-11.69-11.6904-11.69-11.7306 11.69z" fill="#179e6c"/><path d="m105.603 147.497.528.549c-.203-.234-.417-.447-.63-.671z" fill="#fff"/><path d="m105.46 147.395c.214.224.427.437.63.671-.914 1.118-1.402 2.419-3.303 3.364-1.167.593-2.491.802-3.7833.597-1.2924-.204-2.4872-.811-3.4139-1.735-.4115-.422-.7545-.905-1.0166-1.433v-6.628c.927.096 1.8448.266 2.7446.508v.153c.1523.974.2068 1.962.1627 2.948-.0448.596.1207 1.19.4676 1.677.2059.265.4634.485.757.648.2935.162.6169.263.9507.297.4142.04.8312-.013 1.2222-.156.39-.142.744-.37 1.035-.667.447-.478.711-1.169 1.453-2.033l.478.356c.193.152.376.294.549.447l.467.406z" fill="#fff"/><path d="m105.461 147.395-.599-.569c.233.183.437.366.599.569z" fill="#fff"/><path d="m106.589 143.126c-.789.483-1.546 1.016-2.267 1.595-.331.267-.637.563-.915.885-.042-.038-.09-.069-.142-.092-1.781-1.309-3.7959-2.265-5.9366-2.815-.2541-1.241-.7827-2.775-1.0877-4.209 1.7748.297 3.5059.812 5.1533 1.535 1.867.789 3.615 1.833 5.195 3.101z" fill="#0f7657"/><path d="m104.443 146.419c-.173-.152-.356-.294-.549-.447z" fill="#1d1d1b"/><path d="m103.876 145.972-.478-.356c.166.11.326.229.478.356z" fill="#1d1d1b"/><path d="m103.43 145.607-.133-.103c.049.028.094.062.133.103z" fill="#1d1d1b"/><path d="m103.266 145.514.133.102c-.742.854-1.017 1.545-1.454 2.033-.291.297-.645.525-1.035.668-.39.142-.808.195-1.2217.156-.3338-.034-.6572-.136-.9507-.298-.2936-.163-.5511-.383-.757-.648-.3469-.487-.5124-1.081-.4676-1.677.0441-.986-.0104-1.973-.1627-2.948v-.152c2.124.553 4.1287 1.49 5.9157 2.764z" fill="#fff"/><path d="m101.579 8.9757-8.8542 8.8539-8.8538-8.8539 8.8538-8.853874zm-8.8542 5.2554 5.2555-5.2554-5.2555-5.2554-5.2554 5.2554z" fill="#179e6c"/><path d="m101.393 140.025c-1.6581-.718-3.3996-1.227-5.1839-1.514-.2734-1.365-.3656-2.759-.2744-4.148.0915-1.189.3151-2.155.7014-2.348s.9352.366 1.23 1.017c.2275.618.3877 1.259.4777 1.911.1714.742.4523 1.455.8336 2.114.4066.702.9356 1.393 1.4126 2.033.2.364.474.683.803.935z" fill="#a92819"/><path d="m103.265 145.514c-1.792-1.28-3.8042-2.22-5.936-2.775 2.1377.538 4.153 1.48 5.936 2.775z" fill="#1d1d1b"/><path d="m92.656 179.755-4.9759 4.986 4.9864 4.976 4.9759-4.986z" fill="#2a3277"/><path d="m97.2267 103.837c.0107.452-.0406.904-.1525 1.342-.1164.403-.2911.786-.5185 1.139-.2102.372-.4701.714-.7725 1.016-.3313.297-.709.537-1.1182.712-.294.127-.6006.222-.9148.284h-.2948c-.1523.01-.3052.01-.4575 0-.1557.01-.3119.01-.4676 0h-.2948c-.1045-.009-.2071-.033-.3049-.071-.2078-.057-.4116-.129-.6099-.213-.4062-.18-.7832-.42-1.1182-.712-.3024-.302-.5623-.644-.7725-1.016-.2234-.355-.3978-.738-.5185-1.139-.107-.439-.1582-.89-.1524-1.342-.0063-.395.0451-.789.1524-1.169.0896-.302.2159-.592.3761-.864.099-.173.2147-.337.3457-.488l.3456-.355.2033-.183c.0789-.072.164-.137.2541-.194.0433-.044.0952-.078.1525-.101l.3761-.214c.0647-.046.1369-.08.2135-.101l.4676-.163c.15-.0468.3027-.0842.4574-.1118h.0915.244c.0112-.0048.0233-.0072.0355-.0072s.0243.0024.0356.0072c.0776-.0099.1562-.0099.2338 0h.4473c.0112-.0048.0233-.0072.0355-.0072.0123 0 .0244.0024.0356.0072h.2643.2542.0914c.1547.0276.3075.065.4575.1118l.4676.163c.0765.021.1488.055.2134.101l.3762.214c.0572.023.1092.057.1524.101.0902.057.1752.122.2542.194l.2033.183.3456.355c.1312.153.2502.316.3558.488.1523.274.275.564.3659.864.1108.38.1656.774.1627 1.169z" fill="#a92819"/><path d="m96.2199 138.491c.3049 1.433.8335 2.968 1.0876 4.208-.8971-.231-1.8116-.387-2.7344-.468-.3659 0-.7319-.071-1.108-.081-.1728-.61-.3253-1.21-.4778-1.789-.1524.549-.3253 1.2-.4879 1.779-.5591 0-1.1182 0-1.6569.102-.4066 0-.8031.091-1.1995.162-.3424.04-.6819.101-1.0165.183.2541-1.22.7624-2.694 1.0165-4.066.005-.027.005-.054 0-.081.9669-.131 1.9416-.196 2.9174-.193 1.2244-.017 2.4481.065 3.6595.244z" fill="#0f7657"/><path d="m95.8049 100.778c-.0789-.072-.164-.137-.2541-.194.0935.052.1791.117.2541.194z" fill="#1d1d1b"/><path d="m95.1829 100.381c.0757.041.1472.088.2135.143l-.3761-.214c.0582.013.1134.037.1626.071z" fill="#1d1d1b"/><path d="m94.8057 100.168-.4676-.163c.1621.034.3193.089.4676.163z" fill="#1d1d1b"/><path d="m92.6623 6.83194-2.106 2.10605 2.106 2.10601 2.1061-2.10601z" fill="#2a3277"/><path d="m94.5745 154.094v4.401h-3.7306v-4.066c.774-.457 1.4848-1.014 2.1143-1.657.4904.497 1.0322.94 1.6163 1.322z" fill="#0f7657"/><path d="m94.5745 148.859v5.235c-.5856-.392-1.1274-.845-1.6163-1.352-.6295.642-1.3403 1.199-2.1143 1.657v-4.666c1.8399-2.541.8843-4.615 1.3621-6.455.0712-.264.183-.681.2948-1.138h.9555c.0915.366.183.732.2846 1.087.4168 1.444-.2439 3.548.8336 5.632z" fill="#0f7657"/><path d="m94.5736 142.231v6.628c-1.0775-2.084-.4168-4.188-.8234-5.621-.1016-.356-.1931-.722-.2846-1.088.3761.01.742.041 1.108.081z" fill="#0f7657"/><path d="m94.5214 92.7473v.1525h-3.6289v-.0814c1.198-.2174 2.4232-.2414 3.6289-.0711z" fill="#1d1d1b"/><path d="m94.1761 99.9444c.0572.0112.1122.0318.1627.0606-.15-.0464-.3028-.0838-.4575-.1114z" fill="#1d1d1b"/><path d="m93.4649 142.15c-.3151 0-.6302 0-.9555 0 .1626-.579.3354-1.23.4879-1.779.1423.569.2643 1.169.4676 1.779z" fill="#0f7657"/><g fill="#1d1d1b"><path d="m92.9991 108.381c.1524.01.3052.01.4575 0-.1523.01-.3051.01-.4575 0z"/><path d="m93.3232 99.8222c-.0113-.0048-.0234-.0073-.0357-.0073s-.0245.0025-.0358.0073h.1226z"/><path d="m92.4783 108.351c.1557.01.3119.01.4676 0-.1557.011-.3119.011-.4676 0z"/><path d="m92.7548 99.8116c-.0776-.0099-.1562-.0099-.2338 0z"/><path d="m92.4779 99.8324c-.0113-.0047-.0235-.0072-.0358-.0072s-.0244.0025-.0357.0072h.0817z"/></g><path d="m92.5008 142.14c-.1118.457-.2236.874-.2948 1.138-.4778 1.84.4778 3.914-1.3621 6.455v-7.492c.5387-.061 1.0978-.091 1.6569-.101z" fill="#0f7657"/><path d="m92.0948 99.8833h-.2948c.0712.0407.183.0102.2948 0z" fill="#1d1d1b"/><path d="m92.0534 99.8936c-.1547.0276-.3075.065-.4575.1114.0505-.0288.1055-.0494.1627-.0606z" fill="#1d1d1b"/><path d="m91.8799 108.229c-.2443-.05-.4827-.125-.7116-.224-.3651-.152-.7072-.354-1.0165-.6-.267-.223-.5121-.472-.7319-.742-.1027-.12-.1946-.249-.2745-.386-.0885-.133-.1667-.272-.2337-.417-.122-.244-.3253-.661-1.6773-.762-2.1101-.022-4.2192.1-6.3126.366-2.4498.233-4.8284.498-6.8615.508-2.033.01-3.7408-.234-5.0826-.295-1.1307-.023-2.2617.031-3.385.163-1.2198.112-2.7852.193-4.3913.274-1.6061.082-3.2834.143-4.3101.234-1.0267.092-1.4333.214-1.7382.752-.305.539-.5286 1.484-1.2504 2.969-.9932 1.926-2.1458 3.765-3.446 5.499-1.4739 2.033-3.1918 3.954-4.8894 5.825-1.5102 1.576-2.9353 3.232-4.2694 4.96-.6282.701-.9883 1.601-1.0165 2.541 0 .417.2846.417.9555 0 .6709-.416 1.7688-1.23 3.9746-2.663 2.2059-1.433 5.4994-3.476 7.9594-4.869 2.4599-1.393 4.066-2.135 5.4282-2.795 1.0884-.61 2.2406-1.097 3.4358-1.454 1.0165-.203 1.8399 0 3.0496 1.199 1.2096 1.2 2.8564 3.548 4.5438 5.632s3.4663 3.964 5.357 5.987c1.8908 2.023 3.9035 4.209 5.4181 6.099 1.5146 1.891 2.521 3.436 3.2325 3.904l.1525.081c-1.7014.757-3.3 1.728-4.7573 2.887-1.3113-.833-2.8361-1.708-4.3507-2.633-2.5408-1.484-4.9487-3.184-7.197-5.082-1.4578-1.274-2.6319-2.839-3.446-4.595-.7115-1.494-1.2096-2.999-1.6162-3.67s-.7116-.498-2.1347 1.017-3.9644 4.371-6.6074 6.8c-2.5139 2.28-5.18 4.385-7.9797 6.303-2.2745 1.772-4.8037 3.191-7.5019 4.208-2.2013.679-4.5414.774-6.7903.275-.763-.128-1.4915-.412-2.1403-.833-.6488-.422-1.2039-.972-1.631-1.617-.8769-1.472-1.441-3.109-1.6569-4.808-.2637-1.999-.2978-4.022-.1017-6.028.206-3.212.8913-6.374 2.0331-9.383 1.864-4.564 4.0693-8.981 6.5972-13.214 2.5514-4.443 5.0826-8.499 6.5565-10.9178.8304-1.2093 1.5484-2.4921 2.1449-3.8323.2238-.549.2596-1.1567.1016-1.7281-.249-.6983-.5479-1.3777-.8945-2.033-.366-.7828-.7522-1.718-1.0674-2.6125-.3093-.8528-.5307-1.735-.6607-2.6328-.0948-.8123-.0708-1.6342.0712-2.4396.1008-.7462.3645-1.4611.7725-2.094.4902-.695 1.1035-1.2945 1.8094-1.7688.7292-.5131 1.5619-.8601 2.4397-1.0165 1.122-.2092 2.2731-.2092 3.3951 0 1.1143.2282 2.159.7157 3.0496 1.4231.9185.6702 1.6385 1.5765 2.0839 2.6226.4004 1.2353.5389 2.5405.4066 3.8323-.0664 1.4333-.2741 2.8566-.6201 4.2491-.2276.9531-.6014 1.8652-1.108 2.7039-.2513.4597-.6534.8187-1.1385 1.0165-.4377.0911-.8857.1219-1.3317.0915-.1765-.0174-.3546.0046-.5216.0644s-.3187.1558-.4441.2812c-.2552.3594-.4097.7806-.4472 1.2198-.0825.4763-.044.9656.1118 1.4232.116.2463.2924.4593.5128.6192.2203.16.4775.2617.7477.2956 1.0809.1532 2.1712.2314 3.263.2338 1.4841.0712 3.385.2033 5.1843.4168 1.7992.2135 3.4968.4981 5.0317.7726 1.4337.2968 2.8884.4798 4.3507.5488 1.4231 0 2.8869-.193 4.2084-.264 1.2671-.052 2.5364.012 3.7916.193 1.3317.173 2.8259.427 4.8895.711 2.0635.285 4.7065.59 6.1601.682 1.4536.091 1.7077 0 1.8399-.092.0898-.039.1671-.103.2236-.183.1621-.193.3388-.373.5286-.539.0708-.069.1492-.131.2338-.183l-.2033.183-.3456.356c-.1309.151-.2467.314-.3456.488-.1603.272-.2866.562-.3761.864-.1074.38-.1588.774-.1525 1.169-.0058.452.0454.903.1525 1.342.1206.401.295.784.5184 1.138.2102.373.4701.715.7725 1.017.3351.292.712.532 1.1182.711.1808.097.3675.182.5591.255z" fill="#a92819"/><path d="m91.5952 100.005-.4676.163c.1483-.074.3055-.129.4676-.163z" fill="#1d1d1b"/><path d="m90.7523 100.381c.0492-.034.1044-.058.1626-.071l-.3761.214c.0663-.055.1378-.102.2135-.143z" fill="#1d1d1b"/><path d="m90.8428 154.399v4.066h-16.4168c.344-2.824 1.3128-5.536 2.8361-7.939 1.0775 1.566 1.9212 3.131 4.6048 4.26 2.1813.962 4.6316 1.128 6.9225.467.7189-.193 1.4093-.48 2.0534-.854z" fill="#fff"/><path d="m90.8432 149.733v4.666c-.6362.383-1.3196.68-2.033.885-2.291.66-4.7413.495-6.9225-.468-2.6836-1.128-3.5274-2.694-4.6049-4.259.5629-.888 1.1987-1.728 1.9009-2.511.122-.122.2338-.254.366-.376.1129.105.2151.22.3049.346 1.169 1.555 1.6163 2.795 3.9441 3.69 1.2321.462 2.5793.521 3.8472.169 1.2679-.353 2.3911-1.099 3.2075-2.131z" fill="#fff"/><path d="m90.8448 142.241v7.492c-.8163 1.032-1.9395 1.778-3.2074 2.131-1.268.353-2.6151.293-3.8472-.169-2.3278-.895-2.7751-2.135-3.9441-3.69-.0899-.125-.192-.241-.305-.346l.1627-.173c.8013-.794 1.6722-1.515 2.6023-2.155.9352 1.017 1.2096 1.779 1.6976 2.298.2928.297.6482.525 1.0404.667.3921.143.8111.196 1.2264.156.3331-.037.6555-.139.9487-.301.2931-.163.5511-.381.759-.644.3434-.489.5052-1.082.4575-1.677-.0448-.986.0131-1.974.1728-2.948l.061-.315c.3253-.072.6404-.133 1.0165-.183.3761-.051.7522-.112 1.1588-.143z" fill="#fff"/><path d="m90.8423 142.221c-.4066 0-.8132.081-1.1995.142.3965-.051.7929-.102 1.1995-.142z" fill="#fff"/><path d="m90.3867 100.584c-.0901.057-.1752.122-.2541.194.075-.077.1606-.142.2541-.194z" fill="#1d1d1b"/><path d="m89.9897 134.333c.09 1.361.0011 2.728-.2643 4.066-1.6174.208-3.2063.597-4.737 1.159.122-.142.2338-.305.3558-.478.4676-.66 1.0165-1.352 1.4028-2.033.3812-.659.6622-1.372.8335-2.114.0856-.668.2493-1.323.488-1.952.2846-.61.8335-1.179 1.2198-1.016.3863.162.6099 1.179.7014 2.368z" fill="#a92819"/><path d="m89.7258 138.399c.0049.027.0049.054 0 .081-.2847 1.393-.7929 2.867-1.0166 4.066-.1931 0-.3862.082-.5794.143h-.183l-.2236.061-1.0165.315c-.4168.142-.8132.295-1.1995.467-1.1174.458-2.181 1.038-3.1715 1.728-.2052-.212-.4224-.412-.6506-.599-.8453-.643-1.7315-1.231-2.6531-1.759 1.4895-1.163 3.1226-2.13 4.8589-2.877.4575.204.7828-.05 1.0877-.437 1.5328-.573 3.1252-.972 4.7472-1.189z" fill="#0f7657"/><path d="m88.6692 142.567c.3347-.082.6742-.144 1.0165-.183-.3761.051-.6912.112-1.0165.183z" fill="#fff"/><path d="m88.6672 142.566c-.1919.035-.3819.079-.5693.133.183-.051.3761-.092.5693-.133z" fill="#1d1d1b"/><path d="m88.6564 142.577-.061.315c-.1597.974-.2176 1.962-.1728 2.948.0477.595-.1141 1.189-.4575 1.677-.2079.263-.4659.482-.759.644-.2932.163-.6156.265-.9487.302-.4153.04-.8343-.013-1.2264-.156-.3922-.142-.7476-.37-1.0404-.668-.488-.518-.7624-1.311-1.6976-2.297.9903-.685 2.0458-1.271 3.1512-1.748.3964-.163.7929-.326 1.1995-.468l1.0165-.315.2236-.061h.183c.1933-.068.3901-.126.5896-.173z" fill="#fff"/><path d="m87.9037 142.75-.2236.061z" fill="#1d1d1b"/><path d="m86.6446 143.126c-.4066.142-.8031.305-1.1995.468.3862-.173.7827-.326 1.1995-.468z" fill="#1d1d1b"/><path d="m85.4442 143.593c-1.1054.478-2.1609 1.064-3.1512 1.749.9831-.697 2.0399-1.283 3.1512-1.749z" fill="#1d1d1b"/><path d="m83.8904 140.025c.3659-.152.7319-.304 1.0877-.437-.305.356-.6303.61-1.0877.437z" fill="#a92819"/><path d="m82.2755 145.321c-.93.639-1.8009 1.361-2.6023 2.155.7973-.799 1.6686-1.52 2.6023-2.155z" fill="#1d1d1b"/><path d="m81.6216 144.722c.2282.187.4454.387.6506.6-.9276.641-1.7921 1.37-2.582 2.175l-.1626.173c-.0627-.065-.1347-.12-.2135-.163-.9623-.756-1.9819-1.435-3.0496-2.033.2237-.244.4473-.478.6811-.712.637-.65 1.3162-1.258 2.033-1.819.9187.535 1.8015 1.129 2.643 1.779z" fill="#0f7657"/><path d="m79.1643 148.045c-.7022.783-1.338 1.623-1.9009 2.511.5598-.89 1.1958-1.73 1.9009-2.511z" fill="#1d1d1b"/><path d="m68.8467 171.639h-3.3952v25.698h3.3952z" fill="#4c8bca"/><path d="m63.2228 16.0102-16.0203 16.0305-16.0305-16.0305 16.0305-16.0102zm-3.6086 0-12.4117-12.41172-12.4219 12.41172 12.4219 12.432z" fill="#179e6c"/><path d="m54.0064 178.592c1.2967 0 2.5644.385 3.6426 1.105 1.0782.721 1.9186 1.745 2.4148 2.943.4963 1.198.6261 2.516.3731 3.788-.2529 1.272-.8774 2.44-1.7943 3.357-.917.917-2.0853 1.541-3.3571 1.794-1.2719.253-2.5902.124-3.7882-.373-1.1981-.496-2.2221-1.336-2.9425-2.415-.7204-1.078-1.105-2.345-1.105-3.642.0027-1.738.6944-3.404 1.9234-4.633s2.8951-1.921 4.6332-1.924zm4.0051 6.557c.002-.795-.2321-1.573-.6725-2.235s-1.0674-1.178-1.8015-1.483-1.5423-.386-2.3221-.231c-.7799.155-1.4962.537-2.0584 1.099-.5621.563-.9448 1.279-1.0994 2.059s-.0742 1.588.231 2.322c.3051.734.8213 1.361 1.4832 1.801.6619.441 1.4396.675 2.2346.673 1.0614-.003 2.0785-.426 2.829-1.176.7506-.751 1.1734-1.768 1.1761-2.829z" fill="#4c8bca"/><path d="m56.3425 51.9037-1.6366 2.9682c-17.5248-9.6366-27.1208 4.8488-27.5172 5.4689l-.1118.1525c-.3863.4777-9.3622 12.0051-.0712 30.831l-3.0495 1.4943c-10.0432-20.3304-.488-33.2402.4269-34.399.9454-1.3825 12.3812-17.291 31.9594-6.5159z" fill="#4c8bca"/><path d="m54.0056 182.851c.4539.002.8971.139 1.2736.392.3764.254.6693.613.8416 1.033s.2164.882.1266 1.327-.3094.853-.6311 1.173c-.3217.321-.731.539-1.1764.626-.4453.088-.9067.042-1.3259-.132s-.7774-.469-1.0294-.846c-.252-.378-.3865-.822-.3865-1.276 0-.302.0598-.602.1759-.881.116-.279.2862-.533.5006-.747.2144-.213.4688-.382.7487-.497s.5798-.173.8823-.172z" fill="#2a3277"/><path d="m52.3788 16.1015-4.9911 4.9809-4.981-4.9809 4.981-4.9911z" fill="#2a3277"/><path d="m42.2028 171.639h-3.3952v26.318h3.3952z" fill="#2a3277"/><path d="m30.8766 171.639h-3.3952v26.074h3.3952z" fill="#2a3277"/><path d="m18.0594 194.267h-15.5019v3.395h15.5019z" fill="#179e6c"/><path d="m18.0594 183.451h-15.5019v3.395h15.5019z" fill="#a92819"/><path d="m18.0594 172.138h-15.5019v3.395h15.5019z" fill="#179e6c"/><path d="m17.5106 23.563h-15.70518v2.5515h15.70518z" fill="#179e6c"/><path d="m10.4143 35.6594c1.8898 0 3.7373.5604 5.3086 1.6104 1.5714 1.0499 2.7961 2.5423 3.5193 4.2883.7232 1.7459.9125 3.6672.5438 5.5207-.3687 1.8536-1.2788 3.5562-2.6151 4.8925s-3.0389 2.2464-4.8925 2.6151c-1.8535.3687-3.77476.1794-5.52076-.5438s-3.23833-1.9479-4.28828-3.5193c-1.04994-1.5713-1.610351-3.4187-1.610351-5.3086.002691-2.5334 1.010271-4.9623 2.801651-6.7536 1.79137-1.7914 4.22023-2.799 6.75364-2.8017zm7.0038 9.5553c0-1.3852-.4108-2.7393-1.1804-3.8911-.7695-1.1518-1.8634-2.0495-3.1432-2.5796s-2.688-.6688-4.04659-.3985c-1.35861.2702-2.60657.9373-3.58607 1.9168s-1.64655 2.2274-1.91679 3.586c-.27025 1.3586-.13155 2.7669.39855 4.0466.53011 1.2798 1.4278 2.3737 2.57957 3.1433 1.15178.7695 2.50589 1.1803 3.89113 1.1803 1.8567-.0027 3.6366-.7414 4.9495-2.0543 1.3128-1.3129 2.0516-3.0928 2.0543-4.9495z" fill="#4c8bca"/><path d="m17.4213 13.2554h-15.70524v2.5413h15.70524z" fill="#a92819"/><path d="m17.4213 1.94141h-15.70524v2.54129h15.70524z" fill="#179e6c"/><path d="m16.9523 93.9571-2.4193 2.3584c-.1626-.1728-16.42692-16.9454-6.51587-35.5782l2.99877 1.5959c-8.72177 16.4371 5.3265 31.014 5.9364 31.6239z" fill="#4c8bca"/><path d="m13.8519 100.554 2.1347 2.643c-11.71032 9.463-12.17792 19.69-12.17792 19.791v.254c0 .143-2.4803 14.079 5.5197 22.14l-2.40915 2.389c-8.95553-9.006-6.759848-23.451-6.485388-25.027.081321-1.413 1.118168-12.198 13.418058-22.19z" fill="#4c8bca"/><path d="m10.4168 47.5121c1.2688 0 2.2974-1.0285 2.2974-2.2973s-1.0286-2.2973-2.2974-2.2973c-1.26874 0-2.29729 1.0285-2.29729 2.2973s1.02855 2.2973 2.29729 2.2973z" fill="#2a3277"/></svg>