<svg fill="none" height="200" viewBox="0 0 197 200" width="197" xmlns="http://www.w3.org/2000/svg"><path d="m196.045 131.025c.216.124.405.288.557.485s.263.421.328.661.081.49.049.737c-.032.246-.113.484-.238.699-2.11 3.717-4.961 6.962-8.378 9.531s-7.325 4.408-11.482 5.403c-7.682 1.894-17.218 1.434-28.68-2.684l-.236-.113c-5.121-2.673-7.17-3.779-11.963-6.576l-1.598-.932-2.53-1.495c.866-.673 1.656-1.439 2.356-2.284.123-.154.246-.297.348-.451.879-1.142 1.504-2.458 1.834-3.861.426-1.894.32-3.869-.308-5.706-.743-2.061-1.812-3.991-3.165-5.715-.532-.717-1.075-1.424-1.659-2.12 7.73 5.25 15.9 9.822 24.419 13.663 3.241 1.179 6.66 1.799 10.109 1.834 5.504.031 10.878-1.667 15.364-4.855 4.027-2.833 7.107-6.813 8.84-11.421.731-1.992 1.115-4.095 1.137-6.217.166-3.41-.73-6.786-2.565-9.665-1.835-2.8785-4.517-5.1168-7.678-6.406-2.486-1.0523-5.157-1.599-7.856-1.6081-4.214-.0966-8.328 1.2881-11.626 3.9127-.875.7478-1.634 1.6211-2.253 2.5914l-.062.1024c-.696 1.0605-1.244 2.2116-1.628 3.4216l-.092.399c-.236 1.835.145 3.697 1.083 5.292.938 1.594 2.381 2.832 4.1 3.517l.348.092c1.057.225 2.149.225 3.206 0 1.071-.22 2.07-.702 2.909-1.403.688-.558 1.176-1.323 1.393-2.182.112-.499.112-1.017 0-1.516-.335-.991-.951-1.863-1.772-2.509-.697-.574-1.567-.896-2.469-.912-.379-.008-.748-.13-1.057-.35-.309-.221-.544-.529-.675-.886-.13-.356-.15-.744-.057-1.112s.296-.6992.581-.9502c.299-.264.614-.5102.942-.7375l.102-.0819c.379-.2549.776-.4808 1.188-.676 2.212-.9442 4.671-1.1455 7.007-.5736 2.827.5838 5.449 2.0485 6.545 3.4722 1.495 1.941 2.376 4.284 2.53 6.73.129 2.712-.499 5.407-1.813 7.784-1.27 2.357-3.035 4.412-5.173 6.023-2.197 1.733-4.845 2.8-7.631 3.073-14.135 1.556-27-9.28-38.205-18.714l-1.219-1.024c1.073.488 2.206.833 3.37 1.024 1.165.17 2.353.104 3.492-.195 9.854 8.195 20.875 16.389 32.204 15.139h.102c2.056-.209 4.008-1.005 5.623-2.294 1.696-1.279 3.094-2.911 4.097-4.783.99-1.76 1.466-3.761 1.373-5.777-.107-1.71-.724-3.347-1.772-4.702-1.19-1.102-2.687-1.816-4.292-2.048-.764-.157-1.544-.229-2.325-.215 1.375 1.214 2.394 2.779 2.95 4.527.222 1.012.222 2.06 0 3.073-.394 1.67-1.317 3.168-2.632 4.271-1.314 1.11-2.884 1.874-4.569 2.223-1.576.338-3.206.338-4.783 0-.218-.045-.434-.103-.645-.175-2.624-.898-4.833-2.718-6.218-5.121-1.515-2.395-2.078-5.271-1.577-8.061 0-.184.102-.41.184-.686.472-1.5546 1.161-3.0341 2.049-4.3944l.061-.1024c.843-1.2974 1.871-2.4638 3.053-3.4621 3.986-3.1857 8.961-4.8778 14.063-4.7833 3.227.0102 6.42.6613 9.393 1.9154 3.846 1.5785 7.112 4.3032 9.355 7.8034 2.244 3.5004 3.354 7.6064 3.182 11.7604-.026 2.554-.483 5.086-1.352 7.487-.606 1.657-1.374 3.249-2.295 4.753v13.059c.781-1.013 1.492-2.077 2.131-3.185.12-.218.281-.41.476-.565.194-.155.417-.27.656-.339.239-.068.489-.089.736-.06.247.028.486.105.703.226zm-8.491 7.908v-12.179c-1.115 1.157-2.32 2.222-3.606 3.186v11.635c1.274-.778 2.48-1.662 3.606-2.642zm-7.385 4.578v-11.164c-1.049.549-2.126 1.042-3.227 1.475v10.796c1.096-.306 2.174-.675 3.227-1.107zm-7.017 1.926v-10.427c-2.396.587-4.856.876-7.323.86-3.909-.027-7.785-.72-11.462-2.048l-.133-.051-1.649-.748v10.355c7.969 2.428 14.79 2.94 20.567 2.059zm-24.347-3.513v-10.745c-1.249-.625-2.478-1.25-3.677-1.885v10.663c1.178.645 2.407 1.301 3.677 1.967zm-7.59-4.097v-10.663c-1.024-.553-1.946-1.106-2.888-1.67v10.663c.932.533 1.895 1.086 2.888 1.639z" fill="#0f7657"/><path d="m193.597 72.6521-2.499.1126c-.942-22.0833-15.887-29.1918-16.522-29.4889l1.025-2.2738c.696.3072 16.982 7.9791 17.996 31.6501z" fill="#4c8bca"/><path d="m193.084 175.94h-185.80336v2.499h185.80336z" fill="#179e6c"/><path d="m191.744 155.157 1.198 2.172c-8.777 4.969-18.686 7.597-28.772 7.631-22.268 0-38.257-12.886-38.482-13.07l1.598-1.915c.287.235 30.032 24.142 64.458 5.182z" fill="#4c8bca"/><path d="m192.84 188.528v2.489h-4.128v-1.249h-2.499v1.249h-4.261v-1.249h-2.489v1.249h-4.261v-1.249h-2.5v1.249h-4.261v-1.249h-2.489v1.249h-4.25v-1.249h-2.499v1.249h-4.261v-1.249h-2.489v1.249h-4.261v-1.249h-2.5v1.249h-4.261v-1.249h-2.489v1.249h-4.261v-1.249h-2.499v1.249h-3.646v-1.249h-2.489v1.249h-4.261v-1.249h-2.5v1.249h-4.26v-1.249h-2.5v1.249h-4.25v-1.249h-2.5v1.249h-4.25v-1.249h-2.4997v1.249h-4.2507v-1.249h-2.4993v1.249h-4.2609v-1.249h-2.4993v1.249h-4.261v-1.249h-2.4889v1.249h-4.261v-1.249h-2.4993v1.249h-3.6874v-1.249h-2.4889v1.249h-4.261v-1.249h-2.4993v1.249h-4.2609v-1.249h-2.489v1.249h-4.261v-1.249h-2.4993v1.249h-4.2609v-1.249h-2.489v1.249h-4.2508v-1.249h-2.4992v1.249h-4.261v-1.249h-2.4992v1.249h-4.2508v-1.249h-2.4992v1.249h-4.261v-1.249h-2.489v1.249h-4.07659v-2.489z" fill="#a92819"/><path d="m192.84 182.044h-185.79374v2.499h185.79374z" fill="#179e6c"/><path d="m191.281 26.6927.215 2.489c-1.28.1126-2.499.1639-3.687.1639-7.57 0-13.316-2.1715-17.249-6.4632-7.283-8.0406-5.122-20.48553-4.999-21.0284l2.459.46093c0 .11267-2.049 11.78937 4.394 18.90817 3.912 4.3531 10.273 6.1763 18.867 5.4696z" fill="#2a3277"/><path d="m182.975.860357c1.853-.002026 3.664.545573 5.205 1.573493 1.542 1.02792 2.743 2.48994 3.453 4.20102.71 1.71107.896 3.59433.535 5.41123-.361 1.817-1.253 3.4861-2.562 4.796-1.31 1.3099-2.979 2.2017-4.796 2.5626s-3.701.1747-5.412-.5352c-1.711-.7098-3.173-1.9114-4.201-3.4525s-1.575-3.3525-1.573-5.205c.005-2.47855.992-4.85404 2.745-6.60663 1.752-1.7526 4.128-2.739601 6.606-2.745013zm6.863 9.351643c0-1.35731-.402-2.68413-1.156-3.81269-.755-1.12856-1.826-2.00816-3.08-2.52758-1.254-.51941-2.634-.65532-3.965-.39052-1.332.2648-2.554.9184-3.514 1.87816s-1.614 2.18256-1.878 3.51379c-.265 1.33124-.129 2.71104.39 3.96504.52 1.254 1.399 2.3258 2.528 3.0799 1.128.7541 2.455 1.1565 3.812 1.1565 1.82-.0027 3.564-.7266 4.85-2.013s2.01-3.0304 2.013-4.8496z" fill="#179e6c"/><path d="m188.71 191.017h-2.499v8.983h2.499z" fill="#a92819"/><path d="m188.71 189.768h-2.499v1.249h2.499z" fill="#a92819"/><path d="m182.975 12.4658c1.244 0 2.253-1.0089 2.253-2.2534 0-1.24453-1.009-2.25342-2.253-2.25342-1.245 0-2.254 1.00889-2.254 2.25342 0 1.2445 1.009 2.2534 2.254 2.2534z" fill="#2a3277"/><path d="m181.961 191.017h-2.499v8.983h2.499z" fill="#a92819"/><path d="m181.961 189.768h-2.499v1.249h2.499z" fill="#a92819"/><path d="m180.272 74.5777-2.489.2049c-1.864-22.5341-26.017-30.882-26.262-30.9639l.788-2.3763c.267.0922 25.955 8.9317 27.963 33.1353z" fill="#4c8bca"/><g fill="#a92819"><path d="m175.201 191.017h-2.5v8.983h2.5z"/><path d="m175.201 189.768h-2.5v1.249h2.5z"/><path d="m168.452 191.017h-2.499v8.983h2.499z"/><path d="m168.452 189.768h-2.499v1.249h2.499z"/><path d="m162.982 138.308c.491-.002.972.142 1.381.414.409.271.729.658.918 1.112.189.453.238.952.143 1.434s-.331.924-.679 1.272c-.347.347-.79.583-1.271.678-.482.096-.981.046-1.435-.143-.453-.189-.84-.508-1.112-.917-.271-.41-.415-.89-.413-1.381 0-.655.26-1.283.723-1.746s1.091-.723 1.745-.723z"/><path d="m161.7 191.017h-2.499v8.983h2.499z"/><path d="m161.7 189.768h-2.499v1.249h2.499z"/><path d="m159.979 74.5675c.394 2.3082.001 4.682-1.117 6.7397-.54 1.1062-1.156 2.174-1.843 3.1958-.451.7067-.943 1.3827-1.393 2.0485-1.025 1.6593-2.049 3.247-3.268 4.8346-1.927 2.6661-4.06 5.1765-6.381 7.5079-1.956 1.964-4.144 3.684-6.514 5.121-1.035.627-2.152 1.106-3.319 1.424-1.086-.901-2.161-1.813-3.216-2.704l-1.024-.85c.962.332 1.99.425 2.996.271 1.007-.153 1.961-.549 2.78-1.152 2.128-1.3002 4.091-2.8511 5.849-4.6195 2.188-2.2133 4.205-4.5896 6.033-7.1084 1.127-1.5262 2.11-3.0728 3.124-4.64.461-.7272.953-1.4237 1.424-2.1407.601-.9024 1.148-1.8395 1.639-2.8065.77-1.4052 1.058-3.0246.819-4.6093-.331-1.4281-1.006-2.7536-1.967-3.8615-.613-.8116-1.345-1.5263-2.171-2.1202-1.067-.7717-2.396-1.0919-3.698-.8912-.972.1921-1.881.6253-2.642 1.2599-.696.5032-1.323 1.0955-1.864 1.7617-.465.6075-.8 1.3031-.987 2.0445-.186.7413-.22 1.5129-.099 2.2677.183.995.465 1.9694.84 2.909-.369.338-.799.6555-1.178.9526-1.024.8194-2.11 1.649-3.155 2.489-1.065.8345-2.068 1.7451-3.001 2.7245-.748.8502-1.433 1.754-2.049 2.7041-.056.0718-.107.1471-.153.2254-.533-.6761-1.076-1.434-1.588-2.0486-1.27-1.5057-2.653-2.9192-3.964-4.3737-1.024-1.1881-2.048-2.4275-3.134-3.6259-.732-.8751-1.556-1.6685-2.458-2.3661-.685-.5014-1.428-.9176-2.213-1.2393l-.235-.0922c.941-.4716 1.745-1.177 2.335-2.0486.785-1.0073 1.471-2.0878 2.048-3.2264.661-1.3398 1.173-2.7481 1.527-4.1996.416-1.4855.517-3.0414.297-4.5682-.258-1.5133-.92-2.9289-1.916-4.0971-.766-.9124-1.676-1.6941-2.694-2.3149-2.248-1.4827-4.972-2.0642-7.63-1.6286-1.516.2741-2.947.8984-4.179 1.8232-1.013.7842-1.871 1.7498-2.53 2.8475-.637.9927-1.066 2.1043-1.26 3.2674-.161 1.0955-.188 2.2064-.082 3.3084.088.734.116 1.474.082 2.2125-.1.6774-.279 1.3408-.533 1.9768-.11.322-.24.6368-.389.9424h-.072c-.535.148-1.084.2407-1.639.2765-.829 0-1.659-.1434-2.499-.1639-1.094.0095-2.1845.1227-3.2571.338-1.393.2151-2.786.461-4.179.6044s-3.0728.2253-4.6297.2458-3.0729 0-4.6605.1229c-1.2999.0886-2.5871.3118-3.841.6658-1.1537.3116-2.2404.8323-3.206 1.5364-1.1813.9559-2.0893 2.2067-2.6324 3.6259-.9283 2.0554-1.7388 4.162-2.4275 6.3096-.3688 1.0857-.7068 2.1919-1.0243 3.2879l-3.0114-1.9052c.2561-.8091.5122-1.6183.7785-2.4275.7383-2.2666 1.5965-4.4924 2.5709-6.668.7764-1.9369 2.048-3.6358 3.6874-4.9268 1.3004-.9338 2.7573-1.6276 4.3019-2.0485 1.4865-.4541 3.0185-.7427 4.5683-.8604 1.6081-.1229 3.2265-.1025 4.8448-.1332 1.434 0 2.8885-.0819 4.3225-.2356 1.434-.1536 2.6529-.3687 3.9742-.5838 1.2767-.2404 2.5724-.3638 3.8714-.3687.553 0 1.086 0 1.619.0921 0-.4404-.072-1.0959-.092-1.5056-.133-1.3648-.098-2.7407.102-4.0971.282-1.5931.87-3.1165 1.731-4.4864.879-1.4613 2.026-2.7436 3.38-3.7796 1.666-1.2619 3.607-2.1113 5.664-2.4787 3.509-.5947 7.113.159 10.089 2.11 1.314.8364 2.489 1.8732 3.483 3.0728 1.37 1.6176 2.288 3.5679 2.663 5.654.278 1.9821.149 4-.379 5.9306-.415 1.6979-1.02 3.3436-1.803 4.9063-.552 1.0971-1.185 2.1516-1.895 3.1547.685.6442 1.332 1.3283 1.936 2.0486 1.025 1.1882 2.049 2.4173 3.073 3.5952s1.967 2.1202 2.94 3.1855c.987-1.0052 2.037-1.946 3.144-2.8168.82-.6657 1.66-1.3213 2.5-1.9871-.112-.4067-.194-.8209-.246-1.2393-.174-1.2013-.102-2.4254.211-3.598.314-1.1726.862-2.2694 1.612-3.2237.715-.9221 1.557-1.7392 2.499-2.4275 1.206-.9681 2.63-1.6257 4.149-1.9154 2.189-.3684 4.435.1353 6.258 1.4032 1.113.7783 2.098 1.7252 2.919 2.8065 1.324 1.5398 2.237 3.3897 2.653 5.3775z"/></g><path d="m156.59 75.1514c.239 1.5847-.049 3.2041-.819 4.6092-.491.9671-1.038 1.9042-1.639 2.8066-.471.717-.963 1.4135-1.424 2.1407-1.024 1.5876-2.049 3.0728-3.124 4.64-1.828 2.5188-3.845 4.8951-6.033 7.1084-1.758 1.7684-3.721 3.3193-5.849 4.6197-.819.603-1.773.999-2.78 1.152-1.006.153-2.034.06-2.997-.271-5.52-4.5993-10.673-8.5735-15.364-10.8576.103-.379.174-.717.256-1.0243.142-.7359.354-1.4563.635-2.151.205-.3892.441-.5531.779-.4507.684.3934 1.294.9029 1.803 1.5057 1.024 1.0243 2.622 2.6119 4.158 4.0254 1.35 1.2623 2.791 2.4229 4.312 3.4723.989.6532 2.034 1.2154 3.124 1.6798.623.3139 1.284.5447 1.967.6863.861.0535 1.71-.2209 2.376-.7682 1.865-1.1566 3.584-2.5321 5.122-4.0971 2.052-2.0982 3.952-4.3402 5.684-6.709 1.506-2.0486 2.366-3.4621 2.991-4.4351.625-.9731 1.025-1.4955 1.455-2.192.521-.7734.99-1.581 1.403-2.4173.449-.7438.64-1.6152.543-2.4787-.244-.8667-.677-1.6681-1.27-2.3456-.407-.5345-.887-1.0102-1.424-1.4135-.165-.1342-.355-.2341-.559-.2939s-.418-.0783-.629-.0544c-.425.1125-.818.323-1.147.6146-.45.3142-.853.69-1.199 1.1165-.195.2372-.337.5136-.417.8104-.079.2968-.094.6072-.044.9103.191.8742.455 1.7307.789 2.5607.238.5446.299 1.1501.174 1.7311-.192.5109-.505.9678-.911 1.3315-.533.5027-1.094.9746-1.68 1.4135-.84.6556-2.049 1.5979-3.073 2.448-.932.7291-1.812 1.5232-2.632 2.3764-.65.7433-1.252 1.5267-1.803 2.3455-.451.7034-.973 1.3589-1.557 1.9564-.187.1739-.409.306-.651.3872-.242.0813-.498.1099-.752.084-.641-.0628-1.234-.3667-1.66-.8502-.655-.6453-1.423-1.7822-2.56-3.0728s-2.623-2.868-3.903-4.2815-2.345-2.7245-3.165-3.6566c-.572-.692-1.214-1.3236-1.915-1.8847-.471-.3351-.98-.6136-1.516-.8297-.553-.2355-1.188-.4916-1.864-.7374-.676-.2459-1.414-.461-1.906-.6248-.343-.0701-.663-.2251-.932-.4507-.174-.2049-.266-.5019-.102-1.2087.236-.8297.541-1.6383.912-2.4173.297-.6248.46-.7579.799-.8296.449-.0426.902-.0426 1.352 0 .43.0791.87.0791 1.3 0 .379-.1127.697-.42 1.168-1.0243.64-.842 1.202-1.7402 1.68-2.6836.548-1.1116.974-2.2792 1.27-3.4825.296-1.0273.383-2.1035.256-3.165-.174-.8951-.58-1.7287-1.178-2.4173-.544-.6435-1.187-1.1967-1.905-1.6389-.682-.4695-1.442-.8161-2.243-1.0243-.965-.2428-1.969-.2846-2.95-.1229-.975.177-1.894.5805-2.684 1.178-.67.5282-1.239 1.1737-1.68 1.9051-.404.6214-.68 1.3182-.809 2.0486-.093.8304-.093 1.6687 0 2.4992.101.9285.125 1.8638.072 2.7963-.126.9684-.37 1.9178-.727 2.827-.264.8778-.703 1.6931-1.291 2.3968-.529.461-1.195.7346-1.895.7784-.729.1069-1.465.1548-2.202.1434-.778 0-1.649-.1639-2.427-.1741-.892.0129-1.7799.1089-2.6533.2868-1.1472.1946-2.7451.4609-4.3737.635-1.6286.1742-3.2981.2356-4.9165.2663-1.6184.0308-3.1957 0-4.4761.123-1.0685.0399-2.1295.1944-3.165.4609-.7565.2106-1.4681.5577-2.0998 1.0243-.7259.6143-1.2712 1.4144-1.5773 2.3148-.6351 1.3725-1.5057 3.6055-2.2944 5.9613-.4609 1.3828-.8911 2.8065-1.2906 4.0971l-3.0114-1.9461c.338-1.096.676-2.2022 1.0243-3.2879.6888-2.1476 1.4992-4.2542 2.4275-6.3096.5431-1.4192 1.4512-2.67 2.6324-3.6259.9656-.7041 2.0523-1.2249 3.206-1.5364 1.2539-.3541 2.5411-.5772 3.841-.6658 1.5569-.1024 3.0729-.0922 4.6605-.1229 1.5876-.0308 3.0728-.082 4.6297-.2458 1.5569-.1639 2.786-.3893 4.179-.6044 1.0727-.2153 2.1637-.3285 3.2577-.338.839 0 1.669.1434 2.499.1639.527.0207 1.056-.0102 1.577-.0922h.072c.149-.3056.279-.6203.389-.9423.254-.6361.433-1.2995.533-1.9769.034-.7384.006-1.4785-.082-2.2124-.106-1.1021-.079-2.2129.082-3.3084.194-1.1632.623-2.2747 1.26-3.2675.659-1.0977 1.517-2.0632 2.53-2.8474 1.232-.9248 2.663-1.5491 4.179-1.8232 2.657-.4356 5.382.1458 7.63 1.6286 1.018.6207 1.928 1.4025 2.694 2.3148.996 1.1683 1.658 2.5838 1.916 4.0971.22 1.5268.118 3.0828-.297 4.5683-.354 1.4515-.866 2.8598-1.527 4.1995-.577 1.1387-1.263 2.2191-2.048 3.2265-.59.8716-1.394 1.5769-2.335 2.0485l.235.0922c.785.3218 1.528.738 2.213 1.2394.922.6647 1.771 1.427 2.53 2.2739 1.024 1.1984 2.048 2.4378 3.134 3.6259 1.311 1.4545 2.694 2.868 3.964 4.3737.512.5838 1.024 1.3418 1.587 2.0485.047-.0783.098-.1535.154-.2253.616-.9502 1.301-1.854 2.049-2.7041.933-.9795 1.936-1.89 3.001-2.7246 1.024-.8399 2.099-1.6695 3.154-2.489.379-.297.81-.6145 1.178-.9525-.37-.9705-.641-1.976-.809-3.0012-.109-.7534-.065-1.5213.13-2.2571.196-.7359.538-1.4246 1.007-2.0243.542-.6662 1.169-1.2585 1.864-1.7618.762-.6346 1.671-1.0678 2.643-1.2599 1.302-.2007 2.63.1195 3.698.8912.826.5939 1.558 1.3086 2.171 2.1202.955 1.1228 1.62 2.4628 1.936 3.9025z" fill="#fff"/><path d="m154.951 191.017h-2.499v8.983h2.499z" fill="#a92819"/><path d="m154.951 189.768h-2.499v1.249h2.499z" fill="#a92819"/><path d="m153.209 75.7758c.097.8635-.093 1.7349-.543 2.4788-.413.8327-.882 1.6369-1.403 2.407-.461.6965-.84 1.2189-1.454 2.192-.615.973-1.485 2.3968-2.991 4.4351-1.747 2.3631-3.66 4.5983-5.726 6.6885-1.537 1.565-3.257 2.9405-5.121 4.0971-.666.5313-1.506.7944-2.356.7375-.683-.1416-1.344-.3724-1.967-.6863-1.09-.4644-2.135-1.0267-3.124-1.6798-1.521-1.0494-2.962-2.21-4.312-3.4723-1.536-1.4135-3.134-3.0728-4.158-4.0254-.509-.6028-1.119-1.1123-1.803-1.5057-.338-.1024-.574.0615-.779.4507-.281.6947-.493 1.4151-.635 2.151-.082.3073-.153.6453-.256 1.0243-.45-.2151-.901-.4302-1.352-.6146-1.77-.8516-3.659-1.4316-5.603-1.7208-2.939-.5838-6.084.3687-9.218 1.6901 0-.2356-.092-.4814-.154-.7273-.2558-1.1267-.6347-2.3456-.8396-3.462-.1693-1.0159-.2617-2.0431-.2766-3.0728.0042-.6859-.0472-1.371-.1536-2.0486-.0188-.1686-.0792-.3298-.1758-.4692-.0965-.1395-.2262-.2528-.3773-.3297-.3807-.1785-.7988-.2628-1.2189-.2459-.8412-.0159-1.6826.0183-2.5197.1025-.9628.0921-1.9564.2253-3.0728.2765-1.1165.0512-2.489 0-3.8001 0s-2.5709-.1639-3.2777-.2253c-.7067-.0615-.8706-.0615-1.0243 0-.1558.1255-.2672.2979-.3175.4916-.1024.2663-.2048.6761-.3995 1.3521-.2377.919-.5424 1.8193-.9116 2.6938-.56 1.2194-1.2069 2.3969-1.9358 3.5235l-.9116 1.4238-4.2098-2.827c.3995-1.3418.8297-2.7656 1.2906-4.0971.7887-2.3559 1.6593-4.5888 2.2944-5.9613.3061-.9004.8514-1.7006 1.5773-2.3149.6317-.4665 1.3433-.8136 2.0998-1.0243 1.0232-.2851 2.0739-.4602 3.1343-.5223 1.2803-.0922 2.8475-.082 4.4761-.1229 1.6286-.041 3.2879-.0922 4.9165-.2664 1.6286-.1741 3.2265-.4404 4.3736-.635.8735-.1778 1.7616-.2739 2.6526-.2868.779 0 1.649.1332 2.428.1741.734.0007 1.467-.0575 2.192-.1741.7-.0438 1.366-.3174 1.895-.7785.587-.7036 1.026-1.5189 1.29-2.3968.357-.9091.601-1.8585.728-2.827.053-.9324.029-1.8677-.072-2.7962-.094-.8305-.094-1.6688 0-2.4993.129-.7303.404-1.4271.809-2.0485.44-.7314 1.009-1.3769 1.68-1.9052.79-.5975 1.709-1.001 2.683-1.1779.982-.1617 1.986-.1199 2.95.1229.802.2082 1.561.5548 2.244 1.0243.717.4422 1.36.9954 1.905 1.6388.597.6887 1.004 1.5223 1.178 2.4173.127 1.0616.039 2.1378-.257 3.165-.296 1.2034-.722 2.371-1.27 3.4826-.477.9434-1.04 1.8416-1.679 2.6836-.472.6145-.789.9218-1.168 1.0243-.43.0791-.871.0791-1.301 0-.45-.0426-.902-.0426-1.352 0-.338.0717-.502.2048-.799.8296-.371.779-.675 1.5876-.911 2.4173-.164.7068-.072 1.0243.102 1.2087.268.2256.589.3806.932.4506.492.1639 1.219.379 1.905.6248.686.2459 1.311.5019 1.864.7375.536.2161 1.045.4946 1.516.8297.701.5611 1.343 1.1926 1.916 1.8847.819.932 1.884 2.2329 3.165 3.6566 1.28 1.4238 2.775 2.9499 3.902 4.2815s1.905 2.4787 2.561 3.0728c.425.4835 1.018.7873 1.659.8502.254.0259.511-.0027.753-.084s.464-.2133.65-.3872c.585-.5975 1.106-1.253 1.557-1.9564.552-.8188 1.154-1.6022 1.803-2.3456.82-.8531 1.7-1.6472 2.632-2.3763 1.025-.8501 2.274-1.7925 3.073-2.448.587-.4389 1.147-.9108 1.68-1.4135.407-.3637.72-.8206.912-1.3316.124-.581.063-1.1864-.174-1.731-.334-.83-.598-1.6866-.789-2.5607-.051-.3031-.036-.6135.044-.9103.079-.2968.222-.5732.417-.8105.345-.4264.748-.8022 1.198-1.1164.329-.2916.722-.5021 1.147-.6146.212-.0239.426-.0054.63.0544s.394.1597.559.2939c.537.4033 1.016.879 1.423 1.4135.64.7079 1.104 1.5573 1.352 2.4787z" fill="#a92819"/><path d="m153.096 17.689h-46.717v2.4992h46.717z" fill="#179e6c"/><path d="m153.006 1.54639h-46.717v2.49923h46.717z" fill="#179e6c"/><path d="m151.094 28.7515-6.193 6.8833 1.858 1.6716 6.193-6.8832z" fill="#2a3277"/><path d="m152.79 9.37207h-46.717v2.49923h46.717z" fill="#a92819"/><path d="m148.19 191.017h-2.499v8.983h2.499z" fill="#a92819"/><path d="m148.19 189.768h-2.499v1.249h2.499z" fill="#a92819"/><path d="m142.393 28.744-6.197 6.88 1.857 1.6727 6.197-6.8801z" fill="#2a3277"/><path d="m141.43 191.017h-2.5v8.983h2.5z" fill="#a92819"/><path d="m141.43 189.768h-2.5v1.249h2.5z" fill="#a92819"/><path d="m136.124 124.44c.628 1.836.734 3.811.308 5.705-.33 1.403-.955 2.719-1.834 3.861l-.184-.143v-10.407h.532c-1.789-1.12-3.554-2.26-5.295-3.421-1.537-1.986-3.192-3.878-4.958-5.664-1.754-1.794-3.633-3.461-5.623-4.988-1.403-1.025-2.837-2.049-4.333-2.95l-.942-.574c0-.061.061-.123.102-.184 2.43.709 4.71 1.855 6.73 3.38 3.073 2.212 6.576 4.804 10.652 7.549.584.696 1.127 1.403 1.66 2.12 1.36 1.723 2.435 3.653 3.185 5.716z" fill="#a92819"/><path d="m134.947 123.456h-.553v10.406l-2.786-1.69c.699-.831 1.197-1.812 1.454-2.868.276-1.288.194-2.626-.235-3.871-.638-1.701-1.533-3.293-2.653-4.722-.164-.226-.338-.461-.523-.676 1.755 1.167 3.52 2.308 5.296 3.421z" fill="#a92819"/><path d="m132.879 28.7486-6.193 6.8832 1.858 1.6717 6.193-6.8833z" fill="#2a3277"/><path d="m136.147 105.511c-1.14.298-2.328.364-3.493.194-1.164-.191-2.297-.536-3.37-1.024-3.419-3.017-7.032-5.8056-10.816-8.3479.395-1.0056.737-2.0313 1.024-3.0728.768.7579 1.546 1.5159 2.345 2.2431 1.476 1.3878 3.054 2.6615 4.722 3.8103 1.16.7523 2.379 1.4063 3.647 1.9563.545.254 1.106.473 1.68.656l1.024.85c1.075.922 2.151 1.833 3.237 2.735z" fill="#a92819"/><path d="m134.681 191.017h-2.499v8.983h2.499z" fill="#a92819"/><path d="m134.681 189.768h-2.499v1.249h2.499z" fill="#a92819"/><path d="m134.6 134.006c-.103.154-.226.297-.349.451-.699.845-1.489 1.61-2.356 2.284-1.126-.683-2.202-1.339-3.226-1.967 1.096-.699 2.077-1.562 2.909-2.561l2.786 1.69z" fill="#a92819"/><path d="m132.9 125.433c.429 1.245.511 2.584.235 3.871-.257 1.056-.755 2.037-1.454 2.868-1.024-.635-2.049-1.249-2.96-1.843.091-.09.176-.186.256-.287.383-.434.657-.954.799-1.516.152-.682.102-1.394-.144-2.049-.52-1.349-1.246-2.61-2.151-3.738-1.58-2.099-3.291-4.097-5.121-5.982-1.642-1.676-3.401-3.234-5.265-4.66-1.587-1.209-2.991-2.049-4.097-2.766l-.645-.389c1.243.349 2.455.798 3.626 1.342 4.568 3.308 9.075 6.596 13.735 9.73.185.215.359.451.523.676 1.126 1.435 2.024 3.035 2.663 4.743z" fill="#fff"/><path d="m131.628 132.172c-.833.998-1.814 1.862-2.909 2.561-1.148-.707-2.233-1.393-3.247-2.049l1.137-.696c.773-.477 1.483-1.052 2.11-1.711.881.646 1.874 1.26 2.909 1.895z" fill="#fff"/><path d="m131.873 136.741c-.501.399-1.024.778-1.587 1.137-2.498 1.541-5.123 2.868-7.846 3.964-4.015 1.72-8.194 3.267-12.138 5.049-1.688.71-3.304 1.581-4.824 2.602-.902.625-1.782 1.291-2.684 1.926-.737.512-1.495 1.024-2.243 1.485-.7207.463-1.4054.98-2.0485 1.546-.9289.838-1.7855 1.753-2.5607 2.735-.0593.067-.1077.143-.1434.226-.0669.15-.125.304-.1741.461-.3484.971-.8274 1.891-1.4237 2.734-.8229 1.14-1.9626 2.013-3.2774 2.51-1.3149.497-2.7468.597-4.1179.287-1.0125-.241-1.9664-.683-2.8055-1.299-.8392-.615-1.5465-1.393-2.0803-2.286-.6529-1.157-1.087-2.425-1.2803-3.739-.1522-.886-.2276-1.784-.2254-2.684-.0131-1.032.0865-2.062.2971-3.072.2802-1.318.7825-2.579 1.4852-3.729.4302-.676.9218-1.27 1.3623-1.925.1702-.264.3111-.546.4199-.84-1.9666 1.987-3.9537 3.953-5.8896 5.981-1.757 1.781-3.4089 3.662-4.9472 5.634-1.1882 1.567-2.3046 3.186-3.4928 4.763-.5326.727-1.096 1.424-1.6798 2.048.5201 1.211.7079 2.538.5441 3.845-.1639 1.307-.6735 2.547-1.4762 3.592-.8511 1.058-1.9519 1.888-3.2035 2.416-1.2515.527-2.6145.735-3.9664.605-1.8434-.12-3.6264-.705-5.1829-1.7-1.7806-1.133-3.1711-2.785-3.9844-4.732-.8748-2.049-1.162-4.301-.8297-6.504.1688-.917.4015-1.82.6965-2.704-.1963-.723-.3401-1.459-.4302-2.203-.1605-1.463-.0246-2.943.3995-4.353.5394-1.7 1.578-3.199 2.9807-4.302.8012-.611 1.6838-1.107 2.6221-1.475.379-.164.758-.307 1.1472-.45l.4916-.195.1434-.184c.4097-.523.8092-1.076 1.178-1.639.3687-.564.7272-1.199 1.0242-1.823.5224-1.025 1.0243-1.967 1.516-2.95.4916-.984 1.0959-2.049 1.69-3.073.6306-1.058 1.3143-2.084 2.0486-3.073.717-.963 1.4647-1.885 2.2329-2.776 1.0144-1.217 2.1815-2.298 3.4723-3.216.7989-.553 1.9871-1.168 2.5914-1.659.1884-.269.3529-.553.4917-.85 1.0242.686 1.9256 1.321 2.8679 1.894-.2625.518-.6085.989-1.0243 1.393-.8296.717-2.0485 1.332-2.9601 1.977-1.0577.753-2.0116 1.641-2.8373 2.643-.7272.83-1.4135 1.68-2.0485 2.561-.664.902-1.2794 1.839-1.8437 2.806-.5634.953-1.0857 1.936-1.5979 2.93-.5121.993-1.0243 2.048-1.5364 2.99-.379.717-.7784 1.414-1.2189 2.049-.4404.635-.8706 1.27-1.3418 1.885-.2161.283-.4523.55-.7067.799-.1019.09-.2156.166-.338.225l-.3688.164-.7067.276c-.3585.134-.7068.267-1.0243.41-.6531.254-1.267.598-1.8232 1.024-.8703.681-1.5074 1.615-1.8232 2.674-.2924.968-.383 1.986-.2663 2.991.0988.775.2702 1.54.5121 2.284l.0717.235c-.2356 1.117-.6863 2.049-.8706 3.247-.2384 1.575-.0363 3.184.5838 4.651.5439 1.304 1.4729 2.412 2.6631 3.175 1.0697.669 2.2857 1.07 3.544 1.167.7889.074 1.5838-.046 2.3157-.35.7318-.303 1.3785-.781 1.8838-1.391.5335-.725.8135-1.605.7968-2.504-.0166-.9-.329-1.769-.8889-2.474-.1422-.19-.3035-.365-.4815-.522.0155-.103.0466-.203.0922-.297.1943-.31.4285-.592.6965-.84.8362-.912 1.6259-1.866 2.3661-2.858 1.1882-1.577 2.3046-3.216 3.503-4.783 1.6145-2.076 3.3448-4.06 5.1829-5.941 2.9396-3.073 5.992-6.043 8.9829-9.075 1.393-1.403 2.7245-2.858 4.0971-4.261 1.2189-1.229 2.5094-2.407 3.7898-3.585.8604-.799 1.731-1.577 2.5914-2.366 2.868-.707 5.6335-1.741 10.2425-3.073.604-.286 1.241-.499 1.895-.635l1.567.768c.676.318 1.363.635 2.049.943-1.519.893-2.974 1.893-4.353 2.99-1.219.912-2.438 1.824-3.596 2.807-.921.778-1.782 1.618-2.683 2.417-.6659.594-1.3522 1.147-2.0487 1.69-.5428.41-1.0959.809-1.6695 1.178-.2292.157-.4769.284-.7375.379-.5634.133-1.2906.174-1.8744.267-.8798.095-1.7316.365-2.5055.795-.7739.429-1.4543 1.008-2.0013 1.704-.8733 1.338-1.543 2.798-1.9871 4.332-.2351.653-.5408 1.278-.9117 1.865-.4199.614-.8911 1.188-1.2905 1.833-.4943.81-.8411 1.701-1.0243 2.632-.1611.772-.2367 1.558-.2253 2.346.0015.714.0597 1.426.1741 2.131.1259.891.4141 1.752.8501 2.54.293.507.6853.95 1.1535 1.302.4681.352 1.0025.606 1.5711.746.728.168 1.4894.114 2.1865-.154.6972-.269 1.2983-.739 1.7262-1.351.4284-.581.7732-1.219 1.0243-1.895.1699-.55.4332-1.066.7785-1.526.8973-1.167 1.9021-2.248 3.0011-3.227.7529-.69 1.5614-1.317 2.4173-1.874.7272-.482 1.4441-.943 2.1611-1.445.901-.635 1.793-1.3 2.694-1.925 1.704-1.141 3.511-2.118 5.398-2.919 4.005-1.783 8.194-3.329 12.179-5.071 2.54-1.02 4.99-2.253 7.323-3.687l.236-.154c.99.629 2.041 1.281 3.154 1.957zm-27.932-10.089-1.218-.697-.134-.092c-1.119 1.038-2.239 2.062-3.3592 3.073l-4.4864 4.097-1.5773 1.465c.4404-.082.9116-.123 1.352-.185.4917-.307.9628-.655 1.4237-1.024.6351-.481 1.2497-1.024 1.8437-1.516.9219-.819 1.8028-1.67 2.7455-2.469.942-.798 2.294-1.782 3.431-2.652z" fill="#a92819"/><path d="m131.927 101.956c-.574-.182-1.135-.401-1.68-.655-1.268-.55-2.487-1.205-3.647-1.9564-1.668-1.1488-3.246-2.4226-4.722-3.8103-.799-.7273-1.577-1.4852-2.345-2.2432-.287 1.0416-.629 2.0673-1.025 3.0728-.988-.6223-2.015-1.1833-3.072-1.6798.458-1.1578.838-2.3452 1.137-3.5542 4.681 2.2534 9.833 6.2276 15.354 10.8261z" fill="#fff"/><path d="m129.581 126.498c.246.654.296 1.366.143 2.048-.141.562-.415 1.082-.798 1.516-.08.101-.165.197-.257.287-3.513-2.223-6.36-4.097-8.747-5.736-5.039-3.288-8.87-4.097-12.291-3.841-.594-.297-.922-.471-1.332-.717-.565-.358-1.112-.744-1.639-1.157-.706-.553-1.628-1.342-2.048-1.731-.42-.39-.471-.4-1.024.123-.554.522-1.6188 1.557-2.8581 2.714-1.2394 1.157-2.6427 2.468-4.0971 3.81l-.9321.84c-1.3141.24-2.649.346-3.9845.318-.6965-.062-1.3827-.154-2.0485-.277-1.5585-.269-3.0905-.673-4.5785-1.209-.4302-.153-.8502-.327-1.2804-.522.3688-.748.7478-1.526 1.1165-2.253.8297-1.67 1.5671-3.135 2.3763-4.579.4814-.84 1.0243-1.669 1.4238-2.499 12.7522 3.739 14.3396-7.672 25.6066-4.65l.646.389c1.024.666 2.458 1.557 4.097 2.766 1.863 1.426 3.622 2.983 5.264 4.66 1.831 1.885 3.541 3.883 5.122 5.982.892 1.124 1.607 2.378 2.12 3.718z" fill="#a92819"/><path d="m129.282 104.68-.41-.184c-1.455-.619-2.85-1.37-4.169-2.243-1.315-.887-2.57-1.859-3.759-2.909-.809 1.813-1.721 3.585-2.612 5.347.963.635 1.905 1.301 2.838 2.048 2.126 1.629 4.135 3.405 6.012 5.316 1.403 1.444 2.807 2.991 4.097 4.589-4.097-2.745-7.62-5.336-10.652-7.549-2.02-1.525-4.3-2.67-6.73-3.38.328-.666.697-1.321 1.024-1.905 1.24-2.417 2.51-4.8757 3.534-7.3852 3.786 2.5123 7.402 5.2702 10.827 8.2552z" fill="#a92819"/><path d="m128.669 134.774-.236.153c-2.333 1.434-4.783 2.668-7.324 3.688-4.035 1.741-8.194 3.288-12.178 5.07-1.887.802-3.694 1.779-5.398 2.919-.901.625-1.793 1.291-2.694 1.926-.717.502-1.4339.963-2.1611 1.444-.8559.557-1.6644 1.184-2.4173 1.874-1.099.98-2.1038 2.06-3.0012 3.227-.3452.46-.6085.976-.7784 1.526-.2511.677-.5959 1.314-1.0243 1.895-.4321.618-1.0406 1.091-1.746 1.358-.7053.267-1.4747.315-2.2077.137-.5686-.14-1.103-.394-1.5711-.746-.4682-.352-.8605-.795-1.1535-1.302-.436-.788-.7242-1.649-.8501-2.54-.1144-.705-.1726-1.417-.1741-2.131-.0114-.788.0642-1.574.2253-2.345.1832-.931.53-1.823 1.0243-2.633.3994-.645.8706-1.219 1.2906-1.833.3708-.587.6765-1.212.9116-1.864.4441-1.535 1.1138-2.995 1.9871-4.333.547-.696 1.2274-1.275 2.0013-1.704s1.6257-.7 2.5055-.795c.5838-.092 1.3111-.133 1.8744-.267.2606-.095.5083-.222.7375-.379.5736-.368 1.1267-.768 1.6696-1.178.717-.542 1.4032-1.095 2.0486-1.69.901-.798 1.762-1.638 2.684-2.417 1.157-1.024 2.376-1.895 3.595-2.806 1.379-1.098 2.834-2.097 4.353-2.991-.697-.308-1.383-.625-2.049-.943l-1.567-.768c4.23-.922 8.092 1.619 10.345 3.145-1.41.184-2.788.559-4.097 1.116-1.728.886-3.359 1.95-4.865 3.175-1.414 1.076-2.479 1.885-3.442 2.684-.962.799-1.813 1.649-2.612 2.376-.798.728-1.587 1.332-2.284 1.865-.6961.532-1.3414 1.024-1.9253 1.341-.5228.356-1.1008.622-1.7105.789-.6351.174-1.3725.215-2.1817.348-.4461.032-.8813.153-1.2792.357-.3978.204-.7502.487-1.0357.831-.6461 1.081-1.1488 2.242-1.4954 3.452-.3256.898-.7553 1.754-1.2804 2.551-.4302.665-.8911 1.208-1.2189 1.731-.2994.481-.511 1.012-.6248 1.567-.1069.529-.1584 1.068-.1536 1.608.0083.528.0528 1.055.1331 1.577.0626.464.2011.914.4098 1.332.0584.11.1399.207.2389.283.0989.076.2131.129.3347.157.1638 0 .2355 0 .3789-.164.2299-.316.4256-.656.5839-1.014.2674-.851.6835-1.649 1.2291-2.355 1.0455-1.365 2.211-2.633 3.4825-3.79.8863-.814 1.8349-1.557 2.8373-2.223.7579-.492 1.3623-.871 2.0485-1.372.6863-.502 1.5778-1.158 2.7248-1.947 1.86-1.285 3.852-2.37 5.941-3.236 3.359-1.496 8.634-3.544 12.219-5.122 1.941-.798 3.835-1.705 5.675-2.714 1.014.707 2.099 1.393 3.247 2.1z" fill="#fff"/><path d="m128.545 191.017h-2.499v8.983h2.499z" fill="#a92819"/><path d="m128.545 189.768h-2.499v1.249h2.499z" fill="#a92819"/><path d="m119.92 124.593c2.387 1.598 5.234 3.513 8.748 5.736-.627.658-1.336 1.233-2.11 1.71l-1.137.697c-2.991-1.916-5.48-3.585-7.6-5.009-.113-.072-.215-.154-.338-.225l.379-.072c.763-.079 1.509-.276 2.212-.584.318-.215.225-.43-.287-.747-.842-.444-1.711-.834-2.601-1.168-1.137-.441-2.438-.912-3.647-1.414-1.208-.502-2.335-1.024-3.359-1.495-1.025-.471-1.895-.932-2.5-1.25 3.37-.297 7.201.533 12.24 3.821z" fill="#a92819"/><path d="m124.705 114.371c1.765 1.786 3.421 3.678 4.957 5.664-4.66-3.134-9.167-6.422-13.735-9.731-1.171-.544-2.383-.993-3.626-1.341-.717-.441-1.229-.738-1.598-.974-.369-.235-.707-.491-.799-.809-.074-.496.004-1.004.226-1.454.071-.195.174-.42.297-.686 1.179.095 2.345.308 3.482.635 0 .061-.061.123-.102.184l.942.574c1.495.921 2.929 1.894 4.333 2.949 1.99 1.528 3.869 3.195 5.623 4.989z" fill="#fff"/><path d="m117.822 127.778c2.12 1.424 4.609 3.073 7.6 5.009-1.84 1.01-3.734 1.916-5.675 2.715-3.585 1.546-8.86 3.595-12.219 5.121-2.089.866-4.08 1.951-5.941 3.237-1.147.788-2.0485 1.434-2.7246 1.946-.676.512-1.3315.881-2.0485 1.372-.9984.63-1.947 1.335-2.8372 2.11-1.2542 1.136-2.4058 2.38-3.4416 3.718-.5456.707-.9617 1.505-1.2291 2.356-.1374.38-.316.745-.5327 1.086-.1434.184-.2151.205-.3789.164-.1216-.028-.2358-.082-.3347-.158-.099-.076-.1805-.172-.2389-.283-.2087-.418-.3472-.868-.4098-1.331-.0803-.522-.1248-1.049-.1331-1.578-.0048-.539.0467-1.078.1536-1.608.1138-.555.3254-1.086.6248-1.567.3278-.522.7887-1.024 1.2189-1.731.5251-.797.9548-1.653 1.2804-2.55.3466-1.211.8493-2.371 1.4954-3.452.2855-.344.6379-.627 1.0357-.831.3979-.204.8331-.326 1.2792-.357.8092-.133 1.5466-.174 2.1817-.349.6097-.166 1.1877-.433 1.7105-.788.5839-.359 1.2189-.809 1.9259-1.342s1.464-1.147 2.284-1.864c.819-.717 1.649-1.547 2.612-2.376.963-.83 2.048-1.609 3.441-2.684 1.507-1.225 3.138-2.29 4.866-3.175 1.308-.557 2.687-.933 4.097-1.117.123.103.225.185.338.307z" fill="#a92819"/><path d="m123.369 28.7442-6.193 6.8832 1.857 1.6717 6.194-6.8833z" fill="#2a3277"/><path d="m121.784 191.017h-2.499v8.983h2.499z" fill="#a92819"/><path d="m121.784 189.768h-2.499v1.249h2.499z" fill="#a92819"/><path d="m119.788 126.099c.512.317.604.532.286.747-.702.308-1.449.505-2.212.584l-.379.072c-2.253-1.526-6.146-4.097-10.345-3.145l-1.024-.522c-.533-.276-1.025-.563-1.568-.881-.58-.351-1.141-.734-1.679-1.147 1.552-.538 3.166-.882 4.803-1.024.605.317 1.496.768 2.5 1.249 1.003.482 2.14 1.025 3.359 1.496s2.51 1.024 3.647 1.413c.894.331 1.766.717 2.612 1.158z" fill="#fff"/><path d="m118.467 96.3331c-1.024 2.5095-2.294 4.9679-3.534 7.3849-.297.584-.665 1.239-1.024 1.905-1.137-.326-2.303-.539-3.482-.635.276-.635.717-1.485 1.413-2.847 1.024-1.916 2.489-4.8451 3.421-7.1088l.164-.4301c1.049.5141 2.065 1.0922 3.042 1.731z" fill="#fff"/><path d="m115.22 90.4846c.451.1843.901.3994 1.352.6145-.282 1.2078-.644 2.3952-1.086 3.5543-.512-.2356-1.024-.4507-1.505-.6248-5.05-2.8168-9.219-1.8949-13.224-.2151.016-.2798.016-.5602 0-.8399-.021-.8462-.113-1.6891-.276-2.5198 3.073-1.3213 6.238-2.2738 9.218-1.69 1.916.2971 3.776.877 5.521 1.7208z" fill="#a92819"/><path d="m113.835 28.7396-6.197 6.88 1.857 1.6727 6.197-6.8801z" fill="#2a3277"/><path d="m115.486 94.6534-.164.4302c-.932 2.2637-2.428 5.1934-3.421 7.1084-.697 1.362-1.137 2.213-1.414 2.848-3.974-.328-8.829.645-14.1347 4.67-2.0486 1.629-5.1214 1.363-8.1942.42.256-.86.4302-1.68.635-2.438.2797-1.115.7251-2.182 1.3214-3.165.4799-.754 1.0944-1.414 1.8129-1.946.678-.474 1.4062-.873 2.1715-1.188.8092-.369 1.7617-.737 2.6836-1.208.903-.4442 1.7322-1.0247 2.4582-1.7213.6041-.6214 1.0073-1.4101 1.1573-2.2636.162-.7857.251-1.5846.266-2.3866 3.964-1.6798 8.195-2.6016 13.224.2151.573.1741 1.034.3892 1.598.6248z" fill="#a92819"/><path d="m115.035 191.017h-2.499v8.983h2.499z" fill="#a92819"/><path d="m115.035 189.768h-2.499v1.249h2.499z" fill="#a92819"/><path d="m110.713 107.989c.368.236.881.533 1.598.973-11.267-3.021-12.855 8.389-25.6073 4.65.3245-.588.6185-1.193.8809-1.812.2163-.545.3977-1.103.5429-1.67 3.0728.942 6.1456 1.209 8.1942-.42 5.3053-4.025 10.1603-4.998 14.1353-4.671-.123.267-.226.492-.297.687-.222.45-.3.958-.226 1.454.072.318.308.512.779.809z" fill="#a92819"/><path d="m108.275 191.017h-2.5v8.983h2.5z" fill="#a92819"/><path d="m108.275 189.768h-2.5v1.249h2.5z" fill="#a92819"/><path d="m106.104 123.835 1.025.523c-.655.135-1.291.348-1.895.635-4.558 1.321-7.3238 2.355-10.243 3.072l1.8949-1.72c1.393-1.27 2.786-2.541 4.1581-3.841l.175-.154c.532-.184 1.024-.369 1.577-.533.539.413 1.099.796 1.68 1.148.573.307 1.096.594 1.628.87z" fill="#a92819"/><path d="m106.329 120.035c.41.246.738.42 1.332.717-1.637.142-3.251.486-4.804 1.024l-.287-.225c-.097-.065-.189-.137-.276-.215-.328.328-.676.655-1.024 1.024-2.4535.989-4.9902 1.757-7.5801 2.294l.9321-.839c1.475-1.342 2.8782-2.643 4.0971-3.811 1.2189-1.167 2.3149-2.202 2.8579-2.714s.532-.522 1.024-.123 1.373 1.178 2.049 1.731c.54.407 1.101.787 1.679 1.137z" fill="#fff"/><path d="m102.571 121.633.286.225c-.522.164-1.024.348-1.577.532.338-.317.686-.645 1.024-1.024.082.095.171.184.267.267z" fill="#a92819"/><path d="m101.526 191.017h-2.4995v8.983h2.4995z" fill="#a92819"/><path d="m101.526 189.768h-2.4995v1.249h2.4995z" fill="#a92819"/><path d="m101.278 122.339-.174.154c-1.3726 1.301-2.7656 2.571-4.1586 3.841l-1.895 1.721c-1.4662.351-2.9549.601-4.4556.748-.4404 0-.9013 0-1.352-.103l.8809-.819 3.5747-3.247c2.5899-.538 5.1265-1.306 7.5796-2.295z" fill="#fff"/><path d="m100.716 92.9528c.015.2798.015.5602 0 .8399-1.2296.5224-2.4383 1.1063-3.6367 1.6901 0 0 0 0 0-.0615.1537-.7857.2156-1.5865.1844-2.3865-.0035-.3698-.0274-.7391-.0717-1.1062 1.0243-.5019 2.151-1.0243 3.247-1.4852.162.8272.255 1.6667.277 2.5094z" fill="#fff"/><path d="m100.704 93.8135c-.015.802-.104 1.6009-.266 2.3865-.15.8536-.5534 1.6422-1.1574 2.2637-.7261.6966-1.5553 1.277-2.4583 1.7203-.9218.472-1.8744.84-2.6836 1.209-.7794.312-1.5215.711-2.2124 1.188-.7443.526-1.3835 1.186-1.8847 1.946-.5963.983-1.0417 2.05-1.3213 3.165-.2049.758-.379 1.578-.6351 2.438-1.0971-.346-2.1742-.753-3.2264-1.219.1946-.706.3585-1.434.5531-2.13.3713-1.446.9583-2.827 1.7412-4.097.7405-1.119 1.6816-2.092 2.7758-2.8683.8671-.6051 1.7937-1.1199 2.7656-1.5364.8399-.3687 1.7003-.7067 2.5094-1.1164.5634-.2687 1.0872-.6134 1.5569-1.0243.1471-.1583.2403-.3591.2664-.5736 1.2393-.6453 2.448-1.2291 3.6768-1.7515z" fill="#fff"/><path d="m100.285 89.7262c.061.2458.102.4917.154.7272-1.0964.4712-2.1718 1.0243-3.2473 1.4852-.0605-.4854-.146-.9675-.2561-1.4442-.2766-1.2086-.6555-2.3865-.8809-3.6054-.1823-1.0976-.2884-2.2065-.3175-3.3187h-.7068c-1.0959.1024-2.1714.2458-3.2776.2971-1.3623.0614-2.7451 0-4.0971-.0513l-1.7515-.0819c-.2415.8091-.5323 1.6027-.8707 2.3763-.6226 1.3711-1.3485 2.6928-2.1714 3.9537l-.9526 1.4955c-.8194-.5327-1.7003-1.1165-2.7348-1.813l-.1332-.0819.9116-1.4238c.7272-1.1134 1.3741-2.2772 1.9359-3.4825.3761-.874.6877-1.7743.9321-2.6939.1946-.676.297-1.0857.3994-1.352.0504-.1937.1617-.3661.3176-.4917.1229-.0614.2765 0 1.0242 0 .7478 0 1.9769.1639 3.2777.2254 1.3009.0614 2.6427.1024 3.8001 0s2.151-.1844 3.0728-.2766c.8371-.0842 1.6785-.1184 2.5197-.1024.4202-.017.8382.0673 1.2189.2458.1512.077.2808.1903.3773.3297.0966.1395.157.3007.1758.4693.1065.6775.1579 1.3626.1537 2.0485.0148 1.0298.1072 2.057.2765 3.0728.2151 1.1472.5942 2.3661.8502 3.4928z" fill="#fff"/><path d="m97.9086 36.9456-2.1612 1.2599c-.1639-.2663-16.8494-27.973-53.5389-35.76772l.5531-2.43778c37.765 8.03032 54.9729 36.6178 55.147 36.9456z" fill="#4c8bca"/><path d="m97.274 93.0554c.0177.8016-.0579 1.6025-.2253 2.3866v.0615c-3.3597 1.6183-6.6578 3.0728-10.2428 2.4685.3687-.3176.7682-.6351 1.1779-.9321 1.0601-.7409 2.1926-1.3723 3.3801-1.8847.7682-.338 1.5672-.6453 2.3149-1.0243l.1639-.0922c0-.1843 0-.3892 0-.5736 1.096-.4506 2.2124-1.0242 3.3596-1.5159.0442.3672.0682.7365.0717 1.1062z" fill="#a92819"/><path d="m96.9359 90.4949c.1098.4733.1953.952.2561 1.434-1.1472.5326-2.2637 1.0243-3.3596 1.5159v-.256c-.0184-.6322-.1043-1.2605-.2561-1.8744-.2868-1.2701-.6658-2.4788-.9014-3.7694 0-.0614 0-.1331 0-.2048-.2355 0-.4814 0-.7272 0-1.2189 0-2.4378 0-3.6567 0-.0167.0624-.0444.1214-.0819.1741-.6989 1.5295-1.5103 3.0051-2.4275 4.4146-.3073.4917-.6248.9731-.9526 1.4545-1.0243-.6146-1.9052-1.1984-2.909-1.8437l.9526-1.4954c.823-1.261 1.5489-2.5827 2.1715-3.9537.3341-.7672.6215-1.5539.8604-2.3559l1.731.1127c1.3725.0717 2.7553.1127 4.0971.0512 1.1062-.0512 2.1817-.1946 3.2777-.297h.7067c.0272 1.1017.1298 2.2002.3073 3.2879.2561 1.2189.6351 2.3968.9116 3.6054z" fill="#a92819"/><path d="m97.0485 95.5035c-.026.2145-.1193.4153-.2663.5736-.4698.4109-.9936.7555-1.5569 1.0243-.8092.4097-1.6696.7477-2.5095 1.1164-.9718.4165-1.8985.9313-2.7655 1.5364-1.0942.7768-2.0353 1.7488-2.7758 2.8678-.783 1.271-1.37 2.652-1.7413 4.097-.1946.697-.3585 1.424-.5531 2.131-1.763-.807-3.4735-1.724-5.1214-2.745.4135-.546.7575-1.141 1.0243-1.772.3676-.935.5754-1.926.6146-2.93.0378-1.063-.1911-2.1198-.6658-3.0725-.3487-.6435-.7604-1.2509-1.2291-1.813-.0717-.1024-.1332-.1946-.2151-.297-.082-.1025.0717-.1537.1024-.2254.1923-.4545.4077-.8989.6453-1.3315 1.3418.7887 2.7246 1.5569 3.7488 2.151.5457 1.0544.8929 2.2001 1.0243 3.3804.6012-.8281 1.2878-1.5903 2.0486-2.2742 3.5542.676 6.8524-.799 10.1915-2.4173z" fill="#a92819"/><path d="m94.7739 191.017h-2.4992v8.983h2.4992z" fill="#a92819"/><path d="m94.7739 189.768h-2.4992v1.249h2.4992z" fill="#a92819"/><path d="m95.0521 128.055c-.8603.789-1.731 1.567-2.5914 2.366-1.2803 1.178-2.5709 2.356-3.7898 3.585-1.393 1.403-2.7246 2.858-4.0971 4.261-2.9909 3.073-6.0432 6.002-8.9829 9.075-1.8345 1.881-3.5615 3.865-5.1726 5.941-1.1984 1.567-2.3148 3.206-3.503 4.783-.7402.992-1.5299 1.946-2.3661 2.858-.268.248-.5022.53-.6965.84-.0457.094-.0767.194-.0922.297.178.157.3393.332.4814.522.5599.705.8723 1.574.889 2.474.0167.899-.2633 1.78-.7968 2.504-.5116.603-1.1623 1.071-1.8958 1.366-.7335.294-1.5277.406-2.3139.324-1.2583-.097-2.4743-.498-3.544-1.167-1.1902-.763-2.1193-1.871-2.6632-3.176-.6201-1.466-.8222-3.076-.5838-4.65.1844-1.198.6351-2.13.8706-3.247l-.0717-.235c-.2418-.744-.4133-1.509-.5121-2.285-.1167-1.004-.026-2.022.2663-2.99.3158-1.059.953-1.993 1.8232-2.674.5563-.426 1.1701-.771 1.8232-1.024.338-.143.6863-.277 1.0243-.41l.7068-.276.3687-.164c.1224-.06.2361-.135.338-.226.2544-.249.4906-.516.7068-.798.4711-.615.9321-1.24 1.3418-1.885s.8399-1.373 1.2189-2.049c.5223-1.024 1.0242-1.997 1.5364-2.991.5121-.993 1.0242-1.976 1.5978-2.929.5643-.968 1.1797-1.904 1.8437-2.806.6453-.881 1.3316-1.732 2.0486-2.561.8256-1.002 1.7795-1.89 2.8372-2.643.9219-.645 2.1305-1.26 2.9602-1.977.4157-.405.7618-.875 1.0243-1.393.9721.6 1.9775 1.143 3.0113 1.629-.4315.893-1.0294 1.696-1.7617 2.366-1.0555.775-2.1495 1.496-3.2777 2.161-.8231.588-1.5697 1.276-2.2227 2.049-.6248.737-1.2803 1.546-1.8847 2.356-.6043.809-1.1369 1.649-1.649 2.509-.5122.86-1.0243 1.762-1.4955 2.766-.4712 1.003-1.0243 2.12-1.5569 3.021-.5326.902-.8911 1.619-1.3827 2.366-.4917.748-1.0243 1.526-1.5057 2.11-.3339.475-.7148.914-1.137 1.311-.2961.258-.6229.478-.973.656-.236.126-.4788.239-.7273.338l-.7579.276-.9321.379c-.3636.136-.7079.319-1.0243.543-.3284.259-.5623.619-.6658 1.025-.1409.52-.186 1.061-.1331 1.597.0846.564.2183 1.119.3994 1.66.2284.615.2781 1.283.1434 1.925-.1741.84-.676 1.998-.8399 3.073-.1365.939-.0198 1.897.338 2.776.2735.671.7498 1.241 1.3623 1.629.5732.366 1.2271.588 1.9052.645.2257.034.4562.019.6755-.045s.4222-.174.5946-.324c.071-.12.1014-.259.0867-.398-.0148-.138-.074-.268-.1687-.37-.1903-.177-.3922-.341-.6043-.492-.1897-.16-.3448-.356-.4558-.578-.1109-.222-.1754-.465-.1895-.712-.0544-.839.0822-1.68.3995-2.459.3226-.696.7785-1.322 1.3418-1.843.7626-.822 1.4774-1.687 2.1407-2.592.9526-1.27 2.2022-3.072 3.5338-4.814 1.6873-2.185 3.5071-4.265 5.4491-6.227 2.6939-2.817 6.668-6.73 9.0136-9.116 2.3456-2.387 3.0729-3.196 4.0971-4.261.8297-.84 1.8949-1.844 3.0216-2.889.4507 0 .9116.082 1.3521.103 1.4981-.161 2.9834-.424 4.4453-.789z" fill="#fff"/><path d="m93.8327 93.455v.5736l-.1639.0922c-.7477.3892-1.5467.6965-2.3149 1.0243-1.1918.5183-2.3278 1.1566-3.3903 1.9052-.4097.297-.8092.6145-1.1779.932-.756-.1214-1.4951-.3311-2.2022-.6248l-.8502-.5121c-.154-.2997-.325-.5904-.5121-.8706.0614-.1025.1229-.2151.1844-.3073.4609-.758.9423-1.5057 1.4237-2.2432l.4712.2971c2.2431 1.8232 5.2238 1.1267 8.5322-.2664z" fill="#a92819"/><path d="m93.7005 124.634-3.5747 3.247-.8809.819c-.7477-.071-1.4852-.164-2.2329-.297-1.7811-.315-3.5321-.781-5.2341-1.393-.5852-.21-1.1595-.449-1.7208-.717.1332-.225.2561-.461.3893-.717.3994-.768.8603-1.69 1.3417-2.632.4302.194.8502.369 1.2804.522 1.4871.546 3.0191.961 4.5785 1.24.6863.123 1.3725.215 2.0486.276 1.3433.02 2.6852-.097 4.0049-.348z" fill="#a92819"/><path d="m88.0161 191.017h-2.4993v8.983h2.4993z" fill="#a92819"/><path d="m88.0161 189.768h-2.4993v1.249h2.4993z" fill="#a92819"/><path d="m87.0104 128.403c.7477.133 1.4852.225 2.2329.297-1.1267 1.024-2.1919 2.049-3.0216 2.888-1.0243 1.025-1.772 1.885-4.0971 4.261-2.3251 2.377-6.3198 6.3-9.0136 9.116-1.9421 1.963-3.7619 4.043-5.4492 6.228-1.3315 1.741-2.5812 3.544-3.5337 4.814-.6633.904-1.3781 1.77-2.1408 2.592-.5633.521-1.0191 1.147-1.3418 1.843-.3172.779-.4538 1.619-.3994 2.459.0141.247.0785.489.1895.711s.266.419.4558.579c.2121.15.414.315.6043.492.0947.102.1538.232.1686.37.0148.139-.0156.278-.0867.398-.1724.15-.3752.26-.5945.324s-.4498.079-.6756.045c-.678-.057-1.3319-.279-1.9051-.646-.6126-.387-1.0888-.957-1.3623-1.628-.3579-.879-.4746-1.837-.338-2.776.1639-1.024.6658-2.223.8399-3.073.1346-.642.0849-1.31-.1434-1.925-.1812-.541-.3148-1.096-.3995-1.66-.0528-.536-.0077-1.077.1332-1.598.1034-.405.3374-.765.6657-1.024.3164-.225.6608-.407 1.0243-.543l.9321-.379.758-.276c.2485-.099.4913-.212.7272-.338.3501-.178.677-.398.9731-.656.4318-.389.823-.822 1.1676-1.29.4507-.584 1.0243-1.363 1.5057-2.11.4814-.748.8911-1.455 1.3828-2.366.4917-.912 1.0243-2.049 1.5569-3.022s1.0243-1.905 1.4954-2.766c.4712-.86 1.0243-1.69 1.6491-2.509.6248-.82 1.2599-1.618 1.8847-2.356.6529-.772 1.3996-1.461 2.2227-2.048 1.1147-.673 2.1949-1.401 3.2367-2.182.7323-.67 1.3302-1.473 1.7617-2.366.5613.267 1.1356.507 1.7208.717 1.695.614 3.4391 1.084 5.2136 1.403z" fill="#a92819"/><path d="m88.1275 110.131c-.1452.567-.3266 1.125-.5429 1.669-.2624.619-.5564 1.224-.8809 1.813-1.1098-.331-2.1977-.731-3.2572-1.198.355-.614.6698-1.251.9424-1.906.2028-.521.3739-1.055.5121-1.597 1.0522.465 2.1293.872 3.2265 1.219z" fill="#fff"/><path d="m86.7033 113.612c-.4404.83-.9423 1.66-1.4237 2.5-.8092 1.444-1.5467 2.909-2.3763 4.578-.3688.727-.7477 1.506-1.1165 2.254-1.0586-.484-2.085-1.034-3.0728-1.65l1.0243-2.15c.7887-1.588 1.5876-3.176 2.4582-4.722.3688-.646.7785-1.322 1.1575-2.049 1.0885.485 2.2073.899 3.3493 1.239z" fill="#fff"/><path d="m84.5837 53.9485-2.1305 1.2701c-.1229-.1638-11.5333-18.9183-34.0878-26.4468l.7886-2.3558c14.5352 4.9967 26.9981 14.6816 35.4297 27.5325z" fill="#4c8bca"/><path d="m84.8998 108.912c-.1382.542-.3092 1.076-.5121 1.597-.2725.655-.5873 1.292-.9423 1.906-.9649-.597-1.9636-1.138-2.9909-1.619l.3175-.584c-.1785.165-.3666.319-.5633.461-1.2279-.599-2.4122-1.283-3.544-2.048.2712-.084.535-.19.7887-.318.7417-.438 1.3948-1.011 1.9256-1.69l.379-.481c1.6537 1.033 3.3711 1.96 5.1418 2.776z" fill="#a92819"/><path d="m84.8177 93.4238c-.4814.7374-.9628 1.4852-1.4237 2.2431-.0615.0922-.1229.2049-.1844.3073.1872.2802.3581.5709.5121.8707-1.0242-.5941-2.407-1.3623-3.7488-2.151.1536-.2868.3073-.5736.4814-.8502.4609-.7682.9628-1.5159 1.4545-2.2636 1.0038.6453 1.9154 1.2291 2.9089 1.8437z" fill="#a92819"/><path d="m83.4352 112.414c-.379.687-.7887 1.363-1.1574 2.049-.8707 1.546-1.6696 3.134-2.4583 4.722l-1.0243 2.151c-.9321-.574-1.8846-1.219-2.8577-1.926l.8399-1.69c.8297-1.649 1.6491-3.288 2.5504-4.886.3585-.635.7785-1.311 1.1575-2.048 1.0136.486 1.9985 1.029 2.9499 1.628z" fill="#a92819"/><path d="m80.6608 98.3612c.4747.9527.7036 2.0088.6658 3.0728-.0392 1.004-.247 1.994-.6146 2.929-.2668.631-.6108 1.226-1.0243 1.772-.5736-.358-.9526-.614-1.0243-.706l-.0921-.072-1.6491-1.137c.2422-.317.4484-.661.6145-1.024.2139-.557.3316-1.146.3483-1.741.0473-.534-.0556-1.069-.297-1.5471-.2604-.4512-.5585-.8795-.8912-1.2804-.2783-.3518-.5283-.7251-.7477-1.1164-.217-.3501-.3273-.7559-.3175-1.1677.0887-.5797.2648-1.1427.5224-1.6696.2614-.6128.5554-1.2111.8808-1.7925.8092.5532 1.854 1.1677 2.8987 1.7925-.2243.4401-.426.8914-.6043 1.3521 0 .0717-.0717.1434-.1024.2253-.0307.082.1434.1946.2151.2971.4652.5625.8735 1.1698 1.2189 1.8129z" fill="#fff"/><path d="m81.2642 191.017h-2.4992v8.983h2.4992z" fill="#a92819"/><path d="m81.2642 189.768h-2.4992v1.249h2.4992z" fill="#a92819"/><path d="m81.9109 91.5805c-.4917.7477-1.0243 1.4954-1.4545 2.2636-.1741.2766-.3278.5634-.4814.8502-1.0243-.6248-2.0486-1.2394-2.8987-1.7925.1331-.2561.297-.5326.4712-.8194.4302-.7068 1.0242-1.5364 1.5261-2.3763l.1332.0819c1.0038.676 1.8847 1.2599 2.7041 1.7925z" fill="#fff"/><path d="m80.7617 110.212-.3175.584-.2458-.123c.1967-.143.3848-.296.5633-.461z" fill="#070006"/><path d="m81.7887 122.944c-.4815.942-.9424 1.864-1.3418 2.632-.1332.256-.2561.492-.3893.717-1.0328-.472-2.0382-1.002-3.0113-1.588.1229-.235.2355-.471.3482-.676.4609-.891.9116-1.792 1.3623-2.694.9756.6 1.9883 1.137 3.0319 1.609z" fill="#fff"/><path d="m76.6559 108.655c1.1318.765 2.3161 1.45 3.544 2.049-.9834.764-2.1326 1.286-3.3549 1.524-1.2223.239-2.4835.187-3.6819-.152-1.1995-.331-2.3278-.879-3.3289-1.618-.9175-.683-1.7528-1.47-2.489-2.346-.8426-.944-1.5841-1.974-2.2124-3.073-.8982-1.497-1.4478-3.177-1.6081-4.916 0-.2255 0-.4406 0-.666 1.4135.922 2.7553 1.833 4.0458 2.704.1599.407.3517.801.5736 1.178.5264.88 1.137 1.707 1.8232 2.469.5669.669 1.2097 1.271 1.9154 1.792.6683.495 1.4217.863 2.2227 1.086.8355.235 1.7209.224 2.5505-.031z" fill="#a92819"/><path d="m79.7485 106.166-.379.482c-.5327.671-1.1857 1.237-1.9256 1.669-.2537.128-.5175.234-.7887.318l-.2049-.144-.1127-.082c-2.5607-1.864-5.4901-4.005-8.7985-6.289-.3202-.744-.5141-1.537-.5736-2.3453-.0551-.8217.014-1.647.2049-2.448 1.1198.7374 2.1953 1.4647 3.2264 2.1817.0775.7256.3155 1.4256.6966 2.0486.4135.682.8902 1.323 1.4237 1.915.401.473.8508.902 1.3418 1.281.3313.251.7064.438 1.1062.553.14.049.2886.069.4366.058.1479-.01.2922-.051.4238-.12.3428-.21.6419-.485.8809-.809.0773-.091.1492-.187.2151-.287l1.69 1.24.0922.071c.0922.093.4712.349 1.0448.707z" fill="#fff"/><path d="m78.7551 121.295c-.4506.901-.9013 1.803-1.3622 2.694-.1127.205-.2254.44-.3483.676-.9423-.574-1.8949-1.209-2.868-1.895 0-.113.1127-.215.1537-.297.5326-1.025 1.0243-2.049 1.5671-3.073.9731.676 1.9257 1.321 2.8577 1.895z" fill="#a92819"/><path d="m77.5867 99.9082c.2232.4548.3222.9598.2868 1.4648-.0166.596-.1344 1.185-.3482 1.741-.1662.363-.3723.707-.6146 1.024-1.9769-1.444-4.0971-3.011-6.5246-4.66-.0289-.7246.0824-1.448.3277-2.1305.2181-.7113.5099-1.3978.8707-2.0485.3847-.5431.7271-1.115 1.0242-1.7105.4104-1 .7526-2.0267 1.0243-3.0729 1.2291.8092 2.3456 1.5569 3.3596 2.2432-.3254.5813-.6194 1.1797-.8808 1.7925-.2576.5269-.4337 1.0898-.5224 1.6695-.0098.4118.1005.8176.3175 1.1677.2194.3913.4694.7647.7477 1.1165.3529.4383.6649.908.9321 1.4032z" fill="#a92819"/><path d="m79.0408 89.6859c-.5429.8399-1.096 1.6696-1.5262 2.3763-.1741.2868-.338.5634-.4711.8194-1.0243-.6862-2.1305-1.434-3.3597-2.2431.123-.3483.2254-.7273.3483-1.1267.2458-.799.5121-1.7003.7989-2.6529z" fill="#a92819"/><path d="m76.9212 104.22c-.0659.1-.1377.196-.2151.287-.2389.324-.538.598-.8808.809-.1316.069-.2759.109-.4239.12-.148.01-.2965-.009-.4365-.059-.3998-.114-.7749-.301-1.1062-.553-.4911-.378-.9408-.807-1.3418-1.28-.5336-.592-1.0102-1.234-1.4238-1.915-.3811-.623-.619-1.323-.6965-2.0489 2.3763 1.5669 4.5478 3.1649 6.5246 4.6399z" fill="#a92819"/><path d="m76.4503 108.512.2048.143c-.8421.251-1.7391.251-2.5812 0-.801-.223-1.5543-.591-2.2226-1.086-.7058-.521-1.3485-1.123-1.9154-1.792-.6863-.762-1.2969-1.589-1.8232-2.469-.222-.377-.4137-.771-.5736-1.178 3.3084 2.285 6.2378 4.425 8.7985 6.289z" fill="#fff"/><path d="m66.4947 111.789c3.2982 2.796 6.453 5.449 9.4029 7.58-.5224 1.024-1.0243 2.048-1.5672 3.073 0 .082-.1024.184-.1536.297-3.206-2.274-6.5758-5.122-10.1096-8.092-10.632-8.921-22.8516-19.2052-35.4194-17.802h-.1025c-2.0593.2074-4.0152 1.004-5.6335 2.2944-1.6906 1.2846-3.0875 2.9156-4.0971 4.7836-.9905 1.758-1.4662 3.76-1.3725 5.777.0928 1.729.707 3.389 1.7617 4.763 1.1869 1.106 2.6851 1.821 4.2918 2.048.7636.165 1.5439.241 2.3251.225-1.3731-1.224-2.3979-2.789-2.9704-4.537-.2107-1.014-.2107-2.059 0-3.073.3876-1.67 1.3124-3.167 2.6324-4.261 1.3105-1.111 2.8769-1.878 4.558-2.233 1.5765-.338 3.2068-.338 4.7833 0 .2216.046.4404.104.6556.174 2.6231.967 4.8317 2.81 6.2521 5.218s1.9653 5.232 1.5426 7.995c0 .205-.1127.431-.1844.697-.4823 1.547-1.1714 3.021-2.0485 4.384-.842 1.334-1.8776 2.535-3.0728 3.564-3.9843 3.196-8.9672 4.886-14.0736 4.773-3.2275-.003-6.4215-.654-9.3926-1.915-3.0306-1.267-5.71641-3.236-7.83568-5.746-3.18729-3.916-4.84674-8.854-4.6707-13.9.02747-2.551.48812-5.079 1.36229-7.477.60136-1.6643 1.37009-3.2635 2.29437-4.7728v-13.0288c-.78021 1.0132-1.49196 2.0774-2.13049 3.1855-.12442.2145-.28988.4024-.48693.553s-.42184.261-.66152.3247c-.23969.0637-.48958.0796-.7354.0467-.24583-.0328-.48278-.1138-.697322-.2382-.214543-.1244-.402478-.2899-.553076-.4869-.150598-.1971-.260909-.4218-.3246343-.6615-.06372552-.2397-.0796178-.4896-.0467693-.7354.0328484-.2458.1137946-.4828.2382156-.6973 2.107456-3.7197 4.958546-6.9654 8.375536-9.5348 3.41701-2.5693 7.32661-4.4072 11.48521-5.3992 7.6718-1.9051 17.2078-1.434 28.6797 2.6836l.2253.1024c8.1942 4.3225 14.6779 8.0918 19.7992 11.2671-.3892 1.2496-.7579 2.4992-1.1267 3.7591-1.311-.8297-2.7143-1.6901-4.2097-2.6017v10.7651l.676.4405c-.4282 1.3238-.6493 2.7058-.6555 4.0971-7.0742-4.6516-14.5065-8.7342-22.2268-12.2094-3.2412-1.1826-6.6597-1.8061-10.1096-1.8437-5.5067-.0311-10.883 1.675-15.3641 4.8756-4.0478 2.8008-7.1484 6.7659-8.89076 11.3693-.73985 1.998-1.12799 4.108-1.14718 6.238-.15537 3.407.74511 6.78 2.5784 9.656 1.83334 2.877 4.50994 5.117 7.66434 6.415 2.5135 1.056 5.2117 1.603 7.9381 1.608 4.2246.093 8.3474-1.303 11.6461-3.943.9007-.779 1.6808-1.687 2.3148-2.694.6813-1.072 1.2088-2.234 1.5672-3.452l.1024-.379c.2287-1.837-.1566-3.698-1.0959-5.293s-2.3798-2.835-4.0972-3.526l-.3482-.092c-1.0563-.231-2.1498-.231-3.206 0-1.0693.224-2.0678.706-2.909 1.403-.6932.557-1.1829 1.328-1.393 2.192-.1021.497-.1021 1.009 0 1.506.3501.982.963 1.85 1.772 2.509.696.573 1.567.891 2.4685.901.2484.004.4935.057.7214.157.2278.099.4337.242.606.421s.3075.39.3979.621c.0904.232.1341.479.1287.727-.0035.261-.0618.518-.1713.754-.1094.236-.2674.447-.4638.619-.3242.294-.6663.567-1.0243.819-.3766.255-.7701.485-1.1779.686-2.2153.945-4.677 1.146-7.0163.574-2.8167-.584-5.4389-2.049-6.5451-3.483-1.4932-1.946-2.3739-4.292-2.53-6.739-.1228-2.679.4937-5.341 1.7823-7.693 1.2704-2.3563 3.0348-4.4108 5.1726-6.0225 2.197-1.7337 4.8455-2.8002 7.6308-3.0728 14.1453-1.5466 27.0102 9.2803 38.2157 18.7133zm-6.8114-19.1845v-10.6729c-1.1472-.6658-2.3558-1.3623-3.6054-2.0486v10.6115c1.2393.6965 2.4377 1.434 3.6054 2.11zm-7.3953-4.1892v-10.6423c-1.1267-.6248-2.3046-1.2496-3.503-1.8949v10.7344c1.1472.5941 2.3661 1.2189 3.503 1.8028zm-7.2928-3.6567v-10.4271c-8.3069-2.6427-15.4256-3.1958-21.3766-2.2432v10.4476c2.4713-.6208 5.0111-.9271 7.5591-.9116 3.9025.0269 7.7718.7197 11.4412 2.0486l.1434.0614zm-25.1664-1.0243v-10.8061c-1.1644.3437-2.3068.7575-3.4211 1.2394v11.267c1.1041-.637 2.2466-1.2048 3.4211-1.7003zm-7.17 4.0971v-11.6562c-1.1322.73-2.2073 1.545-3.2162 2.4377v12.1275c.9867-1.0489 2.0516-2.0213 3.1855-2.909z" fill="#0f7657"/><path d="m74.5034 191.017h-2.4992v8.983h2.4992z" fill="#a92819"/><path d="m74.5034 189.768h-2.4992v1.249h2.4992z" fill="#a92819"/><path d="m74.8325 86.8582c-.2868.9526-.5531 1.854-.7989 2.6529-.1229.3995-.2254.7785-.3483 1.1267l-2.9909-1.9666c-.0043-.0511-.0043-.1025 0-.1536l1.0755-3.6055z" fill="#fff"/><path d="m73.6845 90.6379c-.2717 1.0463-.6139 2.0729-1.0243 3.0729-.2971.5956-.6395 1.1674-1.0243 1.7105-.3607.6507-.6525 1.3373-.8706 2.0486-.2434.6585-.3615 1.3568-.3483 2.0588-1.0379-.6829-2.1134-1.4101-3.2264-2.1817.0819-.3278.1741-.6658.2765-1.0243.2927-.9515.6876-1.8685 1.1779-2.7348.2766-.4712.6351-.9014.8604-1.393.4777-1.1615.8814-2.3521 1.2087-3.5645z" fill="#fff"/><path d="m71.8212 84.9125-1.0755 3.6054c-.0043.0511-.0043.1025 0 .1537-.9525-.6044-1.9461-1.2497-3.0113-1.9052.3687-1.2598.7375-2.5095 1.1267-3.7591z" fill="#a92819"/><path d="m69.8961 63.6075-1.5979 1.9256c-.2151-.1741-21.9093-17.7097-60.76003-11.943l-.36874-2.4685c40.01847-5.9408 61.81507 11.7279 62.72667 12.4859z" fill="#4c8bca"/><path d="m70.6948 88.6718c-.3273 1.2125-.731 2.403-1.2087 3.5645-.2253.4916-.5838.9218-.8604 1.393-.4903.8664-.8852 1.7833-1.1779 2.7348-.1024.3175-.1946.6556-.2765 1.0243-1.0243-.6555-1.9769-1.3213-3.0216-1.9769.3758-1.2113.8806-2.3789 1.5056-3.4825.2254-.3687.4712-.6965.6965-1.0243.4308-1.072.7934-2.1702 1.0858-3.2879.0819-.2663.1639-.5429.2458-.7989 1.0653.6043 2.0588 1.2496 3.0114 1.8539z" fill="#a92819"/><path d="m68.3286 191.017h-2.4993v8.983h2.4993z" fill="#a92819"/><path d="m68.3286 189.768h-2.4993v1.249h2.4993z" fill="#a92819"/><path d="m66.9669 99.7954c.0595.8086.2534 1.6006.5736 2.3456-1.2906-.871-2.6324-1.782-4.0459-2.7041.0063-1.3913.2274-2.7733.6556-4.0971 1.0242.6556 2.0485 1.3214 3.0216 1.9769-.194.811-.2631 1.6469-.2049 2.4787z" fill="#a92819"/><path d="m61.5677 191.017h-2.4992v8.983h2.4992z" fill="#a92819"/><path d="m61.5677 189.768h-2.4992v1.249h2.4992z" fill="#a92819"/><path d="m54.8189 191.017h-2.4992v8.983h2.4992z" fill="#a92819"/><path d="m54.8189 189.768h-2.4992v1.249h2.4992z" fill="#a92819"/><path d="m50.9562 125.371 2.2124 1.158c-9.3823 18.047-28.7002 20.71-39.0863 20.71-2.3254.017-4.64923-.127-6.95486-.43l.39947-2.468c.32777.01 31.13799 4.701 43.42929-18.97z" fill="#4c8bca"/><path d="m48.0581 191.017h-2.4993v8.983h2.4993z" fill="#a92819"/><path d="m48.0581 189.768h-2.4993v1.249h2.4993z" fill="#a92819"/><path d="m39.8541 156.766 1.5466 1.956c-6.6783 5.275-14.3398 6.719-20.8235 6.719-4.6221.015-9.2195-.676-13.63311-2.048l.80918-2.356c.18437.02 18.76473 6.258 32.10083-4.271z" fill="#2a3277"/><path d="m41.3064 191.017h-2.4993v8.983h2.4993z" fill="#a92819"/><path d="m41.3064 189.768h-2.4993v1.249h2.4993z" fill="#a92819"/><path d="m34.0161 74.2293c.4884.0081.9635.1603 1.3657.4376.4022.2772.7136.6671.8949 1.1207.1813.4535.2246.9506.1244 1.4287s-.3395.9159-.6877 1.2585-.7899.5746-1.2696.667c-.4797.0923-.976.0409-1.4265-.1478-.4506-.1888-.8353-.5065-1.1059-.9131-.2706-.4067-.415-.8843-.4151-1.3728 0-.329.0654-.6547.1926-.9581.1271-.3035.3133-.5786.5479-.8093.2345-.2307.5126-.4124.8181-.5346.3055-.1221.6322-.1822.9612-.1768z" fill="#a92819"/><path d="m35.2838 2.56055c.7785 9.40285-1.3418 16.43965-6.2993 20.93615-4.9575 4.4966-11.5845 5.3775-16.0709 5.3775-1.6668.0097-3.33173-.117-4.97793-.379l.45068-2.4583c.11267 0 11.78945 2.0486 18.91835-4.3941 4.3429-3.9435 6.1457-10.2428 5.4696-18.8774z" fill="#2a3277"/><path d="m34.5576 191.017h-2.4993v8.983h2.4993z" fill="#a92819"/><path d="m34.5576 189.768h-2.4993v1.249h2.4993z" fill="#a92819"/><path d="m27.8087 191.017h-2.4993v8.983h2.4993z" fill="#a92819"/><path d="m27.8087 189.768h-2.4993v1.249h2.4993z" fill="#a92819"/><path d="m16.317 1.68999c1.8516.00812 3.6592.56512 5.1942 1.60055s2.7285 2.50279 3.4296 4.21653.8782 3.59693.509 5.41133c-.3691 1.8144-1.2681 3.4786-2.583 4.7821-1.315 1.3036-2.987 2.1879-4.8046 2.5412s-3.6991.1596-5.4067-.5564c-1.7075-.7161-3.16437-1.9224-4.18633-3.4664-1.02195-1.544-1.5631-3.3564-1.55502-5.208.01355-2.48209 1.01117-4.85744 2.77396-6.60487s4.14679-2.72421 6.62889-2.71604zm6.8626 9.32091c.0021-1.3602-.3996-2.69041-1.154-3.82222s-1.8277-2.01432-3.084-2.53578c-1.2562-.52146-2.639-.65843-3.9732-.39356-1.3341.26486-2.5597.91965-3.5215 1.88146-.9618.9618-1.6166 2.18738-1.88146 3.52154-.26487 1.33416-.1279 2.71696.39356 3.97316.5215 1.2563 1.404 2.3296 2.5358 3.084s2.462 1.1561 3.8222 1.154c1.8193-.0027 3.5632-.7266 4.8496-2.013s2.0103-3.0303 2.013-4.8496z" fill="#179e6c"/><path d="m21.0479 191.017h-2.4992v8.983h2.4992z" fill="#a92819"/><path d="m21.0479 189.768h-2.4992v1.249h2.4992z" fill="#a92819"/><path d="m16.3159 13.3056c1.2445 0 2.2534-1.0088 2.2534-2.2534 0-1.24449-1.0089-2.25337-2.2534-2.25337s-2.2534 1.00888-2.2534 2.25337c0 1.2446 1.0089 2.2534 2.2534 2.2534z" fill="#2a3277"/><path d="m14.2871 191.017h-2.4993v8.983h2.4993z" fill="#a92819"/><path d="m14.2871 189.768h-2.4993v1.249h2.4993z" fill="#a92819"/></svg>