<svg fill="none" height="200" viewBox="0 0 195 200" width="195" xmlns="http://www.w3.org/2000/svg"><path d="m193.627 120.482c.224.133.417.312.566.525.145.215.247.456.299.71.051.252.051.511 0 .762-.057.255-.17.495-.33.701-2.022 3.561-4.754 6.669-8.028 9.13-3.274 2.46-7.019 4.221-11.002 5.173-7.352 1.812-16.476 1.359-27.464-2.574l-.226-.093c-4.84-2.564-6.755-3.666-11.41-6.323l-1.545-.885c-6.611-3.883-11.43-7.075-15.137-9.546-.309-1.627-.659-3.234-1.03-4.84.721.381 1.493.844 2.276 1.359 3.419 2.297 7.857 5.273 13.964 8.887v-10.02h.535c-6.323-3.923-12.234-8.238-18.237-12.604-.844-.371-1.627-.69-2.379-.9369-.329-1.0298-.638-2.0595-1.03-3.2128.231-.1356.455-.2834.67-.4428 2.589.6454 5.018 1.816 7.136 3.4394 10.436 7.9841 21.726 14.7851 33.663 20.2761 3.107 1.131 6.383 1.73 9.69 1.771 5.283.031 10.442-1.601 14.746-4.665 3.858-2.677 6.814-6.461 8.475-10.853.702-1.912 1.078-3.927 1.112-5.963.159-3.2753-.701-6.5195-2.462-9.2858s-4.337-4.9185-7.372-6.1604c-2.406-1.0137-4.989-1.5421-7.6-1.5549-4.036-.0889-7.976 1.2331-11.142 3.738-.83.73-1.554 1.5722-2.152 2.5023v.0927c-.66 1.0295-1.182 2.1408-1.555 3.3055v.3708c-.233 1.7306.105 3.4902.964 5.0108s2.191 2.719 3.794 3.413l.35.092c1.017.227 2.072.227 3.089 0 1.031-.204 1.994-.664 2.801-1.338.655-.5245 1.121-1.2474 1.328-2.0599.104-.4751.104-.9667 0-1.4417-.316-.9594-.894-1.8117-1.668-2.4611-.666-.5459-1.497-.8507-2.358-.865-.237.0001-.472-.049-.69-.1442-.22-.0935-.42-.2301-.587-.4016-.163-.1773-.292-.3833-.381-.6076-.083-.2201-.122-.4547-.113-.6899-.002-.2486.051-.4946.154-.7208.103-.2287.258-.4299.453-.587.281-.2558.58-.4899.896-.7002l.114-.0824c.353-.2441.725-.461 1.112-.6488 2.126-.9065 4.488-1.1016 6.734-.556 2.361.4296 4.525 1.5979 6.179 3.3364 1.432 1.8627 2.275 4.1112 2.42 6.4566.12 2.5952-.482 5.1722-1.74 7.4452-1.217 2.262-2.911 4.233-4.964 5.777-2.099 1.654-4.63 2.669-7.291 2.924-13.562 1.555-25.877-8.886-36.618-17.938-3.503-3.0839-7.182-5.9618-11.018-8.6191.329-1.0297.69-2.214 1.029-3.5012 4.312 2.7913 8.418 5.8886 12.286 9.2679 10.194 8.5984 21.872 18.4324 33.93 17.0634h.113c1.975-.195 3.85-.961 5.396-2.204 1.636-1.245 2.979-2.834 3.934-4.655.934-1.693 1.393-3.607 1.328-5.5396-.122-1.6339-.716-3.1971-1.709-4.5001-1.147-1.0508-2.581-1.7357-4.119-1.9668-.727-.1578-1.471-.2236-2.214-.1957 1.321 1.1544 2.297 2.6511 2.822 4.325.216.9768.216 1.989 0 2.9657-.322 1.6585-1.192 3.1605-2.472 4.2635-1.258 1.067-2.762 1.803-4.376 2.142-1.531.329-3.114.329-4.645 0l-.617-.175c-2.522-.914-4.648-2.676-6.014-4.985s-1.886-5.0208-1.473-7.6712c.037-.2292.1-.4536.186-.6693.461-1.485 1.119-2.9015 1.956-4.2117v-.0927c.784-1.2417 1.753-2.3564 2.873-3.3055 3.805-3.0822 8.573-4.7264 13.469-4.6443 3.09.0059 6.147.6327 8.99 1.8433 3.692 1.4917 6.836 4.0814 9.007 7.4187 2.172 3.3374 3.266 7.2612 3.134 11.2407-.004 2.461-.447 4.902-1.308 7.208-.565 1.596-1.297 3.129-2.183 4.572v12.491c.754-.951 1.442-1.952 2.06-2.996.099-.241.248-.458.438-.635.191-.178.417-.313.664-.395.244-.084.505-.112.762-.082.269.023.529.108.762.247zm-8.238 7.785v-11.678c-1.062 1.128-2.22 2.162-3.46 3.09v11.1c1.213-.737 2.36-1.578 3.429-2.512zm-7.075 4.386v-10.688c-.999.534-2.031 1.005-3.089 1.41v10.349c1.038-.301 2.059-.658 3.058-1.071zm-6.673 1.854v-9.989c-2.303.552-4.664.829-7.033.824-3.755-.009-7.48-.671-11.008-1.956h-.124l-1.555-.711v9.824c6.327 2.152 13.059 2.839 19.689 2.008zm-23.375-3.357v-10.298l-3.532-1.802v10.205zm-7.209-3.985v-10.164c-.947-.525-1.864-1.03-2.78-1.545v10.154z" fill="#0f7657"/><path d="m192.989 175.183h-191.64891v2.574h191.64891z" fill="#179e6c"/><path d="m192.73 181.475h-191.64821v2.574h191.64821z" fill="#179e6c"/><path d="m192.307 27.7415.216 2.5744c-1.318.103-2.574.1648-3.799.1648-7.816 0-13.789-2.2449-17.795-6.6626-7.517-8.3101-5.252-21.15123-5.149-21.69701l2.534.4634c0 .12357-2.132 12.16151 4.531 19.56541 4.016 4.428 10.586 6.3331 19.462 5.5916z" fill="#2a3277"/><path d="m192.482 46.061h-76.367v2.5744h76.367z" fill="#4c8bca"/><path d="m191.947 37.5137h-75.769v2.5744h75.769z" fill="#4c8bca"/><path d="m188.476 190.732h-2.575v9.268h2.575z" fill="#a92819"/><path d="m188.476 189.445h-2.575v1.288h2.575z" fill="#a92819"/><path d="m183.739 13.0676c1.286 0 2.328-1.0419 2.328-2.3273 0-1.28527-1.042-2.32721-2.328-2.32721-1.285 0-2.327 1.04194-2.327 2.32721 0 1.2854 1.042 2.3273 2.327 2.3273z" fill="#2a3277"/><path d="m179.167 71.5372c1.979 0 3.583-1.6044 3.583-3.5835 0-1.9792-1.604-3.5836-3.583-3.5836-1.98 0-3.584 1.6044-3.584 3.5836 0 1.9791 1.604 3.5835 3.584 3.5835z" fill="#2a3277"/><path d="m181.505 190.732h-2.575v9.268h2.575z" fill="#a92819"/><path d="m181.505 189.445h-2.575v1.288h2.575z" fill="#a92819"/><path d="m175.75 158.109c.474 0 .938.141 1.333.405.394.263.702.638.883 1.077.182.438.23.92.137 1.386-.093.465-.321.893-.657 1.228-.335.336-.763.564-1.228.657-.466.093-.948.045-1.386-.137-.439-.181-.814-.489-1.077-.883-.264-.395-.405-.859-.405-1.333 0-.315.062-.627.183-.918.121-.292.297-.556.52-.779s.487-.399.779-.52c.291-.121.603-.183.918-.183z" fill="#2a3277"/><path d="m176.655 10.7402c-.002 1.4017.412 2.7725 1.189 3.9389s1.883 2.0761 3.177 2.6139c1.295.5378 2.72.6796 4.095.4074s2.638-.9462 3.63-1.9366 1.667-2.2527 1.942-3.6273c.274-1.3746.134-2.79966-.402-4.09483-.536-1.29516-1.444-2.40226-2.609-3.1812s-2.536-1.19471-3.937-1.19471c-1.877.00271-3.676.7486-5.003 2.07443-1.328 1.32584-2.077 3.12365-2.082 5.00001zm7.085 9.6592c-1.911 0-3.778-.5665-5.367-1.6279-1.588-1.0614-2.826-2.5699-3.557-4.3349s-.923-3.7071-.55-5.5808c.373-1.87369 1.293-3.59478 2.644-4.94564s3.072-2.2708 4.945-2.6435c1.874-.372704 3.816-.18142 5.581.54966s3.274 1.96911 4.335 3.55755 1.628 3.45594 1.628 5.36633c-.003 2.5609-1.021 5.0162-2.832 6.827-1.811 1.8109-4.266 2.8294-6.827 2.8322z" fill="#179e6c"/><path d="m174.533 190.732h-2.574v9.268h2.574z" fill="#a92819"/><path d="m174.533 189.445h-2.574v1.288h2.574z" fill="#a92819"/><path d="m172.218 67.9539c-.002 1.3757.405 2.721 1.168 3.8656.763 1.1447 1.848 2.0372 3.119 2.5645 1.27.5274 2.668.6659 4.018.3981 1.349-.2679 2.589-.9301 3.561-1.9028.973-.9728 1.635-2.2122 1.903-3.5615s.129-2.7478-.398-4.0183-1.42-2.356-2.564-3.119c-1.145-.763-2.49-1.1692-3.866-1.1671-1.84.0027-3.604.7348-4.905 2.0358s-2.033 3.0648-2.036 4.9047zm6.941 9.515c-1.881-.002-3.72-.5618-5.283-1.6085-1.564-1.0468-2.782-2.5335-3.5-4.2724-.719-1.7388-.906-3.6516-.538-5.4966.369-1.8451 1.276-3.5395 2.607-4.8692s3.026-2.2349 4.872-2.6012c1.845-.3663 3.758-.1772 5.496.5432 1.738.7205 3.223 1.9401 4.268 3.5046s1.603 3.4037 1.603 5.2851c0 1.2504-.246 2.4886-.725 3.6437-.479 1.155-1.181 2.2044-2.065 3.0881-.885.8837-1.935 1.5843-3.091 2.0619-1.155.4776-2.394.7227-3.644.7213z" fill="#179e6c"/><path d="m167.461 152.384c.475-.002.939.137 1.335.398.396.262.705.636.888 1.073.184.438.233.92.143 1.386-.091.466-.317.894-.652 1.231-.334.337-.76.568-1.225.662-.465.095-.948.049-1.387-.13-.439-.18-.815-.486-1.081-.879-.265-.394-.408-.857-.41-1.332-.001-.315.06-.627.179-.919.119-.291.295-.556.517-.78s.485-.402.776-.524c.291-.121.602-.185.917-.186z" fill="#2a3277"/><path d="m167.461 163.629c.475-.002.94.137 1.336.399.396.263.705.637.888 1.075.184.438.233.921.141 1.387-.091.466-.319.895-.654 1.231-.335.337-.763.566-1.229.66-.465.093-.948.046-1.387-.135s-.815-.489-1.079-.884c-.264-.394-.405-.859-.405-1.334 0-.634.252-1.243.699-1.693.448-.449 1.056-.703 1.69-.706z" fill="#2a3277"/><path d="m167.583 190.732h-2.574v9.268h2.574z" fill="#a92819"/><path d="m167.583 189.445h-2.574v1.288h2.574z" fill="#a92819"/><path d="m164.195 130.048c-.001.47-.142.93-.404 1.32s-.634.694-1.069.873c-.433.178-.91.225-1.369.134-.458-.089-.878-.315-1.205-.648-.336-.33-.566-.754-.659-1.216-.092-.46-.042-.938.144-1.369.178-.425.484-.785.875-1.03.359-.232.773-.363 1.2-.381.427-.017.851.08 1.227.282.377.202.692.501.914.866.221.365.341.783.346 1.21z" fill="#a92819"/><path d="m155.844 58.583c3.089 0 7.548 2.976 7.043 9.1854.075 1.8887-.565 3.7363-1.792 5.1737-1.227 1.4375-2.952 2.3589-4.829 2.5804-1.401.3399-9 .2678-17.939.2678-1.2 1.174-2.81 1.835-4.489 1.8432h-4.748c-1.187 1.0069-2.652 1.6283-4.201 1.7815-.927.1415-1.863.2172-2.801.2266-.443 1.524-.896 3.1716-1.339 4.706-1.03-.6547-2.096-1.2528-3.192-1.7918.67-2.2655 1.246-4.5515 1.751-6.8582h3.583c1.03 0 3.471.1236 4.655-1.9257h5.674c.714.0567 1.429-.0935 2.059-.4325.596-.3468 1.087-.8485 1.421-1.4519h18.124c.624.0415 1.25-.0533 1.833-.2781.581-.226 1.105-.5776 1.534-1.0297.431-.457.752-1.0065.938-1.6064.176-.6011.225-1.2325.144-1.8536.134-2.317-.917-4.7575-3.821-4.7575h-46.864c.371-4.9325-2.544-10.2976-8.238-11.142-1.6723-.293-3.3916-.1546-4.9953.4022s-3.0389 1.5136-4.1697 2.7798c-2.4611 3.3673-2.3272 6.333-1.5549 9.7621h-.1545c.3708 1.3759.3708 2.8255 0 4.2014-.2677.1236-1.8844.1854-3.2334.6179-1.1685.3865-2.2277 1.0467-3.0893 1.9256-.6342.6674-1.1279 1.4553-1.452 2.317-.3453.8636-.5101 1.7888-.484 2.7185.1475 1.993.5632 3.9569 1.2358 5.8388l-.9268-.6076c-1.349-.9165-2.698-1.8227-4.1191-2.7185-.1185-.7128-.2009-1.4312-.2471-2.1522-.0747-1.4672.146-2.9344.6487-4.3147.5101-1.3806 1.2868-2.6472 2.2861-3.7278 1.049-1.0769 2.3118-1.9222 3.7071-2.4817.5775-.2491 1.1775-.4422 1.7918-.5767-.4111-1.6504-.6186-3.3449-.6178-5.0458h.0515c.069-3.4765 1.4696-6.7939 3.913-9.2678 1.419-1.2767 3.0834-2.2508 4.8914-2.8628 1.8138-.6152 3.7334-.8569 5.6431-.7105 3.0514.1882 5.9494 1.4042 8.2214 3.4499s3.784 4.8006 4.29 7.8157z" fill="#a92819"/><path d="m158.893 158.109c.474 0 .938.141 1.333.405.394.263.702.638.883 1.077.182.438.23.92.137 1.386-.093.465-.321.893-.657 1.228-.335.336-.763.564-1.228.657-.466.093-.948.045-1.386-.137-.439-.181-.814-.489-1.077-.883-.264-.395-.405-.859-.405-1.333-.001-.316.06-.628.18-.92s.297-.557.52-.78.488-.4.78-.52.604-.181.92-.18z" fill="#2a3277"/><path d="m160.612 190.732h-2.574v9.268h2.574z" fill="#a92819"/><path d="m160.612 189.445h-2.574v1.288h2.574z" fill="#a92819"/><path d="m157.43 29.6367h-40.964v2.5744h40.964z" fill="#a92819"/><path d="m153.641 190.732h-2.574v9.268h2.574z" fill="#a92819"/><path d="m153.641 189.445h-2.574v1.288h2.574z" fill="#a92819"/><path d="m146.679 190.732h-2.575v9.268h2.575z" fill="#a92819"/><path d="m146.679 189.445h-2.575v1.288h2.575z" fill="#a92819"/><path d="m144.064 10.7197c.474 0 .937.1405 1.332.4037.394.2632.702.6373.884 1.0751s.23.9197.138 1.3849c-.092.4651-.319.8927-.654 1.2286-.334.336-.761.5653-1.226.659-.464.0938-.947.0477-1.385-.1323-.439-.18-.814-.4859-1.079-.8792-.265-.3932-.407-.856-.409-1.3301-.002-.316.059-.6291.179-.9214s.297-.558.52-.7819.488-.4015.779-.5228c.292-.1212.605-.1836.921-.1836z" fill="#2a3277"/><path d="m139.708 190.732h-2.575v9.268h2.575z" fill="#a92819"/><path d="m139.708 189.445h-2.575v1.288h2.575z" fill="#a92819"/><path d="m135.774 5.00488c.474 0 .938.14072 1.333.40436.394.26365.702.63837.884 1.0768.181.43842.229.92085.136 1.38627-.092.46543-.321.89295-.657 1.2285-.335.33556-.763.56407-1.228.65665s-.948.04507-1.386-.13654c-.439-.1816-.813-.48912-1.077-.88369s-.404-.85846-.404-1.33301c0-.31508.062-.62708.182-.91818.121-.29111.297-.55561.52-.77841s.488-.39953.779-.52011.603-.18264.918-.18264z" fill="#2a3277"/><path d="m135.774 16.2188c.474 0 .938.1407 1.333.4043.394.2637.702.6384.884 1.0768.181.4384.229.9209.136 1.3863-.092.4654-.321.8929-.657 1.2285-.335.3355-.763.5641-1.228.6566-.465.0926-.948.0451-1.386-.1365-.439-.1816-.813-.4891-1.077-.8837s-.404-.8585-.404-1.333c0-.3151.062-.6271.182-.9182.121-.2911.297-.5556.52-.7784s.488-.3995.779-.5201.603-.1827.918-.1826z" fill="#2a3277"/><path d="m135.796 161.961c.081 2.231-.718 4.406-2.225 6.055-1.476 1.543-3.433 2.538-5.55 2.821-2.644.369-5.32.445-7.981.227-1.74-.093-2.79.257-4.345.072-1.559-.178-3.047-.748-4.325-1.658-1.836-1.373-3.077-3.396-3.471-5.654-.124-1.717-.066-3.443.175-5.148 0-1.699-2.306-5.685-3.655-8.238-2.863-5.674-4.305-8.558-4.9843-15.056-.7311 2.935-2.0595 7.93-3.9439 14.057-3.3571 9.062-1.7815 10.462-2.5127 13.963-1.2872 4.892-3.738 6.735-6.9714 7.353-1.0298.206-4.6443 0-8.5882 0-1.1382.076-2.2793-.095-3.3456-.5s-2.0326-1.035-2.833-1.848c-.8893-.946-1.5483-2.084-1.9256-3.326-.3761-1.242-.4537-2.554-.2266-3.831.1414-1.208.5193-2.377 1.1121-3.439.7916-1.378 1.9645-2.497 3.3777-3.224l.2265-.401c.3398-1.545.3707-5.149.7105-8.877.1687-6.016 1.7153-11.913 4.5207-17.238.2059-4.459.5252-8.969.9474-13.201 1.232.732 2.5238 1.359 3.8616 1.874-.3707 3.995-.6694 8.238-.8547 12.192-.3296 1.885-2.6465 4.531-3.7072 10.112-1.0606 5.582-.8032 11.544-1.5549 15.869-.2446.965-.7099 1.861-1.3593 2.616-.6803.227-1.3029.599-1.8241 1.092-.5211.493-.9283 1.093-1.1931 1.76-.3586.913-.455 1.908-.278 2.873.1759.961.6183 1.853 1.2769 2.574 1.4005 1.277 2.5229 1.03 6.8582 1.03 3.8925 0 4.9016.227 6.4463-.916 3.5115-3.285 1.0297-6.179 2.3066-10.617 1.9978-7.208 3.9646-11.698 5.4578-18.68 1.4931-6.982 1.8432-6.457 4.119-12.893.9773 2.918 2.2183 5.741 3.7073 8.434.256 2.772.697 5.524 1.318 8.238 2.811 8.238 6.735 12.357 7.579 17.177.143 1.307.073 2.628-.206 3.913-.07.728.013 1.463.246 2.157.232.693.608 1.33 1.103 1.869.705.816 1.668 1.365 2.729 1.555 1.478.082 2.96.082 4.438 0 2.55.249 5.121.173 7.651-.226.777-.117 1.516-.412 2.159-.862s1.173-1.044 1.548-1.733c.426-.821.595-1.75.484-2.668-.111-.916-.503-1.776-1.122-2.461-1.72-1.997-4.119-1.091-6.899-3.418-1.03-1.03-1.627-5.777-3.09-12.522-1.112-5.149-3.655-14.17-3.933-16.477-.536-3.789-1.222-7.565-2.06-11.327 1.174.623 2.311 1.31 3.409 2.06l.772.515c.556 2.78 1.03 5.581 1.421 8.382.288 2.409 3.089 11.904 4.387 18.535.416 2.781 1.008 5.533 1.771 8.239.33.284.721.488 1.143.597 1.843.401 7.414 1.998 7.703 8.228z" fill="#a92819"/><path d="m132.746 190.732h-2.575v9.268h2.575z" fill="#a92819"/><path d="m132.746 189.445h-2.575v1.288h2.575z" fill="#a92819"/><path d="m132.253 161.642c.11.917-.058 1.847-.484 2.667-.376.689-.906 1.283-1.549 1.733s-1.382.745-2.158.862c-2.531.399-5.102.475-7.652.226-1.478.083-2.96.083-4.438 0-1.061-.19-2.024-.739-2.729-1.555-.495-.539-.871-1.176-1.103-1.869-.232-.694-.316-1.429-.246-2.157.279-1.285.349-2.606.206-3.913-.844-4.768-4.768-8.98-7.579-17.177-.621-2.713-1.061-5.465-1.318-8.238-1.489-2.693-2.729-5.516-3.707-8.433-2.2346 6.436-2.5847 5.91-4.1191 12.892-1.5343 6.982-3.46 11.492-5.4577 18.68-1.2254 4.397 1.2048 7.332-2.3067 10.617-1.5446 1.143-2.5538.927-6.4463.916-4.3353 0-5.4577.217-6.8582-1.029-.6585-.722-1.101-1.614-1.2769-2.575-.1769-.965-.0806-1.96.2781-2.873.2597-.674.6647-1.283 1.1861-1.783.5215-.5 1.1466-.879 1.8311-1.11.6493-.755 1.1146-1.651 1.3592-2.616.7518-4.325.484-10.298 1.555-15.869 1.0709-5.571 3.3776-8.238 3.7071-10.112.1854-3.944.484-8.238.8547-12.192l.2472.103c1.1413.415 2.3071.758 3.4908 1.029-.1853 2.06-.3604 4.181-.4427 5.922.0018 2.033-.1462 4.064-.4428 6.075-.4671 1.525-1.1026 2.993-1.8948 4.377-.8471 1.758-1.4433 3.626-1.7712 5.55-.4317 2.815-.7204 5.651-.865 8.496-.1853 2.78-.3295 5.087-.5355 6.569-.1025 1.024-.3959 2.02-.865 2.935-.3896.781-.8589 1.52-1.4004 2.204-.385.425-.846.774-1.3593 1.03-.3244.101-.6254.265-.8856.484-.1742.243-.2679.535-.2678.834-.0308.222-.0308.447 0 .669 0 .124 0 .124.1854.124h6.6728c.4655.051.9351.051 1.4005 0 0 0 .0721 0 .2266-.309.2865-.471.4527-1.005.484-1.555v-3.285c.1504-1.969.4953-3.918 1.0297-5.818.6385-2.379 1.555-5.2 2.4817-8.012.9268-2.811 1.555-5.633 2.1728-7.754.6179-2.121.8856-3.738 1.555-5.571.6693-1.833 1.4416-3.934 2.3375-6.621.7106-2.152 1.4417-4.686 1.9875-6.58 1.1739-.309 2.3581-.67 3.6862-1.03.072.206.124.401.186.597.69 2.06 1.73 5.334 2.626 7.754.617 1.603 1.35 3.158 2.193 4.655.431.699.744 1.464.927 2.265.175.803.247 1.936.381 3.09.095 1.252.287 2.495.576 3.717.371 1.321.85 2.609 1.432 3.851.607 1.349 1.318 2.811 2.059 4.325.742 1.514 1.555 3.09 2.266 4.387.589 1.097 1.105 2.233 1.544 3.398.356 1 .602 2.036.732 3.09.103.837.103 1.685 0 2.522-.083.742-.227 1.391-.227 1.844-.012.168.012.336.072.494.056.161.139.311.247.443.133.133.29.238.464.309.172.058.355.076.535.051.577 0 1.555-.103 2.605-.113 1.051-.01 2.369.093 3.543.113 1.031.029 2.063-.009 3.089-.113.673.011 1.338-.156 1.926-.484.088-.071.161-.159.216-.258.05-.098.075-.208.072-.319.002-.11-.023-.22-.072-.319-.055-.099-.128-.186-.216-.257-.657-.295-1.349-.503-2.06-.618-.845-.263-1.662-.608-2.44-1.03-.856-.376-1.638-.902-2.307-1.555-.811-1.015-1.387-2.196-1.689-3.46-.463-1.555-.844-3.841-1.452-6.827-.607-2.987-1.441-6.797-2.214-9.948-.772-3.151-1.555-5.663-2.152-8.454s-1.03-5.859-1.555-8.681c-.422-2.482-.865-4.788-1.349-6.838 1.439.188 2.833.627 4.119 1.298.838 3.735 1.524 7.51 2.06 11.327.278 2.286 2.821 11.328 3.933 16.476 1.483 6.745 2.06 11.493 3.09 12.522 2.821 2.328 5.148 1.421 6.899 3.419.617.655 1.022 1.48 1.164 2.369z" fill="#f4f4f4"/><path d="m127.197 10.7197c.474-.002.939.1367 1.334.3987.396.2619.705.6353.889 1.073.183.4376.233.9198.142 1.3857-.09.4658-.317.8943-.651 1.2313s-.761.5673-1.226.6619-.948.0491-1.387-.1306-.815-.4856-1.08-.8791c-.266-.3934-.408-.8567-.41-1.3312 0-.6355.251-1.2453.698-1.6966.448-.4514 1.055-.7076 1.691-.7131z" fill="#2a3277"/><g fill="#a92819"><path d="m126.403 190.732h-2.575v9.268h2.575z"/><path d="m126.403 189.445h-2.575v1.288h2.575z"/><path d="m126.32 163.289c-1.027.105-2.059.142-3.09.114-1.174 0-2.481-.134-3.542-.114-1.061.021-2.06.114-2.605.114-.18.024-.364.006-.536-.052-.173-.071-.331-.176-.463-.309-.108-.132-.192-.282-.247-.443-.06-.157-.085-.326-.073-.494 0-.453.145-1.102.227-1.843.103-.838.103-1.685 0-2.523-.13-1.054-.375-2.09-.731-3.089-.439-1.166-.955-2.301-1.545-3.399-.71-1.287-1.472-2.862-2.265-4.386s-1.504-2.976-2.06-4.325c-.582-1.243-1.06-2.531-1.431-3.852-.289-1.222-.482-2.465-.577-3.717-.134-1.174-.206-2.307-.381-3.089-.183-.801-.496-1.567-.927-2.266-.842-1.496-1.575-3.052-2.193-4.654-.896-2.42-1.936-5.726-2.626-7.754-.062-.196-.113-.392-.185-.598 1.544-.484 3.305-1.03 5.488-1.668 1.419-.677 3.003-.931 4.562-.731.484 2.059.927 4.356 1.349 6.838.474 2.821.937 5.89 1.555 8.68.618 2.791 1.38 5.304 2.152 8.455.773 3.151 1.607 6.951 2.214 9.947.608 2.997 1.03 5.273 1.452 6.828.302 1.263.878 2.445 1.689 3.46.669.652 1.451 1.179 2.307 1.554.778.422 1.595.767 2.44 1.03.711.115 1.403.323 2.06.618.088.071.161.159.216.258.049.099.074.208.072.319.003.111-.021.22-.072.319-.055.099-.128.186-.216.257-.612.356-1.311.534-2.018.515z"/><path d="m120.708 84.3475c-.371 1.2872-.731 2.492-1.03 3.5011-1.026-.6833-2.096-1.2991-3.203-1.8432.381-1.1431.742-2.2964 1.03-3.4497 1.099.5386 2.168 1.1368 3.203 1.7918z"/><path d="m119.44 190.732h-2.574v9.268h2.574z"/><path d="m119.44 189.445h-2.574v1.288h2.574z"/><path d="m119.318 118.062-.772-.515c-1.097-.749-2.235-1.437-3.409-2.059-.236-1.03-.494-2.122-.751-3.172-.062-.288-.134-.566-.206-.824 1.433.421 2.815 1.001 4.119 1.73.36 1.607.71 3.213 1.019 4.84z"/><path d="m117.361 109.381c.319 1.287.628 2.554.927 3.841-1.304-.729-2.686-1.31-4.119-1.73-1.504-6.024-2.894-9.649-3.769-12.3572 1.377.0891 2.735.3662 4.036.8238.711 2.1834 1.432 4.5104 2.925 9.4224z"/></g><path d="m116.024 81.8556c.494.2059 1.03.4428 1.493.7002-.329 1.1534-.69 2.3067-1.029 3.4497-.539-.2677-1.093-.5049-1.658-.7105-.579-.3258-1.177-.6147-1.792-.865.144-.4634.298-.9783.463-1.5652.165-.587.35-1.1843.536-1.8433.677.2404 1.341.5189 1.987.8341z" fill="#f4f4f4"/><path d="m116.446 86.0054c-.247.7518-.505 1.4932-.773 2.2449-.628 1.1533-1.781 5.1488-6.085 5.5813-.073.6502-.073 1.3064 0 1.9566-1.258.0371-2.508.2098-3.728.5148-.114-1.0258-.169-2.0572-.165-3.0892-.143-1.4874-.084-2.9873.175-4.4589.278-.6899.917 0 1.421.381.374.3683.834.6373 1.339.7826.399.1244.826.1244 1.225 0 .482-.1649.886-.5024 1.133-.9474.507-.8278.938-1.6998 1.287-2.6052.237-.6179.443-1.2461.67-1.9875.614.2503 1.213.5392 1.791.865.585.2205 1.155.475 1.71.762z" fill="#f4f4f4"/><path d="m109.504 70.0958c.33 0 .33 0 .33.2059v1.6271c0 .1338 0 .1338-.917.1338h-3.697c-.877-.0033-1.754.0448-2.626.1442-.823.0927-1.802.2574-2.337.3398-.256.0438-.5168.0438-.7724 0-.1339 0-.2678-.1956-.2678-.7723.036-.7186.1185-1.434.2472-2.1419.0927-.5458.1132-.6385.597-.7002.484-.0618 1.39-.1236 1.957-.2266.566-.103.772-.2677 1.184-1.1018.583-1.1786 1.032-2.4186 1.339-3.6969.276-1.238.311-2.5176.103-3.7689-.158-.9555-.535-1.8614-1.102-2.6465-.571-.8287-1.344-1.4984-2.245-1.9462-1.003-.4256-2.0976-.5921-3.182-.484v-.1236c-1.1033.0608-2.1701.4165-3.0893 1.0298-.7908.6297-1.39 1.4679-1.73 2.4199-.304.822-.4167 1.7024-.3295 2.5744.0907.8869.2526 1.765.484 2.6259.2498.9289.3472 1.8923.2883 2.8524.0319 1.6204-.4315 3.212-1.3284 4.5619-1.0571.8743-2.3867 1.3515-3.7586 1.349-.8811.0806-1.7242.3972-2.4405.9164-.5484.4577-.9139 1.0973-1.0298 1.8021-.1246.7752-.1141 1.566.0309 2.3376.1626.8616.3828 1.7113.659 2.5435.3399 1.0298.8342 2.3684 1.658 4.2838.1544.3707.3295.762.5045 1.1739-.2334-.126-.4541-.2743-.659-.4428-1.6991-1.0297-3.0893-1.9565-4.9429-3.1819-.6655-1.8828-1.0742-3.8468-1.2151-5.8388-.0378-.9234.1129-1.8449.4428-2.7082.3363-.8652.8442-1.6533 1.4932-2.317.8616-.8789 1.9208-1.5391 3.0893-1.9257 1.3489-.4325 2.9657-.4942 3.2334-.6178.3708-1.3759.3708-2.8255 0-4.2014h.1545c-.7724-3.4291-.9062-6.3948 1.5549-9.7622 1.1278-1.2612 2.5579-2.215 4.1557-2.7716 1.5978-.5567 3.3109-.6978 4.9786-.4103 5.725.7929 8.639 6.1785 8.238 11.142h46.885c2.904 0 3.954 2.4405 3.82 4.7575.082.6211.033 1.2525-.144 1.8535-.186.6-.506 1.1494-.937 1.6065-.429.4521-.953.8037-1.534 1.0297-.584.2248-1.209.3196-1.833.2781h-18.114c-.354.6129-.87 1.1156-1.493 1.4519-.631.339-1.346.4892-2.06.4325h-5.674c-1.184 2.0595-3.573 1.9257-4.654 1.9257h-3.584c-.504 2.3066-1.029 4.5927-1.75 6.8582-.505-.2575-1.03-.4943-1.493-.7003-.67-.3177-1.358-.5962-2.06-.8341.309-1.0297.628-2.1728.906-3.2025.434-1.2729.65-2.6097.639-3.9543-.053-.3103-.165-.6075-.33-.8753-.162-.2663-.375-.4974-.628-.6796-.288-.2472-.299-.2678 1.359-.2884h6.663c1.658 0 1.658 0 1.658-.2986v-1.2666c0-.3192 0-.3604 1.544-.3707h7.621v-1.7403c0-.3089 0-.2471 3.676-.2266 3.676.0206 11.039 0 14.705 0s3.686 0 3.686-.3295v-1.5549h-47.461s-.083 0-.083.659v2.5538c0 .6385 0 .6385.33.6385z" fill="#f4f4f4"/><path d="m115.54 73.8852c.011 1.3446-.205 2.6814-.638 3.9543-.278 1.0298-.598 2.1522-.907 3.2025-1.082-.3688-2.195-.6411-3.326-.8135-7.816-1.5652-17.1245 8.3102-22.6544 5.1488-.175-.4119-.3501-.8032-.5045-1.1739-.8238-1.9153-1.3181-3.2231-1.6579-4.2838-.268-.8225-.4813-1.6619-.6385-2.5126-.1747-.7629-.2165-1.5502-.1236-2.3273.1159-.7048.4814-1.3444 1.0298-1.802.7163-.5193 1.5594-.8359 2.4405-.9165 1.3719.0026 2.7015-.4746 3.7586-1.349.8969-1.3499 1.3604-2.9415 1.3284-4.5619.0903-.9585.0242-1.9253-.1956-2.8627-.2192-.8722-.3672-1.7607-.4428-2.6568-.0872-.872.0255-1.7524.3295-2.5744.34-.952.9392-1.7901 1.73-2.4199.9192-.6133 1.986-.9689 3.0893-1.0298v.1236c1.0844-.1081 2.1782.0584 3.1822.484.901.4478 1.674 1.1176 2.245 1.9462.567.7851.944 1.691 1.101 2.6465.209 1.2513.174 2.5309-.103 3.7689-.307 1.2784-.756 2.5183-1.338 3.6969-.412.8341-.608 1.0298-1.184 1.1018-.577.0721-1.483.1648-1.957.2266-.4737.0618-.5046.1544-.5972.7002-.1461.7341-.2424 1.4772-.2884 2.2243 0 .5767.1339.7723.2678.7723.2556.0438.5168.0438.7718 0 .536-.0824 1.514-.2471 2.338-.3398.872-.0994 1.749-.1475 2.626-.1442h3.676c.917 0 .917 0 .917-.1338v-1.6786c0-.2059 0-.2059-.33-.2059h-1.287c-.33 0-.33 0-.33-.6385v-2.5538c0-.659.083-.659.083-.659h47.523v1.5549c0 .3296 0 .3296-3.686.3296-3.687 0-11.019 0-14.705 0-3.687 0-3.677-.0824-3.677.2265v1.7403h-7.62c-1.544 0-1.544.0515-1.544.3707v1.2563c0 .2987 0 .2987-1.658.2987h-6.663c-1.658 0-1.647 0-1.359.2883.253.1822.466.4133.628.6796.175.2725.294.577.35.8959z" fill="#a92819"/><path d="m114.385 112.316c.257 1.03.515 2.111.752 3.171-1.287-.67-2.681-1.11-4.119-1.297-.073-.278-.134-.536-.206-.803-.227-.886-.464-1.73-.701-2.533 1.366.024 2.721.239 4.027.638.113.257.185.494.247.824z" fill="#f4f4f4"/><path d="m114.046 96.2511c-.215.1594-.439.3072-.669.4428.401 1.2049.71 2.1934 1.029 3.2129-1.301-.4575-2.659-.7347-4.036-.8238-.35-1.0749-.608-2.1771-.773-3.2953 1.497-.0446 2.993.1112 4.449.4634z" fill="#a92819"/><path d="m114.047 81.0217c-.186.659-.371 1.2769-.536 1.8433-.165.5663-.319 1.1018-.463 1.5652-9.186-3.6763-15.5085 5.293-23.314 4.706-.5046-1.1945-1.0916-2.5126-1.6271-3.7277 5.4887 3.0893 14.7981-6.7656 22.6551-5.1488 1.115.1579 2.214.4129 3.285.762z" fill="#a92819"/><path d="m113.016 84.4297c-.227.7414-.432 1.3696-.669 1.9874-.35.9054-.781 1.7774-1.288 2.6053-.247.445-.651.7825-1.132.9474-.399.1243-.827.1243-1.226 0-.504-.1453-.964-.4143-1.338-.7826-.505-.381-1.143-1.0298-1.421-.381-.259 1.4716-.318 2.9714-.176 4.4588-.003 1.0321.052 2.0635.165 3.0893-2.904.7794-5.62 2.1423-7.9804 4.0057-1.6888 1.349-4.119 1.339-6.714.711 0-.062 0-.134.0721-.186.3491-1.0723.5466-2.1884.5869-3.3156.0161-1.1045-.0979-2.2071-.3398-3.2849-.3296-1.3234-.7741-2.6155-1.3284-3.8616-.1544-.4016-.3501-.8341-.5458-1.2975 7.8056.5972 14.1284-8.372 23.3344-4.6957z" fill="#a92819"/><path d="m112.469 190.732h-2.574v9.268h2.574z" fill="#a92819"/><path d="m112.469 189.445h-2.574v1.288h2.574z" fill="#a92819"/><path d="m110.855 113.387c.072.267.134.525.206.803-1.559-.2-3.143.054-4.562.731-2.183.638-3.944 1.184-5.489 1.668-.276-.927-.62-1.832-1.0293-2.708-.0778-.137-.1711-.265-.2781-.381 3.5324-1.184 6.6724-2.688 10.4834-2.647.206.804.442 1.648.669 2.534z" fill="#a92819"/><path d="m110.412 99.0832c.875 2.7598 2.265 6.3848 3.769 12.3568-1.306-.398-2.662-.613-4.027-.638-.37-1.236-.751-2.399-1.122-3.584-.597-1.956-1.215-4.047-1.73-5.602-.258-.7-.494-1.4-.7-2.1209 1.235-.3615 2.525-.501 3.81-.4119z" fill="#f4f4f4"/><path d="m110.41 99.0833c-1.287-.0724-2.577.0845-3.81.4634-.195-.6178-.36-1.2357-.515-1.8639-.061-.453-.133-.9164-.175-1.3798 1.221-.3051 2.471-.4777 3.728-.5149.165 1.1181.423 2.2204.772 3.2952z" fill="#f4f4f4"/><path d="m110.155 110.853c-3.81 0-6.951 1.463-10.4833 2.647-.0372-.043-.0831-.077-.1347-.1-.0515-.023-.1075-.035-.164-.034-.1197.007-.2361.043-.3398.103-.102.059-.1898.14-.2574.237-.0037.034-.0037.068 0 .103-2.2903.762-4.6916 1.138-7.1054 1.112-.6634-.053-1.3234-.143-1.9771-.268-.5767-.093-1.143-.216-1.7094-.36.1616-2.073.4331-4.135.8135-6.179.2775-1.302.6597-2.58 1.143-3.82 8.2381 1.915 11.3276-3.162 16.7126-4.7784.206.7204.443 1.4214.701 2.1214.515 1.555 1.132 3.645 1.73 5.602.319 1.215.7 2.379 1.071 3.614z" fill="#a92819"/><path d="m109.588 93.832c4.305-.4531 5.458-4.4279 6.086-5.5813.268-.7517.525-1.4931.772-2.2448 1.107.5441 2.177 1.1599 3.203 1.8432-.268.8341-.505 1.5344-.711 2.0596-.904 2.5858-2.601 4.8202-4.85 6.3845-1.452-.3513-2.945-.5072-4.438-.4634-.096-.6615-.117-1.3316-.062-1.9978z" fill="#a92819"/><path d="m106.087 97.6829c.154.6282.319 1.246.515 1.8639-5.334 1.6172-8.4341 6.6932-16.7133 4.7782 0-.062 0-.113.0721-.175.4325-1.102.8958-2.121 1.2563-3.089 2.5435.628 5.0252.638 6.714-.711 2.3609-1.8634 5.0759-3.2264 7.9809-4.0058.041.4222.113.8856.175 1.3387z" fill="#a92819"/><path d="m105.51 190.732h-2.574v9.268h2.574z" fill="#a92819"/><path d="m105.51 189.445h-2.574v1.288h2.574z" fill="#a92819"/><path d="m97.7153 116.332c.203-.892.5509-1.744 1.0298-2.523l.9474-.309c.1069.116.2002.244.278.381.4095.876.7535 1.781 1.0295 2.708-1.3281.412-2.5124.773-3.6863 1.03z" fill="#f4f4f4"/><path d="m99.3715 113.366c.0565 0 .1124.011.1639.034.0516.024.0975.058.1347.1l-.9474.309c-.0036-.034-.0036-.069 0-.103.0676-.097.1555-.177.2575-.237.1189-.068.254-.104.3913-.103z" fill="#efe7dc"/><path d="m98.7227 113.809c-.4789.779-.8268 1.631-1.0298 2.523l-.3913 1.339c-1.5728.412-3.173.711-4.7884.896-1.1537-.05-2.3028-.177-3.4394-.381-.5011-.09-1.0057-.193-1.5137-.309.1132-1.257.2265-2.472.3398-3.532-.0049-.017-.0049-.035 0-.052.5663.144 1.1327.268 1.7094.36.6536.126 1.3137.215 1.9771.268 2.4241.03 4.8361-.346 7.1363-1.112z" fill="#a92819"/><path d="m98.539 190.732h-2.5744v9.268h2.5744z" fill="#a92819"/><path d="m98.539 189.445h-2.5744v1.288h2.5744z" fill="#a92819"/><path d="m94.3579 32.3962-2.2757 1.1843c-.0927-.1648-9.2679-17.0632-48.131-31.16056l.8753-2.41994c39.9238 14.499 49.1607 31.6651 49.5314 32.3962z" fill="#4c8bca"/><path d="m91.5768 190.732h-2.5744v9.268h2.5744z" fill="#a92819"/><path d="m91.5768 189.445h-2.5744v1.288h2.5744z" fill="#a92819"/><path d="m91.2147 101.019c-.3604 1.03-.8238 2.06-1.2563 3.09 0 .061 0 .113-.0721.175-1.2428-.282-2.4616-.661-3.6453-1.133.5354-1.431 1.0297-2.41 1.3489-3.3468 1.1751.4978 2.387.9038 3.6248 1.2148z" fill="#f4f4f4"/><path d="m89.8883 104.325c-.4833 1.241-.8656 2.519-1.143 3.821-.3804 2.043-.652 4.106-.8136 6.178-.9078-.209-1.802-.474-2.6773-.793-.3399-.123-.69-.267-1.0298-.422.1751-1.483.3501-2.883.5252-4.191.3085-1.966.8086-3.898 1.4931-5.767 1.1825.487 2.4014.879 3.6454 1.174z" fill="#f4f4f4"/><path d="m88.0538 85.4085c.5355 1.2151 1.1224 2.5332 1.627 3.7277-1.0191-.0766-2.0199-.3129-2.9657-.7003l-2.0595-1.1842c-.865-1.9668-1.6167-3.738-2.2037-5.468 1.8948 1.2254 3.2438 2.1419 4.9429 3.182.2049.1684.4256.3167.659.4428z" fill="#f4f4f4"/><path d="m87.2718 93.3685c.7839 1.7437.9861 3.6933.5766 5.5607-.0548.2978-.134.5906-.2368.8753-1.3696-.5766-2.6465-1.2357-3.7072-1.8123v-.1236c.309-1.1327-.175-2.4817-1.4107-5.4474-1.174-2.6568-2.6053-5.5916-3.6866-8.6912l.6694.4428c1.4107.9474 3.4703 2.1316 5.1488 3.0893.8341 1.8329 1.7403 3.841 2.6465 6.1064z" fill="#a92819"/><path d="m87.9299 114.293c-.0049.017-.0049.035 0 .052-.1133 1.029-.2265 2.276-.3398 3.532-1.1837-.271-2.3496-.615-3.4909-1.03l-.2471-.103c.1235-1.256.2471-2.482.3707-3.666.3501.155.7002.299 1.0297.422.8754.319 1.7695.584 2.6774.793z" fill="#f4f4f4"/><path d="m87.2731 93.3682c-.9062-2.2654-1.8124-4.2735-2.6156-6.1167l2.0595 1.1842c.9458.3874 1.9465.6237 2.9657.7002.1957.4634.3913.8959.5458 1.2975.5543 1.2461.9988 2.5382 1.3284 3.8616.241 1.0745.3551 2.1736.3398 3.2747-.0526 1.1073-.2571 2.2022-.6076 3.2543 0 0 0 .123-.0721.185-1.2308-.312-2.4357-.718-3.6041-1.2151.1028-.2847.182-.5775.2368-.8753.4073-1.8641.2051-3.8098-.5766-5.5504z" fill="#f4f4f4"/><path d="m87.6121 99.8041c-.3089.9369-.8135 1.9149-1.349 3.3469l-.659-.268c-.9351-.581-1.901-1.11-2.8937-1.586.4873-1.067.8868-2.1729 1.1946-3.3053 1.0606.6076 2.3375 1.2357 3.7071 1.8124z" fill="#a92819"/><path d="m85.6029 102.883.659.268c-.6938 1.861-1.2042 3.786-1.524 5.746-.1751 1.308-.3501 2.708-.5252 4.191-1.321-.587-2.5948-1.276-3.8101-2.059.1339-1.133.278-2.245.4222-3.306.4081-2.18 1.0396-4.313 1.8844-6.364.9913.456 1.9572.965 2.8937 1.524z" fill="#a92819"/><path d="m84.6057 190.732h-2.5745v9.268h2.5745z" fill="#a92819"/><path d="m84.6057 189.445h-2.5745v1.288h2.5745z" fill="#a92819"/><path d="m84.1842 113.078c-.1236 1.184-.2471 2.409-.3707 3.666-1.3378-.515-2.6296-1.142-3.8616-1.874.1339-1.329.278-2.637.4222-3.903 1.2137.801 2.4875 1.506 3.8101 2.111z" fill="#a92819"/><path d="m84.656 87.2722c-1.6785-.9474-3.738-2.1316-5.1488-3.0893l-.6693-.4428c-.6125-1.7139-1.0742-3.4781-1.3799-5.2723 1.3696.8959 2.7186 1.8021 4.119 2.7185l.9268.6076c.5355 1.7197 1.2872 3.4909 2.1522 5.4783z" fill="#a92819"/><path d="m82.5649 41.6538-1.4726 1.0298-.6075.4531c-.2884-.381-11.5951-15.0551-44.2797-16.7645l.1338-2.5641c34.2808 1.8021 45.7832 17.1867 46.226 17.8457z" fill="#4c8bca"/><path d="m77.6435 190.732h-2.5744v9.268h2.5744z" fill="#a92819"/><path d="m77.6435 189.445h-2.5744v1.288h2.5744z" fill="#a92819"/><path d="m78.0051 161.065c.5133-.256.9743-.605 1.3593-1.03.5416-.684 1.0109-1.423 1.4005-2.204.469-.915.7624-1.911.865-2.934.2059-1.483.3501-3.79.5354-6.57.1446-2.845.4333-5.68.865-8.496.3429-1.919.9529-3.78 1.8124-5.53.7922-1.384 1.4278-2.851 1.8948-4.376.2967-2.012.4447-4.042.4428-6.076.0824-1.74.2574-3.882.4428-5.921.508.11 1.0126.213 1.5137.309 1.1366.204 2.2857.332 3.4394.381 1.6154-.184 3.2156-.484 4.7884-.896-.5458 1.895-1.2769 4.428-1.9874 6.58-.8959 2.688-1.6682 4.789-2.3376 6.622-.6693 1.833-.9371 3.439-1.5549 5.571-.6179 2.131-1.2357 4.953-2.1728 7.754s-1.8433 5.633-2.4817 8.011c-.5344 1.901-.8794 3.85-1.0298 5.818v3.285c-.0313.551-.1975 1.085-.484 1.555-.1545.309-.2265.309-.2265.309-.4654.052-.9351.052-1.4005 0h-6.714c-.1854 0-.1854 0-.1854-.123-.0309-.222-.0309-.448 0-.67-.0001-.299.0935-.591.2677-.834.2739-.244.5969-.427.9474-.535z" fill="#a92819"/><path d="m70.6723 190.732h-2.5744v9.268h2.5744z" fill="#a92819"/><path d="m70.6723 189.445h-2.5744v1.288h2.5744z" fill="#a92819"/><path d="m64.2873 190.732h-2.5744v9.268h2.5744z" fill="#a92819"/><path d="m64.2873 189.445h-2.5744v1.288h2.5744z" fill="#a92819"/><path d="m61.0441 126.135h-58.85074v2.575h58.85074z" fill="#179e6c"/><path d="m60.6325 134.013h-58.85076v2.574h58.85076z" fill="#a92819"/><path d="m58.7785 158.5c.4745 0 .9384.141 1.333.405s.7021.638.8837 1.077c.1816.438.2291.92.1365 1.386-.0925.465-.3211.893-.6566 1.228-.3356.336-.7631.564-1.2285.657s-.9479.045-1.3863-.136c-.4384-.182-.8131-.49-1.0768-.884-.2636-.395-.4043-.859-.4043-1.333.0027-.636.2563-1.244.7057-1.694.4494-.449 1.0581-.703 1.6936-.706z" fill="#2a3277"/><path d="m60.5395 142.56h-58.85078v2.574h58.85078z" fill="#179e6c"/><path d="m57.3281 190.732h-2.5744v9.268h2.5744z" fill="#a92819"/><path d="m57.3281 189.445h-2.5744v1.288h2.5744z" fill="#a92819"/><path d="m50.488 152.786c.4771-.011.9463.122 1.3478.38.4015.257.7171.629.9063 1.067s.2435.923.156 1.392-.3129.901-.6473 1.241c-.3345.341-.7628.573-1.2303.669-.4674.096-.9528.05-1.3941-.132-.4412-.181-.8183-.49-1.0831-.887-.2647-.397-.4051-.864-.4031-1.341-.0001-.627.2459-1.228.6851-1.675.4391-.447 1.0363-.703 1.6627-.714z" fill="#2a3277"/><path d="m50.488 164.02c.4766-.01.9454.122 1.3467.379.4013.258.7168.629.9064 1.066.1895.437.2444.921.1577 1.39s-.311.901-.6444 1.242-.7608.574-1.2276.671-.9518.053-1.3932-.127-.8193-.488-1.0853-.883c-.2659-.396-.4081-.862-.4082-1.339-.0001-.627.2456-1.23.6845-1.678.4389-.449 1.036-.707 1.6634-.721z" fill="#2a3277"/><path d="m50.3569 190.732h-2.5744v9.268h2.5744z" fill="#a92819"/><path d="m50.3569 189.445h-2.5744v1.288h2.5744z" fill="#a92819"/><path d="m41.9638 158.5c.4745 0 .9384.141 1.333.405s.7021.638.8837 1.077c.1816.438.2291.92.1365 1.386-.0925.465-.3211.893-.6566 1.228-.3356.336-.7631.564-1.2285.657s-.9479.045-1.3863-.136c-.4384-.182-.8131-.49-1.0768-.884-.2636-.395-.4043-.859-.4043-1.333 0-.637.2527-1.247.7027-1.697s1.0603-.703 1.6966-.703z" fill="#2a3277"/><path d="m43.3828 190.732h-2.5745v9.268h2.5745z" fill="#a92819"/><path d="m43.3828 189.445h-2.5745v1.288h2.5745z" fill="#a92819"/><path d="m40.5822 68.2009c.0953.4629.0486.9439-.1339 1.3799-.1818.432-.4867.801-.8767 1.061-.3901.26-.8479.3995-1.3167.4012-.6287.0009-1.2321-.2472-1.6785-.6899-.4433-.4502-.6913-1.057-.6899-1.6888.0011-.3501.0796-.6957.2297-1.012s.3682-.5956.6387-.8179.5867-.3821.9261-.4681.6936-.096 1.0373-.0293c.4612.0952.8839.3244 1.2151.6591.3311.3282.557.7477.6488 1.2048z" fill="#a92819"/><path d="m36.7218 107.744c-.1022.232-.2574.436-.4531.597-.3278.284-.6716.549-1.0298.793-.363.244-.7414.464-1.1327.659-2.1189.895-4.4697 1.082-6.7037.536-2.3639-.422-4.5298-1.591-6.1786-3.337-1.4325-1.862-2.2753-4.111-2.4199-6.456-.1256-2.5958.4772-5.1747 1.7403-7.4455 1.2104-2.2576 2.8969-4.2252 4.9428-5.7667 2.1017-1.6551 4.6372-2.6672 7.301-2.9142 13.5619-1.5549 25.8882 8.8662 36.6183 17.9174 3.5018 3.08 7.1735 5.961 10.9978 8.63-.1442 1.266-.2883 2.574-.4222 3.903-4.0264-2.369-8.3308-5.973-12.872-9.835-10.1946-8.5775-21.8927-18.4323-33.9306-17.073h-.0927c-1.973.2082-3.8452.9764-5.3959 2.2139-1.6334 1.2506-2.9786 2.838-3.944 4.6546-.9599 1.6875-1.4272 3.6105-1.349 5.5505.1266 1.594.6974 3.121 1.6476 4.407 1.1447 1.051 2.5809 1.729 4.1191 1.946.7264.163 1.4696.239 2.214.227-1.3155-1.173-2.2932-2.677-2.8319-4.356-.2074-.978-.2074-1.988 0-2.9656.3651-1.6106 1.2476-3.0574 2.5126-4.119 1.2836-1.0287 2.7949-1.7349 4.4074-2.0595 1.5329-.3399 3.1216-.3399 4.6545 0l.6282.1544c2.4968.9035 4.5844 2.6766 5.8799 4.9944 1.4705 2.2993 2.022 5.0673 1.5447 7.7543 0 .226-.103.453-.1648.669-.4631 1.481-1.121 2.894-1.9566 4.202-.8106 1.276-1.8027 2.428-2.9451 3.418-3.8192 3.046-8.5853 4.657-13.4692 4.552-3.0987-.033-6.1592-.688-9.0001-1.926-3.684-1.497-6.8178-4.091-8.9753-7.432-2.15742-3.34-3.23396-7.264-3.08322-11.2373.02078-2.4599.46311-4.898 1.30779-7.2083.57924-1.5873 1.31033-3.115 2.18313-4.5619v-12.3571c-.7441.9902-1.43165 2.0216-2.05955 3.0893-.23586.3825-.60131.6676-1.02976.8032-.46309.1215-.95546.0549-1.36959-.1854-.20802-.1166-.3902-.2742-.53547-.4634-.14327-.187-.24825-.4004-.30893-.6281-.04116-.2351-.04116-.4755 0-.7105.01096-.2306.06328-.4573.15447-.6694 2.00114-3.595 4.72353-6.7377 7.99653-9.2309 3.2729-2.4933 7.0258-4.2833 11.0231-5.2578 7.3525-1.8124 16.4762-1.3696 27.4637 2.5847l.2266.103c8.5178 4.4249 16.8044 9.2814 24.8275 14.5505.3057 1.7942.7674 3.5584 1.3799 5.2723-3.1511-2.1213-7.1363-4.7677-12.3572-7.9188v10.2976c5.7564 3.6453 10.5448 7.1465 14.4167 9.999l.103.0823c.2162.1648 1.3078.8856 2.8524 1.7506-.3078 1.1325-.7073 2.2384-1.1945 3.3054-1.3249-.611-2.593-1.3379-3.7895-2.1726h-.1133c-10.3999-7.9915-21.6515-14.8087-33.5496-20.3275-3.1037-1.1315-6.3764-1.7304-9.6797-1.7712-5.2866-.0436-10.4517 1.5856-14.7565 4.6545-3.8588 2.6833-6.8166 6.4702-8.4852 10.864-.7043 1.9597-1.0733 4.0241-1.0916 6.1065-.1509 3.2613.7128 6.4883 2.4721 9.2383 1.7594 2.749 4.3279 4.886 7.3518 6.115 2.3917 1.011 4.9622 1.529 7.5585 1.524 4.0541.106 8.0162-1.217 11.1935-3.738.853-.749 1.5951-1.616 2.2037-2.574.6618-1.028 1.1847-2.14 1.5549-3.306l.0824-.37c.2386-1.771-.1279-3.57-1.04-5.107-.9121-1.5362-2.3164-2.7195-3.9852-3.3579h-.3296c-1.0176-.2232-2.0716-.2232-3.0892 0-1.0251.2039-1.9818.6645-2.7804 1.3387-.6535.527-1.1224 1.2483-1.3387 2.0592-.0928.476-.0928.966 0 1.442.3103.952.8811 1.797 1.6476 2.441.6645.556 1.5015.866 2.3685.875.2375.003.4719.054.6895.15.2175.095.4137.233.5771.406.3261.349.5066.809.5046 1.287.0145.246-.0241.492-.1133.721zm26.1456-23.8493v-10.1431l-3.46-1.9978v10.1226c1.1739.6693 2.3273 1.3284 3.46 2.0183zm-7.0951-4.0161v-10.1946l-3.3673-1.8227v10.2976c1.1534.5664 2.2655 1.1431 3.3673 1.7197zm-7.0023-3.532v-9.9578c-6.5631-2.318-13.5795-3.0588-20.4819-2.1625v10.0093c2.3574-.587 4.7789-.8775 7.2083-.865 3.7431.0321 7.4528.7079 10.9669 1.9977h.1339zm-24.0964-.9268v-10.38c-1.127.3206-2.2313.7163-3.3055 1.1842v10.7507c1.0634-.5963 2.168-1.116 3.3055-1.5549zm-6.8479 3.944v-11.2244c-1.085.6882-2.1176 1.4557-3.0893 2.2963v11.6878c.9577-.9976 1.9905-1.9202 3.0893-2.7597z" fill="#0f7657"/><path d="m36.4326 190.732h-2.5744v9.268h2.5744z" fill="#a92819"/><path d="m36.4326 189.445h-2.5744v1.288h2.5744z" fill="#a92819"/><path d="m53.2901 47.4618c-17.7737-5.6637-35.2384-3.4394-51.95141 6.714l-1.33869-2.2037c21.6867-13.0985 41.4066-11.039 54.1345-6.92 8.2533 2.5833 15.941 6.7103 22.6547 12.1615l-1.6991 1.9256c-6.4876-5.1986-13.8777-9.1572-21.8-11.6774z" fill="#4c8bca"/><path d="m30.1518 1.60645c.8032 9.70035-1.3799 16.96015-6.4978 21.62495s-11.9556 5.5504-16.57917 5.5504c-1.72402.0088-3.44592-.122-5.1488-.3913l.47369-2.5332c.11327 0 12.15118 2.1316 19.56548-4.5412 4.4588-4.0676 6.3639-10.6478 5.5813-19.514z" fill="#2a3277"/><path d="m29.4614 190.732h-2.5744v9.268h2.5744z" fill="#a92819"/><path d="m29.4614 189.445h-2.5744v1.288h2.5744z" fill="#a92819"/><path d="m21.3676 158.604c.4754-.002.9407.137 1.3368.4.3962.262.7053.637.8882 1.076s.2312.922.139 1.388c-.0923.467-.321.895-.6572 1.231-.3361.337-.7646.565-1.231.658-.4664.092-.9496.043-1.3885-.139-.4388-.183-.8134-.492-1.0763-.889-.2629-.396-.4021-.861-.4001-1.336 0-.634.2517-1.242.6998-1.69.448-.448 1.0557-.699 1.6893-.699z" fill="#2a3277"/><path d="m22.4904 190.732h-2.5744v9.268h2.5744z" fill="#a92819"/><path d="m22.4904 189.445h-2.5744v1.288h2.5744z" fill="#a92819"/><path d="m15.528 190.732h-2.5744v9.268h2.5744z" fill="#a92819"/><path d="m15.528 189.445h-2.5744v1.288h2.5744z" fill="#a92819"/><path d="m13.1283 152.878c.4758.002.9403.146 1.3343.412.3941.267.6999.645.8786 1.086.1788.441.2224.925.1252 1.391-.0971.466-.3305.892-.6706 1.225s-.7715.557-1.2393.644-.9509.033-1.388-.155c-.437-.188-.8082-.502-1.0664-.902s-.3916-.867-.3835-1.343c.0108-.631.2698-1.232.7208-1.674.4511-.441 1.0578-.687 1.6889-.684z" fill="#2a3277"/><path d="m13.1283 164.123c.4723.002.9335.144 1.3258.407.3922.263.6981.636.8793 1.072s.2296.916.1391 1.38c-.0904.463-.3157.89-.6475 1.226-.3319.336-.7556.567-1.218.663-.4624.097-.9429.054-1.3814-.121-.4385-.176-.8154-.477-1.0835-.866-.268-.389-.4154-.848-.4235-1.32-.0055-.32.0529-.637.1716-.934.1188-.296.2956-.566.52-.793.2245-.228.4921-.408.7871-.53.295-.123.6115-.185.931-.184z" fill="#2a3277"/><path d="m10.5875 8.0425c.4608.00001.9111.13676 1.2941.39294.3829.25618.6812.62026.857 1.04611s.2213.89435.1307 1.34605-.3133.8664-.6398 1.1914c-.3265.3251-.7422.5459-1.1943.6346-.4521.0886-.9204.041-1.34543-.1367-.42506-.1777-.78782-.4776-1.0423-.8617s-.38923-.835-.38719-1.2957c-.00001-.3052.06026-.6073.17734-.88908.11709-.28178.28867-.53766.50491-.75295.21625-.21528.47288-.38573.75518-.50156.28229-.11583.58469-.17476.88979-.17341z" fill="#2a3277"/><path d="m8.5661 190.732h-2.5744v9.268h2.5744z" fill="#a92819"/><path d="m8.5661 189.445h-2.5744v1.288h2.5744z" fill="#a92819"/><path d="m4.54043 158.604c.47542-.002.94072.137 1.33687.4.39614.262.70526.637.88814 1.076.18287.439.23126.922.13901 1.388-.09225.467-.32098.895-.65715 1.231-.33617.337-.76464.565-1.23102.658-.46639.092-.94966.043-1.3885-.139-.43884-.183-.81346-.492-1.07632-.889-.26286-.396-.40211-.861-.40007-1.336.00271-.633.25528-1.239.70273-1.687.44744-.447 1.05353-.7 1.68631-.702z" fill="#2a3277"/><path d="m77.6442 189.445h-2.5744v1.287h-4.3971v-1.287h-2.5744v1.287h-3.8101v-1.287h-2.5744v1.287h-4.3868v-1.287h-2.5744v1.287h-4.3971v-1.287h-2.5744v1.287h-4.3971v-1.287h-2.5744v1.287h-4.3764v-1.287h-2.5744v1.287h-4.3971v-1.287h-2.5744v1.287h-4.3971v-1.287h-2.5744v1.287h-4.3971v-1.287h-2.5744v1.287h-4.37644v-1.287h-2.5744v1.287h-4.21172v-2.574h190.94826v2.574h-4.253v-1.287h-2.574v1.287h-4.397v-1.287h-2.575v1.287h-4.386v-1.287h-2.585v1.287h-4.377v-1.287h-2.574v1.287h-4.397v-1.287h-2.574v1.287h-4.398v-1.287h-2.574v1.287h-4.387v-1.287h-2.574v1.287h-4.397v-1.287h-2.575v1.287h-4.386v-1.287h-2.575v1.287h-3.769v-1.287h-2.574v1.287h-4.397v-1.287h-2.575v1.287h-4.386v-1.287h-2.575v1.287h-4.387v-1.287h-2.574v1.287h-4.397v-1.287h-2.5744v1.287h-4.3868v-1.287h-2.5744v1.287h-4.3971v-1.287h-2.5744v1.287h-4.3867z" fill="#a92819"/><path d="m17.6694 10.3598c0-1.40124-.4155-2.77101-1.194-3.93609-.7784-1.16508-1.8849-2.07315-3.1795-2.60938-1.2946-.53622-2.7191-.67653-4.09337-.40316-1.37431.27337-2.63669.94813-3.62751 1.93895s-1.66558 2.2532-1.93895 3.6275c-.27336 1.37428-.13306 2.79878.40317 4.09338s1.4443 2.4011 2.60938 3.1795c1.16508.7785 2.53484 1.194 3.93608 1.194.9304 0 1.8516-.1832 2.7112-.5393.8596-.356 1.6406-.8779 2.2985-1.5357.6578-.6579 1.1797-1.4389 1.5357-2.2985.3561-.8596.5393-1.7808.5393-2.7112zm-7.0847-9.648862c1.9108.000001 3.7787.566762 5.3674 1.628582 1.5887 1.06181 2.8267 2.57097 3.5575 4.33655.7307 1.76558.9214 3.70823.5479 5.58223-.3736 1.874-1.2945 3.595-2.6464 4.9455-1.3519 1.3504-3.074 2.2696-4.9483 2.6411-1.8744.3715-3.81685.1788-5.58165-.5539-1.76479-.7326-3.27263-1.9723-4.33276-3.5621-1.06012-1.5898-1.624885-3.4583-1.622847-5.3691.002729-2.55999 1.021587-5.01419 2.832737-6.8234 1.81115-1.80922 4.26643-2.825464 6.82642-2.825462z" fill="#179e6c"/></svg>