<svg fill="none" height="200" viewBox="0 0 186 200" width="186" xmlns="http://www.w3.org/2000/svg"><path d="m80.655 140.349c-.4975-.654-1.1431-1.572-1.8946-2.448-.8584-1.036-1.8353-1.968-2.9108-2.777-1.6463-1.224-3.3837-2.321-5.1971-3.282-1.9358-.995-3.9212-1.89-5.9486-2.682-1.937-.781-3.7682-1.456-5.0277-2.111-.9709-.425-1.8377-1.055-2.5404-1.847-.4025-.56-.7299-1.171-.9738-1.816-.3202-.78-.7362-1.517-1.2384-2.195-.4143-.535-.9892-.923-1.6406-1.109-.5634-.168-1.169-.127-1.7041.117-.5297.261-.9522.698-1.1961 1.235-.2752.57-.3599 1.245-.6457 1.889-.3948.858-1.0216 1.589-1.81 2.111-1.0584.718-2.572 1.584-3.6093 2.417-.8185.61-1.4789 1.407-1.9264 2.323-.33.616-.5554 1.283-.6669 1.974-.1263.537-.0856 1.101.1165 1.615.1171.161.2889.274.4835.319s.3989.018.5749-.077c.4383-.176.8429-.426 1.1961-.738.3493-.285.5716-.57.9209-.877.372-.378.7961-.701 1.2595-.96.574-.305 1.1768-.552 1.7994-.739.741-.222 1.6195-.433 2.5827-.686.8666-.255 1.7464-.463 2.6356-.623.2379-.054.4845-.06.7247-.017.2402.044.469.136.6725.27.9429.57 1.8448 1.205 2.6991 1.9 1.6194 1.214 4.3926 3.325 7.9702 6.281 3.5777 2.956 7.748 6.724 10.3413 8.941 1.3223 1.227 2.7697 2.313 4.3185 3.24.5553.37 1.2059.572 1.8735.581.8367-.106 1.6452-.371 2.3816-.781 1.5421-.75 3.0154-1.633 4.4032-2.639 2.3536-1.689 4.5854-3.541 6.6789-5.542 2.5411-2.434 4.9369-5.014 7.1769-7.727 1.695-2.08 3.271-4.255 4.72-6.513.677-1.135 1.472-2.197 2.371-3.166.647-.537 1.432-.881 2.265-.993.921-.179 2.043-.422 4.023-.865 2.467-.573 4.901-1.277 7.292-2.111 2.137-.763 4.232-1.637 6.277-2.618 1.567-.76 2.71-1.267 3.408-1.7.699-.432 1.006-.475 1.059-.422s.085.327-.392.908c-.625.76-1.195 1.565-1.704 2.407-.552.894-1.002 1.846-1.344 2.839-.396 1.24-.665 2.517-.805 3.811-.222 1.699-.423 3.99-.613 5.911-.093 1.657-.395 3.296-.9 4.877-.563 1.268-1.273 2.466-2.117 3.568-.605.713-1.056 1.543-1.323 2.438-.075.293-.085.598-.031.895.053.297.171.579.343.828.173.248.397.456.657.61.26.155.55.252.851.285.63.074 1.266.074 1.895 0 .812-.079 1.631-.047 2.435.095.644.211 1.229.573 1.704 1.055.623.507 1.289.959 1.99 1.352.894.517 1.846.928 2.836 1.224.822.253 1.688.329 2.541.222.227-.012.446-.085.635-.211.193-.121.353-.288.465-.486.106-.285 0-.559-.444-.844-.445-.285-1.122-.613-1.704-.94-.513-.294-1.008-.618-1.482-.971-.617-.39-1.155-.891-1.588-1.478-.561-.882-1.06-1.803-1.492-2.755-.477-.929-.942-1.71-1.165-2.322-.222-.6-.222-1.258 0-1.858.223-.834.667-2.111 1.609-4.549.942-2.439 2.403-6.239 3.758-9.712s2.762-6.682 3.419-8.867c.529-1.315.698-2.747.487-4.148-.029-.283-.119-.557-.265-.802-.148-.243-.347-.452-.582-.612-.586-.363-1.237-.61-1.916-.729-1.122-.221-2.267-.296-3.408-.221-1.862.096-3.717.293-5.557.591-2.435.359-5.398.907-7.886 1.351-2.487.443-4.467.834-5.694.95-1.228.116-1.482 0-1.705-.243-.222-.243-.158-.697 0-1.509.159-.813.424-2.027.699-3.283s.572-2.576.953-3.843c.437-1.263.938-2.5032 1.503-3.7152.432-.9541.813-1.9301 1.143-2.924.254-.8867.37-1.7734.571-2.3117.186-.4377.535-.7861.974-.9711l1.704-1.0556 2.795-1.52 4.128-2.2167c1.228-.6862 2.117-1.1401 2.805-1.4462s1.27-.3589 2.307-.8022c1.037-.4434 2.89-1.0556 4.446-1.6995s2.847-1.2245 3.916-1.6995c.808-.4034 1.661-.7116 2.54-.9183.561-.1265 1.144-.1265 1.705 0 .527.1604 1.064.2838 1.608.3694.486.0225.969-.087 1.398-.3166.361-.1724.665-.4432.878-.7812.085-.3074.085-.632 0-.9394v-1.2562c.018-.3627-.051-.7244-.201-1.0555-.116-.2217-.339-.3167-.73-.4539-.48-.1918-.988-.3059-1.503-.3378-.506-.0325-1.011.0734-1.461.3061-.366.234-.72.4877-1.059.76-.429.3057-.89.5641-1.376.7706-.612.2418-1.246.4221-1.894.5383-.815.1372-1.927.2428-2.964.4222-1.037.1795-2.117.4117-3.408.6862-1.217.2591-2.419.5868-3.599.9817-.656.2427-1.291.5172-1.926.8233-.609.2356-1.236.4226-1.874.5595-1.058.3166-2.572.6544-4.001 1.0555-1.429.4012-2.784.7284-3.736.9712-.614.1985-1.251.3191-1.895.3589-.423 0-.508-.2217-.423-.6017.175-.5206.428-1.0117.751-1.4567.307-.5304.726-.9878 1.228-1.3406.443-.0957.901-.0957 1.344 0 .256-.0112.505-.0797.731-.2003.225-.1206.42-.2902.571-.4964.497-.7048.876-1.4855 1.122-2.3117.337-1.034.592-2.0929.762-3.1667.222-.9906.222-2.0178 0-3.0084-.289-.9677-.808-1.8514-1.513-2.5756-.682-.6769-1.487-1.2179-2.371-1.5939-.778-.3569-1.613-.5715-2.467-.6334-.889-.0402-1.779.0814-2.625.3589-.741.2538-1.425.6521-2.011 1.1717-.582.4788-1.055 1.0763-1.386 1.7523-.332.7444-.505 1.5497-.508 2.3645.002.925.094 1.8477.275 2.755.19.8557.321 1.7233.392 2.5967.035.5323-.048 1.066-.244 1.5623-.118.3266-.298.6276-.529.8867-.034.0619-.081.1159-.138.1583-.06.043-.128.0718-.201.0845-.073.0156-.149.0156-.222 0-.068-.0232-.132-.0551-.191-.0951-.509-.3915-.971-.8414-1.376-1.3405-.411-.4628-.861-.8901-1.344-1.2773-.568-.4199-1.183-.774-1.831-1.0556-.824-.3423-1.688-.5799-2.572-.7072-.963-.1372-2.043-.1372-3.239-.2217l-.095.1161c-1.196-.0633-2.5301-.2216-3.9273-.4222-1.3972-.2005-2.8261-.4644-4.5302-.7283-1.6611-.2301-3.3027-.583-4.9113-1.0556-1.5348-.5278-2.8791-1.2984-4.7314-2.0267-2.1484-.8192-4.339-1.5239-6.5625-2.1112-2.3604-.6966-4.689-1.2772-6.4461-1.6994-1.757-.4223-2.9637-.6756-4.001-.8339-1.0373-.1584-2.1169-.2006-2.752-.3378-.4174-.1203-.8087-.3172-1.1537-.5806-.4215-.1812-.8616-.3157-1.3125-.4011-.5187-.1267-1.0585-.19-1.4501-.2534-.3131-.084-.6313-.1475-.9527-.19-.2691-.1188-.5644-.166-.8573-.1372-.4831.0767-.9488.2374-1.376.475-.5879.2761-1.1571.5899-1.7042.9395l-1.1643.7283c-.3006.1528-.567.3646-.7832.6228-.0529.1088-.0818.2276-.0847.3484.0004.1211.0294.2404.0847.3483.0846.2639.2222.2639.5504.2639.4679.0074.9356-.028 1.3971-.1056.5639-.0851 1.1341-.1204 1.7042-.1055.5382-.0401 1.0788.0318 1.5877.2111.6011.2957 1.1719.6492 1.7041 1.0556.5458.4016 1.1694.6856 1.8312.8339.5787.0363 1.1587-.0463 1.7041-.2428.4559-.142.9302-.2167 1.4078-.2217.8611.0097 1.7139.1704 2.5191.475 1.7407.6363 3.4471 1.3621 5.1124 2.1745 1.9053.9395 3.8211 1.8262 5.7052 2.639 1.7267.7323 3.4937 1.3667 5.2923 1.9 1.4607.475 2.5509.6861 4.2339 1.2456 1.683.5594 3.9057 1.4567 5.7475 2.1745 1.8417.7178 3.2601 1.2244 4.2339 1.6994.7699.3212 1.3821.9317 1.7041 1.6995.3518 1.0994.5378 2.245.5508 3.399.084 1.6361.137 3.8423.254 5.9957.086 2.1262.33 4.2432.73 6.3334.475 1.9641.85 3.9511 1.122 5.9531.117 1.44-.181 2.883-.857 4.159-.598 1.204-1.329 2.337-2.1809 3.378-.8668 1.012-1.6795 2.069-2.4344 3.167-.6622 1.056-1.1718 2.201-1.5137 3.399-.3598 1.119-.5821 2.227-.9208 3.399-.3532 1.286-.8503 2.529-1.4819 3.705-.7782 1.273-1.6263 2.503-2.5403 3.684-.9315 1.298-1.8735 2.744-2.9743 4.423-1.1008 1.678-2.3392 3.589-3.1754 4.845-.3919.762-.8791 1.471-1.4501 2.111-.307.285-.5716.222-.8997 0-.4461-.356-.8446-.767-1.1855-1.225zm75.014-62.1941c.146.7778.095 1.5798-.148 2.3329-.249.7517-.686 1.4275-1.271 1.9633-1.063.9843-2.42 1.5958-3.863 1.7417-1.125.0657-2.252-.0959-3.313-.475-1.083.2613-2.123.6735-3.091 1.2245-1.185.5594-2.551 1.2034-3.863 1.6784l-1.143.4327c-1.334.5067-2.498.9501-3.97 1.3723-2.518 1.0849-4.952 2.3551-7.282 3.8001-1.302.7389-2.561 1.4672-3.641 2.0478-.354 1.6349-.927 3.2149-1.704 4.6973-1.078 2.1801-1.831 4.5061-2.234 6.9031 1.588-.242 3.271-.549 4.986-.865 5.419-1.056 11.22-2.111 15.676-1.193 1.468.255 2.839.9 3.969 1.868 1.163 1.212 1.822 2.82 1.842 4.497-.083 2.685-.69 5.327-1.789 7.78-3.017 7.051-5.546 12.952-7.759 19.528.33.572.63 1.16.9 1.763.582 1.235 1.164 2.459 1.895 2.829.532.395 1.095.748 1.683 1.055 1.157.503 2.15 1.319 2.868 2.354.493.759.733 1.652.688 2.555-.055.904-.4 1.766-.984 2.459-1.313 1.7-4.065 2.681-8.182 1.288-2.129-.743-4.089-1.898-5.769-3.399h-.857c-1.958.074-4.922.19-6.796-2.259-.803-1.142-1.218-2.511-1.185-3.906.032-1.394.507-2.743 1.355-3.852.889-1.168 1.648-2.428 2.265-3.758.421-1.622.659-3.287.709-4.962.165-2.328.451-4.646.857-6.945-4.685 1.748-9.506 3.107-14.416 4.064-3.184 5.153-6.868 9.983-10.997 14.419-3.5 3.759-7.4046 7.122-11.6435 10.028-2.5827 1.699-6.0015 3.304-7.7057 3.167-2.9531-.159-5.4405-2.27-7.6951-4.159-.3281-.285-.6668-.57-.9949-.834l-3.4718-3.146c-5.0912-4.433-9.8543-8.592-16.1311-13.163-1.7133.383-3.397.887-5.0383 1.51-.3712.214-.7039.489-.9843.812-.3782.391-.7929.744-1.2385 1.056-.8589.736-1.9386 1.167-3.0695 1.224-1.1259.061-2.2409-.247-3.1754-.876-2.0429-1.699-2.3287-5.098-.6457-8.381.6851-1.311 1.6326-2.468 2.7838-3.399.7642-.594 1.5669-1.137 2.4027-1.626.7293-.398 1.4051-.888 2.0111-1.456.1393-.245.2427-.508.307-.781.2618-1.209.8808-2.311 1.7769-3.165.8962-.855 2.0285-1.421 3.2508-1.628 3.4929-.454 6.4778 1.51 8.3619 6.513.6111.612 1.3634 1.065 2.191 1.32.6139.264 1.2808.528 1.9899.813 2.7703 1.058 5.4836 2.26 8.1291 3.599 3.6904 1.769 6.9708 4.286 9.6321 7.389 2.6038-4.148 4.8372-7.389 7.4092-11.052.7998-1.303 1.3758-2.73 1.7042-4.222.4348-2.148 1.1988-4.217 2.2651-6.133.6227-1.019 1.3309-1.983 2.1169-2.882.9188-.994 1.7279-2.084 2.4133-3.251.6577-.952.9195-2.121.7304-3.262-.2329-1.488-.4869-2.544-.7304-3.61-.2434-1.066-.4974-2.1109-.7303-3.5781-.3065-2.3389-.4832-4.6929-.5292-7.0513-.0741-1.8789-.1482-3.7578-.3388-5.5734-1.0584-.5172-2.4874-1.0556-4.1491-1.6995l-2.4557-.9394c-2.1659-.8613-4.3908-1.5669-6.6578-2.1112-3.494-1.1456-6.8946-2.5572-10.1719-4.2223-2.4679-1.3623-5.0904-2.4254-7.8115-3.1667-1.1542.4016-2.3819.5492-3.5987.4328-1.5439-.3446-2.9907-1.03-4.2339-2.0056-.6563 0-1.2596 0-1.8312.095-1.3469.2791-2.7497.0616-3.9481-.6123v.1161c-.9458-.6319-1.6126-1.6017-1.8627-2.7093-.2501-1.1077-.0645-2.2688.5185-3.2441.7179-.9947 1.6752-1.7933 2.7838-2.3223 1.5133-1.1183 3.2613-1.8798 5.1124-2.2272.8516-.0622 1.7073.0418 2.5191.3061 1.6404.1271 3.2367.5907 4.689 1.3617.4341.0803.8723.1367 1.3125.1689.8428.0683 1.6806.1882 2.5086.3589 5.5219 1.1632 10.963 2.6794 16.2898 4.5389l4.5832 1.9634c3.6186.8595 7.2936 1.4627 10.9978 1.805.688.095 1.482.1267 2.307.1689.826.0423 1.715.0845 2.53.19 1.284.1981 2.539.5526 3.736 1.0556-.125-1.3356.041-2.6825.487-3.9478.436-1.2683 1.136-2.4303 2.054-3.4096.917-.9751 2.03-1.7463 3.267-2.2628 1.237-.5166 2.569-.7671 3.909-.735 2.46-.0551 4.862.7462 6.794 2.2662 1.932 1.5199 3.272 3.6636 3.791 6.0623.273 2.2881.041 4.6081-.678 6.7979.494-.0914.972-.255 1.419-.4856 1.799-.9336 3.735-1.5784 5.737-1.9105 1.595-.3917 3.215-.6808 4.847-.8656 1.262-.0792 2.502-.3608 3.673-.8339.845-.7679 1.879-1.2996 2.996-1.5412 1.086-.2133 2.206-.1881 3.281.0739 1.078.2554 2.088.7377 2.964 1.4145.593.6458 1.037 1.4132 1.302 2.2484.251.8378.32 1.7197.201 2.5861z" fill="#f4f4f4"/><path d="m184.851 117.053h-26.059v2.575h26.059z" fill="#2a3277"/><path d="m184.492 147.443h-26.027v2.575h26.027z" fill="#2a3277"/><path d="m184.47 102.929h-26.06v2.576h26.06z" fill="#179e6c"/><path d="m184.449 175.5h-2.583v23.666h2.583z" fill="#179e6c"/><path d="m184.354 158.896h-25.562v2.576h25.562z" fill="#179e6c"/><path d="m175.906 7.3467c.463.00001.916.1371 1.301.3939.384.2568.684.62177.861 1.04865s.222.89648.131 1.34925c-.091.4528-.315.8685-.643 1.1943s-.746.5472-1.2.636c-.455.0888-.925.0411-1.353-.1371-.427-.1782-.791-.4788-1.047-.8638s-.391-.8371-.389-1.29893c0-.30585.06-.6087.178-.89114s.29-.53891.507-.75469c.218-.21578.476-.38662.76-.5027.283-.11608.587-.17513.894-.17374z" fill="#2a3277"/><path d="m171.345 137.204c1.988 0 3.599-1.607 3.599-3.589s-1.611-3.589-3.599-3.589c-1.987 0-3.599 1.607-3.599 3.589s1.612 3.589 3.599 3.589z" fill="#2a3277"/><path d="m173.472 175.5h-2.583v23.666h2.583z" fill="#a92819"/><path d="m168.795 9.66907c-.002 1.40343.413 2.77593 1.194 3.94383.78 1.1679 1.89 2.0787 3.19 2.6172 1.299.5385 2.73.6805 4.11.408 1.381-.2725 2.649-.9473 3.645-1.9389s1.674-2.2555 1.95-3.6318c.275-1.3763.135-2.8031-.403-4.09988-.539-1.29678-1.45-2.40525-2.62-3.18516s-2.546-1.1962-3.953-1.1962c-1.884.00278-3.69.74958-5.023 2.07697-1.333 1.3274-2.084 3.12733-2.09 5.00594zm7.113 9.66913c-1.918.002-3.794-.5633-5.389-1.6244-1.596-1.0612-2.841-2.5706-3.576-4.3372s-.929-3.71108-.556-5.58739 1.295-3.60016 2.651-4.95346c1.355-1.3533 3.083-2.275243 4.964-2.649183s3.831-.18307755 5.603.548441c1.773.731522 3.287 1.970822 4.353 3.561122s1.635 3.46013 1.635 5.37294c-.003 2.56173-1.024 5.01783-2.839 6.83023s-4.277 2.8333-6.846 2.8389z" fill="#179e6c"/><path d="m171.344 143.147c-1.884 0-3.726-.557-5.292-1.601-1.567-1.044-2.788-2.528-3.509-4.264s-.91-3.646-.542-5.489c.367-1.843 1.275-3.535 2.607-4.864s3.03-2.233 4.878-2.6 3.763-.178 5.504.541c1.74.719 3.228 1.936 4.275 3.499 1.047 1.562 1.605 3.399 1.605 5.278 0 2.519-1.003 4.936-2.79 6.717-1.786 1.782-4.209 2.783-6.736 2.783zm-6.965-9.5c0 1.376.41 2.721 1.177 3.865.767 1.145 1.857 2.036 3.132 2.562 1.275.527 2.678.664 4.031.394 1.354-.269 2.597-.932 3.572-1.906s1.638-2.215 1.906-3.565.129-2.749-.401-4.02-1.425-2.356-2.574-3.119c-1.148-.763-2.498-1.17-3.878-1.168-1.843.003-3.609.733-4.914 2.03-1.305 1.298-2.042 3.057-2.051 4.895z" fill="#179e6c"/><path d="m161.998 175.5h-2.593v23.666h2.593z" fill="#179e6c"/><path d="m164.941 21.0375c4.086 4.4862 10.659 6.3335 19.529 5.6474l.211 2.565c-1.312.1056-2.582.1689-3.81.1689-7.833 0-13.834-2.2378-17.857-6.6712-7.536-8.3074-5.292-21.11156-5.165-21.70268l2.54.46446c-.021.11611-2.138 12.17082 4.552 19.52812z" fill="#2a3277"/><path d="m159.565 77.627c.984 6.9879-6.351 11.5375-12.204 9.8169-3.479 1.6942-7.09 3.1062-10.797 4.2223-.273.0942-.539.2107-.793.3483-2.668 1.3617-5.843 3.0612-8.384 4.4229-.452 1.5419-1.018 3.0485-1.693 4.5076l2.371-.359c6.033-.9397 11.135-1.7314 16.11.105 5.61 2.112 6.816 8.244 6.287 11.527-.222 2.871-2.403 8.17-4.774 13.944-1.492 3.61-3.048 7.389-4.233 10.915 0 .095.179.37.328.686.243.507.529 1.109.635 1.256.241.198.504.368.783.507 2.561 1.193 7.409 4.317 5.599 10.556-3.059 8.381-13.4 6.798-19.55 2.026-5.578.317-9.018-2.111-10.722-6.259-1.651-5.13.36-8.096 2.032-10.556.429-.612.825-1.246 1.186-1.9.369-1.705.593-3.439.667-5.183-2.477.697-4.668 1.309-7.685 1.921-4.159 6.639-9.213 12.677-15.0195 17.945-4.2339 3.758-11.4209 9.69-16.9355 9.785-4.2339.528-8.4677-3.071-12.6169-6.629l-1.0585-.865-2.2016-1.932c-4.0857-3.684-7.8856-7.072-13.8659-11.463l-2.3922.622c-3.4083 3.558-8.5207 5.278-12.818 1.911-5.2924-4.328-2.6356-11.559-.9209-14.134 1.7199-2.479 4.0149-4.507 6.6895-5.911.6155-2.151 1.9489-4.027 3.7794-5.319 1.8304-1.292 4.0483-1.922 6.2867-1.786 5.7474.497 8.3724 4.656 9.8014 7.865 1.4607.675 2.8367 1.224 4.2338 1.783 5.0939 1.852 9.86 4.499 14.12 7.843.9159-1.508 1.9123-2.967 2.9849-4.37.8168-1.019 1.5262-2.119 2.1169-3.283.3464-.879.6294-1.782.8468-2.702.5654-2.384 1.4258-4.689 2.5615-6.861.8535-1.416 1.8198-2.761 2.8896-4.022.7383-.804 1.3616-1.706 1.8523-2.681.1694-.232.0001-.95-.3492-2.333-.2329-.981-.561-2.312-.8997-4.0532-.5439-3.9509-.8549-7.9302-.9315-11.9175-1.0585-.38-2.1169-.7917-3.1754-1.2033-1.4713-.5912-2.9637-1.1823-4.5408-1.689-.6139-.2005-1.2173-.3694-1.8841-.5383l-1.0585-.2956c-4.1447-1.3208-8.1706-2.9874-12.0348-4.9823-1.5546-.8211-3.1678-1.5268-4.8266-2.1111-1.5253.3999-3.1209.4548-4.6701.1608-1.5493-.2941-3.0132-.9296-4.2845-1.8603-4.8902.8339-9.2193-1.5412-10.2248-6.2701-.3675-1.4315-.3067-2.939.1748-4.3364.4815-1.3975 1.3627-2.6238 2.5348-3.5277.8316-.6963 1.7409-1.2949 2.7097-1.7839 2.3175-1.6938 5.1294-2.5803 8.002-2.5228.5806.0718 1.1542.1918 1.7148.3589 1.765.2051 3.4867.686 5.1018 1.425 4.7208.3272 14.3105 3.1667 19.2747 4.8345 1.2384.5067 2.5721 1.0556 3.9058 1.6362l1.4924.6333.2752.1267 7.4093 1.0556c1.4499.3166 2.7629.5805 2.3079.3378l5.472.7916c5.112-14.9364 26.398-10.883 27.372 3.8212 2.383-.6009 4.801-1.0557 7.24-1.3617.615-.0387 1.222-.1521 1.81-.3378 7.885-5.6578 17.39.2323 16.586 7.6424zm-4.001 2.8606c.244-.7531.295-1.555.148-2.3328.109-.8687.03-1.7507-.233-2.5862-.264-.8351-.709-1.6025-1.302-2.2483-.875-.6768-1.886-1.1591-2.963-1.4145-1.076-.262-2.195-.2872-3.282-.0739-1.124.2381-2.165.77-3.016 1.5411-1.172.4732-2.412.7548-3.673.8339-1.633.1849-3.252.474-4.848.8656-2.001.3322-3.937.977-5.737 1.9106-.446.2305-.924.3941-1.418.4856.719-2.1898.95-4.5098.677-6.7979-.518-2.3988-1.859-4.5424-3.79-6.0624-1.932-1.5199-4.334-2.3212-6.794-2.2661-1.345-.0296-2.681.2251-3.919.7472-1.239.5222-2.353 1.3-3.268 2.2823-.918.9793-1.618 2.1412-2.054 3.4095-.446 1.2654-.613 2.6123-.487 3.9478-1.197-.503-2.452-.8575-3.736-1.0555-.815-.1056-1.683-.1478-2.53-.19-.847-.0423-1.619-.0739-2.307-.1689-3.7043-.3424-7.3793-.9456-10.9979-1.8051l-4.562-1.995c-5.3233-1.8592-10.7609-3.3753-16.2792-4.539-.8281-.1707-1.6658-.2905-2.5086-.3589-.4438-.0317-.8855-.0881-1.3231-.1689-1.4298-.7613-2.9999-1.2246-4.6149-1.3617-.8118-.2642-1.6675-.3682-2.5192-.3061-1.851.3475-3.599 1.109-5.1124 2.2273-1.1085.5289-2.0659 1.3275-2.7837 2.3223-.5902.9665-.7874 2.1215-.5513 3.2284.2362 1.1069.8878 2.0818 1.8214 2.725v-.1161c1.1838.6283 2.5523.819 3.8634.5383.5716 0 1.1749-.095 1.8312-.095 1.2432.9757 2.69 1.661 4.2339 2.0056 1.2168.1165 2.4445-.0311 3.5988-.4328 2.721.7413 5.3435 1.8045 7.8115 3.1668 3.2772 1.6651 6.6778 3.0767 10.1718 4.2223 2.267.5443 4.4919 1.2498 6.6578 2.1111l2.4556.9395c1.6618.6333 3.112 1.1822 4.1493 1.6995.1905 1.8156.2646 3.6945.3387 5.5734.046 2.3584.2227 4.7124.5292 7.0513.2329 1.4672.4763 2.5231.7303 3.5781.2541 1.056.4975 2.111.7304 3.61.1891 1.141-.0727 2.31-.7304 3.262-.6596 1.178-1.4438 2.282-2.3392 3.293-.786.9-1.4942 1.864-2.1169 2.882-1.0663 1.916-1.8303 3.985-2.2651 6.133-.3284 1.492-.9044 2.919-1.7042 4.222-2.6144 3.684-4.8478 6.904-7.4093 11.052-2.6612-3.103-5.9416-5.62-9.632-7.389-2.6455-1.339-5.3588-2.54-8.1291-3.599-.7091-.285-1.376-.549-1.9899-.813-.8276-.254-1.5799-.708-2.191-1.32-1.8841-5.003-4.869-6.966-8.3619-6.512-1.2127.215-2.3334.786-3.2194 1.64-.886.853-1.4971 1.951-1.7554 3.152-.0643.274-.1677.537-.307.781-.606.568-1.2817 1.058-2.0111 1.457-.8358.488-1.6384 1.031-2.4027 1.625-1.1512.932-2.0987 2.088-2.7838 3.399-1.6829 3.283-1.3971 6.682.6457 8.382.9345.629 2.0495.936 3.1754.876 1.1112-.055 2.174-.471 3.0272-1.183.4456-.311.8603-.665 1.2384-1.055.2805-.324.6132-.599.9844-.813 1.6654-.626 3.374-1.13 5.1124-1.509 6.2767 4.57 11.0398 8.729 16.1311 13.163l3.4823 3.04c.3282.264.6669.549.995.834 2.2545 1.889 4.7419 4 7.6951 4.159 1.7041.19 5.123-1.415 7.7056-3.167 4.2389-2.906 8.1436-6.269 11.6428-10.028 4.111-4.388 7.783-9.164 10.966-14.261 4.91-.957 9.731-2.316 14.416-4.064-.406 2.299-.692 4.617-.857 6.946-.05 1.675-.288 3.339-.709 4.961-.617 1.33-1.376 2.59-2.265 3.758-.848 1.109-1.323 2.458-1.355 3.853-.033 1.394.382 2.763 1.185 3.905 1.874 2.449 4.838 2.333 6.796 2.259h.857c1.68 1.501 3.64 2.656 5.769 3.399 4.117 1.394 6.869.412 8.182-1.288.584-.693.929-1.555.984-2.459.045-.903-.195-1.796-.688-2.555-.718-1.035-1.711-1.85-2.868-2.354-.588-.307-1.151-.66-1.683-1.055-.731-.37-1.313-1.594-1.895-2.829-.27-.602-.57-1.191-.9-1.763 2.213-6.576 4.742-12.477 7.759-19.528 1.099-2.452 1.706-5.095 1.789-7.78-.02-1.677-.679-3.284-1.842-4.496-1.13-.969-2.501-1.614-3.969-1.869-4.456-.897-10.257.18-15.676 1.193-1.715.317-3.398.623-4.986.866.38-2.417 1.115-4.764 2.181-6.9672.783-1.5057 1.356-3.1109 1.704-4.7712 1.059-.5806 2.339-1.309 3.641-2.0479 2.332-1.4232 4.766-2.6722 7.282-3.7367 1.472-.4222 2.636-.8656 3.97-1.3722l1.143-.4328c1.312-.475 2.678-1.1189 3.863-1.6784.968-.551 2.008-.9632 3.091-1.2245 1.061.3791 2.188.5407 3.313.475 1.45-.1385 2.814-.7465 3.885-1.7311.576-.5383 1.006-1.2139 1.249-1.9634z" fill="#a92819"/><path d="m147.857 160.342 2.583.169c0 .496-.942 12.139-12.702 21.111l-1.566-2.048c10.786-8.233 11.685-19.127 11.685-19.232z" fill="#4c8bca"/><path d="m140.787 31.298c.244 0 24.451-3.4729 36.496 15.3375l-2.18 1.3828c-11.135-17.3748-33.702-14.2081-33.924-14.1764z" fill="#4c8bca"/><path d="m144.871 187.299-6.41 7.099 1.92 1.724 6.409-7.099z" fill="#2a3277"/><path d="m142.957 3.35048-6.41 7.09922 1.92 1.7234 6.409-7.09921z" fill="#2a3277"/><path d="m167.576 61.329c-10.702-10.408-25.404-10.1758-25.541-10.1652l-.064-2.5757c.656 0 15.877-.2955 27.383 10.8725 8.108 7.8429 12.214 19.3698 12.214 34.2323h-2.582c0-14.1236-3.842-24.996-11.41-32.3639z" fill="#4c8bca"/><g fill="#2a3277"><path d="m135.878 187.296-6.41 7.099 1.92 1.723 6.409-7.099z"/><path d="m133.958 3.33948-6.404 7.10482 1.921 1.7218 6.403-7.10486z"/><path d="m126.884 187.286-6.403 7.105 1.921 1.722 6.403-7.105z"/><path d="m124.958 3.34099-6.403 7.10481 1.92 1.7217 6.404-7.10476z"/><path d="m119.819 189.022-6.414 7.104-1.926-1.72 6.414-7.104z"/><path d="m115.971 3.35293-6.41 7.09917 1.92 1.7235 6.409-7.09926z"/></g><path d="m116.867 48.7257c-1.726-10.7783-6.968-20.6882-14.914-28.1944l1.778-1.879c8.461 7.8918 13.996 18.4047 15.708 29.8306z" fill="#4c8bca"/><path d="m109.963 189.022-6.414 7.104-1.926-1.72 6.414-7.104z" fill="#2a3277"/><path d="m106.115 3.35147-6.4094 7.09923 1.9194 1.7234 6.41-7.09922z" fill="#2a3277"/><path d="m105.211 52.3675-2.435.8655c-.116-.3167-11.7486-31.2028-53.8968-31.2028v-2.5756c44.0005 0 56.2048 32.5856 56.3318 32.9129z" fill="#4c8bca"/><path d="m101.178 67.0927c.455.2428-.858 0-2.3079-.3378z" fill="#a92819"/><path d="m98.1794 187.286-6.4035 7.105 1.9208 1.722 6.4033-7.105z" fill="#2a3277"/><path d="m96.2625 3.35048-6.4097 7.09922 1.9193 1.7234 6.4097-7.0992z" fill="#2a3277"/><path d="m89.1831 187.296-6.4097 7.1 1.9193 1.723 6.4097-7.099z" fill="#2a3277"/><path d="m87.2821 3.33143-6.4169 7.10707 1.9193 1.7234 6.4169-7.10706z" fill="#2a3277"/><path d="m66.1441 177.147c.3705.127 37.4589 12.329 65.6249-17.227l1.874 1.773c-15.994 16.784-34.7498 20.668-48.5629 20.668-6.6921.059-13.3569-.858-19.7827-2.723z" fill="#4c8bca"/><path d="m80.1984 187.281-6.4035 7.105 1.9208 1.722 6.4035-7.105z" fill="#2a3277"/><path d="m78.2726 3.33709-6.4035 7.10481 1.9208 1.7217 6.4035-7.10477z" fill="#2a3277"/><path d="m71.1991 187.284-6.4034 7.105 1.9208 1.721 6.4034-7.104z" fill="#2a3277"/><path d="m69.2852 3.35341-6.4097 7.09919 1.9193 1.7235 6.4097-7.09928z" fill="#2a3277"/><path d="m82.9112 171.7c-17.3271 0-30.8755-12.308-31.0872-12.498l1.7676-1.879c5.2222 4.488 11.2839 7.9 17.8352 10.039 13.8554 4.37 26.4617.992 37.5232-10.007l1.82 1.784c-9.42 9.437-19.1158 12.561-27.8588 12.561z" fill="#4c8bca"/><path d="m77.9672 119.491c-1.81-1.794-14.9033-14.187-33.5111-17.353l.4233-2.5444c16.5863 2.7764 28.674 12.3504 33.183 16.4674-.074-5.5 4.435-10.556 6.4779-12.572-2.5405-3.201-3.9673-7.1399-4.0645-11.2211l-18.2375-6.1962.8362-2.4384 20.1109 6.8085-.0529.9711c0 .0633-.2752 6.7557 4.2339 11.2311l.9844.982-1.0585.908c-.0741.063-7.4728 6.491-6.4567 12.551.5822 3.493.7833 4.665-.6139 4.971-.1195.015-.2404.015-.3599 0-1.0796.042-1.4712-1.098-1.8946-2.565z" fill="#4c8bca"/><path d="m61.3434 187.288-6.4035 7.105 1.9208 1.721 6.4036-7.104z" fill="#2a3277"/><path d="m59.4326 3.35194-6.4097 7.09926 1.9193 1.7234 6.4097-7.09924z" fill="#2a3277"/><path d="m51.4936 187.281-6.4035 7.105 1.9208 1.722 6.4035-7.105z" fill="#2a3277"/><path d="m53.1339 53.2117c.803-.1406 1.5927-.3489 2.3603-.6228-2.6219 2.9585-5.651 5.5315-8.9969 7.6423-7.0177 4.5179-15.4219 7.3891-21.6775 5.9535 12.998-2.5862 17.4648-7.389 23.498-12.973h.1059c1.5585.2683 3.1516.2683 4.7102 0z" fill="#0f7657"/><path d="m49.5767 3.35049-6.4097 7.09921 1.9193 1.7234 6.4097-7.0992z" fill="#2a3277"/><path d="m45.6208 48.0185c-.9728-1.0794-1.6187-2.4117-1.8629-3.8423-.2153-1.1752-.1943-2.3814.062-3.5484.2562-1.167.7424-2.2716 1.4305-3.2495-13.7601 2.5333-29.87 11.928-40.01017-2.0479 7.55747 8.7508 27.30847-1.6994 41.14267-2.66 20.4814-2.5228 27.8801 5.2779 33.7228 11.073 4.7737 4.6656 12.2783 19.5493 20.8623 23.2227l.212.1055-2.3076-.3378-1.5771-.3483c-18.6291-4.8768-16.9355-17.8604-28.0389-13.7225 2.1911-6.1962.6139-10.8619-1.2172-11.9069 1.4183 5.394-2.2969 11.2208-6.9012 11.4952 5.885-6.0168 2.318-13.3425-.4763-14.9364-1.2898-.7625-2.7388-1.2176-4.2339-1.33-.6128-.0528-1.229-.0528-1.8418 0h-.1905c-2.6356.3061-5.8639 1.6678-6.8165 4.1379-.4897.955-.7196 2.0214-.6669 3.0928.0406 1.0555.3582 2.0819.9209 2.9767 1.7041 2.2167 6.9965 2.4806 8.5207-.7072.2352-.5081.3372-1.0675.2964-1.6256-.0433-.5517-.2213-1.0845-.5187-1.5517-.9209-1.1928-3.8846-1.14-3.5459.8445 1.0585.5489.2329 2.3961-1.2595 1.5517-.4807-.412-.7936-.9852-.8794-1.6114-.0858-.6263.0614-1.2622.4136-1.7876 1.81-3.2723 5.6417-1.4461 6.118-1.1928.6062.36 1.1206.8549 1.503 1.4461.3908.5854.6374 1.2545.7198 1.9529.0774.9607-.0485 1.927-.3694 2.8362s-.8297 1.741-1.4935 2.4416c-1.1003.9307-2.4244 1.56-3.8423 1.8262-.2434 0-.4975.0844-.7515.1055-1.1784.105-2.3658-.0426-3.4824-.4327-1.4033-.4004-2.6653-1.1869-3.6411-2.2695z" fill="#0f7657"/><path d="m46.0217 52.1982c-12.0877 9.5002-27.065 11.2525-37.04636 7.938 16.01466-.475 25.40326-5.3518 32.55846-11.0625 1.0535 1.5627 2.6539 2.6769 4.4879 3.1245z" fill="#0f7657"/><path d="m138.977 146.292c.582.328 1.281.644 1.704.94.423.295.55.559.445.844-.113.198-.273.365-.466.486-.189.126-.408.199-.635.211-.853.107-1.719.031-2.541-.222-.99-.296-1.942-.707-2.836-1.224-.701-.393-1.367-.845-1.99-1.351-.475-.483-1.06-.845-1.704-1.056-.804-.142-1.623-.174-2.435-.095-.629.074-1.265.074-1.895 0-.3-.033-.591-.13-.851-.284-.26-.155-.484-.363-.657-.611-.172-.248-.289-.531-.343-.828s-.044-.602.031-.895c.267-.895.718-1.725 1.323-2.438.844-1.102 1.555-2.3 2.117-3.568.505-1.581.807-3.22.9-4.877.19-1.921.391-4.222.614-5.911.139-1.294.409-2.57.804-3.811.342-.993.793-1.945 1.344-2.839.51-.842 1.079-1.646 1.704-2.407.477-.58.498-.855.392-.908-.106-.052-.402 0-1.058.423-.657.422-1.842.939-3.409 1.699-2.045.981-4.14 1.855-6.276 2.618-2.392.834-4.826 1.539-7.293 2.111-1.98.443-3.102.686-4.022.866-.834.112-1.619.456-2.266.992-.899.969-1.694 2.031-2.371 3.167-1.449 2.257-3.025 4.432-4.72 6.512-2.239 2.713-4.6357 5.293-7.1768 7.727-2.1189 2.022-4.3791 3.892-6.7636 5.595-1.3878 1.006-2.8611 1.889-4.4032 2.639-.7364.41-1.5449.675-2.3816.781-.6675-.009-1.3182-.211-1.8734-.581-1.5489-.927-2.9963-2.013-4.3186-3.24-2.5932-2.217-6.8165-5.985-10.3412-8.941s-6.3508-5.098-7.9597-6.333c-.8543-.696-1.7562-1.331-2.6991-1.9-.2035-.135-.4323-.227-.6725-.27-.2402-.044-.4867-.038-.7247.016-.8891.16-1.7689.368-2.6356.623-.9632.253-1.8417.464-2.5826.686-.6227.187-1.2254.434-1.7994.739-.4635.259-.8876.582-1.2596.961-.3493.306-.5716.591-.9209.876-.3532.313-.7578.563-1.1961.739-.176.094-.3802.121-.5749.076-.1946-.044-.3664-.158-.4835-.319-.2021-.514-.2427-1.078-.1165-1.615.1116-.69.3369-1.357.6669-1.974.4475-.916 1.108-1.712 1.9264-2.322 1.0585-.834 2.5932-1.7 3.6094-2.418.7883-.522 1.4151-1.253 1.81-2.111.2857-.644.3704-1.319.6456-1.889.2625-.528.7-.95 1.2384-1.193.5351-.244 1.1408-.285 1.7042-.116.6451.192 1.2122.584 1.6194 1.119.5022.678.9182 1.415 1.2384 2.195.2439.645.5713 1.256.9738 1.816.7027.792 1.5695 1.422 2.5403 1.847 1.2596.655 3.0908 1.33 5.0278 2.111 2.0274.792 4.0128 1.687 5.9486 2.681 1.8207.961 3.5652 2.058 5.2182 3.283 1.0756.809 2.0525 1.741 2.9108 2.776.7515.877 1.3972 1.795 1.8947 2.449.339.449.7338.854 1.1749 1.204.3281.221.5927.285.8997 0 .5709-.64 1.0582-1.349 1.4501-2.111.8044-1.257 2.0322-3.167 3.1754-4.845 1.1431-1.679 2.0428-3.167 2.9743-4.423.914-1.181 1.762-2.411 2.5403-3.684.6426-1.157 1.1538-2.382 1.5242-3.653.3387-1.171.561-2.28.9208-3.399.3419-1.198.8515-2.342 1.5137-3.399.7549-1.097 1.5676-2.154 2.4344-3.166.8528-1.048 1.5848-2.188 2.1808-3.399.676-1.277.974-2.72.857-4.159-.298-1.993-.697-3.97-1.196-5.9219-.4-2.0903-.644-4.2072-.73-6.3335-.117-2.1111-.17-4.3595-.254-5.9957-.013-1.1539-.199-2.2995-.5508-3.3989-.322-.7678-.9342-1.3783-1.7041-1.6995-.9315-.475-2.3498-.9817-4.2339-1.6995s-4.0751-1.615-5.7475-2.1745c-1.6724-.5594-2.7626-.7705-4.2339-1.2455-1.7986-.5333-3.5655-1.1677-5.2923-1.9001-1.8841-.8128-3.7999-1.6995-5.7052-2.6389-1.6653-.8124-3.3717-1.5382-5.1124-2.1745-.8052-.3046-1.658-.4654-2.5191-.475-.4776.0049-.9519.0796-1.4078.2217-.5454.1964-1.1254.279-1.7041.2427-.6618-.1483-1.2854-.4323-1.8312-.8339-.5322-.4063-1.1029-.7599-1.7041-1.0555-.5089-.1793-1.0495-.2512-1.5877-.2111-.5701-.015-1.1403.0204-1.7041.1055-.4616.0776-.9292.1129-1.3972.1056-.3281 0-.4657 0-.5504-.2639-.0553-.1079-.0843-.2272-.0847-.3484.0029-.1208.0318-.2396.0847-.3483.2162-.2582.4827-.4701.7832-.6228l1.1644-.7283c.547-.3496 1.1163-.6634 1.7041-.9395.4272-.2376.893-.3984 1.376-.475.2929-.0289.5883.0184.8574.1372.3213.0425.6396.106.9526.19.4128.0633.9314.1267 1.4501.2534.4509.0854.891.2199 1.3125.4011.345.2634.7363.4603 1.1537.5805.6139.1373 1.7042.19 2.752.3378 1.0479.1478 2.244.4117 4.001.8339 1.7571.4223 4.0857 1.0556 6.4461 1.6995 2.2235.5873 4.4141 1.292 6.5625 2.1112 1.8523.7283 3.1754 1.4989 4.7314 2.0267 1.6086.4726 3.2502.8254 4.9113 1.0555 1.7041.2639 3.1754.5278 4.5302.7284 1.3549.2005 2.7313.3589 3.9273.4222l.095-.1161c1.196.0844 2.276.0844 3.239.2217.884.1272 1.748.3649 2.572.7072.648.2816 1.263.6357 1.831 1.0556.489.3728.946.7859 1.365 1.235.405.4954.867.9418 1.376 1.33.059.04.124.0719.191.095.073.0157.149.0157.222 0 .073-.0126.142-.0415.201-.0844.057-.0424.104-.0964.138-.1583.232-.2591.411-.5601.529-.8867.196-.4964.28-1.03.244-1.5623-.071-.8735-.202-1.7411-.392-2.5967-.181-.9073-.273-1.83-.275-2.7551.003-.8147.176-1.62.508-2.3644.325-.695.798-1.311 1.387-1.8051.585-.5196 1.269-.9178 2.011-1.1717.845-.2775 1.735-.3991 2.625-.3589.853.0619 1.688.2765 2.466.6334.89.3948 1.695.9576 2.371 1.6572.699.7569 1.201 1.6742 1.46 2.6706.223.9906.223 2.0179 0 3.0084-.17 1.0739-.425 2.1327-.762 3.1668-.245.8261-.624 1.6068-1.122 2.3117-.15.2061-.346.3757-.571.4963s-.475.1891-.731.2004c-.442-.0957-.901-.0957-1.344 0-.487.3706-.888.8424-1.175 1.3828-.322.445-.576.9361-.751 1.4566-.085.3801 0 .5806.423.6017.644-.0398 1.281-.1604 1.895-.3589.952-.2427 2.307-.5594 3.736-.9711s2.985-.7495 4.001-1.0556c.639-.1368 1.265-.3239 1.874-.5594.635-.3062 1.27-.5806 1.926-.8234 1.18-.3948 2.382-.7226 3.599-.9817 1.26-.2744 2.371-.4961 3.408-.6861 1.038-.19 2.117-.285 2.964-.4222.648-.1162 1.283-.2966 1.895-.5384.485-.2064.946-.4648 1.376-.7705.338-.2723.692-.526 1.058-.76.45-.2328.955-.3386 1.461-.3062.516.032 1.023.146 1.503.3378.391.1372.614.2322.73.4539.15.3311.219.6928.201 1.0556v1.1189c.085.3075.085.632 0 .9395-.213.3379-.517.6088-.878.7811-.429.2296-.912.3391-1.397.3167-.545-.0856-1.082-.2091-1.609-.3695-.561-.1265-1.143-.1265-1.704 0-.88.2068-1.733.515-2.541.9184-1.058.475-2.36 1.0555-3.916 1.6994s-3.408 1.2562-4.446 1.6995c-1.037.4434-1.609.4961-2.307.8023-.699.3061-1.577.76-2.805 1.4461l-4.065 2.185-2.794 1.5201-1.704 1.0555c-.439.1851-.788.5334-.974.9712-.201.5383-.317 1.425-.571 2.3117-.33.9939-.712 1.9699-1.144 2.9239-.564 1.2121-1.066 2.452-1.503 3.716-.381 1.266-.698 2.544-.952 3.842s-.551 2.47-.699 3.283-.222 1.235 0 1.509c.222.275.476.359 1.704.243s3.176-.517 5.695-.95 5.451-.992 7.885-1.351c1.841-.297 3.696-.495 5.557-.591 1.141-.074 2.287 0 3.409.221.679.119 1.329.366 1.915.729.236.16.434.369.583.612.145.245.236.519.264.802.211 1.402.043 2.834-.487 4.149-.656 2.185-2.053 5.404-3.418 8.867-1.366 3.462-2.827 7.23-3.758 9.711-.931 2.48-1.387 3.715-1.609 4.549-.222.6-.222 1.259 0 1.858.222.612.688 1.394 1.164 2.322.433.952.931 1.873 1.493 2.755.432.587.971 1.088 1.588 1.478.471.346.962.663 1.471.95z" fill="#a92819"/><path d="m41.6379 187.286-6.4035 7.105 1.9208 1.722 6.4035-7.105z" fill="#2a3277"/><path d="m39.7242 3.34901-6.4097 7.09919 1.9192 1.7235 6.4097-7.09927z" fill="#2a3277"/><path d="m40.0419 47.2475c-13.2309 6.6607-27.5202 9.7746-40.0419.4539 14.8186 3.3989 24.3448 1.5306 38.2319-6.154-.1739 2.0637.4766 4.1124 1.81 5.7001z" fill="#0f7657"/><path d="m27.0541 86.0088h-26.059471v2.5756h26.059471z" fill="#2a3277"/><path d="m26.9606 140.392h-2.5827v15.685h2.5827z" fill="#179e6c"/><path d="m26.6828 116.409h-26.027771v2.576h26.027771z" fill="#2a3277"/><path d="m26.6741 71.8848h-26.070096v2.5756h26.070096z" fill="#179e6c"/><path d="m26.579.506836h-2.5827v23.666064h2.5827z" fill="#179e6c"/><path d="m26.5567 127.851h-25.562071v2.576h25.562071z" fill="#179e6c"/><path d="m13.5478 98.9707c.7117 0 1.4075.2105 1.9994.6049.5918.3943 1.053.9544 1.3254 1.6104s.3437 1.378.2048 2.074c-.1388.696-.4816 1.336-.9849 1.837-.5033.502-1.1445.844-1.8426.983-.6981.138-1.4217.067-2.0793-.205-.6576-.271-1.2197-.731-1.6151-1.321-.3955-.591-.60653-1.284-.60653-1.994 0-.952.37913-1.865 1.05403-2.538.6749-.6732 1.5903-1.0513 2.5448-1.0513z" fill="#2a3277"/><path d="m15.9931 140.392h-2.5827v15.685h2.5827z" fill="#a92819"/><path d="m15.6115.506836h-2.5827v23.666064h2.5827z" fill="#a92819"/><path d="m10.5738 187.998c.4635-.002.9172.133 1.3035.389.3863.255.6878.62.8662 1.046.1783.427.2255.897.1356 1.35-.0899.454-.3129.871-.6407 1.197-.3278.327-.7456.55-1.2003.639-.4547.09-.926.043-1.35382-.135-.42787-.178-.79309-.478-1.04932-.864-.25623-.385-.39191-.837-.38982-1.3 0-.616.24534-1.206.68204-1.642.4367-.435 1.029-.68 1.64662-.68z" fill="#2a3277"/><path d="m23.4547 177.242c7.5469 8.307 5.2923 21.111 5.1759 21.713l-2.5403-.465c0-.126 2.1169-12.17-4.562-19.528-4.0751-4.486-10.6588-6.397-19.51818-5.658l-.22228-2.554c9.73796-.813 16.99906 1.372 21.66686 6.492z" fill="#2a3277"/><path d="m13.5497 109.526c1.3795 0 2.7281-.408 3.8752-1.172s2.0412-1.851 2.5691-3.122.6661-2.67.3969-4.019c-.2691-1.3494-.9334-2.5888-1.909-3.5617-.9755-.9728-2.2183-1.6353-3.5714-1.9038-1.3531-.2684-2.7556-.1306-4.0302.3959-1.27455.5265-2.36394 1.4181-3.1304 2.562-.76646 1.144-1.17555 2.4886-1.17555 3.8646 0 .914.18042 1.818.53096 2.662s.86434 1.611 1.51206 2.257 1.41663 1.158 2.26293 1.508c.8463.349 1.7533.529 2.6694.529zm0-16.4772c1.8841 0 3.7259.5572 5.2924 1.6011 1.5666 1.0439 2.7876 2.5276 3.5086 4.2635.7211 1.7356.9097 3.6466.5421 5.4886-.3675 1.843-1.2748 3.536-2.6071 4.865-1.3323 1.328-3.0297 2.233-4.8776 2.6-1.8479.366-3.7633.178-5.50397-.541-1.74069-.719-3.22848-1.937-4.27524-3.499-1.04675-1.562-1.60545-3.399-1.60545-5.278 0-2.52 1.00365-4.936 2.79016-6.7176 1.78651-1.7817 4.2095-2.7826 6.7361-2.7826z" fill="#179e6c"/><path d="m4.50869 140.392h-2.58266v15.685h2.58266z" fill="#179e6c"/><path d="m4.1271.506836h-2.58267v23.666064h2.58267z" fill="#179e6c"/><path d="m10.5744 197.414c1.4072.002 2.7835-.412 3.9546-1.19s2.0844-1.885 2.6244-3.181.6824-2.723.4091-4.1c-.2732-1.376-.9498-2.641-1.9442-3.634-.9943-.994-2.2617-1.67-3.6418-1.945-1.38-.274-2.81073-.134-4.11106.402-1.30033.537-2.41184 1.446-3.19389 2.613-.78204 1.166-1.19947 2.538-1.19948 3.942.00279 1.878.75163 3.679 2.08267 5.009 1.33104 1.329 3.13589 2.079 5.01966 2.084zm0-16.752c1.9185-.002 3.7945.564 5.3906 1.625 1.596 1.062 2.8403 2.572 3.5755 4.339.7351 1.767.928 3.712.5543 5.589-.3738 1.877-1.2974 3.6-2.654 4.953s-3.0852 2.274-4.9669 2.647-3.83208.18-5.60414-.553c-1.77207-.733-3.2862-1.974-4.35076-3.566-1.06456-1.591-1.631683-3.462-1.62959-5.375 0-2.562 1.02038-5.019 2.83667-6.83s4.2797-2.829 6.84832-2.829z" fill="#179e6c"/></svg>