<svg fill="none" height="200" viewBox="0 0 207 200" width="207" xmlns="http://www.w3.org/2000/svg"><path d="m205.836 83.8838.583 4.3395c-6.854.9443-11.543 4.4987-13.931 10.557-1.198 3.1177-1.68 6.4647-1.411 9.7927l-4.36.425c-.272-3.077.005-6.177.817-9.1567.14.0584.275.1295.403.2127l2.249-3.767c-.369-.2163-.752-.4077-1.146-.573.284-.6066.599-1.1981.944-1.7719.209.1497.404.3165.584.4987l3.183-3.0345c-.352-.3843-.736-.7392-1.146-1.061.573-.6232 1.186-1.208 1.836-1.7506.417.3587.775.7813 1.061 1.252l3.798-2.1963c-.322-.5497-.698-1.0652-1.125-1.5385 2.414-1.1579 5.002-1.9107 7.661-2.2281z" fill="#179e6c"/><path d="m205.357 188.159v2.578h-4.594v-1.294h-2.567v1.294h-4.817v-1.294h-2.568v1.294h-4.817v-1.294h-2.568v1.294h-4.817v-1.294h-2.567v1.294h-4.817v-1.294h-2.568v1.294h-4.817v-1.294h-2.567v1.294h-4.807v-1.294h-2.578v1.294h-4.806v-1.294h-2.579v1.294h-4.817v-1.294h-2.567v1.294h-4.149v-1.294h-2.578v1.294h-4.806v-1.294h-2.568v1.294h-4.817v-1.294h-2.568v1.294h-4.817v-1.294h-2.567v1.294h-4.817v-1.294h-2.578v1.294h-4.8068v-1.294h-2.5783v1.294h-4.8063v-1.294h-2.5783v1.294h-4.8063v-1.294h-2.5783v1.294h-4.8064v-1.294h-2.5676v1.294h-4.191v-1.294h-2.5782v1.294h-4.8064v-1.294h-2.5782v1.294h-4.817v-1.294h-2.5676v1.294h-4.817v-1.294h-2.5677v1.294h-4.8169v-1.294h-2.5677v1.294h-4.8169v-1.294h-2.5677v1.294h-4.8063v-1.294h-2.5783v1.294h-4.8064v-1.294h-2.5782v1.294h-4.817v-1.294h-2.56761v1.294h-4.54111v-2.578z" fill="#a92819"/><path d="m204.839 154.249h-19.788v2.578h19.788z" fill="#179e6c"/><path d="m204.744 142.812h-19.788v2.578h19.788z" fill="#a92819"/><path d="m204.744 131.119h-19.788v2.578h19.788z" fill="#179e6c"/><path d="m204.382 27.0559.212 2.5571c-1.316.1061-2.578.1697-3.798.1697-7.809 0-13.793-2.2281-17.783-6.6631-7.522-8.2971-5.305-21.13526-5.156-21.68698l2.535.46684c0 .12732-2.122 12.15914 4.531 19.51194 4.074 4.4774 10.621 6.3766 19.459 5.6445z" fill="#2a3277"/><path d="m203.851 181.475h-200.91252v2.578h200.91252z" fill="#179e6c"/><path d="m195.849.403076c1.91.000001 3.777.566536 5.365 1.627934 1.589 1.06139 2.826 2.56995 3.556 4.33482.731 1.76487.922 3.70677.548 5.57997-.373 1.8732-1.294 3.5936-2.645 4.9434-1.352 1.3499-3.073 2.2686-4.947 2.64-1.873.3713-3.815.1786-5.579-.5538s-3.271-1.9716-4.331-3.5608c-1.06-1.5891-1.624-3.4569-1.622-5.367.003-2.55884 1.021-5.01194 2.832-6.82034 1.81-1.8084 4.264-2.824185 6.823-2.824184zm7.077 9.644524c-.002-1.39919-.419-2.7664-1.198-3.9288-.779-1.16239-1.885-2.06781-3.178-2.60182s-2.716-.67264-4.088-.39838-2.632.94911-3.621 1.93926c-.988.99014-1.661 2.25115-1.933 3.62364-.273 1.3725-.132 2.7949.404 4.0874s1.443 2.3972 2.607 3.1743c1.163.7772 2.531 1.192 3.93 1.192 1.878-.0028 3.678-.7508 5.005-2.0797 1.327-1.3288 2.072-3.13 2.072-5.0079z" fill="#179e6c"/><path d="m200.775 190.737h-2.578v9.263h2.578z" fill="#a92819"/><path d="m200.775 189.443h-2.578v1.284h2.578z" fill="#a92819"/><path d="m199.344 87.7028-3.798 2.2175c-.286-.4707-.644-.8932-1.061-1.252 1.157-.9732 2.425-1.8065 3.777-2.4828.41.4686.773.9768 1.082 1.5173z" fill="#179e6c"/><path d="m195.853 7.73489c.46.0021.908.14043 1.289.3975.381.25706.677.62132.851 1.0467s.218.89281.126 1.34311c-.091.4503-.315.8633-.641 1.1868-.327.3235-.742.5429-1.193.6305s-.918.0394-1.342-.1384c-.423-.1778-.785-.4773-1.038-.8605-.254-.3833-.388-.8332-.386-1.2927.001-.30516.063-.60704.181-.88842s.29-.53675.507-.75153c.217-.21479.474-.38477.756-.50026.282-.11548.585-.1742.89-.1728z" fill="#2a3277"/><path d="m196.871 57.5065h-6.716c-.346-4.7036-2.412-9.1151-5.804-12.3926-3.343-3.2196-7.804-5.0184-12.445-5.0184-4.642 0-9.103 1.7988-12.446 5.0184-3.419 3.2659-5.512 7.6788-5.878 12.3926h-6.727c.387-6.5144 3.195-12.6489 7.873-17.1989 4.577-4.492 10.733-7.0085 17.146-7.0085s12.569 2.5165 17.146 7.0085c4.668 4.5551 7.467 10.6882 7.851 17.1989zm-2.854-3.8408c.032-.179.032-.3622 0-.5412-.068-.2565-.208-.4883-.403-.6684-.198-.1696-.441-.2767-.7-.3077-.258-.0433-.524.0016-.754.1273-.234.12-.427.3088-.551.5412-.132.232-.191.498-.17.7639.017.2642.109.518.265.7321.159.2135.376.3758.626.4668.249.0796.516.0796.764 0 .168-.0517.325-.1306.467-.2334.137-.1092.25-.2467.329-.4032.076-.1482.119-.311.127-.4774zm-2.323-4.9549c.115-.2408.159-.5095.127-.7746-.037-.2654-.147-.5152-.318-.7215-.171-.1982-.396-.3421-.648-.4138-.248-.0795-.515-.0795-.763 0-.248.0907-.464.2488-.626.4563-.157.2178-.249.4752-.266.7427-.02.2658.039.5317.17.7639.079.1569.196.2918.34.3926.132.1106.288.1904.456.2334.17.0431.349.0431.52 0 .173-.0211.339-.079.488-.1698.216-.1193.396-.2953.52-.5092zm-3.268-5.2096c0-.1811-.033-.3608-.096-.5305-.065-.1662-.162-.3177-.286-.4456-.122-.1295-.27-.2309-.435-.2971-.16-.0726-.334-.1088-.51-.1061-.176.0033-.349.043-.509.1167-.165.0655-.311.1713-.424.3077-.123.1259-.22.2754-.284.4395-.063.1641-.093.3394-.088.5154.002.3522.138.6904.382.9443.24.249.568.3938.913.4032.171.0001.341-.0336.499-.0992.159-.0655.303-.1616.424-.2828.133-.1212.237-.2696.308-.435.061-.1705.097-.3494.106-.5305zm-4.647-2.8647c.179-.3036.232-.6655.148-1.008-.083-.3455-.295-.6457-.594-.8382-.148-.094-.314-.1566-.488-.184-.173-.0274-.35-.0189-.52.0249-.34.0958-.629.3204-.806.626-.186.3207-.24.7015-.149 1.061.041.1726.115.3355.219.4794.104.1438.235.2657.386.3588.149.0893.315.1471.488.1697.168.0372.341.0372.509 0 .168-.0496.326-.1286.467-.2334.147-.124.263-.2801.34-.4562zm-5.061-2.557c.031-.1719.031-.348 0-.5199-.021-.1783-.075-.3511-.16-.5093-.092-.1507-.206-.2866-.339-.4032-.139-.1057-.298-.1816-.467-.2228-.248-.0849-.516-.0849-.764 0-.249.0908-.467.2528-.625.4659-.159.2131-.251.4679-.266.733-.019.2691.04.5379.17.7746.128.2331.324.4217.562.5411.232.1183.496.1592.753.1167.261-.03.506-.1414.701-.3183.206-.1714.358-.4004.435-.6578zm-5.624-.5836c.057-.1715.089-.3501.096-.5305-.003-.2703-.08-.5347-.223-.7639-.141-.2201-.344-.3936-.584-.4987-.242-.0983-.507-.1241-.764-.0743-.257.0475-.492.178-.668.3714-.189.1892-.319.4301-.371.6925-.053.2624-.027.5345.074.7823.089.2449.252.4562.467.6048.215.1498.469.2345.732.244.179.0018.356-.0343.52-.1061.159-.0665.303-.1639.424-.2865.123-.1271.224-.2742.297-.435zm-5.676.8912c.188-.32.241-.7016.148-1.061-.067-.2595-.211-.4925-.413-.6684-.19-.18-.431-.2952-.69-.3289-.258-.033-.52.0113-.753.1273-.233.1261-.426.3156-.555.5466-.13.231-.191.494-.178.7585.013.2652.105.5204.266.732.151.2161.366.3794.615.4669.249.0737.515.0737.764 0 .313-.0918.581-.2958.753-.573zm-5.029 1.8886c.05-.1769.063-.3622.04-.5446-.024-.1824-.085-.3581-.178-.5164-.132-.2275-.328-.4118-.563-.5305-.233-.116-.495-.1603-.753-.1273-.258.0365-.499.1513-.69.3289-.199.1769-.339.41-.403.6685-.08.252-.08.5225 0 .7745.08.2519.232.4747.438.6407s.456.2679.719.293c.26.0147.518-.0481.742-.1804.161-.0865.302-.2057.414-.3501.107-.1356.186-.2906.234-.4563zm-4.446 3.1831c0-.1812-.032-.3608-.095-.5305-.065-.1662-.163-.3177-.287-.4457-.118-.126-.263-.2239-.424-.2864-.16-.0726-.334-.1088-.51-.1061-.175-.0007-.348.0354-.509.1061-.156.0654-.297.163-.414.2864-.126.1284-.227.2796-.297.4457-.063.166-.096.3422-.095.5199-.002.1777.031.3541.095.5198.073.1646.173.3154.297.4457.122.1199.262.2201.414.2971.163.0623.335.0946.509.0954.175.0012.348-.0312.51-.0954.157-.0742.301-.1747.424-.2971.123-.129.22-.2802.287-.4457.068-.1606.101-.3345.095-.5092zm-3.618 5.305c.185-.3215.234-.703.138-1.061-.095-.3488-.318-.6485-.626-.8382-.149-.0884-.314-.1453-.486-.1672-.171-.0219-.345-.0083-.511.0399-.17.0462-.327.1265-.464.2359-.137.1095-.25.2459-.332.4007-.185.3215-.234.703-.138 1.061.092.3473.317.6446.626.8276.147.0881.31.1449.48.1668s.342.0085.507-.0395c.171-.0513.33-.1357.468-.2486.139-.1129.253-.252.338-.4092zm-2.037 5.0292c.037-.1749.037-.3557 0-.5305-.021-.1783-.075-.3511-.159-.5093-.087-.1518-.202-.2852-.34-.3926-.138-.1026-.292-.1815-.456-.2334-.172-.0315-.348-.0315-.52 0-.173.0281-.339.0893-.488.1804-.151.0838-.281.1997-.382.3395-.111.1406-.191.3034-.233.4774-.092.3583-.043.7381.138 1.0611.171.3081.457.5367.795.6366.167.0457.34.0581.512.0362.171-.0219.336-.0775.486-.1636.169-.0996.314-.2347.426-.3959.111-.1612.187-.3446.221-.5378z" fill="#a92819"/><path d="m198.218 86.1648c-1.353.6762-2.62 1.5096-3.778 2.4827-.38-.3518-.856-.5829-1.368-.6641s-1.036-.0088-1.507.2079l-1.772-4.0212c1.431-.6236 3.026-.7663 4.545-.4066 1.519.3596 2.88 1.2022 3.88 2.4013z" fill="#179e6c"/><path d="m193.741 91.4054-3.183 3.0345c-.181-.1822-.376-.349-.584-.4987.741-1.2708 1.616-2.4589 2.61-3.5437.412.3044.799.6415 1.157 1.0079z" fill="#179e6c"/><path d="m193.39 190.737h-2.578v9.263h2.578z" fill="#a92819"/><path d="m193.39 189.443h-2.578v1.284h2.578z" fill="#a92819"/><path d="m192.595 90.3979c-.994 1.0849-1.869 2.2729-2.61 3.5438-.498-.4509-1.136-.7187-1.807-.7592s-1.336.1487-1.885.5364l-2.674-3.4802c1.297-.9842 2.888-1.5037 4.516-1.4749 1.628.0289 3.199.6044 4.46 1.6341z" fill="#179e6c"/><path d="m190.184 96.2863-2.25 3.7667c-.127-.0829-.262-.1539-.403-.2123.244-.9034.538-1.7925.881-2.6631.18-.4775.403-.9655.626-1.4642.394.1653.777.3567 1.146.5729z" fill="#179e6c"/><path d="m189.039 95.7138c-.223.4987-.445.9867-.626 1.4642-.343.8706-.637 1.7597-.88 2.6631-.817-.3607-2.706-.9549-3.916.6469l-3.512-2.6522c1.017-1.3294 2.461-2.2668 4.089-2.6535s3.34-.1989 4.845.5315z" fill="#179e6c"/><path d="m186.007 190.737h-2.578v9.263h2.578z" fill="#a92819"/><path d="m186.007 189.443h-2.578v1.284h2.578z" fill="#a92819"/><path d="m184.35 120.403c.075.275.075.564 0 .838-.032.179-.099.35-.197.503s-.226.285-.376.389c-.308.215-.689.303-1.061.244-6.811-1.793-10.408 2.599-14.992 8.18-6.26 7.597-14.206 17.252-33.315 18.419-.178-.399-.383-.786-.616-1.156 0-.722 0-1.39-.085-2.122 1.865-1.391 3.637-2.9 5.306-4.52 1.781-1.73 3.404-3.615 4.848-5.634 1.381-1.943 2.578-4.011 3.576-6.175 2.833-6.186 2.748-12.329 2.663-17.655v-2.122c-.03-.282-.076-.562-.138-.839-.403-1.848-1.362-3.529-2.748-4.817-1.14-1.123-2.647-1.798-4.244-1.899-.384-.016-.769.017-1.146.096h-.117c-1.399.227-2.668.959-3.564 2.058-.532.626-.942 1.346-1.21 2.122-.243.774-.319 1.592-.223 2.398.244 1.471 1.027 2.798 2.196 3.724.483.318 1.037.511 1.613.562.715.079 1.439.003 2.122-.222.537-.283.985-.709 1.295-1.231.221-.468.256-1.004.095-1.496-.037-.166-.094-.326-.17-.478-.103-.192-.253-.356-.435-.477-.049-.005-.099-.005-.148 0-.05-.006-.099-.006-.149 0h-.085c-.125.064-.22.174-.265.308v.222c.128.342.128.719 0 1.061-.144.346-.412.626-.752.785-.339.159-.725.185-1.083.075-.354-.116-.652-.358-.839-.679-.37-.75-.431-1.615-.169-2.409.308-.805.875-1.484 1.612-1.931h.159c.217-.109.444-.195.68-.254.811-.233 1.681-.133 2.419.275.697.395 1.259.99 1.612 1.709.199.329.346.687.435 1.061.329 1.118.254 2.316-.212 3.384v.096c-.582 1.111-1.494 2.016-2.61 2.589l-.329.138c-1.074.363-2.213.497-3.342.392-1.148-.119-2.245-.536-3.183-1.209-1.732-1.407-2.869-3.415-3.183-5.624-.158-1.23-.042-2.48.339-3.66.35-1.17.939-2.253 1.73-3.183 1.36-1.656 3.283-2.7515 5.4-3.0772.585-.1073 1.178-.1571 1.772-.1485 2.292.1443 4.456 1.1037 6.101 2.7057.309.282.599.583.87.902v-6.812l-4.244-4.8382c-.22-.3122-.317-.6941-.274-1.0735.043-.3793.223-.7297.508-.9848.29-.2599.671-.3968 1.061-.382.395-.0011.775.151 1.061.4244l1.825 2.2494v-4.2441c-.043-.1958-.043-.3983 0-.5941.053-.1913.147-.3687.275-.5199.133-.1497.295-.2691.478-.3501.18-.0943.38-.1417.583-.138.2-.0011.396.0463.573.138.184.0782.348.1981.478.3501.128.1512.222.3286.276.5199.047.1952.047.3989 0 .5941v4.2441l1.856-2.122c.277-.2761.644-.443 1.034-.4703.389-.0273.776.0869 1.088.3217.278.2874.447.6626.478 1.061.009.3835-.115.7582-.35 1.061l-4.149 4.7427v2.3979c.17-.2334.372-.4987.563-.7215 1.093-1.2731 2.43-2.3154 3.931-3.066s3.137-1.1943 4.811-1.3053c2.586-.2948 5.197.2721 7.427 1.6127 2.229 1.318 3.926 3.3752 4.796 5.8148.998 2.679.998 5.628 0 8.307-.514 1.32-1.307 2.512-2.325 3.496-1.018.983-2.238 1.734-3.574 2.202-2.103.721-4.394.668-6.462-.149-1.297-.508-2.407-1.4-3.183-2.557-.711-1.007-1.19-2.159-1.4-3.374-.223-1.213-.128-2.463.276-3.628.381-1.112 1.1-2.077 2.058-2.759.659-.48 1.416-.806 2.217-.955.535-.074 1.078-.074 1.613 0 .605.047 1.196.209 1.74.478.572.279 1.081.673 1.496 1.156.514.563.878 1.245 1.061 1.984.159.742.107 1.514-.148 2.228-.171.477-.443.911-.796 1.273-.353.371-.779.664-1.252.86-.184.079-.383.119-.584.119-.2 0-.399-.04-.583-.119-.374-.156-.672-.454-.828-.828-.078-.184-.119-.383-.119-.583 0-.201.041-.399.119-.584.152-.376.445-.677.817-.838.092-.03.176-.081.244-.149.069-.066.123-.145.159-.233.054-.18.054-.372 0-.552-.031-.243-.119-.475-.254-.679-.152-.172-.336-.312-.541-.414-.206-.086-.425-.137-.648-.148-.306-.043-.616-.043-.923 0-.388.112-.75.303-1.061.562-.444.335-.779.792-.965 1.316-.23.683-.274 1.416-.127 2.122.132.76.425 1.484.859 2.122.449.656 1.09 1.156 1.836 1.432 1.387.556 2.929.59 4.339.096.897-.301 1.717-.797 2.398-1.454.713-.695 1.264-1.539 1.613-2.472.742-2.002.742-4.205 0-6.207-.62-1.7794-1.849-3.2826-3.47-4.2439-1.658-1.0063-3.598-1.4457-5.528-1.252-2.532.1644-4.902 1.3056-6.61 3.183-1.737 2.2829-2.666 5.0789-2.642 7.9469v4.382c0 5.655.181 12.17-2.917 18.971-.613 1.337-1.297 2.64-2.048 3.904 4.838-1.39 8.488-5.464 11.926-9.283.838-.955 1.612-1.889 2.514-2.77 2.587-2.936 5.942-5.093 9.687-6.228 3.735-.933 7.756-.18 11.671 3.555.086.08.165.169.234.265.039.061.074.125.106.191zm-7.045-1.231c-1.424-.36-2.915-.36-4.339 0-3.222 1.034-6.099 2.932-8.319 5.486-.806.859-1.612 1.782-2.472 2.737-4.297 4.838-8.965 10.09-16.276 10.61-1.441 1.885-3.023 3.658-4.732 5.305-.742.722-1.517 1.422-2.302 2.122 14.854-2.122 21.538-10.376 26.928-16.976 3.64-4.435 6.886-8.276 11.459-9.284z" fill="#0f7657"/><path d="m183.797 66.8117c.215.5198.215 1.1036 0 1.6234-.109.2584-.267.4928-.467.6896l-8.318 8.0637v7.7453h-4.34v-7.6604l-8.605-7.9152c-.401-.384-.636-.9103-.654-1.4659-.018-.5555.183-1.0958.559-1.5049.395-.4081.933-.6472 1.501-.6669.568-.0198 1.121.1812 1.544.5608l5.73 5.2096v-5.825l-5.624-5.8143c-.384-.4099-.59-.9556-.573-1.5172.025-.5585.269-1.0846.679-1.4642.42-.3827.971-.588 1.539-.573.282.004.561.0642.819.1771.259.113.493.2764.687.4808l2.409 2.5252v-11.6711h4.35v11.9575l2.302-2.2917c.413-.3919.959-.6119 1.528-.6154.57-.0009 1.118.2198 1.528.6154.389.3966.607.9299.607 1.4854 0 .5554-.218 1.0887-.607 1.4854l-5.358 5.2307v5.5809l5.305-5.1352c.412-.3888.956-.6053 1.523-.6053.566 0 1.11.2165 1.522.6053.179.2026.319.4363.414.6896z" fill="#f8b05e"/><path d="m161.369 147.958 20.976 29.644h-164.5725l19.7347-29.602 3.0345 2.026-15.9151 23.905h150.6634l-16.934-23.851z" fill="#0f7657"/><path d="m178.62 190.737h-2.578v9.263h2.578z" fill="#a92819"/><path d="m178.62 189.443h-2.578v1.284h2.578z" fill="#a92819"/><path d="m171.237 190.737h-2.578v9.263h2.578z" fill="#a92819"/><path d="m171.237 189.443h-2.578v1.284h2.578z" fill="#a92819"/><path d="m163.997 5.73999.106 5.83551c-9.21.1804-15.915 4.1486-20.053 11.7878-2.077 3.9341-3.237 8.2865-3.395 12.7321l-5.847-.1167c.135-4.102.986-8.1489 2.515-11.9576.176.1003.346.2101.509.329l3.555-4.6154c-.449-.3511-.925-.6668-1.422-.9443.467-.7321.965-1.4748 1.517-2.1963.26.2248.495.4774.7.7533l4.658-3.5225c-.409-.537-.859-1.0407-1.347-1.5067.855-.7435 1.763-1.4243 2.716-2.0371.524.5383.951 1.1628 1.262 1.8462l5.306-2.33426c-.319-.78029-.721-1.52379-1.199-2.21751 3.349-1.17628 6.869-1.79632 10.419-1.83554z" fill="#179e6c"/><path d="m163.842 190.737h-2.578v9.263h2.578z" fill="#a92819"/><path d="m163.842 189.443h-2.578v1.284h2.578z" fill="#a92819"/><path d="m156.467 190.737h-2.578v9.263h2.578z" fill="#a92819"/><path d="m156.467 189.443h-2.578v1.284h2.578z" fill="#a92819"/><path d="m154.821 9.77148-5.305 2.33422c-.312-.6834-.739-1.3079-1.263-1.8462 1.668-1.09285 3.455-1.99336 5.326-2.6843.492.68509.908 1.42148 1.242 2.19628z" fill="#179e6c"/><path d="m149.084 190.737h-2.578v9.263h2.578z" fill="#a92819"/><path d="m149.084 189.443h-2.578v1.284h2.578z" fill="#a92819"/><path d="m153.582 7.57583c-1.886.68801-3.687 1.5886-5.369 2.68437-.454-.52088-1.05-.89848-1.715-1.08685s-1.37-.1794-2.03.02582l-1.719-5.5809c4.668-1.42175 8.573.80637 10.833 3.95756z" fill="#179e6c"/><path d="m146.842 13.8037-4.658 3.5225c-.205-.2759-.44-.5285-.7-.7533 1.179-1.5561 2.524-2.9792 4.01-4.244.487.4557.938.9488 1.348 1.4748z" fill="#179e6c"/><path d="m145.496 12.2973c-1.487 1.2648-2.832 2.6879-4.011 4.244-.589-.675-1.39-1.1291-2.271-1.2873-.882-.1582-1.791-.011-2.578.4173l-2.992-5.0186c4.393-2.57826 8.902-1.10346 11.852 1.6446z" fill="#179e6c"/><path d="m141.697 190.737h-2.578v9.263h2.578z" fill="#a92819"/><path d="m141.697 189.443h-2.578v1.284h2.578z" fill="#a92819"/><path d="m141.391 19.7138-3.555 4.6154c-.163-.1189-.333-.2287-.509-.3289.463-1.1605.991-2.294 1.581-3.3952.329-.6048.679-1.2202 1.061-1.8356.498.2776.973.5933 1.422.9443z" fill="#179e6c"/><path d="m139.966 18.7692c-.382.6154-.732 1.2307-1.061 1.8355-.59 1.1012-1.118 2.2347-1.581 3.3952-1.061-.6153-3.427-1.6976-5.305.2335l-4.244-4.0531c3.703-3.7772 8.594-3.4695 12.191-1.4111z" fill="#179e6c"/><path d="m135.693 154.939v3.437c-.042 1.165-.191 2.323-.446 3.459-.318 1.329-.864 2.593-1.613 3.735-.602.941-1.314 1.806-2.122 2.578-1.259 1.168-2.809 1.974-4.488 2.335-1.143.243-2.315.318-3.48.222-.866-.045-1.728-.155-2.578-.329-1.111-.182-2.185-.54-3.183-1.061-.985-.525-1.852-1.248-2.546-2.122-.693-.863-1.208-1.855-1.518-2.917-.267-1.008-.402-2.046-.403-3.088-.008-1.076.135-2.147.425-3.183.261-.891.647-1.741 1.145-2.525v-2.844c.054-.957.054-1.917 0-2.875-.03-.717-.141-1.429-.328-2.122-.336-1.137-.729-2.256-1.178-3.353-.435-1.061-.838-2.016-1.189-3.066-.254-.785-.435-1.613-.679-2.377l-.18-.329c-.202-.297-.499-.626-.732-.912-.424-.562-.849-1.157-1.231-1.761-.138.742-.276 1.485-.467 2.249-.488 1.984-1.199 3.904-1.75 5.878-.166.528-.294 1.067-.382 1.613v.148c.302.819.553 1.655.753 2.504.3 1.217.505 2.455.615 3.703.17 1.561-.121 3.138-.835 4.537-.715 1.398-1.822 2.558-3.186 3.336-.498.297-.987.583-1.496.838-.653.327-1.335.594-2.037.796-.8013.836-1.7374 1.532-2.7692 2.058-1.1595.594-2.3844 1.049-3.6498 1.358-1.319.319-2.6758.455-4.0319.403-1.0698-.051-2.1341-.186-3.183-.403-1.9008-.386-3.5909-1.463-4.7427-3.024-.231-.312-.4368-.642-.6154-.986 1.3572-.143 2.6927-.446 3.9788-.902.5925.631 1.3748 1.052 2.2281 1.199.8449.183 1.7039.293 2.5677.329 1.0089.076 2.0236.009 3.0132-.202.9727-.251 1.9154-.607 2.8117-1.061.9887-.476 1.8314-1.209 2.4403-2.122h.1698c.7823-.081 1.5404-.319 2.2284-.7.432-.209.853-.439 1.262-.69.747-.428 1.349-1.071 1.727-1.844.378-.774.516-1.643.395-2.495-.085-1.035-.255-2.06-.509-3.067-.191-.785-.424-1.464-.679-2.228-.096-.308-.18-.615-.255-.934-.01-.141-.01-.283 0-.424.086-.907.264-1.803.531-2.674.552-1.92 1.241-3.809 1.74-5.772.383-1.583.614-3.2.69-4.827.002-.711.059-1.42.169-2.122.234-.913.658-1.921.934-2.854.488-1.613.859-3.183 1.337-4.839l.18-.636.297.891c.435 1.358.86 2.716 1.263 4.085.202.732.435 1.517.605 2.239.169.721.307 1.379.551 2.069.297.781.678 1.528 1.136 2.228.403.626.817 1.231 1.273 1.825.333.389.644.797.934 1.22.224.381.402.787.53 1.209.265.701.361 1.337.679 2.324s.753 1.931 1.125 2.875c.477 1.199.923 2.441 1.294 3.671.287.959.479 1.943.573 2.939.093 1.059.093 2.125 0 3.183-.106 1.008 0 2.123-.106 3.184-.031.301-.088.599-.17.891-.071.114-.149.223-.233.329-.382.553-.669 1.166-.849 1.814-.195.69-.288 1.405-.276 2.122-.013.716.072 1.43.255 2.122.163.588.445 1.137.827 1.613.384.467.856.853 1.39 1.135.627.348 1.298.609 1.995.775.701.127 1.41.205 2.122.233.812.085 1.632.042 2.43-.127 1.017-.222 1.958-.709 2.727-1.411.612-.546 1.153-1.167 1.612-1.847.488-.778.847-1.631 1.061-2.525.192-.926.306-1.866.34-2.811v-3.184c-.011-.943-.129-1.883-.35-2.801-.106-.386-.237-.766-.393-1.135 1.061-.69 2.005-1.39 2.992-2.122h.159c.361.722.645 1.479.849 2.26.318 1.202.486 2.439.499 3.682z" fill="#a92819"/><path d="m134.969 190.737h-2.578v9.263h2.578z" fill="#a92819"/><path d="m134.969 189.443h-2.578v1.284h2.578z" fill="#a92819"/><path d="m134.376 148.976h-.159c-.987.722-1.974 1.422-2.992 2.122-.189-.475-.42-.933-.69-1.368-.148-.244-.488-.382-.488-.722v-.605c1.061-.721 2.186-1.506 3.183-2.334l.414-.318c0 .69.064 1.358.085 2.122.241.352.457.721.647 1.103z" fill="#a92819"/><path d="m133.678 145.74-.414.318c-1.061.828-2.122 1.613-3.183 2.335v-.446c-.063-1.676-.18-3.183-.307-5.061-.128-1.878-.276-3.767-.541-5.623-.213-1.609-.648-3.18-1.295-4.669-.556-1.107-1.194-2.171-1.91-3.183-.345-.485-.594-1.033-.732-1.613-.36-1.775-.605-3.572-.732-5.379-.254-2.737-.477-5.464-.806-8.17-.254-2.321-.701-4.617-1.337-6.864-.637-2.271-1.517-4.488-2.249-6.727-.678-2.1724-1.241-4.3788-1.687-6.6102-.452-2.1841-.757-4.3959-.913-6.6207-.212-2.6632-.339-5.4112-.339-8.0637-.001-1.1132.063-2.2256.191-3.3315.18-1.45.265-2.9103.254-4.3714-.073-2.3173-.318-4.6259-.732-6.9072-.297-1.6976-.69-3.3527-1.061-5.0185h.18c1.302-.0112 2.596-.1895 3.852-.5305 1.273-.3194 2.464-.9042 3.495-1.716 1.032-.8118 1.88-1.8324 2.489-2.9949.613-1.1678 1.053-2.4188 1.305-3.7135.244-1.3115.244-2.6567 0-3.9682-.218-1.4703-.77-2.8713-1.613-4.0955-.899-1.2841-2.055-2.3678-3.395-3.183-.486-.3074-.993-.5804-1.517-.817v.0849-.2228c-.073-.8715-.311-1.7212-.7-2.504-.344-.7121-.823-1.35-1.412-1.878-.514-.4495-1.076-.8409-1.676-1.1671-.06-.9751-.432-1.9051-1.061-2.6525-.148-.1804-.308-.3395-.467-.4987-.319-.5761-.748-1.0842-1.262-1.496-.487-.4205-1.025-.7771-1.603-1.061h-.095c-.402-.4506-.893-.8121-1.443-1.061-.852-.3536-1.791-.4424-2.695-.2547-1.067.1862-2.027.7607-2.695 1.6128l-.159.191-.52.0954c-.583.1319-1.135.377-1.623.7215-.485.35-.89.7984-1.189 1.3157-.167.3171-.309.6471-.424.9867-.117.2441-.223.4881-.318.7427-.096.2547-.159.4881-.223.7427-.179.4042-.293.8337-.34 1.2732-.094.6873-.054 1.3862.117 2.0584.025.1403.061.2786.106.4138.023.287.073.5712.149.8488.183.6722.5 1.3003.933 1.8461.34.4335.74.8159 1.189 1.1353l.35.2334v.764c-.212 1.8992-.573 3.7878-.711 5.7082-.127 2.0174-.127 4.0409 0 6.0583 0 1.0611.127 2.1221.127 3.1831v2.366c-.263-.2916-.543-.568-.838-.8276-.746-.7059-1.626-1.2544-2.5887-1.6127-.9996-.3615-2.0473-.5725-3.1088-.626-1.1589-.0841-2.3234.0417-3.4377.3714-1.3567.4222-2.5764 1.1987-3.5331 2.2493-.831 1.0232-1.4219 2.2196-1.7295 3.5013-.3885 1.1863-.547 2.4359-.4668 3.6817.1084 1.3592.4121 2.6957.9019 3.9682.4684 1.1667 1.007 2.3041 1.6127 3.4058.4244.7215.8382 1.5915 1.3263 2.3342-.3608.1698-.7109.3608-1.0611.5624-1.1235.7565-2.0187 1.8058-2.5888 3.0344-.712 1.4028-1.353 2.8405-1.9204 4.3077-.4244 1.061-.764 1.9629-1.1778 3.1831-.4137 1.2201-.8381 2.3978-1.2307 3.6074-.2228.679-.435 1.3899-.6578 2.122-.9231.8488-1.9311 1.7507-2.7268 2.557-.7958.8064-1.5597 1.5597-2.3236 2.3661-.4457.4456-.9125.87-1.4112 1.2944l-1.5172 1.3369-.4456.4032c-.2399-.0638-.4848-.1064-.7321-.1274-1.0938-.0863-2.1911.1149-3.1831.5836-.3626.1582-.7168.3352-1.061.5302-.3651.069-.7211.179-1.061.329-.8712.368-1.6031 1.004-2.0902 1.815-.4639.817-.6501 1.762-.5305 2.694.0744.65.2879 1.276.626 1.836.0827.3.1928.591.3289.87.1264.275.2829.535.4669.775.1498.345.3385.673.5623.976.6806.889 1.6478 1.515 2.7374 1.772.7939.169 1.6146.169 2.4085 0 .3608-.075.6791-.181 1.061-.255.4739-.064.9376-.188 1.3793-.371.5495-.26 1.046-.62 1.4642-1.061.5199-.297 1.061-.552 1.6127-.828.9358-.485 1.8427-1.023 2.7162-1.613 1.6765-1.071 3.2983-2.225 4.8594-3.459 1.6446-1.326 3.1831-2.748 4.7427-4.18 1.1557-1.0506 2.1118-2.3015 2.8223-3.6923l1.3263-2.2387c.6896 1.4854 1.6127 2.9284 2.3024 4.4456.4992.9571.7647 2.0184.7745 3.0984-.1129 1.184-.3731 2.349-.7745 3.469-.8064 2.356-1.6128 4.605-2.1963 7.045-.6268 2.651-1.0419 5.347-1.2414 8.064-.1592 2.048-.1591 4.064-.1591 6.09.0634.922.0634 1.847 0 2.769-.0798.636-.1967 1.267-.3502 1.889-.3169 1.196-.5509 2.412-.7003 3.639-.1663 1.693-.2336 3.393-.2015 5.093-.0743 2.016-.1804 4.043-.2971 6.058 0 .542-.0531 1.157-.1273 1.592 0-.106-.0955 0-.0955 0-.3608.509-.764.987-1.1459 1.464-.3315.436-.6857.854-1.061 1.252-.352.333-.7319.634-1.1353.902-.6098.423-1.1813.899-1.7082 1.422-.6962.746-1.218 1.637-1.5279 2.61-.1814.612-.2953 1.241-.3395 1.878-.0106.138-.0106.276 0 .414-1.2164.421-2.4827.681-3.7666.774-.0531-.483-.0531-.97 0-1.453.0683-2.516 1.04-4.923 2.7374-6.78.6736-.708 1.4246-1.338 2.2387-1.878.2582-.176.5029-.371.7321-.584.2759-.276.5518-.626.8064-.934l.4775-.583v-.255c.1273-1.973.2228-3.968.297-5.952-.0354-1.771.039-3.543.2229-5.305.1566-1.396.4154-2.779.7745-4.138.1235-.464.2157-.935.2758-1.411.0425-.778.0425-1.557 0-2.334 0-2.122.0001-4.244.1592-6.462.2273-2.91.685-5.798 1.3687-8.636.6048-2.483 1.3793-4.849 2.122-7.321.1486-.457.4032-1.21.5517-1.836-.2071.225-.4305.434-.6684.626-1.6127 1.507-3.183 2.992-4.9337 4.361-1.6764 1.336-3.4224 2.583-5.2307 3.735-.9728.655-1.9786 1.261-3.0133 1.814-.4032.212-.8064.392-1.2202.583-.6293.57-1.3457 1.036-2.122 1.38-.683.283-1.3944.493-2.122.626-.4032.095-.7533.191-1.1353.265-1.3262.276-2.695.276-4.0212 0-1.9282-.479-3.6351-1.602-4.8382-3.183-.3087-.42-.5786-.868-.8063-1.337-.4651-.646-.8234-1.362-1.0611-2.122-.5292-1.005-.8443-2.108-.9253-3.241s.0739-2.27.4548-3.34.9795-2.049 1.7582-2.8761c.7786-.8268 1.7202-1.4831 2.7654-1.9274.4278-.1785.8674-.3274 1.3156-.4456l.7852-.4032c1.3347-.6046 2.779-.9295 4.244-.9549l.7427-.6472c.4147-.3284.8081-.6828 1.1777-1.061.7958-.8064 1.6128-1.6128 2.3555-2.451s1.2732-1.2307 1.9735-1.9416c.1273-.4032.2334-.8064.3607-1.1883.4032-1.2308.8488-2.451 1.2626-3.6605.4138-1.2096.7957-2.2175 1.2414-3.183.6263-1.5848 1.3346-3.136 2.122-4.6473.5341-1.0699 1.2163-2.0593 2.0265-2.9389-.5971-1.0953-1.1354-2.2216-1.6127-3.374-.6279-1.6207-1.007-3.327-1.1247-5.0611-.1413-1.7481.0605-3.507.5942-5.1777.5575-1.7775 1.487-3.4159 2.7268-4.8063 1.4139-1.5587 3.2204-2.7093 5.2307-3.3316 1.5711-.4678 3.2138-.6475 4.8488-.5305.751.0536 1.4984.1492 2.2388.2865 0-1.7825 0-3.5438.1061-5.3051.1273-1.5278.3819-3.0026.5623-4.488-.2016-.2228-.4138-.4669-.6048-.7109-.7554-.9358-1.3049-2.0204-1.6127-3.183-.1022-.3479-.1802-.7024-.2334-1.061v-.3183c-.4373-1.7587-.33-3.6087.3077-5.3051.0954-.3183.2015-.626.3076-.9443s.2971-.6366.4457-.9549c.4294-1.1398 1.1029-2.1719 1.9738-3.0239.86-.8577 1.9-1.5137 3.045-1.9204 1.212-1.094 2.707-1.8253 4.315-2.1104 1.608-.2852 3.263-.1127 4.778.4977.828.3702 1.591.8718 2.26 1.4854.632.357 1.242.7539 1.824 1.1883.707.5927 1.322 1.2863 1.825 2.0584l.393.4244c.675.8221 1.186 1.7656 1.507 2.7798.18.1274.35.2547.53.4032.92.7338 1.703 1.6246 2.313 2.6313.471.7461.828 1.5577 1.061 2.4085 2.247 1.3912 4.096 3.3392 5.369 5.6552 1.008 1.8719 1.564 3.954 1.623 6.0795.061 2.0318-.241 4.0582-.891 5.9841-.7 2.0698-1.857 3.9555-3.385 5.5173-1.624 1.6309-3.647 2.8087-5.867 3.4164l-.414.1167.18.9125c.448 2.4733.699 4.9779.754 7.4907.032 1.6168-.053 3.2337-.255 4.8382-.114.947-.171 1.9002-.17 2.8541 0 2.5889.128 5.2202.329 7.7878.146 2.1387.433 4.2653.86 6.366.415 2.1059.953 4.1855 1.612 6.2282.733 2.2703 1.613 4.4883 2.25 6.7903.714 2.428 1.218 4.913 1.506 7.427.329 2.738.552 5.486.828 8.223.106 1.628.318 3.248.637 4.849v.138l.169.276c.799 1.168 1.508 2.395 2.122 3.671.818 1.812 1.361 3.736 1.613 5.708.287 1.942.456 3.915.594 5.878.011 1.167.085 2.164.138 3.151z" fill="#a92819"/><path d="m131.968 155.024v3.183c-.034.945-.147 1.885-.339 2.811-.215.894-.573 1.747-1.061 2.525-.459.68-1.001 1.301-1.613 1.847-.769.702-1.71 1.189-2.727 1.411-.798.169-1.618.212-2.43.127-.712-.028-1.421-.106-2.122-.233-.697-.166-1.368-.427-1.994-.775-.535-.282-1.007-.668-1.39-1.135-.383-.476-.665-1.025-.828-1.613-.182-.692-.268-1.406-.254-2.122-.012-.717.08-1.432.275-2.122.18-.648.467-1.261.849-1.814.084-.106.162-.215.234-.329.082-.292.138-.59.169-.891.107-1.061 0-2.218.107-3.183.092-1.059.092-2.125 0-3.183-.095-.996-.287-1.981-.573-2.939-.372-1.231-.817-2.473-1.295-3.672-.371-.944-.806-1.899-1.125-2.875-.318-.976-.413-1.623-.679-2.323-.128-.423-.306-.829-.53-1.21-.289-.423-.601-.83-.934-1.22-.456-.594-.87-1.199-1.273-1.825-.458-.7-.838-1.447-1.135-2.228-.244-.69-.372-1.369-.552-2.069s-.403-1.507-.605-2.239c-.403-1.369-.827-2.727-1.262-4.085l-.297-.891-.181.637c-.477 1.612-.849 3.183-1.337 4.838-.276.933-.7 1.941-.933 2.854-.111.702-.167 1.411-.17 2.122-.076 1.627-.307 3.244-.69 4.827-.498 1.963-1.188 3.852-1.74 5.772-.267.871-.445 1.767-.53 2.674-.011.141-.011.283 0 .424.074.319.159.626.254.934.255.764.488 1.443.679 2.228.254 1.007.424 2.032.51 3.067.12.852-.018 1.721-.396 2.495-.378.773-.979 1.416-1.726 1.844-.409.251-.831.481-1.263.69-.688.381-1.4457.619-2.2281.7h-.1698c-.6089.913-1.4516 1.646-2.4403 2.122-.8963.454-1.839.81-2.8116 1.061-.9897.211-2.0044.278-3.0133.202-.8637-.036-1.7228-.146-2.5676-.329-.8608-.132-1.6547-.542-2.26-1.167.5841-.196 1.1548-.43 1.7082-.701.3245-.202.5597-.521.6579-.891.0953-.304.0953-.63 0-.934l.3183-.137c0 .095.1167.137.3289.18.6318.135 1.2746.213 1.9204.233.6532.038 1.3083-.027 1.9416-.191.6773-.163 1.3353-.398 1.9629-.7.3925-.176.7245-.464.9549-.828.2016-.307.2865-.679.5517-1.061.2571-.363.5857-.67.9655-.901.2549-.179.5586-.276.8701-.276.0885.009.1729.042.244.095.0759.046.1411.107.191.181 0 .116.1061.191.2865.169.2872-.053.5656-.146.8275-.276.3502-.18.7533-.445 1.0613-.583.307-.138.339-.223.307-.775-.092-.824-.234-1.643-.424-2.451-.191-.827-.4244-1.411-.5729-1.931-.1678-.448-.2991-.909-.3926-1.379-.0742-.489-.0742-.986 0-1.475.1033-1.16.3309-2.305.6791-3.416.4664-1.613 1.2524-3.905 1.6124-5.645.38-1.361.615-2.759.701-4.169.011-.93.103-1.856.275-2.77.223-.88.584-1.75.987-3.087s.828-3.183 1.326-4.838c.499-1.656 1.061-3.183 1.624-4.69.562-1.507.933-2.589 1.252-3.374.159-.484.44-.919.817-1.263.107-.081.237-.125.371-.127.138 0 .272.045.382.127.374.337.64.776.764 1.263.276.753.584 1.878 1.061 3.353s1.061 3.183 1.623 4.838c.563 1.655.955 3.077 1.274 4.159.318 1.082.509 1.793.679 2.43.106.545.244 1.083.413 1.613.223.513.481 1.009.775 1.485.329.52.679 1.061 1.061 1.517.421.514.811 1.052 1.167 1.613.393.633.703 1.314.923 2.026.244.743.403 1.613.658 2.313.255.701.615 1.613 1.061 2.674.542 1.308 1.006 2.648 1.39 4.011.393 1.219.65 2.479.764 3.756.085 1.209 0 2.398 0 3.66.024 1.179-.015 2.359-.117 3.533-.033.729-.191 1.447-.467 2.122-.15.339-.339.659-.562.955-.147.216-.261.452-.34.701-.328.659-.385 1.421-.159 2.122.01.095.051.185.117.254.059.077.135.139.223.181.298.148.616.252.944.307.541.085 1.061.159 1.613.191.457.064.922.064 1.379 0 .369-.072.707-.258.966-.53.345-.316.652-.672.912-1.061.26-.418.447-.877.552-1.358.156-.697.245-1.408.265-2.122v-2.854c.002-.611-.066-1.22-.202-1.815.095-.043.184-.096.266-.159 1.061-.679 2.037-1.369 3.034-2.069.156.369.287.749.393 1.135.176.895.254 1.805.233 2.717z" fill="#f4f4f4"/><path d="m130.535 149.719c.27.435.5.893.689 1.369-.997.7-2.015 1.389-3.034 2.069-.082.062-.171.116-.265.159-.005-.043-.005-.085 0-.128-.139-.518-.357-1.012-.647-1.464-.256-.362-.487-.741-.69-1.135l2.981-1.878.499-.318v.604c-.021.34.318.478.467.722z" fill="#f4f4f4"/><path d="m130.049 147.947v.446l-.499.318-2.981 1.878-.191-.35c-.168-.694-.229-1.41-.181-2.122 0-1.189-.169-3.045-.297-4.945-.127-1.899-.307-3.809-.509-5.305-.159-1.246-.491-2.464-.987-3.618-.477-.953-1.016-1.875-1.613-2.758-.604-.869-1.03-1.851-1.251-2.886-.394-1.951-.667-3.925-.817-5.91-.245-2.546-.499-5.666-.796-8.064-.225-2.107-.634-4.191-1.22-6.228-.605-2.037-1.465-4.329-2.218-6.663-.722-2.3014-1.324-4.6387-1.804-7.0025-.485-2.3481-.807-4.7269-.965-7.1194-.212-2.7798-.34-6.2493-.34-8.3501-.03-1.2697.041-2.5399.213-3.7984.162-1.2735.229-2.5573.201-3.8408-.052-2.136-.272-4.2645-.658-6.3661-.413-2.4191-1.061-5.061-1.443-6.7268-.269-1.0387-.39-2.1103-.36-3.183 0-.817.138-1.7719.222-2.9814l.064-1.1459v3.183c-.135.8025-.065 1.6263.204 2.3944.269.7682.728 1.4556 1.335 1.9982.773.6228 1.733.9667 2.726.9761.372 1.6658.764 3.321 1.061 5.0186.414 2.2812.659 4.5899.732 6.9071.011 1.4611-.074 2.9214-.254 4.3714-.128 1.1059-.191 2.2183-.191 3.3315 0 2.6526.127 5.4006.339 8.0637.156 2.2248.461 4.4367.913 6.6207.446 2.2314 1.009 4.4378 1.687 6.6097.732 2.239 1.613 4.457 2.249 6.727.636 2.247 1.083 4.543 1.337 6.865.329 2.705.552 5.432.806 8.17.127 1.807.372 3.604.732 5.379.139.58.387 1.127.733 1.613.715 1.011 1.353 2.075 1.909 3.183.647 1.488 1.082 3.059 1.295 4.668.265 1.857.414 3.745.541 5.623s.212 3.343.276 5.019z" fill="#f4f4f4"/><path d="m128.117 155.13v2.854c-.02.714-.109 1.425-.266 2.122-.105.481-.291.94-.551 1.358-.261.389-.567.745-.913 1.061-.259.273-.596.458-.965.531-.458.063-.922.063-1.38 0-.541 0-1.061-.106-1.612-.191-.328-.056-.647-.16-.945-.308-.087-.042-.163-.104-.222-.18-.066-.07-.107-.16-.117-.255-.226-.701-.169-1.463.159-2.122.078-.249.193-.485.34-.7.223-.296.411-.617.562-.955.276-.676.434-1.393.467-2.122.102-1.175.141-2.354.116-3.533 0-1.263.085-2.451 0-3.661-.114-1.276-.37-2.536-.763-3.756-.384-1.363-.848-2.702-1.39-4.01-.446-1.061-.807-1.985-1.061-2.674-.255-.69-.414-1.57-.658-2.313-.22-.712-.531-1.393-.923-2.027-.356-.56-.746-1.099-1.167-1.612-.382-.489-.733-.998-1.061-1.518-.294-.476-.553-.972-.775-1.485-.169-.529-.307-1.068-.414-1.613-.17-.636-.35-1.347-.679-2.43-.329-1.082-.732-2.546-1.273-4.159-.541-1.612-1.167-3.374-1.623-4.838-.457-1.464-.754-2.599-1.061-3.353-.125-.487-.391-.926-.764-1.262-.11-.083-.245-.128-.382-.128-.134.002-.265.047-.372.128-.376.343-.657.778-.817 1.262-.318.785-.71 1.931-1.252 3.374-.541 1.443-1.061 3.077-1.623 4.69s-.923 3.491-1.326 4.838c-.403 1.348-.764 2.207-.987 3.088-.172.913-.264 1.84-.276 2.769-.085 1.411-.32 2.808-.7 4.17-.361 1.74-1.146 4.032-1.6128 5.644-.3481 1.111-.5758 2.257-.679 3.417-.0742.489-.0742.986 0 1.475.0935.469.2248.93.3926 1.379.1485.52.3819 1.061.5732 1.931.19.808.332 1.626.424 2.451 0 .551 0 .626-.308.774-.3073.149-.668.403-1.0606.584-.2619.129-.5404.222-.8276.276-.1803 0-.2865 0-.2865-.17-.0499-.073-.115-.135-.1909-.18-.0712-.054-.1555-.087-.2441-.096-.3114.001-.6152.097-.87.276-.3799.232-.7084.539-.9655.902-.2653.361-.3501.732-.5517 1.061-.2304.363-.5624.651-.9549.827-.6276.303-1.2856.537-1.9629.701-.6334.164-1.2884.228-1.9416.191-.6459-.02-1.2886-.099-1.9205-.234-.2122 0-.2864-.085-.3289-.18-.0064-.067-.0064-.135 0-.202.0106-.358.064-.715.1592-1.061.1468-.428.3858-.819.7002-1.146.3552-.354.7463-.671 1.1671-.944.5671-.37 1.1061-.781 1.6128-1.231.4986-.512.9697-1.05 1.4111-1.612.4775-.552.9549-1.146 1.3157-1.624.2993-.328.5462-.7.7321-1.103.2369-.688.4005-1.4.488-2.122.0955-1.539.2122-4.117.2865-6.197.0743-2.079.0849-3.586.2122-4.848.1251-1.074.3236-2.137.5942-3.183.2101-.798.3626-1.61.4562-2.43.062-1.06.062-2.123 0-3.183 0-1.475 0-3.501.1485-5.804.189-2.502.5757-4.986 1.1565-7.427.6048-2.525 1.4112-4.944 2.0054-6.811.551-1.506.894-3.081 1.019-4.68.039-1.6847-.348-3.3526-1.125-4.8483-.902-2.0053-2.4511-4.5836-3.3954-6.6525-.6134-1.3996-1.0723-2.8618-1.3687-4.3608-.1485-.7851-.2016-.7851-1.305 1.061l-4.3502 7.374c-.494 1.0776-1.2183 2.0338-2.122 2.8011-.9337.87-2.7586 2.5782-4.5305 3.9995-1.482 1.141-3.0225 2.204-4.6154 3.184-.7745.519-1.5809.997-2.3978 1.442-.817.446-1.39.68-1.825.902-.2583.123-.4893.296-.679.51-.0968.144-.233.259-.3926.329-.2056.074-.4193.124-.6366.148-.3052.11-.622.185-.9443.223-.2529.074-.5216.074-.7745 0-.2363-.035-.4496-.16-.5942-.35-.1208-.189-.2171-.392-.2865-.605-.1167-.202-.297-.318-.3819-.509s-.0955-.425-.2016-.701c-.1692-.252-.3014-.527-.3926-.817-.0048-.122.0246-.243.0849-.35.0577-.1.1473-.179.2546-.222.2122-.107.4351-.001.8276-.202.3926-.202.8701-.478 1.3369-.69.3882-.192.819-.284 1.252-.265.3627.078.7178.188 1.061.329.3454.108.7156.108 1.061 0 .3643-.155.6956-.378.9761-.658.3077-.297.626-.605 1.061-.976l1.4536-1.273c.4775-.4565.9549-.8809 1.6127-1.5175.6579-.6366 1.3369-1.4536 2.2706-2.366.9337-.9125 2.069-1.9735 2.6843-2.5465.6154-.5729.7003-.679.8489-1.1565.1485-.4774.4244-1.3687.7957-2.5039.3714-1.1353.8382-2.4616 1.2096-3.512.3713-1.0504.6472-1.7825 1.1246-3.0026.4775-1.2202 1.2096-2.939 1.7401-3.9576.2601-.6371.6893-1.1911 1.2414-1.6021.3607-.2228.7639-.3501 1.2944-.6578s1.252-.7746 1.8355-1.1459c.5836-.3714 1.061-.5942 1.5173-.87.3535-.2409.6806-.5183.9761-.8276.1088-.1137.1952-.2469.2546-.3926.0623-.1473.0877-.3075.0743-.4668-.0167-.3691-.1107-.7306-.2759-1.061-.0483-.1339-.1284-.254-.2334-.3502-.1126-.0979-.2473-.1671-.3926-.2016-.2668-.0221-.5321.0575-.7427.2228-.2671.1548-.5434.293-.8275.4138-.2472.1065-.5178.1467-.7852.1168-.2016 0-.3713-.2016-.6578-.6473-.2865-.4456-.7003-1.1777-1.1565-2.0583-.5251-.9492-.9894-1.9309-1.3899-2.939-.3524-.9242-.5808-1.8911-.6791-2.8753-.0446-.7688.0562-1.5392.2971-2.2706.2028-.7189.5655-1.3827 1.061-1.9416.4948-.5385 1.125-.9342 1.825-1.1459.6894-.1943 1.4089-.2591 2.122-.191.6723.0191 1.3378.1408 1.9734.3607.515.2015.9841.5046 1.3794.8913.4367.3834.8217.8221 1.1457 1.305.354.5713.582 1.2116.669 1.878.136.8918.203 1.7928.201 2.695-.002.644.055 1.2868.17 1.9204.122.4512.369.8592.711 1.1777.313.3042.671.5582 1.061.7533.279.1479.58.2517.891.3077h.074c.2.0424.406.0424.605 0 .206-.093.396-.2184.562-.3713.235-.2079.451-.4351.648-.6791.232-.2777.389-.61.456-.9655.053-.8232.053-1.649 0-2.4722 0-1.5596.106-4.244.106-6.0477s0-2.9814 0-3.9576c0-.9761-.149-1.7931-.149-3.183-.095-1.8697-.095-3.743 0-5.6127.181-2.122.573-4.244.722-5.6233.122-.7022.122-1.4199 0-2.1221.732.5305 1.507 1.0611 2.324 1.6022.318.2122.71.4244 1.061.6366l.063.3925c.181 1.5916.478 4.0213.594 5.9523v.3289c.011.2015.011.4033 0 .6048v1.8886.6047l-.063 1.1459c-.085 1.2096-.223 2.122-.223 2.9815-.03 1.0727.091 2.1442.361 3.183.35 1.6658 1.061 4.3077 1.443 6.7268.385 2.1015.605 4.2301.657 6.366.028 1.2835-.039 2.5673-.201 3.8409-.172 1.2585-.243 2.5286-.212 3.7984 0 2.122.127 5.5703.339 8.3501.158 2.3925.481 4.7712.966 7.1194.48 2.3637 1.082 4.7011 1.803 7.0026.754 2.334 1.613 4.626 2.218 6.663.587 2.037.995 4.121 1.22 6.228.297 2.398.552 5.517.796 8.064.15 1.985.423 3.959.817 5.91.221 1.035.647 2.016 1.252 2.886.596.883 1.135 1.805 1.613 2.758.496 1.154.828 2.372.986 3.618.202 1.518.382 3.417.51 5.305.127 1.889.297 3.756.297 4.945-.048.712.012 1.428.18 2.122l.191.35-.17.116c-.161.118-.297.266-.401.437-.104.17-.173.359-.203.556-.031.197-.022.399.025.592.047.194.132.377.25.538.238.322.592.539.987.604.295.043.597.003.87-.116.154.593.239 1.201.255 1.814z" fill="#a92819"/><path d="m127.904 153.188c-.005.043-.005.085 0 .128-.273.119-.575.159-.87.116-.395-.065-.749-.282-.987-.604-.118-.161-.203-.344-.25-.538-.047-.193-.056-.395-.025-.592.03-.197.099-.386.203-.556.104-.171.24-.319.401-.436l.17-.117c.203.394.434.773.69 1.135.297.45.523.944.668 1.464z" fill="#a92819"/><path d="m127.596 190.737h-2.578v9.263h2.578z" fill="#a92819"/><path d="m127.596 189.443h-2.578v1.284h2.578z" fill="#a92819"/><path d="m127.172 46.7693c.244 1.3115.244 2.6567 0 3.9682-.253 1.2947-.692 2.5457-1.305 3.7135-.611 1.1605-1.459 2.1791-2.491 2.989-1.031.81-2.221 1.3931-3.493 1.7113-1.256.341-2.551.5193-3.852.5305h-.18c-.138-.6048-.276-1.2202-.403-1.8355-.14-.7915-.169-1.5986-.085-2.3979 0-.1486 0-.3183 0-.4669 0 .7852.106.8701.647.8701.957-.024 1.907-.1593 2.833-.4032.775-.1984 1.498-.5602 2.122-1.061.599-.4824 1.093-1.0816 1.453-1.7613.416-.8201.713-1.6954.881-2.5995.159-.8805.159-1.7825 0-2.6631-.137-.9161-.478-1.7898-.997-2.557-.603-.852-1.372-1.5738-2.26-2.122-.766-.4619-1.59-.8187-2.451-1.061-.541-.1804-.594-.2122-.669-.6685-.107-.6815-.175-1.3688-.201-2.0583-.018-.4064-.112-.8058-.276-1.1778-.058-.1264-.133-.2442-.223-.3501.34-.7032.552-1.4613.626-2.2387.053-.6426.053-1.2885 0-1.931.005-.0565.005-.1133 0-.1698.6.3262 1.162.7176 1.676 1.1671.564.5036 1.028 1.1082 1.369 1.7825.39.7828.628 1.6325.7 2.504v.2228-.0849c.525.2366 1.032.5096 1.518.817 1.339.8151 2.495 1.8989 3.395 3.183.869 1.235 1.44 2.6553 1.666 4.1485z" fill="#f4f4f4"/><path d="m123.364 47.3949c.159.8806.159 1.7826 0 2.6632-.168.904-.465 1.7794-.881 2.5994-.36.6797-.854 1.279-1.453 1.7613-.624.5008-1.347.8626-2.122 1.061-.926.2439-1.876.3792-2.833.4032-.541 0-.637-.0849-.647-.87-.011-.7852.201-1.5915.201-2.3873.117-1.6885.117-3.3831 0-5.0716-.106-2.0584-.361-4.1061-.594-6.1432-.115-.6765-.172-1.3616-.17-2.0478.377-.4083.731-.8369 1.061-1.2838.143-.2194.267-.4501.372-.6897.09.1059.165.2237.222.3502.168.3607.269.749.298 1.1459.026.6895.094 1.3768.201 2.0583.074.4563.127.4881.669.6685.86.2423 1.685.5991 2.451 1.061.888.5482 1.656 1.27 2.259 2.122.514.7826.844 1.6712.966 2.5994z" fill="#0f7657"/><path d="m120.213 190.737h-2.578v9.263h2.578z" fill="#a92819"/><path d="m120.213 189.443h-2.578v1.284h2.578z" fill="#a92819"/><path d="m116.891 33.1991c.053.6426.053 1.2885 0 1.931-.075.7775-.287 1.5355-.626 2.2388-.086-.1245-.19-.2353-.308-.3289-.402-.3336-.84-.6218-1.305-.8595l-1.889-.9655c.054-.1686.086-.3433.096-.5199.042-.4162.042-.8357 0-1.252.012-.2027-.045-.4036-.16-.5708s-.283-.2912-.477-.3522c-.047-.0211-.097-.032-.148-.032-.052 0-.102.0109-.149.032h-.106c.011-.1873.011-.3751 0-.5624-.054-.2421-.198-.4545-.403-.5941-.294-.234-.606-.4434-.934-.626-.113-.1224-.241-.2294-.382-.3183-.091-.0213-.185-.0213-.276 0h-.127s0 0 0-.1592c.022-.1228.022-.2485 0-.3713-.007-.066-.033-.1285-.074-.1804-.036-.0589-.088-.1066-.149-.1379-.039-.0048-.078-.0048-.117 0l.064-.3608c.513.0682 1.014.2112 1.485.4244.632.2543 1.227.5895 1.772.9974.435.3289.87.6366 1.327.923.806.4669 1.623.8488 2.472 1.2839l.403.2228c.007.0456.011.0917.011.1379z" fill="#f4f4f4"/><path d="m91.5427 147.13c.0743-.435.0955-1.061.1274-1.592.1167-2.016.2228-4.042.297-6.058-.032-1.7.0353-3.401.2016-5.093.1494-1.228.3833-2.444.7003-3.639.1534-.622.2704-1.253.3501-1.889.0635-.922.0635-1.847 0-2.769 0-2.027 0-4.042.1592-6.09.1994-2.717.6145-5.413 1.2414-8.064.5835-2.44 1.3899-4.69 2.1962-7.045.4015-1.12.6617-2.285.7746-3.469-.0099-1.08-.2753-2.1415-.7746-3.0986-.6896-1.5172-1.6127-2.9602-2.3023-4.4456l-1.3263 2.2387c-.7105 1.3908-1.6666 2.6417-2.8223 3.6923-1.6127 1.4322-3.0981 2.8432-4.6896 4.1802-1.5531 1.251-3.1678 2.423-4.8382 3.512-.8735.59-1.7804 1.128-2.7162 1.613-.5305.276-1.061.53-1.6127.827-.4182.442-.9147.801-1.4642 1.061-.4418.183-.9054.308-1.3793.372-.3502.074-.6685.18-1.061.254-.7939.17-1.6147.17-2.4085 0-1.0897-.256-2.0569-.882-2.7374-1.771-.2239-.303-.4126-.631-.5624-.977-.1839-.24-.3405-.499-.4668-.774-.1361-.279-.2462-.571-.3289-.87-.3381-.56-.5516-1.186-.626-1.836-.1196-.932.0665-1.877.5305-2.695.4681-.814 1.1809-1.46 2.0371-1.846.3399-.15.6959-.26 1.061-.329.3442-.195.6984-.372 1.061-.5302.992-.4687 2.0893-.6699 3.1831-.5835.2472.0209.4922.0635.7321.1273l.4456-.4032 1.6021-1.3581c.4987-.4244.9655-.8488 1.4111-1.2944.7852-.8064 1.5173-1.6128 2.313-2.4191.7958-.8064 1.7507-1.7082 2.6419-2.557.2229-.7109.4351-1.4218.6579-2.1221.3925-1.2095.8063-2.4191 1.2307-3.6074s.7534-2.122 1.1778-3.183c.5674-1.4672 1.2083-2.9049 1.9204-4.3077.5701-1.2286 1.4653-2.278 2.5888-3.0345.3608-.2016.7109-.3926 1.061-.5623-.488-.7427-.9018-1.6128-1.3262-2.3342-.6057-1.1018-1.1443-2.2391-1.6127-3.4059-.4898-1.2725-.7936-2.6089-.9019-3.9681-.0598-1.2308.113-2.4619.5093-3.6287.3075-1.2817.8985-2.4781 1.7294-3.5013.9685-1.057 2.2035-1.8339 3.5756-2.2493 1.1142-.3297 2.2788-.4555 3.4377-.3714 1.0615.0535 2.1092.2645 3.1087.626.9622.3584 1.8432.9068 2.5892 1.6127.295.2596.575.536.838.8276v-2.3342c0-1.061-.096-2.122-.127-3.183-.128-2.0175-.128-4.0409 0-6.0584.137-1.9204.498-3.809.71-5.7082v-.7639l-.35-.2334c-.448-.3195-.848-.7018-1.188-1.1353-.433-.5458-.751-1.1739-.934-1.8462-.076-.2776-.125-.5618-.148-.8488-.046-.1352-.081-.2735-.106-.4138-.19-.6795-.244-1.3897-.159-2.0902.051-.4214.165-.8327.339-1.2201.064-.2547.138-.4987.223-.7427s.201-.4987.318-.7427c.115-.3397.257-.6696.425-.9868.299-.5173.704-.9656 1.188-1.3156.488-.3445 1.04-.5897 1.623-.7215l.52-.0955.159-.191c.668-.8521 1.628-1.4266 2.695-1.6127.904-.1877 1.843-.099 2.695.2546.55.249 1.042.6104 1.443 1.0611h.096c.577.2839 1.115.6404 1.602 1.061.516.3941.952.884 1.284 1.4429.159.1592.318.3183.466.4987.63.7474 1.002 1.6774 1.061 2.6525l-.403-.2228c-.849-.435-1.666-.817-2.472-1.2838-.456-.2865-.891-.5942-1.326-.9231-.545-.4078-1.141-.7431-1.772-.9973-.472-.2132-.972-.3562-1.485-.4244-.65-.0802-1.309-.037-1.942.1273-1.129.3381-2.099 1.068-2.737 2.0583-.27.364-.502.7551-.69 1.1672-.298.5753-.485 1.2016-.552 1.8461-.063.5618-.001 1.1305.18 1.6658.159.5433.426 1.0487.786 1.4854.352.4408.793.8023 1.294 1.061.496.2671 1.041.4296 1.602.4775l.128.0848c.121.7022.121 1.4199 0 2.1221-.149 1.4217-.542 3.5331-.722 5.6233-.095 1.8697-.095 3.743 0 5.6127 0 1.4324.117 2.26.149 3.183.031.9231 0 2.1221 0 3.9576s-.085 4.4881-.107 6.0477c.053.8232.053 1.649 0 2.4722-.067.3555-.224.6878-.456.9655-.196.244-.413.4712-.647.6791-.166.1529-.356.2783-.562.3713-.2.0424-.406.0424-.605 0h-.117c-.311-.056-.612-.1598-.891-.3077-.39-.1951-.748-.4491-1.061-.7533-.342-.3185-.589-.7265-.711-1.1777-.115-.6336-.172-1.2765-.17-1.9204.01-.8802-.047-1.7597-.169-2.6313-.103-.6542-.341-1.2796-.701-1.8356-.32-.4978-.706-.951-1.1456-1.3475-.3953-.3867-.8644-.6898-1.3793-.8912-.625-.2204-1.2795-.3456-1.9417-.3714-.7137-.0646-1.4332.0038-2.122.2016-.7011.2148-1.3314.6142-1.8249 1.1565-.4955.559-.8582 1.2227-1.061 1.9417-.2396.728-.3404 1.4946-.2971 2.2599.094.9874.3188 1.9578.6684 2.886.4213 1.0097.9068 1.9913 1.4536 2.9389.4563.8807.8594 1.6128 1.1565 2.0584s.4562.5942.6578.6472c.2482.0276.4994-.0051.7321-.0955.2841-.1208.5605-.259.8276-.4138.2106-.1653.4759-.2449.7427-.2228.1453.0345.28.1037.3926.2016.105.0961.1851.2163.2334.3501.1652.3305.2591.692.2759 1.061.0134.1594-.0121.3196-.0743.4669-.0594.1457-.1458.2789-.2546.3926-.2955.3093-.6227.5867-.9762.8276-.4456.2758-.9336.4986-1.5172.87-.5835.3713-1.305.8382-1.8355 1.1459s-.9337.435-1.2945.6578c-.5613.411-.9983.9691-1.2626 1.6127-.5305 1.061-1.252 2.7268-1.74 3.9576-.4881 1.2307-.7533 1.9522-1.1247 3.0026-.3713 1.0504-.8382 2.3873-1.2095 3.512-.3714 1.1246-.626 2.0265-.7958 2.5039-.1698.4775-.2334.6048-.8488 1.1565-.6154.5518-1.7507 1.6234-2.695 2.5465-.9443.923-1.6127 1.74-2.2705 2.366s-1.1353 1.061-1.6127 1.5172l-1.4218 1.273c-.4138.372-.7321.679-1.061.976-.2805.28-.6118.503-.9761.658-.3454.109-.7157.109-1.061 0-.3433-.141-.6983-.251-1.061-.329-.4331-.018-.8638.073-1.252.266-.4669.212-.9549.541-1.3369.689-.382.149-.6154.096-.8276.202-.1073.044-.197.122-.2546.223-.0603.106-.0897.227-.0849.35.0912.289.2234.565.3926.817.1061.276.1273.509.2016.7.0742.191.2652.308.3819.509.0694.213.1657.416.2865.605.1446.19.3579.316.5942.35.2528.074.5216.074.7745 0 .3222-.038.6391-.113.9443-.223.2173-.024.431-.074.6366-.148.1596-.07.2958-.184.3926-.329.1897-.214.4207-.387.679-.509.435-.223 1.1565-.552 1.8249-.902.6685-.35 1.6234-.923 2.3979-1.443 1.5928-.98 3.1334-2.043 4.6154-3.183 1.7719-1.422 3.5968-3.1833 4.5305-4.0002.9037-.7673 1.628-1.7235 2.122-2.8011l4.3183-7.3634c1.061-1.8461 1.1565-1.8461 1.3051-1.061.2963 1.499.7553 2.9612 1.3687 4.3608.9443 2.122 2.4933 4.6472 3.3952 6.6525.78 1.477 1.177 3.1257 1.156 4.7954-.15 1.554-.507 3.082-1.061 4.541-.5937 1.868-1.4001 4.244-2.0048 6.812-.5808 2.441-.9676 4.925-1.1565 7.427-.1804 2.303-.1486 4.329-.1486 5.804.062 1.06.062 2.123 0 3.183-.0936.82-.246 1.632-.4562 2.43-.2706 1.046-.4691 2.109-.5942 3.183-.1273 1.262-.1273 2.758-.2122 4.848-.0848 2.091-.191 4.658-.2864 6.197-.0876.722-.2511 1.434-.4881 2.122-.1456.438-.3605.85-.6366 1.22-.3608.477-.8382 1.061-1.3157 1.623-.4414.562-.9125 1.101-1.4111 1.613-.5066.449-1.0457.861-1.6127 1.231-.4208.273-.812.59-1.1671.944-.3144.326-.5535.717-.7003 1.146-.0952.346-.1486.702-.1592 1.061-.0064.067-.0064.134 0 .201l-.3183.138c-.024-.058-.0523-.115-.0848-.169-.1731-.336-.464-.597-.817-.732-.3431-.123-.7179-.123-1.061 0-.4775.222-.9549.413-1.4324.583-.0105-.138-.0105-.276 0-.414.0442-.636.1581-1.266.3395-1.878.3099-.972.8318-1.863 1.5279-2.61.5269-.523 1.0985-.998 1.7082-1.421.4035-.268.7833-.57 1.1353-.902.3753-.399.7295-.817 1.061-1.252.382-.478.7851-.955 1.1459-1.465.0636.096.1591-.031.1591.075z" fill="#f4f4f4"/><path d="m115.955 37.04c.118.0936.222.2045.307.3289-.105.2396-.229.4702-.371.6897-.33.4469-.684.8755-1.061 1.2838-.002.6862.054 1.3713.17 2.0478.233 2.0371.488 4.0848.594 6.1432.117 1.6885.117 3.3831 0 5.0716 0 .7958-.138 1.5915-.202 2.3873 0-.1592 0-.3608 0-.5942 0-1.3156.106-3.7878 0-5.8037s-.191-3.5332-.307-4.6684c-.117-1.1353-.191-1.8568-.266-2.451-.074-.5941 0-1.061-.084-1.4217.002-.211-.049-.4191-.149-.6048-.101-.1856-.247-.3426-.424-.4562-.499-.4032-1.465-.9125-2.345-1.4642-.128-.0849-.265-.1698-.403-.2759l.095-.1273c.308-.435.711-.7427.944-1.1353.146-.2388.25-.5007.308-.7745l1.889.9655c.465.2377.903.5259 1.305.8594z" fill="#0f7657"/><path d="m115.446 57.8565c.128.6153.265 1.2307.403 1.8355-.992-.0094-1.953-.3533-2.726-.9761-.607-.5426-1.066-1.23-1.335-1.9982-.269-.7681-.339-1.5919-.204-2.3944 0-1.061 0-2.122 0-3.183 0-.2016 0-.4032 0-.6048 0-.8276 0-1.6552-.064-2.4934 0-1.252-.148-2.4721-.275-3.7347-.075-.8276-.17-1.6127-.255-2.5146v-.3395l-.138-.0849c-.122-.8789-.143-1.7688-.064-2.6525.091-.5299.29-1.0355.584-1.4854.138.1061.276.1909.403.2758.881.5518 1.846 1.061 2.345 1.4642.178.1136.324.2706.424.4563.1.1856.151.3938.149.6047.085.3714 0 .8276.085 1.4218.085.5941.148 1.3262.265 2.4509s.191 2.6525.308 4.6684c.116 2.016 0 4.4881 0 5.8037v.5942.4669c-.082.8068-.05 1.6212.095 2.4191z" fill="#f4f4f4"/><path d="m112.861 33.4428c.042.4163.042.8358 0 1.252-.01.1766-.042.3513-.096.5199l-.71-.3926c-.557-.3246-1.095-.6788-1.613-1.061-.303-.2406-.639-.4371-.998-.5835-.283-.1483-.607-.2005-.923-.1486-.211.0811-.395.221-.53.4032h-.064l.128-.1697c.117-.207.179-.441.18-.6791-.021-.3286-.021-.6582 0-.9867 0-.3608.127-.7639.127-1.061.019-.2247.088-.4423.202-.6366.114-.1218.269-.1973.435-.2122.119-.0259.242-.0259.361 0 .038-.0048.078-.0048.116 0 .062.0313.113.079.149.1379.041.0519.067.1144.074.1804.022.1228.022.2485 0 .3713v.1592h.127c.091-.0213.186-.0213.276 0 .141.0889.269.1959.382.3183.328.1826.64.392.934.626.205.1396.349.352.403.5941.011.1873.011.3751 0 .5624h.106c.047-.0211.098-.032.149-.032s.102.0109.148.032c.194.061.362.185.477.3522s.172.3681.16.5708z" fill="#a92819"/><path d="m112.826 190.737h-2.578v9.263h2.578z" fill="#a92819"/><path d="m112.826 189.443h-2.578v1.284h2.578z" fill="#a92819"/><path d="m112.761 35.2149c-.058.2738-.162.5357-.308.7746-.233.3925-.636.7002-.944 1.1352l-.095.1274c-.619-.4109-1.211-.861-1.772-1.3475-.349-.287-.749-.5065-1.178-.6472h-.902c-.044-.01-.086-.0287-.123-.055-.036-.0263-.068-.0597-.091-.0983-.024-.0386-.04-.0815-.047-.1262s-.004-.0904.007-.1343v-.0955c.042-.2221.117-.4367.222-.6366.09-.2129.208-.4127.351-.5942.021-.058.058-.1093.106-.1485.134-.1823.318-.3222.53-.4032.316-.0519.64.0002.923.1485.359.1464.694.3429.998.5836.518.3822 1.056.7364 1.612 1.061z" fill="#0f7657"/><path d="m111.565 48.0635c.064.8382.074 1.6658.064 2.4933 0-.6259 0-1.2519 0-1.8885-.011-.2026-.032-.4045-.064-.6048z" fill="#efe7dc"/><path d="m111.566 48.0634c0-.1061 0-.2228 0-.3289-.116-1.9311-.414-4.3608-.594-5.9523l-.064-.3926.138.0849v.3396c.085.9018.181 1.687.255 2.5145.117 1.2626.244 2.4828.265 3.7348z" fill="#efe7dc"/><path d="m111.417 37.2522c-.295.45-.493.9555-.584 1.4854-.08.8837-.058 1.7737.064 2.6525-.361-.2122-.754-.4244-1.061-.6366-.817-.5093-1.592-1.061-2.324-1.6021 0-.2016-.074-.4032-.127-.6154-.14-.3948-.36-.7561-.647-1.061-.149-.1805-.32-.341-.51-.4774-.139-.08-.289-.1407-.445-.1804-.114-.0315-.222-.0817-.319-.1485-.139-.0878-.258-.2034-.35-.3396-.125-.1401-.215-.3071-.265-.488v-.5093c-.075-.188-.128-.3837-.159-.5836-.032-.2359-.032-.4749 0-.7108.044-.1682.104-.3316.18-.4881.038-.2019.091-.4006.159-.5942.096-.2228.223-.4456.319-.6684.109-.1653.188-.3484.233-.5411.06-.1157.163-.2032.287-.2441.116-.0954.286-.0954.286 0 .084.1292.125.2814.117.4351.021.2258.021.4532 0 .679-.038.2192-.091.4354-.159.6472-.052.1479-.088.3008-.107.4563-.009.0419-.009.0854 0 .1273.016.0407.042.0771.075.1061h.403c.302-.025.598-.0929.881-.2016.208-.0822.393-.2132.541-.382h.063c-.048.0393-.084.0905-.106.1486-.143.1814-.26.3813-.35.5941-.105.2-.181.4145-.223.6366v.0743c-.011.0439-.013.0896-.006.1343.007.0448.023.0877.046.1262.024.0386.055.072.092.0983s.079.045.123.055h.902c.429.1408.829.3602 1.178.6472.567.4946 1.166.9518 1.793 1.3687z" fill="#a92819"/><path d="m109.422 29.1773-.064.3608c-.119-.0259-.242-.0259-.361 0-.166.0149-.321.0904-.435.2122-.114.1943-.183.4119-.201.6366 0 .3183-.096.7214-.128 1.061-.021.3285-.021.6581 0 .9867 0 .2381-.062.4721-.18.679l-.127.1698c-.148.1688-.333.2997-.542.382-.282.1087-.579.1766-.88.2016h-.403c-.033-.029-.059-.0654-.075-.1061-.009-.0419-.009-.0855 0-.1274.019-.1554.055-.3083.106-.4562.068-.2118.122-.428.16-.6472.021-.2259.021-.4532 0-.679.007-.1537-.033-.3059-.117-.4351 0-.0955-.17-.0955-.287 0-.123.0408-.226.1284-.286.2441-.046.1926-.125.3758-.233.5411-.096.2228-.223.4456-.319.6684-.068.1936-.122.3923-.159.5942-.076.1565-.136.3199-.18.488-.032.2359-.032.475 0 .7109.031.1998.084.3956.159.5836v.5623c.05.1809.14.3479.265.4881.092.1361.211.2517.35.3395.097.0668.205.117.319.1485.156.0398.305.1004.445.1804.19.1364.361.2969.509.4775.288.3048.508.6662.648 1.061 0 .2122.095.4138.127.6154l-.127-.0849c-.561-.0479-1.107-.2104-1.602-.4775-.502-.2587-.943-.6202-1.295-1.061-.36-.4367-.627-.9421-.785-1.4854-.171-.5377-.222-1.1063-.149-1.6658.067-.6445.254-1.2708.552-1.8461.189-.4121.42-.8032.69-1.1671.633-.9864 1.595-1.7159 2.716-2.0584.618-.147 1.258-.1794 1.889-.0955z" fill="#a92819"/><path d="m105.475 0v2.56764c-28.9969 0-33.5911 25.30506-33.7821 26.37666l-2.5464-.4138c.0424-.2971 5.114-28.5305 36.3285-28.5305z" fill="#4c8bca"/><path d="m105.443 190.737h-2.578v9.263h2.578z" fill="#a92819"/><path d="m105.443 189.443h-2.578v1.284h2.578z" fill="#a92819"/><path d="m104.903 12.2229.424 2.5252c-6.7369 1.1247-11.5963 4-14.4611 8.5517-5.3793 8.4881-2.122 20.1592-2.0583 20.3289l-2.4722.7215c-.1485-.5305-3.6392-12.9125 2.3343-22.4085 3.2785-5.2307 8.7321-8.4774 16.2333-9.7188z" fill="#4c8bca"/><path d="m98.0482 190.737h-2.5782v9.263h2.5782z" fill="#a92819"/><path d="m98.0482 189.443h-2.5782v1.284h2.5782z" fill="#a92819"/><path d="m90.6632 190.737h-2.5782v9.263h2.5782z" fill="#a92819"/><path d="m90.6632 189.443h-2.5782v1.284h2.5782z" fill="#a92819"/><path d="m87.8947 157.4c.0954.304.0954.63 0 .934-.0981.37-.3333.689-.6578.891-.5535.271-1.1241.505-1.7082.701-.1166-.108-.2199-.229-.3077-.361-.5403-.709-.8245-1.581-.8064-2.472.4775-.17.955-.361 1.4324-.584.3431-.122.7179-.122 1.061 0 .353.136.6439.396.817.732.0614.048.1182.101.1697.159z" fill="#efe7dc"/><path d="m85.2634 159.565c.0877.132.191.253.3077.361-1.2955.465-2.6419.775-4.0106.923-.4956-.937-.7918-1.967-.8701-3.024 1.2839-.093 2.5502-.354 3.7666-.775-.0279.906.2568 1.794.8064 2.515z" fill="#a92819"/><path d="m83.2782 190.737h-2.5782v9.263h2.5782z" fill="#a92819"/><path d="m83.2782 189.443h-2.5782v1.284h2.5782z" fill="#a92819"/><path d="m80.6879 157.825c.084 1.043.3801 2.057.8701 2.982-.7034.093-1.4126.136-2.122.127-4.0439-.017-8.0324-.941-11.6711-2.706-.5266-.167-1.066-.291-1.6128-.371-1.9113-.276-3.8612-.076-5.6763.583-1.2993.403-2.4549 1.171-3.3281 2.214-.8733 1.042-1.4271 2.315-1.595 3.664-.028.19-.089.373-.1804.542-.0901.164-.2129.309-.3607.424-.1484.117-.3189.202-.5013.252-.1823.049-.3727.061-.5597.034-.3776-.074-.7111-.294-.9291-.611-.2181-.317-.3035-.707-.2381-1.086.2532-1.892 1.0374-3.674 2.2618-5.139 1.2243-1.465 2.8387-2.552 4.656-3.137.7805-.287 1.5872-.496 2.4085-.626-.6818-.276-1.3942-.468-2.122-.573-1.6239-.232-3.2794-.087-4.8382.424-1.5007.455-2.8191 1.372-3.7666 2.621-.689.87-1.1585 1.892-1.3687 2.982-.0242.189-.0816.372-.1697.541-.0972.162-.223.306-.3714.424-.1473.124-.3218.211-.5093.255-.2831.07-.5816.046-.8498-.069s-.4914-.314-.6356-.568c-.211-.311-.2945-.69-.2334-1.061.2192-1.569.8083-3.064 1.7188-4.361 1.2874-1.74 3.0923-3.029 5.1565-3.681 1.167-.382 2.3807-.604 3.6074-.658-1.4633-.746-3.0618-1.19-4.7002-1.305-1.2255-.095-2.4581.031-3.6393.371-1.0209.284-1.9641.795-2.7586 1.496-.9542.856-1.5334 2.053-1.6127 3.332-.0092.194-.0561.385-.138.562-.0774.173-.1893.328-.3289.456-.1406.134-.3065.239-.488.308-.1807.063-.3709.096-.5624.096-.3807-.054-.7265-.251-.9655-.552-.2437-.298-.3617-.678-.3289-1.061.1321-2.093 1.0717-4.052 2.6207-5.464 1.0965-.987 2.4024-1.713 3.8196-2.122 1.4956-.445 3.0589-.617 4.6154-.51.9995.07 1.9884.248 2.9496.531v-.17c-1.3193-2.592-2.2148-5.379-2.6525-8.255-.2405-1.602-.3752-3.218-.4032-4.838.057-2.832-.8481-5.6-2.5676-7.851-1.7261-1.907-4.1373-3.051-6.7056-3.183-1.925-.207-3.8653.217-5.5278 1.209-1.6062.978-2.8303 2.476-3.4695 4.244-.7538 2.008-.7538 4.221 0 6.228.3543.924.9045 1.76 1.6127 2.451.688.656 1.5096 1.156 2.4085 1.465 1.4125.485 2.9523.447 4.3395-.107.7572-.336 1.3912-.9 1.8143-1.612.4427-.636.743-1.36.8807-2.122.146-.706.1021-1.439-.1274-2.122-.1759-.509-.5014-.953-.9337-1.274-.3152-.235-.6768-.402-1.061-.488-.3033-.031-.6091-.031-.9124 0-.3506.013-.6883.136-.9655.351-.2737.226-.4672.535-.5518.88-.0425.182-.0425.37 0 .552.0407.082.0944.158.1592.223.0691.07.1523.124.244.159.1929.074.3669.19.5093.339.1516.139.2711.309.3501.499.0764.193.116.398.1167.605-.0095.204-.0525.404-.1273.594-.0855.186-.2041.355-.3501.499-.1551.141-.335.252-.5305.329-.1902.069-.3919.101-.5942.095-.2088-.02-.413-.074-.6048-.159-.4712-.203-.8942-.503-1.2413-.881-.4185-.48-.7197-1.051-.8799-1.668-.1601-.617-.1749-1.263-.0432-1.886.1601-.739.4989-1.428.9867-2.005.4247-.472.9362-.857 1.5067-1.136.5698-.281 1.1906-.443 1.8249-.477.5357-.064 1.077-.064 1.6127 0 .7923.167 1.5429.491 2.2069.955.9778.675 1.7197 1.64 2.122 2.758.455 1.194.5832 2.487.3714 3.746-.2346 1.228-.7422 2.389-1.4854 3.395-.7776 1.155-1.8876 2.047-3.183 2.557-2.0675.817-4.3587.87-6.4616.149-1.3359-.472-2.5552-1.225-3.5756-2.207-1.0177-.982-1.8105-2.173-2.3236-3.491-1.0082-2.678-1.0082-5.63 0-8.308.8695-2.455 2.5847-4.519 4.8382-5.825 2.2264-1.351 4.8408-1.919 7.4271-1.612 1.67.115 3.3004.563 4.7959 1.315s2.8263 1.795 3.9149 3.067c.2016.233.3714.466.5518.71v-2.419l-4.2441-4.848c-.2455-.298-.3705-.676-.3501-1.061.0274-.409.2142-.79.5199-1.061.2891-.263.6707-.401 1.061-.382.3995.008.78.172 1.061.456l1.9204 2.196v-4.138c-.0377-.189-.0377-.384 0-.573.0614-.187.1587-.36.2865-.509.1329-.144.296-.256.4774-.329.1757-.084.3678-.127.5624-.127s.3867.043.5623.127c.1797.071.3397.184.4669.329.1316.147.2293.321.2864.509.0641.184.0858.38.0637.573v4.18l1.8355-2.122c.2079-.194.4656-.327.7444-.383.2789-.057.5679-.035.8351.063.2671.098.5019.268.6782.491.1764.223.2873.491.3206.774.0384.377-.0636.754-.2865 1.061l-4.1485 4.838v6.684c.2383-.277.4934-.539.7639-.785 1.6642-1.641 3.8726-2.615 6.2069-2.737.6011-.01 1.2017.04 1.7931.148 2.1267.331 4.0568 1.434 5.4217 3.098.7987.93 1.3982 2.013 1.7613 3.183.3752 1.189.4839 2.446.3183 3.682-.305 2.224-1.4426 4.249-3.183 5.666-.9327.684-2.0319 1.106-3.183 1.22-1.1407.116-2.2928-.022-3.374-.403-.1132-.022-.2212-.065-.3183-.127-1.1537-.56-2.1115-1.455-2.748-2.568-.5255-1.122-.6199-2.399-.2653-3.586.0975-.392.2437-.77.435-1.125.3465-.729.9098-1.333 1.6127-1.729.7488-.41 1.6261-.516 2.451-.297.2393.076.4732.168.7002.275h.1698c.7394.464 1.3061 1.157 1.6127 1.974.2536.798.1929 1.664-.1697 2.419-.0923.178-.2143.34-.3608.477-.1457.138-.3194.243-.5093.308-.1869.068-.3848.1-.5835.096-.2012-.008-.3988-.057-.581-.142-.1822-.086-.3455-.207-.48-.357-.1343-.148-.2388-.321-.3077-.509-.0635-.188-.0958-.385-.0955-.584.0117-.199.0622-.393.1485-.573v-.201c-.0525-.108-.1287-.202-.2228-.276-.0892-.032-.1866-.032-.2758 0-.1792.106-.3203.265-.4032.456-.0756.149-.1361.306-.1804.467-.144.479-.1139.994.0849 1.453.3059.542.7682.978 1.3263 1.252.6464.226 1.3349.306 2.0159.234.5759-.043 1.1312-.233 1.6127-.552 1.1066-.952 1.8241-2.277 2.0159-3.724.091-.796.0151-1.601-.2228-2.366-.2621-.775-.665-1.494-1.1883-2.122-.8645-1.06-2.0804-1.776-3.4271-2.016h-.0955c-.3526-.038-.7084-.038-1.061 0-1.6001.081-3.1129.754-4.244 1.889-1.3759 1.298-2.3139 2.993-2.6844 4.848-.0243.222-.0633.442-.1167.658.22 3.369 1.1148 6.66 2.6313 9.677 2.033 3.942 5.25 7.147 9.199 9.167 3.4807 1.834 7.3654 2.768 11.2997 2.716.3607-.074.7851-.085 1.2095-.17z" fill="#0f7657"/><path d="m75.903 190.737h-2.5783v9.263h2.5783z" fill="#a92819"/><path d="m75.903 189.443h-2.5783v1.284h2.5783z" fill="#a92819"/><path d="m54.1421 69.0082c-5.0185-6.9708-11.6711-10.1008-19.7878-9.3263l-.4244-4.3607c3.5806-.4239 7.2107-.0543 10.6324 1.0826 3.4216 1.1369 6.5511 3.0132 9.166 5.4956v-6.5464h2.2388l2.1962.1061v4.1486c3.8091-5.0398 9.6658-9.9417 17.1671-9.9417v4.382c-8.435 0-14.4403 8.2546-16.8594 13.4323 3.653 5.6839 6.0211 12.0966 6.939 18.7905l-4.3501.5623c-.8892-6.3985-3.2578-12.5017-6.9178-17.8249z" fill="#2a3277"/><path d="m69.1342 190.737h-2.5783v9.263h2.5783z" fill="#a92819"/><path d="m69.1342 189.443h-2.5783v1.284h2.5783z" fill="#a92819"/><path d="m64.794 44.2971v4.382c-5.687 0-6.5888 5.9734-6.6737 6.7904l-2.1539-.1167h-2.2387c0-1.7825-1.3899-6.6844-5.8673-6.6844v-4.3713c2.129-.0316 4.203.6772 5.8673 2.0053v-3.321h4.3608v3.565c1.8965-1.5233 4.274-2.3208 6.7055-2.2493z" fill="#2a3277"/><path d="m61.7511 190.737h-2.5782v9.263h2.5782z" fill="#a92819"/><path d="m61.7511 189.443h-2.5782v1.284h2.5782z" fill="#a92819"/><path d="m53.1146 1.12476 2.5464.3183c-2.2705 17.69764-8.87 30.63124-19.6286 38.42964-9.4217 6.8542-19.8302 8.1804-26.46151 8.1804-2.30222.0174-4.6019-.1565-6.87533-.5199l.47745-2.5358c.16976 0 17.23079 3.0663 31.38459-7.2255 10.122-7.374 16.382-19.7135 18.557-36.64714z" fill="#4c8bca"/><g fill="#a92819"><path d="m54.3663 190.737h-2.5782v9.263h2.5782z"/><path d="m54.3663 189.443h-2.5782v1.284h2.5782z"/><path d="m50.0265 89.7715h-6.7162c-.3592-4.706-2.4406-9.1144-5.8461-12.382-3.3433-3.2196-7.8041-5.0184-12.4456-5.0184s-9.1024 1.7988-12.4457 5.0184c-3.40551 3.2676-5.48693 7.676-5.84611 12.382h-6.72679c.391847-6.5109 3.19473-12.6425 7.86206-17.1989 4.58364-4.4826 10.74004-6.9925 17.15114-6.9925 6.4112 0 12.5676 2.5099 17.1512 6.9925 4.664 4.5588 7.4662 10.689 7.8621 17.1989zm-2.8541-3.8409c.0372-.1748.0372-.3556 0-.5305-.0729-.2545-.212-.4852-.4032-.6684-.1953-.1737-.4383-.2848-.6974-.3189-.2592-.034-.5226.0105-.7562.1279-.2347.12-.4272.3088-.5517.5411-.1295.2367-.1884.5055-.1698.7746.0126.2652.105.5204.2653.7321.1567.2129.3753.3722.626.4562.2492.0743.5147.0743.7639 0 .1667-.0452.3221-.1247.4562-.2334.1361-.1163.2541-.2522.3502-.4032.0621-.1526.1015-.3134.1167-.4775zm-2.3236-4.9443c.107-.2432.1473-.5105.1167-.7745-.0306-.2652-.1375-.5158-.3077-.7215-.1738-.1969-.3973-.3435-.6472-.4244-.2492-.0743-.5147-.0743-.7639 0-.2507.084-.4693.2434-.626.4563-.1603.2116-.2528.4668-.2653.7321-.0198.2691.0392.5383.1698.7745.0889.153.2038.2895.3395.4032.1406.1047.2987.1837.4668.2334.1652.0267.3336.0267.4987 0 .1737-.0247.3401-.0862.4881-.1804.2202-.113.4041-.2858.5305-.4987zm-3.2679-5.2095c.0001-.1811-.0323-.3608-.0955-.5305-.066-.1681-.1673-.32-.2971-.4456-.1207-.1258-.2649-.2267-.4244-.2971-.1625-.0752-.3413-.108-.5199-.0955-.1708-.0001-.34.0323-.4987.0955-.161.0777-.308.1817-.435.3077-.2326.2637-.3608.6033-.3607.9549.0005.3554.1372.6971.3819.9549.1184.1228.2601.2207.4168.2881.1566.0674.3252.1029.4957.1045.1736.0045.3463-.0271.507-.0928.1608-.0658.3061-.1642.4267-.2892.2463-.2585.3897-.5981.4032-.9549zm-4.6472-2.8329c.1859-.3208.2392-.7015.1485-1.061-.0827-.3455-.2955-.6457-.5942-.8382-.1507-.092-.3186-.1524-.4934-.1777-.1748-.0252-.3529-.0147-.5235.031-.1706.0456-.3302.1254-.4691.2345s-.2542.2453-.3389.4003c-.0937.1582-.1551.3335-.1806.5156s-.0146.3675.0321.5454c.0414.1737.1171.3374.2228.4814.1057.1439.2392.2652.3926.3568.1479.0923.3147.1503.488.1697.1678.0368.3415.0368.5093 0 .1699-.0453.3287-.1247.4668-.2334.1345-.123.249-.2662.3396-.4244zm-5.061-2.5676c.0318-.1683.0318-.341 0-.5093-.0178-.1803-.0758-.3544-.1698-.5093-.0836-.1537-.1971-.2892-.3337-.3985-.1367-.1093-.2937-.1902-.4621-.2381-.2521-.0791-.5224-.0791-.7745 0-.2439.0859-.4577.2407-.6154.4456-.158.2178-.2533.4746-.2758.7427-.0166.2703.0461.5395.1803.7746.1347.2282.3291.4153.5624.5411.2331.1154.4951.1597.7533.1273.2633-.049.5056-.1766.695-.366.1893-.1894.317-.4317.366-.695zm-5.6128-.6154c.0718-.1638.108-.341.1061-.5199.0029-.2678-.0747-.5302-.2228-.7533-.1447-.2236-.3511-.4005-.5941-.5093-.2371-.1033-.5007-.1293-.7534-.0743-.2561.0529-.4918.1781-.679.3608-.1873.1922-.3129.4361-.3607.7002-.0555.2632-.0296.537.0742.7852.0922.2471.2572.4605.4731.6121.2159.1515.4727.234.7365.2367.1707 0 .34-.0324.4986-.0955.1646-.0726.3154-.1731.4457-.2971.1198-.1294.2134-.2807.2758-.4456zm-5.6551.8912c.1802-.3229.2296-.7027.1379-1.061-.0729-.2545-.212-.4852-.4032-.6684-.2-.17-.4417-.2836-.7003-.3289-.2591-.0285-.521.0195-.7533.1379-.2348.1186-.4302.3029-.5623.5305-.123.2356-.185.4982-.1804.7639.0204.2669.112.5234.2653.7427.1606.2114.3775.3733.626.4669.2492.0743.5147.0743.7639 0 .3238-.093.6028-.3003.7851-.5836zm-5.061 1.8886c.0371-.1784.0371-.3626 0-.5411-.0227-.1792-.0804-.3523-.1698-.5093-.1276-.23-.3193-.4179-.5517-.5411-.2336-.1258-.5022-.1705-.764-.1273-.2573.0321-.4982.1433-.6896.3183-.1984.1773-.3389.4102-.4032.6684-.0794.2593-.0794.5365 0 .7958.0855.25.24.4707.4456.6366.1994.1689.4497.2661.7109.2759.2591.0198.518-.0394.7427-.1698.1552-.0904.2919-.2092.4032-.3501.1201-.1332.2137-.288.2759-.4563zm-4.4457 3.1831c.0002-.1777-.0321-.3539-.0955-.5199-.0623-.165-.156-.3163-.2758-.4457-.1264-.1238-.2737-.2243-.435-.297-.1581-.0666-.32727-.1026-.4987-.1061-.1751.0014-.34819.0374-.50929.1061-.16274.0701-.31044.171-.43501.297-.12297.129-.2202.2802-.28647.4457-.06429.1657-.09669.3421-.09549.5199.00072.1775.03305.3536.09549.5198.06881.1641.16576.3149.28647.4457.12226.1262.27077.224.43501.2864.15864.0773.33285.1172.50929.1168.19061.0059.3798-.0341.5517-.1168.1629-.065.3109-.1625.435-.2864.124-.1303.2245-.2811.2971-.4457.0341-.1711.0413-.3465.0212-.5198zm-3.618 5.305c.17359-.3253.21901-.7039.12732-1.061-.09184-.3416-.31238-.6344-.61538-.817-.14789-.0902-.31275-.1489-.48433-.1727-.17158-.0237-.34621-.0119-.51302.0348-.16975.0477-.32838.1285-.46678.2377-.13839.1093-.2538.2448-.33958.3989-.09018.1597-.14785.3357-.16971.5178-.02185.1821-.00744.3667.04239.5432.08833.346.30941.6434.61538.8276.30248.1728.66115.2186.99735.1273.17105-.0513.33032-.1357.46869-.2486.13836-.1129.25311-.252.33767-.4092zm-2.03713 5.0079c.03206-.1753.03206-.3551 0-.5305-.02048-.1749-.07451-.3442-.15915-.4986-.07825-.1482-.18247-.2812-.3077-.3926-.13757-.112-.29636-.195-.46684-.244-.16829-.0317-.34099-.0317-.50928 0-.17218.0243-.33797.0819-.48807.1697-.15226.0903-.28558.2092-.39257.3502-.10155.1449-.17695.3065-.22281.4774-.04983.1765-.06423.3611-.04238.5432s.07953.3581.1697.5178c.08579.1541.2012.2896.33959.3989.13839.1092.29703.19.46678.2377.16681.0467.34143.0585.51301.0348.17158-.0238.33644-.0825.48433-.1727.16086-.0953.29916-.2243.40539-.3782.10623-.1538.17787-.3289.21-.5131z"/><path d="m46.9794 190.737h-2.5783v9.263h2.5783z"/><path d="m46.9794 189.443h-2.5783v1.284h2.5783z"/><path d="m39.5983 190.737h-2.5783v9.263h2.5783z"/><path d="m39.5983 189.443h-2.5783v1.284h2.5783z"/></g><path d="m35.9904 99.0875c.1087.2551.1664.529.1697.8063-.0114.5652-.2393 1.1042-.6366 1.5062l-8.3077 8.096v7.713h-4.3501v-7.671l-8.626-7.947c-.405-.384-.6421-.913-.66-1.471-.0179-.5578.185-1.1004.5645-1.51.3988-.3988.9346-.6307 1.4983-.6484.5638-.0178 1.1131.18 1.5362.5529l5.74 5.1985v-5.782l-5.6233-5.8143c-.3856-.4057-.5953-.9472-.5836-1.5067.0062-.2766.0686-.5492.1835-.8009s.28-.4774.485-.6633c.4218-.383.9754-.5881 1.5449-.5723.5695.0159 1.1109.2513 1.5108.6572l2.4085 2.5146v-11.6711h4.3501v11.9682l2.3024-2.3024c.4134-.3895.9599-.6063 1.5278-.6063.568 0 1.1145.2168 1.5279.6063.392.3971.6118.9327.6118 1.4907s-.2198 1.0936-.6118 1.4907l-5.3581 5.2202v5.5804l5.305-5.1242c.4092-.3935.9549-.6134 1.5226-.6134s1.1134.2199 1.5225.6134c.1987.1933.3511.4291.4457.6897z" fill="#f8b05e"/><path d="m32.9231 2.66309c.8064 9.68701-1.3793 16.97611-6.4933 21.58091-5.1141 4.6047-11.947 5.549-16.57296 5.549-1.7151.0307-3.42966-.0865-5.12466-.3501l.47745-2.5252c.11671 0 12.14857 2.122 19.49067-4.5411 4.4881-4.0637 6.3661-10.6101 5.6552-19.44826z" fill="#2a3277"/><path d="m32.2113 190.737h-2.5782v9.263h2.5782z" fill="#a92819"/><path d="m32.2113 189.443h-2.5782v1.284h2.5782z" fill="#a92819"/><path d="m24.8282 190.737h-2.5782v9.263h2.5782z" fill="#a92819"/><path d="m24.8282 189.443h-2.5782v1.284h2.5782z" fill="#a92819"/><path d="m23.3626 154.345h-19.79839v2.578h19.79839z" fill="#179e6c"/><path d="m23.2587 142.907h-19.78775v2.578h19.78775z" fill="#a92819"/><path d="m23.2587 131.215h-19.78775v2.578h19.78775z" fill="#179e6c"/><path d="m13.3573 1.75049c1.9096 0 3.7764.56626 5.3641 1.62719 1.5878 1.06092 2.8254 2.56885 3.5561 4.3331.7308 1.76426.922 3.70562.5495 5.57852-.3726 1.8729-1.2921 3.5933-2.6424 4.9436s-3.0707 2.2699-4.9437 2.6424c-1.8729.3726-3.8142.1813-5.57845-.5494-1.76426-.7308-3.27219-1.9683-4.33311-3.5561-1.06093-1.5878-1.62719-3.4545-1.62719-5.3641.0056-2.55903 1.02464-5.0116 2.83412-6.82109 1.80949-1.80948 4.26203-2.82852 6.82103-2.83412zm7.0875 9.65521c.0021-1.4023-.4117-2.77362-1.1893-3.94055-.7775-1.16693-1.8837-2.07701-3.1785-2.61508-1.2949-.53806-2.7203-.67993-4.0959-.40766-1.3755.27227-2.63939.94646-3.63166 1.93724-.99227.99079-1.66835 2.25365-1.94268 3.62875-.27434 1.3752-.1346 2.8008.40152 4.0965.53613 1.2957 1.44455 2.4032 2.61032 3.1825 1.1658.7792 2.5365 1.1952 3.9387 1.1952 1.8771-.0028 3.6766-.749 5.0048-2.0753 1.3283-1.3262 2.0771-3.1246 2.0827-5.0016z" fill="#179e6c"/><path d="m17.4435 190.737h-2.5783v9.263h2.5783z" fill="#a92819"/><path d="m17.4435 189.443h-2.5783v1.284h2.5783z" fill="#a92819"/><path d="m13.3594 9.09304c.4605-.0021.9112.13266 1.2949.38718.3837.25451.6832.61728.8604 1.04228s.2241.8931.1348 1.3448c-.0894.4518-.3109.8668-.6365 1.1924s-.7406.5471-1.1923.6364-.9198.0424-1.3448-.1348-.7878-.4766-1.0423-.8604c-.2545-.3837-.3893-.8344-.3872-1.2949.0028-.6125.2474-1.1992.6806-1.63241.4331-.43317 1.0198-.67776 1.6324-.68055z" fill="#2a3277"/><path d="m10.0565 190.737h-2.57823v9.263h2.57823z" fill="#a92819"/><path d="m10.0565 189.443h-2.57823v1.284h2.57823z" fill="#a92819"/></svg>