<svg fill="none" height="200" viewBox="0 0 187 200" width="187" xmlns="http://www.w3.org/2000/svg"><path d="m185.038 58.7075h-19.62v3.4038h19.62z" fill="#179e6c"/><path d="m185.038 49.6377h-19.62v3.4038h19.62z" fill="#a92819"/><path d="m184.945 40.8555h-19.621v3.4037h19.621z" fill="#179e6c"/><path d="m183.619 172.606-.463 2.509c-.123 0-12.052-2.057-19.332 4.504-4.443 4.031-6.325 10.509-5.595 19.281l-2.55.206c-.792-9.605 1.368-16.803 6.438-21.39 8.226-7.445 20.957-5.213 21.502-5.11z" fill="#2a3277"/><path d="m183.147 27.3328.288 3.3935c-1.316.1131-2.581.1645-3.805.1645-7.867 0-13.883-2.2623-17.944-6.7355-7.59-8.3809-5.307-21.3276-5.204-21.86233l3.342.617c0 .11311-2.056 11.85663 4.402 18.97273 3.928 4.3395 10.334 6.1699 18.921 5.4501z" fill="#2a3277"/><path d="m174.763 71.8394c.833.8329 20.258 20.8236 7.445 56.6916l-3.198-1.141c12.052-33.7603-5.892-52.3731-6.663-53.1444z" fill="#4c8bca"/><g fill="#179e6c"><path d="m182.579 152.645-15.322 15.322-15.322-15.322 15.322-15.312zm-15.322 11.713 11.713-11.713-11.713-11.702-11.702 11.702z"/><path d="m175.073 180.873c1.891.002 3.739.565 5.31 1.617s2.795 2.546 3.518 4.294c.722 1.748.91 3.67.54 5.525-.37 1.854-1.282 3.557-2.62 4.894-1.338 1.336-3.042 2.246-4.897 2.614s-3.777.178-5.524-.546-3.24-1.95-4.29-3.522c-1.051-1.573-1.611-3.421-1.611-5.312.003-2.538 1.012-4.97 2.807-6.764 1.796-1.793 4.229-2.8 6.767-2.8zm7.013 9.564c.002-1.39-.409-2.75-1.18-3.906-.771-1.157-1.867-2.059-3.151-2.592s-2.697-.672-4.06-.402c-1.364.271-2.616.94-3.599 1.923s-1.652 2.235-1.923 3.599c-.27 1.363-.131 2.776.402 4.06s1.435 2.38 2.592 3.151c1.156.771 2.516 1.182 3.906 1.18 1.859-.003 3.641-.743 4.956-2.057 1.314-1.315 2.054-3.097 2.057-4.956z"/><path d="m174.723 1.34717c1.894-.00203 3.746.55773 5.321 1.60847 1.576 1.05074 2.805 2.54525 3.531 4.29444.726 1.7492.917 3.67452.549 5.53232s-1.279 3.5646-2.618 4.9046c-1.338 1.3399-3.044 2.2527-4.902 2.623-1.857.3702-3.782.1812-5.532-.5431s-3.246-1.9514-4.299-3.526c-1.052-1.5746-1.614-3.426-1.614-5.32.003-2.53647 1.011-4.96846 2.804-6.76301 1.792-1.79454 4.223-2.80527 6.76-2.81072zm7.033 9.57373c0-1.38705-.411-2.74299-1.182-3.8963-.77-1.15332-1.865-2.05222-3.147-2.58303-1.281-.53082-2.692-.6697-4.052-.3991-1.36.27061-2.61.93855-3.591 1.91937-.981.98081-1.649 2.23045-1.919 3.59088-.271 1.36048-.132 2.77058.399 4.05208s1.43 2.3768 2.583 3.1474 2.509 1.1819 3.896 1.1819c1.859-.0027 3.642-.7424 4.956-2.0571 1.315-1.3146 2.055-3.0969 2.057-4.9561z"/></g><path d="m175.074 192.74c1.272 0 2.303-1.032 2.303-2.304s-1.031-2.303-2.303-2.303-2.303 1.031-2.303 2.303 1.031 2.304 2.303 2.304z" fill="#2a3277"/><path d="m174.722 13.2241c1.273 0 2.304-1.0313 2.304-2.3035 0-1.27212-1.031-2.30341-2.304-2.30341-1.272 0-2.303 1.03129-2.303 2.30341 0 1.2722 1.031 2.3035 2.303 2.3035z" fill="#2a3277"/><path d="m172.257 152.646-4.998 4.997-4.988-4.997 4.988-4.988z" fill="#2a3277"/><path d="m162.488 74.3379c9.779 12.9466 12.339 31.1071 7.702 53.9671l-3.332-.679c4.463-21.842 2.057-39.0766-7.054-51.2109-11.775-15.6101-31.025-17.276-31.21-17.2965l.257-3.3832c.843.0617 20.916 1.7584 33.637 18.6025z" fill="#4c8bca"/><path d="m148.985 172.338 2.797 1.933c-9.502 13.759-21.441 17.77-32.187 17.77-14.746 0-27.0863-7.579-27.3023-7.713l1.8099-2.879c6.1064 3.529 12.8274 5.867 19.8054 6.89 14.603 1.943 26.397-3.435 35.077-16.001z" fill="#4c8bca"/><path d="m145.191 99.3369v17.1421h-12.505l-2.91.545c-.63-1.421-1.511-2.717-2.602-3.825h14.736v-10.623h-100.6321v10.592h14.52c-1.4059 1.474-2.4882 3.225-3.1775 5.142l-2.7559-.813c.1336-.329.2776-.668.4319-1.028h-12.2886v-17.1321z" fill="#a92819"/><path d="m144.356 153.036c.37 5.934-3.085 14.818-11.63 20.567-3.929 2.715-12.176 5.666-21.441 3.568-6.522-1.551-12.476-4.904-17.1834-9.677l2.2006-2.19c4.1628 4.061 9.3078 6.973 14.9318 8.453 8.802 1.995 14.91 0 19.126-2.478 8.566-5.07 11.312-13.615 10.675-18.757-.256-3.178-1.339-6.234-3.144-8.863-1.804-2.629-4.266-4.739-7.14-6.12-1.952-.909-4.033-1.509-6.17-1.779l-.576-.082c3.093-1.851 5.391-4.781 6.45-8.226 1.06-3.444.806-7.159-.712-10.428l2.911-.545c1.476 2.845 2.035 6.077 1.603 9.252-.433 3.176-1.837 6.14-4.02 8.487 6.89 1.604 13.173 8.555 14.119 18.818z" fill="#a92819"/><path d="m135.944 17.4503c5.996 1.8613 6.921 8.093 6.057 10.2833-1.193 4.3087-1.295 4.7098-2.488 9.0185-.646 2.1496-2.103 3.9635-4.063 5.0576-1.959 1.094-4.268 1.3824-6.436.8039-4.114-1.2135-4.731-1.3677-8.916-2.6017-2.141-.6405-3.957-2.0741-5.077-4.0082s-1.459-4.2226-.949-6.3985c1.234-4.5864 1.326-4.9154 2.581-9.3167.736-2.1205 2.272-3.8691 4.28-4.8721 2.008-1.0031 4.329-1.181 6.466-.4958zm2.623 10.4479c.266-.7502.372-1.5477.311-2.3413-.06-.7937-.286-1.5658-.663-2.267-.377-.7011-.896-1.3157-1.524-1.8042-.629-.4886-1.352-.8403-2.125-1.0326l-7.311-2.2007c-2.571-.8946-5.903-.4936-7.404 3.1879-1.028 3.5683-1.378 4.8023-2.375 8.5248-.369 1.3546-.224 2.7975.406 4.0519s1.701 2.2321 3.008 2.7454c3.393 1.0283 5.553 1.635 8.926 2.6222 1.357.32 2.785.1235 4.005-.5513s2.146-1.7796 2.596-3.0993c.957-3.4551 1.214-4.3395 2.15-7.8358z" fill="#a92819"/><path d="m141.91 102.576v10.592h-14.736l-2.654 1.111c-.287-.319-.617-.659-.935-.946-.325-.297-.668-.571-1.029-.823-.38-.268-.822-.555-1.162-.771-.295-.195-.6-.374-.915-.535-.333-.174-.677-.329-1.028-.463-.329-.134-.597-.216-.895-.308-.298-.093-.648-.196-1.028-.288-.381-.093-.73-.155-1.08-.216h-.185 22.376v-4.042h-94.0815v4.042h22.1605-.1851c-.3496.061-.7198.133-1.0797.216-.36.082-.6993.185-1.0284.288-.329.102-.5656.174-.9049.308-.3394.134-.7301.298-1.0283.463-.2983.164-.5656.319-.905.535-.3393.216-.7815.503-1.162.771-.3622.249-.7058.524-1.0283.823-.3291.287-.6479.627-.9461.946-.2763.305-.5371.624-.7815.956-.2234.29-.4262.596-.6067.915-.1851.309-.3497.617-.5142.946s-.3393.658-.4833 1.029c-.144.37-.2571.647-.3599 1.028-.1157.358-.2119.722-.288 1.09-.0996.475-.1717.956-.2159 1.44 0 .514-.0617 1.028 0 1.686.0162.656.085 1.309.2057 1.954.1311.673.3203 1.334.5655 1.974.2136.545.4644 1.074.7507 1.584.2462.431.5139.85.8021 1.254.2571.371.5245.7.7816 1.029.2724.319.5643.621.874.905.3291.298.7301.617 1.1209.905.3625.281.7401.542 1.1312.781.8857.501 1.8282.895 2.8073 1.172.716.161 1.4465.247 2.1801.258 1.4393.039 2.8619-.317 4.1133-1.029.621-.349 1.1861-.789 1.6762-1.306.4492-.471.8331-1 1.1414-1.573.2792-.502.4934-1.038.6376-1.594.1466-.529.2091-1.077.1851-1.625-.0088-.676-.1269-1.346-.3496-1.984-.1868-.528-.4464-1.026-.7713-1.481l2.3755-.412c3.2289 4.35 1.5322 10.736-4.4733 13.132 2.6812.885 4.9579 2.698 6.4193 5.114 1.4614 2.415 2.0112 5.274 1.5503 8.059l-2.5708-.411c.1271-.915.0888-1.845-.1132-2.746-.3217-1.439-.9611-2.788-1.8715-3.949-.854-1.085-1.8996-2.005-3.085-2.714-1.2395-.769-2.5833-1.354-3.9899-1.738-1.5908-.428-3.2274-.663-4.8743-.7-1.0314-.026-2.0633.032-3.085.175l-.3805-2.725c-1.9248-1.207-3.5529-2.832-4.7635-4.755s-1.9725-4.093-2.2291-6.351c-.2593-2.063-.048-4.158.6181-6.128.666-1.97 1.7696-3.763 3.2278-5.245h-14.5303v-10.623z" fill="#fff"/><path d="m141.035 152.522c.596 5.141-2.108 13.687-10.674 18.757-4.216 2.447-10.284 4.473-19.127 2.478-8.205-2.1-15.2801-7.292-19.7442-14.489-4.0601 6.191-9.9631 10.95-16.8749 13.604-5.9868 2.203-12.5576 2.228-18.5613.072-4.3807-1.47-13.6974-7.979-14.1499-17.605-.1096-3.348.6263-6.67 2.1396-9.659s3.7553-5.548 6.519-7.442c2.5167-1.599 5.4207-2.484 8.4014-2.56l.3805 2.725c-.5255.06-1.0473.15-1.563.267-1.3038.28-2.5704.712-3.774 1.286-1.1051.513-2.1415 1.162-3.085 1.933-.9666.784-1.8427 1.674-2.612 2.653-.5883.79-1.0948 1.637-1.5116 2.53-.3291.709-.5347 1.234-.7096 1.696-.1748.463-.2982.874-.401 1.265s-.1645.761-.2365 1.131c-.072.371-.1337.72-.1851 1.08s-.0926.71-.1131 1.111c-.0206.401 0 .853 0 1.265-.0008.388.0198.776.0617 1.162.0337.396.0886.791.1645 1.182.0823.422.1954.885.3291 1.347.1275.45.2785.893.4524 1.327.1589.427.3479.843.5656 1.244.216.401.4833.812.7301 1.203s.4936.761.7816 1.142c.2879.38.617.792.9666 1.203s.7301.802 1.0283 1.152c.2982.349.6993.668 1.0283.935.2924.256.5979.496.9153.72.3085.226.6272.432.9255.617.2982.185.5553.36.8432.525.2879.164.5964.349.9255.514.3291.164.6684.339 1.0283.493.3599.155.6479.288.9667.412.3187.123.6375.236 1.0283.339l1.0283.309c.3908.102.8124.205 1.2546.298.4422.092.8946.175 1.3471.247l1.2854.164 1.1209.093h1.1003 1.3163c.4319 0 .8432-.052 1.2031-.093l1.0283-.113 1.0284-.144c.3188-.062.617-.113.9563-.195.3394-.083.7507-.175 1.1517-.288.4011-.113.8433-.237 1.2855-.391.4421-.154.9152-.319 1.4499-.535s1.1415-.504 1.635-.74c.4936-.237.8639-.442 1.2752-.669.4113-.226.8432-.493 1.2957-.781.4524-.288.9358-.597 1.4705-.977s1.1003-.833 1.6865-1.316c.5861-.484 1.2031-1.029 1.7481-1.481.545-.453 1.0283-1.028 1.5939-1.594s1.1723-1.296 1.7585-2.057c.5861-.761 1.1414-1.48 1.6144-2.149.4731-.668.833-1.234 1.1724-1.789.3393-.555.6272-1.028.9152-1.604l.8021-1.543.1234-.257.1234.257c.2468.501.5141 1.015.8021 1.543.2879.524.5758 1.028.9152 1.604.3393.576.7095 1.131 1.1723 1.789.4627.658 1.0283 1.43 1.6144 2.149.5862.72 1.2032 1.43 1.7585 2.057s1.0283 1.09 1.5836 1.594c.5552.504 1.1622 1.028 1.7482 1.481.586.452 1.172.936 1.697 1.316.524.38 1.028.689 1.46.977s.895.555 1.306.781c.411.227.781.422 1.275.669s1.1.514 1.635.74 1.028.391 1.44.535c.411.144.874.278 1.285.391.412.113.813.216 1.152.288s.648.133.967.195l1.028.144 1.028.113c.36 0 .761.072 1.193.093.432.02.915 0 1.327 0h1.09l1.121-.093c.411 0 .843-.103 1.295-.164.453-.062.905-.155 1.347-.247.443-.093.864-.196 1.245-.298l1.028-.309c.329-.103.648-.216.967-.339.318-.124.647-.268 1.028-.412.38-.144.668-.318 1.028-.493s.638-.34.926-.514c.288-.175.545-.329.843-.525.298-.195.617-.391.925-.617.309-.226.597-.452.916-.72.358-.294.702-.606 1.028-.935.36-.35.74-.751 1.09-1.152s.679-.813.967-1.203c.288-.391.524-.751.771-1.142s.514-.802.74-1.203c.218-.401.407-.817.566-1.244.164-.422.319-.874.452-1.327.134-.452.247-.925.329-1.347.076-.391.131-.786.165-1.182 0-.381.062-.751.062-1.162 0-.412 0-.864 0-1.265s-.072-.761-.124-1.111c-.051-.349-.113-.709-.175-1.08-.061-.37-.133-.74-.236-1.131s-.237-.792-.411-1.265c-.206-.578-.443-1.144-.71-1.696-.409-.895-.912-1.743-1.501-2.53-.77-.979-1.646-1.869-2.612-2.653-.944-.771-1.98-1.42-3.085-1.933-1.254-.584-2.572-1.016-3.928-1.286-.319-.072-.648-.134-1.029-.185l.37-2.725c2.137.27 4.218.87 6.17 1.779 2.882 1.375 5.352 3.483 7.164 6.112 1.812 2.63 2.902 5.688 3.161 8.871z" fill="#fff"/><path d="m134.598 20.4537c.77.1958 1.49.55 2.115 1.0401.625.49 1.14 1.1051 1.514 1.8058.374.7008.597 1.4718.656 2.2637.058.7919-.049 1.5874-.315 2.3355-.967 3.4963-1.224 4.3807-2.181 7.877-.45 1.3197-1.376 2.4244-2.596 3.0992s-2.648.8714-4.005.5514c-3.373-1.0284-5.533-1.6145-8.926-2.6223-1.316-.5038-2.399-1.4774-3.039-2.7328s-.792-2.7035-.427-4.0644c1.029-3.7226 1.347-4.9566 2.376-8.5249 1.501-3.6814 4.833-4.1133 7.404-3.1878zm.484 6.5607c.184-.6558.101-1.3579-.23-1.9531-.332-.5953-.885-1.0354-1.539-1.2244l-7.199-2.1184c-.64-.1739-1.324-.0879-1.902.2395-.577.3274-1.002.8696-1.183 1.5087-.658 2.4371-1.275 4.5658-1.943 7.0543-.089.347-.106.7086-.049 1.0624.056.3537.185.6921.378.9939.193.3019.446.5609.743.7609.297.1999.632.3366.985.4015l6.684 1.995c.328.1242.678.1786 1.028.1598.35-.0189.692-.1106 1.005-.2694.313-.1587.589-.381.811-.6525.221-.2715.384-.5864.477-.9244.652-2.3583 1.296-4.7029 1.934-7.0338z" fill="#fff"/><path d="m138.64 105.887v4.042h-22.376.185c.35.061.72.133 1.08.216.36.082.699.185 1.028.288.329.102.566.174.895.308.351.134.694.289 1.028.463.315.161.62.339.915.535.34.215.782.503 1.162.771.36.251.704.526 1.029.822.318.288.647.628.935.946.283.303.547.623.792.957.224.29.426.596.607.915.185.309.349.617.514.946s.339.658.473 1.028c.134.371.257.648.37 1.029.116.358.212.721.288 1.09.101.475.17.955.206 1.439.037.562.037 1.125 0 1.687-.008.656-.073 1.31-.196 1.954-.134.673-.327 1.334-.575 1.974-.205.548-.457 1.078-.751 1.584-.239.433-.504.852-.792 1.254-.267.371-.524.7-.792 1.029-.266.321-.554.624-.863.905-.33.298-.741.617-1.121.905-.365.283-.746.544-1.142.781-.883.506-1.826.9-2.807 1.172-.716.161-1.447.247-2.18.257-.693.016-1.384-.06-2.057-.226-.72-.178-1.412-.455-2.057-.822-1.691-.984-2.931-2.589-3.455-4.474-.136-.53-.199-1.077-.185-1.624.016-1.437.532-2.822 1.46-3.918.475-.61 1.075-1.111 1.759-1.471.652-.389 1.424-.525 2.17-.38.263.109.491.289.66.519s.271.502.296.787c.017.198-.018.398-.103.579-.085.18-.216.335-.38.449-.257.216-.545.37-.792.607-.261.244-.486.525-.669.833-.163.267-.295.554-.39.853-.089.27-.14.55-.155.833-.026.243-.026.487 0 .73.029.25.088.495.175.73.081.224.188.438.319.638.1.16.217.308.35.442.146.151.308.286.483.401.211.15.435.28.668.391.277.124.567.218.864.277.339.061.684.085 1.028.072.347-.018.691-.066 1.029-.143.381-.1.75-.241 1.1-.422.438-.218.849-.488 1.224-.802.438-.369.828-.79 1.162-1.255.407-.539.752-1.122 1.028-1.738.239-.594.401-1.216.484-1.851.076-.531.094-1.069.051-1.604-.05-.469-.153-.932-.309-1.378-.139-.402-.314-.791-.524-1.162-.227-.404-.496-.783-.802-1.131-.447-.527-.978-.976-1.573-1.327-.963-.515-2.006-.862-3.085-1.028-1.363-.221-2.752-.221-4.114 0-1.488.228-2.938.661-4.308 1.286-1.104.528-2.14 1.187-3.085 1.964-.729.578-1.416 1.207-2.057 1.882-.597.627-1.121 1.264-1.625 1.881s-1.028 1.234-1.5321 1.964c-.5511.76-1.0592 1.549-1.5219 2.366-.4358.753-.8106 1.541-1.1209 2.355-.3091.807-.5734 1.631-.7918 2.468-.216.771-.36 1.429-.4731 2.056-.1193.574-.2052 1.154-.2571 1.738-.0617.586-.0719 1.213-.0822 1.851s0 1.265.0925 2.149c.1084 1.037.2732 2.067.4936 3.085.2381 1.104.5825 2.182 1.0284 3.219.5151 1.186 1.0953 2.343 1.7378 3.465.5447.904 1.1493 1.769 1.8098 2.592.626.844 1.314 1.642 2.057 2.386.695.706 1.429 1.372 2.2 1.994.741.607 1.461 1.142 2.211 1.646.747.514 1.53.971 2.345 1.367.865.415 1.763.759 2.684 1.029.877.246 1.77.428 2.673.545.741.092 1.486.137 2.232.134.687-.005 1.374-.046 2.057-.124.654-.085 1.303-.208 1.943-.37.609-.149 1.21-.331 1.8-.545.588-.213 1.158-.471 1.707-.771.513-.278 1.005-.595 1.47-.946.442-.321.868-.665 1.275-1.029.409-.401.781-.838 1.111-1.306.352-.46.665-.948.936-1.46.23-.432.423-.882.576-1.347.176-.508.32-1.027.432-1.553.102-.49.157-.99.164-1.491.009-.478-.019-.956-.082-1.429-.072-.473-.175-.946-.288-1.389-.114-.443-.279-.871-.494-1.275-.297-.517-.641-1.006-1.028-1.46-.958-1.267-2.241-2.251-3.712-2.848-1.038-.414-2.128-.681-3.24-.792-1.255-.127-2.522-.11-3.774.051-1.061.148-2.098.435-3.085.854-.743.315-1.436.737-2.056 1.254-.542.442-.998.979-1.347 1.584-.341.548-.566 1.161-.658 1.799-.046.546.035 1.095.236 1.605.153.467.406.895.74 1.254.339.322.742.567 1.183.72.419.153.86.236 1.306.247.449.002.894-.075 1.316-.226.417-.161.798-.402 1.121-.71.252-.313.559-.578.905-.781.195-.06.4-.078.602-.053s.396.092.57.197c.192.098.356.245.475.425s.189.388.204.603c.015.751-.244 1.483-.73 2.057-.77 1.01-1.856 1.734-3.085 2.056-1.629.389-3.341.222-4.864-.473-1.512-.733-2.715-1.979-3.393-3.517-.148-.332-.268-.676-.36-1.028-.268-1.136-.268-2.319 0-3.455.329-1.439.972-2.787 1.881-3.949.854-1.086 1.9-2.006 3.085-2.715 1.239-.77 2.583-1.355 3.99-1.738 1.591-.429 3.228-.663 4.875-.699 1.225-.031 2.451.055 3.661.257.329.052.658.113 1.028.185 1.303.282 2.57.713 3.774 1.286 1.105.513 2.141 1.162 3.085 1.933.966.784 1.843 1.674 2.612 2.653.589.787 1.092 1.635 1.501 2.53.267.552.504 1.118.71 1.696.174.473.308.874.411 1.265s.165.761.237 1.131c.072.371.123.72.174 1.08.052.36.093.71.124 1.111s0 .853 0 1.265c0 .411 0 .781-.062 1.162-.034.396-.089.791-.164 1.182-.083.422-.206.885-.33 1.347-.123.463-.287.905-.452 1.327-.159.427-.348.843-.566 1.244-.226.401-.483.813-.74 1.203-.257.391-.483.761-.771 1.142-.288.38-.617.792-.967 1.203s-.73.802-1.09 1.152c-.326.329-.67.641-1.028.935-.319.268-.607.504-.915.72-.309.216-.638.432-.926.617s-.555.36-.843.525c-.288.164-.597.349-.926.514-.329.164-.668.339-1.028.493-.36.155-.658.288-1.028.412-.371.123-.638.236-.967.339l-1.028.309c-.381.102-.813.205-1.245.298-.431.092-.905.175-1.347.247s-.884.123-1.295.164l-1.121.093c-.35 0-.689 0-1.09 0s-.885 0-1.327 0-.833-.052-1.193-.093l-1.028-.113-1.028-.144c-.319-.062-.617-.113-.967-.195-.35-.083-.74-.175-1.152-.288-.411-.113-.833-.237-1.285-.391-.453-.154-.905-.319-1.44-.535s-1.141-.504-1.635-.74c-.493-.237-.874-.442-1.275-.669-.401-.226-.843-.493-1.306-.781s-.936-.597-1.46-.977c-.525-.38-1.101-.833-1.697-1.316-.596-.484-1.193-1.029-1.7481-1.481-.5553-.453-1.0283-1.028-1.5836-1.594s-1.1723-1.296-1.7585-2.057c-.5861-.761-1.1517-1.48-1.6145-2.149-.4627-.668-.8329-1.234-1.1722-1.789-.3394-.555-.6273-1.028-.9153-1.604-.2879-.576-.5553-1.029-.8021-1.543l-.1234-.257-.1234.257-.8021 1.543c-.2879.524-.5861 1.028-.9152 1.604-.329.576-.7095 1.131-1.1723 1.789-.4627.658-1.0283 1.43-1.6144 2.149-.5862.72-1.2032 1.43-1.7585 2.057s-1.0283 1.09-1.5939 1.594-1.1517 1.028-1.7482 1.481c-.5964.452-1.162.936-1.6864 1.316-.5245.38-1.0284.689-1.4705.977-.4422.288-.8844.555-1.2957.781-.4114.227-.7816.422-1.2752.669s-1.1003.514-1.635.74c-.5347.227-1.0283.391-1.45.535-.4216.144-.874.278-1.2854.391-.4113.113-.8021.216-1.1517.288s-.6376.133-.9564.195l-1.0283.144-1.0283.113c-.3634.041-.7644.072-1.2032.093-.4319 0-.9049 0-1.3162 0-.4114 0-.7404 0-1.1003 0l-1.1209-.093-1.2854-.164c-.4525-.072-.905-.155-1.3471-.247-.4422-.093-.8638-.196-1.2546-.298l-1.0283-.309c-.3394-.103-.6479-.216-1.0284-.339-.3805-.124-.6375-.268-.9666-.412s-.6684-.318-1.0283-.493-.6376-.34-.9255-.514c-.288-.175-.5553-.329-.8433-.525-.2879-.195-.617-.391-.9255-.617-.3173-.224-.6228-.464-.9152-.72-.3188-.267-.6581-.575-1.0283-.935s-.7301-.751-1.0283-1.152-.689-.812-.9667-1.203c-.2776-.391-.5244-.751-.7815-1.142-.2571-.39-.5142-.802-.7301-1.203-.2178-.401-.4068-.817-.5656-1.244-.1739-.434-.3249-.877-.4525-1.327-.1336-.462-.2468-.925-.329-1.347-.0759-.391-.1308-.786-.1646-1.182-.0418-.386-.0624-.774-.0617-1.162 0-.412 0-.864 0-1.265s.0617-.761.1132-1.111c.0514-.349.1234-.709.1851-1.08.0617-.37.1336-.74.2365-1.131.1028-.391.2365-.792.401-1.265.1646-.473.3805-1.028.7096-1.696.4168-.893.9233-1.74 1.5116-2.53.7693-.979 1.6453-1.869 2.612-2.653.9435-.771 1.9799-1.42 3.085-1.933 1.2036-.574 2.4702-1.006 3.7739-1.286.5158-.117 1.0376-.207 1.5631-.267 1.0218-.143 2.0536-.202 3.085-.175 1.647.036 3.2835.271 4.8743.699 1.3872.38 2.7133.954 3.9385 1.707 1.1855.709 2.231 1.629 3.085 2.715.9104 1.16 1.5498 2.51 1.8715 3.949.202.901.2403 1.831.1132 2.746-.1737 1.126-.6193 2.194-1.2984 3.109-.6792.916-1.5712 1.652-2.599 2.145-1.527.695-3.2421.862-4.8743.473-1.2276-.325-2.3126-1.048-3.085-2.056-.4821-.575-.738-1.307-.7198-2.057.0131-.215.0815-.422.1987-.602.1171-.18.279-.327.4697-.426.1744-.105.3688-.172.5708-.197s.4069-.007.6015.053c.3497.199.6571.464.9049.781.3291.306.7128.547 1.1312.71.4222.151.8677.228 1.3163.226.4423-.012.8798-.095 1.2956-.247.4453-.15.8524-.396 1.1929-.72.3318-.36.581-.788.7301-1.254.2009-.51.2819-1.059.2365-1.604-.0888-.639-.3094-1.251-.6478-1.8-.3525-.603-.8085-1.139-1.3471-1.584-.6203-.516-1.3133-.939-2.0567-1.254-.9862-.419-2.0235-.706-3.085-.854-1.2519-.161-2.5181-.178-3.7739-.051-1.1115.111-2.2018.378-3.2393.792-.8284.339-1.6014.8-2.2932 1.367-.5303.436-1.0067.933-1.4191 1.481-.3826.458-.7266.946-1.0283 1.46-.2111.405-.3734.833-.4833 1.276-.1236.456-.2198.92-.2879 1.388-.0633.474-.0908.951-.0823 1.429.0081.501.0597 1 .1542 1.491.1099.528.2577 1.047.4422 1.553.1531.465.3458.915.5759 1.347.2713.512.5843 1 .9358 1.46.3256.453.6904.876 1.09 1.265.4039.364.8261.708 1.2648 1.029.4694.351.9644.668 1.4808.946.5484.3 1.1191.558 1.7071.771.5891.215 1.1899.397 1.7996.545.6397.163 1.2887.286 1.9435.37.6828.078 1.3694.119 2.0567.124.7493.003 1.4981-.042 2.2417-.134.9031-.118 1.7967-.3 2.6737-.545.9209-.27 1.8185-.614 2.6839-1.029.8146-.396 1.5983-.853 2.3446-1.367.7404-.504 1.4705-1.029 2.2006-1.646.7756-.617 1.5107-1.283 2.2007-1.994.7427-.745 1.4301-1.542 2.0566-2.386.65-.886 1.2408-1.813 1.7688-2.777.6385-1.124 1.2185-2.281 1.7378-3.465.4417-1.039.7859-2.116 1.0284-3.219.2223-1.018.3837-2.048.4833-3.085.077-.714.1079-1.431.0925-2.149 0-.638 0-1.265-.072-1.851-.0518-.584-.1377-1.164-.257-1.738-.1132-.607-.2674-1.265-.4731-2.057-.2184-.836-.4827-1.66-.7918-2.468-.3103-.813-.6851-1.601-1.1209-2.354-.4664-.814-.9744-1.604-1.5219-2.366-.5244-.73-1.0283-1.336-1.5322-1.964-.5039-.627-1.0283-1.254-1.635-1.882-.6426-.672-1.3297-1.301-2.0567-1.881-.9457-.777-1.9815-1.436-3.085-1.965-1.3967-.606-2.8711-1.014-4.3807-1.213-1.3622-.221-2.7511-.221-4.1133 0-1.0615.171-2.0869.519-3.0336 1.028-.5979.352-1.1331.8-1.5836 1.327-.2996.351-.5647.73-.7918 1.131-.2131.37-.3921.759-.5348 1.162-.1517.447-.2517.909-.2982 1.378-.0825 1.177.1003 2.358.5348 3.455.2726.618.6178 1.202 1.0283 1.738.3333.462.7199.883 1.1517 1.255.3785.314.7927.584 1.234.802.3494.182.7186.324 1.1003.421.338.078.6821.126 1.0284.144.3443.013.689-.011 1.0283-.072.2974-.06.5872-.153.8638-.277.2313-.115.4546-.246.6684-.391.1734-.118.3352-.252.4833-.401.1292-.134.243-.283.3394-.442.1301-.202.2404-.415.329-.638.0843-.236.1396-.481.1646-.73.0261-.243.0261-.487 0-.73-.0242-.282-.0759-.561-.1543-.833-.0951-.301-.23-.588-.401-.854-.1753-.309-.3973-.59-.6582-.832-.2571-.237-.5347-.391-.8021-.607-.1607-.116-.2887-.272-.3715-.452-.0829-.18-.1178-.379-.1015-.577.025-.284.1274-.556.296-.786.1685-.23.3969-.41.6604-.519.7454-.145 1.5179-.01 2.1697.38.6828.357 1.2794.859 1.7482 1.471.122.143.2354.295.3393.452.3249.455.5845.954.7713 1.481.2227.638.3408 1.308.3496 1.984.024.548-.0385 1.097-.1851 1.625-.1442.556-.3584 1.092-.6375 1.594-.3084.573-.6923 1.102-1.1415 1.573-.4901.517-1.0551.958-1.6762 1.306-1.2513.713-2.674 1.068-4.1133 1.029-.7336-.011-1.4641-.097-2.1801-.257-.9791-.278-1.9216-.671-2.8073-1.173-.391-.239-.7687-.5-1.1312-.781-.3907-.288-.7918-.607-1.1208-.905-.3098-.283-.6017-.586-.8741-.905-.2571-.308-.5245-.638-.7816-1.028-.2882-.405-.5559-.824-.8021-1.255-.2862-.51-.537-1.039-.7506-1.584-.2453-.64-.4345-1.301-.5656-1.974-.1207-.645-.1895-1.298-.2057-1.954 0-.617 0-1.172 0-1.686.0442-.484.1163-.965.216-1.44.0761-.368.1722-.732.2879-1.09.1028-.339.2262-.658.3599-1.028s.3085-.669.4833-1.029c.1748-.359.3291-.637.5142-.946.1806-.319.3833-.624.6067-.915.2444-.331.5052-.651.7815-.956.2983-.319.617-.658.9461-.946.3225-.299.6662-.574 1.0283-.823.3805-.267.8124-.555 1.1621-.771.3496-.216.5861-.37.9049-.535.3188-.164.7301-.339 1.0283-.463.2982-.123.5964-.216.9049-.308.3085-.093.6479-.196 1.0284-.288.3805-.093.7301-.154 1.0797-.216h.1851-22.1297v-4.041zm-28.001 4.114h.288-38.8711.2879l.833.154c.2674.062.5553.113.8741.206.3188.092.6992.195 1.1311.349s.9564.34 1.5734.617c.617.278 1.3368.648 2.1286 1.1.7918.453 1.6454 1.029 2.3241 1.502.6786.473 1.2031.864 1.6761 1.234.4731.37.905.73 1.3883 1.172s1.0283.967 1.563 1.522c.5348.555 1.0284 1.162 1.7379 1.974.7096.813 1.4294 1.831 2.0567 2.787.5946.913 1.1403 1.857 1.635 2.828l.216.442.2159-.442c.4824-.985 1.0251-1.94 1.6248-2.859.6375-.956 1.3985-1.974 2.0566-2.786.6582-.813 1.2135-1.409 1.7482-1.975.5347-.565 1.0283-1.028 1.5528-1.522.5244-.493.9152-.792 1.3986-1.172.483-.38 1.028-.761 1.666-1.234.637-.473 1.542-1.028 2.334-1.501.691-.402 1.401-.77 2.129-1.101.617-.277 1.131-.462 1.563-.617.432-.154.812-.267 1.141-.349.329-.083.597-.144.874-.206z" fill="#a92819"/><path d="m135.843 69.834c5.06 3.7123 3.908 9.9028 2.376 11.723-2.53 3.6814-2.756 4.0311-5.286 7.7228-1.31 1.826-3.28 3.0698-5.491 3.4672-2.212.3974-4.492-.0828-6.355-1.3386-3.548-2.4988-4.031-2.8279-7.589-5.3576-1.817-1.3004-3.069-3.2449-3.501-5.4367-.432-2.1919-.011-4.466 1.177-6.3583 2.663-3.9487 2.858-4.2161 5.481-7.9695 1.381-1.7673 3.4-2.9236 5.624-3.2215 2.223-.2979 4.475.2863 6.273 1.6276zm-.894 10.7358c.494-.6224.853-1.3415 1.053-2.1109.2-.7695.237-1.5723.108-2.3569-.128-.7846-.42-1.5335-.856-2.1985-.435-.6651-1.005-1.2316-1.673-1.6632l-6.324-4.4527c-2.139-1.6761-5.43-2.3857-8.042.617-2.129 3.085-2.869 4.1134-5.018 7.2909-.793 1.1624-1.126 2.5775-.937 3.9716.19 1.3941.89 2.6684 1.965 3.5764 2.88 2.0566 4.71 3.3523 7.589 5.3781 1.188.7747 2.624 1.0707 4.021.8284s2.65-1.005 3.507-2.1344z" fill="#a92819"/><path d="m133.581 72.2402c.668.4316 1.238.9981 1.673 1.6632.436.6651.728 1.414.856 2.1985.129.7846.092 1.5874-.108 2.3569s-.559 1.4885-1.053 2.1109l-4.607 6.7459c-.854 1.102-2.087 1.8463-3.46 2.0878s-2.786-.0373-3.965-.7818c-2.879-2.0567-4.71-3.3216-7.589-5.3782-1.075-.908-1.775-2.1822-1.965-3.5764-.19-1.3941.144-2.8091.937-3.9716 2.149-3.1981 2.889-4.2573 5.018-7.2908 2.612-3.0028 5.903-2.2932 8.042-.617zm-1.666 6.3551c.385-.5608.533-1.2503.414-1.9198s-.497-1.2652-1.051-1.6588l-6.17-4.3498c-.273-.1947-.582-.3328-.909-.4062s-.665-.0806-.995-.0212c-.329.0594-.644.1843-.925.3672-.28.1829-.521.4201-.709.6978-1.419 2.0566-2.694 3.8973-4.113 6.0363-.197.2995-.33.6363-.391.9895s-.049.7152.036 1.0634.241.6752.457.9607c.217.2855.49.5233.803.6986l5.758 4.1134c.271.2225.586.3862.923.4808.338.0946.691.118 1.039.0687.347-.0493.68-.1703.978-.3552.298-.1848.554-.4296.752-.7188z" fill="#fff"/><path d="m133.314 23.8372c.654.189 1.207.6291 1.539 1.2243.331.5953.414 1.2973.229 1.9532-.637 2.3309-1.282 4.6686-1.933 7.0132-.091.3399-.252.6569-.473.9308-.221.2738-.496.4984-.809.6592s-.656.2543-1.007.2744c-.352.0202-.703-.0334-1.032-.1574l-6.767-1.9744c-.352-.0649-.687-.2015-.985-.4015-.297-.2-.55-.4589-.743-.7608s-.321-.6402-.378-.994c-.056-.3537-.04-.7154.05-1.0623.668-2.4886 1.285-4.6172 1.943-7.0544.18-.6391.605-1.1813 1.183-1.5087.578-.3273 1.261-.4134 1.902-.2394z" fill="#0f7657"/><path d="m134.455.57565-.484 3.36264c-.216 0-21.883-2.941024-35.8782 9.08011-7.8565 6.7356-11.867 16.9367-11.9698 30.3152h-3.4038c.1543-14.3966 4.607-25.4717 13.2244-32.9065 15.1374-13.01871 37.5644-9.995416 38.5114-9.85145z" fill="#4c8bca"/><path d="m131.278 75.0169c.554.3936.932.9894 1.051 1.6588.119.6695-.029 1.359-.414 1.9198l-4.113 6.0055c-.201.2776-.456.5116-.749.6877-.294.1761-.621.2907-.96.3369-.34.0461-.685.0228-1.015-.0684-.33-.0913-.638-.2487-.906-.4626l-5.759-4.1133c-.312-.1754-.585-.4132-.802-.6987s-.372-.6125-.457-.9607-.098-.7102-.037-1.0634c.062-.3531.195-.69.391-.9895 1.44-2.1389 2.715-3.9488 4.114-6.0363.187-.2776.428-.5149.709-.6978s.595-.3078.925-.3672.668-.0522.995.0212.636.2115.908.4062z" fill="#0f7657"/><path d="m130.342 150.62c.064.473.091.951.083 1.429-.007.501-.062 1.001-.165 1.491-.111.526-.255 1.045-.432 1.553-.153.465-.346.915-.576 1.347-.271.512-.584 1-.935 1.46-.343.448-.725.864-1.142 1.245-.407.364-.833.707-1.275 1.028-.466.352-.957.668-1.471.946-.548.3-1.119.558-1.707.771-.589.214-1.19.396-1.799.545-.64.162-1.289.286-1.944.37-.683.078-1.369.119-2.056.124-.746.003-1.492-.042-2.232-.134-.903-.116-1.797-.298-2.674-.545-.92-.27-1.818-.614-2.683-1.028-.815-.397-1.599-.854-2.345-1.368-.751-.504-1.471-1.028-2.211-1.645-.771-.623-1.506-1.289-2.201-1.995-.743-.744-1.43-1.541-2.056-2.386-.6538-.883-1.2448-1.811-1.769-2.776-.6426-1.123-1.2227-2.28-1.7379-3.466-.4459-1.037-.7903-2.115-1.0283-3.219-.2204-1.018-.3852-2.048-.4936-3.085-.0823-.884-.0925-1.521-.0925-2.149 0-.627 0-1.265.0822-1.851.0519-.584.1378-1.164.2571-1.738.1131-.606.2571-1.264.473-2.056.2185-.837.4828-1.661.7919-2.468.3103-.814.6851-1.601 1.1208-2.355.4628-.816.9709-1.606 1.522-2.365.5243-.73 1.0283-1.337 1.5323-1.964.504-.628 1.028-1.255 1.625-1.882.64-.675 1.328-1.304 2.056-1.882.946-.776 1.982-1.436 3.085-1.964 1.371-.625 2.82-1.057 4.309-1.286 1.362-.22 2.751-.22 4.113 0 1.079.166 2.123.514 3.085 1.029.595.351 1.127.799 1.574 1.326.306.348.575.727.802 1.131.209.371.385.76.524 1.162.155.446.259.909.309 1.378.042.535.025 1.073-.052 1.605-.082.634-.244 1.256-.483 1.851-.277.616-.622 1.199-1.028 1.737-.334.465-.725.887-1.162 1.255-.375.314-.786.584-1.224.802-.35.181-.719.322-1.1.422-.338.077-.682.126-1.029.144-.344.013-.689-.011-1.028-.072-.297-.06-.587-.153-.864-.278-.234-.11-.457-.241-.668-.391-.176-.115-.338-.25-.484-.401-.132-.134-.249-.282-.349-.442-.131-.199-.238-.413-.319-.638-.087-.235-.146-.48-.175-.73-.026-.242-.026-.487 0-.73.014-.283.066-.563.154-.833.096-.299.227-.585.391-.853.182-.308.407-.589.669-.833.246-.237.534-.391.791-.607.165-.113.296-.268.381-.449.084-.181.12-.38.103-.579-.025-.284-.128-.556-.296-.787-.169-.23-.397-.41-.661-.519-.745-.145-1.518-.009-2.169.38-.684.36-1.284.861-1.759 1.471l-2.519-.35c.45-.53.957-1.009 1.511-1.429-12.6892 7.013-13.9232 22.253-4.113 31.58-.459-.788-.805-1.636-1.028-2.52l2.663-.545c.092.352.213.696.36 1.029.678 1.537 1.881 2.784 3.394 3.517 1.523.695 3.235.861 4.864.473 1.228-.323 2.314-1.047 3.085-2.057.485-.574.745-1.305.73-2.057-.015-.215-.086-.423-.205-.603s-.282-.326-.474-.425c-.174-.105-.369-.172-.571-.197s-.407-.007-.601.053c-.347.203-.654.468-.905.782-.324.307-.705.548-1.121.709-.422.152-.868.228-1.316.226-.446-.011-.887-.094-1.306-.246-.441-.153-.845-.399-1.183-.72-.335-.36-.588-.788-.74-1.255-.201-.509-.282-1.058-.237-1.604.093-.639.317-1.252.658-1.8.349-.605.806-1.141 1.347-1.583.621-.517 1.314-.94 2.057-1.255.986-.419 2.024-.706 3.085-.853 1.252-.162 2.518-.179 3.774-.052 1.111.112 2.202.378 3.239.792 1.472.597 2.755 1.582 3.712 2.849.387.454.731.943 1.029 1.46.214.404.38.832.493 1.275.134.607.237 1.08.36 1.553zm-4.206 2.704c.272-.947.297-1.948.072-2.908-.225-.959-.692-1.845-1.357-2.573-1.121-1.378-3.465-2.406-6.756-2.056-.617.113-3.085.627-4.113 2.622-.099.152-.139.336-.112.516.026.179.116.344.255.462.138.118.314.182.496.18.182-.003.356-.07.492-.192.539-.608 1.261-1.026 2.056-1.192.477-.1.969-.097 1.443.009.475.106.922.311 1.311.603.39.292.712.664.947 1.09.234.426.375.898.413 1.383.504 4.699-4.854 8.062-7.949 7.527 1.873.507 3.834.602 5.748.278 2.242-.309 6.119-1.923 7.003-5.749zm-6.622-27.631c.217-.523.308-1.09.265-1.654-.042-.565-.218-1.112-.512-1.596-.364-.538-.846-.987-1.409-1.313s-1.192-.52-1.84-.568c.761.74 2.056 1.768 1.779 3.743-.106.53-.327 1.03-.649 1.463-.322.434-.736.791-1.213 1.046-.843.689 0 1.604 1.029 1.388.572-.214 1.092-.549 1.523-.982s.764-.954.976-1.527z" fill="#fff"/><path d="m129.776 117.024c1.518 3.269 1.772 6.984.712 10.428-1.06 3.445-3.357 6.375-6.45 8.226l.576.082-.37 2.725c-1.209-.202-2.435-.288-3.661-.257-1.647.036-3.284.271-4.874.699-1.408.383-2.752.968-3.99 1.738-1.186.709-2.231 1.629-3.085 2.715-.91 1.162-1.552 2.51-1.882 3.949-.267 1.136-.267 2.319 0 3.455l-2.663.545c-.725-2.897-.328-5.962 1.112-8.578 1.44-2.617 3.816-4.592 6.651-5.531-6.17-2.468-7.805-9.172-4.113-13.522l2.52.349c-.928 1.097-1.445 2.482-1.461 3.918-.013.548.049 1.095.185 1.625.515 1.889 1.758 3.498 3.456 4.473.644.368 1.336.645 2.056.823.673.166 1.364.242 2.057.226.734-.01 1.464-.096 2.18-.257.981-.272 1.924-.666 2.807-1.172.396-.237.778-.498 1.142-.782.38-.288.792-.606 1.121-.905.309-.28.597-.583.863-.905.268-.308.525-.637.792-1.028.289-.402.553-.821.792-1.254.295-.506.546-1.036.751-1.584.248-.64.441-1.301.576-1.974.122-.645.188-1.298.195-1.954.038-.562.038-1.125 0-1.687-.036-.484-.105-.965-.206-1.439-.076-.369-.172-.733-.288-1.09-.113-.34-.226-.659-.37-1.029s-.308-.668-.473-1.028c-.164-.36-.329-.638-.514-.946-.181-.319-.383-.625-.607-.915-.245-.334-.509-.654-.791-.957l2.653-1.11c1.101 1.138 1.982 2.47 2.601 3.928z" fill="#fff"/><path d="m124.799 147.822c.665.728 1.132 1.614 1.357 2.573.225.96.2 1.961-.071 2.908-.936 3.826-4.761 5.44-6.962 5.831-1.914.324-3.875.23-5.748-.278 3.085.535 8.452-2.827 7.949-7.527-.038-.485-.179-.956-.414-1.383-.234-.426-.557-.797-.946-1.089s-.836-.498-1.311-.603c-.475-.106-.967-.109-1.443-.01-.796.166-1.517.585-2.056 1.193-.136.121-.311.189-.492.191-.182.002-.358-.062-.497-.18-.138-.118-.228-.282-.255-.462-.026-.18.014-.363.112-.516 1.029-1.995 3.497-2.509 4.114-2.622 3.198-.411 5.542.617 6.663 1.974z" fill="#0f7657"/><path d="m119.215 122.443c.294.484.47 1.031.512 1.596.043.564-.048 1.131-.265 1.654-.214.575-.55 1.098-.984 1.531-.435.433-.959.767-1.535.978-1.111.216-1.903-.699-1.029-1.388.477-.255.891-.612 1.213-1.046s.543-.933.649-1.463c.267-1.975-1.029-3.003-1.779-3.743.643.052 1.266.249 1.823.574.557.326 1.034.773 1.395 1.307z" fill="#0f7657"/><path d="m117.734 46.1821c1.508 1.6628 2.31 3.8465 2.237 6.0897s-1.015 4.3701-2.628 5.9315c-3.187 2.941-3.609 3.3524-6.817 6.2934-1.653 1.5179-3.825 2.3447-6.068 2.3103-2.244-.0345-4.389-.9275-5.9947-2.4954-3.3112-3.4244-3.5375-3.6712-6.6533-7.0132-1.4402-1.7205-2.1498-3.9365-1.9768-6.1735.173-2.2371 1.2147-4.3176 2.9023-5.7963 3.4038-3.1467 3.085-2.9102 6.5505-6.0466 4.679-4.1853 10.499-1.7584 11.949.1234 3.126 3.2393 3.414 3.5272 6.499 6.7767zm-2.735 9.6663c.972-.9973 1.537-2.3206 1.587-3.7121.049-1.3915-.421-2.7515-1.32-3.8153l-5.625-5.9334c-.506-.6141-1.135-1.1155-1.847-1.472s-1.49-.5602-2.285-.5979c-.795-.0378-1.59.0912-2.332.3786s-1.416.7269-1.978 1.2902l-5.6562 5.2239c-2.0566 1.7482-3.4654 4.8126-1.0283 7.9902 2.5297 2.7148 3.4038 3.6505 6.0775 6.427.978 1.0149 2.298 1.6304 3.704 1.7273s2.798-.3317 3.906-1.2028c2.601-2.3857 4.205-3.9179 6.797-6.3037z" fill="#a92819"/><path d="m115.266 48.3213c.898 1.0637 1.369 2.4238 1.319 3.8153-.049 1.3915-.615 2.7148-1.587 3.7121-2.591 2.3857-4.236 3.9179-6.848 6.3037-1.108.871-2.5 1.2997-3.906 1.2028s-2.726-.7124-3.704-1.7273c-2.6736-2.7765-3.5477-3.7123-6.0774-6.427-2.3857-3.1776-1.0283-6.242 1.0283-7.9902l5.6561-5.2239c.562-.5633 1.236-1.0028 1.978-1.2902.743-.2875 1.537-.4164 2.332-.3786.795.0377 1.573.2414 2.285.5979.712.3564 1.341.8578 1.847 1.472zm-3.435 5.6147c.277-.2169.505-.4893.67-.7996.165-.3104.263-.6518.288-1.0024.026-.3506-.023-.7026-.142-1.0334-.119-.3307-.306-.6329-.549-.8871l-5.028-5.224c-.47-.4929-1.114-.7819-1.795-.805-.681-.023-1.343.2217-1.845.6816l-5.5328 5.1417c-.2466.226-.4455.4991-.585.8032-.1396.3041-.2169.633-.2274.9674-.0106.3344.0459.6675.166.9798.1201.3122.3014.5973.5333.8385 1.7379 1.8201 3.2499 3.4449 5.0389 5.2959.252.255.554.4556.887.5893s.689.1978 1.048.1881c.358-.0096.711-.0927 1.036-.2441.326-.1514.616-.368.854-.6362z" fill="#fff"/><path d="m112.088 50.2137c.243.2536.431.5552.551.8855.12.3304.169.6822.145 1.0327-.024.3506-.122.6923-.286 1.003s-.391.5837-.667.8014l-5.142 4.7817c-.238.2682-.528.4847-.854.6362-.325.1514-.678.2345-1.036.2441-.359.0096-.715-.0544-1.048-.1881s-.635-.3343-.887-.5893c-1.789-1.851-3.301-3.4758-5.0389-5.296-.2319-.2411-.4132-.5262-.5333-.8384-.1201-.3123-.1766-.6454-.166-.9798.0105-.3344.0878-.6633.2273-.9674.1396-.3041.3385-.5772.5851-.8032l5.5328-5.1417c.502-.4599 1.164-.7046 1.845-.6816.681.0231 1.325.3121 1.795.805z" fill="#0f7657"/><path d="m110.928 109.929h-.288l-.833.154c-.278.062-.556.113-.874.206-.319.092-.7.195-1.142.349-.442.155-.946.34-1.563.617-.727.331-1.438.698-2.129 1.101-.791.462-1.645 1.028-2.334 1.501s-1.193.864-1.666 1.234c-.4728.37-.915.73-1.3983 1.172s-1.0283.967-1.5528 1.522c-.5244.555-1.09 1.244-1.7687 2.016-.6787.771-1.4191 1.83-2.0567 2.786-.6032.919-1.1492 1.874-1.635 2.859l-.2159.442-.216-.442c-.4937-.981-1.0395-1.935-1.635-2.859-.6376-.956-1.4089-1.974-2.0567-2.786-.6478-.813-1.2032-1.409-1.7379-1.975-.5347-.565-1.0283-1.028-1.563-1.522-.5348-.493-.9153-.791-1.3883-1.172-.473-.38-1.0283-.761-1.6762-1.234-.6478-.473-1.5322-1.028-2.324-1.501s-1.5116-.823-2.1286-1.101c-.617-.277-1.1312-.462-1.5734-.617-.4422-.154-.8021-.267-1.1311-.349-.3291-.083-.6068-.144-.8741-.206l-.833-.154h-.2879zm-12.4638 3.28h-13.8722c2.7334 2.015 5.0783 4.51 6.9207 7.363 1.8664-2.844 4.2196-5.336 6.9515-7.363z" fill="#fff"/><path d="m109.27 122.269c-.554.42-1.061.899-1.511 1.429-3.641 4.35-2.057 11.054 4.113 13.522-2.836.939-5.211 2.914-6.651 5.531s-1.838 5.681-1.113 8.578c.224.884.57 1.732 1.028 2.52-9.7586-9.327-8.5554-24.536 4.134-31.58z" fill="#0f7657"/><path d="m84.5913 113.209h13.8722c-2.7209 2.029-5.0635 4.522-6.9207 7.363-1.8515-2.856-4.207-5.351-6.9515-7.363z" fill="#0f7657"/><path d="m95.0682 67.3661c5.7688 1.8819 8.3498 11.4968 1.2751 15.425-4.2675 1.6042-5.0594 1.9538-9.3886 3.6094.5141 1.8099-3.4244 7.1161-9.6766 5.3062l-2.8999-.9666-12.0109 4.2881c-6.9515 2.756-11.507-2.3137-10.9312-7.3937-5.5015 1.6865-10.746-2.7765-10.1907-8.9979-7.4143-5.1416-1.1209-16.988 7.4965-14.0058 5.954 1.9949 8.4015 2.8073 13.574 4.5246 8.0312-1.2751 10.4478-1.9332 18.5099-3.1878 5.2548-1.09 7.003 1.1106 7.9387 1.8716 1.4705-.5451 3.63-1.4808 6.3037-.4731zm-.7198 12.6691c5.8516-2.9102 2.0566-11.1677-3.085-9.6663-1.45.4524-2.0567.874-3.4655 1.3162-.3988-.9423-1.1148-1.7153-2.0239-2.1849s-1.954-.6061-2.9532-.3859c-7.1983 1.1209-13.4403 2.1801-20.6592 3.3215-5.3679-1.6556-9.1624-3.085-14.5303-4.7612-5.8101-.9666-8.8128 6.8693-2.9719 9.1933-1.8201 4.1133 1.45 8.6688 5.6559 7.949 3.0849-.4422 3.5991-.5656 6.4784-1.0283-5.2856 2.2417-1.1003 10.7255 4.2676 8.2986l13.2655-4.7406c1.2648.4216 1.9846.7918 3.085 1.1414 5.6249 1.7482 7.4759-3.3215 6.8692-4.8331z" fill="#a92819"/><path d="m96.3019 165.304-2.2007 2.149c-.9267-.936-1.7988-1.925-2.6119-2.961-4.355 5.492-10.2151 9.598-16.8647 11.815-5.0799 1.964-14.1909 2.345-20.9573-.863-4.607-1.543-14.5612-9.831-15.0548-19.96-.3599-9.975 5.4502-18.922 14.0881-21.266-3.013-3.62-5.9129-9.06-2.8382-16.731l2.756.812c-.6775 2.017-.9057 4.158-.6684 6.273.2566 2.258 1.0185 4.428 2.2291 6.351s2.8387 3.548 4.7635 4.755c-2.9808.076-5.8847.961-8.4015 2.561-2.7598 1.895-4.9978 4.456-6.5075 7.445-1.5096 2.988-2.2423 6.309-2.1304 9.656.473 9.625 9.7897 16.134 14.1704 17.605 6.0037 2.155 12.5745 2.13 18.5613-.072 6.9118-2.655 12.8148-7.414 16.8749-13.605 1.3589 2.19 2.9669 4.216 4.7921 6.036z" fill="#a92819"/><path d="m91.1825 70.3688c5.2239-1.5014 8.9875 6.7561 3.085 9.6663l-9.9851 3.6197c.6067 1.5116-1.2443 6.5813-6.8281 4.8023-1.1415-.3496-1.8613-.7198-3.085-1.1415l-13.2655 4.7406c-5.3679 2.4269-9.5532-6.0568-4.2676-8.2986-2.8793.4936-3.4449.617-6.4784 1.0283-4.2059.7199-7.476-3.8665-5.6559-7.9489-5.7997-2.3241-2.8382-10.16 2.8896-9.1933 5.3679 1.6556 9.1625 3.085 14.5304 4.7612 7.1983-1.1415 13.4402-2.2007 20.6591-3.3216 1.0019-.2048 2.0438-.0527 2.9453.43.9015.4826 1.6058 1.2655 1.9907 2.2129 1.4191-.4834 2.0155-.905 3.4655-1.3574zm1.8407 6.7047c2.2829-.8227.9255-4.2368-1.2751-3.4449-6.1803 2.2109-11.795 4.2675-17.5228 6.3242l-4.8023-1.6042c5.1417-.8124 10.1496-1.6042 14.6846-2.3035 2.396-.3702 1.7173-3.9796-.5965-3.6197-7.6713 1.1929-14.5714 2.3035-21.6772 3.4141-4.8023-1.5734-9.6457-3.1879-14.7874-4.936-2.2931-.7713-3.4757 2.7148-1.2545 3.4552 2.5811.8741 5.337 1.7893 8.1752 2.7353l-4.6789.7302c-2.396.3702-1.8407 4.0104.473 3.6402l11.8053-1.8407 7.0749 2.3858c-3.085 1.1208-6.2317 2.2623-9.5327 3.4449-2.2726.8123-1.0283 4.2778 1.1621 3.486l13.9853-5.0594 4.4938 1.5117c2.3034.7712 3.3626-2.7457 1.1414-3.4964h-.1028c4.6172-1.7173 9.1418-3.3626 13.2346-4.8228z" fill="#fff"/><path d="m91.7487 73.6287c2.2006-.7918 3.558 2.6223 1.2751 3.4449-4.1133 1.4603-8.6174 3.085-13.214 4.7715h.1028c2.2212.7507 1.162 4.2676-1.1415 3.4963l-4.4938-1.4808-13.9853 5.0594c-2.2006.7918-3.4346-2.6737-1.162-3.486 3.3421-1.1826 6.4271-2.3241 9.5121-3.4244l-7.1366-2.3651-11.7847 1.8201c-2.3137.3702-2.869-3.2701-.473-3.6403l4.6789-.7301c-2.8382-.9461-5.5941-1.8613-8.1752-2.7354-2.2212-.7404-1.0284-4.2264 1.2545-3.4552 5.1417 1.7482 10.0262 3.3627 14.8285 4.9463 7.1058-1.1209 14.0059-2.2315 21.6773-3.4038 2.3137-.3599 2.9924 3.2496.5964 3.6198-4.535.6992-9.5841 1.4911-14.6846 2.3034l4.8023 1.5837c5.7278-2.0567 11.3425-4.1134 17.5228-6.3243z" fill="#a92819"/><path d="m89.495 191.29 1.2134 3.178c-6.5261 2.594-13.4723 3.971-20.4946 4.062-6.6316.048-13.1828-1.454-19.1315-4.385-5.9487-2.932-11.1305-7.212-15.1325-12.5-5.1927-6.6-8.3801-14.553-9.183-22.912l3.3833-.318c.7548 7.684 3.6793 14.995 8.4323 21.08l.1439.185c.6684 1.049 16.5973 24.608 50.7687 11.61z" fill="#4c8bca"/><path d="m87.6037 139.174c.0154.718-.0155 1.436-.0925 2.15-.0996 1.037-.261 2.067-.4833 3.085-.2425 1.102-.5867 2.18-1.0284 3.218-.5192 1.185-1.0993 2.341-1.7378 3.466-.528.963-1.1188 1.891-1.7688 2.776-.6265.845-1.3139 1.642-2.0566 2.386-.69.712-1.4251 1.378-2.2006 1.995-.7302.607-1.4603 1.141-2.2007 1.645-.7463.514-1.53.971-2.3446 1.368-.8654.415-1.763.759-2.6839 1.028-.877.246-1.7705.428-2.6737.545-.7436.093-1.4924.137-2.2417.134-.6873-.004-1.3738-.045-2.0567-.123-.6548-.084-1.3038-.208-1.9435-.371-.6097-.147-1.2105-.329-1.7996-.545-.588-.212-1.1587-.47-1.707-.771-.5111-.295-.9992-.629-1.4603-.997-.4388-.321-.8609-.665-1.2648-1.029-.4166-.38-.7985-.796-1.1415-1.244-.3515-.46-.6645-.948-.9357-1.46-.2302-.432-.4228-.883-.5759-1.347-.1846-.507-.3324-1.025-.4422-1.553-.0945-.492-.1461-.991-.1542-1.491-.0085-.478.019-.956.0822-1.429.0682-.469.1643-.932.288-1.389.1099-.442.2721-.87.4833-1.275.3017-.514.6456-1.003 1.0283-1.46.4123-.548.8887-1.046 1.4191-1.481.6918-.568 1.4647-1.029 2.2932-1.368 1.0374-.413 2.1278-.68 3.2392-.791 1.2558-.127 2.5221-.11 3.774.051 1.0614.147 2.0987.434 3.085.854.7434.315 1.4364.737 2.0566 1.254.5469.446 1.0101.986 1.3677 1.594.3384.549.559 1.161.6479 1.8.0453.545-.0356 1.094-.2365 1.604-.1492.466-.3984.894-.7302 1.254-.3405.324-.7476.57-1.1928.72-.4158.152-.8534.235-1.2957.247-.4486.002-.894-.075-1.3163-.226-.4183-.163-.8021-.404-1.1312-.71-.2477-.317-.5552-.582-.9049-.781-.1945-.06-.3995-.078-.6015-.053-.2019.025-.3964.092-.5708.197-.1907.099-.3525.246-.4697.426-.1171.18-.1856.387-.1987.602-.0182.75.2377 1.481.7198 2.057.7724 1.008 1.8574 1.731 3.085 2.056 1.6322.389 3.3473.222 4.8743-.473 1.0278-.493 1.9199-1.229 2.599-2.145.6791-.915 1.1248-1.983 1.2984-3.109l2.5708.411c-.1967 1.185-.6079 2.325-1.2134 3.362 9.8514-9.326 8.6174-24.566-4.1133-31.58.6885.519 1.3011 1.132 1.8201 1.821l-2.3754.411c-.104-.158-.2173-.309-.3394-.453-.4688-.611-1.0654-1.113-1.7481-1.47-.6518-.39-1.4244-.525-2.1698-.381-.2635.11-.4918.29-.6604.52s-.2709.502-.296.786c-.0163.198.0186.397.1015.577s.2109.336.3716.452c.2673.216.545.37.8021.607.2608.242.4828.523.6581.832.1711.266.3059.553.401.854.0784.272.1301.551.1543.833.0261.243.0261.487 0 .73-.025.249-.0803.494-.1645.73-.0887.223-.1989.436-.3291.638-.0964.159-.2102.308-.3394.442-.1481.148-.3099.283-.4833.401-.2137.145-.437.276-.6684.391-.2766.124-.5664.217-.8638.277-.3392.061-.684.085-1.0283.072-.3463-.018-.6904-.066-1.0283-.144-.3818-.098-.751-.239-1.1004-.421-.4413-.218-.8555-.488-1.234-.802-.4318-.372-.8183-.793-1.1517-1.255-.4105-.536-.7557-1.12-1.0283-1.738-.4345-1.097-.6172-2.278-.5347-3.455.0464-.469.1464-.932.2982-1.378.1426-.403.3216-.792.5347-1.162.2271-.402.4922-.78.7918-1.131.441-.54.9693-1.002 1.5631-1.368.9467-.509 1.9721-.857 3.0335-1.028 1.3623-.221 2.7511-.221 4.1134 0 1.4885.228 2.9384.661 4.3087 1.285 1.1035.529 2.1393 1.188 3.085 1.964.7269.581 1.414 1.21 2.0566 1.882.6067.628 1.1209 1.265 1.6351 1.882.5141.617 1.0283 1.234 1.5322 1.964.5475.762 1.0555 1.551 1.5219 2.365.4357.754.8106 1.542 1.1209 2.355.3091.808.5734 1.632.7918 2.468.2057.771.3599 1.43.473 2.057.1194.574.2052 1.154.2571 1.738.1543.504.1748 1.162.1748 1.768zm-18.1191 19.703c-3.085.535-8.4529-2.828-7.9388-7.527.038-.485.1789-.956.4132-1.383.2344-.426.557-.797.9461-1.089.3892-.292.8361-.498 1.311-.604.4749-.105.9668-.108 1.4431-.009.7964.165 1.518.583 2.0566 1.193.1355.121.3103.189.492.191s.358-.062.4962-.18c.1381-.118.2288-.282.2551-.462s-.0136-.363-.1121-.516c-1.0283-1.995-3.4963-2.509-4.1133-2.622-3.2907-.401-5.6353.627-6.7459 2.057-.6672.726-1.1367 1.611-1.3636 2.571s-.2035 1.961.0679 2.91c.9461 3.825 4.7715 5.439 6.9618 5.83 1.9464.31 3.9371.187 5.8307-.36zm-3.5683-30.675c1.1105.216 1.9024-.699 1.0283-1.388-.4753-.256-.8884-.614-1.21-1.047-.3217-.434-.544-.933-.6513-1.462-.2674-1.975 1.0283-3.003 1.779-3.743-.6482.049-1.2769.244-1.8394.57s-1.0445.774-1.4101 1.312c-.2893.485-.4621 1.032-.5049 1.595-.0429.564.0455 1.13.2581 1.654.22.577.5616 1.1 1.0017 1.533.44.433.9682.766 1.5486.976z" fill="#fff"/><path d="m78.9243 150.486c.4866-2.796-.0473-5.673-1.5044-8.108-1.4572-2.435-3.7406-4.265-6.4343-5.158 6.0054-2.396 7.7022-8.781 4.4732-13.131-.5189-.689-1.1316-1.301-1.8201-1.82 12.6896 7.013 13.9236 22.253 4.1133 31.58.5912-1.041.9884-2.18 1.1723-3.363z" fill="#0f7657"/><path d="m75.1706 1.32666h-3.4038v26.10934h3.4038z" fill="#179e6c"/><path d="m75.09 49.8638h-73.83414v3.4037h73.83414z" fill="#179e6c"/><path d="m74.8317 41.2666h-73.834141v3.4038h73.834141z" fill="#a92819"/><path d="m74.5854 32.6699h-73.834179v3.4038h73.834179z" fill="#179e6c"/><path d="m61.5457 151.349c-.5142 4.7 4.8435 8.063 7.9387 7.528-1.8735.507-3.8347.602-5.7483.277-2.1904-.39-6.0158-2.056-6.9618-5.83-.2752-.951-.3005-1.957-.0736-2.921.227-.964.6986-1.852 1.3693-2.581 1.1106-1.378 3.4551-2.406 6.7458-2.056.617.113 3.085.627 4.1133 2.622.0986.153.1384.336.1121.516-.0263.179-.1169.344-.2551.462-.1381.118-.3144.182-.4962.18-.1817-.002-.3565-.07-.4919-.192-.5387-.609-1.2603-1.027-2.0567-1.192-.49-.114-.9991-.119-1.491-.013-.4919.105-.9546.317-1.3551.622-.4006.304-.7291.693-.9624 1.139-.2332.445-.3654.937-.3871 1.439z" fill="#0f7657"/><path d="m66.9746 126.814c.8432.689.0514 1.604-1.0283 1.388-.5747-.214-1.0968-.549-1.5314-.982-.4345-.433-.7714-.953-.9881-1.527-.2125-.524-.3009-1.09-.2581-1.654s.2157-1.11.5049-1.596c.3656-.537.8476-.985 1.4102-1.311.5625-.326 1.1912-.521 1.8394-.57-.761.74-2.0567 1.768-1.779 3.743.1038.526.3214 1.023.6376 1.457.3162.433.7233.792 1.1928 1.052z" fill="#0f7657"/><path d="m63.8276 1.32666h-3.4038v26.35614h3.4038z" fill="#2a3277"/><path d="m48.6101 8.28858c1.3005-.00203 2.5723.38188 3.6545 1.10314 1.0822.72128 1.926 1.74738 2.4246 2.94848.4986 1.2012.6296 2.5232.3764 3.7988s-.8792 2.4474-1.7988 3.367-2.0914 1.5457-3.367 1.7989-2.5977.1222-3.7988-.3764-2.2273-1.3425-2.9485-2.4246c-.7213-1.0822-1.1052-2.3541-1.1032-3.6546 0-1.74.6912-3.4087 1.9216-4.6391s2.8992-1.92162 4.6392-1.92162zm4.0105 6.56072c-.0021-.7927-.239-1.5671-.6809-2.2253-.4419-.6581-1.069-1.1706-1.802-1.4725-.733-.302-1.539-.38-2.3163-.2241s-1.4909.5387-2.0508 1.1c-.5598.5613-.9408 1.2759-1.0947 2.0536s-.0739 1.5835.23 2.3157c.3038.7322.8178 1.358 1.4771 1.7982s1.4343.6752 2.2271.6752c1.0646-.0027 2.0846-.4275 2.8364-1.1813.7519-.7537 1.1741-1.7749 1.1741-2.8395z" fill="#179e6c"/><path d="m48.6106 17.1523c1.2722 0 2.3034-1.0313 2.3034-2.3034 0-1.2722-1.0312-2.3035-2.3034-2.3035s-2.3035 1.0313-2.3035 2.3035c0 1.2721 1.0313 2.3034 2.3035 2.3034z" fill="#2a3277"/><path d="m37.1345 1.32666h-3.3935v25.72884h3.3935z" fill="#2a3277"/><path d="m35.6505 78.431.7198 3.3318c-2.5628.5702-5.1795.8632-7.805.8741-19.66166 0-27.03479-17.8827-27.11706-18.1089l1.58363-.6273 1.58363-.6273c.38048.9667 8.4323 20.0525 31.035 15.1576z" fill="#4c8bca"/><path d="m31.6828 106.546-15.3221 15.322-15.31187-15.322 15.31187-15.2814zm-15.3221 11.712 11.7127-11.712-11.7127-11.7028-11.70243 11.7028z" fill="#179e6c"/><path d="m29.4526 127.821h-3.4038v19.621h3.4038z" fill="#179e6c"/><path d="m28.9459.894531c.8021 9.604569-1.3677 16.802969-6.4373 21.389269-5.0697 4.5864-11.8361 5.5016-16.45333 5.5016-1.69833.0135-3.39461-.1206-5.069674-.4011l.462744-2.5091c.1234 0 12.05206 2.1184 19.33266-4.4938 4.4423-4.0311 6.3242-10.51983 5.5941-19.2812z" fill="#2a3277"/><path d="m23.3947 176.698c7.589 8.381 5.3062 21.307 5.2136 21.852l-3.3524-.606c0-.124 2.0567-11.857-4.3909-18.973-3.9385-4.34-10.2833-6.17-18.93159-5.461l-.27765-3.383c9.69714-.812 17.01884 1.399 21.73894 6.571z" fill="#2a3277"/><path d="m21.3581 106.546-4.9977 4.997-4.9874-4.997 4.9874-4.988z" fill="#2a3277"/><path d="m17.8628 127.821h-3.4038v19.621h3.4038z" fill="#a92819"/><path d="m10.3152 180.369c1.8901-.004 3.7391.552 5.3134 1.598 1.5742 1.047 2.8032 2.536 3.5317 4.28s.9238 3.665.5612 5.52c-.3625 1.855-1.2666 3.561-2.5981 4.903-1.3315 1.341-3.0307 2.258-4.883 2.634-1.8523.377-3.77462.196-5.52418-.519-1.74956-.716-3.24792-1.933-4.30583-3.5-1.05792-1.566-1.627957-3.411-1.638123-5.301-.0082-2.54.992283-4.979 2.781633-6.782s4.22121-2.822 6.7613-2.833zm7.0235 9.564c.002-1.39-.4082-2.749-1.1787-3.905-.7705-1.157-1.8667-2.058-3.1499-2.592-1.2832-.533-2.6957-.673-4.05883-.403-1.3631.269-2.61553.938-3.59881 1.919-.98328.982-1.65323 2.234-1.92507 3.596-.27183 1.363-.13335 2.776.39794 4.06s1.4315 2.381 2.58673 3.153c1.15523.773 2.51356 1.185 3.90314 1.185 1.8521 0 3.6292-.732 4.9447-2.035 1.3154-1.304 2.0625-3.075 2.0788-4.927z" fill="#179e6c"/><path d="m9.56347 0c1.89153 0 3.74053.560888 5.31323 1.61174 1.5727 1.05084 2.7984 2.54445 3.5223 4.29195.7238 1.7475.9132 3.67039.5442 5.52551-.369 1.8551-1.2799 3.5592-2.6173 4.8967-1.3375 1.3374-3.0416 2.2483-4.8967 2.6173-1.85512.369-3.77801.1796-5.52551-.5442-1.7475-.7239-3.24111-1.9496-4.29195-3.5223-1.050852-1.5727-1.61174-3.4217-1.61174-5.31323.00272202-2.53555 1.01117-4.96648 2.80408-6.75939s4.22384-2.80135798 6.75939-2.80408zm7.01323 9.56347c0-1.38708-.4113-2.74301-1.182-3.89633-.7706-1.15332-1.8659-2.05222-3.1474-2.58303s-2.69161-.6697-4.05204-.39909c-1.36043.2706-2.61006.93855-3.59088 1.91936-.98081.98082-1.64876 2.23045-1.91936 3.59088-.27061 1.36043-.13172 2.77054.39909 4.05204s1.42971 2.3768 2.58303 3.1474c1.15332.7707 2.50925 1.182 3.89633 1.182 1.85923-.0027 3.64143-.7425 4.95613-2.0571 1.3146-1.3147 2.0544-3.0969 2.0571-4.95613z" fill="#179e6c"/><path d="m10.3142 192.236c1.2722 0 2.3035-1.031 2.3035-2.304 0-1.272-1.0313-2.303-2.3035-2.303-1.27216 0-2.30346 1.031-2.30346 2.303 0 1.273 1.0313 2.304 2.30346 2.304z" fill="#2a3277"/><path d="m9.56323 11.8667c1.27217 0 2.30347-1.0313 2.30347-2.30347s-1.0313-2.30346-2.30347-2.30346-2.30346 1.03129-2.30346 2.30346 1.03129 2.30347 2.30346 2.30347z" fill="#2a3277"/><path d="m6.51849 127.924h-3.39349v19.611h3.39349z" fill="#179e6c"/><path d="m4.61854 63.2935-1.58363.6273 1.57335-.6376z" fill="#1d1d1b"/></svg>