<svg fill="none" height="200" viewBox="0 0 196 200" width="196" xmlns="http://www.w3.org/2000/svg"><path d="m194.983 149.984c.203.17.371.377.494.612.123.234.198.49.221.753.024.264-.005.529-.084.782-.079.252-.207.486-.377.689l-8.147 9.692-.085.106c-.01.479-.201.936-.535 1.28-.334.343-.785.548-1.264.572-.467-.021-.91-.216-1.241-.547s-.526-.774-.547-1.242l-.074-.074-8.147-9.713c-.299-.412-.431-.923-.368-1.429.063-.505.315-.968.707-1.295.391-.326.891-.492 1.4-.464.508.029.987.249 1.34.617l5.132 6.094v-4.126l-5.513-6.539c-.342-.41-.508-.939-.46-1.47.047-.532.304-1.023.714-1.366.41-.342.939-.508 1.47-.46.532.048 1.023.305 1.366.714l2.423 2.889v-3.915c-.028-.253-.002-.508.076-.75s.206-.465.376-.654c.169-.189.377-.34.609-.444.232-.103.483-.157.737-.157s.506.054.738.157c.232.104.439.255.609.444s.298.412.376.654c.077.242.104.497.076.75v3.957l2.518-2.973c.352-.381.836-.611 1.353-.643.517-.033 1.027.136 1.422.47.396.335.647.809.702 1.324s-.092 1.031-.408 1.441l-5.576 6.56v4.053l5.142-6.126c.346-.403.837-.652 1.367-.694.529-.042 1.053.128 1.458.471z" fill="#0f7657"/><path d="m194.838 174.807h-194.540515v2.613h194.540515z" fill="#179e6c"/><path d="m194.582 187.991v2.603h-4.327v-1.301h-2.603v1.301h-4.465v-1.301h-2.614v1.301h-4.465v-1.301h-2.603v1.301h-4.454v-1.301h-2.624v1.301h-4.455v-1.301h-2.603v1.301h-4.465v-1.301h-2.613v1.301h-4.466v-1.301h-2.602v1.301h-4.466v-1.301h-2.613v1.301h-4.455v-1.301h-2.613v1.301h-3.82v-1.301h-2.613v1.301h-4.465v-1.301h-2.603v1.301h-4.465v-1.301h-2.614v1.301h-4.454v-1.301h-2.614v1.301h-4.4544v-1.301h-2.6241v1.301h-4.4546v-1.301h-2.6028v1.301h-4.4652v-1.301h-2.6135v1.301h-4.4545v-1.301h-2.6135v1.301h-4.4651v-1.301h-2.6135v1.301h-3.862v-1.301h-2.6241v1.301h-4.444v-1.301h-2.6134v1.301h-4.4652v-1.301h-2.6134v1.301h-4.4546v-1.301h-2.6135v1.301h-4.4651v-1.301h-2.6029v1.301h-4.4546v-1.301h-2.624v1.301h-4.4546v-1.301h-2.6134v1.301h-4.4546v-1.301h-2.6135v1.301h-4.46511v-1.301h-2.60289v1.301h-4.274679v-2.603z" fill="#a92819"/><path d="m194.582 181.198h-194.5400078v2.613h194.5400078z" fill="#179e6c"/><path d="m194.581 60.7129h-55.422v2.6135h55.422z" fill="#a92819"/><path d="m194.497 55.6875h-55.401v2.6135h55.401z" fill="#179e6c"/><path d="m194.37 116.602h-55.253v2.613h55.253z" fill="#a92819"/><path d="m194.295 123.817h-55.073v2.614h55.073z" fill="#179e6c"/><path d="m194.191 67.1255v2.6135h-10.485c-.322-.1865-.687-.2851-1.058-.2857-.372.0006-.737.0992-1.058.2857h-29.489c-.322-.1865-.687-.2851-1.058-.2857-.372.0006-.737.0992-1.058.2857h-10.878v-2.6135z" fill="#179e6c"/><path d="m193.821 108.719v2.624h-54.714v-2.624h10.814c.322.186.687.285 1.058.285.372 0 .737-.099 1.058-.285h29.479c.321.186.686.285 1.058.285.371 0 .736-.099 1.058-.285z" fill="#179e6c"/><path d="m193.493 88.9641c.21.2076.377.4548.491.7272.113.2724.172.5647.172.8599s-.059.5875-.172.8599c-.114.2724-.281.5196-.491.7272l-8.591 8.6237v5.967c0 .294-.06.585-.174.856-.115.271-.282.516-.493.721-.145.144-.309.268-.487.37h-2.232c-.347-.193-.636-.475-.837-.817-.201-.343-.307-.733-.306-1.13v-5.925l-8.951-8.4646c-.216-.2013-.39-.4432-.512-.7118-.122-.2685-.19-.5586-.2-.8534-.01-.2949.039-.5888.143-.8649s.261-.529.463-.7442c.409-.4316.973-.6838 1.567-.7017.595-.0178 1.173.2002 1.607.6065l5.883 5.5338v-6.1581l-5.83-6.1792c-.406-.4346-.624-1.0122-.606-1.6068.017-.5946.27-1.1581.701-1.5675.215-.2025.467-.3606.743-.4654s.569-.1542.864-.1454c.295.0089.585.0758.854.1969.269.1212.511.2942.713.5091l2.561 2.7193v-10.2211c0-.3984.105-.7897.306-1.1337s.49-.6284.837-.8238h2.19c.36.1848.662.4653.873.8107.211.3453.323.7421.323 1.1468v10.4433l2.391-2.4018c.421-.4122.987-.6438 1.577-.6455.592.0012 1.161.2326 1.587.6455.208.2083.374.4557.487.728.113.2724.171.5643.171.8591s-.058.5867-.171.8591c-.113.2723-.279.5197-.487.728l-5.555 5.5762v5.9464l5.459-5.4597c.419-.4085.981-.6371 1.566-.6371s1.147.2286 1.566.6371z" fill="#0f7657"/><path d="m190.256 190.594h-2.603v9.406h2.603z" fill="#a92819"/><path d="m190.256 189.292h-2.603v1.301h2.603z" fill="#a92819"/><path d="m189.461 7.18457h-2.613v41.78393h2.613z" fill="#2a3277"/><path d="m183.705 69.7389h-2.191c.322-.1864.687-.285 1.058-.2856.397-.0129.79.0861 1.133.2856z" fill="#1d1d1b"/><path d="m181.514 108.719h2.191c-.322.186-.687.285-1.058.285-.397.013-.789-.086-1.133-.285z" fill="#1d1d1b"/><path d="m183.187 190.594h-2.613v9.406h2.613z" fill="#a92819"/><path d="m183.187 189.292h-2.613v1.301h2.613z" fill="#a92819"/><path d="m178.469 161.623c.326.415.485.938.446 1.464-.039.527-.274 1.02-.658 1.382-.195.17-.422.299-.669.379-.246.08-.505.109-.763.086-.258-.022-.508-.097-.737-.218-.228-.122-.43-.289-.592-.49l-11.914-14.453-11.904 14.474c-.161.201-.362.367-.589.489-.228.122-.478.196-.735.219-.256.023-.515-.007-.761-.087-.245-.079-.471-.208-.666-.377-.387-.36-.626-.852-.669-1.378-.043-.527.113-1.051.436-1.469l12.327-14.95-4.105-4.984c-.337-.41-.501-.934-.46-1.463.041-.528.286-1.02.682-1.373.194-.17.42-.299.665-.38.244-.08.503-.111.76-.089s.507.095.735.216c.227.12.429.286.591.486l3.693 4.476 3.692-4.487c.163-.2.364-.365.592-.486.228-.12.477-.194.734-.215.257-.022.516.008.761.089.245.08.471.21.664.38.398.351.644.842.688 1.371.043.528-.12 1.053-.455 1.464l-4.105 4.995z" fill="#0f7657"/><path d="m172.204.253914c1.409-.002092 2.787.414031 3.96 1.195686 1.172.78165 2.087 1.89368 2.627 3.19529.54 1.30162.682 2.73427.408 4.11658-.275 1.38233-.953 2.65213-1.95 3.64863-.996.9965-2.266 1.6749-3.648 1.9494-1.382.2744-2.815.1325-4.117-.4078-1.301-.5403-2.413-1.4546-3.195-2.6273-.782-1.1726-1.198-2.55085-1.196-3.96013.003-1.88493.753-3.69185 2.086-5.02469s3.14-2.082867 5.025-2.085666zm4.496 7.110356c0-.89194-.264-1.76383-.76-2.50531-.496-.74147-1.2-1.3192-2.024-1.66004-.825-.34085-1.732-.42949-2.606-.25471-.875.17478-1.678.60513-2.308 1.23656-.63.63144-1.058 1.43558-1.231 2.31064s-.082 1.78169.261 2.60513.922 1.52666 1.665 2.02066c.742.494 1.615.7566 2.507.7545 1.191-.0056 2.332-.4829 3.173-1.3276.841-.84474 1.313-1.98804 1.313-3.17983z" fill="#4c8bca"/><path d="m176.109 190.594h-2.602v9.406h2.602z" fill="#a92819"/><path d="m176.109 189.292h-2.602v1.301h2.602z" fill="#a92819"/><path d="m172.192 9.89311c1.397 0 2.529-1.13219 2.529-2.52883 0-1.39663-1.132-2.52883-2.529-2.52883-1.396 0-2.528 1.1322-2.528 2.52883 0 1.39664 1.132 2.52883 2.528 2.52883z" fill="#2a3277"/><path d="m170.564 24.6323 2.603.3174c-.888 7.4596-3.883 13.1309-8.909 16.9295-5.597 4.2323-12.443 5.0153-16.929 5.0153-1.658.0169-3.314-.1034-4.952-.3597l.444-2.5712c.106 0 11.777 1.9257 19.935-4.2324 4.38-3.3012 7.015-8.38 7.808-15.0989z" fill="#4c8bca"/><path d="m169.041 190.594h-2.614v9.406h2.614z" fill="#a92819"/><path d="m169.041 189.292h-2.614v1.301h2.614z" fill="#a92819"/><path d="m163.601 135.171c.396 0 .783.117 1.111.337.329.22.586.532.737.897.151.366.191.768.114 1.156s-.268.744-.548 1.024c-.279.279-.636.47-1.024.547-.387.077-.79.038-1.155-.114-.365-.151-.678-.407-.897-.736-.22-.329-.337-.716-.337-1.111 0-.531.21-1.039.585-1.414s.884-.586 1.414-.586z" fill="#a92819"/><path d="m161.898 88.9641c.21.2076.376.4548.49.7272s.172.5647.172.8599-.058.5875-.172.8599-.28.5196-.49.7272l-8.634 8.6337v5.968c-.001.592-.237 1.159-.656 1.577-.15.144-.317.268-.498.37h-2.19c-.35-.191-.641-.472-.844-.815s-.31-.734-.309-1.132v-5.925l-8.952-8.465c-.427-.4123-.676-.9761-.692-1.5699-.015-.5937.203-1.17.608-1.6044.202-.215.444-.388.713-.5091.269-.1212.559-.1881.854-.1969.295-.0089.589.0405.864.1453.276.1048.528.263.743.4655l5.872 5.5338v-6.1687l-5.819-6.1792c-.205-.2132-.366-.4651-.472-.7411s-.157-.5704-.148-.8661c.009-.2956.077-.5865.2-.8556.122-.2691.298-.511.515-.7115.214-.2037.466-.363.742-.4687.276-.1056.57-.1554.865-.1465.295.0088.586.0762.855.1981.269.122.511.2961.712.5123l2.55 2.7193v-10.2211c0-.2972.059-.5915.173-.8658.115-.2742.283-.5231.494-.7319.146-.1407.309-.2617.487-.3598h2.169c.354.1891.649.4715.855.8165.205.345.312.7396.309 1.141v10.4433l2.391-2.4018c.423-.4162.993-.6494 1.587-.6494s1.164.2332 1.587.6494c.211.2068.379.4538.494.7263.114.2725.173.5652.173.8608s-.059.5882-.173.8608c-.115.2725-.283.5194-.494.7263l-5.555 5.5656v5.9464l5.471-5.4597c.419-.416.987-.6485 1.578-.6465s1.158.2383 1.575.6571z" fill="#0f7657"/><path d="m161.963 190.594h-2.603v9.406h2.603z" fill="#a92819"/><path d="m161.963 189.292h-2.603v1.301h2.603z" fill="#a92819"/><path d="m154.903 190.594h-2.613v9.406h2.613z" fill="#a92819"/><path d="m154.903 189.292h-2.613v1.301h2.613z" fill="#a92819"/><path d="m152.1 69.7389h-2.19c.321-.1864.686-.285 1.058-.2856.397-.0129.789.0861 1.132.2856z" fill="#1d1d1b"/><path d="m149.922 108.719h2.18c-.322.186-.687.285-1.059.285-.393.011-.781-.088-1.121-.285z" fill="#1d1d1b"/><path d="m147.825 190.594h-2.603v9.406h2.603z" fill="#a92819"/><path d="m147.825 189.292h-2.603v1.301h2.603z" fill="#a92819"/><path d="m147.402 154.216c.201 2.498-2.116 6.92-4.444 8.465-3.925 3.243-8.7 5.288-13.755 5.894-2.25 1.984-5.059 3.223-8.042 3.544-2.26.311-4.563-.006-6.657-.915-2.093-.908-3.897-2.374-5.214-4.238-3.175-4.719-2.318-8.612-2-11.067-.286-1.577-4.116-6.529-6.909-12.263-.8257.698-1.6193 1.333-2.5504 2.116 0 .211 0 .19.1058.434 1.2034 1.246 2.0996 2.755 2.6176 4.408s.643 3.404.366 5.114c-.357 1.864-1.2148 3.596-2.4802 5.01-1.2654 1.415-2.8913 2.459-4.704 3.021-4.5604 1.386-8.9091.148-14.7286-4.687-1.6235-1.581-2.9275-3.46-3.8409-5.534-3.0326-1.776-5.2531-4.665-6.1898-8.052-.4444-1.788-1.2908-6.169 2.7087-11.247 1.6188-1.806 3.7009-3.134 6.0206-3.841 3.7985-2.91 7.0574-10.518 11.1839-16.284-7.4066-5.164-13.4059-9.84-16.2205-17.2259-2.8462-8.2319-.5184-17.3209-1.1427-19.4054-2.2008-6.2533-7.5865-15.2999-7.6923-24.082-.0497-3.2096.4882-6.4011 1.5871-9.417.694-1.9393 1.6214-3.7869 2.7617-5.5021-3.0018-3.9167-4.3365-8.8599-3.7139-13.7551.656-3.7033 2.5817-9.2901 10.5808-12.5807 3.8848-1.5745 8.1874-1.7907 12.2104-.6137 2.6706.8348 5.1273 2.2411 7.1994 4.1214 2.0721 1.8802 3.7098 4.1892 4.7993 6.7663 1.317 2.8108 2.137 5.8288 2.423 8.9197 3.149.8558 5.994 2.5789 8.211 4.973 6.168-1.0581 10.581 1.1639 12.136 2.5923 3.037 1.7459 7.407 10.7291 7.407 19.2361 1.043 1.2639 1.771 2.7575 2.125 4.3579.353 1.6004.321 3.2618-.094 4.8475.019 1.2717-.141 2.5397-.476 3.7668-.067 1.6842-.521 3.3305-1.326 4.8112-.806 1.4807-1.941 2.7561-3.319 3.7275-1.524 3.4177-3.566 6.3486-6.348 8.0944 4.592 5.0259 8.824 10.6655 9.882 12.8448 1.193 2.1 1.812 4.476 1.795 6.891-.016 2.414-.668 4.782-1.89 6.865-1.217 1.724-2.952 3.84-5.597 7.628 2.55 8.465 4.444 20.231 5.11 21.384 3.174.625 4.497-.825 8.105-.529 1.606.086 3.171.542 4.572 1.333 1.4.791 2.599 1.896 3.501 3.228 1.005 1.111 1.947 3.343 1.926 6.845zm-7.216 4.476c.861-.74 1.529-1.679 1.946-2.735.417-1.057.57-2.199.445-3.328-.178-1.16-.698-2.24-1.493-3.104-.796-.863-1.83-1.469-2.972-1.742-3.068-.666-4.465.741-7.788.508-.973-.063-4.041-.222-4.75-1.724-1.852-2.381-2.561-12.75-6.687-26.093 2.666-3.428 6.496-8.105 7.173-9.745 2.117-4.497-.211-8.317-1.396-9.925-3.852-5.0363-6.105-9.0571-12.57-14.21 6.348-2.8674 8.687-5.5761 10.337-10.3586 1.196-.459 2.209-1.2972 2.884-2.3864.674-1.0892.973-2.3694.851-3.6447.231-.5657.384-1.1601.455-1.767 0-.9312 0-1.6507 0-1.6612.453-1.1724.497-2.4634.125-3.6638-.373-1.2004-1.14-2.2397-2.178-2.9493.667-8.179-3.068-15.9771-5.681-17.6278-1.365-1.386-6.592-2.9414-10.454-.656-3.524-4.846-6.91-6.0946-11.6393-6.613.3643-2.0801.2449-4.2162-.3492-6.2427-.3809-1.4814-1.767-8.7504-8.7081-12.1152-2.0209-.9628-5.3539-2.1161-10.5809-.3491-6.2638 2.3807-8.1049 7.3008-8.0308 10.8242.103 2.0908.6364 4.1379 1.5667 6.0131.9304 1.8752 2.2376 3.5383 3.8401 4.8852-2.0527 1.8623-3.4282 4.772-4.4122 7.0046-1.2089 3.0013-1.6805 6.2487-1.3756 9.4699.3704 6.6659 4.8461 14.6757 7.5442 21.8707 1.0581 3.0578-2.1162 13.6705 1.9469 20.9078 4.2323 6.9513 10.6973 10.7083 17.3526 15.3953-7.0997 8.179-7.0362 12.782-12.9933 19.045-1.2493 1.528-2.937 2.636-4.8354 3.175-1.3871.647-2.5424 1.705-3.3104 3.029-.7681 1.324-1.112 2.852-.9855 4.377.9206 5.418 4.3911 6.201 5.2905 6.994.9417 1.058 1.4495 3.566 3.5975 5.502 5.8089 4.751 8.2319 4.106 10.2105 3.513 1.0255-.354 1.9229-1.005 2.5784-1.869.6555-.865 1.0396-1.904 1.1038-2.987.0242-1.037-.1994-2.065-.6521-2.998s-1.1215-1.744-1.9508-2.367c-.3915-1.407-.7936-2.931-1.2274-4.634 2.7827-2.783 7.5547-6.053 9.4278-8.095 4.02 9.692 10.052 16.411 10.231 19.66.191 2.116-.56 2.581-.211 5.396.188 1.593.873 3.087 1.957 4.27 1.085 1.183 2.513 1.995 4.085 2.322 5.174.941 8.464-2.709 9.141-3.111 1.778-.73 6.01.032 13.142-5.428z" fill="#a92819"/><path d="m145.361.243652h-2.603v30.293048h2.603z" fill="#2a3277"/><path d="m142.576 152.629c.135 1.131-.009 2.277-.418 3.339-.409 1.063-1.072 2.009-1.931 2.756-7.131 5.46-11.406 4.698-13.173 5.449-.677.402-3.968 4.053-9.142 3.111-1.571-.326-3-1.138-4.084-2.321s-1.769-2.677-1.958-4.271c-.349-2.814.402-3.28.212-5.396-.18-3.248-6.211-9.967-10.232-19.659-1.8725 2.042-6.6445 5.29-9.4273 8.094.4338 1.703.8359 3.174 1.2274 4.634.8294.623 1.4982 1.435 1.9509 2.368s.6762 1.96.652 2.997c-.0641 1.083-.4483 2.123-1.1038 2.987-.6555.865-1.5528 1.515-2.5783 1.87-1.9787.592-4.4017 1.237-10.2106-3.513-2.1162-1.937-2.6558-4.476-3.5975-5.502-.8676-.794-4.3382-1.577-5.2904-6.994-.1265-1.526.2174-3.054.9854-4.378.7681-1.324 1.9234-2.381 3.3104-3.029 1.8985-.539 3.5861-1.647 4.8355-3.174 5.957-6.349 5.8935-10.909 12.9933-19.046-6.6554-4.687-13.1203-8.465-17.3527-15.395-4.0207-7.2373-.857-17.85-1.9468-20.9078-2.7088-7.2585-7.1845-15.2683-7.5548-21.8919-.3015-3.2063.1664-6.4384 1.3649-9.4276.9841-2.2325 2.3596-5.1423 4.4123-7.0045-1.6025-1.3469-2.9098-3.01-3.8401-4.8852-.9303-1.8753-1.4637-3.9223-1.5668-6.0131-.074-3.5234 1.767-8.4647 8.0309-10.8243 5.1952-1.767 8.5282-.6136 10.5809.3492 6.9411 3.3647 8.3272 10.6338 8.7081 12.1151.594 2.0265.7135 4.1626.3491 6.2427 4.709.5185 8.094 1.7671 11.639 6.6131 3.862-2.2855 9.089-.7301 10.454.656 2.613 1.6506 6.348 9.4487 5.682 17.6278 1.037.7096 1.804 1.7489 2.177 2.9493.373 1.2003.329 2.4914-.124 3.6637 0 0 .063.7301 0 1.6612-.071.6069-.224 1.2014-.455 1.767.122 1.2753-.178 2.5555-.852 3.6447-.675 1.0892-1.687 1.9274-2.883 2.3864-1.651 4.7826-4.011 7.4913-10.338 10.3587 6.465 5.1529 8.719 9.1736 12.57 14.2105 1.185 1.608 3.46 5.428 1.397 9.925-.677 1.64-4.508 6.348-7.174 9.744 4.126 13.343 4.835 23.712 6.687 26.093.709 1.502 3.777 1.661 4.751 1.725 3.322.232 4.719-1.175 7.787-.508 1.138.268 2.171.867 2.968 1.722.796.855 1.321 1.928 1.508 3.081zm-4.825 1.884c.151-.247.217-.536.191-.824-.027-.287-.146-.559-.339-.774-.234-.146-.496-.242-.77-.28-.273-.038-.552-.018-.817.058-.635.095-1.323.296-2.233.434-1.171.192-2.359.256-3.544.19-1.684-.055-3.348-.376-4.931-.952-1.546-.606-2.853-1.698-3.724-3.111-1.086-1.981-1.844-4.125-2.244-6.348-.656-2.889-1.333-6.709-2.116-10.147-.783-3.439-1.724-6.465-2.423-9.174-.61-2.265-1.1-4.561-1.47-6.878-.159-1.658-.514-3.292-1.059-4.867-1.169-2.523-2.48-4.978-3.925-7.354-1.936-3.481-4.56-8.2844-6.137-11.1095s-2.116-3.6715-3.6292-4.5498c-1.5131-.8782-4.0313-1.7564-6.0417-2.7721-1.8267-.8125-3.3859-2.1259-4.4969-3.788-.9447-1.8212-1.5607-3.7948-1.8199-5.8301-.3791-2.0501-.6406-4.1203-.783-6.2004-.1058-1.9257 0-3.6186-.5925-4.8672-.7428-1.2443-1.7872-2.2815-3.0367-3.0155-1.2697-.9417-2.6452-2.021-2.2114-1.9998s2.6346 1.1322 4.3064 1.7776c1.1733.4675 2.3886.8218 3.6293 1.0581.7471.1358 1.4639.4046 2.1161.7935.8563.6086 1.7427 1.1736 2.6558 1.693 1.383.6792 2.8335 1.2112 4.3276 1.5871 1.6542.413 3.3382.696 5.0361.8465 1.715.1799 3.45.2539 5.132.3068 1.683.0529 3.312.0635 4.455.0953.75-.0596 1.503.0414 2.211.2962.401.2736.734.6356.974 1.0581.285.4142.643.7728 1.058 1.0581.609.3745 1.284.6295 1.989.7512.867.1857 1.748.2955 2.634.3281.667 0 .889-.1059 1.059-.3492.174-.2614.249-.5768.211-.8888 0-.2645-.243-.4021-.243-.6455.075-.3457.204-.6777.381-.984.194-.3797.316-.7923.359-1.2168-.048-.3115-.119-.6191-.211-.9205-.022-.3639.047-.7276.201-1.0581.161-.3355.275-.6916.338-1.0581 0-.2857-.148-.5079-.603-.6348-.455-.127-1.153-.1588-1.724-.328-.492-.2281-1.002-.4157-1.524-.5608-.623-.0301-1.247.0523-1.841.2433-.677.1587-1.386.328-1.947.4127-.664.1063-1.344.0629-1.989-.127-1.684-.378-3.323-.9349-4.888-1.6612-2.222-.9946-4.995-2.5394-7.534-3.4388-2.1083-.6672-4.2526-1.2148-6.4227-1.64-1.0307-.2975-2.0114-.7468-2.9097-1.3332-.4973-.2857-.6349-.2963.1481-1.1322.783-.8358 2.4971-2.4441 3.9784-3.6927 1.298-1.1199 2.6931-2.122 4.1689-2.9944 1.545-.9205 3.449-1.9469 4.444-2.4865s1.058-.6348.846-.9205c-.211-.2857-.74-.7936-1.163-1.2486-.402-.4732-.852-.9024-1.344-1.2803-.733-.5149-1.544-.9079-2.4021-1.1638-1.1384-.3397-2.3082-.563-3.4917-.6666-1.2168-.127-2.3807-.127-3.1213-.1799-.7407-.0529-1.0581-.1799-1.3332-.5291-.2906-.4525-.515-.9442-.6666-1.4601-.1075-.2115-.1695-.4431-.1823-.68-.0127-.2368.0241-.4737.1082-.6955.2328-.455.8253-.91 1.1639-1.5766.338-.8721.4259-1.8211.2539-2.7404-.1733-1.4152-.4924-2.8087-.9522-4.1583-.4361-1.3203-1.0597-2.5711-1.8517-3.7139-.7241-1.0228-1.6494-1.8869-2.7193-2.5394-1.1382-.7253-2.4333-1.1679-3.7773-1.2909-1.467-.0885-2.9351.1538-4.2959.7089-1.3245.4541-2.4967 1.2674-3.3859 2.349-.78 1.1032-1.1877 2.4265-1.1639 3.7774.0555 1.1987.3581 2.3731.8888 3.4493.4012.8668.9133 1.6778 1.5237 2.4125.6274.7792 1.3369 1.4887 2.1161 2.1161.7272.4457 1.4078.9633 2.0316 1.5449.3498.4676.5155 1.0475.4655 1.6294 0 .4232-.1058.6454-.857 1.2697-1.2805.9567-2.4265 2.0813-3.4071 3.3436-1.4849 2.0296-2.4938 4.3675-2.9518 6.8404-.4579 2.4728-.3531 5.017.3066 7.4438.8151 2.9787 1.8769 5.8844 3.1743 8.6869 1.2168 2.8039 2.4018 5.2904 3.1743 7.2267.6379 1.5359.9963 3.1735 1.058 4.8355 0 1.5448-.1904 3.2801-.3385 5.4597-.172 2.3724-.133 4.7554.1163 7.1209.2446 2.3306 1.1681 4.5381 2.6558 6.3486 2.0825 2.407 4.4325 4.569 7.0046 6.444 2.5288 1.915 4.846 3.417 6.613 4.666 1.4519.99 2.8122 2.109 4.0632 3.343 1.335 1.246 2.17 2.935 2.349 4.751.338 2.466.095 6.19.413 9.407.302 2.922 1.063 5.779 2.253 8.464 1.117 2.541 2.382 5.014 3.788 7.407 1.365 2.338 2.709 4.55 3.756 6.349.885 1.394 1.64 2.868 2.254 4.401.444 1.221.666 2.511.656 3.809 0 1.143-.296 2.116-.349 3.005-.07.861.166 1.719.667 2.423.271.346.621.622 1.02.806s.836.271 1.276.252c1.087-.065 2.135-.431 3.026-1.058.83-.791 1.789-1.435 2.835-1.904 1.334-.476 3.397-.614 5.291-1.132 1.65-.474 3.222-1.187 4.666-2.117.85-.493 1.563-1.192 2.074-2.031zm-20.569-40.133c1.693-3.122 4.962-4.984 4.232-8.232-.37-1.863-4.232-6.2325-5.205-7.6292-5.005-6.486-7.851-7.8404-10.793-10.5068-.466 0-.984-.0529-1.492-.0952 2.635 4.0419 4.328 8.0203 7.544 13.3952 1.302 2.391 5.418 8.666 5.714 13.068zm2.116-55.5712c.127-2.5525-.291-5.1026-1.227-7.4807-.804-2.1162-1.587-4.1265-2.815-4.8778-.256-.1492-.53-.2665-.814-.3492-3.376-.9099-5.291.7513-6.603 2.1162-2.994 2.4442-4.888 2.9944-8.8244 5.4703 5.2904 1.1534 9.9774 4.9202 14.3904 5.6608 1.777-.3597 3.311-1.185 5.893-.5396zm-2.666 17.7124c-2.416-.2343-4.655-1.3672-6.275-3.1743-13.1623 0-17.4899-1.6718-20.8123-3.2801.2195 2.5742.6154 5.1302 1.1851 7.65.5079 1.8305.7089 2.6135 2.7616 3.7457.4126.2222 2.6029 1.2802 4.0525 1.8516 3.7141-.8888 6.1051-.0635 7.9671-.1375 4.264.074 9.862-3.46 11.121-6.6554zm-16.379 53.8668c-.5161-2.713-.8238-5.461-.921-8.221 0-3.238-.3386-6.01-.3386-6.01-1.4971 1.869-2.8855 3.823-4.1582 5.851-1.82 2.963-3.2801 5.672-4.8567 8.095-1.3142 2.031-2.8353 3.921-4.5392 5.639-1.0089 1.059-2.1894 1.939-3.4917 2.603-.9169.316-1.7996.724-2.6346 1.217-.3423.274-.6128.627-.7879 1.029-.1752.402-.2497.841-.2173 1.278.0676.467.2302.916.4776 1.318.2475.402.5747.749.9614 1.02.9915.52 1.9007 1.183 2.6981 1.968.8335 1.254 1.5897 2.558 2.2644 3.904.5092.831 1.2139 1.525 2.0527 2.021.6348.434 1.2062.805 1.7987 1.143.5264.349 1.1287.567 1.7564.635.2269.014.4523-.045.6428-.169.1906-.124.3362-.306.4153-.519-.0016-.226-.056-.45-.1589-.652-.1028-.202-.2513-.377-.4336-.512-.3703-.359-.8359-.634-1.1427-1.005-.3364-.5-.5734-1.061-.6984-1.65-.2222-.783-.5079-1.852-.8359-3.058-.4223-1.183-.5988-2.44-.5184-3.693.2526-1.201.8964-2.284 1.8305-3.079.9417-.952 2.1161-1.862 3.8726-3.322 1.7564-1.461 6.9626-5.767 6.9626-5.831z" fill="#fff"/><path d="m140.757 190.594h-2.614v9.406h2.614z" fill="#a92819"/><path d="m140.757 189.292h-2.614v1.301h2.614z" fill="#a92819"/><path d="m137.563 152.915c.193.215.312.487.339.774.026.288-.04.577-.191.824-.561.844-1.33 1.529-2.232 1.989-1.444.929-3.016 1.642-4.667 2.116-1.862.519-3.925.656-5.29 1.132-1.046.47-2.005 1.114-2.836 1.905-.891.626-1.938.993-3.026 1.058-.439.018-.876-.068-1.275-.252-.4-.184-.749-.46-1.021-.806-.5-.704-.736-1.562-.666-2.423.052-.921.317-1.862.349-3.005.01-1.299-.212-2.589-.656-3.809-.614-1.534-1.369-3.007-2.254-4.402-1.058-1.746-2.391-3.957-3.756-6.348-1.406-2.393-2.671-4.866-3.788-7.407-1.191-2.686-1.951-5.542-2.254-8.465-.317-3.174-.074-6.941-.413-9.406-.178-1.817-1.014-3.506-2.348-4.751-1.252-1.234-2.6116-2.353-4.0635-3.344-1.7671-1.248-4.0843-2.751-6.6131-4.666-2.5721-1.875-4.9221-4.0364-7.0045-6.4435-1.4878-1.8105-2.4113-4.0179-2.6558-6.3485-.2175-2.347-.2281-4.7086-.0318-7.0574.1481-2.1797.3598-3.915.3386-5.4598-.0618-1.662-.4201-3.2995-1.0581-4.8354-.7195-1.9257-1.9045-4.4228-3.1743-7.2268-1.2974-2.8025-2.3591-5.7081-3.1742-8.6869-.6597-2.4268-.7645-4.971-.3066-7.4438s1.4668-4.8107 2.9518-6.8404c1.0098-1.2687 2.1881-2.3936 3.5023-3.3435.7512-.6243.8464-.8465.857-1.2697.05-.5819-.1157-1.1618-.4655-1.6295-.6238-.5816-1.3044-1.0991-2.0316-1.5448-.7792-.6274-1.4887-1.3369-2.1161-2.1162-.6104-.7347-1.1225-1.5456-1.5237-2.4124-.5308-1.0763-.8334-2.2506-.8888-3.4494-.0239-1.3509.3839-2.6742 1.1639-3.7774.8892-1.0816 2.0614-1.8948 3.3859-2.3489 1.3607-.5552 2.8289-.7974 4.2958-.7089 1.335.1199 2.6224.555 3.7562 1.2697 1.0526.6509 1.963 1.5074 2.677 2.5182.792 1.1429 1.4156 2.3936 1.8517 3.7139.4598 1.3496.7789 2.7431.9522 4.1583.172.9193.0841 1.8684-.2539 2.7405-.3386.6666-.9311 1.1215-1.1639 1.5765-.0841.2218-.1209.4587-.1082.6956.0128.2368.0748.4684.1823.6799.1516.516.376 1.0077.6666 1.4602.2645.3492.5925.4761 1.3332.529.7406.0529 1.9045 0 3.1213.1799 1.1977.1008 2.3819.3241 3.534.6666.8598.2625 1.6708.6627 2.4018 1.1851.477.3768.913.8023 1.302 1.2697.423.4549.941.9522 1.163 1.2485.223.2963.138.3598-.846.9205-.984.5608-2.899 1.566-4.444 2.4865-1.4616.8779-2.8425 1.8835-4.1265 3.005-1.439 1.2486-3.1743 2.9098-3.9361 3.7351-.7619.8253-.6455.8464-.1482 1.1321.9173.5764 1.916 1.0116 2.9627 1.2909 2.1665.4256 4.3072.9732 6.4121 1.64 2.539.8994 5.29 2.4442 7.533 3.4388 1.566.7263 3.205 1.2832 4.889 1.6612.645.1899 1.325.2333 1.989.127.561-.0847 1.27-.254 1.947-.4127.594-.191 1.218-.2734 1.841-.2433.522.1451 1.032.3327 1.524.5608.571.1693 1.28.2116 1.724.328.445.1164.614.3491.603.6348-.063.3666-.177.7226-.338 1.0581-.154.3305-.223.6942-.201 1.0581.092.3014.163.609.211.9205-.043.4245-.165.8371-.359 1.2168-.177.3063-.306.6383-.381.984 0 .2434.201.381.243.6455.038.312-.037.6274-.211.8888-.159.2433-.381.3597-1.059.3492-.886-.0326-1.767-.1424-2.634-.3281-.705-.1217-1.38-.3767-1.989-.7512-.415-.2853-.773-.6439-1.058-1.0581-.24-.4225-.573-.7845-.974-1.0581-.708-.2548-1.462-.3558-2.211-.2962-1.143 0-2.773 0-4.455-.0953-1.682-.0952-3.418-.1269-5.132-.3068-1.698-.1505-3.3819-.4335-5.0361-.8465-1.4942-.3759-2.9447-.9079-4.3276-1.5871-.9359-.5347-1.8435-1.1175-2.7193-1.7459-.6522-.3889-1.369-.6577-2.1162-.7935-1.2407-.2363-2.4559-.5906-3.6292-1.0581-1.6718-.6455-3.8726-1.7564-4.3064-1.7776s.9417 1.0581 2.2114 1.9998c1.2327.7469 2.2586 1.791 2.9838 3.0367.5608 1.2485.4867 2.9415.5925 4.8672.1529 2.0807.4249 4.1509.8147 6.2004.2555 2.0461.8717 4.0308 1.82 5.8618 1.1094 1.666 2.6688 2.9832 4.4968 3.7985 2.0104 1.0581 4.5181 1.9152 6.0417 2.7722 1.5239.8571 2.0529 1.7141 3.6289 4.5498 1.577 2.8357 4.233 7.629 6.137 11.11 1.434 2.373 2.734 4.825 3.894 7.343.545 1.575.9 3.209 1.058 4.867.37 2.317.861 4.613 1.471 6.878.698 2.709 1.619 5.756 2.423 9.173.804 3.418 1.471 7.259 2.116 10.148.4 2.223 1.157 4.367 2.243 6.348.872 1.413 2.179 2.505 3.725 3.111 1.583.576 3.247.897 4.93.952 1.185.066 2.374.002 3.545-.19.91-.138 1.598-.339 2.233-.434.263-.075.54-.094.811-.056.272.039.532.133.765.278z" fill="#a92819"/><path d="m133.689 190.594h-2.613v9.406h2.613z" fill="#a92819"/><path d="m133.689 189.292h-2.613v1.301h2.613z" fill="#a92819"/><path d="m127.256 190.594h-2.614v9.406h2.614z" fill="#a92819"/><path d="m127.256 189.292h-2.614v1.301h2.614z" fill="#a92819"/><path d="m116.941 11.5016c6.719 9.1207 4.624 21.4368 4.529 21.9553l-2.571-.455c0-.1164 1.989-11.7659-4.074-19.9555-3.269-4.444-8.338-7.11038-15.0353-7.94627l.3173-2.59232c7.449.93112 13.12 3.95725 16.834 8.99379z" fill="#4c8bca"/><path d="m121.415 106.148c.73 3.248-2.54 5.11-4.233 8.232-.243-4.402-4.359-10.676-5.714-13.068-3.174-5.3747-4.909-9.3531-7.544-13.395.508 0 1.058.0952 1.492.0952 2.942 2.6664 5.788 4.0208 10.793 10.5068.973 1.3967 4.782 5.767 5.206 7.629z" fill="#a92819"/><path d="m120.178 190.594h-2.603v9.406h2.603z" fill="#a92819"/><path d="m120.178 189.292h-2.603v1.301h2.603z" fill="#a92819"/><path d="m118.071 51.328c.935 2.3781 1.354 4.9283 1.227 7.4807-2.582-.6454-4.116.2222-5.894.4973-4.412-.7407-9.141-4.5074-14.3896-5.6608 3.9356-2.4759 5.8296-3.0261 8.8246-5.4703 1.365-1.3226 3.174-2.9838 6.602-2.1162.285.0827.559.2.815.3492 1.227.7936 2.01 2.8039 2.815 4.9201z" fill="#0f7657"/><path d="m113.109 190.594h-2.613v9.406h2.613z" fill="#a92819"/><path d="m113.109 189.292h-2.613v1.301h2.613z" fill="#a92819"/><path d="m110.359 73.2939c1.62 1.8071 3.859 2.9399 6.274 3.1743-1.259 3.1742-6.856 6.7294-11.12 6.6554-1.862.074-4.233-.7513-7.9676.1375-1.4496-.5714-3.6398-1.6294-4.0525-1.8516-2.0527-1.1322-2.2537-1.9152-2.7616-3.7457-.572-2.5372-.968-5.111-1.185-7.7029 3.3012 1.6612 7.65 3.3224 20.8127 3.333z" fill="#0f7657"/><g fill="#a92819"><path d="m106.031 190.594h-2.603v9.406h2.603z"/><path d="m106.031 189.292h-2.603v1.301h2.603z"/><path d="m99.2793 122.167c.0971 2.76.4048 5.508.9207 8.221 0 .064-5.1108 4.328-6.8778 5.809s-2.9309 2.37-3.8726 3.322c-.9301.79-1.5735 1.865-1.8305 3.058-.0803 1.254.0961 2.51.5185 3.693.328 1.206.6137 2.275.8359 3.058.117.612.3544 1.194.6983 1.714.3069.37.7724.645 1.1427 1.005.1824.135.3308.31.4337.512.1028.202.1572.425.1589.652-.0791.213-.2247.395-.4153.519s-.416.183-.6428.169c-.6278-.069-1.23-.286-1.7564-.635-.5926-.339-1.1639-.709-1.7988-1.143-.8387-.496-1.5434-1.19-2.0527-2.021-.6747-1.346-1.4308-2.65-2.2643-3.904-.7974-.786-1.7066-1.449-2.6981-1.968-.3867-.271-.7139-.618-.9614-1.021-.2475-.402-.41-.85-.4776-1.318-.0325-.437.0421-.875.2172-1.277.1752-.402.4456-.755.788-1.029.824-.499 1.696-.914 2.6029-1.238 1.3022-.665 2.4828-1.545 3.4917-2.603 1.6964-1.719 3.2105-3.609 4.518-5.64 1.5765-2.423 3.0367-5.131 4.8566-8.094 1.2614-2.039 2.6392-4.003 4.1266-5.883 0 0 .2539 2.804.3386 6.042z"/><path d="m98.9626 190.594h-2.6135v9.406h2.6135z"/><path d="m98.9626 189.292h-2.6135v1.301h2.6135z"/><path d="m91.8938 190.594h-2.6029v9.406h2.6029z"/><path d="m91.8938 189.292h-2.6029v1.301h2.6029z"/><path d="m84.8281 190.594h-2.6135v9.406h2.6135z"/><path d="m84.8281 189.292h-2.6135v1.301h2.6135z"/><path d="m77.7578 190.594h-2.6135v9.406h2.6135z"/><path d="m77.7578 189.292h-2.6135v1.301h2.6135z"/><path d="m70.6814 190.594h-2.6135v9.406h2.6135z"/><path d="m70.6814 189.292h-2.6135v1.301h2.6135z"/></g><path d="m69.769 3.29102.328 2.60289c-6.7189.83589-11.7766 3.50227-15.0566 7.93569-6.0417 8.1896-4.0843 19.8497-4.0737 19.9555l-2.5605.4656c-.0847-.5291-2.1797-12.8452 4.5392-21.9554 3.7138-5.04703 9.3746-8.07317 16.8236-9.00428z" fill="#4c8bca"/><path d="m64.2783 149.984c.4079.344.6635.834.7111 1.366.0475.531-.1168 1.059-.4571 1.47l-8.1473 9.692-.0741.084c.007.238-.033.475-.1175.697s-.2119.425-.375.598-.3587.312-.5755.41c-.2169.097-.4508.151-.6884.158s-.4743-.033-.6964-.118c-.2222-.084-.4256-.212-.5985-.375s-.312-.358-.4094-.575c-.0973-.217-.151-.451-.158-.689l-.0634-.074-8.1473-9.713c-.3256-.411-.4775-.934-.4232-1.456.0542-.521.3103-1.001.7136-1.337s.9217-.5 1.4447-.459c.523.042 1.0091.286 1.3545.681l5.1106 6.094v-4.137l-5.4386-6.549c-.1718-.202-.3019-.435-.3827-.687-.0809-.253-.1109-.518-.0882-.782.0226-.264.0974-.52.22-.755s.2906-.443.4943-.612c.4105-.34.9389-.505 1.4701-.457.5312.047 1.022.303 1.3655.711l2.4019 2.878v-3.904c-.0191-.25.0136-.502.0962-.738.0825-.237.213-.454.3834-.638s.3769-.331.6066-.431c.2298-.1.4777-.152.7284-.152s.4987.052.7284.152.4362.247.6066.431.3009.401.3835.638c.0825.236.1152.488.0961.738v3.946l2.5077-2.962c.3512-.381.8359-.612 1.3529-.644s1.0264.137 1.4221.471.6471.809.7018 1.324c.0546.515-.0916 1.031-.4083 1.441l-5.5762 6.592v4.021l5.1423-6.116c.3419-.394.8242-.639 1.3441-.683.5199-.043 1.0362.118 1.4387.45z" fill="#0f7657"/><path d="m64.194 190.594h-2.6134v9.406h2.6134z" fill="#a92819"/><path d="m64.194 189.292h-2.6134v1.301h2.6134z" fill="#a92819"/><path d="m57.1357 190.594h-2.6135v9.406h2.6135z" fill="#a92819"/><path d="m57.1357 189.292h-2.6135v1.301h2.6135z" fill="#a92819"/><path d="m55.5397 55.7192h-55.401516v2.6029h55.401516z" fill="#179e6c"/><path d="m55.4435 110.274v2.603h-55.4015078v-2.603h11.5120078c.3346.188.7117.286 1.0951.286.3835 0 .7605-.098 1.0951-.286h29.3726c.3327.188.708.286 1.0898.286s.7571-.098 1.0898-.286z" fill="#179e6c"/><path d="m55.4223 123.892h-55.3803078v2.613h55.3803078z" fill="#179e6c"/><path d="m55.1277 90.5407c.2086.2084.374.4558.4869.7281s.1711.5643.1711.8591-.0582.5867-.1711.859c-.1129.2724-.2783.5198-.4869.7281l-8.634 8.655v5.968c.001.294-.0575.585-.1721.856s-.2828.516-.4945.72c-.1428.15-.3067.279-.4868.381h-2.2219c-.3518-.192-.6456-.475-.8503-.819-.2048-.344-.3131-.738-.3136-1.138v-5.968l-8.9515-8.4645c-.2215-.2096-.3977-.4622-.5178-.7425-.1201-.2802-.1815-.5821-.1805-.887.0022-.5688.2173-1.1162.6031-1.5342.2013-.2157.4432-.3896.7117-.5116.2686-.1221.5586-.19.8535-.1998.2948-.0099.5887.0386.8649.1425.2761.1039.529.2613.7442.4631l5.8724 5.5338v-6.1475l-5.8195-6.2004c-.2018-.2152-.3592-.4681-.4631-.7442-.1039-.2762-.1524-.5701-.1425-.8649.0098-.2949.0777-.5849.1998-.8535.1221-.2685.2959-.5104.5116-.7117.4345-.4063 1.0121-.6243 1.6067-.6064.5947.0178 1.1581.27 1.5676.7016l2.5499 2.7193v-10.1894c-.0022-.2988.0588-.5948.1792-.8683.1204-.2736.2973-.5186.5192-.7188.1447-.1523.3125-.2809.4973-.3809h2.1796c.3491.194.6401.4778.8429.8219.2027.3441.3099.7361.3105 1.1355v10.4434l2.3807-2.3807c.2068-.2112.4538-.3789.7263-.4934.2725-.1146.5652-.1735.8608-.1735s.5882.0589.8608.1735c.2725.1145.5194.2822.7263.4934.2086.2083.3741.4557.487.7281.1129.2723.171.5642.171.859s-.0581.5867-.171.8591c-.1129.2723-.2784.5197-.487.7281l-5.5655 5.5655v5.957l5.4597-5.4597c.2071-.2116.4541-.3801.7267-.4957.2725-.1157.5653-.1762.8613-.1782.2961-.002.5896.0547.8637.1667s.5232.2772.7332.486z" fill="#0f7657"/><path d="m55.4012 116.654h-55.3592078v2.614h55.3592078z" fill="#a92819"/><path d="m55.4012 68.7017v2.6134h-10.0625c-.3327-.1872-.708-.2856-1.0898-.2856s-.7571.0984-1.0898.2856h-29.4149c-.3346-.1872-.7116-.2855-1.0951-.2855-.3834 0-.7605.0983-1.0951.2855h-11.5120078v-2.6134z" fill="#179e6c"/><path d="m55.4015 62.3003h-55.4015v2.6029h55.4015z" fill="#a92819"/><path d="m50.8732 42.6837.4444 2.5499c-1.6385.2496-3.2945.3664-4.9518.3492-4.5392 0-11.3851-.8253-16.9294-5.0047-5.0154-3.7351-8.0098-9.4276-8.8986-16.9295l2.6029-.3068c.7936 6.7083 3.4282 11.7765 7.8511 15.0778 8.1049 6.1898 19.7756 4.2958 19.8814 4.2641z" fill="#4c8bca"/><path d="m50.0594 190.594h-2.6135v9.406h2.6135z" fill="#a92819"/><path d="m50.0594 189.292h-2.6135v1.301h2.6135z" fill="#a92819"/><path d="m47.8148 161.623c.3236.418.4792.942.4361 1.468-.0431.527-.2817 1.019-.6689 1.378-.1952.17-.4227.299-.6689.379-.2461.08-.5058.109-.7636.086-.2577-.022-.5083-.097-.7366-.218-.2284-.122-.4299-.289-.5925-.49l-11.914-14.422-11.9035 14.443c-.1607.201-.3603.367-.5869.488-.2265.122-.4753.196-.7314.219s-.5141-.007-.7585-.086c-.2444-.08-.4702-.208-.6637-.377-.4007-.352-.649-.845-.6925-1.376-.0434-.532.1215-1.059.4597-1.471l12.3162-14.95-4.1054-4.984c-.3206-.417-.4743-.939-.4313-1.463s.2798-1.014.6641-1.373c.1946-.17.4215-.3.6673-.38.2457-.081.5052-.111.7629-.09.2578.022.5085.095.7372.216.2288.121.4308.286.5942.487l3.6716 4.529 3.7033-4.487c.1633-.2.3654-.366.5941-.487.2288-.12.4795-.194.7372-.215.2578-.022.5173.008.763.089s.4727.21.6673.381c.3827.36.6175.85.6585 1.375.0411.524-.1144 1.044-.4363 1.46l-4.116 4.994z" fill="#0f7657"/><path d="m45.338 71.3154h-2.222c.3327-.1872.708-.2856 1.0898-.2856s.7571.0984 1.0898.2856z" fill="#1d1d1b"/><path d="m43.116 110.274h2.222c-.3328.188-.7081.286-1.0899.286s-.7571-.098-1.0898-.286z" fill="#1d1d1b"/><path d="m42.9891 190.594h-2.6135v9.406h2.6135z" fill="#a92819"/><path d="m42.9891 189.292h-2.6135v1.301h2.6135z" fill="#a92819"/><path d="m35.9112 190.594h-2.6029v9.406h2.6029z" fill="#a92819"/><path d="m35.9112 189.292h-2.6029v1.301h2.6029z" fill="#a92819"/><path d="m32.9267 135.171c.396-.002.7837.113 1.1139.332.3303.218.5882.53.7412.895s.1941.768.1182 1.156c-.076.389-.2656.746-.5449 1.027-.2792.281-.6355.472-1.0237.55s-.7909.039-1.1569-.112-.679-.407-.8992-.736-.3378-.716-.3378-1.112c-.0014-.262.0491-.522.1484-.765.0993-.242.2456-.463.4305-.649s.4046-.333.6466-.434c.2421-.1.5016-.152.7637-.152z" fill="#a92819"/><path d="m28.8425 190.594h-2.6135v9.406h2.6135z" fill="#a92819"/><path d="m28.8425 189.292h-2.6135v1.301h2.6135z" fill="#a92819"/><path d="m19.5971.00012598c1.4027.01045072 2.7709.43553202 3.9325 1.22175402 1.1616.78622 2.0648 1.89846 2.5957 3.19675.531 1.29829.6662 2.72463.3884 4.09953-.2777 1.37491-.9559 2.63694-1.9492 3.62734s-2.2574 1.6648-3.6331 1.9385-2.8016.1343-4.0984-.4005c-1.2967-.5348-2.4062-1.4413-3.189-2.6052-.7828-1.16394-1.2038-2.53341-1.2101-3.93608-.0028-.94048.1807-1.87221.5399-2.74138.3593-.86917.8872-1.65857 1.5532-2.32261s1.4569-1.189575 2.3272-1.546256c.8702-.35668 1.8025-.53744206 2.7429-.53184802zm4.4757 7.14209402c0-.89194-.2646-1.76383-.7603-2.5053-.4958-.74148-1.2004-1.3192-2.0246-1.66005-.8243-.34084-1.7311-.42949-2.6058-.2547-.8746.17478-1.6778.60512-2.3077 1.23656-.63.63144-1.0584 1.43558-1.2311 2.31064-.1728.87505-.082 1.78168.2608 2.60513.3428.82344.9221 1.5267 1.6648 2.0207.7426.494 1.6151.7566 2.5071.7545 1.1936-.0028 2.3374-.4789 3.1804-1.324.843-.84497 1.3164-1.98986 1.3164-3.18348z" fill="#4c8bca"/><path d="m23.521 90.5407c.2125.2062.3814.4529.4968.7255.1153.2726.1747.5656.1747.8617 0 .296-.0594.589-.1747.8616-.1154.2727-.2843.5194-.4968.7255l-8.634 8.655v5.968c.0007.293-.057.583-.1697.854-.1126.271-.2779.516-.4863.722-.1452.148-.3088.276-.4867.381h-2.1902c-.3464-.196-.6347-.481-.8354-.824-.2007-.344-.3068-.735-.3074-1.133v-5.968l-8.96198-8.4645c-.41894-.4179-.654892-.9849-.656011-1.5766-.005323-.5702.210901-1.1203.603111-1.5342.20129-.2157.44315-.3896.71173-.5116.26857-.1221.5586-.19.85345-.1998.29486-.0099.58876.0386.86487.1425s.52901.2613.74421.4631l5.88302 5.5338v-6.2004l-5.87243-6.2004c-.19964-.2061-.35662-.4496-.46193-.7165s-.15689-.552-.15177-.8389c-.00094-.3059.06157-.6086.18359-.8891.12203-.2805.30091-.5326.52533-.7404.43582-.4037 1.01283-.6199 1.60663-.6021.59379.0178 1.1568.2683 1.56764.6974l2.56054 2.7192v-10.1788c-.0032-.2951.0533-.5878.166-.8605s.2794-.5199.49-.7266c.1475-.1449.3107-.2726.4868-.3809h2.1902c.3479.1946.6373.4787.8383.8229.2009.3442.306.736.3044 1.1345v10.4434l2.4019-2.3807c.2042-.2118.4492-.38.7201-.4945.271-.1146.5623-.1731.8565-.1721.4417.0046.8723.1388 1.2383.3861.3661.2473.6514.5967.8205 1.0048.169.4081.2145.8568.1306 1.2905-.0838.4337-.2933.8332-.6023 1.1489l-5.5656 5.5655v5.9676l5.4704-5.4597c.206-.2097.4514-.3766.7221-.4911.2707-.1146.5614-.1746.8553-.1766.294-.002.5854.0541.8576.1651.2722.1109.5198.2745.7286.4814z" fill="#0f7657"/><path d="m21.7645 190.594h-2.6029v9.406h2.6029z" fill="#a92819"/><path d="m21.7645 189.292h-2.6029v1.301h2.6029z" fill="#a92819"/><path d="m19.5962 9.63969c1.3967 0 2.5288-1.13219 2.5288-2.52883 0-1.39663-1.1321-2.52883-2.5288-2.52883-1.3966 0-2.5288 1.1322-2.5288 2.52883 0 1.39664 1.1322 2.52883 2.5288 2.52883z" fill="#2a3277"/><path d="m21.0028 149.985c.2031.169.3709.377.4937.611.1227.234.1981.49.2217.754.0236.263-.0051.529-.0843.781-.0791.252-.2073.487-.3772.689l-8.1473 9.692-.0741.106c-.0076.483-.199.944-.5353 1.29-.3362.346-.7919.551-1.274.572-.4696-.023-.9138-.22-1.24628-.552-.33246-.333-.52938-.777-.55245-1.246l-.06349-.074-8.15786-9.714c-.16882-.203-.295902-.438-.373975-.691-.078074-.252-.105615-.518-.081052-.781.024563-.264.10075-.52.22421-.753.123457-.234.291777-.442.495337-.61.20356-.169.43838-.296.69106-.374.25267-.078.51825-.106.78156-.081.26332.024.51922.1.75309.224.23388.123.44114.292.60997.495l5.11056 6.095v-4.137l-5.44915-6.529c-.3202-.41-.46851-.929-.4137-1.447.0548-.518.30845-.995.70752-1.329.39906-.335.91241-.502 1.43194-.465.51952.036 1.00467.273 1.35328.659l2.41244 2.878v-3.904c-.02595-.506.14994-1.002.48912-1.379.33917-.377.81397-.604 1.32017-.631.2512.012.4975.074.7246.182.2272.107.4307.259.5989.446s.2978.405.3812.643c.0833.237.1189.488.1047.739v3.947l2.5182-2.963c.3438-.405.8346-.658 1.3644-.701.5298-.044 1.0552.125 1.4607.468.4055.344.6578.835.7015 1.365s-.1249 1.055-.4687 1.46l-5.5761 6.592v4.021l5.1423-6.126c.3433-.393.8263-.636 1.3462-.677.5198-.042 1.0353.121 1.4366.455z" fill="#0f7657"/><path d="m14.7078 190.594h-2.6134v9.406h2.6134z" fill="#a92819"/><path d="m14.7078 189.292h-2.6134v1.301h2.6134z" fill="#a92819"/><path d="m13.7437 71.3158h-2.1902c.3346-.1872.7116-.2855 1.0951-.2855.3834 0 .7605.0983 1.0951.2855z" fill="#1d1d1b"/><path d="m11.5535 110.274h2.1902c-.3346.188-.7117.286-1.0951.286-.3835 0-.7605-.098-1.0951-.286z" fill="#1d1d1b"/><path d="m7.63 190.594h-2.6029v9.406h2.6029z" fill="#a92819"/><path d="m7.63 189.292h-2.6029v1.301h2.6029z" fill="#a92819"/><path d="m7.58638 7.32227h-2.61348v41.76273h2.61348z" fill="#2a3277"/></svg>