<svg fill="none" height="22" viewBox="0 0 21 22" width="21" xmlns="http://www.w3.org/2000/svg"><path d="m12.2375 20.2627v.0886c0 .4373-.1903.8566-.529 1.1658s-.7981.4829-1.2771.4829c-.47897 0-.93832-.1737-1.27702-.4829-.33871-.3092-.52901-.7285-.52901-1.1658l-8.156465-8.8638c-.34251-.3738-.5083125-.8564-.46096681-1.3418.04734571-.48542.30397081-.93376.71343781-1.24642.409464-.31266.938234-.46404 1.469964-.42082s1.02284.27751 1.36535.65129l5.12694 5.54875v-3.7583l-5.49592-5.99192c-.34251-.37143-.50934-.85185-.46381-1.33558.04552-.48372.29967-.93111.70656-1.24377s.93324-.46497 1.46315-.42341c.5299.04155 1.02.27358 1.36251.64501l2.42751 2.62368v-3.54553c0-.43725.1903-.856594.529-1.165779.33871-.309186.79807-.482901 1.27707-.482901s.9384.173715 1.2771.482901c.3387.309185.5289.728529.5289 1.165779v3.54553l2.5053-2.71233c.3425-.37143.8326-.60345 1.3625-.64501.5299-.04155 1.0562.11076 1.4631.42342s.661.76007.7066 1.2438c.0455.48372-.1213.96414-.4638 1.33557l-5.5737 6.02734v3.7051l5.127-5.58418c.1637-.19276.3692-.35261.6037-.46956.2344-.11695.4928-.18847.7589-.2101s.5342.0071.7876.0844c.2535.07729.4867.20147.6851.3648.2082.14936.3808.33603.507.54849.1263.21247.2036.44625.2272.687.0237.24075-.0068.48335-.0897.71295-.0828.2296-.2163.4413-.392.6221z" fill="#fff"/></svg>