<svg width="22" height="21" viewBox="0 0 22 21" fill="none" xmlns="http://www.w3.org/2000/svg">
<path d="M20.2627 8.76251L20.3513 8.76251C20.7886 8.76251 21.2079 8.95276 21.5171 9.29146C21.8263 9.63016 22 10.0896 22 10.5686C22 11.0476 21.8263 11.5069 21.5171 11.8456C21.2079 12.1843 20.7886 12.3746 20.3513 12.3746V12.3746L11.4875 20.5311C11.1137 20.8736 10.6311 21.0394 10.1457 20.9921C9.66028 20.9447 9.21194 20.6881 8.89928 20.2786C8.58662 19.8692 8.43524 19.3404 8.47846 18.8087C8.52168 18.2769 8.75597 17.7858 9.12975 17.4433L14.6785 12.3164L10.9202 12.3164L4.92828 17.8123C4.55685 18.1548 4.07643 18.3216 3.5927 18.2761C3.10898 18.2306 2.66159 17.9764 2.34893 17.5695C2.03627 17.1626 1.88396 16.6363 1.92552 16.1064C1.96707 15.5765 2.1991 15.0864 2.57053 14.7439L5.19421 12.3164L1.64868 12.3164C1.21143 12.3164 0.792086 12.1261 0.4829 11.7874C0.173715 11.4487 -4.37581e-07 10.9893 -4.58519e-07 10.5103C-4.79457e-07 10.0313 0.173714 9.57191 0.4829 9.2332C0.792086 8.8945 1.21143 8.70426 1.64868 8.70426L5.19421 8.70426L2.48188 6.19905C2.11045 5.85654 1.87843 5.36638 1.83687 4.83648C1.79531 4.30657 1.94763 3.78028 2.26029 3.37339C2.57295 2.9665 3.02036 2.71235 3.50409 2.66683C3.98781 2.6213 4.46823 2.78813 4.83966 3.13064L10.867 8.70426L14.5721 8.70426L8.98792 3.57732C8.79516 3.41363 8.6353 3.2081 8.51836 2.97364C8.40141 2.73918 8.32989 2.48081 8.30826 2.21469C8.28663 1.94856 8.31536 1.68046 8.39266 1.42705C8.46995 1.17364 8.59413 0.940426 8.75745 0.742002C8.90682 0.533814 9.09348 0.361248 9.30595 0.234986C9.51842 0.108723 9.7522 0.0314072 9.99295 0.00776196C10.2337 -0.0158833 10.4763 0.0146431 10.7059 0.0974898C10.9355 0.180337 11.1472 0.313769 11.328 0.489531L20.2627 8.76251Z" fill="white"/>
</svg>
