<svg fill="none" height="30" viewBox="0 0 30 30" width="30" xmlns="http://www.w3.org/2000/svg"><g fill="#000"><path d="m29.2128 23.1423-6.0721-4.0494c-.7706-.5097-1.8035-.342-2.3732.3855l-1.7687 2.2741c-.2273.2997-.6405.3867-.9694.204l-.3364-.1855c-1.1154-.6079-2.5031-1.3648-5.2992-4.1618-2.79612-2.7971-3.5545-4.1859-4.16244-5.2992l-.18448-.3365c-.18519-.3288-.09989-.7437.19995-.9729l2.27267-1.76817c.7271-.56974.8951-1.60236.3859-2.37317l-4.04938-6.072107c-.52182-.7849233-1.56874-1.020553-2.37657-.534941l-2.53913 1.525258c-.79781.46904-1.383136 1.22865-1.633236 2.11967-.914337 3.3315-.2264902 9.08116 8.243276 17.55196 6.73754 6.7369 11.75324 8.5487 15.20074 8.5487.7935.0034 1.5838-.0998 2.3497-.3069.8912-.2498 1.6509-.8352 2.1197-1.6333l1.5268-2.5376c.4863-.808.2508-1.8555-.5345-2.3777zm-.327 1.8647-1.5232 2.5392c-.3366.576-.883.9995-1.5248 1.1818-3.0756.8444-8.4488.145-16.58009-7.9863-8.13131-8.1313-8.830644-13.50404-7.98626-16.58005.18255-.64256.60659-1.18968 1.1833-1.52678l2.53914-1.52327c.35052-.21091.8049-.10868 1.03133.23194l2.1997 3.30249 1.84628 2.76909c.2211.33434.1484.78246-.167 1.02986l-2.27316 1.76822c-.69177.529-.88932 1.4861-.46341 2.2457l.1805.3279c.63893 1.1719 1.43329 2.6296 4.33337 5.5292 2.9001 2.8996 4.3574 3.694 5.5287 4.3329l.3284.1809c.7596.4259 1.7167.2284 2.2457-.4634l1.7682-2.2731c.2475-.3153.6954-.3879 1.0299-.167l6.0715 4.0494c.3409.2263.4431.6809.2319 1.0313z"/><path d="m16.9992 4.99981c4.6915.00522 8.4935 3.80721 8.4987 8.49879 0 .2761.2238.4999.4999.4999.2762 0 .5-.2238.5-.4999-.0058-5.24357-4.2551-9.49286-9.4986-9.4986-.2761 0-.4999.2238-.4999.49991s.2238.4999.4999.4999z"/><path d="m16.9992 7.99981c3.0356.00358 5.4956 2.46359 5.4992 5.49919 0 .2761.2238.4999.4999.4999s.4999-.2238.4999-.4999c-.0042-3.58761-2.9114-6.4949-6.499-6.499-.2761 0-.4999.2238-.4999.49991s.2238.4999.4999.4999z"/><path d="m16.9992 10.9998c1.3798.0017 2.4979 1.1198 2.4996 2.4997 0 .2761.2239.4999.4999.4999.2761 0 .4999-.2238.4999-.4999-.0022-1.9318-1.5676-3.4973-3.4994-3.4995-.2761 0-.4999.2238-.4999.4999s.2238.4999.4999.4999z"/></g></svg>