<svg fill="none" height="30" viewBox="0 0 30 30" width="30" xmlns="http://www.w3.org/2000/svg"><g fill="#000"><path d="m15 13c1.93 0 3.5-1.5705 3.5-3.5s-1.57-3.5-3.5-3.5-3.5 1.5705-3.5 3.5 1.57 3.5 3.5 3.5zm0-6c1.3785 0 2.5 1.1215 2.5 2.5s-1.1215 2.5-2.5 2.5-2.5-1.1215-2.5-2.5 1.1215-2.5 2.5-2.5z"/><path d="m14.9115 27.3785 7.6705-11.0785c2.877-3.8355 2.461-10.14-.8905-13.491-1.811-1.8115-4.219-2.809-6.78-2.809s-4.96898.9975-6.77998 2.8085c-3.3515 3.351-3.7675 9.6555-.902 13.476zm-6.07298-23.863c1.62248-1.622 3.77898-2.5155 6.07298-2.5155s4.4505.8935 6.073 2.5155c3.025 3.0245 3.3975 8.7185.7865 12.1995l-6.8595 9.9065-6.87048-9.9215c-2.6-3.466-2.227-9.16.7975-12.1845z"/><path d="m21.0585 21.5039c-.275-.0335-.523.1635-.555.438s.164.523.438.555c5.258.619 8.0585 2.287 8.0585 3.2535 0 1.357-5.326 3.25-14 3.25s-14-1.893-14-3.25c0-.9665 2.8005-2.6345 8.0585-3.2535.274-.032.47-.281.438-.555-.0325-.2745-.2805-.4725-.555-.438-5.2645.62-8.9415 2.366-8.9415 4.2465 0 2.112 5.1525 4.25 15 4.25s15-2.138 15-4.25c0-1.8805-3.677-3.6265-8.9415-4.2465z"/></g></svg>