<svg fill="none" height="23" viewBox="0 0 30 23" width="30" xmlns="http://www.w3.org/2000/svg"><path d="m28.1651.111973c-.2402-.0743559-.4951-.111973-.7651-.111973h-24.80002c-.27 0-.52494.0376171-.76518.111973-1.069273.32209-1.8348 1.305057-1.8348 2.488067v17.80006c0 .7194.283301 1.3647.745605 1.8325.016231.0242.033985.047.054375.0674.129786.1168.26982.2198.41719.3088.36656.2279.79558.367 1.25883.3881.0413.002.08261.0031.12392.0031h24.79998c.0413 0 .0827-.0011.1239-.0031 1.3912-.0633 2.4762-1.1885 2.4762-2.5969v-17.79996c0-1.18301-.7656-2.165977-1.8349-2.488067zm-10.2084 11.831827 10.8475-10.12435c.1251.2294.1958.49483.1958.78053v17.80002c0 .3179-.0876.6107-.2403.8566zm9.4433-10.94378c.0294 0 .058.00082.0861.00223.014.0007.0278.00199.0417.00304.015.00112.0302.00205.045.00364.0072.00076.0143.00181.0214.00263.1646.01987.3104.06574.4558.13852l-11.0128 10.29762c-.065.023-.1283.0582-.1872.1024l-.4.3499c-.85.8-2.15.8-3 0l-.0541-.0472-11.4459-10.70278c.14543-.07272.29115-.11865.4558-.13852.00715-.00082.01418-.00187.02139-.00263.01476-.00159.03-.00246.04511-.00364.01389-.00105.02766-.00234.04166-.00304.02807-.00141.05667-.002229.08608-.002229h24.79996zm-26.19338 20.19948c-.13166-.2337-.2066-.5058-.2066-.7995v-17.79996c0-.2857.07078-.55113.19588-.78053l10.7994 10.07949zm1.39336.8005c-.16219 0-.32437-.033-.48662-.0721-.03522-.0107-.06973-.023-.10377-.0361l10.76251-9.2677.0279.026c.2061.1743.4221.3233.6467.4458 1.1812.677 2.7365.5287 3.7534-.4458l.0518-.0484 10.7386 9.2901c-.0341.0131-.0685.0254-.1038.0362-.1622.0391-.3244.0721-.4866.0721h-24.80012z" fill="#000"/></svg>